G04 #@! TF.GenerationSoftware,KiCad,Pcbnew,7.0.10*
G04 #@! TF.CreationDate,2024-01-28T23:01:02+03:00*
G04 #@! TF.ProjectId,Eco_display,45636f5f-6469-4737-906c-61792e6b6963,rev?*
G04 #@! TF.SameCoordinates,Original*
G04 #@! TF.FileFunction,Paste,Bot*
G04 #@! TF.FilePolarity,Positive*
%FSLAX46Y46*%
G04 Gerber Fmt 4.6, Leading zero omitted, Abs format (unit mm)*
G04 Created by KiCad (PCBNEW 7.0.10) date 2024-01-28 23:01:02*
%MOMM*%
%LPD*%
G01*
G04 APERTURE LIST*
G04 Aperture macros list*
%AMRoundRect*
0 Rectangle with rounded corners*
0 $1 Rounding radius*
0 $2 $3 $4 $5 $6 $7 $8 $9 X,Y pos of 4 corners*
0 Add a 4 corners polygon primitive as box body*
4,1,4,$2,$3,$4,$5,$6,$7,$8,$9,$2,$3,0*
0 Add four circle primitives for the rounded corners*
1,1,$1+$1,$2,$3*
1,1,$1+$1,$4,$5*
1,1,$1+$1,$6,$7*
1,1,$1+$1,$8,$9*
0 Add four rect primitives between the rounded corners*
20,1,$1+$1,$2,$3,$4,$5,0*
20,1,$1+$1,$4,$5,$6,$7,0*
20,1,$1+$1,$6,$7,$8,$9,0*
20,1,$1+$1,$8,$9,$2,$3,0*%
G04 Aperture macros list end*
%ADD10RoundRect,0.150000X-0.587500X-0.150000X0.587500X-0.150000X0.587500X0.150000X-0.587500X0.150000X0*%
%ADD11RoundRect,0.135000X0.135000X0.185000X-0.135000X0.185000X-0.135000X-0.185000X0.135000X-0.185000X0*%
%ADD12RoundRect,0.200000X-0.200000X-0.275000X0.200000X-0.275000X0.200000X0.275000X-0.200000X0.275000X0*%
%ADD13RoundRect,0.140000X-0.140000X-0.170000X0.140000X-0.170000X0.140000X0.170000X-0.140000X0.170000X0*%
%ADD14RoundRect,0.100000X0.712500X0.100000X-0.712500X0.100000X-0.712500X-0.100000X0.712500X-0.100000X0*%
%ADD15RoundRect,0.135000X-0.135000X-0.185000X0.135000X-0.185000X0.135000X0.185000X-0.135000X0.185000X0*%
%ADD16R,1.200000X0.300000*%
%ADD17R,2.387600X2.387600*%
%ADD18RoundRect,0.135000X-0.185000X0.135000X-0.185000X-0.135000X0.185000X-0.135000X0.185000X0.135000X0*%
%ADD19RoundRect,0.225000X0.375000X-0.225000X0.375000X0.225000X-0.375000X0.225000X-0.375000X-0.225000X0*%
%ADD20RoundRect,0.140000X0.140000X0.170000X-0.140000X0.170000X-0.140000X-0.170000X0.140000X-0.170000X0*%
%ADD21RoundRect,0.147500X0.147500X0.172500X-0.147500X0.172500X-0.147500X-0.172500X0.147500X-0.172500X0*%
%ADD22RoundRect,0.225000X-0.375000X0.225000X-0.375000X-0.225000X0.375000X-0.225000X0.375000X0.225000X0*%
G04 APERTURE END LIST*
D10*
X133549120Y-113985000D03*
X133549120Y-112085000D03*
X135424120Y-113035000D03*
D11*
X154910000Y-84600000D03*
X153890000Y-84600000D03*
D10*
X138822500Y-86550000D03*
X138822500Y-84650000D03*
X140697500Y-85600000D03*
D12*
X129014620Y-113985000D03*
X130664620Y-113985000D03*
D13*
X148550000Y-82800000D03*
X149510000Y-82800000D03*
D14*
X151672500Y-84225000D03*
X151672500Y-84875000D03*
X151672500Y-85525000D03*
X151672500Y-86175000D03*
X147447500Y-86175000D03*
X147447500Y-85525000D03*
X147447500Y-84875000D03*
X147447500Y-84225000D03*
D15*
X153890000Y-85800000D03*
X154910000Y-85800000D03*
D16*
X164900000Y-83600004D03*
X164900000Y-84100004D03*
X164900000Y-84600004D03*
X164900000Y-85100004D03*
X164900000Y-85600004D03*
X164900000Y-86100004D03*
X164900000Y-86600007D03*
X164900000Y-87100004D03*
X164900000Y-87600004D03*
X164900000Y-88100004D03*
X164900000Y-88600004D03*
X164900000Y-89100007D03*
X164900000Y-89600004D03*
X164900000Y-90100004D03*
X164900000Y-90600004D03*
X164900000Y-91100004D03*
X164900000Y-91600007D03*
X164900000Y-92100004D03*
X164900000Y-92600004D03*
X164900000Y-93100004D03*
X164900000Y-93600004D03*
X164900000Y-94100007D03*
X164900000Y-94600004D03*
X164900000Y-95100004D03*
X164900000Y-95600004D03*
X164900000Y-96100004D03*
X164900000Y-96600004D03*
X164900000Y-97100004D03*
X164900000Y-97600004D03*
X164900000Y-98100004D03*
X164900000Y-98600004D03*
X164900000Y-99100004D03*
X164900000Y-99600004D03*
X164900000Y-100100004D03*
X164900000Y-100600004D03*
X164900000Y-101100004D03*
X164900000Y-101600004D03*
X164900000Y-102100004D03*
X164900000Y-102600004D03*
X164900000Y-103100007D03*
X164900000Y-103600004D03*
X164900000Y-104100004D03*
X164900000Y-104600004D03*
X164900000Y-105100004D03*
X164900000Y-105600007D03*
X164900000Y-106100004D03*
X164900000Y-106600004D03*
X164900000Y-107100004D03*
X164900000Y-107600004D03*
X164900000Y-108100007D03*
D17*
X167600000Y-81500008D03*
X167600000Y-110200000D03*
D18*
X142510000Y-85090000D03*
X142510000Y-86110000D03*
D19*
X134119000Y-89834000D03*
X134119000Y-86534000D03*
D20*
X147190000Y-81600000D03*
X146230000Y-81600000D03*
D11*
X134950000Y-91500000D03*
X133930000Y-91500000D03*
D12*
X129024620Y-111167000D03*
X130674620Y-111167000D03*
D21*
X137250000Y-84650000D03*
X136280000Y-84650000D03*
D11*
X144809000Y-84859000D03*
X143789000Y-84859000D03*
D20*
X147270000Y-82800000D03*
X146310000Y-82800000D03*
D21*
X137250000Y-86532000D03*
X136280000Y-86532000D03*
D22*
X134111000Y-81350000D03*
X134111000Y-84650000D03*
D11*
X144820000Y-86000000D03*
X143800000Y-86000000D03*
M02*
