G04 #@! TF.GenerationSoftware,KiCad,Pcbnew,7.0.10*
G04 #@! TF.CreationDate,2024-01-26T21:22:08+03:00*
G04 #@! TF.ProjectId,Eco_display,45636f5f-6469-4737-906c-61792e6b6963,rev?*
G04 #@! TF.SameCoordinates,Original*
G04 #@! TF.FileFunction,Paste,Bot*
G04 #@! TF.FilePolarity,Positive*
%FSLAX46Y46*%
G04 Gerber Fmt 4.6, Leading zero omitted, Abs format (unit mm)*
G04 Created by KiCad (PCBNEW 7.0.10) date 2024-01-26 21:22:08*
%MOMM*%
%LPD*%
G01*
G04 APERTURE LIST*
G04 Aperture macros list*
%AMRoundRect*
0 Rectangle with rounded corners*
0 $1 Rounding radius*
0 $2 $3 $4 $5 $6 $7 $8 $9 X,Y pos of 4 corners*
0 Add a 4 corners polygon primitive as box body*
4,1,4,$2,$3,$4,$5,$6,$7,$8,$9,$2,$3,0*
0 Add four circle primitives for the rounded corners*
1,1,$1+$1,$2,$3*
1,1,$1+$1,$4,$5*
1,1,$1+$1,$6,$7*
1,1,$1+$1,$8,$9*
0 Add four rect primitives between the rounded corners*
20,1,$1+$1,$2,$3,$4,$5,0*
20,1,$1+$1,$4,$5,$6,$7,0*
20,1,$1+$1,$6,$7,$8,$9,0*
20,1,$1+$1,$8,$9,$2,$3,0*%
G04 Aperture macros list end*
%ADD10RoundRect,0.150000X-0.587500X-0.150000X0.587500X-0.150000X0.587500X0.150000X-0.587500X0.150000X0*%
%ADD11RoundRect,0.200000X-0.200000X-0.275000X0.200000X-0.275000X0.200000X0.275000X-0.200000X0.275000X0*%
%ADD12R,1.950000X3.500000*%
%ADD13R,0.800000X3.400000*%
%ADD14RoundRect,0.135000X0.185000X-0.135000X0.185000X0.135000X-0.185000X0.135000X-0.185000X-0.135000X0*%
%ADD15RoundRect,0.150000X-0.150000X0.587500X-0.150000X-0.587500X0.150000X-0.587500X0.150000X0.587500X0*%
%ADD16RoundRect,0.140000X-0.170000X0.140000X-0.170000X-0.140000X0.170000X-0.140000X0.170000X0.140000X0*%
%ADD17RoundRect,0.100000X0.100000X-0.712500X0.100000X0.712500X-0.100000X0.712500X-0.100000X-0.712500X0*%
%ADD18RoundRect,0.135000X-0.185000X0.135000X-0.185000X-0.135000X0.185000X-0.135000X0.185000X0.135000X0*%
%ADD19R,1.200000X0.300000*%
%ADD20R,2.387600X2.387600*%
%ADD21RoundRect,0.135000X0.135000X0.185000X-0.135000X0.185000X-0.135000X-0.185000X0.135000X-0.185000X0*%
%ADD22RoundRect,0.225000X0.225000X0.375000X-0.225000X0.375000X-0.225000X-0.375000X0.225000X-0.375000X0*%
%ADD23RoundRect,0.140000X0.170000X-0.140000X0.170000X0.140000X-0.170000X0.140000X-0.170000X-0.140000X0*%
G04 APERTURE END LIST*
D10*
X133549120Y-113985000D03*
X133549120Y-112085000D03*
X135424120Y-113035000D03*
D11*
X129014620Y-113985000D03*
X130664620Y-113985000D03*
X129024620Y-111167000D03*
X130674620Y-111167000D03*
D12*
X151325000Y-70860000D03*
X147275000Y-70860000D03*
D13*
X149300000Y-70860000D03*
D14*
X152500000Y-93410000D03*
X152500000Y-92390000D03*
D15*
X150550000Y-77322500D03*
X152450000Y-77322500D03*
X151500000Y-79197500D03*
D16*
X154300000Y-87050000D03*
X154300000Y-88010000D03*
D17*
X152875000Y-90172500D03*
X152225000Y-90172500D03*
X151575000Y-90172500D03*
X150925000Y-90172500D03*
X150925000Y-85947500D03*
X151575000Y-85947500D03*
X152225000Y-85947500D03*
X152875000Y-85947500D03*
D18*
X151300000Y-92390000D03*
X151300000Y-93410000D03*
D19*
X164900000Y-80900000D03*
X164900000Y-81400000D03*
X164900000Y-81900000D03*
X164900000Y-82400000D03*
X164900000Y-82900000D03*
X164900000Y-83400000D03*
X164900000Y-83900003D03*
X164900000Y-84400000D03*
X164900000Y-84900000D03*
X164900000Y-85400000D03*
X164900000Y-85900000D03*
X164900000Y-86400003D03*
X164900000Y-86900000D03*
X164900000Y-87400000D03*
X164900000Y-87900000D03*
X164900000Y-88400000D03*
X164900000Y-88900003D03*
X164900000Y-89400000D03*
X164900000Y-89900000D03*
X164900000Y-90400000D03*
X164900000Y-90900000D03*
X164900000Y-91400003D03*
X164900000Y-91900000D03*
X164900000Y-92400000D03*
X164900000Y-92900000D03*
X164900000Y-93400000D03*
X164900000Y-93900000D03*
X164900000Y-94400000D03*
X164900000Y-94900000D03*
X164900000Y-95400000D03*
X164900000Y-95900000D03*
X164900000Y-96400000D03*
X164900000Y-96900000D03*
X164900000Y-97400000D03*
X164900000Y-97900000D03*
X164900000Y-98400000D03*
X164900000Y-98900000D03*
X164900000Y-99400000D03*
X164900000Y-99900000D03*
X164900000Y-100400003D03*
X164900000Y-100900000D03*
X164900000Y-101400000D03*
X164900000Y-101900000D03*
X164900000Y-102400000D03*
X164900000Y-102900003D03*
X164900000Y-103400000D03*
X164900000Y-103900000D03*
X164900000Y-104400000D03*
X164900000Y-104900000D03*
X164900000Y-105400003D03*
D20*
X167600000Y-78800004D03*
X167600000Y-107499996D03*
D21*
X152010000Y-81010000D03*
X150990000Y-81010000D03*
D22*
X149950000Y-74860000D03*
X146650000Y-74860000D03*
D23*
X155500000Y-85690000D03*
X155500000Y-84730000D03*
D21*
X134950000Y-89400000D03*
X133930000Y-89400000D03*
D12*
X151325000Y-65860000D03*
X147275000Y-65860000D03*
D13*
X149300000Y-65860000D03*
D14*
X152900000Y-83320000D03*
X152900000Y-82300000D03*
D23*
X154300000Y-85770000D03*
X154300000Y-84810000D03*
D22*
X150150000Y-62060000D03*
X146850000Y-62060000D03*
D14*
X151100000Y-83320000D03*
X151100000Y-82300000D03*
M02*
