G04 #@! TF.GenerationSoftware,KiCad,Pcbnew,7.0.10*
G04 #@! TF.CreationDate,2024-01-28T23:01:02+03:00*
G04 #@! TF.ProjectId,Eco_display,45636f5f-6469-4737-906c-61792e6b6963,rev?*
G04 #@! TF.SameCoordinates,Original*
G04 #@! TF.FileFunction,Copper,L2,Bot*
G04 #@! TF.FilePolarity,Positive*
%FSLAX46Y46*%
G04 Gerber Fmt 4.6, Leading zero omitted, Abs format (unit mm)*
G04 Created by KiCad (PCBNEW 7.0.10) date 2024-01-28 23:01:02*
%MOMM*%
%LPD*%
G01*
G04 APERTURE LIST*
G04 Aperture macros list*
%AMRoundRect*
0 Rectangle with rounded corners*
0 $1 Rounding radius*
0 $2 $3 $4 $5 $6 $7 $8 $9 X,Y pos of 4 corners*
0 Add a 4 corners polygon primitive as box body*
4,1,4,$2,$3,$4,$5,$6,$7,$8,$9,$2,$3,0*
0 Add four circle primitives for the rounded corners*
1,1,$1+$1,$2,$3*
1,1,$1+$1,$4,$5*
1,1,$1+$1,$6,$7*
1,1,$1+$1,$8,$9*
0 Add four rect primitives between the rounded corners*
20,1,$1+$1,$2,$3,$4,$5,0*
20,1,$1+$1,$4,$5,$6,$7,0*
20,1,$1+$1,$6,$7,$8,$9,0*
20,1,$1+$1,$8,$9,$2,$3,0*%
G04 Aperture macros list end*
G04 #@! TA.AperFunction,ComponentPad*
%ADD10R,1.700000X1.700000*%
G04 #@! TD*
G04 #@! TA.AperFunction,ComponentPad*
%ADD11O,1.700000X1.700000*%
G04 #@! TD*
G04 #@! TA.AperFunction,SMDPad,CuDef*
%ADD12C,1.500000*%
G04 #@! TD*
G04 #@! TA.AperFunction,SMDPad,CuDef*
%ADD13RoundRect,0.150000X-0.587500X-0.150000X0.587500X-0.150000X0.587500X0.150000X-0.587500X0.150000X0*%
G04 #@! TD*
G04 #@! TA.AperFunction,SMDPad,CuDef*
%ADD14RoundRect,0.135000X0.135000X0.185000X-0.135000X0.185000X-0.135000X-0.185000X0.135000X-0.185000X0*%
G04 #@! TD*
G04 #@! TA.AperFunction,ComponentPad*
%ADD15RoundRect,0.250001X1.399999X-1.099999X1.399999X1.099999X-1.399999X1.099999X-1.399999X-1.099999X0*%
G04 #@! TD*
G04 #@! TA.AperFunction,ComponentPad*
%ADD16O,3.300000X2.700000*%
G04 #@! TD*
G04 #@! TA.AperFunction,SMDPad,CuDef*
%ADD17RoundRect,0.200000X-0.200000X-0.275000X0.200000X-0.275000X0.200000X0.275000X-0.200000X0.275000X0*%
G04 #@! TD*
G04 #@! TA.AperFunction,ComponentPad*
%ADD18R,1.600000X1.600000*%
G04 #@! TD*
G04 #@! TA.AperFunction,ComponentPad*
%ADD19C,1.600000*%
G04 #@! TD*
G04 #@! TA.AperFunction,SMDPad,CuDef*
%ADD20RoundRect,0.140000X-0.140000X-0.170000X0.140000X-0.170000X0.140000X0.170000X-0.140000X0.170000X0*%
G04 #@! TD*
G04 #@! TA.AperFunction,SMDPad,CuDef*
%ADD21RoundRect,0.100000X0.712500X0.100000X-0.712500X0.100000X-0.712500X-0.100000X0.712500X-0.100000X0*%
G04 #@! TD*
G04 #@! TA.AperFunction,SMDPad,CuDef*
%ADD22RoundRect,0.135000X-0.135000X-0.185000X0.135000X-0.185000X0.135000X0.185000X-0.135000X0.185000X0*%
G04 #@! TD*
G04 #@! TA.AperFunction,SMDPad,CuDef*
%ADD23R,1.200000X0.300000*%
G04 #@! TD*
G04 #@! TA.AperFunction,SMDPad,CuDef*
%ADD24R,2.387600X2.387600*%
G04 #@! TD*
G04 #@! TA.AperFunction,SMDPad,CuDef*
%ADD25RoundRect,0.135000X-0.185000X0.135000X-0.185000X-0.135000X0.185000X-0.135000X0.185000X0.135000X0*%
G04 #@! TD*
G04 #@! TA.AperFunction,SMDPad,CuDef*
%ADD26RoundRect,0.225000X0.375000X-0.225000X0.375000X0.225000X-0.375000X0.225000X-0.375000X-0.225000X0*%
G04 #@! TD*
G04 #@! TA.AperFunction,SMDPad,CuDef*
%ADD27RoundRect,0.140000X0.140000X0.170000X-0.140000X0.170000X-0.140000X-0.170000X0.140000X-0.170000X0*%
G04 #@! TD*
G04 #@! TA.AperFunction,SMDPad,CuDef*
%ADD28RoundRect,0.147500X0.147500X0.172500X-0.147500X0.172500X-0.147500X-0.172500X0.147500X-0.172500X0*%
G04 #@! TD*
G04 #@! TA.AperFunction,SMDPad,CuDef*
%ADD29RoundRect,0.225000X-0.375000X0.225000X-0.375000X-0.225000X0.375000X-0.225000X0.375000X0.225000X0*%
G04 #@! TD*
G04 #@! TA.AperFunction,ViaPad*
%ADD30C,0.800000*%
G04 #@! TD*
G04 #@! TA.AperFunction,Conductor*
%ADD31C,0.250000*%
G04 #@! TD*
G04 #@! TA.AperFunction,Conductor*
%ADD32C,0.350000*%
G04 #@! TD*
G04 #@! TA.AperFunction,Conductor*
%ADD33C,0.254000*%
G04 #@! TD*
G04 #@! TA.AperFunction,Conductor*
%ADD34C,0.500000*%
G04 #@! TD*
G04 APERTURE END LIST*
D10*
X138390000Y-60025000D03*
D11*
X135850000Y-60025000D03*
X133310000Y-60025000D03*
X130770000Y-60025000D03*
D12*
X185200000Y-109800000D03*
X131700000Y-66400000D03*
D13*
X133549120Y-113985000D03*
X133549120Y-112085000D03*
X135424120Y-113035000D03*
D14*
X154910000Y-84600000D03*
X153890000Y-84600000D03*
D15*
X129425000Y-92425000D03*
D16*
X129425000Y-88225000D03*
X129425000Y-84025000D03*
X123925000Y-92425000D03*
X123925000Y-88225000D03*
X123925000Y-84025000D03*
D13*
X138822500Y-86550000D03*
X138822500Y-84650000D03*
X140697500Y-85600000D03*
D17*
X129014620Y-113985000D03*
X130664620Y-113985000D03*
D18*
X129502620Y-103838000D03*
D19*
X136002620Y-103838000D03*
D20*
X148550000Y-82800000D03*
X149510000Y-82800000D03*
D21*
X151672500Y-84225000D03*
X151672500Y-84875000D03*
X151672500Y-85525000D03*
X151672500Y-86175000D03*
X147447500Y-86175000D03*
X147447500Y-85525000D03*
X147447500Y-84875000D03*
X147447500Y-84225000D03*
D22*
X153890000Y-85800000D03*
X154910000Y-85800000D03*
D23*
X164900000Y-83600004D03*
X164900000Y-84100004D03*
X164900000Y-84600004D03*
X164900000Y-85100004D03*
X164900000Y-85600004D03*
X164900000Y-86100004D03*
X164900000Y-86600007D03*
X164900000Y-87100004D03*
X164900000Y-87600004D03*
X164900000Y-88100004D03*
X164900000Y-88600004D03*
X164900000Y-89100007D03*
X164900000Y-89600004D03*
X164900000Y-90100004D03*
X164900000Y-90600004D03*
X164900000Y-91100004D03*
X164900000Y-91600007D03*
X164900000Y-92100004D03*
X164900000Y-92600004D03*
X164900000Y-93100004D03*
X164900000Y-93600004D03*
X164900000Y-94100007D03*
X164900000Y-94600004D03*
X164900000Y-95100004D03*
X164900000Y-95600004D03*
X164900000Y-96100004D03*
X164900000Y-96600004D03*
X164900000Y-97100004D03*
X164900000Y-97600004D03*
X164900000Y-98100004D03*
X164900000Y-98600004D03*
X164900000Y-99100004D03*
X164900000Y-99600004D03*
X164900000Y-100100004D03*
X164900000Y-100600004D03*
X164900000Y-101100004D03*
X164900000Y-101600004D03*
X164900000Y-102100004D03*
X164900000Y-102600004D03*
X164900000Y-103100007D03*
X164900000Y-103600004D03*
X164900000Y-104100004D03*
X164900000Y-104600004D03*
X164900000Y-105100004D03*
X164900000Y-105600007D03*
X164900000Y-106100004D03*
X164900000Y-106600004D03*
X164900000Y-107100004D03*
X164900000Y-107600004D03*
X164900000Y-108100007D03*
D24*
X167600000Y-81500008D03*
X167600000Y-110200000D03*
D25*
X142510000Y-85090000D03*
X142510000Y-86110000D03*
D26*
X134119000Y-89834000D03*
X134119000Y-86534000D03*
D27*
X147190000Y-81600000D03*
X146230000Y-81600000D03*
D14*
X134950000Y-91500000D03*
X133930000Y-91500000D03*
D17*
X129024620Y-111167000D03*
X130674620Y-111167000D03*
D28*
X137250000Y-84650000D03*
X136280000Y-84650000D03*
D14*
X144809000Y-84859000D03*
X143789000Y-84859000D03*
D27*
X147270000Y-82800000D03*
X146310000Y-82800000D03*
D28*
X137250000Y-86532000D03*
X136280000Y-86532000D03*
D29*
X134111000Y-81350000D03*
X134111000Y-84650000D03*
D14*
X144820000Y-86000000D03*
X143800000Y-86000000D03*
D12*
X185400000Y-66200000D03*
D30*
X174300000Y-67930000D03*
X187500000Y-72600000D03*
X174300000Y-96430000D03*
X123700000Y-67100000D03*
X146100000Y-104900000D03*
X174300000Y-80430000D03*
X158050000Y-67260000D03*
X162900000Y-96900000D03*
X168550000Y-109680000D03*
X163600002Y-85600004D03*
X158050000Y-109680000D03*
X138040000Y-89800000D03*
X168550000Y-60430000D03*
X178050000Y-60430000D03*
X174300000Y-99680000D03*
X156300000Y-92430000D03*
X174300000Y-64680000D03*
X143300000Y-94000000D03*
X131200000Y-73100000D03*
X147800000Y-109680000D03*
X131921620Y-106650000D03*
X182550000Y-96430000D03*
X125800000Y-78900000D03*
X180600000Y-72600000D03*
X164050000Y-109680000D03*
X125900000Y-73250000D03*
X145800000Y-102200000D03*
X124350000Y-102820000D03*
X178050000Y-109680000D03*
X124350000Y-106820000D03*
X141000000Y-89800000D03*
X178050000Y-67930000D03*
X174300000Y-76180000D03*
X156300000Y-97300000D03*
X182550000Y-80430000D03*
X126721620Y-106650000D03*
X124350000Y-105070000D03*
X154900000Y-105400000D03*
X146400000Y-94000000D03*
X182550000Y-76180000D03*
X126200000Y-67100000D03*
X158200000Y-83930000D03*
X145800000Y-107600000D03*
X126721620Y-104900000D03*
X182550000Y-99680000D03*
X126200000Y-64850000D03*
X144600000Y-59400000D03*
X146000000Y-89800000D03*
X164050000Y-112930000D03*
X161400000Y-87600000D03*
X188300000Y-87180000D03*
X131921620Y-100550000D03*
X168550000Y-92180000D03*
X167900000Y-107400000D03*
X123900000Y-75200000D03*
X140400000Y-65100000D03*
X178050000Y-80430000D03*
X155100000Y-59400000D03*
X173700000Y-73000000D03*
X158800000Y-64680000D03*
X143700000Y-63100000D03*
X178050000Y-83680000D03*
X155260000Y-81300000D03*
X144700000Y-69200000D03*
X125900000Y-71000000D03*
X188300000Y-109680000D03*
X145800000Y-79500000D03*
X160000000Y-68300000D03*
X139900000Y-96550000D03*
X125900000Y-75000000D03*
X139600000Y-100300000D03*
X129100000Y-96650000D03*
X135200000Y-69100000D03*
X127732620Y-111170000D03*
X174300000Y-87430000D03*
X123700000Y-64800000D03*
X126721620Y-98800000D03*
X178050000Y-87430000D03*
X126200000Y-68850000D03*
X178050000Y-99680000D03*
X152300000Y-109680000D03*
X156300000Y-100000000D03*
X152600000Y-104200000D03*
X156800000Y-86930000D03*
X168550000Y-83680000D03*
X146000000Y-98600000D03*
X135200000Y-67350000D03*
X178050000Y-92180000D03*
X123700000Y-69000000D03*
X147800000Y-112930000D03*
X124350000Y-100720000D03*
X160300000Y-105300000D03*
X140100000Y-71250000D03*
X158050000Y-81260000D03*
X126721620Y-100550000D03*
X168550000Y-96430000D03*
X153000000Y-92300000D03*
X182550000Y-109680000D03*
X178050000Y-112930000D03*
X143500000Y-104700000D03*
X159600000Y-80500000D03*
X188300000Y-67930000D03*
X178050000Y-96430000D03*
X174300000Y-83680000D03*
X158050000Y-71260000D03*
X131921620Y-98800000D03*
X182550000Y-64680000D03*
X164050000Y-60430000D03*
X174300000Y-112930000D03*
X152260000Y-81300000D03*
X188300000Y-76180000D03*
X188300000Y-92180000D03*
X140400000Y-67350000D03*
X174300000Y-109680000D03*
X123700000Y-71000000D03*
X139300000Y-85650000D03*
X140800000Y-60600000D03*
X135200000Y-65100000D03*
X174300000Y-92180000D03*
X158050000Y-112930000D03*
X188300000Y-105430000D03*
X148300000Y-100700000D03*
X134900000Y-73500000D03*
X151900000Y-101000000D03*
X158050000Y-78760000D03*
X158050000Y-69510000D03*
X123700000Y-73300000D03*
X137521620Y-98900000D03*
X168550000Y-87430000D03*
X188300000Y-80430000D03*
X137521620Y-100650000D03*
X124350000Y-96720000D03*
X142300000Y-112930000D03*
X158800000Y-60430000D03*
X157600000Y-89200000D03*
X162800000Y-99900000D03*
X182550000Y-67930000D03*
X131400000Y-77200000D03*
X162800000Y-106700000D03*
X182550000Y-92180000D03*
X164050000Y-76180000D03*
X140400000Y-69100000D03*
X168550000Y-112930000D03*
X145560000Y-82200000D03*
X156800000Y-103400000D03*
X124350000Y-98970000D03*
X134900000Y-71250000D03*
X168550000Y-76180000D03*
X174300000Y-105430000D03*
X138600000Y-80200000D03*
X164050000Y-67930000D03*
X131600000Y-80000000D03*
X164050000Y-64680000D03*
X131821620Y-109180000D03*
X178050000Y-76180000D03*
X127571620Y-112930000D03*
X160400000Y-100700000D03*
X158300000Y-76260000D03*
X182550000Y-105430000D03*
X128900000Y-60800000D03*
X182300000Y-87430000D03*
X161100000Y-73500000D03*
X142300000Y-109180000D03*
X168550000Y-80430000D03*
X160900000Y-79100000D03*
X168550000Y-64680000D03*
X168550000Y-67930000D03*
X148300000Y-105900000D03*
X139100000Y-93900000D03*
X188000000Y-63400000D03*
X178050000Y-64680000D03*
X146173714Y-86413714D03*
X188050000Y-83680000D03*
X124300000Y-109500000D03*
X182550000Y-60430000D03*
X152300000Y-112930000D03*
X188300000Y-96430000D03*
X182550000Y-83680000D03*
X178050000Y-105430000D03*
X134700000Y-96550000D03*
X149800000Y-81400000D03*
X140100000Y-73500000D03*
X168550000Y-105430000D03*
X168550000Y-99680000D03*
X158300000Y-73600000D03*
X188300000Y-99680000D03*
X126721620Y-102650000D03*
X127571620Y-109180000D03*
X156000000Y-78600000D03*
X182550000Y-112930000D03*
X174300000Y-60430000D03*
X132600000Y-91400000D03*
X127750000Y-80250000D03*
X162900000Y-95400000D03*
X151600000Y-87800000D03*
X151700000Y-83000000D03*
X132575000Y-63850000D03*
X140486000Y-113672000D03*
X160580000Y-96300000D03*
D31*
X164100002Y-85100004D02*
X164000004Y-85200002D01*
D32*
X147447500Y-86175000D02*
X146412428Y-86175000D01*
D33*
X134119000Y-89834000D02*
X138006000Y-89834000D01*
X149510000Y-81690000D02*
X149510000Y-82800000D01*
X164900002Y-86100000D02*
X164099998Y-86100000D01*
X164099998Y-86100000D02*
X163600002Y-85600004D01*
D32*
X146310000Y-82200000D02*
X146310000Y-81680000D01*
D33*
X164900002Y-85600000D02*
X163600006Y-85600000D01*
X164900002Y-85100000D02*
X164900002Y-86100000D01*
D31*
X139300000Y-85650000D02*
X139350000Y-85600000D01*
D33*
X163600006Y-85600000D02*
X163600002Y-85600004D01*
X164000004Y-85200002D02*
X163600002Y-85600004D01*
D32*
X146412428Y-86175000D02*
X146173714Y-86413714D01*
X146310000Y-82800000D02*
X146310000Y-82200000D01*
X146310000Y-82200000D02*
X145560000Y-82200000D01*
D33*
X164100006Y-85100000D02*
X164000004Y-85200002D01*
D31*
X139350000Y-85600000D02*
X140697500Y-85600000D01*
D33*
X149800000Y-81400000D02*
X149510000Y-81690000D01*
D31*
X165000002Y-85100004D02*
X164100002Y-85100004D01*
D33*
X138006000Y-89834000D02*
X138040000Y-89800000D01*
D32*
X146310000Y-81680000D02*
X146230000Y-81600000D01*
D33*
X142620000Y-86000000D02*
X142510000Y-86110000D01*
D32*
X137250000Y-86532000D02*
X138804500Y-86532000D01*
D33*
X138822500Y-86550000D02*
X142070000Y-86550000D01*
D32*
X138804500Y-86532000D02*
X138822500Y-86550000D01*
D33*
X143800000Y-86000000D02*
X142620000Y-86000000D01*
X142070000Y-86550000D02*
X142510000Y-86110000D01*
X138822500Y-84650000D02*
X138872500Y-84600000D01*
D32*
X137250000Y-84650000D02*
X138822500Y-84650000D01*
D33*
X143001000Y-85066000D02*
X143208000Y-84859000D01*
X142510000Y-85090000D02*
X142534000Y-85066000D01*
X138872500Y-84600000D02*
X142020000Y-84600000D01*
X142020000Y-84600000D02*
X142510000Y-85090000D01*
X143208000Y-84859000D02*
X143789000Y-84859000D01*
X142534000Y-85066000D02*
X143001000Y-85066000D01*
D32*
X147447500Y-84225000D02*
X147447500Y-82977500D01*
D34*
X147275000Y-92425000D02*
X135100000Y-92425000D01*
X129425000Y-92425000D02*
X134575000Y-92425000D01*
X148900000Y-80200000D02*
X148550000Y-80550000D01*
D32*
X147270000Y-82800000D02*
X147270000Y-81680000D01*
D33*
X164900000Y-84100004D02*
X164900000Y-83600004D01*
D34*
X154910000Y-85800000D02*
X158800000Y-85800000D01*
D33*
X163599996Y-83600004D02*
X163400000Y-83800000D01*
D34*
X148900000Y-83700000D02*
X148900000Y-90800000D01*
X163000000Y-83800000D02*
X163400000Y-83800000D01*
X135100000Y-92425000D02*
X134575000Y-92425000D01*
X148900000Y-90800000D02*
X147275000Y-92425000D01*
X159387918Y-83800000D02*
X155787918Y-80200000D01*
X159387918Y-85212082D02*
X159387918Y-83800000D01*
X155787918Y-80200000D02*
X148900000Y-80200000D01*
X148550000Y-82800000D02*
X148550000Y-83350000D01*
X148550000Y-83350000D02*
X148900000Y-83700000D01*
D33*
X164900000Y-84100004D02*
X163700004Y-84100004D01*
D34*
X134950000Y-92275000D02*
X135100000Y-92425000D01*
D32*
X148550000Y-82800000D02*
X147270000Y-82800000D01*
D34*
X158800000Y-85800000D02*
X159387918Y-85212082D01*
X134950000Y-92050000D02*
X134950000Y-91500000D01*
X134950000Y-91500000D02*
X134950000Y-92275000D01*
D32*
X147270000Y-81680000D02*
X147190000Y-81600000D01*
D34*
X148550000Y-80550000D02*
X148550000Y-82800000D01*
D33*
X163700004Y-84100004D02*
X163400000Y-83800000D01*
D32*
X147447500Y-82977500D02*
X147270000Y-82800000D01*
D33*
X164900000Y-83600004D02*
X163599996Y-83600004D01*
D34*
X159387918Y-83800000D02*
X163000000Y-83800000D01*
X134575000Y-92425000D02*
X134950000Y-92050000D01*
X138079620Y-103838000D02*
X136002620Y-103838000D01*
X139211620Y-104970000D02*
X138079620Y-103838000D01*
X135424120Y-113035000D02*
X137783620Y-113035000D01*
X137783620Y-113035000D02*
X139211620Y-111607000D01*
X139211620Y-111607000D02*
X139211620Y-104970000D01*
D31*
X131600000Y-90400000D02*
X128931192Y-90400000D01*
X128931192Y-90400000D02*
X127450000Y-88918808D01*
X132600000Y-91400000D02*
X131600000Y-90400000D01*
D33*
X163699996Y-94600004D02*
X162900000Y-95400000D01*
X164900000Y-94600004D02*
X163699996Y-94600004D01*
X162899996Y-95400004D02*
X162900000Y-95400000D01*
D31*
X127450000Y-80550000D02*
X127750000Y-80250000D01*
D32*
X133930000Y-91500000D02*
X132700000Y-91500000D01*
X132700000Y-91500000D02*
X132600000Y-91400000D01*
D31*
X127450000Y-88918808D02*
X127450000Y-80550000D01*
D33*
X151400004Y-107600004D02*
X150200000Y-106400000D01*
X150200000Y-106400000D02*
X150200000Y-88300000D01*
X150700000Y-87800000D02*
X151600000Y-87800000D01*
D32*
X151600000Y-86247500D02*
X151672500Y-86175000D01*
X151600000Y-87800000D02*
X151600000Y-86247500D01*
D33*
X164900000Y-107600004D02*
X151400004Y-107600004D01*
X150200000Y-88300000D02*
X150700000Y-87800000D01*
D32*
X151672500Y-84225000D02*
X151672500Y-83027500D01*
D33*
X149975000Y-84225000D02*
X149746000Y-84454000D01*
D32*
X151672500Y-83027500D02*
X151700000Y-83000000D01*
D33*
X149746000Y-84454000D02*
X149746000Y-106646000D01*
X149746000Y-106646000D02*
X151200007Y-108100007D01*
X151200007Y-108100007D02*
X164900000Y-108100007D01*
X151672500Y-84225000D02*
X149975000Y-84225000D01*
X152885000Y-85525000D02*
X153160000Y-85800000D01*
X153160000Y-85800000D02*
X153890000Y-85800000D01*
X151672500Y-85525000D02*
X152885000Y-85525000D01*
X153085000Y-84875000D02*
X151672500Y-84875000D01*
X153890000Y-84600000D02*
X153360000Y-84600000D01*
X153360000Y-84600000D02*
X153085000Y-84875000D01*
X144820000Y-86000000D02*
X145560000Y-86000000D01*
X146035000Y-85525000D02*
X147447500Y-85525000D01*
X145560000Y-86000000D02*
X146035000Y-85525000D01*
X147447500Y-84875000D02*
X146678360Y-84875000D01*
X146472360Y-84669000D02*
X144999000Y-84669000D01*
X144999000Y-84669000D02*
X144809000Y-84859000D01*
X146678360Y-84875000D02*
X146472360Y-84669000D01*
D31*
X132575000Y-63850000D02*
X133310000Y-63115000D01*
X133310000Y-63115000D02*
X133310000Y-60025000D01*
D32*
X134119000Y-86534000D02*
X136278000Y-86534000D01*
X132160050Y-86894051D02*
X132400000Y-86894051D01*
X132760050Y-86534000D02*
X133000000Y-86534000D01*
X129425000Y-86975000D02*
X129866000Y-86534000D01*
X131980025Y-86714025D02*
X131980025Y-86714026D01*
X136278000Y-86534000D02*
X136280000Y-86532000D01*
X129866000Y-86534000D02*
X131800000Y-86534000D01*
X133000000Y-86534000D02*
X134119000Y-86534000D01*
X132580025Y-86714026D02*
X132580025Y-86714025D01*
X129425000Y-88225000D02*
X129425000Y-86975000D01*
X131979949Y-86714026D02*
G75*
G03*
X132160050Y-86894051I180051J26D01*
G01*
X132760050Y-86534025D02*
G75*
G03*
X132580025Y-86714025I-50J-179975D01*
G01*
X132400000Y-86894025D02*
G75*
G03*
X132580025Y-86714026I0J180025D01*
G01*
X131980000Y-86714025D02*
G75*
G03*
X131800000Y-86534000I-180000J25D01*
G01*
X134111000Y-84650000D02*
X134111000Y-85289000D01*
X129425000Y-85025000D02*
X129425000Y-84025000D01*
X130000000Y-85600000D02*
X129425000Y-85025000D01*
X134111000Y-85289000D02*
X133800000Y-85600000D01*
X133800000Y-85600000D02*
X130000000Y-85600000D01*
X134111000Y-84650000D02*
X136280000Y-84650000D01*
D31*
X139373000Y-114785000D02*
X140486000Y-113672000D01*
D33*
X164900000Y-89100007D02*
X161472993Y-89100007D01*
X160580000Y-96300000D02*
X160673000Y-96207000D01*
D31*
X129014620Y-113985000D02*
X129814620Y-114785000D01*
X129814620Y-114785000D02*
X139373000Y-114785000D01*
D33*
X161472993Y-89100007D02*
X160673000Y-89900000D01*
X160673000Y-96207000D02*
X160673000Y-89900000D01*
D34*
X133549120Y-113985000D02*
X130664620Y-113985000D01*
X130674620Y-113975000D02*
X130664620Y-113985000D01*
X130674620Y-111167000D02*
X130674620Y-113975000D01*
G04 #@! TA.AperFunction,Conductor*
G36*
X146462102Y-86161938D02*
G01*
X146578238Y-86210044D01*
X146695639Y-86225500D01*
X148025500Y-86225499D01*
X148092539Y-86245184D01*
X148138294Y-86297987D01*
X148149500Y-86349499D01*
X148149500Y-90437770D01*
X148129815Y-90504809D01*
X148113181Y-90525451D01*
X147000451Y-91638181D01*
X146939128Y-91671666D01*
X146912770Y-91674500D01*
X135844500Y-91674500D01*
X135777461Y-91654815D01*
X135731706Y-91602011D01*
X135720500Y-91550500D01*
X135720499Y-91250830D01*
X135720498Y-91250808D01*
X135717665Y-91214796D01*
X135672869Y-91060607D01*
X135591135Y-90922402D01*
X135591133Y-90922400D01*
X135591130Y-90922396D01*
X135477603Y-90808869D01*
X135477595Y-90808863D01*
X135339393Y-90727131D01*
X135339388Y-90727129D01*
X135185208Y-90682335D01*
X135185202Y-90682334D01*
X135149181Y-90679500D01*
X134750830Y-90679500D01*
X134750808Y-90679501D01*
X134714794Y-90682335D01*
X134560611Y-90727129D01*
X134560604Y-90727132D01*
X134503119Y-90761128D01*
X134435395Y-90778309D01*
X134376881Y-90761128D01*
X134319395Y-90727132D01*
X134319388Y-90727129D01*
X134165208Y-90682335D01*
X134165202Y-90682334D01*
X134129181Y-90679500D01*
X133730830Y-90679500D01*
X133730808Y-90679501D01*
X133694794Y-90682335D01*
X133540611Y-90727129D01*
X133540608Y-90727130D01*
X133409550Y-90804637D01*
X133341826Y-90821819D01*
X133275564Y-90799658D01*
X133254282Y-90780878D01*
X133205871Y-90727112D01*
X133205870Y-90727111D01*
X133205864Y-90727106D01*
X133052734Y-90615851D01*
X133052729Y-90615848D01*
X132879807Y-90538857D01*
X132879802Y-90538855D01*
X132719623Y-90504809D01*
X132694646Y-90499500D01*
X132694645Y-90499500D01*
X132635452Y-90499500D01*
X132568413Y-90479815D01*
X132547771Y-90463181D01*
X132100803Y-90016212D01*
X132090980Y-90003950D01*
X132090759Y-90004134D01*
X132085786Y-89998122D01*
X132036776Y-89952099D01*
X132033977Y-89949386D01*
X132014477Y-89929885D01*
X132014092Y-89929586D01*
X132011286Y-89927409D01*
X132002434Y-89919848D01*
X131970582Y-89889938D01*
X131970580Y-89889936D01*
X131970577Y-89889935D01*
X131953029Y-89880288D01*
X131936763Y-89869604D01*
X131920932Y-89857324D01*
X131880849Y-89839978D01*
X131870363Y-89834841D01*
X131832094Y-89813803D01*
X131832092Y-89813802D01*
X131812693Y-89808822D01*
X131794281Y-89802518D01*
X131775898Y-89794562D01*
X131775892Y-89794560D01*
X131732760Y-89787729D01*
X131721322Y-89785361D01*
X131679020Y-89774500D01*
X131679019Y-89774500D01*
X131658984Y-89774500D01*
X131639586Y-89772973D01*
X131632162Y-89771797D01*
X131619805Y-89769840D01*
X131619804Y-89769840D01*
X131576325Y-89773950D01*
X131564656Y-89774500D01*
X131093375Y-89774500D01*
X131026336Y-89754815D01*
X130980581Y-89702011D01*
X130970637Y-89632853D01*
X130999662Y-89569297D01*
X131004107Y-89564435D01*
X131151177Y-89411890D01*
X131151186Y-89411881D01*
X131308799Y-89191579D01*
X131388445Y-89036666D01*
X131432649Y-88950690D01*
X131432651Y-88950684D01*
X131432656Y-88950675D01*
X131520118Y-88694305D01*
X131569319Y-88427933D01*
X131579212Y-88157235D01*
X131549586Y-87887982D01*
X131481072Y-87625912D01*
X131443865Y-87538358D01*
X131435763Y-87468962D01*
X131466466Y-87406199D01*
X131526227Y-87370000D01*
X131596072Y-87371856D01*
X131626852Y-87386743D01*
X131754923Y-87472275D01*
X131910653Y-87536736D01*
X131982575Y-87551022D01*
X131989874Y-87553117D01*
X131989918Y-87552942D01*
X131997199Y-87554736D01*
X131997205Y-87554739D01*
X132003075Y-87555451D01*
X132012282Y-87556922D01*
X132075966Y-87569574D01*
X132075967Y-87569573D01*
X132075968Y-87569574D01*
X132160238Y-87569551D01*
X132444259Y-87569551D01*
X132445096Y-87569525D01*
X132484254Y-87569526D01*
X132547359Y-87556974D01*
X132556603Y-87555496D01*
X132562845Y-87554739D01*
X132562852Y-87554736D01*
X132570130Y-87552943D01*
X132570168Y-87553097D01*
X132577655Y-87550949D01*
X132649525Y-87536655D01*
X132805209Y-87472175D01*
X132945324Y-87378564D01*
X133053771Y-87270132D01*
X133115097Y-87236652D01*
X133184788Y-87241641D01*
X133229127Y-87270139D01*
X133290955Y-87331967D01*
X133290959Y-87331970D01*
X133435294Y-87420998D01*
X133435297Y-87420999D01*
X133435303Y-87421003D01*
X133596292Y-87474349D01*
X133695655Y-87484500D01*
X134542344Y-87484499D01*
X134542352Y-87484498D01*
X134542355Y-87484498D01*
X134596760Y-87478940D01*
X134641708Y-87474349D01*
X134802697Y-87421003D01*
X134947044Y-87331968D01*
X135033193Y-87245819D01*
X135094516Y-87212334D01*
X135120874Y-87209500D01*
X135679505Y-87209500D01*
X135742625Y-87226768D01*
X135846715Y-87288325D01*
X135870776Y-87302555D01*
X135873100Y-87303929D01*
X135873107Y-87303933D01*
X136030320Y-87349608D01*
X136030323Y-87349608D01*
X136030325Y-87349609D01*
X136067060Y-87352500D01*
X136067068Y-87352500D01*
X136492932Y-87352500D01*
X136492940Y-87352500D01*
X136529675Y-87349609D01*
X136529677Y-87349608D01*
X136529679Y-87349608D01*
X136686892Y-87303933D01*
X136686892Y-87303932D01*
X136686897Y-87303931D01*
X136701879Y-87295070D01*
X136769601Y-87277887D01*
X136828120Y-87295070D01*
X136843103Y-87303931D01*
X136843105Y-87303931D01*
X136843106Y-87303932D01*
X136843107Y-87303933D01*
X137000320Y-87349608D01*
X137000323Y-87349608D01*
X137000325Y-87349609D01*
X137037060Y-87352500D01*
X137037068Y-87352500D01*
X137462932Y-87352500D01*
X137462940Y-87352500D01*
X137499675Y-87349609D01*
X137499677Y-87349608D01*
X137499679Y-87349608D01*
X137656892Y-87303933D01*
X137656893Y-87303932D01*
X137656897Y-87303931D01*
X137754479Y-87246221D01*
X137822201Y-87229039D01*
X137880719Y-87246222D01*
X137974602Y-87301744D01*
X138008970Y-87311729D01*
X138132426Y-87347597D01*
X138132429Y-87347597D01*
X138132431Y-87347598D01*
X138169306Y-87350500D01*
X138169314Y-87350500D01*
X139475686Y-87350500D01*
X139475694Y-87350500D01*
X139512569Y-87347598D01*
X139512571Y-87347597D01*
X139512573Y-87347597D01*
X139580056Y-87327991D01*
X139670398Y-87301744D01*
X139811865Y-87218081D01*
X139811870Y-87218076D01*
X139816128Y-87213819D01*
X139877451Y-87180334D01*
X139903809Y-87177500D01*
X141987033Y-87177500D01*
X142002681Y-87179227D01*
X142002708Y-87178946D01*
X142010475Y-87179680D01*
X142010476Y-87179679D01*
X142010477Y-87179680D01*
X142077919Y-87177561D01*
X142081813Y-87177500D01*
X142109472Y-87177500D01*
X142109476Y-87177500D01*
X142113474Y-87176994D01*
X142125114Y-87176077D01*
X142168943Y-87174701D01*
X142188272Y-87169084D01*
X142207328Y-87165137D01*
X142227293Y-87162616D01*
X142268055Y-87146476D01*
X142279092Y-87142698D01*
X142321191Y-87130468D01*
X142338515Y-87120221D01*
X142355983Y-87111663D01*
X142374703Y-87104253D01*
X142410177Y-87078478D01*
X142419915Y-87072081D01*
X142457656Y-87049763D01*
X142471897Y-87035520D01*
X142486678Y-87022897D01*
X142502967Y-87011063D01*
X142530904Y-86977290D01*
X142538757Y-86968660D01*
X142590601Y-86916817D01*
X142651924Y-86883333D01*
X142678281Y-86880499D01*
X142759168Y-86880499D01*
X142759180Y-86880499D01*
X142795204Y-86877665D01*
X142949393Y-86832869D01*
X143087598Y-86751135D01*
X143125964Y-86712769D01*
X143187287Y-86679283D01*
X143256978Y-86684267D01*
X143276767Y-86693717D01*
X143399472Y-86766284D01*
X143410607Y-86772869D01*
X143410614Y-86772871D01*
X143564791Y-86817664D01*
X143564794Y-86817664D01*
X143564796Y-86817665D01*
X143600819Y-86820500D01*
X143999180Y-86820499D01*
X144035204Y-86817665D01*
X144189393Y-86772869D01*
X144246882Y-86738869D01*
X144314602Y-86721688D01*
X144373117Y-86738869D01*
X144430607Y-86772869D01*
X144430610Y-86772869D01*
X144430612Y-86772871D01*
X144584791Y-86817664D01*
X144584794Y-86817664D01*
X144584796Y-86817665D01*
X144620819Y-86820500D01*
X145019180Y-86820499D01*
X145055204Y-86817665D01*
X145209393Y-86772869D01*
X145347598Y-86691135D01*
X145361176Y-86677557D01*
X145374915Y-86663819D01*
X145436238Y-86630334D01*
X145462596Y-86627500D01*
X145477033Y-86627500D01*
X145492681Y-86629227D01*
X145492708Y-86628946D01*
X145500475Y-86629680D01*
X145500476Y-86629679D01*
X145500477Y-86629680D01*
X145567919Y-86627561D01*
X145571813Y-86627500D01*
X145599472Y-86627500D01*
X145599476Y-86627500D01*
X145603474Y-86626994D01*
X145615114Y-86626077D01*
X145658943Y-86624701D01*
X145678272Y-86619084D01*
X145697328Y-86615137D01*
X145717293Y-86612616D01*
X145758055Y-86596476D01*
X145769092Y-86592698D01*
X145811191Y-86580468D01*
X145828515Y-86570221D01*
X145845983Y-86561663D01*
X145864703Y-86554253D01*
X145900177Y-86528478D01*
X145909915Y-86522081D01*
X145947656Y-86499763D01*
X145961897Y-86485520D01*
X145976678Y-86472897D01*
X145992967Y-86461063D01*
X146020904Y-86427290D01*
X146028746Y-86418671D01*
X146258601Y-86188816D01*
X146319923Y-86155334D01*
X146346281Y-86152500D01*
X146414650Y-86152500D01*
X146462102Y-86161938D01*
G37*
G04 #@! TD.AperFunction*
G04 #@! TA.AperFunction,Conductor*
G36*
X141638126Y-85247185D02*
G01*
X141683881Y-85299989D01*
X141689948Y-85319298D01*
X141690567Y-85319119D01*
X141737129Y-85479388D01*
X141737132Y-85479395D01*
X141771128Y-85536881D01*
X141788309Y-85604605D01*
X141771128Y-85663119D01*
X141737132Y-85720604D01*
X141737129Y-85720611D01*
X141704450Y-85833095D01*
X141666844Y-85891981D01*
X141603372Y-85921187D01*
X141585374Y-85922500D01*
X139903809Y-85922500D01*
X139836770Y-85902815D01*
X139816128Y-85886181D01*
X139811870Y-85881923D01*
X139811862Y-85881917D01*
X139710853Y-85822181D01*
X139670398Y-85798256D01*
X139670397Y-85798255D01*
X139670396Y-85798255D01*
X139670393Y-85798254D01*
X139512573Y-85752402D01*
X139512567Y-85752401D01*
X139475701Y-85749500D01*
X139475694Y-85749500D01*
X138169306Y-85749500D01*
X138169298Y-85749500D01*
X138132432Y-85752401D01*
X138132426Y-85752402D01*
X137974606Y-85798254D01*
X137974605Y-85798254D01*
X137911155Y-85835778D01*
X137843431Y-85852959D01*
X137784915Y-85835777D01*
X137656899Y-85760070D01*
X137656892Y-85760066D01*
X137499679Y-85714391D01*
X137493439Y-85713252D01*
X137493799Y-85711278D01*
X137437272Y-85689735D01*
X137395801Y-85633504D01*
X137391314Y-85563778D01*
X137425235Y-85502696D01*
X137486796Y-85469649D01*
X137494835Y-85468492D01*
X137499672Y-85467609D01*
X137499675Y-85467609D01*
X137499677Y-85467608D01*
X137499679Y-85467608D01*
X137656892Y-85421933D01*
X137656893Y-85421932D01*
X137656897Y-85421931D01*
X137769697Y-85355221D01*
X137837420Y-85338039D01*
X137895936Y-85355221D01*
X137974602Y-85401744D01*
X137992304Y-85406887D01*
X138132426Y-85447597D01*
X138132429Y-85447597D01*
X138132431Y-85447598D01*
X138169306Y-85450500D01*
X138169314Y-85450500D01*
X139475686Y-85450500D01*
X139475694Y-85450500D01*
X139512569Y-85447598D01*
X139512571Y-85447597D01*
X139512573Y-85447597D01*
X139554191Y-85435505D01*
X139670398Y-85401744D01*
X139811865Y-85318081D01*
X139866128Y-85263817D01*
X139927449Y-85230334D01*
X139953808Y-85227500D01*
X141571087Y-85227500D01*
X141638126Y-85247185D01*
G37*
G04 #@! TD.AperFunction*
G04 #@! TA.AperFunction,Conductor*
G36*
X155492727Y-80970185D02*
G01*
X155513369Y-80986819D01*
X158601099Y-84074549D01*
X158634584Y-84135872D01*
X158637418Y-84162230D01*
X158637418Y-84849852D01*
X158617733Y-84916891D01*
X158601099Y-84937533D01*
X158525451Y-85013181D01*
X158464128Y-85046666D01*
X158437770Y-85049500D01*
X155371139Y-85049500D01*
X155308018Y-85032232D01*
X155299393Y-85027131D01*
X155299388Y-85027129D01*
X155145208Y-84982335D01*
X155145202Y-84982334D01*
X155109188Y-84979500D01*
X154784347Y-84979500D01*
X154717308Y-84959815D01*
X154671553Y-84907011D01*
X154660639Y-84851616D01*
X154660500Y-84851616D01*
X154660499Y-84850908D01*
X154660443Y-84850619D01*
X154660497Y-84849214D01*
X154660500Y-84849181D01*
X154660499Y-84350820D01*
X154657665Y-84314796D01*
X154612869Y-84160607D01*
X154531135Y-84022402D01*
X154531133Y-84022400D01*
X154531130Y-84022396D01*
X154417603Y-83908869D01*
X154417595Y-83908863D01*
X154279393Y-83827131D01*
X154279388Y-83827129D01*
X154125208Y-83782335D01*
X154125202Y-83782334D01*
X154089181Y-83779500D01*
X153690830Y-83779500D01*
X153690808Y-83779501D01*
X153654794Y-83782335D01*
X153500611Y-83827129D01*
X153500606Y-83827131D01*
X153362407Y-83908861D01*
X153362401Y-83908866D01*
X153331024Y-83940242D01*
X153269700Y-83973725D01*
X153262757Y-83975029D01*
X153261061Y-83975297D01*
X153241719Y-83980916D01*
X153222680Y-83984859D01*
X153202715Y-83987382D01*
X153202701Y-83987385D01*
X153161950Y-84003519D01*
X153150906Y-84007300D01*
X153110571Y-84019020D01*
X153040702Y-84018823D01*
X152982030Y-83980883D01*
X152961411Y-83947397D01*
X152960326Y-83944778D01*
X152911952Y-83827991D01*
X152909537Y-83822161D01*
X152909536Y-83822160D01*
X152909536Y-83822159D01*
X152813282Y-83696718D01*
X152687841Y-83600464D01*
X152687440Y-83600298D01*
X152580638Y-83556059D01*
X152526235Y-83512218D01*
X152504170Y-83445924D01*
X152520705Y-83379496D01*
X152527179Y-83368284D01*
X152527495Y-83367313D01*
X152539650Y-83329902D01*
X152585674Y-83188256D01*
X152605460Y-83000000D01*
X152585674Y-82811744D01*
X152527179Y-82631716D01*
X152432533Y-82467784D01*
X152305871Y-82327112D01*
X152302813Y-82324890D01*
X152152734Y-82215851D01*
X152152729Y-82215848D01*
X151979807Y-82138857D01*
X151979802Y-82138855D01*
X151834001Y-82107865D01*
X151794646Y-82099500D01*
X151605354Y-82099500D01*
X151572897Y-82106398D01*
X151420197Y-82138855D01*
X151420192Y-82138857D01*
X151247270Y-82215848D01*
X151247265Y-82215851D01*
X151094129Y-82327111D01*
X150967466Y-82467785D01*
X150872821Y-82631715D01*
X150872818Y-82631722D01*
X150838553Y-82737180D01*
X150814326Y-82811744D01*
X150794540Y-83000000D01*
X150814326Y-83188256D01*
X150814327Y-83188259D01*
X150872820Y-83368282D01*
X150874744Y-83372603D01*
X150884031Y-83441853D01*
X150854404Y-83505130D01*
X150808919Y-83537603D01*
X150803238Y-83539955D01*
X150803238Y-83539956D01*
X150765241Y-83555695D01*
X150687103Y-83588061D01*
X150639650Y-83597500D01*
X150057967Y-83597500D01*
X150042318Y-83595772D01*
X150042292Y-83596054D01*
X150034524Y-83595319D01*
X149967081Y-83597439D01*
X149963187Y-83597500D01*
X149935523Y-83597500D01*
X149931514Y-83598006D01*
X149919884Y-83598921D01*
X149876056Y-83600298D01*
X149856713Y-83605918D01*
X149837669Y-83609862D01*
X149834709Y-83610235D01*
X149817707Y-83612384D01*
X149817703Y-83612385D01*
X149817700Y-83612386D01*
X149802915Y-83618240D01*
X149733336Y-83624614D01*
X149671357Y-83592359D01*
X149636656Y-83531716D01*
X149636613Y-83531537D01*
X149635241Y-83525749D01*
X149635241Y-83525745D01*
X149609569Y-83455212D01*
X149608421Y-83451909D01*
X149584814Y-83380666D01*
X149584810Y-83380659D01*
X149581760Y-83374118D01*
X149581815Y-83374091D01*
X149578533Y-83367313D01*
X149578480Y-83367340D01*
X149575235Y-83360880D01*
X149534025Y-83298223D01*
X149532086Y-83295181D01*
X149519194Y-83274280D01*
X149492712Y-83231345D01*
X149492711Y-83231344D01*
X149492710Y-83231342D01*
X149488234Y-83225682D01*
X149488281Y-83225644D01*
X149483519Y-83219799D01*
X149483474Y-83219838D01*
X149478831Y-83214305D01*
X149424293Y-83162851D01*
X149421705Y-83160337D01*
X149366818Y-83105449D01*
X149333334Y-83044126D01*
X149330500Y-83017769D01*
X149330500Y-82565317D01*
X149330499Y-82565302D01*
X149327643Y-82529008D01*
X149327642Y-82529005D01*
X149327641Y-82529002D01*
X149305423Y-82452528D01*
X149300500Y-82417934D01*
X149300500Y-81074500D01*
X149320185Y-81007461D01*
X149372989Y-80961706D01*
X149424500Y-80950500D01*
X155425688Y-80950500D01*
X155492727Y-80970185D01*
G37*
G04 #@! TD.AperFunction*
G04 #@! TA.AperFunction,Conductor*
G36*
X190690118Y-57776763D02*
G01*
X190693334Y-57777044D01*
X190729596Y-57780217D01*
X190730666Y-57780316D01*
X190856502Y-57792713D01*
X190876414Y-57796337D01*
X190941146Y-57813684D01*
X190944929Y-57814764D01*
X191036287Y-57842478D01*
X191052684Y-57848753D01*
X191118575Y-57879480D01*
X191124590Y-57882487D01*
X191203769Y-57924810D01*
X191216430Y-57932589D01*
X191277598Y-57975420D01*
X191285132Y-57981136D01*
X191353181Y-58036983D01*
X191362178Y-58045137D01*
X191382677Y-58065636D01*
X191415366Y-58098326D01*
X191423537Y-58107342D01*
X191479360Y-58175364D01*
X191485081Y-58182905D01*
X191527920Y-58244086D01*
X191535699Y-58256748D01*
X191578014Y-58335913D01*
X191581031Y-58341948D01*
X191611750Y-58407824D01*
X191618026Y-58424227D01*
X191645714Y-58515500D01*
X191646828Y-58519402D01*
X191664165Y-58584105D01*
X191667792Y-58604033D01*
X191680068Y-58728564D01*
X191680194Y-58729916D01*
X191683753Y-58770574D01*
X191684225Y-58781387D01*
X191684225Y-115390376D01*
X191683753Y-115401187D01*
X191680307Y-115440562D01*
X191680182Y-115441904D01*
X191667808Y-115567553D01*
X191664181Y-115587491D01*
X191646851Y-115652174D01*
X191645736Y-115656077D01*
X191618047Y-115747359D01*
X191611769Y-115763767D01*
X191581053Y-115829641D01*
X191578028Y-115835693D01*
X191535719Y-115914847D01*
X191527937Y-115927514D01*
X191485099Y-115988696D01*
X191479377Y-115996239D01*
X191423555Y-116064260D01*
X191415383Y-116073276D01*
X191362201Y-116126459D01*
X191353187Y-116134629D01*
X191285163Y-116190459D01*
X191277620Y-116196183D01*
X191216447Y-116239018D01*
X191203777Y-116246801D01*
X191124613Y-116289117D01*
X191118566Y-116292141D01*
X191052702Y-116322856D01*
X191036291Y-116329135D01*
X190944984Y-116356834D01*
X190941083Y-116357948D01*
X190876456Y-116375266D01*
X190856497Y-116378897D01*
X190728461Y-116391489D01*
X190727137Y-116391612D01*
X190699459Y-116394034D01*
X190690493Y-116394819D01*
X190679686Y-116395291D01*
X122690134Y-116395291D01*
X122679330Y-116394819D01*
X122673251Y-116394287D01*
X122639951Y-116391374D01*
X122638608Y-116391249D01*
X122512965Y-116378878D01*
X122493023Y-116375250D01*
X122428328Y-116357916D01*
X122424427Y-116356802D01*
X122333162Y-116329119D01*
X122316751Y-116322841D01*
X122250868Y-116292120D01*
X122244820Y-116289096D01*
X122165667Y-116246789D01*
X122152997Y-116239006D01*
X122091829Y-116196177D01*
X122084288Y-116190456D01*
X122016254Y-116134624D01*
X122007237Y-116126451D01*
X121954057Y-116073272D01*
X121945889Y-116064260D01*
X121890040Y-115996208D01*
X121884340Y-115988696D01*
X121841489Y-115927498D01*
X121833732Y-115914871D01*
X121791384Y-115835645D01*
X121788385Y-115829644D01*
X121757666Y-115763768D01*
X121751392Y-115747370D01*
X121723686Y-115656036D01*
X121722590Y-115652198D01*
X121705251Y-115587489D01*
X121701628Y-115567570D01*
X121689131Y-115440562D01*
X121689020Y-115439364D01*
X121685697Y-115401378D01*
X121685225Y-115390572D01*
X121685225Y-114095791D01*
X123479082Y-114095791D01*
X123486755Y-114178597D01*
X123487284Y-114190038D01*
X123487284Y-114206750D01*
X123490222Y-114222469D01*
X123490354Y-114223173D01*
X123491935Y-114234510D01*
X123499610Y-114317327D01*
X123499610Y-114317329D01*
X123522370Y-114397321D01*
X123524990Y-114408460D01*
X123528062Y-114424888D01*
X123528063Y-114424893D01*
X123534097Y-114440468D01*
X123537737Y-114451328D01*
X123560495Y-114531318D01*
X123569602Y-114549606D01*
X123597566Y-114605765D01*
X123602187Y-114616231D01*
X123608227Y-114631823D01*
X123617024Y-114646029D01*
X123622597Y-114656035D01*
X123659663Y-114730474D01*
X123659667Y-114730481D01*
X123709780Y-114796841D01*
X123716250Y-114806286D01*
X123725053Y-114820502D01*
X123736310Y-114832851D01*
X123743626Y-114841661D01*
X123793745Y-114908028D01*
X123855199Y-114964051D01*
X123863298Y-114972150D01*
X123874556Y-114984500D01*
X123887896Y-114994574D01*
X123896706Y-115001890D01*
X123958158Y-115057911D01*
X123958160Y-115057912D01*
X123958163Y-115057915D01*
X124028869Y-115101694D01*
X124038315Y-115108164D01*
X124051653Y-115118237D01*
X124066624Y-115125691D01*
X124076621Y-115131261D01*
X124147314Y-115175033D01*
X124147318Y-115175035D01*
X124147321Y-115175036D01*
X124147324Y-115175038D01*
X124224878Y-115205082D01*
X124235334Y-115209700D01*
X124250301Y-115217153D01*
X124250303Y-115217153D01*
X124250306Y-115217155D01*
X124266400Y-115221734D01*
X124277236Y-115225366D01*
X124354785Y-115255409D01*
X124436552Y-115270694D01*
X124447679Y-115273311D01*
X124463753Y-115277885D01*
X124480384Y-115279426D01*
X124491713Y-115281005D01*
X124573482Y-115296291D01*
X124573484Y-115296291D01*
X124656643Y-115296291D01*
X124668084Y-115296819D01*
X124684725Y-115298362D01*
X124701365Y-115296819D01*
X124712807Y-115296291D01*
X124795967Y-115296291D01*
X124795968Y-115296291D01*
X124877732Y-115281006D01*
X124889053Y-115279427D01*
X124905697Y-115277885D01*
X124921794Y-115273304D01*
X124932886Y-115270696D01*
X125014665Y-115255409D01*
X125092239Y-115225356D01*
X125103036Y-115221737D01*
X125119144Y-115217155D01*
X125134116Y-115209700D01*
X125144572Y-115205082D01*
X125222126Y-115175038D01*
X125292862Y-115131239D01*
X125302808Y-115125700D01*
X125317797Y-115118237D01*
X125331142Y-115108159D01*
X125340548Y-115101714D01*
X125411287Y-115057915D01*
X125472765Y-115001869D01*
X125481539Y-114994584D01*
X125494892Y-114984501D01*
X125506166Y-114972133D01*
X125514231Y-114964068D01*
X125575706Y-114908027D01*
X125625833Y-114841647D01*
X125633127Y-114832863D01*
X125644397Y-114820502D01*
X125653208Y-114806271D01*
X125659652Y-114796863D01*
X125709783Y-114730480D01*
X125746863Y-114656012D01*
X125752412Y-114646050D01*
X125761222Y-114631823D01*
X125767264Y-114616225D01*
X125771871Y-114605789D01*
X125808954Y-114531319D01*
X125831721Y-114451300D01*
X125835347Y-114440482D01*
X125841388Y-114424890D01*
X125844458Y-114408462D01*
X125847071Y-114397350D01*
X125869840Y-114317327D01*
X125869906Y-114316616D01*
X128114120Y-114316616D01*
X128114185Y-114317327D01*
X128120533Y-114387192D01*
X128171142Y-114549606D01*
X128259150Y-114695188D01*
X128379431Y-114815469D01*
X128379433Y-114815470D01*
X128379435Y-114815472D01*
X128525014Y-114903478D01*
X128687424Y-114954086D01*
X128758004Y-114960500D01*
X129054167Y-114960500D01*
X129121206Y-114980185D01*
X129141848Y-114996819D01*
X129313817Y-115168788D01*
X129323642Y-115181051D01*
X129323863Y-115180869D01*
X129328831Y-115186874D01*
X129328833Y-115186876D01*
X129328834Y-115186877D01*
X129377842Y-115232899D01*
X129380641Y-115235612D01*
X129400142Y-115255114D01*
X129400146Y-115255117D01*
X129400149Y-115255120D01*
X129403322Y-115257581D01*
X129412194Y-115265159D01*
X129444038Y-115295062D01*
X129461596Y-115304714D01*
X129477853Y-115315393D01*
X129493684Y-115327673D01*
X129523423Y-115340542D01*
X129533772Y-115345021D01*
X129544261Y-115350160D01*
X129568077Y-115363252D01*
X129582528Y-115371197D01*
X129595143Y-115374435D01*
X129601925Y-115376177D01*
X129620339Y-115382481D01*
X129638724Y-115390438D01*
X129681881Y-115397273D01*
X129693276Y-115399632D01*
X129735601Y-115410500D01*
X129755636Y-115410500D01*
X129775033Y-115412026D01*
X129794816Y-115415160D01*
X129838295Y-115411050D01*
X129849964Y-115410500D01*
X139290257Y-115410500D01*
X139305877Y-115412224D01*
X139305904Y-115411939D01*
X139313660Y-115412671D01*
X139313667Y-115412673D01*
X139380873Y-115410561D01*
X139384768Y-115410500D01*
X139412346Y-115410500D01*
X139412350Y-115410500D01*
X139416324Y-115409997D01*
X139427963Y-115409080D01*
X139471627Y-115407709D01*
X139490869Y-115402117D01*
X139509912Y-115398174D01*
X139529792Y-115395664D01*
X139570401Y-115379585D01*
X139581444Y-115375803D01*
X139623390Y-115363618D01*
X139640629Y-115353422D01*
X139658103Y-115344862D01*
X139676727Y-115337488D01*
X139676727Y-115337487D01*
X139676732Y-115337486D01*
X139712083Y-115311800D01*
X139721814Y-115305408D01*
X139759420Y-115283170D01*
X139773589Y-115268999D01*
X139788379Y-115256368D01*
X139804587Y-115244594D01*
X139832438Y-115210926D01*
X139840279Y-115202309D01*
X140433771Y-114608819D01*
X140495094Y-114575334D01*
X140521452Y-114572500D01*
X140580644Y-114572500D01*
X140580646Y-114572500D01*
X140765803Y-114533144D01*
X140938730Y-114456151D01*
X141091871Y-114344888D01*
X141218533Y-114204216D01*
X141281132Y-114095791D01*
X187479082Y-114095791D01*
X187486755Y-114178597D01*
X187487284Y-114190038D01*
X187487284Y-114206750D01*
X187490222Y-114222469D01*
X187490354Y-114223173D01*
X187491935Y-114234510D01*
X187499610Y-114317327D01*
X187499610Y-114317329D01*
X187522370Y-114397321D01*
X187524990Y-114408460D01*
X187528062Y-114424888D01*
X187528063Y-114424893D01*
X187534097Y-114440468D01*
X187537737Y-114451328D01*
X187560495Y-114531318D01*
X187569602Y-114549606D01*
X187597566Y-114605765D01*
X187602187Y-114616231D01*
X187608227Y-114631823D01*
X187617024Y-114646029D01*
X187622597Y-114656035D01*
X187659663Y-114730474D01*
X187659667Y-114730481D01*
X187709780Y-114796841D01*
X187716250Y-114806286D01*
X187725053Y-114820502D01*
X187736310Y-114832851D01*
X187743626Y-114841661D01*
X187793745Y-114908028D01*
X187855199Y-114964051D01*
X187863298Y-114972150D01*
X187874556Y-114984500D01*
X187887896Y-114994574D01*
X187896706Y-115001890D01*
X187958158Y-115057911D01*
X187958160Y-115057912D01*
X187958163Y-115057915D01*
X188028869Y-115101694D01*
X188038315Y-115108164D01*
X188051653Y-115118237D01*
X188066624Y-115125691D01*
X188076621Y-115131261D01*
X188147314Y-115175033D01*
X188147318Y-115175035D01*
X188147321Y-115175036D01*
X188147324Y-115175038D01*
X188224878Y-115205082D01*
X188235334Y-115209700D01*
X188250301Y-115217153D01*
X188250303Y-115217153D01*
X188250306Y-115217155D01*
X188266400Y-115221734D01*
X188277236Y-115225366D01*
X188354785Y-115255409D01*
X188436552Y-115270694D01*
X188447679Y-115273311D01*
X188463753Y-115277885D01*
X188480384Y-115279426D01*
X188491713Y-115281005D01*
X188573482Y-115296291D01*
X188573484Y-115296291D01*
X188656643Y-115296291D01*
X188668084Y-115296819D01*
X188684725Y-115298362D01*
X188701365Y-115296819D01*
X188712807Y-115296291D01*
X188795967Y-115296291D01*
X188795968Y-115296291D01*
X188877732Y-115281006D01*
X188889053Y-115279427D01*
X188905697Y-115277885D01*
X188921794Y-115273304D01*
X188932886Y-115270696D01*
X189014665Y-115255409D01*
X189092239Y-115225356D01*
X189103036Y-115221737D01*
X189119144Y-115217155D01*
X189134116Y-115209700D01*
X189144572Y-115205082D01*
X189222126Y-115175038D01*
X189292862Y-115131239D01*
X189302808Y-115125700D01*
X189317797Y-115118237D01*
X189331142Y-115108159D01*
X189340548Y-115101714D01*
X189411287Y-115057915D01*
X189472765Y-115001869D01*
X189481539Y-114994584D01*
X189494892Y-114984501D01*
X189506166Y-114972133D01*
X189514231Y-114964068D01*
X189575706Y-114908027D01*
X189625833Y-114841647D01*
X189633127Y-114832863D01*
X189644397Y-114820502D01*
X189653208Y-114806271D01*
X189659652Y-114796863D01*
X189709783Y-114730480D01*
X189746863Y-114656012D01*
X189752412Y-114646050D01*
X189761222Y-114631823D01*
X189767264Y-114616225D01*
X189771871Y-114605789D01*
X189808954Y-114531319D01*
X189831721Y-114451300D01*
X189835347Y-114440482D01*
X189841388Y-114424890D01*
X189844458Y-114408462D01*
X189847071Y-114397350D01*
X189869840Y-114317327D01*
X189877514Y-114234506D01*
X189879092Y-114223189D01*
X189882166Y-114206750D01*
X189882756Y-114181146D01*
X189883249Y-114172616D01*
X189890368Y-114095791D01*
X189883249Y-114018968D01*
X189882756Y-114010435D01*
X189882166Y-113984832D01*
X189879090Y-113968382D01*
X189877513Y-113957062D01*
X189869840Y-113874255D01*
X189847072Y-113794236D01*
X189844458Y-113783119D01*
X189841388Y-113766692D01*
X189835349Y-113751106D01*
X189831719Y-113740275D01*
X189808954Y-113660263D01*
X189771880Y-113585810D01*
X189767258Y-113575340D01*
X189761223Y-113559761D01*
X189761222Y-113559759D01*
X189752413Y-113545533D01*
X189746860Y-113535563D01*
X189709783Y-113461102D01*
X189659659Y-113394727D01*
X189653195Y-113385290D01*
X189644397Y-113371080D01*
X189633137Y-113358728D01*
X189625823Y-113349920D01*
X189590930Y-113303715D01*
X189575706Y-113283555D01*
X189566119Y-113274815D01*
X189514248Y-113227528D01*
X189506151Y-113219431D01*
X189494895Y-113207084D01*
X189494893Y-113207082D01*
X189494892Y-113207081D01*
X189481546Y-113197002D01*
X189472753Y-113189701D01*
X189411287Y-113133667D01*
X189340583Y-113089889D01*
X189331136Y-113083418D01*
X189317793Y-113073342D01*
X189302832Y-113065892D01*
X189292830Y-113060321D01*
X189222132Y-113016547D01*
X189222131Y-113016546D01*
X189144587Y-112986504D01*
X189134121Y-112981883D01*
X189119151Y-112974430D01*
X189119147Y-112974428D01*
X189119144Y-112974427D01*
X189119136Y-112974424D01*
X189119134Y-112974424D01*
X189103062Y-112969850D01*
X189092211Y-112966213D01*
X189014668Y-112936174D01*
X189014666Y-112936173D01*
X189014665Y-112936173D01*
X189014663Y-112936172D01*
X189014654Y-112936170D01*
X188932915Y-112920890D01*
X188921769Y-112918269D01*
X188905697Y-112913696D01*
X188905693Y-112913695D01*
X188889055Y-112912153D01*
X188877721Y-112910572D01*
X188795969Y-112895291D01*
X188795968Y-112895291D01*
X188712796Y-112895291D01*
X188701356Y-112894762D01*
X188684725Y-112893221D01*
X188668093Y-112894762D01*
X188656654Y-112895291D01*
X188573480Y-112895291D01*
X188491728Y-112910572D01*
X188480395Y-112912153D01*
X188463761Y-112913695D01*
X188463747Y-112913698D01*
X188447667Y-112918272D01*
X188436529Y-112920891D01*
X188354789Y-112936171D01*
X188354779Y-112936174D01*
X188277243Y-112966212D01*
X188266391Y-112969850D01*
X188250305Y-112974427D01*
X188250295Y-112974431D01*
X188235325Y-112981884D01*
X188224862Y-112986503D01*
X188147332Y-113016540D01*
X188147320Y-113016546D01*
X188076616Y-113060323D01*
X188066615Y-113065893D01*
X188051659Y-113073340D01*
X188051654Y-113073343D01*
X188038313Y-113083417D01*
X188028874Y-113089883D01*
X187958160Y-113133668D01*
X187896693Y-113189701D01*
X187887891Y-113197011D01*
X187874555Y-113207082D01*
X187863289Y-113219440D01*
X187855197Y-113227531D01*
X187793747Y-113283551D01*
X187743626Y-113349920D01*
X187736315Y-113358724D01*
X187725055Y-113371077D01*
X187725054Y-113371077D01*
X187716256Y-113385287D01*
X187709787Y-113394731D01*
X187690409Y-113420393D01*
X187659667Y-113461102D01*
X187659666Y-113461103D01*
X187659666Y-113461104D01*
X187659659Y-113461115D01*
X187622595Y-113535548D01*
X187617028Y-113545544D01*
X187608227Y-113559759D01*
X187602191Y-113575340D01*
X187597567Y-113585811D01*
X187560498Y-113660258D01*
X187560495Y-113660264D01*
X187547710Y-113705198D01*
X187537736Y-113740256D01*
X187534098Y-113751110D01*
X187528063Y-113766686D01*
X187528062Y-113766692D01*
X187524993Y-113783107D01*
X187522372Y-113794249D01*
X187499610Y-113874255D01*
X187491936Y-113957062D01*
X187490355Y-113968398D01*
X187487284Y-113984828D01*
X187487284Y-114001542D01*
X187486755Y-114012983D01*
X187479082Y-114095790D01*
X187479082Y-114095791D01*
X141281132Y-114095791D01*
X141313179Y-114040284D01*
X141371674Y-113860256D01*
X141391460Y-113672000D01*
X141371674Y-113483744D01*
X141313179Y-113303716D01*
X141218533Y-113139784D01*
X141091871Y-112999112D01*
X141074518Y-112986504D01*
X140938734Y-112887851D01*
X140938729Y-112887848D01*
X140765807Y-112810857D01*
X140765802Y-112810855D01*
X140620001Y-112779865D01*
X140580646Y-112771500D01*
X140391354Y-112771500D01*
X140358897Y-112778398D01*
X140206197Y-112810855D01*
X140206192Y-112810857D01*
X140033270Y-112887848D01*
X140033265Y-112887851D01*
X139880129Y-112999111D01*
X139753466Y-113139785D01*
X139658821Y-113303715D01*
X139658818Y-113303722D01*
X139606632Y-113464336D01*
X139600326Y-113483744D01*
X139589599Y-113585811D01*
X139582679Y-113651650D01*
X139556094Y-113716264D01*
X139547039Y-113726369D01*
X139150228Y-114123181D01*
X139088905Y-114156666D01*
X139062547Y-114159500D01*
X134911120Y-114159500D01*
X134844081Y-114139815D01*
X134798326Y-114087011D01*
X134787120Y-114035500D01*
X134787120Y-113959500D01*
X134806805Y-113892461D01*
X134859609Y-113846706D01*
X134911120Y-113835500D01*
X136077306Y-113835500D01*
X136077314Y-113835500D01*
X136114189Y-113832598D01*
X136114191Y-113832597D01*
X136114193Y-113832597D01*
X136259353Y-113790424D01*
X136293948Y-113785500D01*
X137719915Y-113785500D01*
X137737885Y-113786809D01*
X137761643Y-113790289D01*
X137810989Y-113785971D01*
X137821796Y-113785500D01*
X137827324Y-113785500D01*
X137827329Y-113785500D01*
X137858176Y-113781893D01*
X137861650Y-113781539D01*
X137936417Y-113774999D01*
X137936425Y-113774996D01*
X137943486Y-113773539D01*
X137943498Y-113773598D01*
X137950863Y-113771965D01*
X137950849Y-113771906D01*
X137957869Y-113770241D01*
X137957875Y-113770241D01*
X138028399Y-113744572D01*
X138031737Y-113743412D01*
X138102954Y-113719814D01*
X138102962Y-113719808D01*
X138109502Y-113716760D01*
X138109528Y-113716816D01*
X138116310Y-113713532D01*
X138116283Y-113713478D01*
X138122733Y-113710238D01*
X138122737Y-113710237D01*
X138185457Y-113668984D01*
X138188352Y-113667140D01*
X138252276Y-113627712D01*
X138252282Y-113627705D01*
X138257945Y-113623229D01*
X138257983Y-113623277D01*
X138263820Y-113618522D01*
X138263781Y-113618475D01*
X138269311Y-113613833D01*
X138269316Y-113613830D01*
X138320804Y-113559254D01*
X138323251Y-113556735D01*
X139697262Y-112182724D01*
X139710891Y-112170947D01*
X139730150Y-112156610D01*
X139761980Y-112118676D01*
X139769297Y-112110691D01*
X139773207Y-112106781D01*
X139773207Y-112106780D01*
X139773211Y-112106777D01*
X139792453Y-112082438D01*
X139794689Y-112079693D01*
X139842922Y-112022214D01*
X139842927Y-112022203D01*
X139846894Y-112016175D01*
X139846945Y-112016208D01*
X139850992Y-112009856D01*
X139850940Y-112009824D01*
X139854728Y-112003680D01*
X139854731Y-112003677D01*
X139886441Y-111935673D01*
X139887982Y-111932488D01*
X139921660Y-111865433D01*
X139921663Y-111865417D01*
X139924129Y-111858646D01*
X139924187Y-111858667D01*
X139926663Y-111851546D01*
X139926606Y-111851528D01*
X139928876Y-111844677D01*
X139928877Y-111844673D01*
X139944067Y-111771102D01*
X139944799Y-111767798D01*
X139962120Y-111694721D01*
X139962120Y-111694712D01*
X139962958Y-111687548D01*
X139963018Y-111687555D01*
X139963784Y-111680055D01*
X139963725Y-111680050D01*
X139964354Y-111672860D01*
X139962172Y-111597870D01*
X139962120Y-111594263D01*
X139962120Y-109800005D01*
X183694357Y-109800005D01*
X183714890Y-110047812D01*
X183714892Y-110047824D01*
X183775936Y-110288881D01*
X183875826Y-110516606D01*
X184011833Y-110724782D01*
X184011836Y-110724785D01*
X184180256Y-110907738D01*
X184376491Y-111060474D01*
X184595190Y-111178828D01*
X184830386Y-111259571D01*
X185075665Y-111300500D01*
X185324335Y-111300500D01*
X185569614Y-111259571D01*
X185804810Y-111178828D01*
X186023509Y-111060474D01*
X186219744Y-110907738D01*
X186388164Y-110724785D01*
X186524173Y-110516607D01*
X186624063Y-110288881D01*
X186685108Y-110047821D01*
X186705643Y-109800000D01*
X186685108Y-109552179D01*
X186624063Y-109311119D01*
X186524173Y-109083393D01*
X186388166Y-108875217D01*
X186366557Y-108851744D01*
X186219744Y-108692262D01*
X186023509Y-108539526D01*
X186023507Y-108539525D01*
X186023506Y-108539524D01*
X185804811Y-108421172D01*
X185804802Y-108421169D01*
X185569616Y-108340429D01*
X185324335Y-108299500D01*
X185075665Y-108299500D01*
X184830383Y-108340429D01*
X184595197Y-108421169D01*
X184595188Y-108421172D01*
X184376493Y-108539524D01*
X184180257Y-108692261D01*
X184011833Y-108875217D01*
X183875826Y-109083393D01*
X183775936Y-109311118D01*
X183714892Y-109552175D01*
X183714890Y-109552187D01*
X183694357Y-109799994D01*
X183694357Y-109800005D01*
X139962120Y-109800005D01*
X139962120Y-105033705D01*
X139963429Y-105015735D01*
X139966386Y-104995546D01*
X139966909Y-104991977D01*
X139962592Y-104942630D01*
X139962120Y-104931822D01*
X139962120Y-104926296D01*
X139962120Y-104926291D01*
X139958521Y-104895509D01*
X139958156Y-104891929D01*
X139951619Y-104817201D01*
X139950159Y-104810129D01*
X139950217Y-104810116D01*
X139948585Y-104802757D01*
X139948526Y-104802772D01*
X139946861Y-104795751D01*
X139946861Y-104795745D01*
X139921189Y-104725212D01*
X139920041Y-104721909D01*
X139896434Y-104650666D01*
X139896430Y-104650659D01*
X139893380Y-104644118D01*
X139893435Y-104644091D01*
X139890153Y-104637313D01*
X139890100Y-104637340D01*
X139886855Y-104630880D01*
X139845645Y-104568223D01*
X139843706Y-104565181D01*
X139804330Y-104501342D01*
X139799854Y-104495682D01*
X139799901Y-104495644D01*
X139795139Y-104489799D01*
X139795094Y-104489838D01*
X139790451Y-104484305D01*
X139735893Y-104432832D01*
X139733306Y-104430319D01*
X138655349Y-103352361D01*
X138643569Y-103338730D01*
X138629230Y-103319470D01*
X138591271Y-103287619D01*
X138583306Y-103280318D01*
X138579400Y-103276411D01*
X138555063Y-103257168D01*
X138552267Y-103254890D01*
X138494834Y-103206698D01*
X138488800Y-103202729D01*
X138488832Y-103202680D01*
X138482473Y-103198628D01*
X138482442Y-103198679D01*
X138476300Y-103194891D01*
X138476298Y-103194890D01*
X138476297Y-103194889D01*
X138408308Y-103163184D01*
X138405067Y-103161615D01*
X138374150Y-103146088D01*
X138338053Y-103127960D01*
X138338051Y-103127959D01*
X138338050Y-103127959D01*
X138331265Y-103125489D01*
X138331285Y-103125433D01*
X138324169Y-103122959D01*
X138324151Y-103123015D01*
X138317294Y-103120743D01*
X138243830Y-103105573D01*
X138240313Y-103104793D01*
X138167338Y-103087499D01*
X138160167Y-103086661D01*
X138160173Y-103086601D01*
X138152675Y-103085835D01*
X138152670Y-103085895D01*
X138145480Y-103085265D01*
X138070490Y-103087448D01*
X138066883Y-103087500D01*
X137129283Y-103087500D01*
X137062244Y-103067815D01*
X137027708Y-103034623D01*
X137002665Y-102998858D01*
X136841761Y-102837954D01*
X136655354Y-102707432D01*
X136655352Y-102707431D01*
X136449117Y-102611261D01*
X136449108Y-102611258D01*
X136229317Y-102552366D01*
X136229313Y-102552365D01*
X136229312Y-102552365D01*
X136229311Y-102552364D01*
X136229306Y-102552364D01*
X136002622Y-102532532D01*
X136002618Y-102532532D01*
X135775933Y-102552364D01*
X135775922Y-102552366D01*
X135556131Y-102611258D01*
X135556122Y-102611261D01*
X135349887Y-102707431D01*
X135349885Y-102707432D01*
X135163478Y-102837954D01*
X135002574Y-102998858D01*
X134872052Y-103185265D01*
X134872051Y-103185267D01*
X134775881Y-103391502D01*
X134775878Y-103391511D01*
X134716986Y-103611302D01*
X134716984Y-103611313D01*
X134697152Y-103837998D01*
X134697152Y-103838001D01*
X134716984Y-104064686D01*
X134716986Y-104064697D01*
X134775878Y-104284488D01*
X134775881Y-104284497D01*
X134872051Y-104490732D01*
X134872052Y-104490734D01*
X135002574Y-104677141D01*
X135163478Y-104838045D01*
X135192094Y-104858082D01*
X135349886Y-104968568D01*
X135556124Y-105064739D01*
X135775928Y-105123635D01*
X135937850Y-105137801D01*
X136002618Y-105143468D01*
X136002620Y-105143468D01*
X136002622Y-105143468D01*
X136059427Y-105138498D01*
X136229312Y-105123635D01*
X136449116Y-105064739D01*
X136655354Y-104968568D01*
X136841759Y-104838047D01*
X137002667Y-104677139D01*
X137021202Y-104650668D01*
X137027708Y-104641377D01*
X137082285Y-104597752D01*
X137129283Y-104588500D01*
X137717390Y-104588500D01*
X137784429Y-104608185D01*
X137805071Y-104624819D01*
X138424801Y-105244549D01*
X138458286Y-105305872D01*
X138461120Y-105332230D01*
X138461120Y-111244770D01*
X138441435Y-111311809D01*
X138424801Y-111332451D01*
X137509071Y-112248181D01*
X137447748Y-112281666D01*
X137421390Y-112284500D01*
X136293948Y-112284500D01*
X136259353Y-112279576D01*
X136114193Y-112237402D01*
X136114187Y-112237401D01*
X136077321Y-112234500D01*
X136077314Y-112234500D01*
X134770926Y-112234500D01*
X134770918Y-112234500D01*
X134734052Y-112237401D01*
X134734046Y-112237402D01*
X134576226Y-112283254D01*
X134576223Y-112283255D01*
X134434757Y-112366917D01*
X134434749Y-112366923D01*
X134318543Y-112483129D01*
X134318537Y-112483137D01*
X134234875Y-112624603D01*
X134234874Y-112624606D01*
X134189022Y-112782426D01*
X134189021Y-112782432D01*
X134186120Y-112819298D01*
X134186120Y-113060500D01*
X134166435Y-113127539D01*
X134113631Y-113173294D01*
X134062120Y-113184500D01*
X132895918Y-113184500D01*
X132859052Y-113187401D01*
X132859046Y-113187402D01*
X132713887Y-113229576D01*
X132679292Y-113234500D01*
X131549120Y-113234500D01*
X131482081Y-113214815D01*
X131436326Y-113162011D01*
X131425120Y-113110500D01*
X131425120Y-111919976D01*
X131443002Y-111855829D01*
X131518098Y-111731606D01*
X131568706Y-111569196D01*
X131575120Y-111498616D01*
X131575120Y-110835384D01*
X131568706Y-110764804D01*
X131518098Y-110602394D01*
X131430092Y-110456815D01*
X131430090Y-110456813D01*
X131430089Y-110456811D01*
X131309808Y-110336530D01*
X131230987Y-110288881D01*
X131164226Y-110248522D01*
X131001816Y-110197914D01*
X131001814Y-110197913D01*
X131001812Y-110197913D01*
X130952398Y-110193423D01*
X130931236Y-110191500D01*
X130418004Y-110191500D01*
X130398765Y-110193248D01*
X130347427Y-110197913D01*
X130185013Y-110248522D01*
X130039431Y-110336530D01*
X129919150Y-110456811D01*
X129831142Y-110602393D01*
X129780533Y-110764807D01*
X129774120Y-110835386D01*
X129774120Y-111498613D01*
X129780533Y-111569192D01*
X129780533Y-111569194D01*
X129780534Y-111569196D01*
X129831142Y-111731606D01*
X129906237Y-111855829D01*
X129924120Y-111919976D01*
X129924120Y-113129480D01*
X129904435Y-113196519D01*
X129851631Y-113242274D01*
X129782473Y-113252218D01*
X129718917Y-113223193D01*
X129712439Y-113217161D01*
X129649808Y-113154530D01*
X129625415Y-113139784D01*
X129504226Y-113066522D01*
X129341816Y-113015914D01*
X129341814Y-113015913D01*
X129341812Y-113015913D01*
X129292398Y-113011423D01*
X129271236Y-113009500D01*
X128758004Y-113009500D01*
X128738765Y-113011248D01*
X128687427Y-113015913D01*
X128525013Y-113066522D01*
X128379431Y-113154530D01*
X128259150Y-113274811D01*
X128171142Y-113420393D01*
X128120533Y-113582807D01*
X128117714Y-113613830D01*
X128114120Y-113653384D01*
X128114120Y-114316616D01*
X125869906Y-114316616D01*
X125877514Y-114234506D01*
X125879092Y-114223189D01*
X125882166Y-114206750D01*
X125882756Y-114181146D01*
X125883249Y-114172616D01*
X125890368Y-114095791D01*
X125883249Y-114018968D01*
X125882756Y-114010435D01*
X125882166Y-113984832D01*
X125879090Y-113968382D01*
X125877513Y-113957062D01*
X125869840Y-113874255D01*
X125847072Y-113794236D01*
X125844458Y-113783119D01*
X125841388Y-113766692D01*
X125835349Y-113751106D01*
X125831719Y-113740275D01*
X125808954Y-113660263D01*
X125771880Y-113585810D01*
X125767258Y-113575340D01*
X125761223Y-113559761D01*
X125761222Y-113559759D01*
X125752413Y-113545533D01*
X125746860Y-113535563D01*
X125709783Y-113461102D01*
X125659659Y-113394727D01*
X125653195Y-113385290D01*
X125644397Y-113371080D01*
X125633137Y-113358728D01*
X125625823Y-113349920D01*
X125590930Y-113303715D01*
X125575706Y-113283555D01*
X125566119Y-113274815D01*
X125514248Y-113227528D01*
X125506151Y-113219431D01*
X125494895Y-113207084D01*
X125494893Y-113207082D01*
X125494892Y-113207081D01*
X125481546Y-113197002D01*
X125472753Y-113189701D01*
X125411287Y-113133667D01*
X125340583Y-113089889D01*
X125331136Y-113083418D01*
X125317793Y-113073342D01*
X125302832Y-113065892D01*
X125292830Y-113060321D01*
X125222132Y-113016547D01*
X125222131Y-113016546D01*
X125144587Y-112986504D01*
X125134121Y-112981883D01*
X125119151Y-112974430D01*
X125119147Y-112974428D01*
X125119144Y-112974427D01*
X125119136Y-112974424D01*
X125119134Y-112974424D01*
X125103062Y-112969850D01*
X125092211Y-112966213D01*
X125014668Y-112936174D01*
X125014666Y-112936173D01*
X125014665Y-112936173D01*
X125014663Y-112936172D01*
X125014654Y-112936170D01*
X124932915Y-112920890D01*
X124921769Y-112918269D01*
X124905697Y-112913696D01*
X124905693Y-112913695D01*
X124889055Y-112912153D01*
X124877721Y-112910572D01*
X124795969Y-112895291D01*
X124795968Y-112895291D01*
X124712796Y-112895291D01*
X124701356Y-112894762D01*
X124684725Y-112893221D01*
X124668093Y-112894762D01*
X124656654Y-112895291D01*
X124573480Y-112895291D01*
X124491728Y-112910572D01*
X124480395Y-112912153D01*
X124463761Y-112913695D01*
X124463747Y-112913698D01*
X124447667Y-112918272D01*
X124436529Y-112920891D01*
X124354789Y-112936171D01*
X124354779Y-112936174D01*
X124277243Y-112966212D01*
X124266391Y-112969850D01*
X124250305Y-112974427D01*
X124250295Y-112974431D01*
X124235325Y-112981884D01*
X124224862Y-112986503D01*
X124147332Y-113016540D01*
X124147320Y-113016546D01*
X124076616Y-113060323D01*
X124066615Y-113065893D01*
X124051659Y-113073340D01*
X124051654Y-113073343D01*
X124038313Y-113083417D01*
X124028874Y-113089883D01*
X123958160Y-113133668D01*
X123896693Y-113189701D01*
X123887891Y-113197011D01*
X123874555Y-113207082D01*
X123863289Y-113219440D01*
X123855197Y-113227531D01*
X123793747Y-113283551D01*
X123743626Y-113349920D01*
X123736315Y-113358724D01*
X123725055Y-113371077D01*
X123725054Y-113371077D01*
X123716256Y-113385287D01*
X123709787Y-113394731D01*
X123690409Y-113420393D01*
X123659667Y-113461102D01*
X123659666Y-113461103D01*
X123659666Y-113461104D01*
X123659659Y-113461115D01*
X123622595Y-113535548D01*
X123617028Y-113545544D01*
X123608227Y-113559759D01*
X123602191Y-113575340D01*
X123597567Y-113585811D01*
X123560498Y-113660258D01*
X123560495Y-113660264D01*
X123547710Y-113705198D01*
X123537736Y-113740256D01*
X123534098Y-113751110D01*
X123528063Y-113766686D01*
X123528062Y-113766692D01*
X123524993Y-113783107D01*
X123522372Y-113794249D01*
X123499610Y-113874255D01*
X123491936Y-113957062D01*
X123490355Y-113968398D01*
X123487284Y-113984828D01*
X123487284Y-114001542D01*
X123486755Y-114012983D01*
X123479082Y-114095790D01*
X123479082Y-114095791D01*
X121685225Y-114095791D01*
X121685225Y-104685870D01*
X128202120Y-104685870D01*
X128202121Y-104685876D01*
X128208528Y-104745483D01*
X128258822Y-104880328D01*
X128258826Y-104880335D01*
X128345072Y-104995544D01*
X128345075Y-104995547D01*
X128460284Y-105081793D01*
X128460291Y-105081797D01*
X128595137Y-105132091D01*
X128595136Y-105132091D01*
X128602064Y-105132835D01*
X128654747Y-105138500D01*
X130350492Y-105138499D01*
X130410103Y-105132091D01*
X130544951Y-105081796D01*
X130660166Y-104995546D01*
X130746416Y-104880331D01*
X130796711Y-104745483D01*
X130803120Y-104685873D01*
X130803119Y-102990128D01*
X130796711Y-102930517D01*
X130784382Y-102897462D01*
X130746417Y-102795671D01*
X130746413Y-102795664D01*
X130660167Y-102680455D01*
X130660164Y-102680452D01*
X130544955Y-102594206D01*
X130544948Y-102594202D01*
X130410102Y-102543908D01*
X130410103Y-102543908D01*
X130350503Y-102537501D01*
X130350501Y-102537500D01*
X130350493Y-102537500D01*
X130350484Y-102537500D01*
X128654749Y-102537500D01*
X128654743Y-102537501D01*
X128595136Y-102543908D01*
X128460291Y-102594202D01*
X128460284Y-102594206D01*
X128345075Y-102680452D01*
X128345072Y-102680455D01*
X128258826Y-102795664D01*
X128258822Y-102795671D01*
X128208528Y-102930517D01*
X128202121Y-102990116D01*
X128202121Y-102990123D01*
X128202120Y-102990135D01*
X128202120Y-104685870D01*
X121685225Y-104685870D01*
X121685225Y-89000644D01*
X121704910Y-88933605D01*
X121757714Y-88887850D01*
X121826872Y-88877906D01*
X121890428Y-88906931D01*
X121923346Y-88952144D01*
X121974870Y-89073390D01*
X122033340Y-89169196D01*
X122115979Y-89304605D01*
X122115986Y-89304615D01*
X122289253Y-89512819D01*
X122289259Y-89512824D01*
X122346861Y-89564435D01*
X122490998Y-89693582D01*
X122716910Y-89843044D01*
X122962176Y-89958020D01*
X122962183Y-89958022D01*
X122962185Y-89958023D01*
X123221557Y-90036057D01*
X123221564Y-90036058D01*
X123221569Y-90036060D01*
X123489561Y-90075500D01*
X123489566Y-90075500D01*
X124292629Y-90075500D01*
X124292631Y-90075500D01*
X124292636Y-90075499D01*
X124292648Y-90075499D01*
X124330191Y-90072750D01*
X124495156Y-90060677D01*
X124607758Y-90035593D01*
X124759546Y-90001782D01*
X124759548Y-90001781D01*
X124759553Y-90001780D01*
X125012558Y-89905014D01*
X125248777Y-89772441D01*
X125463177Y-89606888D01*
X125651186Y-89411881D01*
X125808799Y-89191579D01*
X125888445Y-89036666D01*
X125932649Y-88950690D01*
X125932651Y-88950684D01*
X125932656Y-88950675D01*
X126020118Y-88694305D01*
X126069319Y-88427933D01*
X126079212Y-88157235D01*
X126049586Y-87887982D01*
X125981072Y-87625912D01*
X125875130Y-87376610D01*
X125734018Y-87145390D01*
X125699783Y-87104252D01*
X125560746Y-86937180D01*
X125560740Y-86937175D01*
X125359002Y-86756418D01*
X125133092Y-86606957D01*
X125106154Y-86594329D01*
X124887824Y-86491980D01*
X124887819Y-86491978D01*
X124887814Y-86491976D01*
X124628442Y-86413942D01*
X124628428Y-86413939D01*
X124512791Y-86396921D01*
X124360439Y-86374500D01*
X123557369Y-86374500D01*
X123557351Y-86374500D01*
X123354844Y-86389323D01*
X123354831Y-86389325D01*
X123090453Y-86448217D01*
X123090446Y-86448220D01*
X122837439Y-86544987D01*
X122601226Y-86677557D01*
X122601224Y-86677558D01*
X122601223Y-86677559D01*
X122558453Y-86710585D01*
X122386822Y-86843112D01*
X122198822Y-87038109D01*
X122198816Y-87038116D01*
X122041202Y-87258419D01*
X122041199Y-87258424D01*
X121919503Y-87495123D01*
X121871343Y-87545744D01*
X121803461Y-87562291D01*
X121737409Y-87539512D01*
X121694158Y-87484638D01*
X121685225Y-87438425D01*
X121685225Y-84800644D01*
X121704910Y-84733605D01*
X121757714Y-84687850D01*
X121826872Y-84677906D01*
X121890428Y-84706931D01*
X121923346Y-84752144D01*
X121974870Y-84873390D01*
X122046998Y-84991575D01*
X122115979Y-85104605D01*
X122115986Y-85104615D01*
X122289253Y-85312819D01*
X122289259Y-85312824D01*
X122411033Y-85421933D01*
X122490998Y-85493582D01*
X122716910Y-85643044D01*
X122962176Y-85758020D01*
X122962183Y-85758022D01*
X122962185Y-85758023D01*
X123221557Y-85836057D01*
X123221564Y-85836058D01*
X123221569Y-85836060D01*
X123489561Y-85875500D01*
X123489566Y-85875500D01*
X124292629Y-85875500D01*
X124292631Y-85875500D01*
X124292636Y-85875499D01*
X124292648Y-85875499D01*
X124330191Y-85872750D01*
X124495156Y-85860677D01*
X124618976Y-85833095D01*
X124759546Y-85801782D01*
X124759548Y-85801781D01*
X124759553Y-85801780D01*
X125012558Y-85705014D01*
X125248777Y-85572441D01*
X125463177Y-85406888D01*
X125651186Y-85211881D01*
X125808799Y-84991579D01*
X125882787Y-84847669D01*
X125932649Y-84750690D01*
X125932651Y-84750684D01*
X125932656Y-84750675D01*
X126020118Y-84494305D01*
X126069319Y-84227933D01*
X126079212Y-83957235D01*
X126077841Y-83944778D01*
X126064350Y-83822160D01*
X126049586Y-83687982D01*
X125981072Y-83425912D01*
X125875130Y-83176610D01*
X125734018Y-82945390D01*
X125644747Y-82838119D01*
X125560746Y-82737180D01*
X125560740Y-82737175D01*
X125359002Y-82556418D01*
X125133092Y-82406957D01*
X125061952Y-82373608D01*
X124887824Y-82291980D01*
X124887819Y-82291978D01*
X124887814Y-82291976D01*
X124628442Y-82213942D01*
X124628428Y-82213939D01*
X124512791Y-82196921D01*
X124360439Y-82174500D01*
X123557369Y-82174500D01*
X123557351Y-82174500D01*
X123354844Y-82189323D01*
X123354831Y-82189325D01*
X123090453Y-82248217D01*
X123090446Y-82248220D01*
X122837439Y-82344987D01*
X122601226Y-82477557D01*
X122386822Y-82643112D01*
X122198822Y-82838109D01*
X122198816Y-82838116D01*
X122041202Y-83058419D01*
X122041199Y-83058424D01*
X121919503Y-83295123D01*
X121871343Y-83345744D01*
X121803461Y-83362291D01*
X121737409Y-83339512D01*
X121694158Y-83284638D01*
X121685225Y-83238425D01*
X121685225Y-80530195D01*
X126819840Y-80530195D01*
X126823950Y-80573674D01*
X126824500Y-80585343D01*
X126824500Y-88836063D01*
X126822775Y-88851680D01*
X126823061Y-88851707D01*
X126822326Y-88859473D01*
X126824439Y-88926680D01*
X126824500Y-88930575D01*
X126824500Y-88958165D01*
X126825003Y-88962143D01*
X126825918Y-88973775D01*
X126827290Y-89017432D01*
X126827291Y-89017435D01*
X126832880Y-89036675D01*
X126836824Y-89055719D01*
X126839057Y-89073389D01*
X126839336Y-89075600D01*
X126855414Y-89116211D01*
X126859197Y-89127260D01*
X126871381Y-89169196D01*
X126881580Y-89186442D01*
X126890138Y-89203911D01*
X126897514Y-89222540D01*
X126923181Y-89257868D01*
X126929593Y-89267629D01*
X126951828Y-89305225D01*
X126951833Y-89305232D01*
X126965990Y-89319388D01*
X126978628Y-89334184D01*
X126990405Y-89350394D01*
X126990406Y-89350395D01*
X127024057Y-89378233D01*
X127032698Y-89386096D01*
X128013770Y-90367169D01*
X128047255Y-90428492D01*
X128042271Y-90498184D01*
X128000399Y-90554117D01*
X127938692Y-90578208D01*
X127872205Y-90585000D01*
X127872203Y-90585001D01*
X127705664Y-90640186D01*
X127705662Y-90640187D01*
X127556348Y-90732286D01*
X127556344Y-90732289D01*
X127432289Y-90856344D01*
X127432286Y-90856348D01*
X127340187Y-91005662D01*
X127340186Y-91005664D01*
X127285001Y-91172203D01*
X127285000Y-91172204D01*
X127274500Y-91274984D01*
X127274500Y-93575015D01*
X127285000Y-93677795D01*
X127285001Y-93677796D01*
X127340186Y-93844335D01*
X127340187Y-93844337D01*
X127432286Y-93993651D01*
X127432289Y-93993655D01*
X127556344Y-94117710D01*
X127556348Y-94117713D01*
X127705662Y-94209812D01*
X127705664Y-94209813D01*
X127705666Y-94209814D01*
X127872203Y-94264999D01*
X127974992Y-94275500D01*
X127974997Y-94275500D01*
X130875003Y-94275500D01*
X130875008Y-94275500D01*
X130977797Y-94264999D01*
X131144334Y-94209814D01*
X131293655Y-94117711D01*
X131417711Y-93993655D01*
X131509814Y-93844334D01*
X131564999Y-93677797D01*
X131575500Y-93575008D01*
X131575500Y-93299500D01*
X131595185Y-93232461D01*
X131647989Y-93186706D01*
X131699500Y-93175500D01*
X134487279Y-93175500D01*
X134511295Y-93175500D01*
X134529265Y-93176809D01*
X134553023Y-93180289D01*
X134602369Y-93175971D01*
X134613176Y-93175500D01*
X135010655Y-93175500D01*
X135026944Y-93177164D01*
X135026950Y-93177105D01*
X135034139Y-93177734D01*
X135034143Y-93177733D01*
X135034144Y-93177734D01*
X135109130Y-93175552D01*
X135112737Y-93175500D01*
X147211295Y-93175500D01*
X147229265Y-93176809D01*
X147253023Y-93180289D01*
X147302369Y-93175971D01*
X147313176Y-93175500D01*
X147318704Y-93175500D01*
X147318709Y-93175500D01*
X147349556Y-93171893D01*
X147353030Y-93171539D01*
X147427797Y-93164999D01*
X147427805Y-93164996D01*
X147434866Y-93163539D01*
X147434878Y-93163598D01*
X147442243Y-93161965D01*
X147442229Y-93161906D01*
X147449249Y-93160241D01*
X147449255Y-93160241D01*
X147519779Y-93134572D01*
X147523117Y-93133412D01*
X147594334Y-93109814D01*
X147594342Y-93109808D01*
X147600882Y-93106760D01*
X147600908Y-93106816D01*
X147607690Y-93103532D01*
X147607663Y-93103478D01*
X147614113Y-93100238D01*
X147614117Y-93100237D01*
X147676837Y-93058984D01*
X147679732Y-93057140D01*
X147743656Y-93017712D01*
X147743662Y-93017705D01*
X147749325Y-93013229D01*
X147749363Y-93013277D01*
X147755200Y-93008522D01*
X147755161Y-93008475D01*
X147760691Y-93003833D01*
X147760696Y-93003830D01*
X147812184Y-92949254D01*
X147814630Y-92946736D01*
X148906820Y-91854546D01*
X148968142Y-91821063D01*
X149037834Y-91826047D01*
X149093767Y-91867919D01*
X149118184Y-91933383D01*
X149118500Y-91942229D01*
X149118500Y-106563032D01*
X149116772Y-106578681D01*
X149117054Y-106578708D01*
X149116319Y-106586475D01*
X149118439Y-106653917D01*
X149118500Y-106657811D01*
X149118500Y-106685476D01*
X149119006Y-106689485D01*
X149119921Y-106701116D01*
X149121298Y-106744942D01*
X149126916Y-106764275D01*
X149130862Y-106783329D01*
X149133383Y-106803287D01*
X149133386Y-106803299D01*
X149149519Y-106844048D01*
X149153302Y-106855098D01*
X149165530Y-106897187D01*
X149165530Y-106897188D01*
X149175777Y-106914515D01*
X149184335Y-106931985D01*
X149191745Y-106950701D01*
X149217511Y-106986164D01*
X149223925Y-106995929D01*
X149246234Y-107033652D01*
X149246240Y-107033660D01*
X149260469Y-107047888D01*
X149273106Y-107062684D01*
X149284937Y-107078967D01*
X149318717Y-107106912D01*
X149327346Y-107114765D01*
X150697631Y-108485050D01*
X150707478Y-108497340D01*
X150707696Y-108497161D01*
X150712664Y-108503166D01*
X150761853Y-108549358D01*
X150764650Y-108552069D01*
X150784214Y-108571633D01*
X150787392Y-108574097D01*
X150796288Y-108581694D01*
X150828242Y-108611702D01*
X150828244Y-108611703D01*
X150845874Y-108621394D01*
X150862142Y-108632079D01*
X150878045Y-108644415D01*
X150878047Y-108644416D01*
X150878049Y-108644417D01*
X150897949Y-108653028D01*
X150918267Y-108661820D01*
X150928756Y-108666958D01*
X150967173Y-108688079D01*
X150986674Y-108693086D01*
X151005072Y-108699385D01*
X151023548Y-108707380D01*
X151066856Y-108714239D01*
X151078250Y-108716598D01*
X151120735Y-108727507D01*
X151140871Y-108727507D01*
X151160270Y-108729034D01*
X151180140Y-108732181D01*
X151223768Y-108728056D01*
X151235437Y-108727507D01*
X164939474Y-108727507D01*
X164939476Y-108727507D01*
X164939481Y-108727506D01*
X164939485Y-108727506D01*
X164951097Y-108726038D01*
X165057293Y-108712623D01*
X165204703Y-108654260D01*
X165332967Y-108561070D01*
X165434026Y-108438910D01*
X165434029Y-108438902D01*
X165438205Y-108432325D01*
X165440905Y-108434038D01*
X165477425Y-108392788D01*
X165519158Y-108376194D01*
X165549748Y-108370109D01*
X165591922Y-108341929D01*
X165620102Y-108299755D01*
X165627500Y-108262565D01*
X165627500Y-107937449D01*
X165620102Y-107900259D01*
X165620100Y-107900256D01*
X165618943Y-107897462D01*
X165618234Y-107890871D01*
X165617719Y-107888282D01*
X165617950Y-107888235D01*
X165611471Y-107827993D01*
X165618944Y-107802545D01*
X165620098Y-107799756D01*
X165620102Y-107799752D01*
X165627500Y-107762562D01*
X165627500Y-107437446D01*
X165620102Y-107400256D01*
X165620099Y-107400252D01*
X165618943Y-107397460D01*
X165618234Y-107390869D01*
X165617719Y-107388279D01*
X165617950Y-107388232D01*
X165611473Y-107327991D01*
X165618943Y-107302548D01*
X165620098Y-107299756D01*
X165620102Y-107299752D01*
X165627500Y-107262562D01*
X165627500Y-106937446D01*
X165620102Y-106900256D01*
X165620099Y-106900252D01*
X165618943Y-106897460D01*
X165618234Y-106890869D01*
X165617719Y-106888279D01*
X165617950Y-106888232D01*
X165611473Y-106827991D01*
X165618943Y-106802548D01*
X165620098Y-106799756D01*
X165620102Y-106799752D01*
X165627500Y-106762562D01*
X165627500Y-106437446D01*
X165620102Y-106400256D01*
X165620099Y-106400252D01*
X165618943Y-106397460D01*
X165618234Y-106390869D01*
X165617719Y-106388279D01*
X165617950Y-106388232D01*
X165611473Y-106327991D01*
X165618943Y-106302548D01*
X165620098Y-106299756D01*
X165620102Y-106299752D01*
X165627500Y-106262562D01*
X165627500Y-105937446D01*
X165620102Y-105900256D01*
X165620101Y-105900255D01*
X165620101Y-105900252D01*
X165618943Y-105897457D01*
X165618235Y-105890873D01*
X165617719Y-105888279D01*
X165617951Y-105888232D01*
X165611474Y-105827987D01*
X165618944Y-105802550D01*
X165620099Y-105799758D01*
X165620102Y-105799755D01*
X165627500Y-105762565D01*
X165627500Y-105437449D01*
X165620102Y-105400259D01*
X165620100Y-105400256D01*
X165618943Y-105397462D01*
X165618234Y-105390871D01*
X165617719Y-105388282D01*
X165617950Y-105388235D01*
X165611471Y-105327993D01*
X165618944Y-105302545D01*
X165620098Y-105299756D01*
X165620102Y-105299752D01*
X165627500Y-105262562D01*
X165627500Y-104937446D01*
X165620102Y-104900256D01*
X165620099Y-104900252D01*
X165618943Y-104897460D01*
X165618234Y-104890869D01*
X165617719Y-104888279D01*
X165617950Y-104888232D01*
X165611473Y-104827991D01*
X165618943Y-104802548D01*
X165620098Y-104799756D01*
X165620102Y-104799752D01*
X165627500Y-104762562D01*
X165627500Y-104437446D01*
X165620102Y-104400256D01*
X165620099Y-104400252D01*
X165618943Y-104397460D01*
X165618234Y-104390869D01*
X165617719Y-104388279D01*
X165617950Y-104388232D01*
X165611473Y-104327991D01*
X165618943Y-104302548D01*
X165620098Y-104299756D01*
X165620102Y-104299752D01*
X165627500Y-104262562D01*
X165627500Y-103937446D01*
X165620102Y-103900256D01*
X165620099Y-103900252D01*
X165618943Y-103897460D01*
X165618234Y-103890869D01*
X165617719Y-103888279D01*
X165617950Y-103888232D01*
X165611473Y-103827991D01*
X165618943Y-103802548D01*
X165620098Y-103799756D01*
X165620102Y-103799752D01*
X165627500Y-103762562D01*
X165627500Y-103437446D01*
X165620102Y-103400256D01*
X165620101Y-103400255D01*
X165620101Y-103400252D01*
X165618943Y-103397457D01*
X165618235Y-103390873D01*
X165617719Y-103388279D01*
X165617951Y-103388232D01*
X165611474Y-103327987D01*
X165618944Y-103302550D01*
X165620099Y-103299758D01*
X165620102Y-103299755D01*
X165627500Y-103262565D01*
X165627500Y-102937449D01*
X165620102Y-102900259D01*
X165620100Y-102900256D01*
X165618943Y-102897462D01*
X165618234Y-102890871D01*
X165617719Y-102888282D01*
X165617950Y-102888235D01*
X165611471Y-102827993D01*
X165618944Y-102802545D01*
X165620098Y-102799756D01*
X165620102Y-102799752D01*
X165627500Y-102762562D01*
X165627500Y-102437446D01*
X165620102Y-102400256D01*
X165620099Y-102400252D01*
X165618943Y-102397460D01*
X165618234Y-102390869D01*
X165617719Y-102388279D01*
X165617950Y-102388232D01*
X165611473Y-102327991D01*
X165618943Y-102302548D01*
X165620098Y-102299756D01*
X165620102Y-102299752D01*
X165627500Y-102262562D01*
X165627500Y-101937446D01*
X165620102Y-101900256D01*
X165620099Y-101900252D01*
X165618943Y-101897460D01*
X165618234Y-101890869D01*
X165617719Y-101888279D01*
X165617950Y-101888232D01*
X165611473Y-101827991D01*
X165618943Y-101802548D01*
X165620098Y-101799756D01*
X165620102Y-101799752D01*
X165627500Y-101762562D01*
X165627500Y-101437446D01*
X165620102Y-101400256D01*
X165620099Y-101400252D01*
X165618943Y-101397460D01*
X165618234Y-101390869D01*
X165617719Y-101388279D01*
X165617950Y-101388232D01*
X165611473Y-101327991D01*
X165618943Y-101302548D01*
X165620098Y-101299756D01*
X165620102Y-101299752D01*
X165627500Y-101262562D01*
X165627500Y-100937446D01*
X165620102Y-100900256D01*
X165620099Y-100900252D01*
X165618943Y-100897460D01*
X165618234Y-100890869D01*
X165617719Y-100888279D01*
X165617950Y-100888232D01*
X165611473Y-100827991D01*
X165618943Y-100802548D01*
X165620098Y-100799756D01*
X165620102Y-100799752D01*
X165627500Y-100762562D01*
X165627500Y-100437446D01*
X165620102Y-100400256D01*
X165620099Y-100400252D01*
X165618943Y-100397460D01*
X165618234Y-100390869D01*
X165617719Y-100388279D01*
X165617950Y-100388232D01*
X165611473Y-100327991D01*
X165618943Y-100302548D01*
X165620098Y-100299756D01*
X165620102Y-100299752D01*
X165627500Y-100262562D01*
X165627500Y-99937446D01*
X165620102Y-99900256D01*
X165620099Y-99900252D01*
X165618943Y-99897460D01*
X165618234Y-99890869D01*
X165617719Y-99888279D01*
X165617950Y-99888232D01*
X165611473Y-99827991D01*
X165618943Y-99802548D01*
X165620098Y-99799756D01*
X165620102Y-99799752D01*
X165627500Y-99762562D01*
X165627500Y-99437446D01*
X165620102Y-99400256D01*
X165620099Y-99400252D01*
X165618943Y-99397460D01*
X165618234Y-99390869D01*
X165617719Y-99388279D01*
X165617950Y-99388232D01*
X165611473Y-99327991D01*
X165618943Y-99302548D01*
X165620098Y-99299756D01*
X165620102Y-99299752D01*
X165627500Y-99262562D01*
X165627500Y-98937446D01*
X165620102Y-98900256D01*
X165620099Y-98900252D01*
X165618943Y-98897460D01*
X165618234Y-98890869D01*
X165617719Y-98888279D01*
X165617950Y-98888232D01*
X165611473Y-98827991D01*
X165618943Y-98802548D01*
X165620098Y-98799756D01*
X165620102Y-98799752D01*
X165627500Y-98762562D01*
X165627500Y-98437446D01*
X165620102Y-98400256D01*
X165620099Y-98400252D01*
X165618943Y-98397460D01*
X165618234Y-98390869D01*
X165617719Y-98388279D01*
X165617950Y-98388232D01*
X165611473Y-98327991D01*
X165618943Y-98302548D01*
X165620098Y-98299756D01*
X165620102Y-98299752D01*
X165627500Y-98262562D01*
X165627500Y-97937446D01*
X165620102Y-97900256D01*
X165620099Y-97900252D01*
X165618943Y-97897460D01*
X165618234Y-97890869D01*
X165617719Y-97888279D01*
X165617950Y-97888232D01*
X165611473Y-97827991D01*
X165618943Y-97802548D01*
X165620098Y-97799756D01*
X165620102Y-97799752D01*
X165627500Y-97762562D01*
X165627500Y-97437446D01*
X165620102Y-97400256D01*
X165620099Y-97400252D01*
X165618943Y-97397460D01*
X165618234Y-97390869D01*
X165617719Y-97388279D01*
X165617950Y-97388232D01*
X165611473Y-97327991D01*
X165618943Y-97302548D01*
X165620098Y-97299756D01*
X165620102Y-97299752D01*
X165627500Y-97262562D01*
X165627500Y-96937446D01*
X165620102Y-96900256D01*
X165620099Y-96900252D01*
X165618943Y-96897460D01*
X165618234Y-96890869D01*
X165617719Y-96888279D01*
X165617950Y-96888232D01*
X165611473Y-96827991D01*
X165618943Y-96802548D01*
X165620098Y-96799756D01*
X165620102Y-96799752D01*
X165627500Y-96762562D01*
X165627500Y-96437446D01*
X165620102Y-96400256D01*
X165620099Y-96400252D01*
X165618943Y-96397460D01*
X165618234Y-96390869D01*
X165617719Y-96388279D01*
X165617950Y-96388232D01*
X165611473Y-96327991D01*
X165618943Y-96302548D01*
X165620098Y-96299756D01*
X165620102Y-96299752D01*
X165627500Y-96262562D01*
X165627500Y-95937446D01*
X165620102Y-95900256D01*
X165620099Y-95900252D01*
X165618943Y-95897460D01*
X165618234Y-95890869D01*
X165617719Y-95888279D01*
X165617950Y-95888232D01*
X165611473Y-95827991D01*
X165618943Y-95802548D01*
X165620098Y-95799756D01*
X165620102Y-95799752D01*
X165627500Y-95762562D01*
X165627500Y-95437446D01*
X165620102Y-95400256D01*
X165620099Y-95400252D01*
X165618943Y-95397460D01*
X165618234Y-95390869D01*
X165617719Y-95388279D01*
X165617950Y-95388232D01*
X165611473Y-95327991D01*
X165618943Y-95302548D01*
X165620098Y-95299756D01*
X165620102Y-95299752D01*
X165627500Y-95262562D01*
X165627500Y-94937446D01*
X165620102Y-94900256D01*
X165620099Y-94900252D01*
X165618943Y-94897460D01*
X165618234Y-94890869D01*
X165617719Y-94888279D01*
X165617950Y-94888232D01*
X165611473Y-94827991D01*
X165618943Y-94802548D01*
X165620098Y-94799756D01*
X165620102Y-94799752D01*
X165627500Y-94762562D01*
X165627500Y-94437446D01*
X165620102Y-94400256D01*
X165620101Y-94400255D01*
X165620101Y-94400252D01*
X165618943Y-94397457D01*
X165618235Y-94390873D01*
X165617719Y-94388279D01*
X165617951Y-94388232D01*
X165611474Y-94327987D01*
X165618944Y-94302550D01*
X165620099Y-94299758D01*
X165620102Y-94299755D01*
X165627500Y-94262565D01*
X165627500Y-93937449D01*
X165620102Y-93900259D01*
X165620100Y-93900256D01*
X165618943Y-93897462D01*
X165618234Y-93890871D01*
X165617719Y-93888282D01*
X165617950Y-93888235D01*
X165611471Y-93827993D01*
X165618944Y-93802545D01*
X165620098Y-93799756D01*
X165620102Y-93799752D01*
X165627500Y-93762562D01*
X165627500Y-93437446D01*
X165620102Y-93400256D01*
X165620099Y-93400252D01*
X165618943Y-93397460D01*
X165618234Y-93390869D01*
X165617719Y-93388279D01*
X165617950Y-93388232D01*
X165611473Y-93327991D01*
X165618943Y-93302548D01*
X165620098Y-93299756D01*
X165620102Y-93299752D01*
X165627500Y-93262562D01*
X165627500Y-92937446D01*
X165620102Y-92900256D01*
X165620099Y-92900252D01*
X165618943Y-92897460D01*
X165618234Y-92890869D01*
X165617719Y-92888279D01*
X165617950Y-92888232D01*
X165611473Y-92827991D01*
X165618943Y-92802548D01*
X165620098Y-92799756D01*
X165620102Y-92799752D01*
X165627500Y-92762562D01*
X165627500Y-92437446D01*
X165620102Y-92400256D01*
X165620099Y-92400252D01*
X165618943Y-92397460D01*
X165618234Y-92390869D01*
X165617719Y-92388279D01*
X165617950Y-92388232D01*
X165611473Y-92327991D01*
X165618943Y-92302548D01*
X165620098Y-92299756D01*
X165620102Y-92299752D01*
X165627500Y-92262562D01*
X165627500Y-91937446D01*
X165620102Y-91900256D01*
X165620101Y-91900255D01*
X165620101Y-91900252D01*
X165618943Y-91897457D01*
X165618235Y-91890873D01*
X165617719Y-91888279D01*
X165617951Y-91888232D01*
X165611474Y-91827987D01*
X165618944Y-91802550D01*
X165620099Y-91799758D01*
X165620102Y-91799755D01*
X165627500Y-91762565D01*
X165627500Y-91437449D01*
X165620102Y-91400259D01*
X165620100Y-91400256D01*
X165618943Y-91397462D01*
X165618234Y-91390871D01*
X165617719Y-91388282D01*
X165617950Y-91388235D01*
X165611471Y-91327993D01*
X165618944Y-91302545D01*
X165620098Y-91299756D01*
X165620102Y-91299752D01*
X165627500Y-91262562D01*
X165627500Y-90937446D01*
X165620102Y-90900256D01*
X165620099Y-90900252D01*
X165618943Y-90897460D01*
X165618234Y-90890869D01*
X165617719Y-90888279D01*
X165617950Y-90888232D01*
X165611473Y-90827991D01*
X165618943Y-90802548D01*
X165620098Y-90799756D01*
X165620102Y-90799752D01*
X165627500Y-90762562D01*
X165627500Y-90437446D01*
X165620102Y-90400256D01*
X165620099Y-90400252D01*
X165618943Y-90397460D01*
X165618234Y-90390869D01*
X165617719Y-90388279D01*
X165617950Y-90388232D01*
X165611473Y-90327991D01*
X165618943Y-90302548D01*
X165620098Y-90299756D01*
X165620102Y-90299752D01*
X165627500Y-90262562D01*
X165627500Y-89937446D01*
X165627100Y-89935437D01*
X165620102Y-89900258D01*
X165620102Y-89900256D01*
X165620099Y-89900252D01*
X165618943Y-89897460D01*
X165618234Y-89890869D01*
X165617719Y-89888279D01*
X165617950Y-89888232D01*
X165611473Y-89827991D01*
X165618943Y-89802548D01*
X165620098Y-89799756D01*
X165620102Y-89799752D01*
X165627500Y-89762562D01*
X165627500Y-89437446D01*
X165620102Y-89400256D01*
X165620101Y-89400255D01*
X165620101Y-89400252D01*
X165618943Y-89397457D01*
X165618235Y-89390873D01*
X165617719Y-89388279D01*
X165617951Y-89388232D01*
X165611474Y-89327987D01*
X165618944Y-89302550D01*
X165620099Y-89299758D01*
X165620102Y-89299755D01*
X165627500Y-89262565D01*
X165627500Y-88937449D01*
X165620102Y-88900259D01*
X165620100Y-88900256D01*
X165618943Y-88897462D01*
X165618234Y-88890871D01*
X165617719Y-88888282D01*
X165617950Y-88888235D01*
X165611471Y-88827993D01*
X165618944Y-88802545D01*
X165620098Y-88799756D01*
X165620102Y-88799752D01*
X165627500Y-88762562D01*
X165627500Y-88437446D01*
X165620102Y-88400256D01*
X165620099Y-88400252D01*
X165618943Y-88397460D01*
X165618234Y-88390869D01*
X165617719Y-88388279D01*
X165617950Y-88388232D01*
X165611473Y-88327991D01*
X165618943Y-88302548D01*
X165620098Y-88299756D01*
X165620102Y-88299752D01*
X165627500Y-88262562D01*
X165627500Y-87937446D01*
X165620102Y-87900256D01*
X165620099Y-87900252D01*
X165618943Y-87897460D01*
X165618234Y-87890869D01*
X165617719Y-87888279D01*
X165617950Y-87888232D01*
X165611473Y-87827991D01*
X165618943Y-87802548D01*
X165620098Y-87799756D01*
X165620102Y-87799752D01*
X165627500Y-87762562D01*
X165627500Y-87437446D01*
X165620102Y-87400256D01*
X165620099Y-87400252D01*
X165618943Y-87397460D01*
X165618234Y-87390869D01*
X165617719Y-87388279D01*
X165617950Y-87388232D01*
X165611473Y-87327991D01*
X165618943Y-87302548D01*
X165620098Y-87299756D01*
X165620102Y-87299752D01*
X165627500Y-87262562D01*
X165627500Y-86937446D01*
X165620102Y-86900256D01*
X165620101Y-86900255D01*
X165620101Y-86900252D01*
X165618943Y-86897457D01*
X165618235Y-86890873D01*
X165617719Y-86888279D01*
X165617951Y-86888232D01*
X165611474Y-86827987D01*
X165618944Y-86802550D01*
X165620099Y-86799758D01*
X165620102Y-86799755D01*
X165627500Y-86762565D01*
X165627500Y-86437449D01*
X165620102Y-86400259D01*
X165620100Y-86400256D01*
X165618943Y-86397462D01*
X165618234Y-86390871D01*
X165617719Y-86388282D01*
X165617950Y-86388235D01*
X165611471Y-86327993D01*
X165618944Y-86302545D01*
X165620098Y-86299756D01*
X165620102Y-86299752D01*
X165627500Y-86262562D01*
X165627500Y-85937446D01*
X165620102Y-85900256D01*
X165614573Y-85891981D01*
X165591922Y-85858081D01*
X165549749Y-85829902D01*
X165512559Y-85822504D01*
X165512558Y-85822504D01*
X164287442Y-85822504D01*
X164287441Y-85822504D01*
X164250250Y-85829902D01*
X164208077Y-85858081D01*
X164179898Y-85900254D01*
X164172500Y-85937445D01*
X164172500Y-86262562D01*
X164179898Y-86299752D01*
X164181058Y-86302552D01*
X164181766Y-86309143D01*
X164182281Y-86311729D01*
X164182049Y-86311775D01*
X164188527Y-86372021D01*
X164181059Y-86397455D01*
X164179898Y-86400255D01*
X164172500Y-86437448D01*
X164172500Y-86437449D01*
X164172500Y-86762565D01*
X164179854Y-86799536D01*
X164179899Y-86799758D01*
X164181058Y-86802557D01*
X164181765Y-86809141D01*
X164182281Y-86811732D01*
X164182049Y-86811778D01*
X164188524Y-86872027D01*
X164181059Y-86897450D01*
X164179899Y-86900249D01*
X164172500Y-86937445D01*
X164172500Y-87262562D01*
X164179898Y-87299753D01*
X164181059Y-87302555D01*
X164181767Y-87309148D01*
X164182281Y-87311729D01*
X164182049Y-87311774D01*
X164188525Y-87372025D01*
X164181059Y-87397453D01*
X164179898Y-87400254D01*
X164172500Y-87437445D01*
X164172500Y-87762562D01*
X164179898Y-87799753D01*
X164181059Y-87802555D01*
X164181767Y-87809148D01*
X164182281Y-87811729D01*
X164182049Y-87811774D01*
X164188525Y-87872025D01*
X164181059Y-87897453D01*
X164179898Y-87900254D01*
X164172500Y-87937445D01*
X164172500Y-88262562D01*
X164179898Y-88299753D01*
X164180439Y-88301058D01*
X164180769Y-88304128D01*
X164182281Y-88311729D01*
X164181600Y-88311864D01*
X164187905Y-88370527D01*
X164156628Y-88433006D01*
X164096538Y-88468656D01*
X164065876Y-88472507D01*
X161555960Y-88472507D01*
X161540311Y-88470779D01*
X161540285Y-88471061D01*
X161532517Y-88470326D01*
X161465074Y-88472446D01*
X161461180Y-88472507D01*
X161433516Y-88472507D01*
X161429507Y-88473013D01*
X161417877Y-88473928D01*
X161374049Y-88475305D01*
X161354706Y-88480925D01*
X161335662Y-88484869D01*
X161332702Y-88485242D01*
X161315700Y-88487391D01*
X161315696Y-88487392D01*
X161315693Y-88487393D01*
X161274943Y-88503526D01*
X161263899Y-88507307D01*
X161221802Y-88519538D01*
X161221799Y-88519540D01*
X161204473Y-88529786D01*
X161187003Y-88538344D01*
X161168291Y-88545752D01*
X161132819Y-88571523D01*
X161123059Y-88577934D01*
X161085339Y-88600241D01*
X161071099Y-88614481D01*
X161056313Y-88627109D01*
X161040026Y-88638943D01*
X161012083Y-88672719D01*
X161004222Y-88681357D01*
X160287953Y-89397626D01*
X160275669Y-89407469D01*
X160275849Y-89407687D01*
X160269837Y-89412660D01*
X160223646Y-89461847D01*
X160220941Y-89464638D01*
X160201379Y-89484200D01*
X160201375Y-89484205D01*
X160198895Y-89487403D01*
X160191317Y-89496274D01*
X160161308Y-89528230D01*
X160161305Y-89528234D01*
X160151606Y-89545877D01*
X160140928Y-89562133D01*
X160128594Y-89578034D01*
X160128589Y-89578042D01*
X160111185Y-89618262D01*
X160106046Y-89628752D01*
X160084927Y-89667167D01*
X160079920Y-89686668D01*
X160073621Y-89705064D01*
X160066893Y-89720612D01*
X160065625Y-89723544D01*
X160065624Y-89723546D01*
X160058769Y-89766831D01*
X160056401Y-89778267D01*
X160045500Y-89820723D01*
X160045500Y-89840858D01*
X160043973Y-89860257D01*
X160040825Y-89880131D01*
X160044950Y-89923767D01*
X160045500Y-89935437D01*
X160045500Y-95512077D01*
X160025815Y-95579116D01*
X159994385Y-95612395D01*
X159974129Y-95627111D01*
X159847466Y-95767785D01*
X159752821Y-95931715D01*
X159752818Y-95931722D01*
X159706951Y-96072888D01*
X159694326Y-96111744D01*
X159674540Y-96300000D01*
X159694326Y-96488256D01*
X159694327Y-96488259D01*
X159752818Y-96668277D01*
X159752821Y-96668284D01*
X159847467Y-96832216D01*
X159942216Y-96937445D01*
X159974129Y-96972888D01*
X160127265Y-97084148D01*
X160127270Y-97084151D01*
X160300192Y-97161142D01*
X160300197Y-97161144D01*
X160485354Y-97200500D01*
X160485355Y-97200500D01*
X160674644Y-97200500D01*
X160674646Y-97200500D01*
X160859803Y-97161144D01*
X161032730Y-97084151D01*
X161185871Y-96972888D01*
X161312533Y-96832216D01*
X161407179Y-96668284D01*
X161465674Y-96488256D01*
X161485460Y-96300000D01*
X161465674Y-96111744D01*
X161409041Y-95937446D01*
X161407181Y-95931722D01*
X161407180Y-95931721D01*
X161407179Y-95931716D01*
X161355339Y-95841926D01*
X161317113Y-95775716D01*
X161300500Y-95713716D01*
X161300500Y-90211281D01*
X161320185Y-90144242D01*
X161336819Y-90123600D01*
X161696593Y-89763826D01*
X161757916Y-89730341D01*
X161784274Y-89727507D01*
X164065874Y-89727507D01*
X164132913Y-89747192D01*
X164178668Y-89799996D01*
X164188612Y-89869154D01*
X164180435Y-89898960D01*
X164179898Y-89900255D01*
X164172500Y-89937445D01*
X164172500Y-90262562D01*
X164179898Y-90299753D01*
X164181059Y-90302555D01*
X164181767Y-90309148D01*
X164182281Y-90311729D01*
X164182049Y-90311774D01*
X164188525Y-90372025D01*
X164181059Y-90397453D01*
X164179898Y-90400254D01*
X164172500Y-90437445D01*
X164172500Y-90762562D01*
X164179898Y-90799753D01*
X164181059Y-90802555D01*
X164181767Y-90809148D01*
X164182281Y-90811729D01*
X164182049Y-90811774D01*
X164188525Y-90872025D01*
X164181059Y-90897453D01*
X164179898Y-90900254D01*
X164172500Y-90937445D01*
X164172500Y-91262562D01*
X164179898Y-91299752D01*
X164181058Y-91302552D01*
X164181766Y-91309143D01*
X164182281Y-91311729D01*
X164182049Y-91311775D01*
X164188527Y-91372021D01*
X164181059Y-91397455D01*
X164179898Y-91400255D01*
X164172500Y-91437448D01*
X164172500Y-91762565D01*
X164179899Y-91799758D01*
X164181058Y-91802557D01*
X164181765Y-91809141D01*
X164182281Y-91811732D01*
X164182049Y-91811778D01*
X164188524Y-91872027D01*
X164181059Y-91897450D01*
X164179899Y-91900249D01*
X164172500Y-91937445D01*
X164172500Y-92262562D01*
X164179898Y-92299753D01*
X164181059Y-92302555D01*
X164181767Y-92309148D01*
X164182281Y-92311729D01*
X164182049Y-92311774D01*
X164188525Y-92372025D01*
X164181059Y-92397453D01*
X164179898Y-92400254D01*
X164172500Y-92437445D01*
X164172500Y-92762562D01*
X164179898Y-92799753D01*
X164181059Y-92802555D01*
X164181767Y-92809148D01*
X164182281Y-92811729D01*
X164182049Y-92811774D01*
X164188525Y-92872025D01*
X164181059Y-92897453D01*
X164179898Y-92900254D01*
X164172500Y-92937445D01*
X164172500Y-93262562D01*
X164179898Y-93299753D01*
X164181059Y-93302555D01*
X164181767Y-93309148D01*
X164182281Y-93311729D01*
X164182049Y-93311774D01*
X164188525Y-93372025D01*
X164181059Y-93397453D01*
X164179898Y-93400254D01*
X164172500Y-93437445D01*
X164172500Y-93762562D01*
X164179898Y-93799752D01*
X164180437Y-93801053D01*
X164180765Y-93804113D01*
X164182281Y-93811729D01*
X164181599Y-93811864D01*
X164187904Y-93870522D01*
X164156629Y-93933001D01*
X164096539Y-93968653D01*
X164065875Y-93972504D01*
X163782963Y-93972504D01*
X163767315Y-93970776D01*
X163767289Y-93971058D01*
X163759521Y-93970323D01*
X163692091Y-93972443D01*
X163688196Y-93972504D01*
X163660515Y-93972504D01*
X163656497Y-93973011D01*
X163644870Y-93973926D01*
X163601054Y-93975303D01*
X163601050Y-93975304D01*
X163581718Y-93980920D01*
X163562678Y-93984863D01*
X163542708Y-93987386D01*
X163542704Y-93987387D01*
X163501949Y-94003523D01*
X163490901Y-94007305D01*
X163448808Y-94019534D01*
X163448801Y-94019537D01*
X163431476Y-94029783D01*
X163414006Y-94038341D01*
X163395294Y-94045749D01*
X163359822Y-94071520D01*
X163350062Y-94077931D01*
X163312342Y-94100238D01*
X163298102Y-94114478D01*
X163283316Y-94127106D01*
X163267029Y-94138940D01*
X163239086Y-94172716D01*
X163231225Y-94181354D01*
X162949398Y-94463182D01*
X162888078Y-94496666D01*
X162861719Y-94499500D01*
X162805354Y-94499500D01*
X162772897Y-94506398D01*
X162620197Y-94538855D01*
X162620192Y-94538857D01*
X162447270Y-94615848D01*
X162447265Y-94615851D01*
X162294129Y-94727111D01*
X162167466Y-94867785D01*
X162072821Y-95031715D01*
X162072818Y-95031722D01*
X162014327Y-95211740D01*
X162014326Y-95211744D01*
X161994540Y-95400000D01*
X162014326Y-95588256D01*
X162014327Y-95588259D01*
X162072818Y-95768277D01*
X162072821Y-95768284D01*
X162167467Y-95932216D01*
X162294129Y-96072888D01*
X162447265Y-96184148D01*
X162447270Y-96184151D01*
X162620192Y-96261142D01*
X162620197Y-96261144D01*
X162805354Y-96300500D01*
X162805355Y-96300500D01*
X162994644Y-96300500D01*
X162994646Y-96300500D01*
X163179803Y-96261144D01*
X163352730Y-96184151D01*
X163505871Y-96072888D01*
X163632533Y-95932216D01*
X163727179Y-95768284D01*
X163785674Y-95588256D01*
X163802989Y-95423506D01*
X163829572Y-95358895D01*
X163838629Y-95348789D01*
X163923598Y-95263822D01*
X163984921Y-95230337D01*
X164011278Y-95227504D01*
X164065875Y-95227504D01*
X164132914Y-95247189D01*
X164178669Y-95299993D01*
X164188613Y-95369151D01*
X164180437Y-95398955D01*
X164179898Y-95400255D01*
X164172500Y-95437445D01*
X164172500Y-95762562D01*
X164179898Y-95799753D01*
X164181059Y-95802555D01*
X164181767Y-95809148D01*
X164182281Y-95811729D01*
X164182049Y-95811774D01*
X164188525Y-95872025D01*
X164181059Y-95897453D01*
X164179898Y-95900254D01*
X164172500Y-95937445D01*
X164172500Y-96262562D01*
X164179898Y-96299753D01*
X164181059Y-96302555D01*
X164181767Y-96309148D01*
X164182281Y-96311729D01*
X164182049Y-96311774D01*
X164188525Y-96372025D01*
X164181059Y-96397453D01*
X164179898Y-96400254D01*
X164172500Y-96437445D01*
X164172500Y-96762562D01*
X164179898Y-96799753D01*
X164181059Y-96802555D01*
X164181767Y-96809148D01*
X164182281Y-96811729D01*
X164182049Y-96811774D01*
X164188525Y-96872025D01*
X164181059Y-96897453D01*
X164179898Y-96900254D01*
X164172500Y-96937445D01*
X164172500Y-97262562D01*
X164179898Y-97299753D01*
X164181059Y-97302555D01*
X164181767Y-97309148D01*
X164182281Y-97311729D01*
X164182049Y-97311774D01*
X164188525Y-97372025D01*
X164181059Y-97397453D01*
X164179898Y-97400254D01*
X164172500Y-97437445D01*
X164172500Y-97762562D01*
X164179898Y-97799753D01*
X164181059Y-97802555D01*
X164181767Y-97809148D01*
X164182281Y-97811729D01*
X164182049Y-97811774D01*
X164188525Y-97872025D01*
X164181059Y-97897453D01*
X164179898Y-97900254D01*
X164172500Y-97937445D01*
X164172500Y-98262562D01*
X164179898Y-98299753D01*
X164181059Y-98302555D01*
X164181767Y-98309148D01*
X164182281Y-98311729D01*
X164182049Y-98311774D01*
X164188525Y-98372025D01*
X164181059Y-98397453D01*
X164179898Y-98400254D01*
X164172500Y-98437445D01*
X164172500Y-98762562D01*
X164179898Y-98799753D01*
X164181059Y-98802555D01*
X164181767Y-98809148D01*
X164182281Y-98811729D01*
X164182049Y-98811774D01*
X164188525Y-98872025D01*
X164181059Y-98897453D01*
X164179898Y-98900254D01*
X164172500Y-98937445D01*
X164172500Y-99262562D01*
X164179898Y-99299753D01*
X164181059Y-99302555D01*
X164181767Y-99309148D01*
X164182281Y-99311729D01*
X164182049Y-99311774D01*
X164188525Y-99372025D01*
X164181059Y-99397453D01*
X164179898Y-99400254D01*
X164172500Y-99437445D01*
X164172500Y-99762562D01*
X164179898Y-99799753D01*
X164181059Y-99802555D01*
X164181767Y-99809148D01*
X164182281Y-99811729D01*
X164182049Y-99811774D01*
X164188525Y-99872025D01*
X164181059Y-99897453D01*
X164179898Y-99900254D01*
X164172500Y-99937445D01*
X164172500Y-100262562D01*
X164179898Y-100299753D01*
X164181059Y-100302555D01*
X164181767Y-100309148D01*
X164182281Y-100311729D01*
X164182049Y-100311774D01*
X164188525Y-100372025D01*
X164181059Y-100397453D01*
X164179898Y-100400254D01*
X164172500Y-100437445D01*
X164172500Y-100762562D01*
X164179898Y-100799753D01*
X164181059Y-100802555D01*
X164181767Y-100809148D01*
X164182281Y-100811729D01*
X164182049Y-100811774D01*
X164188525Y-100872025D01*
X164181059Y-100897453D01*
X164179898Y-100900254D01*
X164172500Y-100937445D01*
X164172500Y-101262562D01*
X164179898Y-101299753D01*
X164181059Y-101302555D01*
X164181767Y-101309148D01*
X164182281Y-101311729D01*
X164182049Y-101311774D01*
X164188525Y-101372025D01*
X164181059Y-101397453D01*
X164179898Y-101400254D01*
X164172500Y-101437445D01*
X164172500Y-101762562D01*
X164179898Y-101799753D01*
X164181059Y-101802555D01*
X164181767Y-101809148D01*
X164182281Y-101811729D01*
X164182049Y-101811774D01*
X164188525Y-101872025D01*
X164181059Y-101897453D01*
X164179898Y-101900254D01*
X164172500Y-101937445D01*
X164172500Y-102262562D01*
X164179898Y-102299753D01*
X164181059Y-102302555D01*
X164181767Y-102309148D01*
X164182281Y-102311729D01*
X164182049Y-102311774D01*
X164188525Y-102372025D01*
X164181059Y-102397453D01*
X164179898Y-102400254D01*
X164172500Y-102437445D01*
X164172500Y-102762562D01*
X164179898Y-102799752D01*
X164181058Y-102802552D01*
X164181766Y-102809143D01*
X164182281Y-102811729D01*
X164182049Y-102811775D01*
X164188527Y-102872021D01*
X164181059Y-102897455D01*
X164179898Y-102900255D01*
X164173879Y-102930516D01*
X164172500Y-102937449D01*
X164172500Y-103262565D01*
X164176794Y-103284153D01*
X164179899Y-103299758D01*
X164181058Y-103302557D01*
X164181765Y-103309141D01*
X164182281Y-103311732D01*
X164182049Y-103311778D01*
X164188524Y-103372027D01*
X164181059Y-103397450D01*
X164179899Y-103400249D01*
X164172500Y-103437445D01*
X164172500Y-103762562D01*
X164179898Y-103799753D01*
X164181059Y-103802555D01*
X164181767Y-103809148D01*
X164182281Y-103811729D01*
X164182049Y-103811774D01*
X164188525Y-103872025D01*
X164181059Y-103897453D01*
X164179898Y-103900254D01*
X164172500Y-103937445D01*
X164172500Y-104262562D01*
X164179898Y-104299753D01*
X164181059Y-104302555D01*
X164181767Y-104309148D01*
X164182281Y-104311729D01*
X164182049Y-104311774D01*
X164188525Y-104372025D01*
X164181059Y-104397453D01*
X164179898Y-104400254D01*
X164172500Y-104437445D01*
X164172500Y-104762562D01*
X164179898Y-104799753D01*
X164181059Y-104802555D01*
X164181767Y-104809148D01*
X164182281Y-104811729D01*
X164182049Y-104811774D01*
X164188525Y-104872025D01*
X164181059Y-104897453D01*
X164179898Y-104900254D01*
X164172500Y-104937445D01*
X164172500Y-105262562D01*
X164179898Y-105299752D01*
X164181058Y-105302552D01*
X164181766Y-105309143D01*
X164182281Y-105311729D01*
X164182049Y-105311775D01*
X164188527Y-105372021D01*
X164181059Y-105397455D01*
X164179898Y-105400255D01*
X164172500Y-105437448D01*
X164172500Y-105762565D01*
X164179899Y-105799758D01*
X164181058Y-105802557D01*
X164181765Y-105809141D01*
X164182281Y-105811732D01*
X164182049Y-105811778D01*
X164188524Y-105872027D01*
X164181059Y-105897450D01*
X164179899Y-105900249D01*
X164172500Y-105937445D01*
X164172500Y-106262562D01*
X164179898Y-106299753D01*
X164181059Y-106302555D01*
X164181767Y-106309148D01*
X164182281Y-106311729D01*
X164182049Y-106311774D01*
X164188525Y-106372025D01*
X164181059Y-106397453D01*
X164179898Y-106400254D01*
X164172500Y-106437445D01*
X164172500Y-106762562D01*
X164179898Y-106799752D01*
X164180437Y-106801053D01*
X164180765Y-106804113D01*
X164182281Y-106811729D01*
X164181599Y-106811864D01*
X164187904Y-106870522D01*
X164156629Y-106933001D01*
X164096539Y-106968653D01*
X164065875Y-106972504D01*
X151711285Y-106972504D01*
X151644246Y-106952819D01*
X151623604Y-106936185D01*
X150863819Y-106176400D01*
X150830334Y-106115077D01*
X150827500Y-106088719D01*
X150827500Y-88611281D01*
X150847185Y-88544242D01*
X150863811Y-88523607D01*
X150873137Y-88514281D01*
X150934455Y-88480795D01*
X151004147Y-88485776D01*
X151033705Y-88501642D01*
X151147265Y-88584148D01*
X151147270Y-88584151D01*
X151320192Y-88661142D01*
X151320197Y-88661144D01*
X151505354Y-88700500D01*
X151505355Y-88700500D01*
X151694644Y-88700500D01*
X151694646Y-88700500D01*
X151879803Y-88661144D01*
X152052730Y-88584151D01*
X152205871Y-88472888D01*
X152332533Y-88332216D01*
X152427179Y-88168284D01*
X152485674Y-87988256D01*
X152505460Y-87800000D01*
X152485674Y-87611744D01*
X152429041Y-87437446D01*
X152427181Y-87431722D01*
X152427180Y-87431721D01*
X152427179Y-87431716D01*
X152369589Y-87331967D01*
X152332534Y-87267785D01*
X152332529Y-87267778D01*
X152307350Y-87239814D01*
X152277120Y-87176822D01*
X152275500Y-87156842D01*
X152275500Y-86999499D01*
X152295185Y-86932460D01*
X152347989Y-86886705D01*
X152399500Y-86875499D01*
X152424363Y-86875499D01*
X152541753Y-86860046D01*
X152541757Y-86860044D01*
X152541762Y-86860044D01*
X152687841Y-86799536D01*
X152813282Y-86703282D01*
X152909536Y-86577841D01*
X152941102Y-86501633D01*
X152984943Y-86447230D01*
X153051237Y-86425165D01*
X153072866Y-86427507D01*
X153072991Y-86426522D01*
X153080725Y-86427499D01*
X153080728Y-86427500D01*
X153100858Y-86427500D01*
X153120257Y-86429027D01*
X153140133Y-86432175D01*
X153179928Y-86428413D01*
X153183770Y-86428050D01*
X153195439Y-86427500D01*
X153247404Y-86427500D01*
X153314443Y-86447185D01*
X153335085Y-86463819D01*
X153362396Y-86491130D01*
X153362400Y-86491133D01*
X153362402Y-86491135D01*
X153500607Y-86572869D01*
X153517721Y-86577841D01*
X153654791Y-86617664D01*
X153654794Y-86617664D01*
X153654796Y-86617665D01*
X153690819Y-86620500D01*
X154089180Y-86620499D01*
X154125204Y-86617665D01*
X154279393Y-86572869D01*
X154336882Y-86538869D01*
X154404602Y-86521688D01*
X154463117Y-86538869D01*
X154520607Y-86572869D01*
X154520610Y-86572869D01*
X154520612Y-86572871D01*
X154674791Y-86617664D01*
X154674794Y-86617664D01*
X154674796Y-86617665D01*
X154710819Y-86620500D01*
X155109180Y-86620499D01*
X155145204Y-86617665D01*
X155299393Y-86572869D01*
X155308018Y-86567767D01*
X155371139Y-86550500D01*
X158736295Y-86550500D01*
X158754265Y-86551809D01*
X158778023Y-86555289D01*
X158827369Y-86550971D01*
X158838176Y-86550500D01*
X158843704Y-86550500D01*
X158843709Y-86550500D01*
X158874556Y-86546893D01*
X158878030Y-86546539D01*
X158952797Y-86539999D01*
X158952805Y-86539996D01*
X158959866Y-86538539D01*
X158959878Y-86538598D01*
X158967243Y-86536965D01*
X158967229Y-86536906D01*
X158974249Y-86535241D01*
X158974255Y-86535241D01*
X159044779Y-86509572D01*
X159048117Y-86508412D01*
X159119334Y-86484814D01*
X159119342Y-86484808D01*
X159125882Y-86481760D01*
X159125908Y-86481816D01*
X159132690Y-86478532D01*
X159132663Y-86478478D01*
X159139113Y-86475238D01*
X159139117Y-86475237D01*
X159201837Y-86433984D01*
X159204732Y-86432140D01*
X159268656Y-86392712D01*
X159268662Y-86392705D01*
X159274325Y-86388229D01*
X159274362Y-86388277D01*
X159280204Y-86383518D01*
X159280164Y-86383471D01*
X159285686Y-86378835D01*
X159285696Y-86378830D01*
X159337186Y-86324252D01*
X159339633Y-86321733D01*
X159873559Y-85787806D01*
X159887178Y-85776036D01*
X159906448Y-85761692D01*
X159938290Y-85723743D01*
X159945589Y-85715776D01*
X159949509Y-85711858D01*
X159968771Y-85687495D01*
X159970994Y-85684768D01*
X159992151Y-85659555D01*
X160019220Y-85627296D01*
X160019222Y-85627291D01*
X160023192Y-85621257D01*
X160023243Y-85621290D01*
X160027287Y-85614942D01*
X160027235Y-85614910D01*
X160031024Y-85608764D01*
X160031029Y-85608759D01*
X160062750Y-85540729D01*
X160064276Y-85537578D01*
X160097958Y-85470515D01*
X160097959Y-85470510D01*
X160100426Y-85463732D01*
X160100484Y-85463753D01*
X160102961Y-85456626D01*
X160102904Y-85456608D01*
X160105174Y-85449758D01*
X160110919Y-85421932D01*
X160120357Y-85376221D01*
X160121105Y-85372844D01*
X160138418Y-85299803D01*
X160138418Y-85299799D01*
X160138419Y-85299795D01*
X160139257Y-85292630D01*
X160139316Y-85292636D01*
X160140082Y-85285136D01*
X160140023Y-85285131D01*
X160140652Y-85277941D01*
X160138470Y-85202951D01*
X160138418Y-85199344D01*
X160138418Y-84674500D01*
X160158103Y-84607461D01*
X160210907Y-84561706D01*
X160262418Y-84550500D01*
X162912279Y-84550500D01*
X163213975Y-84550500D01*
X163281014Y-84570185D01*
X163298857Y-84584107D01*
X163328237Y-84611697D01*
X163328239Y-84611698D01*
X163328240Y-84611699D01*
X163328241Y-84611700D01*
X163345871Y-84621391D01*
X163362139Y-84632076D01*
X163378042Y-84644412D01*
X163418266Y-84661818D01*
X163428758Y-84666958D01*
X163467162Y-84688072D01*
X163467164Y-84688073D01*
X163467170Y-84688076D01*
X163482968Y-84692132D01*
X163486664Y-84693081D01*
X163505068Y-84699381D01*
X163523546Y-84707378D01*
X163566855Y-84714237D01*
X163578262Y-84716599D01*
X163620732Y-84727504D01*
X163640862Y-84727504D01*
X163660261Y-84729031D01*
X163680137Y-84732179D01*
X163719932Y-84728417D01*
X163723774Y-84728054D01*
X163735443Y-84727504D01*
X164828962Y-84727504D01*
X164852198Y-84729701D01*
X164860277Y-84731242D01*
X164860284Y-84731242D01*
X164860286Y-84731243D01*
X164860287Y-84731242D01*
X164860288Y-84731243D01*
X164915822Y-84727749D01*
X164923608Y-84727504D01*
X164939469Y-84727504D01*
X164939476Y-84727504D01*
X164955248Y-84725511D01*
X164962957Y-84724782D01*
X165018516Y-84721288D01*
X165026338Y-84718745D01*
X165049128Y-84713651D01*
X165057293Y-84712620D01*
X165109070Y-84692119D01*
X165116343Y-84689500D01*
X165169300Y-84672295D01*
X165176242Y-84667888D01*
X165197050Y-84657286D01*
X165204703Y-84654257D01*
X165249735Y-84621537D01*
X165256154Y-84617175D01*
X165303162Y-84587344D01*
X165308798Y-84581341D01*
X165326311Y-84565901D01*
X165332967Y-84561067D01*
X165368449Y-84518174D01*
X165373573Y-84512363D01*
X165411693Y-84471771D01*
X165415663Y-84464547D01*
X165428784Y-84445243D01*
X165434025Y-84438908D01*
X165438207Y-84432319D01*
X165440901Y-84434028D01*
X165477474Y-84392755D01*
X165519158Y-84376191D01*
X165549748Y-84370106D01*
X165591922Y-84341926D01*
X165620102Y-84299752D01*
X165627500Y-84262562D01*
X165627500Y-83937446D01*
X165620102Y-83900256D01*
X165620099Y-83900252D01*
X165618943Y-83897460D01*
X165618234Y-83890869D01*
X165617719Y-83888279D01*
X165617950Y-83888232D01*
X165611473Y-83827991D01*
X165618943Y-83802548D01*
X165620098Y-83799756D01*
X165620102Y-83799752D01*
X165627500Y-83762562D01*
X165627500Y-83437446D01*
X165620102Y-83400256D01*
X165607014Y-83380668D01*
X165591922Y-83358081D01*
X165549749Y-83329902D01*
X165515103Y-83323010D01*
X165453192Y-83290623D01*
X165438980Y-83274280D01*
X165421536Y-83250271D01*
X165417169Y-83243846D01*
X165387340Y-83196842D01*
X165381341Y-83191208D01*
X165365901Y-83173697D01*
X165361063Y-83167037D01*
X165318190Y-83131569D01*
X165312348Y-83126419D01*
X165271768Y-83088312D01*
X165271767Y-83088311D01*
X165264544Y-83084340D01*
X165245247Y-83071225D01*
X165238906Y-83065980D01*
X165238903Y-83065978D01*
X165222839Y-83058419D01*
X165188549Y-83042283D01*
X165181625Y-83038755D01*
X165132834Y-83011932D01*
X165132831Y-83011931D01*
X165124852Y-83009882D01*
X165102898Y-83001978D01*
X165095448Y-82998472D01*
X165095444Y-82998471D01*
X165040770Y-82988041D01*
X165033169Y-82986342D01*
X164979276Y-82972504D01*
X164979272Y-82972504D01*
X164971038Y-82972504D01*
X164947802Y-82970307D01*
X164939722Y-82968765D01*
X164939711Y-82968764D01*
X164884178Y-82972259D01*
X164876392Y-82972504D01*
X163682963Y-82972504D01*
X163667314Y-82970776D01*
X163667288Y-82971058D01*
X163659520Y-82970323D01*
X163592077Y-82972443D01*
X163588183Y-82972504D01*
X163560519Y-82972504D01*
X163556510Y-82973010D01*
X163544880Y-82973925D01*
X163501052Y-82975302D01*
X163481709Y-82980922D01*
X163462665Y-82984866D01*
X163459705Y-82985239D01*
X163442703Y-82987388D01*
X163442699Y-82987389D01*
X163442696Y-82987390D01*
X163401946Y-83003523D01*
X163390902Y-83007304D01*
X163348805Y-83019535D01*
X163331476Y-83029784D01*
X163314015Y-83038338D01*
X163307821Y-83040790D01*
X163262171Y-83049500D01*
X159750147Y-83049500D01*
X159683108Y-83029815D01*
X159662466Y-83013181D01*
X158014595Y-81365310D01*
X156363647Y-79714361D01*
X156351867Y-79700730D01*
X156337528Y-79681470D01*
X156299569Y-79649619D01*
X156291604Y-79642318D01*
X156287698Y-79638411D01*
X156263361Y-79619168D01*
X156260565Y-79616890D01*
X156203132Y-79568698D01*
X156197098Y-79564729D01*
X156197130Y-79564680D01*
X156190771Y-79560628D01*
X156190740Y-79560679D01*
X156184598Y-79556891D01*
X156184596Y-79556890D01*
X156184595Y-79556889D01*
X156116606Y-79525184D01*
X156113365Y-79523615D01*
X156049624Y-79491604D01*
X156046351Y-79489960D01*
X156046349Y-79489959D01*
X156046348Y-79489959D01*
X156039563Y-79487489D01*
X156039583Y-79487433D01*
X156032467Y-79484959D01*
X156032449Y-79485015D01*
X156025592Y-79482743D01*
X155952128Y-79467573D01*
X155948611Y-79466793D01*
X155875636Y-79449499D01*
X155868465Y-79448661D01*
X155868471Y-79448601D01*
X155860973Y-79447835D01*
X155860968Y-79447895D01*
X155853778Y-79447265D01*
X155778788Y-79449448D01*
X155775181Y-79449500D01*
X148963705Y-79449500D01*
X148945735Y-79448191D01*
X148921972Y-79444710D01*
X148876826Y-79448661D01*
X148872630Y-79449028D01*
X148861824Y-79449500D01*
X148856284Y-79449500D01*
X148825501Y-79453098D01*
X148821916Y-79453464D01*
X148747199Y-79460001D01*
X148740132Y-79461460D01*
X148740120Y-79461404D01*
X148732763Y-79463035D01*
X148732777Y-79463092D01*
X148725740Y-79464760D01*
X148655231Y-79490421D01*
X148651854Y-79491595D01*
X148612848Y-79504521D01*
X148580668Y-79515185D01*
X148574126Y-79518236D01*
X148574101Y-79518183D01*
X148567308Y-79521471D01*
X148567334Y-79521523D01*
X148560880Y-79524764D01*
X148498221Y-79565975D01*
X148495181Y-79567912D01*
X148431348Y-79607285D01*
X148425683Y-79611765D01*
X148425647Y-79611719D01*
X148419798Y-79616484D01*
X148419835Y-79616528D01*
X148414304Y-79621168D01*
X148362816Y-79675741D01*
X148360305Y-79678326D01*
X148064358Y-79974272D01*
X148050729Y-79986051D01*
X148031469Y-80000390D01*
X147999632Y-80038331D01*
X147992346Y-80046284D01*
X147988407Y-80050224D01*
X147969176Y-80074545D01*
X147966902Y-80077337D01*
X147918694Y-80134790D01*
X147914729Y-80140819D01*
X147914682Y-80140788D01*
X147910630Y-80147147D01*
X147910679Y-80147177D01*
X147906889Y-80153321D01*
X147875192Y-80221294D01*
X147873623Y-80224536D01*
X147839957Y-80291572D01*
X147837488Y-80298357D01*
X147837432Y-80298336D01*
X147834960Y-80305450D01*
X147835015Y-80305469D01*
X147832743Y-80312325D01*
X147817573Y-80385788D01*
X147816793Y-80389304D01*
X147799499Y-80462279D01*
X147798661Y-80469454D01*
X147798601Y-80469447D01*
X147797835Y-80476945D01*
X147797895Y-80476951D01*
X147797265Y-80484140D01*
X147799448Y-80559128D01*
X147799500Y-80562735D01*
X147799500Y-80746141D01*
X147779815Y-80813180D01*
X147727011Y-80858935D01*
X147657853Y-80868879D01*
X147612379Y-80852873D01*
X147586393Y-80837505D01*
X147586390Y-80837504D01*
X147430997Y-80792357D01*
X147430991Y-80792356D01*
X147394697Y-80789500D01*
X147394690Y-80789500D01*
X146985310Y-80789500D01*
X146985302Y-80789500D01*
X146949008Y-80792356D01*
X146949002Y-80792357D01*
X146793609Y-80837504D01*
X146793606Y-80837505D01*
X146654315Y-80919881D01*
X146654307Y-80919887D01*
X146539887Y-81034307D01*
X146539881Y-81034315D01*
X146457505Y-81173606D01*
X146457504Y-81173609D01*
X146412357Y-81329002D01*
X146412356Y-81329008D01*
X146409500Y-81365302D01*
X146409500Y-81834697D01*
X146412356Y-81870991D01*
X146412357Y-81870997D01*
X146457504Y-82026390D01*
X146457505Y-82026393D01*
X146539881Y-82165684D01*
X146539887Y-82165692D01*
X146547643Y-82173448D01*
X146581128Y-82234771D01*
X146576144Y-82304463D01*
X146566695Y-82324249D01*
X146537504Y-82373608D01*
X146537504Y-82373609D01*
X146492357Y-82529002D01*
X146492356Y-82529008D01*
X146489500Y-82565302D01*
X146489500Y-83034697D01*
X146492356Y-83070991D01*
X146492357Y-83070997D01*
X146537504Y-83226390D01*
X146537505Y-83226393D01*
X146537506Y-83226395D01*
X146544621Y-83238425D01*
X146621731Y-83368812D01*
X146638914Y-83436536D01*
X146616754Y-83502799D01*
X146562452Y-83546494D01*
X146432160Y-83600463D01*
X146306718Y-83696718D01*
X146210463Y-83822160D01*
X146178115Y-83900256D01*
X146152557Y-83961960D01*
X146151317Y-83964953D01*
X146107476Y-84019356D01*
X146041182Y-84041421D01*
X146036756Y-84041500D01*
X145081964Y-84041500D01*
X145066309Y-84039772D01*
X145066283Y-84040054D01*
X145058519Y-84039319D01*
X145036805Y-84040001D01*
X145023196Y-84039680D01*
X145008207Y-84038501D01*
X145008186Y-84038500D01*
X145008181Y-84038500D01*
X145008170Y-84038500D01*
X144609830Y-84038500D01*
X144609808Y-84038501D01*
X144573794Y-84041335D01*
X144419611Y-84086129D01*
X144419604Y-84086132D01*
X144362119Y-84120128D01*
X144294395Y-84137309D01*
X144235881Y-84120128D01*
X144178395Y-84086132D01*
X144178388Y-84086129D01*
X144024208Y-84041335D01*
X144024202Y-84041334D01*
X143988181Y-84038500D01*
X143589830Y-84038500D01*
X143589808Y-84038501D01*
X143553794Y-84041335D01*
X143399611Y-84086129D01*
X143399606Y-84086131D01*
X143261404Y-84167863D01*
X143261396Y-84167869D01*
X143232470Y-84196796D01*
X143171147Y-84230281D01*
X143148686Y-84233054D01*
X143109058Y-84234299D01*
X143109054Y-84234300D01*
X143089722Y-84239916D01*
X143070682Y-84243859D01*
X143050712Y-84246382D01*
X143050708Y-84246383D01*
X143009953Y-84262519D01*
X142998905Y-84266301D01*
X142956812Y-84278530D01*
X142956805Y-84278533D01*
X142939480Y-84288779D01*
X142922010Y-84297337D01*
X142903298Y-84304745D01*
X142896466Y-84308502D01*
X142895695Y-84307100D01*
X142838458Y-84327518D01*
X142801460Y-84323325D01*
X142801434Y-84323473D01*
X142799258Y-84323075D01*
X142796791Y-84322796D01*
X142795205Y-84322335D01*
X142795202Y-84322334D01*
X142759188Y-84319500D01*
X142759181Y-84319500D01*
X142678281Y-84319500D01*
X142611242Y-84299815D01*
X142590600Y-84283181D01*
X142522376Y-84214957D01*
X142512531Y-84202668D01*
X142512313Y-84202849D01*
X142507340Y-84196838D01*
X142476485Y-84167863D01*
X142458151Y-84150646D01*
X142455354Y-84147935D01*
X142435797Y-84128377D01*
X142432607Y-84125903D01*
X142423716Y-84118310D01*
X142391767Y-84088307D01*
X142391763Y-84088304D01*
X142374122Y-84078606D01*
X142357857Y-84067922D01*
X142341963Y-84055593D01*
X142341962Y-84055592D01*
X142306056Y-84040054D01*
X142301735Y-84038184D01*
X142291247Y-84033045D01*
X142252838Y-84011929D01*
X142252828Y-84011926D01*
X142233334Y-84006920D01*
X142214933Y-84000620D01*
X142196459Y-83992626D01*
X142196452Y-83992624D01*
X142153173Y-83985770D01*
X142141733Y-83983401D01*
X142099279Y-83972500D01*
X142099272Y-83972500D01*
X142079142Y-83972500D01*
X142059743Y-83970973D01*
X142039868Y-83967825D01*
X142039867Y-83967825D01*
X141996230Y-83971950D01*
X141984561Y-83972500D01*
X139829860Y-83972500D01*
X139766739Y-83955232D01*
X139749062Y-83944778D01*
X139670398Y-83898256D01*
X139670397Y-83898255D01*
X139670396Y-83898255D01*
X139670393Y-83898254D01*
X139512573Y-83852402D01*
X139512567Y-83852401D01*
X139475701Y-83849500D01*
X139475694Y-83849500D01*
X138169306Y-83849500D01*
X138169298Y-83849500D01*
X138132432Y-83852401D01*
X138132426Y-83852402D01*
X137974606Y-83898254D01*
X137974605Y-83898254D01*
X137895937Y-83944778D01*
X137828213Y-83961960D01*
X137769697Y-83944778D01*
X137708972Y-83908866D01*
X137656897Y-83878069D01*
X137656895Y-83878068D01*
X137656893Y-83878067D01*
X137656892Y-83878066D01*
X137499679Y-83832391D01*
X137499673Y-83832390D01*
X137462947Y-83829500D01*
X137462940Y-83829500D01*
X137037060Y-83829500D01*
X137037052Y-83829500D01*
X137000326Y-83832390D01*
X137000320Y-83832391D01*
X136843105Y-83878067D01*
X136828117Y-83886931D01*
X136760392Y-83904110D01*
X136701883Y-83886931D01*
X136686894Y-83878067D01*
X136529679Y-83832391D01*
X136529673Y-83832390D01*
X136492947Y-83829500D01*
X136492940Y-83829500D01*
X136067060Y-83829500D01*
X136067052Y-83829500D01*
X136030326Y-83832390D01*
X136030320Y-83832391D01*
X135873107Y-83878066D01*
X135873100Y-83878070D01*
X135739243Y-83957232D01*
X135676123Y-83974500D01*
X135112874Y-83974500D01*
X135045835Y-83954815D01*
X135025193Y-83938181D01*
X134939044Y-83852032D01*
X134939040Y-83852029D01*
X134794705Y-83763001D01*
X134794699Y-83762998D01*
X134794697Y-83762997D01*
X134793384Y-83762562D01*
X134633709Y-83709651D01*
X134534346Y-83699500D01*
X133687662Y-83699500D01*
X133687644Y-83699501D01*
X133588292Y-83709650D01*
X133588289Y-83709651D01*
X133427305Y-83762996D01*
X133427294Y-83763001D01*
X133282959Y-83852029D01*
X133282955Y-83852032D01*
X133163032Y-83971955D01*
X133163029Y-83971959D01*
X133074001Y-84116294D01*
X133073996Y-84116305D01*
X133020651Y-84277290D01*
X133010500Y-84376647D01*
X133010500Y-84376655D01*
X133010500Y-84644413D01*
X133010501Y-84800500D01*
X132990817Y-84867539D01*
X132938013Y-84913294D01*
X132886501Y-84924500D01*
X131546215Y-84924500D01*
X131479176Y-84904815D01*
X131433421Y-84852011D01*
X131423477Y-84782853D01*
X131431257Y-84754984D01*
X131431193Y-84754963D01*
X131431581Y-84753825D01*
X131432086Y-84752017D01*
X131432655Y-84750677D01*
X131438480Y-84733605D01*
X131520118Y-84494305D01*
X131569319Y-84227933D01*
X131579212Y-83957235D01*
X131577841Y-83944778D01*
X131564350Y-83822160D01*
X131549586Y-83687982D01*
X131481072Y-83425912D01*
X131375130Y-83176610D01*
X131234018Y-82945390D01*
X131144747Y-82838119D01*
X131060746Y-82737180D01*
X131060740Y-82737175D01*
X130859002Y-82556418D01*
X130633092Y-82406957D01*
X130561952Y-82373608D01*
X130387824Y-82291980D01*
X130387819Y-82291978D01*
X130387814Y-82291976D01*
X130128442Y-82213942D01*
X130128428Y-82213939D01*
X130012791Y-82196921D01*
X129860439Y-82174500D01*
X129057369Y-82174500D01*
X129057351Y-82174500D01*
X128854844Y-82189323D01*
X128854831Y-82189325D01*
X128590453Y-82248217D01*
X128590446Y-82248220D01*
X128337439Y-82344987D01*
X128260188Y-82388343D01*
X128192092Y-82403988D01*
X128126348Y-82380333D01*
X128083830Y-82324890D01*
X128075500Y-82280209D01*
X128075500Y-81171323D01*
X128095185Y-81104284D01*
X128147989Y-81058529D01*
X128148842Y-81058143D01*
X128202730Y-81034151D01*
X128355871Y-80922888D01*
X128482533Y-80782216D01*
X128577179Y-80618284D01*
X128635674Y-80438256D01*
X128655460Y-80250000D01*
X128635674Y-80061744D01*
X128577179Y-79881716D01*
X128482533Y-79717784D01*
X128355871Y-79577112D01*
X128355870Y-79577111D01*
X128202734Y-79465851D01*
X128202729Y-79465848D01*
X128029807Y-79388857D01*
X128029802Y-79388855D01*
X127884001Y-79357865D01*
X127844646Y-79349500D01*
X127655354Y-79349500D01*
X127622897Y-79356398D01*
X127470197Y-79388855D01*
X127470192Y-79388857D01*
X127297270Y-79465848D01*
X127297265Y-79465851D01*
X127144129Y-79577111D01*
X127017466Y-79717785D01*
X126922821Y-79881715D01*
X126922818Y-79881722D01*
X126890672Y-79980659D01*
X126864326Y-80061744D01*
X126856015Y-80140819D01*
X126844540Y-80250001D01*
X126851638Y-80317544D01*
X126844245Y-80365889D01*
X126846738Y-80366614D01*
X126844561Y-80374104D01*
X126837728Y-80417243D01*
X126835360Y-80428674D01*
X126824501Y-80470971D01*
X126824500Y-80470982D01*
X126824500Y-80491016D01*
X126822973Y-80510415D01*
X126819840Y-80530194D01*
X126819840Y-80530195D01*
X121685225Y-80530195D01*
X121685225Y-66400005D01*
X130194357Y-66400005D01*
X130214890Y-66647812D01*
X130214892Y-66647824D01*
X130275936Y-66888881D01*
X130375826Y-67116606D01*
X130511833Y-67324782D01*
X130511836Y-67324785D01*
X130680256Y-67507738D01*
X130876491Y-67660474D01*
X131095190Y-67778828D01*
X131330386Y-67859571D01*
X131575665Y-67900500D01*
X131824335Y-67900500D01*
X132069614Y-67859571D01*
X132304810Y-67778828D01*
X132523509Y-67660474D01*
X132719744Y-67507738D01*
X132888164Y-67324785D01*
X133024173Y-67116607D01*
X133124063Y-66888881D01*
X133185108Y-66647821D01*
X133185109Y-66647812D01*
X133205643Y-66400005D01*
X133205643Y-66399994D01*
X133189071Y-66200005D01*
X183894357Y-66200005D01*
X183914890Y-66447812D01*
X183914892Y-66447824D01*
X183975936Y-66688881D01*
X184075826Y-66916606D01*
X184211833Y-67124782D01*
X184211836Y-67124785D01*
X184380256Y-67307738D01*
X184576491Y-67460474D01*
X184795190Y-67578828D01*
X185030386Y-67659571D01*
X185275665Y-67700500D01*
X185524335Y-67700500D01*
X185769614Y-67659571D01*
X186004810Y-67578828D01*
X186223509Y-67460474D01*
X186419744Y-67307738D01*
X186588164Y-67124785D01*
X186724173Y-66916607D01*
X186824063Y-66688881D01*
X186885108Y-66447821D01*
X186905643Y-66200000D01*
X186901681Y-66152187D01*
X186885109Y-65952187D01*
X186885107Y-65952175D01*
X186824063Y-65711118D01*
X186724173Y-65483393D01*
X186588166Y-65275217D01*
X186566557Y-65251744D01*
X186419744Y-65092262D01*
X186223509Y-64939526D01*
X186223507Y-64939525D01*
X186223506Y-64939524D01*
X186004811Y-64821172D01*
X186004802Y-64821169D01*
X185769616Y-64740429D01*
X185524335Y-64699500D01*
X185275665Y-64699500D01*
X185030383Y-64740429D01*
X184795197Y-64821169D01*
X184795188Y-64821172D01*
X184576493Y-64939524D01*
X184380257Y-65092261D01*
X184211833Y-65275217D01*
X184075826Y-65483393D01*
X183975936Y-65711118D01*
X183914892Y-65952175D01*
X183914890Y-65952187D01*
X183894357Y-66199994D01*
X183894357Y-66200005D01*
X133189071Y-66200005D01*
X133185109Y-66152187D01*
X133185107Y-66152175D01*
X133124063Y-65911118D01*
X133024173Y-65683393D01*
X132888166Y-65475217D01*
X132866557Y-65451744D01*
X132719744Y-65292262D01*
X132523509Y-65139526D01*
X132523507Y-65139525D01*
X132523506Y-65139524D01*
X132304811Y-65021172D01*
X132304802Y-65021169D01*
X132069616Y-64940429D01*
X131824335Y-64899500D01*
X131575665Y-64899500D01*
X131330383Y-64940429D01*
X131095197Y-65021169D01*
X131095188Y-65021172D01*
X130876493Y-65139524D01*
X130680257Y-65292261D01*
X130511833Y-65475217D01*
X130375826Y-65683393D01*
X130275936Y-65911118D01*
X130214892Y-66152175D01*
X130214890Y-66152187D01*
X130194357Y-66399994D01*
X130194357Y-66400005D01*
X121685225Y-66400005D01*
X121685225Y-60075791D01*
X123479082Y-60075791D01*
X123486755Y-60158597D01*
X123487284Y-60170038D01*
X123487284Y-60186750D01*
X123490222Y-60202469D01*
X123490354Y-60203173D01*
X123491935Y-60214510D01*
X123499610Y-60297327D01*
X123499610Y-60297329D01*
X123522370Y-60377321D01*
X123524990Y-60388460D01*
X123528062Y-60404888D01*
X123528063Y-60404893D01*
X123534097Y-60420468D01*
X123537737Y-60431328D01*
X123560495Y-60511318D01*
X123578153Y-60546779D01*
X123597566Y-60585765D01*
X123602187Y-60596231D01*
X123608227Y-60611823D01*
X123617024Y-60626029D01*
X123622597Y-60636035D01*
X123659663Y-60710474D01*
X123659667Y-60710481D01*
X123709780Y-60776841D01*
X123716250Y-60786286D01*
X123725053Y-60800502D01*
X123736310Y-60812851D01*
X123743626Y-60821661D01*
X123793745Y-60888028D01*
X123855199Y-60944051D01*
X123863298Y-60952150D01*
X123874556Y-60964500D01*
X123887896Y-60974574D01*
X123896706Y-60981890D01*
X123958158Y-61037911D01*
X123958160Y-61037912D01*
X123958163Y-61037915D01*
X124028869Y-61081694D01*
X124038315Y-61088164D01*
X124051653Y-61098237D01*
X124066624Y-61105691D01*
X124076621Y-61111261D01*
X124147314Y-61155033D01*
X124147318Y-61155035D01*
X124147321Y-61155036D01*
X124147324Y-61155038D01*
X124224878Y-61185082D01*
X124235334Y-61189700D01*
X124250301Y-61197153D01*
X124250303Y-61197153D01*
X124250306Y-61197155D01*
X124266400Y-61201734D01*
X124277236Y-61205366D01*
X124354785Y-61235409D01*
X124436552Y-61250694D01*
X124447679Y-61253311D01*
X124463753Y-61257885D01*
X124480384Y-61259426D01*
X124491713Y-61261005D01*
X124573482Y-61276291D01*
X124573484Y-61276291D01*
X124656643Y-61276291D01*
X124668084Y-61276819D01*
X124684725Y-61278362D01*
X124701365Y-61276819D01*
X124712807Y-61276291D01*
X124795967Y-61276291D01*
X124795968Y-61276291D01*
X124877732Y-61261006D01*
X124889053Y-61259427D01*
X124905697Y-61257885D01*
X124921794Y-61253304D01*
X124932886Y-61250696D01*
X125014665Y-61235409D01*
X125092239Y-61205356D01*
X125103036Y-61201737D01*
X125119144Y-61197155D01*
X125134116Y-61189700D01*
X125144572Y-61185082D01*
X125222126Y-61155038D01*
X125292862Y-61111239D01*
X125302808Y-61105700D01*
X125317797Y-61098237D01*
X125331142Y-61088159D01*
X125340548Y-61081714D01*
X125411287Y-61037915D01*
X125472765Y-60981869D01*
X125481539Y-60974584D01*
X125494892Y-60964501D01*
X125506166Y-60952133D01*
X125514231Y-60944068D01*
X125575706Y-60888027D01*
X125625833Y-60821647D01*
X125633127Y-60812863D01*
X125644397Y-60800502D01*
X125653208Y-60786271D01*
X125659652Y-60776863D01*
X125709783Y-60710480D01*
X125746863Y-60636012D01*
X125752412Y-60626050D01*
X125761222Y-60611823D01*
X125767264Y-60596225D01*
X125771871Y-60585789D01*
X125808954Y-60511319D01*
X125831721Y-60431300D01*
X125835347Y-60420482D01*
X125841388Y-60404890D01*
X125844458Y-60388462D01*
X125847071Y-60377350D01*
X125869840Y-60297327D01*
X125877514Y-60214506D01*
X125879092Y-60203189D01*
X125882166Y-60186750D01*
X125882756Y-60161146D01*
X125883249Y-60152616D01*
X125890368Y-60075791D01*
X125885661Y-60025000D01*
X129414341Y-60025000D01*
X129434936Y-60260403D01*
X129434938Y-60260413D01*
X129496094Y-60488655D01*
X129496096Y-60488659D01*
X129496097Y-60488663D01*
X129541375Y-60585762D01*
X129595965Y-60702830D01*
X129595967Y-60702834D01*
X129673011Y-60812863D01*
X129731505Y-60896401D01*
X129898599Y-61063495D01*
X129924586Y-61081691D01*
X130092165Y-61199032D01*
X130092167Y-61199033D01*
X130092170Y-61199035D01*
X130306337Y-61298903D01*
X130306343Y-61298904D01*
X130306344Y-61298905D01*
X130361285Y-61313626D01*
X130534592Y-61360063D01*
X130722918Y-61376539D01*
X130769999Y-61380659D01*
X130770000Y-61380659D01*
X130770001Y-61380659D01*
X130809234Y-61377226D01*
X131005408Y-61360063D01*
X131233663Y-61298903D01*
X131447830Y-61199035D01*
X131641401Y-61063495D01*
X131808495Y-60896401D01*
X131938425Y-60710842D01*
X131993002Y-60667217D01*
X132062500Y-60660023D01*
X132124855Y-60691546D01*
X132141575Y-60710842D01*
X132271500Y-60896395D01*
X132271505Y-60896401D01*
X132438599Y-61063495D01*
X132631624Y-61198653D01*
X132675248Y-61253228D01*
X132684500Y-61300226D01*
X132684500Y-62804546D01*
X132664815Y-62871585D01*
X132648183Y-62892225D01*
X132627230Y-62913179D01*
X132565908Y-62946666D01*
X132539547Y-62949500D01*
X132480354Y-62949500D01*
X132447897Y-62956398D01*
X132295197Y-62988855D01*
X132295192Y-62988857D01*
X132122270Y-63065848D01*
X132122265Y-63065851D01*
X131969129Y-63177111D01*
X131842466Y-63317785D01*
X131747821Y-63481715D01*
X131747818Y-63481722D01*
X131707399Y-63606121D01*
X131689326Y-63661744D01*
X131669540Y-63850000D01*
X131689326Y-64038256D01*
X131689327Y-64038259D01*
X131747818Y-64218277D01*
X131747821Y-64218284D01*
X131842467Y-64382216D01*
X131969129Y-64522888D01*
X132122265Y-64634148D01*
X132122270Y-64634151D01*
X132295192Y-64711142D01*
X132295197Y-64711144D01*
X132480354Y-64750500D01*
X132480355Y-64750500D01*
X132669644Y-64750500D01*
X132669646Y-64750500D01*
X132854803Y-64711144D01*
X133027730Y-64634151D01*
X133180871Y-64522888D01*
X133307533Y-64382216D01*
X133402179Y-64218284D01*
X133460674Y-64038256D01*
X133478321Y-63870344D01*
X133504904Y-63805734D01*
X133513951Y-63795638D01*
X133693788Y-63615801D01*
X133706042Y-63605986D01*
X133705859Y-63605764D01*
X133711868Y-63600791D01*
X133711877Y-63600786D01*
X133757949Y-63551722D01*
X133760566Y-63549023D01*
X133780120Y-63529471D01*
X133782576Y-63526303D01*
X133790156Y-63517427D01*
X133820062Y-63485582D01*
X133829715Y-63468020D01*
X133840389Y-63451770D01*
X133852673Y-63435936D01*
X133870019Y-63395850D01*
X133875157Y-63385362D01*
X133896196Y-63347093D01*
X133896197Y-63347092D01*
X133901177Y-63327691D01*
X133907478Y-63309288D01*
X133915438Y-63290896D01*
X133922272Y-63247741D01*
X133924635Y-63236331D01*
X133935500Y-63194019D01*
X133935500Y-63173983D01*
X133937027Y-63154582D01*
X133940160Y-63134804D01*
X133936050Y-63091324D01*
X133935500Y-63079655D01*
X133935500Y-61300226D01*
X133955185Y-61233187D01*
X133988374Y-61198654D01*
X134181401Y-61063495D01*
X134348495Y-60896401D01*
X134478425Y-60710842D01*
X134533002Y-60667217D01*
X134602500Y-60660023D01*
X134664855Y-60691546D01*
X134681575Y-60710842D01*
X134811500Y-60896395D01*
X134811505Y-60896401D01*
X134978599Y-61063495D01*
X135004586Y-61081691D01*
X135172165Y-61199032D01*
X135172167Y-61199033D01*
X135172170Y-61199035D01*
X135386337Y-61298903D01*
X135386343Y-61298904D01*
X135386344Y-61298905D01*
X135441285Y-61313626D01*
X135614592Y-61360063D01*
X135802918Y-61376539D01*
X135849999Y-61380659D01*
X135850000Y-61380659D01*
X135850001Y-61380659D01*
X135889234Y-61377226D01*
X136085408Y-61360063D01*
X136313663Y-61298903D01*
X136527830Y-61199035D01*
X136721401Y-61063495D01*
X136888495Y-60896401D01*
X137024035Y-60702830D01*
X137123903Y-60488663D01*
X137185063Y-60260408D01*
X137201215Y-60075791D01*
X187479082Y-60075791D01*
X187486755Y-60158597D01*
X187487284Y-60170038D01*
X187487284Y-60186750D01*
X187490222Y-60202469D01*
X187490354Y-60203173D01*
X187491935Y-60214510D01*
X187499610Y-60297327D01*
X187499610Y-60297329D01*
X187522370Y-60377321D01*
X187524990Y-60388460D01*
X187528062Y-60404888D01*
X187528063Y-60404893D01*
X187534097Y-60420468D01*
X187537737Y-60431328D01*
X187560495Y-60511318D01*
X187578153Y-60546779D01*
X187597566Y-60585765D01*
X187602187Y-60596231D01*
X187608227Y-60611823D01*
X187617024Y-60626029D01*
X187622597Y-60636035D01*
X187659663Y-60710474D01*
X187659667Y-60710481D01*
X187709780Y-60776841D01*
X187716250Y-60786286D01*
X187725053Y-60800502D01*
X187736310Y-60812851D01*
X187743626Y-60821661D01*
X187793745Y-60888028D01*
X187855199Y-60944051D01*
X187863298Y-60952150D01*
X187874556Y-60964500D01*
X187887896Y-60974574D01*
X187896706Y-60981890D01*
X187958158Y-61037911D01*
X187958160Y-61037912D01*
X187958163Y-61037915D01*
X188028869Y-61081694D01*
X188038315Y-61088164D01*
X188051653Y-61098237D01*
X188066624Y-61105691D01*
X188076621Y-61111261D01*
X188147314Y-61155033D01*
X188147318Y-61155035D01*
X188147321Y-61155036D01*
X188147324Y-61155038D01*
X188224878Y-61185082D01*
X188235334Y-61189700D01*
X188250301Y-61197153D01*
X188250303Y-61197153D01*
X188250306Y-61197155D01*
X188266400Y-61201734D01*
X188277236Y-61205366D01*
X188354785Y-61235409D01*
X188436552Y-61250694D01*
X188447679Y-61253311D01*
X188463753Y-61257885D01*
X188480384Y-61259426D01*
X188491713Y-61261005D01*
X188573482Y-61276291D01*
X188573484Y-61276291D01*
X188656643Y-61276291D01*
X188668084Y-61276819D01*
X188684725Y-61278362D01*
X188701365Y-61276819D01*
X188712807Y-61276291D01*
X188795967Y-61276291D01*
X188795968Y-61276291D01*
X188877732Y-61261006D01*
X188889053Y-61259427D01*
X188905697Y-61257885D01*
X188921794Y-61253304D01*
X188932886Y-61250696D01*
X189014665Y-61235409D01*
X189092239Y-61205356D01*
X189103036Y-61201737D01*
X189119144Y-61197155D01*
X189134116Y-61189700D01*
X189144572Y-61185082D01*
X189222126Y-61155038D01*
X189292862Y-61111239D01*
X189302808Y-61105700D01*
X189317797Y-61098237D01*
X189331142Y-61088159D01*
X189340548Y-61081714D01*
X189411287Y-61037915D01*
X189472765Y-60981869D01*
X189481539Y-60974584D01*
X189494892Y-60964501D01*
X189506166Y-60952133D01*
X189514231Y-60944068D01*
X189575706Y-60888027D01*
X189625833Y-60821647D01*
X189633127Y-60812863D01*
X189644397Y-60800502D01*
X189653208Y-60786271D01*
X189659652Y-60776863D01*
X189709783Y-60710480D01*
X189746863Y-60636012D01*
X189752412Y-60626050D01*
X189761222Y-60611823D01*
X189767264Y-60596225D01*
X189771871Y-60585789D01*
X189808954Y-60511319D01*
X189831721Y-60431300D01*
X189835347Y-60420482D01*
X189841388Y-60404890D01*
X189844458Y-60388462D01*
X189847071Y-60377350D01*
X189869840Y-60297327D01*
X189877514Y-60214506D01*
X189879092Y-60203189D01*
X189882166Y-60186750D01*
X189882756Y-60161146D01*
X189883249Y-60152616D01*
X189890368Y-60075791D01*
X189883249Y-59998968D01*
X189882756Y-59990435D01*
X189882166Y-59964832D01*
X189879090Y-59948382D01*
X189877513Y-59937062D01*
X189869840Y-59854255D01*
X189847072Y-59774236D01*
X189844458Y-59763119D01*
X189841388Y-59746692D01*
X189835349Y-59731106D01*
X189831719Y-59720275D01*
X189808954Y-59640263D01*
X189771880Y-59565810D01*
X189767258Y-59555340D01*
X189761223Y-59539761D01*
X189761222Y-59539759D01*
X189752413Y-59525533D01*
X189746860Y-59515563D01*
X189709783Y-59441102D01*
X189659659Y-59374727D01*
X189653195Y-59365290D01*
X189644397Y-59351080D01*
X189633137Y-59338728D01*
X189625823Y-59329920D01*
X189598657Y-59293947D01*
X189575706Y-59263555D01*
X189514251Y-59207531D01*
X189514248Y-59207528D01*
X189506151Y-59199431D01*
X189494895Y-59187084D01*
X189494893Y-59187082D01*
X189494892Y-59187081D01*
X189481546Y-59177002D01*
X189472753Y-59169701D01*
X189411287Y-59113667D01*
X189340583Y-59069889D01*
X189331136Y-59063418D01*
X189317793Y-59053342D01*
X189302832Y-59045892D01*
X189292830Y-59040321D01*
X189222132Y-58996547D01*
X189222131Y-58996546D01*
X189144587Y-58966504D01*
X189134121Y-58961883D01*
X189119151Y-58954430D01*
X189119147Y-58954428D01*
X189119144Y-58954427D01*
X189119136Y-58954424D01*
X189119134Y-58954424D01*
X189103062Y-58949850D01*
X189092211Y-58946213D01*
X189014668Y-58916174D01*
X189014666Y-58916173D01*
X189014665Y-58916173D01*
X189014663Y-58916172D01*
X189014654Y-58916170D01*
X188932915Y-58900890D01*
X188921769Y-58898269D01*
X188905697Y-58893696D01*
X188905693Y-58893695D01*
X188889055Y-58892153D01*
X188877721Y-58890572D01*
X188795969Y-58875291D01*
X188795968Y-58875291D01*
X188712796Y-58875291D01*
X188701356Y-58874762D01*
X188684725Y-58873221D01*
X188668093Y-58874762D01*
X188656654Y-58875291D01*
X188573480Y-58875291D01*
X188491728Y-58890572D01*
X188480395Y-58892153D01*
X188463761Y-58893695D01*
X188463747Y-58893698D01*
X188447667Y-58898272D01*
X188436529Y-58900891D01*
X188354789Y-58916171D01*
X188354779Y-58916174D01*
X188277243Y-58946212D01*
X188266391Y-58949850D01*
X188250305Y-58954427D01*
X188250295Y-58954431D01*
X188235325Y-58961884D01*
X188224862Y-58966503D01*
X188147332Y-58996540D01*
X188147320Y-58996546D01*
X188076616Y-59040323D01*
X188066615Y-59045893D01*
X188051659Y-59053340D01*
X188051654Y-59053343D01*
X188038313Y-59063417D01*
X188028874Y-59069883D01*
X187958160Y-59113668D01*
X187896693Y-59169701D01*
X187887891Y-59177011D01*
X187874555Y-59187082D01*
X187863289Y-59199440D01*
X187855197Y-59207531D01*
X187793747Y-59263551D01*
X187743626Y-59329920D01*
X187736315Y-59338724D01*
X187725055Y-59351077D01*
X187725054Y-59351077D01*
X187716256Y-59365287D01*
X187709787Y-59374731D01*
X187677163Y-59417932D01*
X187659667Y-59441102D01*
X187659666Y-59441103D01*
X187659666Y-59441104D01*
X187659659Y-59441115D01*
X187622595Y-59515548D01*
X187617028Y-59525544D01*
X187608227Y-59539759D01*
X187602191Y-59555340D01*
X187597567Y-59565811D01*
X187560498Y-59640258D01*
X187560495Y-59640264D01*
X187547710Y-59685198D01*
X187537736Y-59720256D01*
X187534098Y-59731110D01*
X187528063Y-59746686D01*
X187528062Y-59746692D01*
X187524993Y-59763107D01*
X187522372Y-59774249D01*
X187499610Y-59854255D01*
X187491936Y-59937062D01*
X187490355Y-59948398D01*
X187487284Y-59964828D01*
X187487284Y-59981542D01*
X187486755Y-59992983D01*
X187479082Y-60075790D01*
X187479082Y-60075791D01*
X137201215Y-60075791D01*
X137205659Y-60025000D01*
X137185063Y-59789592D01*
X137123903Y-59561337D01*
X137024035Y-59347171D01*
X137018425Y-59339158D01*
X136888494Y-59153597D01*
X136721402Y-58986506D01*
X136721395Y-58986501D01*
X136527834Y-58850967D01*
X136527830Y-58850965D01*
X136527828Y-58850964D01*
X136313663Y-58751097D01*
X136313659Y-58751096D01*
X136313655Y-58751094D01*
X136085413Y-58689938D01*
X136085403Y-58689936D01*
X135850001Y-58669341D01*
X135849999Y-58669341D01*
X135614596Y-58689936D01*
X135614586Y-58689938D01*
X135386344Y-58751094D01*
X135386335Y-58751098D01*
X135172171Y-58850964D01*
X135172169Y-58850965D01*
X134978597Y-58986505D01*
X134811505Y-59153597D01*
X134681575Y-59339158D01*
X134626998Y-59382783D01*
X134557500Y-59389977D01*
X134495145Y-59358454D01*
X134478425Y-59339158D01*
X134348494Y-59153597D01*
X134181402Y-58986506D01*
X134181395Y-58986501D01*
X133987834Y-58850967D01*
X133987830Y-58850965D01*
X133987828Y-58850964D01*
X133773663Y-58751097D01*
X133773659Y-58751096D01*
X133773655Y-58751094D01*
X133545413Y-58689938D01*
X133545403Y-58689936D01*
X133310001Y-58669341D01*
X133309999Y-58669341D01*
X133074596Y-58689936D01*
X133074586Y-58689938D01*
X132846344Y-58751094D01*
X132846335Y-58751098D01*
X132632171Y-58850964D01*
X132632169Y-58850965D01*
X132438597Y-58986505D01*
X132271505Y-59153597D01*
X132141575Y-59339158D01*
X132086998Y-59382783D01*
X132017500Y-59389977D01*
X131955145Y-59358454D01*
X131938425Y-59339158D01*
X131808494Y-59153597D01*
X131641402Y-58986506D01*
X131641395Y-58986501D01*
X131447834Y-58850967D01*
X131447830Y-58850965D01*
X131447828Y-58850964D01*
X131233663Y-58751097D01*
X131233659Y-58751096D01*
X131233655Y-58751094D01*
X131005413Y-58689938D01*
X131005403Y-58689936D01*
X130770001Y-58669341D01*
X130769999Y-58669341D01*
X130534596Y-58689936D01*
X130534586Y-58689938D01*
X130306344Y-58751094D01*
X130306335Y-58751098D01*
X130092171Y-58850964D01*
X130092169Y-58850965D01*
X129898597Y-58986505D01*
X129731505Y-59153597D01*
X129595965Y-59347169D01*
X129595964Y-59347171D01*
X129517453Y-59515539D01*
X129498894Y-59555340D01*
X129496098Y-59561335D01*
X129496094Y-59561344D01*
X129434938Y-59789586D01*
X129434936Y-59789596D01*
X129414341Y-60024999D01*
X129414341Y-60025000D01*
X125885661Y-60025000D01*
X125883249Y-59998968D01*
X125882756Y-59990435D01*
X125882166Y-59964832D01*
X125879090Y-59948382D01*
X125877513Y-59937062D01*
X125869840Y-59854255D01*
X125847072Y-59774236D01*
X125844458Y-59763119D01*
X125841388Y-59746692D01*
X125835349Y-59731106D01*
X125831719Y-59720275D01*
X125808954Y-59640263D01*
X125771880Y-59565810D01*
X125767258Y-59555340D01*
X125761223Y-59539761D01*
X125761222Y-59539759D01*
X125752413Y-59525533D01*
X125746860Y-59515563D01*
X125709783Y-59441102D01*
X125659659Y-59374727D01*
X125653195Y-59365290D01*
X125644397Y-59351080D01*
X125633137Y-59338728D01*
X125625823Y-59329920D01*
X125598657Y-59293947D01*
X125575706Y-59263555D01*
X125514251Y-59207531D01*
X125514248Y-59207528D01*
X125506151Y-59199431D01*
X125494895Y-59187084D01*
X125494893Y-59187082D01*
X125494892Y-59187081D01*
X125481546Y-59177002D01*
X125472753Y-59169701D01*
X125411287Y-59113667D01*
X125340583Y-59069889D01*
X125331136Y-59063418D01*
X125317793Y-59053342D01*
X125302832Y-59045892D01*
X125292830Y-59040321D01*
X125222132Y-58996547D01*
X125222131Y-58996546D01*
X125144587Y-58966504D01*
X125134121Y-58961883D01*
X125119151Y-58954430D01*
X125119147Y-58954428D01*
X125119144Y-58954427D01*
X125119136Y-58954424D01*
X125119134Y-58954424D01*
X125103062Y-58949850D01*
X125092211Y-58946213D01*
X125014668Y-58916174D01*
X125014666Y-58916173D01*
X125014665Y-58916173D01*
X125014663Y-58916172D01*
X125014654Y-58916170D01*
X124932915Y-58900890D01*
X124921769Y-58898269D01*
X124905697Y-58893696D01*
X124905693Y-58893695D01*
X124889055Y-58892153D01*
X124877721Y-58890572D01*
X124795969Y-58875291D01*
X124795968Y-58875291D01*
X124712796Y-58875291D01*
X124701356Y-58874762D01*
X124684725Y-58873221D01*
X124668093Y-58874762D01*
X124656654Y-58875291D01*
X124573480Y-58875291D01*
X124491728Y-58890572D01*
X124480395Y-58892153D01*
X124463761Y-58893695D01*
X124463747Y-58893698D01*
X124447667Y-58898272D01*
X124436529Y-58900891D01*
X124354789Y-58916171D01*
X124354779Y-58916174D01*
X124277243Y-58946212D01*
X124266391Y-58949850D01*
X124250305Y-58954427D01*
X124250295Y-58954431D01*
X124235325Y-58961884D01*
X124224862Y-58966503D01*
X124147332Y-58996540D01*
X124147320Y-58996546D01*
X124076616Y-59040323D01*
X124066615Y-59045893D01*
X124051659Y-59053340D01*
X124051654Y-59053343D01*
X124038313Y-59063417D01*
X124028874Y-59069883D01*
X123958160Y-59113668D01*
X123896693Y-59169701D01*
X123887891Y-59177011D01*
X123874555Y-59187082D01*
X123863289Y-59199440D01*
X123855197Y-59207531D01*
X123793747Y-59263551D01*
X123743626Y-59329920D01*
X123736315Y-59338724D01*
X123725055Y-59351077D01*
X123725054Y-59351077D01*
X123716256Y-59365287D01*
X123709787Y-59374731D01*
X123677163Y-59417932D01*
X123659667Y-59441102D01*
X123659666Y-59441103D01*
X123659666Y-59441104D01*
X123659659Y-59441115D01*
X123622595Y-59515548D01*
X123617028Y-59525544D01*
X123608227Y-59539759D01*
X123602191Y-59555340D01*
X123597567Y-59565811D01*
X123560498Y-59640258D01*
X123560495Y-59640264D01*
X123547710Y-59685198D01*
X123537736Y-59720256D01*
X123534098Y-59731110D01*
X123528063Y-59746686D01*
X123528062Y-59746692D01*
X123524993Y-59763107D01*
X123522372Y-59774249D01*
X123499610Y-59854255D01*
X123491936Y-59937062D01*
X123490355Y-59948398D01*
X123487284Y-59964828D01*
X123487284Y-59981542D01*
X123486755Y-59992983D01*
X123479082Y-60075790D01*
X123479082Y-60075791D01*
X121685225Y-60075791D01*
X121685225Y-58781202D01*
X121685697Y-58770395D01*
X121689152Y-58730902D01*
X121689253Y-58729817D01*
X121701645Y-58604013D01*
X121705264Y-58584119D01*
X121722642Y-58519269D01*
X121723670Y-58515666D01*
X121751413Y-58424218D01*
X121757680Y-58407837D01*
X121788433Y-58341890D01*
X121791384Y-58335988D01*
X121833751Y-58256727D01*
X121841518Y-58244086D01*
X121884372Y-58182887D01*
X121890053Y-58175399D01*
X121945917Y-58107331D01*
X121954055Y-58098351D01*
X122007274Y-58045133D01*
X122016252Y-58036998D01*
X122084313Y-57981143D01*
X122091837Y-57975436D01*
X122095847Y-57972628D01*
X122153017Y-57932598D01*
X122165670Y-57924826D01*
X122244885Y-57882487D01*
X122250850Y-57879504D01*
X122316765Y-57848769D01*
X122333154Y-57842500D01*
X122424545Y-57814778D01*
X122428305Y-57813705D01*
X122493059Y-57796356D01*
X122512948Y-57792735D01*
X122636473Y-57780550D01*
X122637381Y-57780465D01*
X122679729Y-57776761D01*
X122690529Y-57776291D01*
X190679311Y-57776291D01*
X190690118Y-57776763D01*
G37*
G04 #@! TD.AperFunction*
M02*
