G04 #@! TF.GenerationSoftware,KiCad,Pcbnew,7.0.10*
G04 #@! TF.CreationDate,2024-01-28T23:55:46+03:00*
G04 #@! TF.ProjectId,Eco_display,45636f5f-6469-4737-906c-61792e6b6963,rev?*
G04 #@! TF.SameCoordinates,Original*
G04 #@! TF.FileFunction,Legend,Bot*
G04 #@! TF.FilePolarity,Positive*
%FSLAX46Y46*%
G04 Gerber Fmt 4.6, Leading zero omitted, Abs format (unit mm)*
G04 Created by KiCad (PCBNEW 7.0.10) date 2024-01-28 23:55:46*
%MOMM*%
%LPD*%
G01*
G04 APERTURE LIST*
%ADD10C,0.150000*%
%ADD11C,0.200000*%
%ADD12C,0.001000*%
%ADD13C,0.300000*%
%ADD14C,0.071628*%
%ADD15C,0.120000*%
%ADD16C,0.152400*%
%ADD17C,0.508000*%
G04 APERTURE END LIST*
D10*
X135900000Y-90300000D02*
G75*
G03*
X135500000Y-90300000I-200000J0D01*
G01*
X135500000Y-90300000D02*
G75*
G03*
X135900000Y-90300000I200000J0D01*
G01*
X135800000Y-90300000D02*
G75*
G03*
X135600000Y-90300000I-100000J0D01*
G01*
X135600000Y-90300000D02*
G75*
G03*
X135800000Y-90300000I100000J0D01*
G01*
X153400000Y-83800000D02*
G75*
G03*
X152800000Y-83800000I-300000J0D01*
G01*
X152800000Y-83800000D02*
G75*
G03*
X153400000Y-83800000I300000J0D01*
G01*
X136100000Y-81200000D02*
G75*
G03*
X135700000Y-81200000I-200000J0D01*
G01*
X135700000Y-81200000D02*
G75*
G03*
X136100000Y-81200000I200000J0D01*
G01*
D11*
X136200000Y-81200000D02*
G75*
G03*
X135600000Y-81200000I-300000J0D01*
G01*
X135600000Y-81200000D02*
G75*
G03*
X136200000Y-81200000I300000J0D01*
G01*
D10*
X153300000Y-83800000D02*
G75*
G03*
X152900000Y-83800000I-200000J0D01*
G01*
X152900000Y-83800000D02*
G75*
G03*
X153300000Y-83800000I200000J0D01*
G01*
X153200000Y-83800000D02*
G75*
G03*
X153000000Y-83800000I-100000J0D01*
G01*
X153000000Y-83800000D02*
G75*
G03*
X153200000Y-83800000I100000J0D01*
G01*
X136000000Y-90300000D02*
G75*
G03*
X135400000Y-90300000I-300000J0D01*
G01*
X135400000Y-90300000D02*
G75*
G03*
X136000000Y-90300000I300000J0D01*
G01*
D12*
X166984725Y-111565610D02*
X161684725Y-111565610D01*
D13*
X167059774Y-60500828D02*
X166916917Y-60500828D01*
X166916917Y-60500828D02*
X166774060Y-60572257D01*
X166774060Y-60572257D02*
X166702632Y-60643685D01*
X166702632Y-60643685D02*
X166631203Y-60786542D01*
X166631203Y-60786542D02*
X166559774Y-61072257D01*
X166559774Y-61072257D02*
X166559774Y-61429400D01*
X166559774Y-61429400D02*
X166631203Y-61715114D01*
X166631203Y-61715114D02*
X166702632Y-61857971D01*
X166702632Y-61857971D02*
X166774060Y-61929400D01*
X166774060Y-61929400D02*
X166916917Y-62000828D01*
X166916917Y-62000828D02*
X167059774Y-62000828D01*
X167059774Y-62000828D02*
X167202632Y-61929400D01*
X167202632Y-61929400D02*
X167274060Y-61857971D01*
X167274060Y-61857971D02*
X167345489Y-61715114D01*
X167345489Y-61715114D02*
X167416917Y-61429400D01*
X167416917Y-61429400D02*
X167416917Y-61072257D01*
X167416917Y-61072257D02*
X167345489Y-60786542D01*
X167345489Y-60786542D02*
X167274060Y-60643685D01*
X167274060Y-60643685D02*
X167202632Y-60572257D01*
X167202632Y-60572257D02*
X167059774Y-60500828D01*
X165631203Y-60500828D02*
X165488346Y-60500828D01*
X165488346Y-60500828D02*
X165345489Y-60572257D01*
X165345489Y-60572257D02*
X165274061Y-60643685D01*
X165274061Y-60643685D02*
X165202632Y-60786542D01*
X165202632Y-60786542D02*
X165131203Y-61072257D01*
X165131203Y-61072257D02*
X165131203Y-61429400D01*
X165131203Y-61429400D02*
X165202632Y-61715114D01*
X165202632Y-61715114D02*
X165274061Y-61857971D01*
X165274061Y-61857971D02*
X165345489Y-61929400D01*
X165345489Y-61929400D02*
X165488346Y-62000828D01*
X165488346Y-62000828D02*
X165631203Y-62000828D01*
X165631203Y-62000828D02*
X165774061Y-61929400D01*
X165774061Y-61929400D02*
X165845489Y-61857971D01*
X165845489Y-61857971D02*
X165916918Y-61715114D01*
X165916918Y-61715114D02*
X165988346Y-61429400D01*
X165988346Y-61429400D02*
X165988346Y-61072257D01*
X165988346Y-61072257D02*
X165916918Y-60786542D01*
X165916918Y-60786542D02*
X165845489Y-60643685D01*
X165845489Y-60643685D02*
X165774061Y-60572257D01*
X165774061Y-60572257D02*
X165631203Y-60500828D01*
X163702632Y-62000828D02*
X164559775Y-62000828D01*
X164131204Y-62000828D02*
X164131204Y-60500828D01*
X164131204Y-60500828D02*
X164274061Y-60715114D01*
X164274061Y-60715114D02*
X164416918Y-60857971D01*
X164416918Y-60857971D02*
X164559775Y-60929400D01*
X163131204Y-60643685D02*
X163059776Y-60572257D01*
X163059776Y-60572257D02*
X162916919Y-60500828D01*
X162916919Y-60500828D02*
X162559776Y-60500828D01*
X162559776Y-60500828D02*
X162416919Y-60572257D01*
X162416919Y-60572257D02*
X162345490Y-60643685D01*
X162345490Y-60643685D02*
X162274061Y-60786542D01*
X162274061Y-60786542D02*
X162274061Y-60929400D01*
X162274061Y-60929400D02*
X162345490Y-61143685D01*
X162345490Y-61143685D02*
X163202633Y-62000828D01*
X163202633Y-62000828D02*
X162274061Y-62000828D01*
X160845490Y-62000828D02*
X161702633Y-62000828D01*
X161274062Y-62000828D02*
X161274062Y-60500828D01*
X161274062Y-60500828D02*
X161416919Y-60715114D01*
X161416919Y-60715114D02*
X161559776Y-60857971D01*
X161559776Y-60857971D02*
X161702633Y-60929400D01*
X159916919Y-60500828D02*
X159774062Y-60500828D01*
X159774062Y-60500828D02*
X159631205Y-60572257D01*
X159631205Y-60572257D02*
X159559777Y-60643685D01*
X159559777Y-60643685D02*
X159488348Y-60786542D01*
X159488348Y-60786542D02*
X159416919Y-61072257D01*
X159416919Y-61072257D02*
X159416919Y-61429400D01*
X159416919Y-61429400D02*
X159488348Y-61715114D01*
X159488348Y-61715114D02*
X159559777Y-61857971D01*
X159559777Y-61857971D02*
X159631205Y-61929400D01*
X159631205Y-61929400D02*
X159774062Y-62000828D01*
X159774062Y-62000828D02*
X159916919Y-62000828D01*
X159916919Y-62000828D02*
X160059777Y-61929400D01*
X160059777Y-61929400D02*
X160131205Y-61857971D01*
X160131205Y-61857971D02*
X160202634Y-61715114D01*
X160202634Y-61715114D02*
X160274062Y-61429400D01*
X160274062Y-61429400D02*
X160274062Y-61072257D01*
X160274062Y-61072257D02*
X160202634Y-60786542D01*
X160202634Y-60786542D02*
X160131205Y-60643685D01*
X160131205Y-60643685D02*
X160059777Y-60572257D01*
X160059777Y-60572257D02*
X159916919Y-60500828D01*
X157988348Y-62000828D02*
X158845491Y-62000828D01*
X158416920Y-62000828D02*
X158416920Y-60500828D01*
X158416920Y-60500828D02*
X158559777Y-60715114D01*
X158559777Y-60715114D02*
X158702634Y-60857971D01*
X158702634Y-60857971D02*
X158845491Y-60929400D01*
X157416920Y-60643685D02*
X157345492Y-60572257D01*
X157345492Y-60572257D02*
X157202635Y-60500828D01*
X157202635Y-60500828D02*
X156845492Y-60500828D01*
X156845492Y-60500828D02*
X156702635Y-60572257D01*
X156702635Y-60572257D02*
X156631206Y-60643685D01*
X156631206Y-60643685D02*
X156559777Y-60786542D01*
X156559777Y-60786542D02*
X156559777Y-60929400D01*
X156559777Y-60929400D02*
X156631206Y-61143685D01*
X156631206Y-61143685D02*
X157488349Y-62000828D01*
X157488349Y-62000828D02*
X156559777Y-62000828D01*
X155274064Y-61000828D02*
X155274064Y-62000828D01*
X155631206Y-60429400D02*
X155988349Y-61500828D01*
X155988349Y-61500828D02*
X155059778Y-61500828D01*
X160216917Y-110900828D02*
X160216917Y-111972257D01*
X160216917Y-111972257D02*
X160288346Y-112186542D01*
X160288346Y-112186542D02*
X160431203Y-112329400D01*
X160431203Y-112329400D02*
X160645489Y-112400828D01*
X160645489Y-112400828D02*
X160788346Y-112400828D01*
X158716917Y-112400828D02*
X159574060Y-112400828D01*
X159145489Y-112400828D02*
X159145489Y-110900828D01*
X159145489Y-110900828D02*
X159288346Y-111115114D01*
X159288346Y-111115114D02*
X159431203Y-111257971D01*
X159431203Y-111257971D02*
X159574060Y-111329400D01*
D10*
X129883571Y-105711866D02*
X129121667Y-105711866D01*
X129502619Y-106092819D02*
X129502619Y-105330914D01*
D14*
X167307179Y-93169823D02*
X167307179Y-93067352D01*
X167307179Y-93067352D02*
X167332797Y-93012914D01*
X167332797Y-93012914D02*
X167358415Y-92984094D01*
X167358415Y-92984094D02*
X167435268Y-92923252D01*
X167435268Y-92923252D02*
X167537739Y-92884826D01*
X167537739Y-92884826D02*
X167742680Y-92859208D01*
X167742680Y-92859208D02*
X167793916Y-92878421D01*
X167793916Y-92878421D02*
X167819534Y-92900837D01*
X167819534Y-92900837D02*
X167845151Y-92948870D01*
X167845151Y-92948870D02*
X167845151Y-93051341D01*
X167845151Y-93051341D02*
X167819534Y-93105779D01*
X167819534Y-93105779D02*
X167793916Y-93134598D01*
X167793916Y-93134598D02*
X167742680Y-93166621D01*
X167742680Y-93166621D02*
X167614592Y-93182632D01*
X167614592Y-93182632D02*
X167563356Y-93163418D01*
X167563356Y-93163418D02*
X167537739Y-93141003D01*
X167537739Y-93141003D02*
X167512121Y-93092970D01*
X167512121Y-93092970D02*
X167512121Y-92990499D01*
X167512121Y-92990499D02*
X167537739Y-92936061D01*
X167537739Y-92936061D02*
X167563356Y-92907241D01*
X167563356Y-92907241D02*
X167614592Y-92875219D01*
X167358415Y-93419595D02*
X167332797Y-93448415D01*
X167332797Y-93448415D02*
X167307179Y-93502853D01*
X167307179Y-93502853D02*
X167307179Y-93630941D01*
X167307179Y-93630941D02*
X167332797Y-93678975D01*
X167332797Y-93678975D02*
X167358415Y-93701390D01*
X167358415Y-93701390D02*
X167409650Y-93720603D01*
X167409650Y-93720603D02*
X167460886Y-93714199D01*
X167460886Y-93714199D02*
X167537739Y-93678975D01*
X167537739Y-93678975D02*
X167845151Y-93333135D01*
X167845151Y-93333135D02*
X167845151Y-93666166D01*
X167307179Y-94194531D02*
X167307179Y-94092060D01*
X167307179Y-94092060D02*
X167332797Y-94037622D01*
X167332797Y-94037622D02*
X167358415Y-94008802D01*
X167358415Y-94008802D02*
X167435268Y-93947960D01*
X167435268Y-93947960D02*
X167537739Y-93909534D01*
X167537739Y-93909534D02*
X167742680Y-93883916D01*
X167742680Y-93883916D02*
X167793916Y-93903129D01*
X167793916Y-93903129D02*
X167819534Y-93925545D01*
X167819534Y-93925545D02*
X167845151Y-93973578D01*
X167845151Y-93973578D02*
X167845151Y-94076049D01*
X167845151Y-94076049D02*
X167819534Y-94130487D01*
X167819534Y-94130487D02*
X167793916Y-94159306D01*
X167793916Y-94159306D02*
X167742680Y-94191329D01*
X167742680Y-94191329D02*
X167614592Y-94207340D01*
X167614592Y-94207340D02*
X167563356Y-94188126D01*
X167563356Y-94188126D02*
X167537739Y-94165711D01*
X167537739Y-94165711D02*
X167512121Y-94117678D01*
X167512121Y-94117678D02*
X167512121Y-94015207D01*
X167512121Y-94015207D02*
X167537739Y-93960769D01*
X167537739Y-93960769D02*
X167563356Y-93931949D01*
X167563356Y-93931949D02*
X167614592Y-93899927D01*
X167537739Y-94524359D02*
X167512121Y-94476325D01*
X167512121Y-94476325D02*
X167486503Y-94453910D01*
X167486503Y-94453910D02*
X167435268Y-94434697D01*
X167435268Y-94434697D02*
X167409650Y-94437899D01*
X167409650Y-94437899D02*
X167358415Y-94469921D01*
X167358415Y-94469921D02*
X167332797Y-94498741D01*
X167332797Y-94498741D02*
X167307179Y-94553179D01*
X167307179Y-94553179D02*
X167307179Y-94655649D01*
X167307179Y-94655649D02*
X167332797Y-94703683D01*
X167332797Y-94703683D02*
X167358415Y-94726098D01*
X167358415Y-94726098D02*
X167409650Y-94745311D01*
X167409650Y-94745311D02*
X167435268Y-94742109D01*
X167435268Y-94742109D02*
X167486503Y-94710087D01*
X167486503Y-94710087D02*
X167512121Y-94681267D01*
X167512121Y-94681267D02*
X167537739Y-94626829D01*
X167537739Y-94626829D02*
X167537739Y-94524359D01*
X167537739Y-94524359D02*
X167563356Y-94469921D01*
X167563356Y-94469921D02*
X167588974Y-94441101D01*
X167588974Y-94441101D02*
X167640210Y-94409079D01*
X167640210Y-94409079D02*
X167742680Y-94396270D01*
X167742680Y-94396270D02*
X167793916Y-94415483D01*
X167793916Y-94415483D02*
X167819534Y-94437899D01*
X167819534Y-94437899D02*
X167845151Y-94485932D01*
X167845151Y-94485932D02*
X167845151Y-94588403D01*
X167845151Y-94588403D02*
X167819534Y-94642841D01*
X167819534Y-94642841D02*
X167793916Y-94671660D01*
X167793916Y-94671660D02*
X167742680Y-94703683D01*
X167742680Y-94703683D02*
X167640210Y-94716491D01*
X167640210Y-94716491D02*
X167588974Y-94697278D01*
X167588974Y-94697278D02*
X167563356Y-94674863D01*
X167563356Y-94674863D02*
X167537739Y-94626829D01*
X167486503Y-95196823D02*
X167845151Y-95151992D01*
X167281562Y-95094352D02*
X167665827Y-94918231D01*
X167665827Y-94918231D02*
X167665827Y-95251261D01*
X167640210Y-95459405D02*
X167640210Y-95869288D01*
X167307179Y-96423272D02*
X167307179Y-96167094D01*
X167307179Y-96167094D02*
X167563356Y-96109455D01*
X167563356Y-96109455D02*
X167537739Y-96138274D01*
X167537739Y-96138274D02*
X167512121Y-96192712D01*
X167512121Y-96192712D02*
X167512121Y-96320801D01*
X167512121Y-96320801D02*
X167537739Y-96368834D01*
X167537739Y-96368834D02*
X167563356Y-96391249D01*
X167563356Y-96391249D02*
X167614592Y-96410463D01*
X167614592Y-96410463D02*
X167742680Y-96394452D01*
X167742680Y-96394452D02*
X167793916Y-96362429D01*
X167793916Y-96362429D02*
X167819534Y-96333610D01*
X167819534Y-96333610D02*
X167845151Y-96279172D01*
X167845151Y-96279172D02*
X167845151Y-96151083D01*
X167845151Y-96151083D02*
X167819534Y-96103050D01*
X167819534Y-96103050D02*
X167793916Y-96080635D01*
X167307179Y-96781919D02*
X167307179Y-96833155D01*
X167307179Y-96833155D02*
X167332797Y-96881188D01*
X167332797Y-96881188D02*
X167358415Y-96903603D01*
X167358415Y-96903603D02*
X167409650Y-96922817D01*
X167409650Y-96922817D02*
X167512121Y-96935626D01*
X167512121Y-96935626D02*
X167640210Y-96919614D01*
X167640210Y-96919614D02*
X167742680Y-96881188D01*
X167742680Y-96881188D02*
X167793916Y-96849166D01*
X167793916Y-96849166D02*
X167819534Y-96820346D01*
X167819534Y-96820346D02*
X167845151Y-96765908D01*
X167845151Y-96765908D02*
X167845151Y-96714673D01*
X167845151Y-96714673D02*
X167819534Y-96666640D01*
X167819534Y-96666640D02*
X167793916Y-96644224D01*
X167793916Y-96644224D02*
X167742680Y-96625011D01*
X167742680Y-96625011D02*
X167640210Y-96612202D01*
X167640210Y-96612202D02*
X167512121Y-96628213D01*
X167512121Y-96628213D02*
X167409650Y-96666640D01*
X167409650Y-96666640D02*
X167358415Y-96698662D01*
X167358415Y-96698662D02*
X167332797Y-96727482D01*
X167332797Y-96727482D02*
X167307179Y-96781919D01*
X167845151Y-97406351D02*
X167845151Y-97098938D01*
X167845151Y-97252644D02*
X167307179Y-97319891D01*
X167307179Y-97319891D02*
X167384032Y-97259049D01*
X167384032Y-97259049D02*
X167435268Y-97201409D01*
X167435268Y-97201409D02*
X167460886Y-97146971D01*
X167845151Y-97918705D02*
X167845151Y-97611292D01*
X167845151Y-97764998D02*
X167307179Y-97832245D01*
X167307179Y-97832245D02*
X167384032Y-97771403D01*
X167384032Y-97771403D02*
X167435268Y-97713763D01*
X167435268Y-97713763D02*
X167460886Y-97659325D01*
X167307179Y-98318981D02*
X167307179Y-98370217D01*
X167307179Y-98370217D02*
X167332797Y-98418250D01*
X167332797Y-98418250D02*
X167358415Y-98440665D01*
X167358415Y-98440665D02*
X167409650Y-98459879D01*
X167409650Y-98459879D02*
X167512121Y-98472688D01*
X167512121Y-98472688D02*
X167640210Y-98456676D01*
X167640210Y-98456676D02*
X167742680Y-98418250D01*
X167742680Y-98418250D02*
X167793916Y-98386228D01*
X167793916Y-98386228D02*
X167819534Y-98357408D01*
X167819534Y-98357408D02*
X167845151Y-98302970D01*
X167845151Y-98302970D02*
X167845151Y-98251735D01*
X167845151Y-98251735D02*
X167819534Y-98203702D01*
X167819534Y-98203702D02*
X167793916Y-98181286D01*
X167793916Y-98181286D02*
X167742680Y-98162073D01*
X167742680Y-98162073D02*
X167640210Y-98149264D01*
X167640210Y-98149264D02*
X167512121Y-98165275D01*
X167512121Y-98165275D02*
X167409650Y-98203702D01*
X167409650Y-98203702D02*
X167358415Y-98235724D01*
X167358415Y-98235724D02*
X167332797Y-98264544D01*
X167332797Y-98264544D02*
X167307179Y-98318981D01*
X167307179Y-98831335D02*
X167307179Y-98882571D01*
X167307179Y-98882571D02*
X167332797Y-98930604D01*
X167332797Y-98930604D02*
X167358415Y-98953019D01*
X167358415Y-98953019D02*
X167409650Y-98972233D01*
X167409650Y-98972233D02*
X167512121Y-98985042D01*
X167512121Y-98985042D02*
X167640210Y-98969030D01*
X167640210Y-98969030D02*
X167742680Y-98930604D01*
X167742680Y-98930604D02*
X167793916Y-98898582D01*
X167793916Y-98898582D02*
X167819534Y-98869762D01*
X167819534Y-98869762D02*
X167845151Y-98815324D01*
X167845151Y-98815324D02*
X167845151Y-98764089D01*
X167845151Y-98764089D02*
X167819534Y-98716056D01*
X167819534Y-98716056D02*
X167793916Y-98693640D01*
X167793916Y-98693640D02*
X167742680Y-98674427D01*
X167742680Y-98674427D02*
X167640210Y-98661618D01*
X167640210Y-98661618D02*
X167512121Y-98677629D01*
X167512121Y-98677629D02*
X167409650Y-98716056D01*
X167409650Y-98716056D02*
X167358415Y-98748078D01*
X167358415Y-98748078D02*
X167332797Y-98776898D01*
X167332797Y-98776898D02*
X167307179Y-98831335D01*
X167691445Y-99167567D02*
X167691445Y-99423745D01*
X167845151Y-99097119D02*
X167307179Y-99343689D01*
X167307179Y-99343689D02*
X167845151Y-99455767D01*
X167845151Y-99891268D02*
X167845151Y-99635091D01*
X167845151Y-99635091D02*
X167307179Y-99702337D01*
X167563356Y-100285140D02*
X167563356Y-100105816D01*
X167845151Y-100070592D02*
X167307179Y-100137838D01*
X167307179Y-100137838D02*
X167307179Y-100394016D01*
D15*
X134486620Y-111475000D02*
X133836620Y-111475000D01*
X134486620Y-111475000D02*
X135136620Y-111475000D01*
X134486620Y-114595000D02*
X132811620Y-114595000D01*
X134486620Y-114595000D02*
X135136620Y-114595000D01*
X154553641Y-84980000D02*
X154246359Y-84980000D01*
X154553641Y-84220000D02*
X154246359Y-84220000D01*
X132025000Y-95475000D02*
X129175000Y-95475000D01*
X121965000Y-95235000D02*
X121965000Y-90035000D01*
X131785000Y-95235000D02*
X121965000Y-95235000D01*
X132025000Y-92625000D02*
X132025000Y-95475000D01*
X120565000Y-90035000D02*
X120565000Y-88225000D01*
X121965000Y-90035000D02*
X120565000Y-90035000D01*
X131785000Y-88225000D02*
X131785000Y-95235000D01*
X131785000Y-88225000D02*
X131785000Y-81215000D01*
X120565000Y-86415000D02*
X120565000Y-88225000D01*
X121965000Y-86415000D02*
X120565000Y-86415000D01*
X121965000Y-81215000D02*
X121965000Y-86415000D01*
X131785000Y-81215000D02*
X121965000Y-81215000D01*
X139760000Y-84040000D02*
X139110000Y-84040000D01*
X139760000Y-84040000D02*
X140410000Y-84040000D01*
X139760000Y-87160000D02*
X138085000Y-87160000D01*
X139760000Y-87160000D02*
X140410000Y-87160000D01*
X129602362Y-113462500D02*
X130076878Y-113462500D01*
X129602362Y-114507500D02*
X130076878Y-114507500D01*
X138852620Y-103838000D02*
G75*
G03*
X126652620Y-103838000I-6100000J0D01*
G01*
X126652620Y-103838000D02*
G75*
G03*
X138852620Y-103838000I6100000J0D01*
G01*
X148922164Y-82440000D02*
X149137836Y-82440000D01*
X148922164Y-83160000D02*
X149137836Y-83160000D01*
X149560000Y-86810000D02*
X151060000Y-86810000D01*
X149560000Y-86810000D02*
X148060000Y-86810000D01*
X149560000Y-83590000D02*
X152485000Y-83590000D01*
X149560000Y-83590000D02*
X148060000Y-83590000D01*
X154246359Y-85420000D02*
X154553641Y-85420000D01*
X154246359Y-86180000D02*
X154553641Y-86180000D01*
G36*
X173618754Y-61496899D02*
G01*
X173618754Y-62143933D01*
X173443711Y-62143933D01*
X173268668Y-62143933D01*
X173268668Y-61496899D01*
X173268668Y-60849865D01*
X173443711Y-60849865D01*
X173618754Y-60849865D01*
X173618754Y-61496899D01*
G37*
G36*
X177466318Y-62660470D02*
G01*
X177505710Y-62661000D01*
X177536735Y-62662027D01*
X177560353Y-62663670D01*
X177577525Y-62666049D01*
X177589212Y-62669285D01*
X177596373Y-62673497D01*
X177599971Y-62678805D01*
X177600964Y-62685330D01*
X177600315Y-62693191D01*
X177598983Y-62702508D01*
X177597204Y-62711553D01*
X177583620Y-62742285D01*
X177558436Y-62774804D01*
X177522127Y-62808458D01*
X177511511Y-62816887D01*
X177455629Y-62854569D01*
X177398104Y-62882935D01*
X177341546Y-62900651D01*
X177330950Y-62902166D01*
X177307798Y-62903681D01*
X177278773Y-62904301D01*
X177247772Y-62903892D01*
X177212905Y-62902181D01*
X177184302Y-62898951D01*
X177159427Y-62893525D01*
X177133801Y-62885168D01*
X177092350Y-62867836D01*
X177044637Y-62842600D01*
X177000783Y-62813862D01*
X176962876Y-62783168D01*
X176933006Y-62752061D01*
X176913260Y-62722086D01*
X176906213Y-62704940D01*
X176903639Y-62685365D01*
X176910921Y-62672546D01*
X176928279Y-62665649D01*
X176929335Y-62665496D01*
X176941815Y-62664721D01*
X176965264Y-62663960D01*
X176998400Y-62663233D01*
X177039940Y-62662556D01*
X177088602Y-62661951D01*
X177143106Y-62661434D01*
X177202168Y-62661025D01*
X177264507Y-62660743D01*
X177288330Y-62660661D01*
X177358589Y-62660421D01*
X177417598Y-62660317D01*
X177466318Y-62660470D01*
G37*
G36*
X172764783Y-60654504D02*
G01*
X172777298Y-60687954D01*
X172791676Y-60726227D01*
X172805262Y-60762247D01*
X172816273Y-60791282D01*
X172838018Y-60848352D01*
X172934560Y-60906935D01*
X173031103Y-60965518D01*
X173031106Y-61042099D01*
X173031110Y-61118681D01*
X172947034Y-61118681D01*
X172862958Y-61118681D01*
X172860541Y-61489084D01*
X172860229Y-61535295D01*
X172859683Y-61607375D01*
X172859110Y-61668573D01*
X172858478Y-61719921D01*
X172857752Y-61762454D01*
X172856900Y-61797203D01*
X172855888Y-61825203D01*
X172854682Y-61847487D01*
X172853250Y-61865087D01*
X172851558Y-61879038D01*
X172849572Y-61890372D01*
X172847259Y-61900123D01*
X172827086Y-61958417D01*
X172796982Y-62014740D01*
X172759129Y-62062650D01*
X172714359Y-62100894D01*
X172709893Y-62103837D01*
X172680109Y-62119686D01*
X172643305Y-62134754D01*
X172604043Y-62147346D01*
X172566883Y-62155764D01*
X172547588Y-62158127D01*
X172513882Y-62160338D01*
X172473863Y-62161536D01*
X172431021Y-62161716D01*
X172388845Y-62160873D01*
X172350825Y-62159002D01*
X172320450Y-62156099D01*
X172304419Y-62153711D01*
X172263242Y-62145923D01*
X172221642Y-62136087D01*
X172183908Y-62125276D01*
X172154332Y-62114564D01*
X172130888Y-62104525D01*
X172130888Y-61974192D01*
X172130910Y-61961956D01*
X172131258Y-61924329D01*
X172131981Y-61891873D01*
X172133011Y-61866421D01*
X172134280Y-61849805D01*
X172135720Y-61843859D01*
X172139372Y-61844449D01*
X172153292Y-61847522D01*
X172174670Y-61852630D01*
X172200650Y-61859104D01*
X172232040Y-61866482D01*
X172298385Y-61877456D01*
X172355680Y-61879850D01*
X172403915Y-61873666D01*
X172443079Y-61858906D01*
X172473160Y-61835572D01*
X172494148Y-61803666D01*
X172495865Y-61799629D01*
X172498154Y-61792742D01*
X172500062Y-61784062D01*
X172501622Y-61772518D01*
X172502871Y-61757039D01*
X172503843Y-61736554D01*
X172504574Y-61709993D01*
X172505098Y-61676283D01*
X172505453Y-61634355D01*
X172505671Y-61583136D01*
X172505790Y-61521557D01*
X172505843Y-61448545D01*
X172505981Y-61118872D01*
X172326249Y-61117214D01*
X172146517Y-61115555D01*
X172144830Y-60982710D01*
X172143143Y-60849865D01*
X172324562Y-60849865D01*
X172505981Y-60849865D01*
X172505981Y-60712331D01*
X172505981Y-60574797D01*
X172620509Y-60574797D01*
X172735037Y-60574797D01*
X172764783Y-60654504D01*
G37*
G36*
X169726221Y-60828876D02*
G01*
X169778396Y-60833929D01*
X169822798Y-60842614D01*
X169860451Y-60853781D01*
X169921666Y-60877992D01*
X169973771Y-60907850D01*
X170018554Y-60944468D01*
X170057804Y-60988961D01*
X170063595Y-60996063D01*
X170075493Y-61007778D01*
X170083987Y-61012405D01*
X170087969Y-61010228D01*
X170092797Y-61002432D01*
X170098746Y-60987709D01*
X170106280Y-60964755D01*
X170115865Y-60932265D01*
X170127964Y-60888937D01*
X170138698Y-60849865D01*
X170275206Y-60849865D01*
X170411715Y-60849865D01*
X170411715Y-61496899D01*
X170411715Y-62143933D01*
X170233902Y-62143933D01*
X170056089Y-62143933D01*
X170053695Y-61767278D01*
X170053311Y-61708603D01*
X170052748Y-61634123D01*
X170052099Y-61570310D01*
X170051284Y-61516078D01*
X170050225Y-61470346D01*
X170048842Y-61432030D01*
X170047053Y-61400047D01*
X170044781Y-61373312D01*
X170041944Y-61350743D01*
X170038463Y-61331257D01*
X170034258Y-61313769D01*
X170029250Y-61297197D01*
X170023358Y-61280457D01*
X170016502Y-61262466D01*
X170001382Y-61229161D01*
X169972648Y-61186361D01*
X169936896Y-61153579D01*
X169893675Y-61130524D01*
X169842531Y-61116904D01*
X169783012Y-61112429D01*
X169781086Y-61112434D01*
X169729235Y-61116847D01*
X169685859Y-61129897D01*
X169650310Y-61152127D01*
X169621942Y-61184081D01*
X169600107Y-61226300D01*
X169584158Y-61279329D01*
X169582283Y-61288687D01*
X169580484Y-61300786D01*
X169578960Y-61315640D01*
X169577689Y-61334223D01*
X169576649Y-61357510D01*
X169575818Y-61386477D01*
X169575175Y-61422097D01*
X169574697Y-61465347D01*
X169574364Y-61517200D01*
X169574152Y-61578631D01*
X169574041Y-61650616D01*
X169574009Y-61734128D01*
X169574009Y-62143933D01*
X169395840Y-62143933D01*
X169217672Y-62143933D01*
X169217697Y-61689134D01*
X169217724Y-61610755D01*
X169217844Y-61527015D01*
X169218110Y-61454062D01*
X169218574Y-61390957D01*
X169219288Y-61336762D01*
X169220305Y-61290540D01*
X169221675Y-61251351D01*
X169223452Y-61218259D01*
X169225688Y-61190324D01*
X169228434Y-61166610D01*
X169231744Y-61146177D01*
X169235668Y-61128089D01*
X169240260Y-61111407D01*
X169245572Y-61095192D01*
X169251655Y-61078507D01*
X169265044Y-61047145D01*
X169299136Y-60990232D01*
X169342860Y-60941231D01*
X169396113Y-60900230D01*
X169458794Y-60867314D01*
X169530800Y-60842571D01*
X169564373Y-60835517D01*
X169615078Y-60829669D01*
X169670405Y-60827455D01*
X169726221Y-60828876D01*
G37*
G36*
X175070349Y-60849511D02*
G01*
X175102556Y-60849751D01*
X175127878Y-60850233D01*
X175144444Y-60850977D01*
X175150381Y-60851999D01*
X175150369Y-60852049D01*
X175147891Y-60858796D01*
X175141364Y-60876137D01*
X175131173Y-60903060D01*
X175117705Y-60938556D01*
X175101345Y-60981611D01*
X175082479Y-61031216D01*
X175061491Y-61086358D01*
X175038768Y-61146027D01*
X175014696Y-61209211D01*
X174989659Y-61274898D01*
X174964043Y-61342078D01*
X174938234Y-61409739D01*
X174912617Y-61476869D01*
X174887578Y-61542458D01*
X174863502Y-61605494D01*
X174840776Y-61664966D01*
X174819783Y-61719862D01*
X174800911Y-61769172D01*
X174784544Y-61811883D01*
X174771068Y-61846985D01*
X174766015Y-61860191D01*
X174756449Y-61885525D01*
X174748782Y-61906264D01*
X174744325Y-61918878D01*
X174740952Y-61928287D01*
X174733749Y-61947495D01*
X174723846Y-61973498D01*
X174712227Y-62003753D01*
X174699873Y-62035719D01*
X174687767Y-62066856D01*
X174676892Y-62094620D01*
X174668230Y-62116471D01*
X174662764Y-62129867D01*
X174656778Y-62143933D01*
X174476018Y-62143933D01*
X174446692Y-62143921D01*
X174400292Y-62143801D01*
X174364311Y-62143486D01*
X174337389Y-62142895D01*
X174318165Y-62141948D01*
X174305278Y-62140565D01*
X174297366Y-62138665D01*
X174293068Y-62136168D01*
X174291025Y-62132993D01*
X174290490Y-62131597D01*
X174286165Y-62120276D01*
X174277873Y-62098552D01*
X174265965Y-62067348D01*
X174250794Y-62027586D01*
X174232711Y-61980188D01*
X174212068Y-61926077D01*
X174189217Y-61866173D01*
X174164508Y-61801399D01*
X174138295Y-61732678D01*
X174110928Y-61660930D01*
X174082759Y-61587078D01*
X174054140Y-61512044D01*
X174025423Y-61436751D01*
X173996959Y-61362119D01*
X173969100Y-61289071D01*
X173942197Y-61218529D01*
X173916603Y-61151415D01*
X173892669Y-61088651D01*
X173870747Y-61031159D01*
X173866327Y-61019561D01*
X173846772Y-60968053D01*
X173831426Y-60927233D01*
X173819997Y-60896306D01*
X173812194Y-60874476D01*
X173807725Y-60860946D01*
X173806301Y-60854920D01*
X173806848Y-60854529D01*
X173816267Y-60853281D01*
X173836184Y-60852164D01*
X173865056Y-60851222D01*
X173901339Y-60850496D01*
X173943489Y-60850030D01*
X173989961Y-60849865D01*
X174173622Y-60849865D01*
X174195712Y-60913943D01*
X174197817Y-60920061D01*
X174207021Y-60946986D01*
X174219556Y-60983830D01*
X174234926Y-61029122D01*
X174252632Y-61081387D01*
X174272176Y-61139153D01*
X174293060Y-61200947D01*
X174314786Y-61265296D01*
X174336857Y-61330727D01*
X174358774Y-61395766D01*
X174380040Y-61458942D01*
X174400156Y-61518779D01*
X174411301Y-61552641D01*
X174430927Y-61616366D01*
X174446891Y-61674133D01*
X174458852Y-61724569D01*
X174466469Y-61766300D01*
X174469403Y-61797955D01*
X174470490Y-61818143D01*
X174473188Y-61832559D01*
X174476783Y-61835627D01*
X174480620Y-61826977D01*
X174484047Y-61806239D01*
X174487306Y-61780219D01*
X174501161Y-61701973D01*
X174521935Y-61617982D01*
X174550096Y-61526255D01*
X174554071Y-61514317D01*
X174568666Y-61470659D01*
X174585132Y-61421638D01*
X174603050Y-61368483D01*
X174621999Y-61312422D01*
X174641563Y-61254685D01*
X174661320Y-61196503D01*
X174680853Y-61139103D01*
X174699741Y-61083715D01*
X174717567Y-61031570D01*
X174733910Y-60983895D01*
X174748352Y-60941920D01*
X174760474Y-60906875D01*
X174769856Y-60879990D01*
X174776080Y-60862492D01*
X174778726Y-60855613D01*
X174779487Y-60855264D01*
X174789435Y-60854140D01*
X174809342Y-60853094D01*
X174837338Y-60852146D01*
X174871549Y-60851312D01*
X174910106Y-60850612D01*
X174951136Y-60850064D01*
X174992767Y-60849686D01*
X175033129Y-60849495D01*
X175070349Y-60849511D01*
G37*
G36*
X176434309Y-61398025D02*
G01*
X176438798Y-61503150D01*
X176438730Y-61518480D01*
X176434519Y-61608172D01*
X176423442Y-61688904D01*
X176405011Y-61762264D01*
X176378742Y-61829834D01*
X176344150Y-61893200D01*
X176300749Y-61953946D01*
X176293082Y-61963201D01*
X176246342Y-62009561D01*
X176189982Y-62051711D01*
X176126137Y-62088545D01*
X176056944Y-62118956D01*
X175984539Y-62141833D01*
X175911057Y-62156071D01*
X175896846Y-62157578D01*
X175862662Y-62159748D01*
X175820863Y-62161119D01*
X175774604Y-62161694D01*
X175727039Y-62161472D01*
X175681324Y-62160454D01*
X175640613Y-62158640D01*
X175608060Y-62156031D01*
X175572478Y-62151326D01*
X175489973Y-62134678D01*
X175409699Y-62110887D01*
X175336365Y-62081247D01*
X175319173Y-62073159D01*
X175319173Y-61936629D01*
X175319323Y-61898769D01*
X175320038Y-61855777D01*
X175321339Y-61824922D01*
X175323219Y-61806324D01*
X175325673Y-61800098D01*
X175327716Y-61800400D01*
X175339474Y-61804559D01*
X175355590Y-61812044D01*
X175372038Y-61819686D01*
X175405240Y-61832839D01*
X175445024Y-61846721D01*
X175487966Y-61860218D01*
X175530639Y-61872217D01*
X175569619Y-61881605D01*
X175592765Y-61886208D01*
X175622873Y-61890804D01*
X175654734Y-61893781D01*
X175691927Y-61895445D01*
X175738026Y-61896104D01*
X175742385Y-61896125D01*
X175780952Y-61896115D01*
X175809880Y-61895523D01*
X175831772Y-61894099D01*
X175849234Y-61891592D01*
X175864873Y-61887751D01*
X175881293Y-61882326D01*
X175919795Y-61865693D01*
X175968849Y-61833649D01*
X176009439Y-61792539D01*
X176041386Y-61742606D01*
X176064508Y-61684093D01*
X176078627Y-61617241D01*
X176082627Y-61587546D01*
X175665757Y-61587546D01*
X175248888Y-61587546D01*
X175252034Y-61432820D01*
X175252136Y-61427861D01*
X175253295Y-61378331D01*
X175254580Y-61339559D01*
X175581738Y-61339559D01*
X175582341Y-61341897D01*
X175585182Y-61344115D01*
X175591410Y-61345889D01*
X175602163Y-61347269D01*
X175618583Y-61348303D01*
X175641807Y-61349039D01*
X175672976Y-61349527D01*
X175713230Y-61349816D01*
X175763707Y-61349953D01*
X175825548Y-61349988D01*
X176069357Y-61349988D01*
X176069265Y-61329670D01*
X176068976Y-61322524D01*
X176065058Y-61294409D01*
X176057615Y-61261940D01*
X176047995Y-61230412D01*
X176037546Y-61205117D01*
X176025668Y-61185350D01*
X175998548Y-61152263D01*
X175966129Y-61122996D01*
X175932614Y-61101694D01*
X175929159Y-61100022D01*
X175913159Y-61092997D01*
X175898177Y-61088470D01*
X175880834Y-61085893D01*
X175857751Y-61084723D01*
X175825548Y-61084413D01*
X175821559Y-61084409D01*
X175790280Y-61084705D01*
X175767728Y-61085975D01*
X175750493Y-61088741D01*
X175735169Y-61093525D01*
X175718346Y-61100851D01*
X175717881Y-61101070D01*
X175674948Y-61128077D01*
X175639449Y-61164456D01*
X175613069Y-61208482D01*
X175608614Y-61219256D01*
X175598616Y-61249387D01*
X175590021Y-61282755D01*
X175584004Y-61314448D01*
X175581738Y-61339559D01*
X175254580Y-61339559D01*
X175254596Y-61339071D01*
X175256206Y-61308026D01*
X175258295Y-61283144D01*
X175261030Y-61262374D01*
X175264582Y-61243662D01*
X175269119Y-61224957D01*
X175270506Y-61219758D01*
X175297359Y-61142182D01*
X175333584Y-61071670D01*
X175378556Y-61008976D01*
X175431647Y-60954855D01*
X175492230Y-60910060D01*
X175559679Y-60875347D01*
X175586906Y-60864516D01*
X175629371Y-60850236D01*
X175671223Y-60840085D01*
X175715707Y-60833494D01*
X175766067Y-60829894D01*
X175825548Y-60828717D01*
X175826758Y-60828714D01*
X175890741Y-60829981D01*
X175945499Y-60834347D01*
X175993984Y-60842293D01*
X176039147Y-60854300D01*
X176083940Y-60870850D01*
X176153277Y-60904736D01*
X176220476Y-60949762D01*
X176278584Y-61003139D01*
X176327646Y-61064945D01*
X176367706Y-61135258D01*
X176398807Y-61214157D01*
X176420993Y-61301720D01*
X176427667Y-61349988D01*
X176434309Y-61398025D01*
G37*
G36*
X177981527Y-61270318D02*
G01*
X177973120Y-61359365D01*
X177959104Y-61424357D01*
X177930279Y-61507815D01*
X177890486Y-61586128D01*
X177840255Y-61658559D01*
X177780118Y-61724371D01*
X177710603Y-61782827D01*
X177632242Y-61833189D01*
X177604110Y-61848878D01*
X177600984Y-62136616D01*
X177600713Y-62161476D01*
X177599988Y-62224904D01*
X177599301Y-62277352D01*
X177598590Y-62319949D01*
X177597797Y-62353825D01*
X177596863Y-62380108D01*
X177595729Y-62399928D01*
X177594334Y-62414414D01*
X177592620Y-62424696D01*
X177590527Y-62431903D01*
X177587997Y-62437164D01*
X177584969Y-62441608D01*
X177578884Y-62449223D01*
X177550833Y-62473978D01*
X177518947Y-62487755D01*
X177513093Y-62488583D01*
X177494360Y-62489806D01*
X177465867Y-62490839D01*
X177429326Y-62491680D01*
X177386448Y-62492329D01*
X177338945Y-62492784D01*
X177288529Y-62493045D01*
X177236910Y-62493111D01*
X177185801Y-62492981D01*
X177136912Y-62492654D01*
X177091957Y-62492129D01*
X177052645Y-62491406D01*
X177020690Y-62490482D01*
X176997801Y-62489359D01*
X176985692Y-62488033D01*
X176962993Y-62480379D01*
X176934240Y-62461431D01*
X176914042Y-62435648D01*
X176903369Y-62405074D01*
X176903188Y-62371753D01*
X176914469Y-62337731D01*
X176915630Y-62335519D01*
X176932742Y-62312065D01*
X176956838Y-62295533D01*
X176959584Y-62294161D01*
X176967686Y-62290478D01*
X176976315Y-62287585D01*
X176986967Y-62285389D01*
X177001139Y-62283792D01*
X177020329Y-62282700D01*
X177046033Y-62282017D01*
X177079749Y-62281648D01*
X177122974Y-62281496D01*
X177177204Y-62281467D01*
X177369677Y-62281467D01*
X177369677Y-62094736D01*
X177369677Y-61908006D01*
X177286845Y-61904773D01*
X177272431Y-61904103D01*
X177209742Y-61898021D01*
X177152379Y-61886252D01*
X177095739Y-61867631D01*
X177035220Y-61840991D01*
X177020406Y-61833575D01*
X176945334Y-61788173D01*
X176878591Y-61734408D01*
X176820464Y-61673329D01*
X176771240Y-61605987D01*
X176731204Y-61533430D01*
X176700643Y-61456707D01*
X176679843Y-61376869D01*
X176669091Y-61294965D01*
X176668804Y-61237956D01*
X176974589Y-61237956D01*
X176977688Y-61298855D01*
X176991800Y-61359978D01*
X177017531Y-61420105D01*
X177043202Y-61458682D01*
X177080850Y-61498948D01*
X177125552Y-61534691D01*
X177174454Y-61563659D01*
X177224699Y-61583597D01*
X177277729Y-61594861D01*
X177341743Y-61597209D01*
X177404754Y-61587388D01*
X177465784Y-61565567D01*
X177523851Y-61531916D01*
X177537039Y-61522179D01*
X177583649Y-61478448D01*
X177620728Y-61427575D01*
X177647750Y-61370892D01*
X177664188Y-61309735D01*
X177669514Y-61245434D01*
X177663202Y-61179324D01*
X177654101Y-61142703D01*
X177630546Y-61086889D01*
X177597359Y-61036599D01*
X177555924Y-60992804D01*
X177507621Y-60956475D01*
X177453832Y-60928583D01*
X177395938Y-60910100D01*
X177335321Y-60901996D01*
X177273362Y-60905244D01*
X177210350Y-60920410D01*
X177153328Y-60945585D01*
X177103076Y-60979522D01*
X177060201Y-61021002D01*
X177025309Y-61068805D01*
X176999005Y-61121712D01*
X176981897Y-61178502D01*
X176974589Y-61237956D01*
X176668804Y-61237956D01*
X176668673Y-61212044D01*
X176678874Y-61129155D01*
X176699983Y-61047349D01*
X176732284Y-60967674D01*
X176776065Y-60891180D01*
X176788360Y-60872490D01*
X176800883Y-60852887D01*
X176809123Y-60839279D01*
X176811721Y-60833848D01*
X176805994Y-60831381D01*
X176790816Y-60825411D01*
X176768565Y-60816871D01*
X176741603Y-60806675D01*
X176734394Y-60803935D01*
X176695357Y-60787445D01*
X176666725Y-60771543D01*
X176646841Y-60754892D01*
X176634051Y-60736160D01*
X176626700Y-60714010D01*
X176624724Y-60679767D01*
X176633908Y-60646463D01*
X176653733Y-60617929D01*
X176683261Y-60596119D01*
X176684027Y-60595724D01*
X176697672Y-60590337D01*
X176713088Y-60587963D01*
X176731899Y-60588910D01*
X176755730Y-60593483D01*
X176786209Y-60601989D01*
X176824958Y-60614735D01*
X176873605Y-60632028D01*
X176887193Y-60636958D01*
X176925398Y-60650676D01*
X176954130Y-60660595D01*
X176975111Y-60667162D01*
X176990064Y-60670819D01*
X177000710Y-60672012D01*
X177008772Y-60671186D01*
X177015971Y-60668785D01*
X177028596Y-60663580D01*
X177081184Y-60642640D01*
X177125760Y-60626563D01*
X177164931Y-60614738D01*
X177201302Y-60606558D01*
X177237477Y-60601412D01*
X177276063Y-60598692D01*
X177319665Y-60597789D01*
X177334489Y-60597837D01*
X177413071Y-60602434D01*
X177485151Y-60614924D01*
X177553994Y-60636048D01*
X177622865Y-60666546D01*
X177663648Y-60689053D01*
X177735959Y-60739336D01*
X177800005Y-60798075D01*
X177855266Y-60864239D01*
X177901219Y-60936795D01*
X177937343Y-61014713D01*
X177963117Y-61096961D01*
X177978019Y-61182506D01*
X177980533Y-61245434D01*
X177981527Y-61270318D01*
G37*
G36*
X171948772Y-61532362D02*
G01*
X171939011Y-61616666D01*
X171917850Y-61700508D01*
X171884853Y-61782925D01*
X171869210Y-61813424D01*
X171821830Y-61887804D01*
X171765377Y-61955015D01*
X171701004Y-62014201D01*
X171629862Y-62064503D01*
X171553103Y-62105063D01*
X171471877Y-62135024D01*
X171387337Y-62153528D01*
X171306937Y-62160664D01*
X171216273Y-62157560D01*
X171128260Y-62142625D01*
X171043727Y-62116127D01*
X170963507Y-62078335D01*
X170888431Y-62029518D01*
X170819330Y-61969943D01*
X170767333Y-61912405D01*
X170717309Y-61840917D01*
X170677714Y-61764750D01*
X170648576Y-61685017D01*
X170629924Y-61602827D01*
X170622057Y-61522060D01*
X170958474Y-61522060D01*
X170968708Y-61582026D01*
X170989724Y-61638552D01*
X171020748Y-61690286D01*
X171061005Y-61735879D01*
X171109719Y-61773979D01*
X171166117Y-61803236D01*
X171193324Y-61812078D01*
X171236863Y-61820356D01*
X171283385Y-61823946D01*
X171328167Y-61822550D01*
X171366485Y-61815869D01*
X171424026Y-61794241D01*
X171477844Y-61762137D01*
X171523826Y-61721580D01*
X171561103Y-61673697D01*
X171588806Y-61619617D01*
X171606065Y-61560467D01*
X171612011Y-61497375D01*
X171610417Y-61464833D01*
X171598784Y-61404952D01*
X171576845Y-61349701D01*
X171545754Y-61300056D01*
X171506665Y-61256997D01*
X171460731Y-61221502D01*
X171409105Y-61194550D01*
X171352943Y-61177118D01*
X171293396Y-61170187D01*
X171231619Y-61174733D01*
X171190053Y-61184758D01*
X171133822Y-61208484D01*
X171083090Y-61241973D01*
X171039179Y-61283891D01*
X171003413Y-61332905D01*
X170977115Y-61387682D01*
X170961608Y-61446886D01*
X170959798Y-61460002D01*
X170958474Y-61522060D01*
X170622057Y-61522060D01*
X170621788Y-61519294D01*
X170624196Y-61435529D01*
X170637177Y-61352643D01*
X170660761Y-61271748D01*
X170694976Y-61193957D01*
X170739851Y-61120380D01*
X170795415Y-61052129D01*
X170827863Y-61019383D01*
X170897096Y-60961181D01*
X170970841Y-60913689D01*
X171048164Y-60877466D01*
X171128131Y-60853069D01*
X171172507Y-60843042D01*
X171176807Y-60713608D01*
X171177743Y-60686954D01*
X171180745Y-60619591D01*
X171184498Y-60562407D01*
X171189284Y-60513691D01*
X171195383Y-60471732D01*
X171203076Y-60434819D01*
X171212644Y-60401240D01*
X171224367Y-60369283D01*
X171238525Y-60337238D01*
X171249536Y-60315305D01*
X171265599Y-60288983D01*
X171285066Y-60264389D01*
X171311260Y-60236939D01*
X171318736Y-60229678D01*
X171353954Y-60199511D01*
X171392116Y-60173743D01*
X171434579Y-60151916D01*
X171482701Y-60133572D01*
X171537838Y-60118253D01*
X171601349Y-60105500D01*
X171674591Y-60094856D01*
X171758922Y-60085862D01*
X171769272Y-60085015D01*
X171790345Y-60083744D01*
X171816805Y-60082640D01*
X171849301Y-60081697D01*
X171888478Y-60080910D01*
X171934983Y-60080275D01*
X171989464Y-60079785D01*
X172052567Y-60079436D01*
X172124938Y-60079221D01*
X172207225Y-60079136D01*
X172300074Y-60079176D01*
X172404133Y-60079335D01*
X172520047Y-60079607D01*
X172547160Y-60079676D01*
X172651102Y-60079876D01*
X172747496Y-60079954D01*
X172835848Y-60079912D01*
X172915661Y-60079753D01*
X172986440Y-60079481D01*
X173047689Y-60079099D01*
X173098914Y-60078609D01*
X173139617Y-60078014D01*
X173169305Y-60077318D01*
X173187481Y-60076522D01*
X173193650Y-60075631D01*
X173193654Y-60075375D01*
X173198079Y-60063170D01*
X173209392Y-60045056D01*
X173225485Y-60023663D01*
X173244254Y-60001621D01*
X173263593Y-59981556D01*
X173281394Y-59966100D01*
X173318243Y-59942090D01*
X173360876Y-59923996D01*
X173407551Y-59914653D01*
X173461474Y-59913117D01*
X173483728Y-59914081D01*
X173507663Y-59916246D01*
X173526900Y-59920323D01*
X173546012Y-59927384D01*
X173569570Y-59938503D01*
X173605593Y-59959575D01*
X173647837Y-59995070D01*
X173681035Y-60036501D01*
X173705179Y-60082415D01*
X173720265Y-60131365D01*
X173726285Y-60181899D01*
X173723233Y-60232568D01*
X173711104Y-60281922D01*
X173689891Y-60328511D01*
X173659589Y-60370884D01*
X173620190Y-60407592D01*
X173571689Y-60437184D01*
X173528343Y-60453700D01*
X173473859Y-60463605D01*
X173419161Y-60462808D01*
X173365970Y-60451865D01*
X173316004Y-60431332D01*
X173270984Y-60401765D01*
X173232630Y-60363723D01*
X173202660Y-60317760D01*
X173186816Y-60286492D01*
X172488498Y-60289059D01*
X172454883Y-60289183D01*
X172343438Y-60289621D01*
X172243520Y-60290072D01*
X172154364Y-60290566D01*
X172075209Y-60291130D01*
X172005292Y-60291793D01*
X171943851Y-60292583D01*
X171890124Y-60293527D01*
X171843347Y-60294654D01*
X171802758Y-60295991D01*
X171767595Y-60297568D01*
X171737096Y-60299412D01*
X171710498Y-60301551D01*
X171687038Y-60304013D01*
X171665954Y-60306826D01*
X171646484Y-60310019D01*
X171627865Y-60313620D01*
X171609335Y-60317655D01*
X171590130Y-60322155D01*
X171573573Y-60326316D01*
X171532529Y-60339014D01*
X171498046Y-60354313D01*
X171469546Y-60373305D01*
X171446447Y-60397081D01*
X171428170Y-60426735D01*
X171414135Y-60463358D01*
X171403763Y-60508043D01*
X171396474Y-60561882D01*
X171391688Y-60625967D01*
X171388825Y-60701391D01*
X171388653Y-60708082D01*
X171387563Y-60752196D01*
X171386920Y-60785521D01*
X171386823Y-60809572D01*
X171387366Y-60825858D01*
X171388645Y-60835894D01*
X171390758Y-60841190D01*
X171393799Y-60843259D01*
X171397865Y-60843613D01*
X171401694Y-60843957D01*
X171417370Y-60846971D01*
X171439960Y-60852421D01*
X171465963Y-60859490D01*
X171515494Y-60875758D01*
X171595707Y-60911723D01*
X171668888Y-60956854D01*
X171734600Y-61010189D01*
X171792407Y-61070765D01*
X171841871Y-61137619D01*
X171882556Y-61209788D01*
X171914026Y-61286310D01*
X171935843Y-61366221D01*
X171947571Y-61448560D01*
X171948271Y-61497375D01*
X171948772Y-61532362D01*
G37*
D16*
X171885000Y-80475804D02*
X171885000Y-111235204D01*
X169116400Y-80475804D02*
X171885000Y-80475804D01*
X165077800Y-80475804D02*
X166068400Y-80475804D01*
X165077800Y-83117404D02*
X165077800Y-80475804D01*
X171885000Y-111235204D02*
X169116400Y-111235204D01*
X166068400Y-111235204D02*
X165077800Y-111235204D01*
X165077800Y-111235204D02*
X165077800Y-108593604D01*
D17*
X164900000Y-79078804D02*
G75*
G03*
X164900000Y-78316804I0J381000D01*
G01*
X164900000Y-78316804D02*
G75*
G03*
X164900000Y-79078804I0J-381000D01*
G01*
D15*
X142890000Y-85446359D02*
X142890000Y-85753641D01*
X142130000Y-85446359D02*
X142130000Y-85753641D01*
X133119000Y-90544000D02*
X133119000Y-86534000D01*
X135119000Y-90544000D02*
X133119000Y-90544000D01*
X135119000Y-90544000D02*
X135119000Y-86534000D01*
X146817836Y-81960000D02*
X146602164Y-81960000D01*
X146817836Y-81240000D02*
X146602164Y-81240000D01*
X134593641Y-91880000D02*
X134286359Y-91880000D01*
X134593641Y-91120000D02*
X134286359Y-91120000D01*
X129612362Y-110644500D02*
X130086878Y-110644500D01*
X129612362Y-111689500D02*
X130086878Y-111689500D01*
X144452641Y-85239000D02*
X144145359Y-85239000D01*
X144452641Y-84479000D02*
X144145359Y-84479000D01*
X146897836Y-83160000D02*
X146682164Y-83160000D01*
X146897836Y-82440000D02*
X146682164Y-82440000D01*
X135111000Y-80640000D02*
X135111000Y-84650000D01*
X133111000Y-80640000D02*
X135111000Y-80640000D01*
X133111000Y-80640000D02*
X133111000Y-84650000D01*
X144463641Y-86380000D02*
X144156359Y-86380000D01*
X144463641Y-85620000D02*
X144156359Y-85620000D01*
M02*
