G04 #@! TF.GenerationSoftware,KiCad,Pcbnew,7.0.10*
G04 #@! TF.CreationDate,2024-01-26T21:22:08+03:00*
G04 #@! TF.ProjectId,Eco_display,45636f5f-6469-4737-906c-61792e6b6963,rev?*
G04 #@! TF.SameCoordinates,Original*
G04 #@! TF.FileFunction,Legend,Bot*
G04 #@! TF.FilePolarity,Positive*
%FSLAX46Y46*%
G04 Gerber Fmt 4.6, Leading zero omitted, Abs format (unit mm)*
G04 Created by KiCad (PCBNEW 7.0.10) date 2024-01-26 21:22:08*
%MOMM*%
%LPD*%
G01*
G04 APERTURE LIST*
%ADD10C,0.150000*%
%ADD11C,0.001000*%
%ADD12C,0.300000*%
%ADD13C,0.071628*%
%ADD14C,0.120000*%
%ADD15C,0.500000*%
%ADD16C,0.152400*%
%ADD17C,0.508000*%
G04 APERTURE END LIST*
D10*
X147400000Y-77800000D02*
X147400000Y-76200000D01*
X149200000Y-60400000D02*
X149200000Y-59000000D01*
X151300000Y-73700000D02*
G75*
G03*
X150900000Y-73700000I-200000J0D01*
G01*
X150900000Y-73700000D02*
G75*
G03*
X151300000Y-73700000I200000J0D01*
G01*
X151200000Y-73700000D02*
G75*
G03*
X151000000Y-73700000I-100000J0D01*
G01*
X151000000Y-73700000D02*
G75*
G03*
X151200000Y-73700000I100000J0D01*
G01*
X150200000Y-59800000D02*
X147200000Y-59800000D01*
X153600000Y-91600000D02*
G75*
G03*
X153000000Y-91600000I-300000J0D01*
G01*
X153000000Y-91600000D02*
G75*
G03*
X153600000Y-91600000I300000J0D01*
G01*
X150800000Y-60500000D02*
G75*
G03*
X150600000Y-60500000I-100000J0D01*
G01*
X150600000Y-60500000D02*
G75*
G03*
X150800000Y-60500000I100000J0D01*
G01*
X149200000Y-77000000D02*
X146200000Y-77000000D01*
X150900000Y-60500000D02*
G75*
G03*
X150500000Y-60500000I-200000J0D01*
G01*
X150500000Y-60500000D02*
G75*
G03*
X150900000Y-60500000I200000J0D01*
G01*
X149200000Y-59800000D02*
X148400000Y-60600000D01*
X147400000Y-76200000D02*
X148200000Y-77000000D01*
X148400000Y-59000000D02*
X149200000Y-59800000D01*
X153500000Y-91600000D02*
G75*
G03*
X153100000Y-91600000I-200000J0D01*
G01*
X153100000Y-91600000D02*
G75*
G03*
X153500000Y-91600000I200000J0D01*
G01*
X148200000Y-77600000D02*
X148200000Y-76200000D01*
X148200000Y-77000000D02*
X147400000Y-77800000D01*
X151000000Y-60500000D02*
G75*
G03*
X150400000Y-60500000I-300000J0D01*
G01*
X150400000Y-60500000D02*
G75*
G03*
X151000000Y-60500000I300000J0D01*
G01*
X153400000Y-91600000D02*
G75*
G03*
X153200000Y-91600000I-100000J0D01*
G01*
X153200000Y-91600000D02*
G75*
G03*
X153400000Y-91600000I100000J0D01*
G01*
X151400000Y-73700000D02*
G75*
G03*
X150800000Y-73700000I-300000J0D01*
G01*
X150800000Y-73700000D02*
G75*
G03*
X151400000Y-73700000I300000J0D01*
G01*
D11*
X166984725Y-111565610D02*
X161684725Y-111565610D01*
D10*
X148400000Y-60600000D02*
X148400000Y-59000000D01*
X146510839Y-77984104D02*
X146034649Y-77984104D01*
X146606077Y-78269819D02*
X146272744Y-77269819D01*
X146272744Y-77269819D02*
X145939411Y-78269819D01*
X146510839Y-59984104D02*
X146034649Y-59984104D01*
X146606077Y-60269819D02*
X146272744Y-59269819D01*
X146272744Y-59269819D02*
X145939411Y-60269819D01*
X151863220Y-60269819D02*
X151863220Y-59269819D01*
X151291792Y-60269819D02*
X151720363Y-59698390D01*
X151291792Y-59269819D02*
X151863220Y-59841247D01*
X148736779Y-77330180D02*
X148736779Y-78330180D01*
X149308207Y-77330180D02*
X148879636Y-77901609D01*
X149308207Y-78330180D02*
X148736779Y-77758752D01*
D12*
X160216917Y-110900828D02*
X160216917Y-111972257D01*
X160216917Y-111972257D02*
X160288346Y-112186542D01*
X160288346Y-112186542D02*
X160431203Y-112329400D01*
X160431203Y-112329400D02*
X160645489Y-112400828D01*
X160645489Y-112400828D02*
X160788346Y-112400828D01*
X158716917Y-112400828D02*
X159574060Y-112400828D01*
X159145489Y-112400828D02*
X159145489Y-110900828D01*
X159145489Y-110900828D02*
X159288346Y-111115114D01*
X159288346Y-111115114D02*
X159431203Y-111257971D01*
X159431203Y-111257971D02*
X159574060Y-111329400D01*
D10*
X134581858Y-115985057D02*
X134677096Y-115937438D01*
X134677096Y-115937438D02*
X134772334Y-115842200D01*
X134772334Y-115842200D02*
X134915191Y-115699342D01*
X134915191Y-115699342D02*
X135010429Y-115651723D01*
X135010429Y-115651723D02*
X135105667Y-115651723D01*
X135058048Y-115889819D02*
X135153286Y-115842200D01*
X135153286Y-115842200D02*
X135248524Y-115746961D01*
X135248524Y-115746961D02*
X135296143Y-115556485D01*
X135296143Y-115556485D02*
X135296143Y-115223152D01*
X135296143Y-115223152D02*
X135248524Y-115032676D01*
X135248524Y-115032676D02*
X135153286Y-114937438D01*
X135153286Y-114937438D02*
X135058048Y-114889819D01*
X135058048Y-114889819D02*
X134867572Y-114889819D01*
X134867572Y-114889819D02*
X134772334Y-114937438D01*
X134772334Y-114937438D02*
X134677096Y-115032676D01*
X134677096Y-115032676D02*
X134629477Y-115223152D01*
X134629477Y-115223152D02*
X134629477Y-115556485D01*
X134629477Y-115556485D02*
X134677096Y-115746961D01*
X134677096Y-115746961D02*
X134772334Y-115842200D01*
X134772334Y-115842200D02*
X134867572Y-115889819D01*
X134867572Y-115889819D02*
X135058048Y-115889819D01*
X133677096Y-115889819D02*
X134248524Y-115889819D01*
X133962810Y-115889819D02*
X133962810Y-114889819D01*
X133962810Y-114889819D02*
X134058048Y-115032676D01*
X134058048Y-115032676D02*
X134153286Y-115127914D01*
X134153286Y-115127914D02*
X134248524Y-115175533D01*
X130006286Y-115869819D02*
X130339619Y-115393628D01*
X130577714Y-115869819D02*
X130577714Y-114869819D01*
X130577714Y-114869819D02*
X130196762Y-114869819D01*
X130196762Y-114869819D02*
X130101524Y-114917438D01*
X130101524Y-114917438D02*
X130053905Y-114965057D01*
X130053905Y-114965057D02*
X130006286Y-115060295D01*
X130006286Y-115060295D02*
X130006286Y-115203152D01*
X130006286Y-115203152D02*
X130053905Y-115298390D01*
X130053905Y-115298390D02*
X130101524Y-115346009D01*
X130101524Y-115346009D02*
X130196762Y-115393628D01*
X130196762Y-115393628D02*
X130577714Y-115393628D01*
X129625333Y-114965057D02*
X129577714Y-114917438D01*
X129577714Y-114917438D02*
X129482476Y-114869819D01*
X129482476Y-114869819D02*
X129244381Y-114869819D01*
X129244381Y-114869819D02*
X129149143Y-114917438D01*
X129149143Y-114917438D02*
X129101524Y-114965057D01*
X129101524Y-114965057D02*
X129053905Y-115060295D01*
X129053905Y-115060295D02*
X129053905Y-115155533D01*
X129053905Y-115155533D02*
X129101524Y-115298390D01*
X129101524Y-115298390D02*
X129672952Y-115869819D01*
X129672952Y-115869819D02*
X129053905Y-115869819D01*
X139916572Y-108725009D02*
X139773715Y-108772628D01*
X139773715Y-108772628D02*
X139726096Y-108820247D01*
X139726096Y-108820247D02*
X139678477Y-108915485D01*
X139678477Y-108915485D02*
X139678477Y-109058342D01*
X139678477Y-109058342D02*
X139726096Y-109153580D01*
X139726096Y-109153580D02*
X139773715Y-109201200D01*
X139773715Y-109201200D02*
X139868953Y-109248819D01*
X139868953Y-109248819D02*
X140249905Y-109248819D01*
X140249905Y-109248819D02*
X140249905Y-108248819D01*
X140249905Y-108248819D02*
X139916572Y-108248819D01*
X139916572Y-108248819D02*
X139821334Y-108296438D01*
X139821334Y-108296438D02*
X139773715Y-108344057D01*
X139773715Y-108344057D02*
X139726096Y-108439295D01*
X139726096Y-108439295D02*
X139726096Y-108534533D01*
X139726096Y-108534533D02*
X139773715Y-108629771D01*
X139773715Y-108629771D02*
X139821334Y-108677390D01*
X139821334Y-108677390D02*
X139916572Y-108725009D01*
X139916572Y-108725009D02*
X140249905Y-108725009D01*
X139345143Y-108248819D02*
X138678477Y-108248819D01*
X138678477Y-108248819D02*
X139345143Y-109248819D01*
X139345143Y-109248819D02*
X138678477Y-109248819D01*
X137773715Y-109248819D02*
X138345143Y-109248819D01*
X138059429Y-109248819D02*
X138059429Y-108248819D01*
X138059429Y-108248819D02*
X138154667Y-108391676D01*
X138154667Y-108391676D02*
X138249905Y-108486914D01*
X138249905Y-108486914D02*
X138345143Y-108534533D01*
X129883571Y-105711866D02*
X129121667Y-105711866D01*
X129502619Y-106092819D02*
X129502619Y-105330914D01*
X130016286Y-113051819D02*
X130349619Y-112575628D01*
X130587714Y-113051819D02*
X130587714Y-112051819D01*
X130587714Y-112051819D02*
X130206762Y-112051819D01*
X130206762Y-112051819D02*
X130111524Y-112099438D01*
X130111524Y-112099438D02*
X130063905Y-112147057D01*
X130063905Y-112147057D02*
X130016286Y-112242295D01*
X130016286Y-112242295D02*
X130016286Y-112385152D01*
X130016286Y-112385152D02*
X130063905Y-112480390D01*
X130063905Y-112480390D02*
X130111524Y-112528009D01*
X130111524Y-112528009D02*
X130206762Y-112575628D01*
X130206762Y-112575628D02*
X130587714Y-112575628D01*
X129682952Y-112051819D02*
X129063905Y-112051819D01*
X129063905Y-112051819D02*
X129397238Y-112432771D01*
X129397238Y-112432771D02*
X129254381Y-112432771D01*
X129254381Y-112432771D02*
X129159143Y-112480390D01*
X129159143Y-112480390D02*
X129111524Y-112528009D01*
X129111524Y-112528009D02*
X129063905Y-112623247D01*
X129063905Y-112623247D02*
X129063905Y-112861342D01*
X129063905Y-112861342D02*
X129111524Y-112956580D01*
X129111524Y-112956580D02*
X129159143Y-113004200D01*
X129159143Y-113004200D02*
X129254381Y-113051819D01*
X129254381Y-113051819D02*
X129540095Y-113051819D01*
X129540095Y-113051819D02*
X129635333Y-113004200D01*
X129635333Y-113004200D02*
X129682952Y-112956580D01*
D13*
X167307179Y-90469819D02*
X167307179Y-90367348D01*
X167307179Y-90367348D02*
X167332797Y-90312910D01*
X167332797Y-90312910D02*
X167358415Y-90284090D01*
X167358415Y-90284090D02*
X167435268Y-90223248D01*
X167435268Y-90223248D02*
X167537739Y-90184822D01*
X167537739Y-90184822D02*
X167742680Y-90159204D01*
X167742680Y-90159204D02*
X167793916Y-90178417D01*
X167793916Y-90178417D02*
X167819534Y-90200833D01*
X167819534Y-90200833D02*
X167845151Y-90248866D01*
X167845151Y-90248866D02*
X167845151Y-90351337D01*
X167845151Y-90351337D02*
X167819534Y-90405775D01*
X167819534Y-90405775D02*
X167793916Y-90434594D01*
X167793916Y-90434594D02*
X167742680Y-90466617D01*
X167742680Y-90466617D02*
X167614592Y-90482628D01*
X167614592Y-90482628D02*
X167563356Y-90463414D01*
X167563356Y-90463414D02*
X167537739Y-90440999D01*
X167537739Y-90440999D02*
X167512121Y-90392966D01*
X167512121Y-90392966D02*
X167512121Y-90290495D01*
X167512121Y-90290495D02*
X167537739Y-90236057D01*
X167537739Y-90236057D02*
X167563356Y-90207237D01*
X167563356Y-90207237D02*
X167614592Y-90175215D01*
X167358415Y-90719591D02*
X167332797Y-90748411D01*
X167332797Y-90748411D02*
X167307179Y-90802849D01*
X167307179Y-90802849D02*
X167307179Y-90930937D01*
X167307179Y-90930937D02*
X167332797Y-90978971D01*
X167332797Y-90978971D02*
X167358415Y-91001386D01*
X167358415Y-91001386D02*
X167409650Y-91020599D01*
X167409650Y-91020599D02*
X167460886Y-91014195D01*
X167460886Y-91014195D02*
X167537739Y-90978971D01*
X167537739Y-90978971D02*
X167845151Y-90633131D01*
X167845151Y-90633131D02*
X167845151Y-90966162D01*
X167307179Y-91494527D02*
X167307179Y-91392056D01*
X167307179Y-91392056D02*
X167332797Y-91337618D01*
X167332797Y-91337618D02*
X167358415Y-91308798D01*
X167358415Y-91308798D02*
X167435268Y-91247956D01*
X167435268Y-91247956D02*
X167537739Y-91209530D01*
X167537739Y-91209530D02*
X167742680Y-91183912D01*
X167742680Y-91183912D02*
X167793916Y-91203125D01*
X167793916Y-91203125D02*
X167819534Y-91225541D01*
X167819534Y-91225541D02*
X167845151Y-91273574D01*
X167845151Y-91273574D02*
X167845151Y-91376045D01*
X167845151Y-91376045D02*
X167819534Y-91430483D01*
X167819534Y-91430483D02*
X167793916Y-91459302D01*
X167793916Y-91459302D02*
X167742680Y-91491325D01*
X167742680Y-91491325D02*
X167614592Y-91507336D01*
X167614592Y-91507336D02*
X167563356Y-91488122D01*
X167563356Y-91488122D02*
X167537739Y-91465707D01*
X167537739Y-91465707D02*
X167512121Y-91417674D01*
X167512121Y-91417674D02*
X167512121Y-91315203D01*
X167512121Y-91315203D02*
X167537739Y-91260765D01*
X167537739Y-91260765D02*
X167563356Y-91231945D01*
X167563356Y-91231945D02*
X167614592Y-91199923D01*
X167537739Y-91824355D02*
X167512121Y-91776321D01*
X167512121Y-91776321D02*
X167486503Y-91753906D01*
X167486503Y-91753906D02*
X167435268Y-91734693D01*
X167435268Y-91734693D02*
X167409650Y-91737895D01*
X167409650Y-91737895D02*
X167358415Y-91769917D01*
X167358415Y-91769917D02*
X167332797Y-91798737D01*
X167332797Y-91798737D02*
X167307179Y-91853175D01*
X167307179Y-91853175D02*
X167307179Y-91955645D01*
X167307179Y-91955645D02*
X167332797Y-92003679D01*
X167332797Y-92003679D02*
X167358415Y-92026094D01*
X167358415Y-92026094D02*
X167409650Y-92045307D01*
X167409650Y-92045307D02*
X167435268Y-92042105D01*
X167435268Y-92042105D02*
X167486503Y-92010083D01*
X167486503Y-92010083D02*
X167512121Y-91981263D01*
X167512121Y-91981263D02*
X167537739Y-91926825D01*
X167537739Y-91926825D02*
X167537739Y-91824355D01*
X167537739Y-91824355D02*
X167563356Y-91769917D01*
X167563356Y-91769917D02*
X167588974Y-91741097D01*
X167588974Y-91741097D02*
X167640210Y-91709075D01*
X167640210Y-91709075D02*
X167742680Y-91696266D01*
X167742680Y-91696266D02*
X167793916Y-91715479D01*
X167793916Y-91715479D02*
X167819534Y-91737895D01*
X167819534Y-91737895D02*
X167845151Y-91785928D01*
X167845151Y-91785928D02*
X167845151Y-91888399D01*
X167845151Y-91888399D02*
X167819534Y-91942837D01*
X167819534Y-91942837D02*
X167793916Y-91971656D01*
X167793916Y-91971656D02*
X167742680Y-92003679D01*
X167742680Y-92003679D02*
X167640210Y-92016487D01*
X167640210Y-92016487D02*
X167588974Y-91997274D01*
X167588974Y-91997274D02*
X167563356Y-91974859D01*
X167563356Y-91974859D02*
X167537739Y-91926825D01*
X167486503Y-92496819D02*
X167845151Y-92451988D01*
X167281562Y-92394348D02*
X167665827Y-92218227D01*
X167665827Y-92218227D02*
X167665827Y-92551257D01*
X167640210Y-92759401D02*
X167640210Y-93169284D01*
X167307179Y-93723268D02*
X167307179Y-93467090D01*
X167307179Y-93467090D02*
X167563356Y-93409451D01*
X167563356Y-93409451D02*
X167537739Y-93438270D01*
X167537739Y-93438270D02*
X167512121Y-93492708D01*
X167512121Y-93492708D02*
X167512121Y-93620797D01*
X167512121Y-93620797D02*
X167537739Y-93668830D01*
X167537739Y-93668830D02*
X167563356Y-93691245D01*
X167563356Y-93691245D02*
X167614592Y-93710459D01*
X167614592Y-93710459D02*
X167742680Y-93694448D01*
X167742680Y-93694448D02*
X167793916Y-93662425D01*
X167793916Y-93662425D02*
X167819534Y-93633606D01*
X167819534Y-93633606D02*
X167845151Y-93579168D01*
X167845151Y-93579168D02*
X167845151Y-93451079D01*
X167845151Y-93451079D02*
X167819534Y-93403046D01*
X167819534Y-93403046D02*
X167793916Y-93380631D01*
X167307179Y-94081915D02*
X167307179Y-94133151D01*
X167307179Y-94133151D02*
X167332797Y-94181184D01*
X167332797Y-94181184D02*
X167358415Y-94203599D01*
X167358415Y-94203599D02*
X167409650Y-94222813D01*
X167409650Y-94222813D02*
X167512121Y-94235622D01*
X167512121Y-94235622D02*
X167640210Y-94219610D01*
X167640210Y-94219610D02*
X167742680Y-94181184D01*
X167742680Y-94181184D02*
X167793916Y-94149162D01*
X167793916Y-94149162D02*
X167819534Y-94120342D01*
X167819534Y-94120342D02*
X167845151Y-94065904D01*
X167845151Y-94065904D02*
X167845151Y-94014669D01*
X167845151Y-94014669D02*
X167819534Y-93966636D01*
X167819534Y-93966636D02*
X167793916Y-93944220D01*
X167793916Y-93944220D02*
X167742680Y-93925007D01*
X167742680Y-93925007D02*
X167640210Y-93912198D01*
X167640210Y-93912198D02*
X167512121Y-93928209D01*
X167512121Y-93928209D02*
X167409650Y-93966636D01*
X167409650Y-93966636D02*
X167358415Y-93998658D01*
X167358415Y-93998658D02*
X167332797Y-94027478D01*
X167332797Y-94027478D02*
X167307179Y-94081915D01*
X167845151Y-94706347D02*
X167845151Y-94398934D01*
X167845151Y-94552640D02*
X167307179Y-94619887D01*
X167307179Y-94619887D02*
X167384032Y-94559045D01*
X167384032Y-94559045D02*
X167435268Y-94501405D01*
X167435268Y-94501405D02*
X167460886Y-94446967D01*
X167845151Y-95218701D02*
X167845151Y-94911288D01*
X167845151Y-95064994D02*
X167307179Y-95132241D01*
X167307179Y-95132241D02*
X167384032Y-95071399D01*
X167384032Y-95071399D02*
X167435268Y-95013759D01*
X167435268Y-95013759D02*
X167460886Y-94959321D01*
X167307179Y-95618977D02*
X167307179Y-95670213D01*
X167307179Y-95670213D02*
X167332797Y-95718246D01*
X167332797Y-95718246D02*
X167358415Y-95740661D01*
X167358415Y-95740661D02*
X167409650Y-95759875D01*
X167409650Y-95759875D02*
X167512121Y-95772684D01*
X167512121Y-95772684D02*
X167640210Y-95756672D01*
X167640210Y-95756672D02*
X167742680Y-95718246D01*
X167742680Y-95718246D02*
X167793916Y-95686224D01*
X167793916Y-95686224D02*
X167819534Y-95657404D01*
X167819534Y-95657404D02*
X167845151Y-95602966D01*
X167845151Y-95602966D02*
X167845151Y-95551731D01*
X167845151Y-95551731D02*
X167819534Y-95503698D01*
X167819534Y-95503698D02*
X167793916Y-95481282D01*
X167793916Y-95481282D02*
X167742680Y-95462069D01*
X167742680Y-95462069D02*
X167640210Y-95449260D01*
X167640210Y-95449260D02*
X167512121Y-95465271D01*
X167512121Y-95465271D02*
X167409650Y-95503698D01*
X167409650Y-95503698D02*
X167358415Y-95535720D01*
X167358415Y-95535720D02*
X167332797Y-95564540D01*
X167332797Y-95564540D02*
X167307179Y-95618977D01*
X167307179Y-96131331D02*
X167307179Y-96182567D01*
X167307179Y-96182567D02*
X167332797Y-96230600D01*
X167332797Y-96230600D02*
X167358415Y-96253015D01*
X167358415Y-96253015D02*
X167409650Y-96272229D01*
X167409650Y-96272229D02*
X167512121Y-96285038D01*
X167512121Y-96285038D02*
X167640210Y-96269026D01*
X167640210Y-96269026D02*
X167742680Y-96230600D01*
X167742680Y-96230600D02*
X167793916Y-96198578D01*
X167793916Y-96198578D02*
X167819534Y-96169758D01*
X167819534Y-96169758D02*
X167845151Y-96115320D01*
X167845151Y-96115320D02*
X167845151Y-96064085D01*
X167845151Y-96064085D02*
X167819534Y-96016052D01*
X167819534Y-96016052D02*
X167793916Y-95993636D01*
X167793916Y-95993636D02*
X167742680Y-95974423D01*
X167742680Y-95974423D02*
X167640210Y-95961614D01*
X167640210Y-95961614D02*
X167512121Y-95977625D01*
X167512121Y-95977625D02*
X167409650Y-96016052D01*
X167409650Y-96016052D02*
X167358415Y-96048074D01*
X167358415Y-96048074D02*
X167332797Y-96076894D01*
X167332797Y-96076894D02*
X167307179Y-96131331D01*
X167691445Y-96467563D02*
X167691445Y-96723741D01*
X167845151Y-96397115D02*
X167307179Y-96643685D01*
X167307179Y-96643685D02*
X167845151Y-96755763D01*
X167845151Y-97191264D02*
X167845151Y-96935087D01*
X167845151Y-96935087D02*
X167307179Y-97002333D01*
X167563356Y-97585136D02*
X167563356Y-97405812D01*
X167845151Y-97370588D02*
X167307179Y-97437834D01*
X167307179Y-97437834D02*
X167307179Y-97694012D01*
D10*
X152438094Y-75314819D02*
X152438094Y-74314819D01*
X152438094Y-74314819D02*
X152199999Y-74314819D01*
X152199999Y-74314819D02*
X152057142Y-74362438D01*
X152057142Y-74362438D02*
X151961904Y-74457676D01*
X151961904Y-74457676D02*
X151914285Y-74552914D01*
X151914285Y-74552914D02*
X151866666Y-74743390D01*
X151866666Y-74743390D02*
X151866666Y-74886247D01*
X151866666Y-74886247D02*
X151914285Y-75076723D01*
X151914285Y-75076723D02*
X151961904Y-75171961D01*
X151961904Y-75171961D02*
X152057142Y-75267200D01*
X152057142Y-75267200D02*
X152199999Y-75314819D01*
X152199999Y-75314819D02*
X152438094Y-75314819D01*
X150914285Y-75314819D02*
X151485713Y-75314819D01*
X151199999Y-75314819D02*
X151199999Y-74314819D01*
X151199999Y-74314819D02*
X151295237Y-74457676D01*
X151295237Y-74457676D02*
X151390475Y-74552914D01*
X151390475Y-74552914D02*
X151485713Y-74600533D01*
X152838094Y-62314819D02*
X152838094Y-61314819D01*
X152838094Y-61314819D02*
X152599999Y-61314819D01*
X152599999Y-61314819D02*
X152457142Y-61362438D01*
X152457142Y-61362438D02*
X152361904Y-61457676D01*
X152361904Y-61457676D02*
X152314285Y-61552914D01*
X152314285Y-61552914D02*
X152266666Y-61743390D01*
X152266666Y-61743390D02*
X152266666Y-61886247D01*
X152266666Y-61886247D02*
X152314285Y-62076723D01*
X152314285Y-62076723D02*
X152361904Y-62171961D01*
X152361904Y-62171961D02*
X152457142Y-62267200D01*
X152457142Y-62267200D02*
X152599999Y-62314819D01*
X152599999Y-62314819D02*
X152838094Y-62314819D01*
X151885713Y-61410057D02*
X151838094Y-61362438D01*
X151838094Y-61362438D02*
X151742856Y-61314819D01*
X151742856Y-61314819D02*
X151504761Y-61314819D01*
X151504761Y-61314819D02*
X151409523Y-61362438D01*
X151409523Y-61362438D02*
X151361904Y-61410057D01*
X151361904Y-61410057D02*
X151314285Y-61505295D01*
X151314285Y-61505295D02*
X151314285Y-61600533D01*
X151314285Y-61600533D02*
X151361904Y-61743390D01*
X151361904Y-61743390D02*
X151933332Y-62314819D01*
X151933332Y-62314819D02*
X151314285Y-62314819D01*
D14*
X134486620Y-114595000D02*
X132811620Y-114595000D01*
X134486620Y-114595000D02*
X135136620Y-114595000D01*
X134486620Y-111475000D02*
X133836620Y-111475000D01*
X134486620Y-111475000D02*
X135136620Y-111475000D01*
X129602362Y-114507500D02*
X130076878Y-114507500D01*
X129602362Y-113462500D02*
X130076878Y-113462500D01*
X138852620Y-103838000D02*
G75*
G03*
X126652620Y-103838000I-6100000J0D01*
G01*
X126652620Y-103838000D02*
G75*
G03*
X138852620Y-103838000I6100000J0D01*
G01*
X129612362Y-111689500D02*
X130086878Y-111689500D01*
X129612362Y-110644500D02*
X130086878Y-110644500D01*
X152725000Y-68660000D02*
X145825000Y-68660000D01*
X145825000Y-68660000D02*
X145825000Y-73060000D01*
X145825000Y-73060000D02*
X152725000Y-73060000D01*
X152725000Y-73060000D02*
X152725000Y-68660000D01*
D15*
X153525000Y-70860000D02*
G75*
G03*
X153125000Y-70860000I-200000J0D01*
G01*
X153125000Y-70860000D02*
G75*
G03*
X153525000Y-70860000I200000J0D01*
G01*
D14*
X152120000Y-93053641D02*
X152120000Y-92746359D01*
X152880000Y-93053641D02*
X152880000Y-92746359D01*
X132025000Y-95475000D02*
X129175000Y-95475000D01*
X121965000Y-95235000D02*
X121965000Y-90035000D01*
X131785000Y-95235000D02*
X121965000Y-95235000D01*
X132025000Y-92625000D02*
X132025000Y-95475000D01*
X120565000Y-90035000D02*
X120565000Y-88225000D01*
X121965000Y-90035000D02*
X120565000Y-90035000D01*
X131785000Y-88225000D02*
X131785000Y-95235000D01*
X131785000Y-88225000D02*
X131785000Y-81215000D01*
X120565000Y-86415000D02*
X120565000Y-88225000D01*
X121965000Y-86415000D02*
X120565000Y-86415000D01*
X121965000Y-81215000D02*
X121965000Y-86415000D01*
X131785000Y-81215000D02*
X121965000Y-81215000D01*
X153060000Y-78260000D02*
X153060000Y-77610000D01*
X153060000Y-78260000D02*
X153060000Y-78910000D01*
X149940000Y-78260000D02*
X149940000Y-76585000D01*
X149940000Y-78260000D02*
X149940000Y-78910000D01*
X154660000Y-87422164D02*
X154660000Y-87637836D01*
X153940000Y-87422164D02*
X153940000Y-87637836D01*
X150290000Y-88060000D02*
X150290000Y-89560000D01*
X150290000Y-88060000D02*
X150290000Y-86560000D01*
X153510000Y-88060000D02*
X153510000Y-90985000D01*
X153510000Y-88060000D02*
X153510000Y-86560000D01*
X151680000Y-92746359D02*
X151680000Y-93053641D01*
X150920000Y-92746359D02*
X150920000Y-93053641D01*
D16*
X171885000Y-77775800D02*
X171885000Y-108535200D01*
X169116400Y-77775800D02*
X171885000Y-77775800D01*
X165077800Y-77775800D02*
X166068400Y-77775800D01*
X165077800Y-80417400D02*
X165077800Y-77775800D01*
X171885000Y-108535200D02*
X169116400Y-108535200D01*
X166068400Y-108535200D02*
X165077800Y-108535200D01*
X165077800Y-108535200D02*
X165077800Y-105893600D01*
D17*
X164900000Y-76378800D02*
G75*
G03*
X164900000Y-75616800I0J381000D01*
G01*
X164900000Y-75616800D02*
G75*
G03*
X164900000Y-76378800I0J-381000D01*
G01*
D14*
X151653641Y-81390000D02*
X151346359Y-81390000D01*
X151653641Y-80630000D02*
X151346359Y-80630000D01*
X150660000Y-75860000D02*
X146650000Y-75860000D01*
X150660000Y-73860000D02*
X150660000Y-75860000D01*
X150660000Y-73860000D02*
X146650000Y-73860000D01*
X155140000Y-85317836D02*
X155140000Y-85102164D01*
X155860000Y-85317836D02*
X155860000Y-85102164D01*
X134593641Y-89780000D02*
X134286359Y-89780000D01*
X134593641Y-89020000D02*
X134286359Y-89020000D01*
X152725000Y-63660000D02*
X145825000Y-63660000D01*
X145825000Y-63660000D02*
X145825000Y-68060000D01*
X145825000Y-68060000D02*
X152725000Y-68060000D01*
X152725000Y-68060000D02*
X152725000Y-63660000D01*
D15*
X153525000Y-65860000D02*
G75*
G03*
X153125000Y-65860000I-200000J0D01*
G01*
X153125000Y-65860000D02*
G75*
G03*
X153525000Y-65860000I200000J0D01*
G01*
D14*
X152520000Y-82963641D02*
X152520000Y-82656359D01*
X153280000Y-82963641D02*
X153280000Y-82656359D01*
X153940000Y-85397836D02*
X153940000Y-85182164D01*
X154660000Y-85397836D02*
X154660000Y-85182164D01*
X150860000Y-63060000D02*
X146850000Y-63060000D01*
X150860000Y-61060000D02*
X150860000Y-63060000D01*
X150860000Y-61060000D02*
X146850000Y-61060000D01*
X150720000Y-82963641D02*
X150720000Y-82656359D01*
X151480000Y-82963641D02*
X151480000Y-82656359D01*
M02*
