M48
; DRILL file {KiCad 7.0.10} date Tue Jan 16 22:15:57 2024
; FORMAT={-:-/ absolute / metric / decimal}
; #@! TF.CreationDate,2024-01-16T22:15:57+03:00
; #@! TF.GenerationSoftware,Kicad,Pcbnew,7.0.10
; #@! TF.FileFunction,Plated,1,2,PTH
FMAT,2
METRIC
; #@! TA.AperFunction,Plated,PTH,ViaDrill
T1C0.400
; #@! TA.AperFunction,Plated,PTH,ComponentDrill
T2C1.400
%
G90
G05
T1
X134.0Y-87.0
X134.0Y-91.25
X137.75Y-87.0
X137.75Y-91.25
X138.0Y-74.0
X138.5Y-97.5
X138.75Y-102.25
X138.75Y-106.5
X138.75Y-109.75
X139.25Y-57.5
X139.25Y-61.75
X139.25Y-65.0
X140.5Y-96.5
X143.0Y-75.0
X143.75Y-89.5
X144.5Y-106.25
X144.5Y-110.0
X144.6Y-85.4
X146.2Y-67.0
X146.4Y-101.8
X147.0Y-93.0
X147.0Y-97.0
X148.75Y-89.75
X148.75Y-106.25
X148.75Y-110.0
X149.5Y-95.0
X150.0Y-87.0
X150.0Y-93.0
X150.25Y-102.5
X150.75Y-57.5
X150.75Y-61.75
X150.75Y-65.0
X151.75Y-102.0
X152.0Y-106.25
X152.0Y-110.0
X152.386Y-93.414
X154.0Y-83.0
X156.0Y-85.6
X156.6Y-92.8
X157.5Y-96.0
X157.5Y-99.5
X157.5Y-102.5
X157.5Y-106.75
X157.5Y-110.0
X158.25Y-94.75
X159.75Y-76.0
X159.75Y-78.25
X159.75Y-80.0
X159.75Y-87.5
X159.75Y-90.0
X159.75Y-92.0
X160.0Y-72.2
X160.0Y-85.0
X161.0Y-73.4
X161.5Y-57.5
X161.5Y-61.75
X161.5Y-65.0
X162.0Y-102.5
X162.0Y-106.75
X162.0Y-110.0
X166.0Y-89.5
X166.5Y-77.75
X166.5Y-84.0
X166.75Y-94.5
X167.75Y-102.5
X167.75Y-106.75
X167.75Y-110.0
X168.5Y-57.5
X168.5Y-61.75
X168.5Y-65.0
X173.75Y-57.5
X173.75Y-61.75
X173.75Y-65.0
X173.75Y-73.25
X173.75Y-77.5
X173.75Y-80.75
X173.75Y-84.5
X173.75Y-89.25
X173.75Y-93.5
X173.75Y-96.75
X173.75Y-102.5
X173.75Y-106.75
X173.75Y-110.0
X178.25Y-57.5
X178.25Y-61.75
X178.25Y-65.0
X178.25Y-73.25
X178.25Y-77.5
X178.25Y-80.75
X178.25Y-84.5
X178.25Y-89.25
X178.25Y-93.5
X178.25Y-96.75
X178.25Y-102.5
X178.25Y-106.75
X178.25Y-110.0
X184.0Y-57.5
X184.0Y-61.75
X184.0Y-65.0
X184.0Y-73.25
X184.0Y-77.5
X184.0Y-80.75
X184.0Y-84.5
X184.0Y-89.25
X184.0Y-93.5
X184.0Y-96.75
X184.0Y-102.5
X184.0Y-106.75
X184.0Y-110.0
X187.75Y-57.5
X187.75Y-61.75
X187.75Y-65.0
X187.75Y-73.25
X187.75Y-77.5
X187.75Y-80.75
X187.75Y-84.5
X187.75Y-89.25
X187.75Y-93.5
X187.75Y-96.75
X187.75Y-102.5
X187.75Y-106.75
X187.75Y-110.0
X192.0Y-84.5
X192.25Y-57.5
X192.25Y-61.75
X192.25Y-65.0
X192.25Y-73.25
X192.25Y-77.5
X192.25Y-80.75
X192.25Y-89.25
X192.25Y-93.5
X192.25Y-96.75
X192.25Y-102.5
X192.25Y-106.75
X192.25Y-110.0
X197.75Y-80.75
X198.0Y-61.75
X198.0Y-65.0
X198.0Y-73.25
X198.0Y-77.5
X198.0Y-84.25
X198.0Y-89.25
X198.0Y-93.5
X198.0Y-96.75
X198.0Y-102.5
X198.0Y-106.75
T2
X135.0Y-72.25
X135.0Y-76.45
X135.0Y-80.65
X140.5Y-72.25
X140.5Y-76.45
X140.5Y-80.65
M30
