M48
; DRILL file {KiCad 7.0.10} date Sat Jan 27 20:58:54 2024
; FORMAT={-:-/ absolute / metric / decimal}
; #@! TF.CreationDate,2024-01-27T20:58:54+03:00
; #@! TF.GenerationSoftware,Kicad,Pcbnew,7.0.10
; #@! TF.FileFunction,Plated,1,2,PTH
FMAT,2
METRIC
; #@! TA.AperFunction,Plated,PTH,ViaDrill
T1C0.400
; #@! TA.AperFunction,Plated,PTH,ComponentDrill
T2C1.000
; #@! TA.AperFunction,Plated,PTH,ComponentDrill
T3C1.400
%
G90
G05
T1
X123.7Y-64.8
X123.7Y-67.1
X123.7Y-69.0
X123.7Y-71.0
X123.7Y-73.3
X123.9Y-75.2
X124.3Y-109.5
X124.35Y-96.72
X124.35Y-98.97
X124.35Y-100.72
X124.35Y-102.82
X124.35Y-105.07
X124.35Y-106.82
X125.8Y-78.9
X125.9Y-71.0
X125.9Y-73.25
X125.9Y-75.0
X126.2Y-64.85
X126.2Y-67.1
X126.2Y-68.85
X126.722Y-98.8
X126.722Y-100.55
X126.722Y-102.65
X126.722Y-104.9
X126.722Y-106.65
X127.572Y-109.18
X127.572Y-112.93
X127.733Y-111.17
X127.75Y-80.25
X128.9Y-60.8
X129.1Y-96.65
X131.2Y-73.1
X131.4Y-77.2
X131.6Y-80.0
X131.822Y-109.18
X131.922Y-98.8
X131.922Y-100.55
X131.922Y-106.65
X132.575Y-63.85
X132.6Y-91.4
X134.7Y-96.55
X134.9Y-71.25
X134.9Y-73.5
X135.2Y-65.1
X135.2Y-67.35
X135.2Y-69.1
X137.522Y-98.9
X137.522Y-100.65
X138.04Y-89.8
X138.6Y-80.2
X139.1Y-93.9
X139.3Y-85.65
X139.6Y-100.3
X139.9Y-96.55
X140.1Y-71.25
X140.1Y-73.5
X140.4Y-65.1
X140.4Y-67.35
X140.4Y-69.1
X140.486Y-113.672
X140.8Y-60.6
X141.0Y-89.8
X142.3Y-109.18
X142.3Y-112.93
X143.3Y-94.0
X143.5Y-104.7
X143.7Y-63.1
X144.6Y-59.4
X144.7Y-69.2
X145.56Y-82.2
X145.8Y-79.5
X145.8Y-102.2
X145.8Y-107.6
X146.0Y-89.8
X146.0Y-98.6
X146.1Y-104.9
X146.174Y-86.414
X146.4Y-94.0
X147.8Y-109.68
X147.8Y-112.93
X148.3Y-100.7
X148.3Y-105.9
X149.8Y-81.4
X151.6Y-87.8
X151.7Y-83.0
X151.9Y-101.0
X152.26Y-81.3
X152.3Y-109.68
X152.3Y-112.93
X152.6Y-104.2
X153.0Y-92.3
X154.9Y-105.4
X155.1Y-59.4
X155.26Y-81.3
X156.0Y-78.6
X156.3Y-92.43
X156.3Y-97.3
X156.3Y-100.0
X156.8Y-86.93
X156.8Y-103.4
X157.6Y-89.2
X158.05Y-67.26
X158.05Y-69.51
X158.05Y-71.26
X158.05Y-78.76
X158.05Y-81.26
X158.05Y-109.68
X158.05Y-112.93
X158.2Y-83.93
X158.3Y-73.6
X158.3Y-76.26
X158.8Y-60.43
X158.8Y-64.68
X159.6Y-80.5
X160.0Y-68.3
X160.3Y-105.3
X160.4Y-100.7
X160.58Y-96.3
X160.9Y-79.1
X161.1Y-73.5
X161.4Y-87.6
X162.8Y-99.9
X162.8Y-106.7
X162.9Y-95.4
X162.9Y-96.9
X163.6Y-85.6
X164.05Y-60.43
X164.05Y-64.68
X164.05Y-67.93
X164.05Y-76.18
X164.05Y-109.68
X164.05Y-112.93
X167.9Y-107.4
X168.55Y-60.43
X168.55Y-64.68
X168.55Y-67.93
X168.55Y-76.18
X168.55Y-80.43
X168.55Y-83.68
X168.55Y-87.43
X168.55Y-92.18
X168.55Y-96.43
X168.55Y-99.68
X168.55Y-105.43
X168.55Y-109.68
X168.55Y-112.93
X173.7Y-73.0
X174.3Y-60.43
X174.3Y-64.68
X174.3Y-67.93
X174.3Y-76.18
X174.3Y-80.43
X174.3Y-83.68
X174.3Y-87.43
X174.3Y-92.18
X174.3Y-96.43
X174.3Y-99.68
X174.3Y-105.43
X174.3Y-109.68
X174.3Y-112.93
X178.05Y-60.43
X178.05Y-64.68
X178.05Y-67.93
X178.05Y-76.18
X178.05Y-80.43
X178.05Y-83.68
X178.05Y-87.43
X178.05Y-92.18
X178.05Y-96.43
X178.05Y-99.68
X178.05Y-105.43
X178.05Y-109.68
X178.05Y-112.93
X180.6Y-72.6
X182.3Y-87.43
X182.55Y-60.43
X182.55Y-64.68
X182.55Y-67.93
X182.55Y-76.18
X182.55Y-80.43
X182.55Y-83.68
X182.55Y-92.18
X182.55Y-96.43
X182.55Y-99.68
X182.55Y-105.43
X182.55Y-109.68
X182.55Y-112.93
X187.5Y-72.6
X188.0Y-63.4
X188.05Y-83.68
X188.3Y-67.93
X188.3Y-76.18
X188.3Y-80.43
X188.3Y-87.18
X188.3Y-92.18
X188.3Y-96.43
X188.3Y-99.68
X188.3Y-105.43
X188.3Y-109.68
T2
X129.503Y-103.838
X130.77Y-60.025
X133.31Y-60.025
X135.85Y-60.025
X136.003Y-103.838
X138.39Y-60.025
T3
X123.925Y-84.025
X123.925Y-88.225
X123.925Y-92.425
X129.425Y-84.025
X129.425Y-88.225
X129.425Y-92.425
M30
