G04 #@! TF.GenerationSoftware,KiCad,Pcbnew,7.0.10*
G04 #@! TF.CreationDate,2024-01-21T10:12:11+03:00*
G04 #@! TF.ProjectId,Eco_display,45636f5f-6469-4737-906c-61792e6b6963,rev?*
G04 #@! TF.SameCoordinates,Original*
G04 #@! TF.FileFunction,Legend,Bot*
G04 #@! TF.FilePolarity,Positive*
%FSLAX46Y46*%
G04 Gerber Fmt 4.6, Leading zero omitted, Abs format (unit mm)*
G04 Created by KiCad (PCBNEW 7.0.10) date 2024-01-21 10:12:11*
%MOMM*%
%LPD*%
G01*
G04 APERTURE LIST*
%ADD10C,0.150000*%
%ADD11C,0.001000*%
%ADD12C,0.071628*%
%ADD13C,0.120000*%
%ADD14C,0.500000*%
%ADD15C,0.152400*%
%ADD16C,0.508000*%
G04 APERTURE END LIST*
D10*
X147400000Y-77800000D02*
X147400000Y-76200000D01*
X149200000Y-60400000D02*
X149200000Y-59000000D01*
X151300000Y-73700000D02*
G75*
G03*
X150900000Y-73700000I-200000J0D01*
G01*
X150900000Y-73700000D02*
G75*
G03*
X151300000Y-73700000I200000J0D01*
G01*
X151200000Y-73700000D02*
G75*
G03*
X151000000Y-73700000I-100000J0D01*
G01*
X151000000Y-73700000D02*
G75*
G03*
X151200000Y-73700000I100000J0D01*
G01*
X150200000Y-59800000D02*
X147200000Y-59800000D01*
X153600000Y-91600000D02*
G75*
G03*
X153000000Y-91600000I-300000J0D01*
G01*
X153000000Y-91600000D02*
G75*
G03*
X153600000Y-91600000I300000J0D01*
G01*
X150800000Y-60500000D02*
G75*
G03*
X150600000Y-60500000I-100000J0D01*
G01*
X150600000Y-60500000D02*
G75*
G03*
X150800000Y-60500000I100000J0D01*
G01*
X149200000Y-77000000D02*
X146200000Y-77000000D01*
X150900000Y-60500000D02*
G75*
G03*
X150500000Y-60500000I-200000J0D01*
G01*
X150500000Y-60500000D02*
G75*
G03*
X150900000Y-60500000I200000J0D01*
G01*
X149200000Y-59800000D02*
X148400000Y-60600000D01*
X147400000Y-76200000D02*
X148200000Y-77000000D01*
X148400000Y-59000000D02*
X149200000Y-59800000D01*
X153500000Y-91600000D02*
G75*
G03*
X153100000Y-91600000I-200000J0D01*
G01*
X153100000Y-91600000D02*
G75*
G03*
X153500000Y-91600000I200000J0D01*
G01*
X148200000Y-77600000D02*
X148200000Y-76200000D01*
X148200000Y-77000000D02*
X147400000Y-77800000D01*
X151000000Y-60500000D02*
G75*
G03*
X150400000Y-60500000I-300000J0D01*
G01*
X150400000Y-60500000D02*
G75*
G03*
X151000000Y-60500000I300000J0D01*
G01*
X153400000Y-91600000D02*
G75*
G03*
X153200000Y-91600000I-100000J0D01*
G01*
X153200000Y-91600000D02*
G75*
G03*
X153400000Y-91600000I100000J0D01*
G01*
X151400000Y-73700000D02*
G75*
G03*
X150800000Y-73700000I-300000J0D01*
G01*
X150800000Y-73700000D02*
G75*
G03*
X151400000Y-73700000I300000J0D01*
G01*
D11*
X166984725Y-111565610D02*
X161684725Y-111565610D01*
D10*
X148400000Y-60600000D02*
X148400000Y-59000000D01*
X146510839Y-77984104D02*
X146034649Y-77984104D01*
X146606077Y-78269819D02*
X146272744Y-77269819D01*
X146272744Y-77269819D02*
X145939411Y-78269819D01*
X146510839Y-59984104D02*
X146034649Y-59984104D01*
X146606077Y-60269819D02*
X146272744Y-59269819D01*
X146272744Y-59269819D02*
X145939411Y-60269819D01*
X151863220Y-60269819D02*
X151863220Y-59269819D01*
X151291792Y-60269819D02*
X151720363Y-59698390D01*
X151291792Y-59269819D02*
X151863220Y-59841247D01*
X148736779Y-77330180D02*
X148736779Y-78330180D01*
X149308207Y-77330180D02*
X148879636Y-77901609D01*
X149308207Y-78330180D02*
X148736779Y-77758752D01*
X154661904Y-68714819D02*
X154661904Y-69524342D01*
X154661904Y-69524342D02*
X154614285Y-69619580D01*
X154614285Y-69619580D02*
X154566666Y-69667200D01*
X154566666Y-69667200D02*
X154471428Y-69714819D01*
X154471428Y-69714819D02*
X154280952Y-69714819D01*
X154280952Y-69714819D02*
X154185714Y-69667200D01*
X154185714Y-69667200D02*
X154138095Y-69619580D01*
X154138095Y-69619580D02*
X154090476Y-69524342D01*
X154090476Y-69524342D02*
X154090476Y-68714819D01*
X153185714Y-69048152D02*
X153185714Y-69714819D01*
X153423809Y-68667200D02*
X153661904Y-69381485D01*
X153661904Y-69381485D02*
X153042857Y-69381485D01*
X152954819Y-94657142D02*
X152478628Y-94323809D01*
X152954819Y-94085714D02*
X151954819Y-94085714D01*
X151954819Y-94085714D02*
X151954819Y-94466666D01*
X151954819Y-94466666D02*
X152002438Y-94561904D01*
X152002438Y-94561904D02*
X152050057Y-94609523D01*
X152050057Y-94609523D02*
X152145295Y-94657142D01*
X152145295Y-94657142D02*
X152288152Y-94657142D01*
X152288152Y-94657142D02*
X152383390Y-94609523D01*
X152383390Y-94609523D02*
X152431009Y-94561904D01*
X152431009Y-94561904D02*
X152478628Y-94466666D01*
X152478628Y-94466666D02*
X152478628Y-94085714D01*
X151954819Y-94990476D02*
X151954819Y-95609523D01*
X151954819Y-95609523D02*
X152335771Y-95276190D01*
X152335771Y-95276190D02*
X152335771Y-95419047D01*
X152335771Y-95419047D02*
X152383390Y-95514285D01*
X152383390Y-95514285D02*
X152431009Y-95561904D01*
X152431009Y-95561904D02*
X152526247Y-95609523D01*
X152526247Y-95609523D02*
X152764342Y-95609523D01*
X152764342Y-95609523D02*
X152859580Y-95561904D01*
X152859580Y-95561904D02*
X152907200Y-95514285D01*
X152907200Y-95514285D02*
X152954819Y-95419047D01*
X152954819Y-95419047D02*
X152954819Y-95133333D01*
X152954819Y-95133333D02*
X152907200Y-95038095D01*
X152907200Y-95038095D02*
X152859580Y-94990476D01*
X152050057Y-95990476D02*
X152002438Y-96038095D01*
X152002438Y-96038095D02*
X151954819Y-96133333D01*
X151954819Y-96133333D02*
X151954819Y-96371428D01*
X151954819Y-96371428D02*
X152002438Y-96466666D01*
X152002438Y-96466666D02*
X152050057Y-96514285D01*
X152050057Y-96514285D02*
X152145295Y-96561904D01*
X152145295Y-96561904D02*
X152240533Y-96561904D01*
X152240533Y-96561904D02*
X152383390Y-96514285D01*
X152383390Y-96514285D02*
X152954819Y-95942857D01*
X152954819Y-95942857D02*
X152954819Y-96561904D01*
X132329819Y-87891666D02*
X133044104Y-87891666D01*
X133044104Y-87891666D02*
X133186961Y-87844047D01*
X133186961Y-87844047D02*
X133282200Y-87748809D01*
X133282200Y-87748809D02*
X133329819Y-87605952D01*
X133329819Y-87605952D02*
X133329819Y-87510714D01*
X132425057Y-88320238D02*
X132377438Y-88367857D01*
X132377438Y-88367857D02*
X132329819Y-88463095D01*
X132329819Y-88463095D02*
X132329819Y-88701190D01*
X132329819Y-88701190D02*
X132377438Y-88796428D01*
X132377438Y-88796428D02*
X132425057Y-88844047D01*
X132425057Y-88844047D02*
X132520295Y-88891666D01*
X132520295Y-88891666D02*
X132615533Y-88891666D01*
X132615533Y-88891666D02*
X132758390Y-88844047D01*
X132758390Y-88844047D02*
X133329819Y-88272619D01*
X133329819Y-88272619D02*
X133329819Y-88891666D01*
X154454819Y-76661905D02*
X153454819Y-76661905D01*
X153454819Y-76661905D02*
X153454819Y-76900000D01*
X153454819Y-76900000D02*
X153502438Y-77042857D01*
X153502438Y-77042857D02*
X153597676Y-77138095D01*
X153597676Y-77138095D02*
X153692914Y-77185714D01*
X153692914Y-77185714D02*
X153883390Y-77233333D01*
X153883390Y-77233333D02*
X154026247Y-77233333D01*
X154026247Y-77233333D02*
X154216723Y-77185714D01*
X154216723Y-77185714D02*
X154311961Y-77138095D01*
X154311961Y-77138095D02*
X154407200Y-77042857D01*
X154407200Y-77042857D02*
X154454819Y-76900000D01*
X154454819Y-76900000D02*
X154454819Y-76661905D01*
X154454819Y-77709524D02*
X154454819Y-77900000D01*
X154454819Y-77900000D02*
X154407200Y-77995238D01*
X154407200Y-77995238D02*
X154359580Y-78042857D01*
X154359580Y-78042857D02*
X154216723Y-78138095D01*
X154216723Y-78138095D02*
X154026247Y-78185714D01*
X154026247Y-78185714D02*
X153645295Y-78185714D01*
X153645295Y-78185714D02*
X153550057Y-78138095D01*
X153550057Y-78138095D02*
X153502438Y-78090476D01*
X153502438Y-78090476D02*
X153454819Y-77995238D01*
X153454819Y-77995238D02*
X153454819Y-77804762D01*
X153454819Y-77804762D02*
X153502438Y-77709524D01*
X153502438Y-77709524D02*
X153550057Y-77661905D01*
X153550057Y-77661905D02*
X153645295Y-77614286D01*
X153645295Y-77614286D02*
X153883390Y-77614286D01*
X153883390Y-77614286D02*
X153978628Y-77661905D01*
X153978628Y-77661905D02*
X154026247Y-77709524D01*
X154026247Y-77709524D02*
X154073866Y-77804762D01*
X154073866Y-77804762D02*
X154073866Y-77995238D01*
X154073866Y-77995238D02*
X154026247Y-78090476D01*
X154026247Y-78090476D02*
X153978628Y-78138095D01*
X153978628Y-78138095D02*
X153883390Y-78185714D01*
X154659580Y-89167142D02*
X154707200Y-89119523D01*
X154707200Y-89119523D02*
X154754819Y-88976666D01*
X154754819Y-88976666D02*
X154754819Y-88881428D01*
X154754819Y-88881428D02*
X154707200Y-88738571D01*
X154707200Y-88738571D02*
X154611961Y-88643333D01*
X154611961Y-88643333D02*
X154516723Y-88595714D01*
X154516723Y-88595714D02*
X154326247Y-88548095D01*
X154326247Y-88548095D02*
X154183390Y-88548095D01*
X154183390Y-88548095D02*
X153992914Y-88595714D01*
X153992914Y-88595714D02*
X153897676Y-88643333D01*
X153897676Y-88643333D02*
X153802438Y-88738571D01*
X153802438Y-88738571D02*
X153754819Y-88881428D01*
X153754819Y-88881428D02*
X153754819Y-88976666D01*
X153754819Y-88976666D02*
X153802438Y-89119523D01*
X153802438Y-89119523D02*
X153850057Y-89167142D01*
X153754819Y-89500476D02*
X153754819Y-90119523D01*
X153754819Y-90119523D02*
X154135771Y-89786190D01*
X154135771Y-89786190D02*
X154135771Y-89929047D01*
X154135771Y-89929047D02*
X154183390Y-90024285D01*
X154183390Y-90024285D02*
X154231009Y-90071904D01*
X154231009Y-90071904D02*
X154326247Y-90119523D01*
X154326247Y-90119523D02*
X154564342Y-90119523D01*
X154564342Y-90119523D02*
X154659580Y-90071904D01*
X154659580Y-90071904D02*
X154707200Y-90024285D01*
X154707200Y-90024285D02*
X154754819Y-89929047D01*
X154754819Y-89929047D02*
X154754819Y-89643333D01*
X154754819Y-89643333D02*
X154707200Y-89548095D01*
X154707200Y-89548095D02*
X154659580Y-89500476D01*
X153754819Y-90738571D02*
X153754819Y-90833809D01*
X153754819Y-90833809D02*
X153802438Y-90929047D01*
X153802438Y-90929047D02*
X153850057Y-90976666D01*
X153850057Y-90976666D02*
X153945295Y-91024285D01*
X153945295Y-91024285D02*
X154135771Y-91071904D01*
X154135771Y-91071904D02*
X154373866Y-91071904D01*
X154373866Y-91071904D02*
X154564342Y-91024285D01*
X154564342Y-91024285D02*
X154659580Y-90976666D01*
X154659580Y-90976666D02*
X154707200Y-90929047D01*
X154707200Y-90929047D02*
X154754819Y-90833809D01*
X154754819Y-90833809D02*
X154754819Y-90738571D01*
X154754819Y-90738571D02*
X154707200Y-90643333D01*
X154707200Y-90643333D02*
X154659580Y-90595714D01*
X154659580Y-90595714D02*
X154564342Y-90548095D01*
X154564342Y-90548095D02*
X154373866Y-90500476D01*
X154373866Y-90500476D02*
X154135771Y-90500476D01*
X154135771Y-90500476D02*
X153945295Y-90548095D01*
X153945295Y-90548095D02*
X153850057Y-90595714D01*
X153850057Y-90595714D02*
X153802438Y-90643333D01*
X153802438Y-90643333D02*
X153754819Y-90738571D01*
X148754819Y-86771905D02*
X149564342Y-86771905D01*
X149564342Y-86771905D02*
X149659580Y-86819524D01*
X149659580Y-86819524D02*
X149707200Y-86867143D01*
X149707200Y-86867143D02*
X149754819Y-86962381D01*
X149754819Y-86962381D02*
X149754819Y-87152857D01*
X149754819Y-87152857D02*
X149707200Y-87248095D01*
X149707200Y-87248095D02*
X149659580Y-87295714D01*
X149659580Y-87295714D02*
X149564342Y-87343333D01*
X149564342Y-87343333D02*
X148754819Y-87343333D01*
X149754819Y-88343333D02*
X149754819Y-87771905D01*
X149754819Y-88057619D02*
X148754819Y-88057619D01*
X148754819Y-88057619D02*
X148897676Y-87962381D01*
X148897676Y-87962381D02*
X148992914Y-87867143D01*
X148992914Y-87867143D02*
X149040533Y-87771905D01*
X149754819Y-88819524D02*
X149754819Y-89010000D01*
X149754819Y-89010000D02*
X149707200Y-89105238D01*
X149707200Y-89105238D02*
X149659580Y-89152857D01*
X149659580Y-89152857D02*
X149516723Y-89248095D01*
X149516723Y-89248095D02*
X149326247Y-89295714D01*
X149326247Y-89295714D02*
X148945295Y-89295714D01*
X148945295Y-89295714D02*
X148850057Y-89248095D01*
X148850057Y-89248095D02*
X148802438Y-89200476D01*
X148802438Y-89200476D02*
X148754819Y-89105238D01*
X148754819Y-89105238D02*
X148754819Y-88914762D01*
X148754819Y-88914762D02*
X148802438Y-88819524D01*
X148802438Y-88819524D02*
X148850057Y-88771905D01*
X148850057Y-88771905D02*
X148945295Y-88724286D01*
X148945295Y-88724286D02*
X149183390Y-88724286D01*
X149183390Y-88724286D02*
X149278628Y-88771905D01*
X149278628Y-88771905D02*
X149326247Y-88819524D01*
X149326247Y-88819524D02*
X149373866Y-88914762D01*
X149373866Y-88914762D02*
X149373866Y-89105238D01*
X149373866Y-89105238D02*
X149326247Y-89200476D01*
X149326247Y-89200476D02*
X149278628Y-89248095D01*
X149278628Y-89248095D02*
X149183390Y-89295714D01*
X151654819Y-94757142D02*
X151178628Y-94423809D01*
X151654819Y-94185714D02*
X150654819Y-94185714D01*
X150654819Y-94185714D02*
X150654819Y-94566666D01*
X150654819Y-94566666D02*
X150702438Y-94661904D01*
X150702438Y-94661904D02*
X150750057Y-94709523D01*
X150750057Y-94709523D02*
X150845295Y-94757142D01*
X150845295Y-94757142D02*
X150988152Y-94757142D01*
X150988152Y-94757142D02*
X151083390Y-94709523D01*
X151083390Y-94709523D02*
X151131009Y-94661904D01*
X151131009Y-94661904D02*
X151178628Y-94566666D01*
X151178628Y-94566666D02*
X151178628Y-94185714D01*
X150654819Y-95090476D02*
X150654819Y-95709523D01*
X150654819Y-95709523D02*
X151035771Y-95376190D01*
X151035771Y-95376190D02*
X151035771Y-95519047D01*
X151035771Y-95519047D02*
X151083390Y-95614285D01*
X151083390Y-95614285D02*
X151131009Y-95661904D01*
X151131009Y-95661904D02*
X151226247Y-95709523D01*
X151226247Y-95709523D02*
X151464342Y-95709523D01*
X151464342Y-95709523D02*
X151559580Y-95661904D01*
X151559580Y-95661904D02*
X151607200Y-95614285D01*
X151607200Y-95614285D02*
X151654819Y-95519047D01*
X151654819Y-95519047D02*
X151654819Y-95233333D01*
X151654819Y-95233333D02*
X151607200Y-95138095D01*
X151607200Y-95138095D02*
X151559580Y-95090476D01*
X151654819Y-96661904D02*
X151654819Y-96090476D01*
X151654819Y-96376190D02*
X150654819Y-96376190D01*
X150654819Y-96376190D02*
X150797676Y-96280952D01*
X150797676Y-96280952D02*
X150892914Y-96185714D01*
X150892914Y-96185714D02*
X150940533Y-96090476D01*
D12*
X163707179Y-93905779D02*
X163707179Y-93803308D01*
X163707179Y-93803308D02*
X163732797Y-93752072D01*
X163732797Y-93752072D02*
X163758415Y-93726455D01*
X163758415Y-93726455D02*
X163835268Y-93675219D01*
X163835268Y-93675219D02*
X163937739Y-93649601D01*
X163937739Y-93649601D02*
X164142680Y-93649601D01*
X164142680Y-93649601D02*
X164193916Y-93675219D01*
X164193916Y-93675219D02*
X164219534Y-93700837D01*
X164219534Y-93700837D02*
X164245151Y-93752072D01*
X164245151Y-93752072D02*
X164245151Y-93854543D01*
X164245151Y-93854543D02*
X164219534Y-93905779D01*
X164219534Y-93905779D02*
X164193916Y-93931396D01*
X164193916Y-93931396D02*
X164142680Y-93957014D01*
X164142680Y-93957014D02*
X164014592Y-93957014D01*
X164014592Y-93957014D02*
X163963356Y-93931396D01*
X163963356Y-93931396D02*
X163937739Y-93905779D01*
X163937739Y-93905779D02*
X163912121Y-93854543D01*
X163912121Y-93854543D02*
X163912121Y-93752072D01*
X163912121Y-93752072D02*
X163937739Y-93700837D01*
X163937739Y-93700837D02*
X163963356Y-93675219D01*
X163963356Y-93675219D02*
X164014592Y-93649601D01*
X163758415Y-94161955D02*
X163732797Y-94187573D01*
X163732797Y-94187573D02*
X163707179Y-94238809D01*
X163707179Y-94238809D02*
X163707179Y-94366897D01*
X163707179Y-94366897D02*
X163732797Y-94418133D01*
X163732797Y-94418133D02*
X163758415Y-94443750D01*
X163758415Y-94443750D02*
X163809650Y-94469368D01*
X163809650Y-94469368D02*
X163860886Y-94469368D01*
X163860886Y-94469368D02*
X163937739Y-94443750D01*
X163937739Y-94443750D02*
X164245151Y-94136338D01*
X164245151Y-94136338D02*
X164245151Y-94469368D01*
X163707179Y-94930487D02*
X163707179Y-94828016D01*
X163707179Y-94828016D02*
X163732797Y-94776780D01*
X163732797Y-94776780D02*
X163758415Y-94751163D01*
X163758415Y-94751163D02*
X163835268Y-94699927D01*
X163835268Y-94699927D02*
X163937739Y-94674309D01*
X163937739Y-94674309D02*
X164142680Y-94674309D01*
X164142680Y-94674309D02*
X164193916Y-94699927D01*
X164193916Y-94699927D02*
X164219534Y-94725545D01*
X164219534Y-94725545D02*
X164245151Y-94776780D01*
X164245151Y-94776780D02*
X164245151Y-94879251D01*
X164245151Y-94879251D02*
X164219534Y-94930487D01*
X164219534Y-94930487D02*
X164193916Y-94956104D01*
X164193916Y-94956104D02*
X164142680Y-94981722D01*
X164142680Y-94981722D02*
X164014592Y-94981722D01*
X164014592Y-94981722D02*
X163963356Y-94956104D01*
X163963356Y-94956104D02*
X163937739Y-94930487D01*
X163937739Y-94930487D02*
X163912121Y-94879251D01*
X163912121Y-94879251D02*
X163912121Y-94776780D01*
X163912121Y-94776780D02*
X163937739Y-94725545D01*
X163937739Y-94725545D02*
X163963356Y-94699927D01*
X163963356Y-94699927D02*
X164014592Y-94674309D01*
X163937739Y-95289134D02*
X163912121Y-95237899D01*
X163912121Y-95237899D02*
X163886503Y-95212281D01*
X163886503Y-95212281D02*
X163835268Y-95186663D01*
X163835268Y-95186663D02*
X163809650Y-95186663D01*
X163809650Y-95186663D02*
X163758415Y-95212281D01*
X163758415Y-95212281D02*
X163732797Y-95237899D01*
X163732797Y-95237899D02*
X163707179Y-95289134D01*
X163707179Y-95289134D02*
X163707179Y-95391605D01*
X163707179Y-95391605D02*
X163732797Y-95442841D01*
X163732797Y-95442841D02*
X163758415Y-95468458D01*
X163758415Y-95468458D02*
X163809650Y-95494076D01*
X163809650Y-95494076D02*
X163835268Y-95494076D01*
X163835268Y-95494076D02*
X163886503Y-95468458D01*
X163886503Y-95468458D02*
X163912121Y-95442841D01*
X163912121Y-95442841D02*
X163937739Y-95391605D01*
X163937739Y-95391605D02*
X163937739Y-95289134D01*
X163937739Y-95289134D02*
X163963356Y-95237899D01*
X163963356Y-95237899D02*
X163988974Y-95212281D01*
X163988974Y-95212281D02*
X164040210Y-95186663D01*
X164040210Y-95186663D02*
X164142680Y-95186663D01*
X164142680Y-95186663D02*
X164193916Y-95212281D01*
X164193916Y-95212281D02*
X164219534Y-95237899D01*
X164219534Y-95237899D02*
X164245151Y-95289134D01*
X164245151Y-95289134D02*
X164245151Y-95391605D01*
X164245151Y-95391605D02*
X164219534Y-95442841D01*
X164219534Y-95442841D02*
X164193916Y-95468458D01*
X164193916Y-95468458D02*
X164142680Y-95494076D01*
X164142680Y-95494076D02*
X164040210Y-95494076D01*
X164040210Y-95494076D02*
X163988974Y-95468458D01*
X163988974Y-95468458D02*
X163963356Y-95442841D01*
X163963356Y-95442841D02*
X163937739Y-95391605D01*
X163886503Y-95955195D02*
X164245151Y-95955195D01*
X163681562Y-95827106D02*
X164065827Y-95699017D01*
X164065827Y-95699017D02*
X164065827Y-96032048D01*
X164040210Y-96236989D02*
X164040210Y-96646873D01*
X163707179Y-97159227D02*
X163707179Y-96903050D01*
X163707179Y-96903050D02*
X163963356Y-96877432D01*
X163963356Y-96877432D02*
X163937739Y-96903050D01*
X163937739Y-96903050D02*
X163912121Y-96954286D01*
X163912121Y-96954286D02*
X163912121Y-97082374D01*
X163912121Y-97082374D02*
X163937739Y-97133610D01*
X163937739Y-97133610D02*
X163963356Y-97159227D01*
X163963356Y-97159227D02*
X164014592Y-97184845D01*
X164014592Y-97184845D02*
X164142680Y-97184845D01*
X164142680Y-97184845D02*
X164193916Y-97159227D01*
X164193916Y-97159227D02*
X164219534Y-97133610D01*
X164219534Y-97133610D02*
X164245151Y-97082374D01*
X164245151Y-97082374D02*
X164245151Y-96954286D01*
X164245151Y-96954286D02*
X164219534Y-96903050D01*
X164219534Y-96903050D02*
X164193916Y-96877432D01*
X163707179Y-97517875D02*
X163707179Y-97569110D01*
X163707179Y-97569110D02*
X163732797Y-97620346D01*
X163732797Y-97620346D02*
X163758415Y-97645964D01*
X163758415Y-97645964D02*
X163809650Y-97671581D01*
X163809650Y-97671581D02*
X163912121Y-97697199D01*
X163912121Y-97697199D02*
X164040210Y-97697199D01*
X164040210Y-97697199D02*
X164142680Y-97671581D01*
X164142680Y-97671581D02*
X164193916Y-97645964D01*
X164193916Y-97645964D02*
X164219534Y-97620346D01*
X164219534Y-97620346D02*
X164245151Y-97569110D01*
X164245151Y-97569110D02*
X164245151Y-97517875D01*
X164245151Y-97517875D02*
X164219534Y-97466640D01*
X164219534Y-97466640D02*
X164193916Y-97441022D01*
X164193916Y-97441022D02*
X164142680Y-97415404D01*
X164142680Y-97415404D02*
X164040210Y-97389786D01*
X164040210Y-97389786D02*
X163912121Y-97389786D01*
X163912121Y-97389786D02*
X163809650Y-97415404D01*
X163809650Y-97415404D02*
X163758415Y-97441022D01*
X163758415Y-97441022D02*
X163732797Y-97466640D01*
X163732797Y-97466640D02*
X163707179Y-97517875D01*
X164245151Y-98209553D02*
X164245151Y-97902140D01*
X164245151Y-98055847D02*
X163707179Y-98055847D01*
X163707179Y-98055847D02*
X163784032Y-98004611D01*
X163784032Y-98004611D02*
X163835268Y-97953376D01*
X163835268Y-97953376D02*
X163860886Y-97902140D01*
X164245151Y-98721907D02*
X164245151Y-98414494D01*
X164245151Y-98568201D02*
X163707179Y-98568201D01*
X163707179Y-98568201D02*
X163784032Y-98516965D01*
X163784032Y-98516965D02*
X163835268Y-98465730D01*
X163835268Y-98465730D02*
X163860886Y-98414494D01*
X163707179Y-99054937D02*
X163707179Y-99106172D01*
X163707179Y-99106172D02*
X163732797Y-99157408D01*
X163732797Y-99157408D02*
X163758415Y-99183026D01*
X163758415Y-99183026D02*
X163809650Y-99208643D01*
X163809650Y-99208643D02*
X163912121Y-99234261D01*
X163912121Y-99234261D02*
X164040210Y-99234261D01*
X164040210Y-99234261D02*
X164142680Y-99208643D01*
X164142680Y-99208643D02*
X164193916Y-99183026D01*
X164193916Y-99183026D02*
X164219534Y-99157408D01*
X164219534Y-99157408D02*
X164245151Y-99106172D01*
X164245151Y-99106172D02*
X164245151Y-99054937D01*
X164245151Y-99054937D02*
X164219534Y-99003702D01*
X164219534Y-99003702D02*
X164193916Y-98978084D01*
X164193916Y-98978084D02*
X164142680Y-98952466D01*
X164142680Y-98952466D02*
X164040210Y-98926848D01*
X164040210Y-98926848D02*
X163912121Y-98926848D01*
X163912121Y-98926848D02*
X163809650Y-98952466D01*
X163809650Y-98952466D02*
X163758415Y-98978084D01*
X163758415Y-98978084D02*
X163732797Y-99003702D01*
X163732797Y-99003702D02*
X163707179Y-99054937D01*
X163707179Y-99567291D02*
X163707179Y-99618526D01*
X163707179Y-99618526D02*
X163732797Y-99669762D01*
X163732797Y-99669762D02*
X163758415Y-99695380D01*
X163758415Y-99695380D02*
X163809650Y-99720997D01*
X163809650Y-99720997D02*
X163912121Y-99746615D01*
X163912121Y-99746615D02*
X164040210Y-99746615D01*
X164040210Y-99746615D02*
X164142680Y-99720997D01*
X164142680Y-99720997D02*
X164193916Y-99695380D01*
X164193916Y-99695380D02*
X164219534Y-99669762D01*
X164219534Y-99669762D02*
X164245151Y-99618526D01*
X164245151Y-99618526D02*
X164245151Y-99567291D01*
X164245151Y-99567291D02*
X164219534Y-99516056D01*
X164219534Y-99516056D02*
X164193916Y-99490438D01*
X164193916Y-99490438D02*
X164142680Y-99464820D01*
X164142680Y-99464820D02*
X164040210Y-99439202D01*
X164040210Y-99439202D02*
X163912121Y-99439202D01*
X163912121Y-99439202D02*
X163809650Y-99464820D01*
X163809650Y-99464820D02*
X163758415Y-99490438D01*
X163758415Y-99490438D02*
X163732797Y-99516056D01*
X163732797Y-99516056D02*
X163707179Y-99567291D01*
X164091445Y-99951556D02*
X164091445Y-100207734D01*
X164245151Y-99900321D02*
X163707179Y-100079645D01*
X163707179Y-100079645D02*
X164245151Y-100258969D01*
X164245151Y-100694470D02*
X164245151Y-100438293D01*
X164245151Y-100438293D02*
X163707179Y-100438293D01*
X163963356Y-101053118D02*
X163963356Y-100873794D01*
X164245151Y-100873794D02*
X163707179Y-100873794D01*
X163707179Y-100873794D02*
X163707179Y-101129971D01*
D10*
X149442857Y-81354819D02*
X149776190Y-80878628D01*
X150014285Y-81354819D02*
X150014285Y-80354819D01*
X150014285Y-80354819D02*
X149633333Y-80354819D01*
X149633333Y-80354819D02*
X149538095Y-80402438D01*
X149538095Y-80402438D02*
X149490476Y-80450057D01*
X149490476Y-80450057D02*
X149442857Y-80545295D01*
X149442857Y-80545295D02*
X149442857Y-80688152D01*
X149442857Y-80688152D02*
X149490476Y-80783390D01*
X149490476Y-80783390D02*
X149538095Y-80831009D01*
X149538095Y-80831009D02*
X149633333Y-80878628D01*
X149633333Y-80878628D02*
X150014285Y-80878628D01*
X149109523Y-80354819D02*
X148490476Y-80354819D01*
X148490476Y-80354819D02*
X148823809Y-80735771D01*
X148823809Y-80735771D02*
X148680952Y-80735771D01*
X148680952Y-80735771D02*
X148585714Y-80783390D01*
X148585714Y-80783390D02*
X148538095Y-80831009D01*
X148538095Y-80831009D02*
X148490476Y-80926247D01*
X148490476Y-80926247D02*
X148490476Y-81164342D01*
X148490476Y-81164342D02*
X148538095Y-81259580D01*
X148538095Y-81259580D02*
X148585714Y-81307200D01*
X148585714Y-81307200D02*
X148680952Y-81354819D01*
X148680952Y-81354819D02*
X148966666Y-81354819D01*
X148966666Y-81354819D02*
X149061904Y-81307200D01*
X149061904Y-81307200D02*
X149109523Y-81259580D01*
X147919047Y-80783390D02*
X148014285Y-80735771D01*
X148014285Y-80735771D02*
X148061904Y-80688152D01*
X148061904Y-80688152D02*
X148109523Y-80592914D01*
X148109523Y-80592914D02*
X148109523Y-80545295D01*
X148109523Y-80545295D02*
X148061904Y-80450057D01*
X148061904Y-80450057D02*
X148014285Y-80402438D01*
X148014285Y-80402438D02*
X147919047Y-80354819D01*
X147919047Y-80354819D02*
X147728571Y-80354819D01*
X147728571Y-80354819D02*
X147633333Y-80402438D01*
X147633333Y-80402438D02*
X147585714Y-80450057D01*
X147585714Y-80450057D02*
X147538095Y-80545295D01*
X147538095Y-80545295D02*
X147538095Y-80592914D01*
X147538095Y-80592914D02*
X147585714Y-80688152D01*
X147585714Y-80688152D02*
X147633333Y-80735771D01*
X147633333Y-80735771D02*
X147728571Y-80783390D01*
X147728571Y-80783390D02*
X147919047Y-80783390D01*
X147919047Y-80783390D02*
X148014285Y-80831009D01*
X148014285Y-80831009D02*
X148061904Y-80878628D01*
X148061904Y-80878628D02*
X148109523Y-80973866D01*
X148109523Y-80973866D02*
X148109523Y-81164342D01*
X148109523Y-81164342D02*
X148061904Y-81259580D01*
X148061904Y-81259580D02*
X148014285Y-81307200D01*
X148014285Y-81307200D02*
X147919047Y-81354819D01*
X147919047Y-81354819D02*
X147728571Y-81354819D01*
X147728571Y-81354819D02*
X147633333Y-81307200D01*
X147633333Y-81307200D02*
X147585714Y-81259580D01*
X147585714Y-81259580D02*
X147538095Y-81164342D01*
X147538095Y-81164342D02*
X147538095Y-80973866D01*
X147538095Y-80973866D02*
X147585714Y-80878628D01*
X147585714Y-80878628D02*
X147633333Y-80831009D01*
X147633333Y-80831009D02*
X147728571Y-80783390D01*
X152438094Y-75314819D02*
X152438094Y-74314819D01*
X152438094Y-74314819D02*
X152199999Y-74314819D01*
X152199999Y-74314819D02*
X152057142Y-74362438D01*
X152057142Y-74362438D02*
X151961904Y-74457676D01*
X151961904Y-74457676D02*
X151914285Y-74552914D01*
X151914285Y-74552914D02*
X151866666Y-74743390D01*
X151866666Y-74743390D02*
X151866666Y-74886247D01*
X151866666Y-74886247D02*
X151914285Y-75076723D01*
X151914285Y-75076723D02*
X151961904Y-75171961D01*
X151961904Y-75171961D02*
X152057142Y-75267200D01*
X152057142Y-75267200D02*
X152199999Y-75314819D01*
X152199999Y-75314819D02*
X152438094Y-75314819D01*
X150914285Y-75314819D02*
X151485713Y-75314819D01*
X151199999Y-75314819D02*
X151199999Y-74314819D01*
X151199999Y-74314819D02*
X151295237Y-74457676D01*
X151295237Y-74457676D02*
X151390475Y-74552914D01*
X151390475Y-74552914D02*
X151485713Y-74600533D01*
X155959580Y-82357142D02*
X156007200Y-82309523D01*
X156007200Y-82309523D02*
X156054819Y-82166666D01*
X156054819Y-82166666D02*
X156054819Y-82071428D01*
X156054819Y-82071428D02*
X156007200Y-81928571D01*
X156007200Y-81928571D02*
X155911961Y-81833333D01*
X155911961Y-81833333D02*
X155816723Y-81785714D01*
X155816723Y-81785714D02*
X155626247Y-81738095D01*
X155626247Y-81738095D02*
X155483390Y-81738095D01*
X155483390Y-81738095D02*
X155292914Y-81785714D01*
X155292914Y-81785714D02*
X155197676Y-81833333D01*
X155197676Y-81833333D02*
X155102438Y-81928571D01*
X155102438Y-81928571D02*
X155054819Y-82071428D01*
X155054819Y-82071428D02*
X155054819Y-82166666D01*
X155054819Y-82166666D02*
X155102438Y-82309523D01*
X155102438Y-82309523D02*
X155150057Y-82357142D01*
X155054819Y-82690476D02*
X155054819Y-83309523D01*
X155054819Y-83309523D02*
X155435771Y-82976190D01*
X155435771Y-82976190D02*
X155435771Y-83119047D01*
X155435771Y-83119047D02*
X155483390Y-83214285D01*
X155483390Y-83214285D02*
X155531009Y-83261904D01*
X155531009Y-83261904D02*
X155626247Y-83309523D01*
X155626247Y-83309523D02*
X155864342Y-83309523D01*
X155864342Y-83309523D02*
X155959580Y-83261904D01*
X155959580Y-83261904D02*
X156007200Y-83214285D01*
X156007200Y-83214285D02*
X156054819Y-83119047D01*
X156054819Y-83119047D02*
X156054819Y-82833333D01*
X156054819Y-82833333D02*
X156007200Y-82738095D01*
X156007200Y-82738095D02*
X155959580Y-82690476D01*
X155150057Y-83690476D02*
X155102438Y-83738095D01*
X155102438Y-83738095D02*
X155054819Y-83833333D01*
X155054819Y-83833333D02*
X155054819Y-84071428D01*
X155054819Y-84071428D02*
X155102438Y-84166666D01*
X155102438Y-84166666D02*
X155150057Y-84214285D01*
X155150057Y-84214285D02*
X155245295Y-84261904D01*
X155245295Y-84261904D02*
X155340533Y-84261904D01*
X155340533Y-84261904D02*
X155483390Y-84214285D01*
X155483390Y-84214285D02*
X156054819Y-83642857D01*
X156054819Y-83642857D02*
X156054819Y-84261904D01*
X134606666Y-88684819D02*
X134939999Y-88208628D01*
X135178094Y-88684819D02*
X135178094Y-87684819D01*
X135178094Y-87684819D02*
X134797142Y-87684819D01*
X134797142Y-87684819D02*
X134701904Y-87732438D01*
X134701904Y-87732438D02*
X134654285Y-87780057D01*
X134654285Y-87780057D02*
X134606666Y-87875295D01*
X134606666Y-87875295D02*
X134606666Y-88018152D01*
X134606666Y-88018152D02*
X134654285Y-88113390D01*
X134654285Y-88113390D02*
X134701904Y-88161009D01*
X134701904Y-88161009D02*
X134797142Y-88208628D01*
X134797142Y-88208628D02*
X135178094Y-88208628D01*
X133654285Y-88684819D02*
X134225713Y-88684819D01*
X133939999Y-88684819D02*
X133939999Y-87684819D01*
X133939999Y-87684819D02*
X134035237Y-87827676D01*
X134035237Y-87827676D02*
X134130475Y-87922914D01*
X134130475Y-87922914D02*
X134225713Y-87970533D01*
X154861904Y-63714819D02*
X154861904Y-64524342D01*
X154861904Y-64524342D02*
X154814285Y-64619580D01*
X154814285Y-64619580D02*
X154766666Y-64667200D01*
X154766666Y-64667200D02*
X154671428Y-64714819D01*
X154671428Y-64714819D02*
X154480952Y-64714819D01*
X154480952Y-64714819D02*
X154385714Y-64667200D01*
X154385714Y-64667200D02*
X154338095Y-64619580D01*
X154338095Y-64619580D02*
X154290476Y-64524342D01*
X154290476Y-64524342D02*
X154290476Y-63714819D01*
X153385714Y-63714819D02*
X153576190Y-63714819D01*
X153576190Y-63714819D02*
X153671428Y-63762438D01*
X153671428Y-63762438D02*
X153719047Y-63810057D01*
X153719047Y-63810057D02*
X153814285Y-63952914D01*
X153814285Y-63952914D02*
X153861904Y-64143390D01*
X153861904Y-64143390D02*
X153861904Y-64524342D01*
X153861904Y-64524342D02*
X153814285Y-64619580D01*
X153814285Y-64619580D02*
X153766666Y-64667200D01*
X153766666Y-64667200D02*
X153671428Y-64714819D01*
X153671428Y-64714819D02*
X153480952Y-64714819D01*
X153480952Y-64714819D02*
X153385714Y-64667200D01*
X153385714Y-64667200D02*
X153338095Y-64619580D01*
X153338095Y-64619580D02*
X153290476Y-64524342D01*
X153290476Y-64524342D02*
X153290476Y-64286247D01*
X153290476Y-64286247D02*
X153338095Y-64191009D01*
X153338095Y-64191009D02*
X153385714Y-64143390D01*
X153385714Y-64143390D02*
X153480952Y-64095771D01*
X153480952Y-64095771D02*
X153671428Y-64095771D01*
X153671428Y-64095771D02*
X153766666Y-64143390D01*
X153766666Y-64143390D02*
X153814285Y-64191009D01*
X153814285Y-64191009D02*
X153861904Y-64286247D01*
X153854819Y-79767142D02*
X153378628Y-79433809D01*
X153854819Y-79195714D02*
X152854819Y-79195714D01*
X152854819Y-79195714D02*
X152854819Y-79576666D01*
X152854819Y-79576666D02*
X152902438Y-79671904D01*
X152902438Y-79671904D02*
X152950057Y-79719523D01*
X152950057Y-79719523D02*
X153045295Y-79767142D01*
X153045295Y-79767142D02*
X153188152Y-79767142D01*
X153188152Y-79767142D02*
X153283390Y-79719523D01*
X153283390Y-79719523D02*
X153331009Y-79671904D01*
X153331009Y-79671904D02*
X153378628Y-79576666D01*
X153378628Y-79576666D02*
X153378628Y-79195714D01*
X152854819Y-80100476D02*
X152854819Y-80719523D01*
X152854819Y-80719523D02*
X153235771Y-80386190D01*
X153235771Y-80386190D02*
X153235771Y-80529047D01*
X153235771Y-80529047D02*
X153283390Y-80624285D01*
X153283390Y-80624285D02*
X153331009Y-80671904D01*
X153331009Y-80671904D02*
X153426247Y-80719523D01*
X153426247Y-80719523D02*
X153664342Y-80719523D01*
X153664342Y-80719523D02*
X153759580Y-80671904D01*
X153759580Y-80671904D02*
X153807200Y-80624285D01*
X153807200Y-80624285D02*
X153854819Y-80529047D01*
X153854819Y-80529047D02*
X153854819Y-80243333D01*
X153854819Y-80243333D02*
X153807200Y-80148095D01*
X153807200Y-80148095D02*
X153759580Y-80100476D01*
X153854819Y-81195714D02*
X153854819Y-81386190D01*
X153854819Y-81386190D02*
X153807200Y-81481428D01*
X153807200Y-81481428D02*
X153759580Y-81529047D01*
X153759580Y-81529047D02*
X153616723Y-81624285D01*
X153616723Y-81624285D02*
X153426247Y-81671904D01*
X153426247Y-81671904D02*
X153045295Y-81671904D01*
X153045295Y-81671904D02*
X152950057Y-81624285D01*
X152950057Y-81624285D02*
X152902438Y-81576666D01*
X152902438Y-81576666D02*
X152854819Y-81481428D01*
X152854819Y-81481428D02*
X152854819Y-81290952D01*
X152854819Y-81290952D02*
X152902438Y-81195714D01*
X152902438Y-81195714D02*
X152950057Y-81148095D01*
X152950057Y-81148095D02*
X153045295Y-81100476D01*
X153045295Y-81100476D02*
X153283390Y-81100476D01*
X153283390Y-81100476D02*
X153378628Y-81148095D01*
X153378628Y-81148095D02*
X153426247Y-81195714D01*
X153426247Y-81195714D02*
X153473866Y-81290952D01*
X153473866Y-81290952D02*
X153473866Y-81481428D01*
X153473866Y-81481428D02*
X153426247Y-81576666D01*
X153426247Y-81576666D02*
X153378628Y-81624285D01*
X153378628Y-81624285D02*
X153283390Y-81671904D01*
X129833333Y-63978319D02*
X130166666Y-63502128D01*
X130404761Y-63978319D02*
X130404761Y-62978319D01*
X130404761Y-62978319D02*
X130023809Y-62978319D01*
X130023809Y-62978319D02*
X129928571Y-63025938D01*
X129928571Y-63025938D02*
X129880952Y-63073557D01*
X129880952Y-63073557D02*
X129833333Y-63168795D01*
X129833333Y-63168795D02*
X129833333Y-63311652D01*
X129833333Y-63311652D02*
X129880952Y-63406890D01*
X129880952Y-63406890D02*
X129928571Y-63454509D01*
X129928571Y-63454509D02*
X130023809Y-63502128D01*
X130023809Y-63502128D02*
X130404761Y-63502128D01*
X129404761Y-63454509D02*
X129071428Y-63454509D01*
X128928571Y-63978319D02*
X129404761Y-63978319D01*
X129404761Y-63978319D02*
X129404761Y-62978319D01*
X129404761Y-62978319D02*
X128928571Y-62978319D01*
X128166666Y-63454509D02*
X128499999Y-63454509D01*
X128499999Y-63978319D02*
X128499999Y-62978319D01*
X128499999Y-62978319D02*
X128023809Y-62978319D01*
X127499999Y-62978319D02*
X127499999Y-63216414D01*
X127738094Y-63121176D02*
X127499999Y-63216414D01*
X127499999Y-63216414D02*
X127261904Y-63121176D01*
X127642856Y-63406890D02*
X127499999Y-63216414D01*
X127499999Y-63216414D02*
X127357142Y-63406890D01*
X126738094Y-62978319D02*
X126738094Y-63216414D01*
X126976189Y-63121176D02*
X126738094Y-63216414D01*
X126738094Y-63216414D02*
X126499999Y-63121176D01*
X126880951Y-63406890D02*
X126738094Y-63216414D01*
X126738094Y-63216414D02*
X126595237Y-63406890D01*
X190033333Y-63878319D02*
X190366666Y-63402128D01*
X190604761Y-63878319D02*
X190604761Y-62878319D01*
X190604761Y-62878319D02*
X190223809Y-62878319D01*
X190223809Y-62878319D02*
X190128571Y-62925938D01*
X190128571Y-62925938D02*
X190080952Y-62973557D01*
X190080952Y-62973557D02*
X190033333Y-63068795D01*
X190033333Y-63068795D02*
X190033333Y-63211652D01*
X190033333Y-63211652D02*
X190080952Y-63306890D01*
X190080952Y-63306890D02*
X190128571Y-63354509D01*
X190128571Y-63354509D02*
X190223809Y-63402128D01*
X190223809Y-63402128D02*
X190604761Y-63402128D01*
X189604761Y-63354509D02*
X189271428Y-63354509D01*
X189128571Y-63878319D02*
X189604761Y-63878319D01*
X189604761Y-63878319D02*
X189604761Y-62878319D01*
X189604761Y-62878319D02*
X189128571Y-62878319D01*
X188366666Y-63354509D02*
X188699999Y-63354509D01*
X188699999Y-63878319D02*
X188699999Y-62878319D01*
X188699999Y-62878319D02*
X188223809Y-62878319D01*
X187699999Y-62878319D02*
X187699999Y-63116414D01*
X187938094Y-63021176D02*
X187699999Y-63116414D01*
X187699999Y-63116414D02*
X187461904Y-63021176D01*
X187842856Y-63306890D02*
X187699999Y-63116414D01*
X187699999Y-63116414D02*
X187557142Y-63306890D01*
X186938094Y-62878319D02*
X186938094Y-63116414D01*
X187176189Y-63021176D02*
X186938094Y-63116414D01*
X186938094Y-63116414D02*
X186699999Y-63021176D01*
X187080951Y-63306890D02*
X186938094Y-63116414D01*
X186938094Y-63116414D02*
X186795237Y-63306890D01*
X154559580Y-82367142D02*
X154607200Y-82319523D01*
X154607200Y-82319523D02*
X154654819Y-82176666D01*
X154654819Y-82176666D02*
X154654819Y-82081428D01*
X154654819Y-82081428D02*
X154607200Y-81938571D01*
X154607200Y-81938571D02*
X154511961Y-81843333D01*
X154511961Y-81843333D02*
X154416723Y-81795714D01*
X154416723Y-81795714D02*
X154226247Y-81748095D01*
X154226247Y-81748095D02*
X154083390Y-81748095D01*
X154083390Y-81748095D02*
X153892914Y-81795714D01*
X153892914Y-81795714D02*
X153797676Y-81843333D01*
X153797676Y-81843333D02*
X153702438Y-81938571D01*
X153702438Y-81938571D02*
X153654819Y-82081428D01*
X153654819Y-82081428D02*
X153654819Y-82176666D01*
X153654819Y-82176666D02*
X153702438Y-82319523D01*
X153702438Y-82319523D02*
X153750057Y-82367142D01*
X153654819Y-82700476D02*
X153654819Y-83319523D01*
X153654819Y-83319523D02*
X154035771Y-82986190D01*
X154035771Y-82986190D02*
X154035771Y-83129047D01*
X154035771Y-83129047D02*
X154083390Y-83224285D01*
X154083390Y-83224285D02*
X154131009Y-83271904D01*
X154131009Y-83271904D02*
X154226247Y-83319523D01*
X154226247Y-83319523D02*
X154464342Y-83319523D01*
X154464342Y-83319523D02*
X154559580Y-83271904D01*
X154559580Y-83271904D02*
X154607200Y-83224285D01*
X154607200Y-83224285D02*
X154654819Y-83129047D01*
X154654819Y-83129047D02*
X154654819Y-82843333D01*
X154654819Y-82843333D02*
X154607200Y-82748095D01*
X154607200Y-82748095D02*
X154559580Y-82700476D01*
X154654819Y-84271904D02*
X154654819Y-83700476D01*
X154654819Y-83986190D02*
X153654819Y-83986190D01*
X153654819Y-83986190D02*
X153797676Y-83890952D01*
X153797676Y-83890952D02*
X153892914Y-83795714D01*
X153892914Y-83795714D02*
X153940533Y-83700476D01*
X149733333Y-103078319D02*
X150066666Y-102602128D01*
X150304761Y-103078319D02*
X150304761Y-102078319D01*
X150304761Y-102078319D02*
X149923809Y-102078319D01*
X149923809Y-102078319D02*
X149828571Y-102125938D01*
X149828571Y-102125938D02*
X149780952Y-102173557D01*
X149780952Y-102173557D02*
X149733333Y-102268795D01*
X149733333Y-102268795D02*
X149733333Y-102411652D01*
X149733333Y-102411652D02*
X149780952Y-102506890D01*
X149780952Y-102506890D02*
X149828571Y-102554509D01*
X149828571Y-102554509D02*
X149923809Y-102602128D01*
X149923809Y-102602128D02*
X150304761Y-102602128D01*
X149304761Y-102554509D02*
X148971428Y-102554509D01*
X148828571Y-103078319D02*
X149304761Y-103078319D01*
X149304761Y-103078319D02*
X149304761Y-102078319D01*
X149304761Y-102078319D02*
X148828571Y-102078319D01*
X148066666Y-102554509D02*
X148399999Y-102554509D01*
X148399999Y-103078319D02*
X148399999Y-102078319D01*
X148399999Y-102078319D02*
X147923809Y-102078319D01*
X147399999Y-102078319D02*
X147399999Y-102316414D01*
X147638094Y-102221176D02*
X147399999Y-102316414D01*
X147399999Y-102316414D02*
X147161904Y-102221176D01*
X147542856Y-102506890D02*
X147399999Y-102316414D01*
X147399999Y-102316414D02*
X147257142Y-102506890D01*
X146638094Y-102078319D02*
X146638094Y-102316414D01*
X146876189Y-102221176D02*
X146638094Y-102316414D01*
X146638094Y-102316414D02*
X146399999Y-102221176D01*
X146780951Y-102506890D02*
X146638094Y-102316414D01*
X146638094Y-102316414D02*
X146495237Y-102506890D01*
X152838094Y-62314819D02*
X152838094Y-61314819D01*
X152838094Y-61314819D02*
X152599999Y-61314819D01*
X152599999Y-61314819D02*
X152457142Y-61362438D01*
X152457142Y-61362438D02*
X152361904Y-61457676D01*
X152361904Y-61457676D02*
X152314285Y-61552914D01*
X152314285Y-61552914D02*
X152266666Y-61743390D01*
X152266666Y-61743390D02*
X152266666Y-61886247D01*
X152266666Y-61886247D02*
X152314285Y-62076723D01*
X152314285Y-62076723D02*
X152361904Y-62171961D01*
X152361904Y-62171961D02*
X152457142Y-62267200D01*
X152457142Y-62267200D02*
X152599999Y-62314819D01*
X152599999Y-62314819D02*
X152838094Y-62314819D01*
X151885713Y-61410057D02*
X151838094Y-61362438D01*
X151838094Y-61362438D02*
X151742856Y-61314819D01*
X151742856Y-61314819D02*
X151504761Y-61314819D01*
X151504761Y-61314819D02*
X151409523Y-61362438D01*
X151409523Y-61362438D02*
X151361904Y-61410057D01*
X151361904Y-61410057D02*
X151314285Y-61505295D01*
X151314285Y-61505295D02*
X151314285Y-61600533D01*
X151314285Y-61600533D02*
X151361904Y-61743390D01*
X151361904Y-61743390D02*
X151933332Y-62314819D01*
X151933332Y-62314819D02*
X151314285Y-62314819D01*
X150354819Y-82167142D02*
X149878628Y-81833809D01*
X150354819Y-81595714D02*
X149354819Y-81595714D01*
X149354819Y-81595714D02*
X149354819Y-81976666D01*
X149354819Y-81976666D02*
X149402438Y-82071904D01*
X149402438Y-82071904D02*
X149450057Y-82119523D01*
X149450057Y-82119523D02*
X149545295Y-82167142D01*
X149545295Y-82167142D02*
X149688152Y-82167142D01*
X149688152Y-82167142D02*
X149783390Y-82119523D01*
X149783390Y-82119523D02*
X149831009Y-82071904D01*
X149831009Y-82071904D02*
X149878628Y-81976666D01*
X149878628Y-81976666D02*
X149878628Y-81595714D01*
X149354819Y-82500476D02*
X149354819Y-83119523D01*
X149354819Y-83119523D02*
X149735771Y-82786190D01*
X149735771Y-82786190D02*
X149735771Y-82929047D01*
X149735771Y-82929047D02*
X149783390Y-83024285D01*
X149783390Y-83024285D02*
X149831009Y-83071904D01*
X149831009Y-83071904D02*
X149926247Y-83119523D01*
X149926247Y-83119523D02*
X150164342Y-83119523D01*
X150164342Y-83119523D02*
X150259580Y-83071904D01*
X150259580Y-83071904D02*
X150307200Y-83024285D01*
X150307200Y-83024285D02*
X150354819Y-82929047D01*
X150354819Y-82929047D02*
X150354819Y-82643333D01*
X150354819Y-82643333D02*
X150307200Y-82548095D01*
X150307200Y-82548095D02*
X150259580Y-82500476D01*
X149354819Y-83452857D02*
X149354819Y-84119523D01*
X149354819Y-84119523D02*
X150354819Y-83690952D01*
D13*
X152725000Y-68660000D02*
X145825000Y-68660000D01*
X145825000Y-68660000D02*
X145825000Y-73060000D01*
X145825000Y-73060000D02*
X152725000Y-73060000D01*
X152725000Y-73060000D02*
X152725000Y-68660000D01*
D14*
X153525000Y-70860000D02*
G75*
G03*
X153125000Y-70860000I-200000J0D01*
G01*
X153125000Y-70860000D02*
G75*
G03*
X153525000Y-70860000I200000J0D01*
G01*
D13*
X152120000Y-93053641D02*
X152120000Y-92746359D01*
X152880000Y-93053641D02*
X152880000Y-92746359D01*
X132025000Y-95475000D02*
X129175000Y-95475000D01*
X121965000Y-95235000D02*
X121965000Y-90035000D01*
X131785000Y-95235000D02*
X121965000Y-95235000D01*
X132025000Y-92625000D02*
X132025000Y-95475000D01*
X120565000Y-90035000D02*
X120565000Y-88225000D01*
X121965000Y-90035000D02*
X120565000Y-90035000D01*
X131785000Y-88225000D02*
X131785000Y-95235000D01*
X131785000Y-88225000D02*
X131785000Y-81215000D01*
X120565000Y-86415000D02*
X120565000Y-88225000D01*
X121965000Y-86415000D02*
X120565000Y-86415000D01*
X121965000Y-81215000D02*
X121965000Y-86415000D01*
X131785000Y-81215000D02*
X121965000Y-81215000D01*
X153060000Y-78260000D02*
X153060000Y-77610000D01*
X153060000Y-78260000D02*
X153060000Y-78910000D01*
X149940000Y-78260000D02*
X149940000Y-76585000D01*
X149940000Y-78260000D02*
X149940000Y-78910000D01*
X154660000Y-87422164D02*
X154660000Y-87637836D01*
X153940000Y-87422164D02*
X153940000Y-87637836D01*
X150290000Y-88060000D02*
X150290000Y-89560000D01*
X150290000Y-88060000D02*
X150290000Y-86560000D01*
X153510000Y-88060000D02*
X153510000Y-90985000D01*
X153510000Y-88060000D02*
X153510000Y-86560000D01*
X151680000Y-92746359D02*
X151680000Y-93053641D01*
X150920000Y-92746359D02*
X150920000Y-93053641D01*
D15*
X168285000Y-81275804D02*
X168285000Y-112035204D01*
X165516400Y-81275804D02*
X168285000Y-81275804D01*
X161477800Y-81275804D02*
X162468400Y-81275804D01*
X161477800Y-83917404D02*
X161477800Y-81275804D01*
X168285000Y-112035204D02*
X165516400Y-112035204D01*
X162468400Y-112035204D02*
X161477800Y-112035204D01*
X161477800Y-112035204D02*
X161477800Y-109393604D01*
D16*
X161300000Y-79878804D02*
G75*
G03*
X161300000Y-79116804I0J381000D01*
G01*
X161300000Y-79116804D02*
G75*
G03*
X161300000Y-79878804I0J-381000D01*
G01*
D13*
X151653641Y-81390000D02*
X151346359Y-81390000D01*
X151653641Y-80630000D02*
X151346359Y-80630000D01*
X150660000Y-75860000D02*
X146650000Y-75860000D01*
X150660000Y-73860000D02*
X150660000Y-75860000D01*
X150660000Y-73860000D02*
X146650000Y-73860000D01*
X155140000Y-85317836D02*
X155140000Y-85102164D01*
X155860000Y-85317836D02*
X155860000Y-85102164D01*
X134593641Y-89780000D02*
X134286359Y-89780000D01*
X134593641Y-89020000D02*
X134286359Y-89020000D01*
X152725000Y-63660000D02*
X145825000Y-63660000D01*
X145825000Y-63660000D02*
X145825000Y-68060000D01*
X145825000Y-68060000D02*
X152725000Y-68060000D01*
X152725000Y-68060000D02*
X152725000Y-63660000D01*
D14*
X153525000Y-65860000D02*
G75*
G03*
X153125000Y-65860000I-200000J0D01*
G01*
X153125000Y-65860000D02*
G75*
G03*
X153525000Y-65860000I200000J0D01*
G01*
D13*
X152520000Y-82963641D02*
X152520000Y-82656359D01*
X153280000Y-82963641D02*
X153280000Y-82656359D01*
X153940000Y-85397836D02*
X153940000Y-85182164D01*
X154660000Y-85397836D02*
X154660000Y-85182164D01*
X150860000Y-63060000D02*
X146850000Y-63060000D01*
X150860000Y-61060000D02*
X150860000Y-63060000D01*
X150860000Y-61060000D02*
X146850000Y-61060000D01*
X150720000Y-82963641D02*
X150720000Y-82656359D01*
X151480000Y-82963641D02*
X151480000Y-82656359D01*
M02*
