G04 #@! TF.GenerationSoftware,KiCad,Pcbnew,7.0.10*
G04 #@! TF.CreationDate,2024-01-16T22:15:53+03:00*
G04 #@! TF.ProjectId,Eco_display,45636f5f-6469-4737-906c-61792e6b6963,rev?*
G04 #@! TF.SameCoordinates,Original*
G04 #@! TF.FileFunction,Legend,Bot*
G04 #@! TF.FilePolarity,Positive*
%FSLAX46Y46*%
G04 Gerber Fmt 4.6, Leading zero omitted, Abs format (unit mm)*
G04 Created by KiCad (PCBNEW 7.0.10) date 2024-01-16 22:15:53*
%MOMM*%
%LPD*%
G01*
G04 APERTURE LIST*
%ADD10C,0.001000*%
%ADD11C,0.150000*%
%ADD12C,0.071628*%
%ADD13C,0.120000*%
%ADD14C,0.500000*%
%ADD15C,0.152400*%
%ADD16C,0.508000*%
G04 APERTURE END LIST*
D10*
X141841975Y-83804023D02*
X141841975Y-86804023D01*
X148841975Y-68604023D02*
X148841975Y-65604023D01*
X143741975Y-63504075D02*
G75*
G03*
X141641975Y-65604023I-75J-2099925D01*
G01*
X143941975Y-88904023D02*
X146941975Y-88904023D01*
X141841977Y-86804023D02*
G75*
G03*
X143941975Y-88904023I2100023J23D01*
G01*
X143941975Y-81704075D02*
G75*
G03*
X141841975Y-83804023I-75J-2099925D01*
G01*
X146941975Y-81704023D02*
X143941975Y-81704023D01*
X146941975Y-88904075D02*
G75*
G03*
X149041975Y-86804023I-75J2100075D01*
G01*
X146741975Y-63504023D02*
X143741975Y-63504023D01*
X141641975Y-65604023D02*
X141641975Y-68604023D01*
X143841975Y-98224075D02*
G75*
G03*
X141741975Y-100324023I-75J-2099925D01*
G01*
X141741975Y-100324023D02*
X141741975Y-103324023D01*
X148941977Y-100324023D02*
G75*
G03*
X146841975Y-98224023I-2099977J23D01*
G01*
X149041977Y-83804023D02*
G75*
G03*
X146941975Y-81704023I-2099977J23D01*
G01*
X146741975Y-70704075D02*
G75*
G03*
X148841975Y-68604023I-75J2100075D01*
G01*
X141641977Y-68604023D02*
G75*
G03*
X143741975Y-70704023I2100023J23D01*
G01*
X148941975Y-103324023D02*
X148941975Y-100324023D01*
X141741977Y-103324023D02*
G75*
G03*
X143841975Y-105424023I2100023J23D01*
G01*
X148841977Y-65604023D02*
G75*
G03*
X146741975Y-63504023I-2099977J23D01*
G01*
X149041975Y-86804023D02*
X149041975Y-83804023D01*
X146841975Y-105424075D02*
G75*
G03*
X148941975Y-103324023I-75J2100075D01*
G01*
X143741975Y-70704023D02*
X146741975Y-70704023D01*
X143841975Y-105424023D02*
X146841975Y-105424023D01*
X176684725Y-108635610D02*
X171384725Y-108635610D01*
X146841975Y-98224023D02*
X143841975Y-98224023D01*
D11*
X156361904Y-77454819D02*
X156361904Y-78264342D01*
X156361904Y-78264342D02*
X156314285Y-78359580D01*
X156314285Y-78359580D02*
X156266666Y-78407200D01*
X156266666Y-78407200D02*
X156171428Y-78454819D01*
X156171428Y-78454819D02*
X155980952Y-78454819D01*
X155980952Y-78454819D02*
X155885714Y-78407200D01*
X155885714Y-78407200D02*
X155838095Y-78359580D01*
X155838095Y-78359580D02*
X155790476Y-78264342D01*
X155790476Y-78264342D02*
X155790476Y-77454819D01*
X154885714Y-77788152D02*
X154885714Y-78454819D01*
X155123809Y-77407200D02*
X155361904Y-78121485D01*
X155361904Y-78121485D02*
X154742857Y-78121485D01*
X155824819Y-100997142D02*
X155348628Y-100663809D01*
X155824819Y-100425714D02*
X154824819Y-100425714D01*
X154824819Y-100425714D02*
X154824819Y-100806666D01*
X154824819Y-100806666D02*
X154872438Y-100901904D01*
X154872438Y-100901904D02*
X154920057Y-100949523D01*
X154920057Y-100949523D02*
X155015295Y-100997142D01*
X155015295Y-100997142D02*
X155158152Y-100997142D01*
X155158152Y-100997142D02*
X155253390Y-100949523D01*
X155253390Y-100949523D02*
X155301009Y-100901904D01*
X155301009Y-100901904D02*
X155348628Y-100806666D01*
X155348628Y-100806666D02*
X155348628Y-100425714D01*
X154824819Y-101330476D02*
X154824819Y-101949523D01*
X154824819Y-101949523D02*
X155205771Y-101616190D01*
X155205771Y-101616190D02*
X155205771Y-101759047D01*
X155205771Y-101759047D02*
X155253390Y-101854285D01*
X155253390Y-101854285D02*
X155301009Y-101901904D01*
X155301009Y-101901904D02*
X155396247Y-101949523D01*
X155396247Y-101949523D02*
X155634342Y-101949523D01*
X155634342Y-101949523D02*
X155729580Y-101901904D01*
X155729580Y-101901904D02*
X155777200Y-101854285D01*
X155777200Y-101854285D02*
X155824819Y-101759047D01*
X155824819Y-101759047D02*
X155824819Y-101473333D01*
X155824819Y-101473333D02*
X155777200Y-101378095D01*
X155777200Y-101378095D02*
X155729580Y-101330476D01*
X154920057Y-102330476D02*
X154872438Y-102378095D01*
X154872438Y-102378095D02*
X154824819Y-102473333D01*
X154824819Y-102473333D02*
X154824819Y-102711428D01*
X154824819Y-102711428D02*
X154872438Y-102806666D01*
X154872438Y-102806666D02*
X154920057Y-102854285D01*
X154920057Y-102854285D02*
X155015295Y-102901904D01*
X155015295Y-102901904D02*
X155110533Y-102901904D01*
X155110533Y-102901904D02*
X155253390Y-102854285D01*
X155253390Y-102854285D02*
X155824819Y-102282857D01*
X155824819Y-102282857D02*
X155824819Y-102901904D01*
X143404819Y-76116666D02*
X144119104Y-76116666D01*
X144119104Y-76116666D02*
X144261961Y-76069047D01*
X144261961Y-76069047D02*
X144357200Y-75973809D01*
X144357200Y-75973809D02*
X144404819Y-75830952D01*
X144404819Y-75830952D02*
X144404819Y-75735714D01*
X143500057Y-76545238D02*
X143452438Y-76592857D01*
X143452438Y-76592857D02*
X143404819Y-76688095D01*
X143404819Y-76688095D02*
X143404819Y-76926190D01*
X143404819Y-76926190D02*
X143452438Y-77021428D01*
X143452438Y-77021428D02*
X143500057Y-77069047D01*
X143500057Y-77069047D02*
X143595295Y-77116666D01*
X143595295Y-77116666D02*
X143690533Y-77116666D01*
X143690533Y-77116666D02*
X143833390Y-77069047D01*
X143833390Y-77069047D02*
X144404819Y-76497619D01*
X144404819Y-76497619D02*
X144404819Y-77116666D01*
X151254819Y-86261905D02*
X150254819Y-86261905D01*
X150254819Y-86261905D02*
X150254819Y-86500000D01*
X150254819Y-86500000D02*
X150302438Y-86642857D01*
X150302438Y-86642857D02*
X150397676Y-86738095D01*
X150397676Y-86738095D02*
X150492914Y-86785714D01*
X150492914Y-86785714D02*
X150683390Y-86833333D01*
X150683390Y-86833333D02*
X150826247Y-86833333D01*
X150826247Y-86833333D02*
X151016723Y-86785714D01*
X151016723Y-86785714D02*
X151111961Y-86738095D01*
X151111961Y-86738095D02*
X151207200Y-86642857D01*
X151207200Y-86642857D02*
X151254819Y-86500000D01*
X151254819Y-86500000D02*
X151254819Y-86261905D01*
X151254819Y-87309524D02*
X151254819Y-87500000D01*
X151254819Y-87500000D02*
X151207200Y-87595238D01*
X151207200Y-87595238D02*
X151159580Y-87642857D01*
X151159580Y-87642857D02*
X151016723Y-87738095D01*
X151016723Y-87738095D02*
X150826247Y-87785714D01*
X150826247Y-87785714D02*
X150445295Y-87785714D01*
X150445295Y-87785714D02*
X150350057Y-87738095D01*
X150350057Y-87738095D02*
X150302438Y-87690476D01*
X150302438Y-87690476D02*
X150254819Y-87595238D01*
X150254819Y-87595238D02*
X150254819Y-87404762D01*
X150254819Y-87404762D02*
X150302438Y-87309524D01*
X150302438Y-87309524D02*
X150350057Y-87261905D01*
X150350057Y-87261905D02*
X150445295Y-87214286D01*
X150445295Y-87214286D02*
X150683390Y-87214286D01*
X150683390Y-87214286D02*
X150778628Y-87261905D01*
X150778628Y-87261905D02*
X150826247Y-87309524D01*
X150826247Y-87309524D02*
X150873866Y-87404762D01*
X150873866Y-87404762D02*
X150873866Y-87595238D01*
X150873866Y-87595238D02*
X150826247Y-87690476D01*
X150826247Y-87690476D02*
X150778628Y-87738095D01*
X150778628Y-87738095D02*
X150683390Y-87785714D01*
X156359580Y-97907142D02*
X156407200Y-97859523D01*
X156407200Y-97859523D02*
X156454819Y-97716666D01*
X156454819Y-97716666D02*
X156454819Y-97621428D01*
X156454819Y-97621428D02*
X156407200Y-97478571D01*
X156407200Y-97478571D02*
X156311961Y-97383333D01*
X156311961Y-97383333D02*
X156216723Y-97335714D01*
X156216723Y-97335714D02*
X156026247Y-97288095D01*
X156026247Y-97288095D02*
X155883390Y-97288095D01*
X155883390Y-97288095D02*
X155692914Y-97335714D01*
X155692914Y-97335714D02*
X155597676Y-97383333D01*
X155597676Y-97383333D02*
X155502438Y-97478571D01*
X155502438Y-97478571D02*
X155454819Y-97621428D01*
X155454819Y-97621428D02*
X155454819Y-97716666D01*
X155454819Y-97716666D02*
X155502438Y-97859523D01*
X155502438Y-97859523D02*
X155550057Y-97907142D01*
X155454819Y-98240476D02*
X155454819Y-98859523D01*
X155454819Y-98859523D02*
X155835771Y-98526190D01*
X155835771Y-98526190D02*
X155835771Y-98669047D01*
X155835771Y-98669047D02*
X155883390Y-98764285D01*
X155883390Y-98764285D02*
X155931009Y-98811904D01*
X155931009Y-98811904D02*
X156026247Y-98859523D01*
X156026247Y-98859523D02*
X156264342Y-98859523D01*
X156264342Y-98859523D02*
X156359580Y-98811904D01*
X156359580Y-98811904D02*
X156407200Y-98764285D01*
X156407200Y-98764285D02*
X156454819Y-98669047D01*
X156454819Y-98669047D02*
X156454819Y-98383333D01*
X156454819Y-98383333D02*
X156407200Y-98288095D01*
X156407200Y-98288095D02*
X156359580Y-98240476D01*
X155454819Y-99478571D02*
X155454819Y-99573809D01*
X155454819Y-99573809D02*
X155502438Y-99669047D01*
X155502438Y-99669047D02*
X155550057Y-99716666D01*
X155550057Y-99716666D02*
X155645295Y-99764285D01*
X155645295Y-99764285D02*
X155835771Y-99811904D01*
X155835771Y-99811904D02*
X156073866Y-99811904D01*
X156073866Y-99811904D02*
X156264342Y-99764285D01*
X156264342Y-99764285D02*
X156359580Y-99716666D01*
X156359580Y-99716666D02*
X156407200Y-99669047D01*
X156407200Y-99669047D02*
X156454819Y-99573809D01*
X156454819Y-99573809D02*
X156454819Y-99478571D01*
X156454819Y-99478571D02*
X156407200Y-99383333D01*
X156407200Y-99383333D02*
X156359580Y-99335714D01*
X156359580Y-99335714D02*
X156264342Y-99288095D01*
X156264342Y-99288095D02*
X156073866Y-99240476D01*
X156073866Y-99240476D02*
X155835771Y-99240476D01*
X155835771Y-99240476D02*
X155645295Y-99288095D01*
X155645295Y-99288095D02*
X155550057Y-99335714D01*
X155550057Y-99335714D02*
X155502438Y-99383333D01*
X155502438Y-99383333D02*
X155454819Y-99478571D01*
X150454819Y-95511905D02*
X151264342Y-95511905D01*
X151264342Y-95511905D02*
X151359580Y-95559524D01*
X151359580Y-95559524D02*
X151407200Y-95607143D01*
X151407200Y-95607143D02*
X151454819Y-95702381D01*
X151454819Y-95702381D02*
X151454819Y-95892857D01*
X151454819Y-95892857D02*
X151407200Y-95988095D01*
X151407200Y-95988095D02*
X151359580Y-96035714D01*
X151359580Y-96035714D02*
X151264342Y-96083333D01*
X151264342Y-96083333D02*
X150454819Y-96083333D01*
X151454819Y-97083333D02*
X151454819Y-96511905D01*
X151454819Y-96797619D02*
X150454819Y-96797619D01*
X150454819Y-96797619D02*
X150597676Y-96702381D01*
X150597676Y-96702381D02*
X150692914Y-96607143D01*
X150692914Y-96607143D02*
X150740533Y-96511905D01*
X151454819Y-97559524D02*
X151454819Y-97750000D01*
X151454819Y-97750000D02*
X151407200Y-97845238D01*
X151407200Y-97845238D02*
X151359580Y-97892857D01*
X151359580Y-97892857D02*
X151216723Y-97988095D01*
X151216723Y-97988095D02*
X151026247Y-98035714D01*
X151026247Y-98035714D02*
X150645295Y-98035714D01*
X150645295Y-98035714D02*
X150550057Y-97988095D01*
X150550057Y-97988095D02*
X150502438Y-97940476D01*
X150502438Y-97940476D02*
X150454819Y-97845238D01*
X150454819Y-97845238D02*
X150454819Y-97654762D01*
X150454819Y-97654762D02*
X150502438Y-97559524D01*
X150502438Y-97559524D02*
X150550057Y-97511905D01*
X150550057Y-97511905D02*
X150645295Y-97464286D01*
X150645295Y-97464286D02*
X150883390Y-97464286D01*
X150883390Y-97464286D02*
X150978628Y-97511905D01*
X150978628Y-97511905D02*
X151026247Y-97559524D01*
X151026247Y-97559524D02*
X151073866Y-97654762D01*
X151073866Y-97654762D02*
X151073866Y-97845238D01*
X151073866Y-97845238D02*
X151026247Y-97940476D01*
X151026247Y-97940476D02*
X150978628Y-97988095D01*
X150978628Y-97988095D02*
X150883390Y-98035714D01*
X152284819Y-100997142D02*
X151808628Y-100663809D01*
X152284819Y-100425714D02*
X151284819Y-100425714D01*
X151284819Y-100425714D02*
X151284819Y-100806666D01*
X151284819Y-100806666D02*
X151332438Y-100901904D01*
X151332438Y-100901904D02*
X151380057Y-100949523D01*
X151380057Y-100949523D02*
X151475295Y-100997142D01*
X151475295Y-100997142D02*
X151618152Y-100997142D01*
X151618152Y-100997142D02*
X151713390Y-100949523D01*
X151713390Y-100949523D02*
X151761009Y-100901904D01*
X151761009Y-100901904D02*
X151808628Y-100806666D01*
X151808628Y-100806666D02*
X151808628Y-100425714D01*
X151284819Y-101330476D02*
X151284819Y-101949523D01*
X151284819Y-101949523D02*
X151665771Y-101616190D01*
X151665771Y-101616190D02*
X151665771Y-101759047D01*
X151665771Y-101759047D02*
X151713390Y-101854285D01*
X151713390Y-101854285D02*
X151761009Y-101901904D01*
X151761009Y-101901904D02*
X151856247Y-101949523D01*
X151856247Y-101949523D02*
X152094342Y-101949523D01*
X152094342Y-101949523D02*
X152189580Y-101901904D01*
X152189580Y-101901904D02*
X152237200Y-101854285D01*
X152237200Y-101854285D02*
X152284819Y-101759047D01*
X152284819Y-101759047D02*
X152284819Y-101473333D01*
X152284819Y-101473333D02*
X152237200Y-101378095D01*
X152237200Y-101378095D02*
X152189580Y-101330476D01*
X152284819Y-102901904D02*
X152284819Y-102330476D01*
X152284819Y-102616190D02*
X151284819Y-102616190D01*
X151284819Y-102616190D02*
X151427676Y-102520952D01*
X151427676Y-102520952D02*
X151522914Y-102425714D01*
X151522914Y-102425714D02*
X151570533Y-102330476D01*
D12*
X164707179Y-81405771D02*
X164707179Y-81303300D01*
X164707179Y-81303300D02*
X164732797Y-81252064D01*
X164732797Y-81252064D02*
X164758415Y-81226447D01*
X164758415Y-81226447D02*
X164835268Y-81175211D01*
X164835268Y-81175211D02*
X164937739Y-81149593D01*
X164937739Y-81149593D02*
X165142680Y-81149593D01*
X165142680Y-81149593D02*
X165193916Y-81175211D01*
X165193916Y-81175211D02*
X165219534Y-81200829D01*
X165219534Y-81200829D02*
X165245151Y-81252064D01*
X165245151Y-81252064D02*
X165245151Y-81354535D01*
X165245151Y-81354535D02*
X165219534Y-81405771D01*
X165219534Y-81405771D02*
X165193916Y-81431388D01*
X165193916Y-81431388D02*
X165142680Y-81457006D01*
X165142680Y-81457006D02*
X165014592Y-81457006D01*
X165014592Y-81457006D02*
X164963356Y-81431388D01*
X164963356Y-81431388D02*
X164937739Y-81405771D01*
X164937739Y-81405771D02*
X164912121Y-81354535D01*
X164912121Y-81354535D02*
X164912121Y-81252064D01*
X164912121Y-81252064D02*
X164937739Y-81200829D01*
X164937739Y-81200829D02*
X164963356Y-81175211D01*
X164963356Y-81175211D02*
X165014592Y-81149593D01*
X164758415Y-81661947D02*
X164732797Y-81687565D01*
X164732797Y-81687565D02*
X164707179Y-81738801D01*
X164707179Y-81738801D02*
X164707179Y-81866889D01*
X164707179Y-81866889D02*
X164732797Y-81918125D01*
X164732797Y-81918125D02*
X164758415Y-81943742D01*
X164758415Y-81943742D02*
X164809650Y-81969360D01*
X164809650Y-81969360D02*
X164860886Y-81969360D01*
X164860886Y-81969360D02*
X164937739Y-81943742D01*
X164937739Y-81943742D02*
X165245151Y-81636330D01*
X165245151Y-81636330D02*
X165245151Y-81969360D01*
X164707179Y-82430479D02*
X164707179Y-82328008D01*
X164707179Y-82328008D02*
X164732797Y-82276772D01*
X164732797Y-82276772D02*
X164758415Y-82251155D01*
X164758415Y-82251155D02*
X164835268Y-82199919D01*
X164835268Y-82199919D02*
X164937739Y-82174301D01*
X164937739Y-82174301D02*
X165142680Y-82174301D01*
X165142680Y-82174301D02*
X165193916Y-82199919D01*
X165193916Y-82199919D02*
X165219534Y-82225537D01*
X165219534Y-82225537D02*
X165245151Y-82276772D01*
X165245151Y-82276772D02*
X165245151Y-82379243D01*
X165245151Y-82379243D02*
X165219534Y-82430479D01*
X165219534Y-82430479D02*
X165193916Y-82456096D01*
X165193916Y-82456096D02*
X165142680Y-82481714D01*
X165142680Y-82481714D02*
X165014592Y-82481714D01*
X165014592Y-82481714D02*
X164963356Y-82456096D01*
X164963356Y-82456096D02*
X164937739Y-82430479D01*
X164937739Y-82430479D02*
X164912121Y-82379243D01*
X164912121Y-82379243D02*
X164912121Y-82276772D01*
X164912121Y-82276772D02*
X164937739Y-82225537D01*
X164937739Y-82225537D02*
X164963356Y-82199919D01*
X164963356Y-82199919D02*
X165014592Y-82174301D01*
X164937739Y-82789126D02*
X164912121Y-82737891D01*
X164912121Y-82737891D02*
X164886503Y-82712273D01*
X164886503Y-82712273D02*
X164835268Y-82686655D01*
X164835268Y-82686655D02*
X164809650Y-82686655D01*
X164809650Y-82686655D02*
X164758415Y-82712273D01*
X164758415Y-82712273D02*
X164732797Y-82737891D01*
X164732797Y-82737891D02*
X164707179Y-82789126D01*
X164707179Y-82789126D02*
X164707179Y-82891597D01*
X164707179Y-82891597D02*
X164732797Y-82942833D01*
X164732797Y-82942833D02*
X164758415Y-82968450D01*
X164758415Y-82968450D02*
X164809650Y-82994068D01*
X164809650Y-82994068D02*
X164835268Y-82994068D01*
X164835268Y-82994068D02*
X164886503Y-82968450D01*
X164886503Y-82968450D02*
X164912121Y-82942833D01*
X164912121Y-82942833D02*
X164937739Y-82891597D01*
X164937739Y-82891597D02*
X164937739Y-82789126D01*
X164937739Y-82789126D02*
X164963356Y-82737891D01*
X164963356Y-82737891D02*
X164988974Y-82712273D01*
X164988974Y-82712273D02*
X165040210Y-82686655D01*
X165040210Y-82686655D02*
X165142680Y-82686655D01*
X165142680Y-82686655D02*
X165193916Y-82712273D01*
X165193916Y-82712273D02*
X165219534Y-82737891D01*
X165219534Y-82737891D02*
X165245151Y-82789126D01*
X165245151Y-82789126D02*
X165245151Y-82891597D01*
X165245151Y-82891597D02*
X165219534Y-82942833D01*
X165219534Y-82942833D02*
X165193916Y-82968450D01*
X165193916Y-82968450D02*
X165142680Y-82994068D01*
X165142680Y-82994068D02*
X165040210Y-82994068D01*
X165040210Y-82994068D02*
X164988974Y-82968450D01*
X164988974Y-82968450D02*
X164963356Y-82942833D01*
X164963356Y-82942833D02*
X164937739Y-82891597D01*
X164886503Y-83455187D02*
X165245151Y-83455187D01*
X164681562Y-83327098D02*
X165065827Y-83199009D01*
X165065827Y-83199009D02*
X165065827Y-83532040D01*
X165040210Y-83736981D02*
X165040210Y-84146865D01*
X164707179Y-84659219D02*
X164707179Y-84403042D01*
X164707179Y-84403042D02*
X164963356Y-84377424D01*
X164963356Y-84377424D02*
X164937739Y-84403042D01*
X164937739Y-84403042D02*
X164912121Y-84454278D01*
X164912121Y-84454278D02*
X164912121Y-84582366D01*
X164912121Y-84582366D02*
X164937739Y-84633602D01*
X164937739Y-84633602D02*
X164963356Y-84659219D01*
X164963356Y-84659219D02*
X165014592Y-84684837D01*
X165014592Y-84684837D02*
X165142680Y-84684837D01*
X165142680Y-84684837D02*
X165193916Y-84659219D01*
X165193916Y-84659219D02*
X165219534Y-84633602D01*
X165219534Y-84633602D02*
X165245151Y-84582366D01*
X165245151Y-84582366D02*
X165245151Y-84454278D01*
X165245151Y-84454278D02*
X165219534Y-84403042D01*
X165219534Y-84403042D02*
X165193916Y-84377424D01*
X164707179Y-85017867D02*
X164707179Y-85069102D01*
X164707179Y-85069102D02*
X164732797Y-85120338D01*
X164732797Y-85120338D02*
X164758415Y-85145956D01*
X164758415Y-85145956D02*
X164809650Y-85171573D01*
X164809650Y-85171573D02*
X164912121Y-85197191D01*
X164912121Y-85197191D02*
X165040210Y-85197191D01*
X165040210Y-85197191D02*
X165142680Y-85171573D01*
X165142680Y-85171573D02*
X165193916Y-85145956D01*
X165193916Y-85145956D02*
X165219534Y-85120338D01*
X165219534Y-85120338D02*
X165245151Y-85069102D01*
X165245151Y-85069102D02*
X165245151Y-85017867D01*
X165245151Y-85017867D02*
X165219534Y-84966632D01*
X165219534Y-84966632D02*
X165193916Y-84941014D01*
X165193916Y-84941014D02*
X165142680Y-84915396D01*
X165142680Y-84915396D02*
X165040210Y-84889778D01*
X165040210Y-84889778D02*
X164912121Y-84889778D01*
X164912121Y-84889778D02*
X164809650Y-84915396D01*
X164809650Y-84915396D02*
X164758415Y-84941014D01*
X164758415Y-84941014D02*
X164732797Y-84966632D01*
X164732797Y-84966632D02*
X164707179Y-85017867D01*
X165245151Y-85709545D02*
X165245151Y-85402132D01*
X165245151Y-85555839D02*
X164707179Y-85555839D01*
X164707179Y-85555839D02*
X164784032Y-85504603D01*
X164784032Y-85504603D02*
X164835268Y-85453368D01*
X164835268Y-85453368D02*
X164860886Y-85402132D01*
X165245151Y-86221899D02*
X165245151Y-85914486D01*
X165245151Y-86068193D02*
X164707179Y-86068193D01*
X164707179Y-86068193D02*
X164784032Y-86016957D01*
X164784032Y-86016957D02*
X164835268Y-85965722D01*
X164835268Y-85965722D02*
X164860886Y-85914486D01*
X164707179Y-86554929D02*
X164707179Y-86606164D01*
X164707179Y-86606164D02*
X164732797Y-86657400D01*
X164732797Y-86657400D02*
X164758415Y-86683018D01*
X164758415Y-86683018D02*
X164809650Y-86708635D01*
X164809650Y-86708635D02*
X164912121Y-86734253D01*
X164912121Y-86734253D02*
X165040210Y-86734253D01*
X165040210Y-86734253D02*
X165142680Y-86708635D01*
X165142680Y-86708635D02*
X165193916Y-86683018D01*
X165193916Y-86683018D02*
X165219534Y-86657400D01*
X165219534Y-86657400D02*
X165245151Y-86606164D01*
X165245151Y-86606164D02*
X165245151Y-86554929D01*
X165245151Y-86554929D02*
X165219534Y-86503694D01*
X165219534Y-86503694D02*
X165193916Y-86478076D01*
X165193916Y-86478076D02*
X165142680Y-86452458D01*
X165142680Y-86452458D02*
X165040210Y-86426840D01*
X165040210Y-86426840D02*
X164912121Y-86426840D01*
X164912121Y-86426840D02*
X164809650Y-86452458D01*
X164809650Y-86452458D02*
X164758415Y-86478076D01*
X164758415Y-86478076D02*
X164732797Y-86503694D01*
X164732797Y-86503694D02*
X164707179Y-86554929D01*
X164707179Y-87067283D02*
X164707179Y-87118518D01*
X164707179Y-87118518D02*
X164732797Y-87169754D01*
X164732797Y-87169754D02*
X164758415Y-87195372D01*
X164758415Y-87195372D02*
X164809650Y-87220989D01*
X164809650Y-87220989D02*
X164912121Y-87246607D01*
X164912121Y-87246607D02*
X165040210Y-87246607D01*
X165040210Y-87246607D02*
X165142680Y-87220989D01*
X165142680Y-87220989D02*
X165193916Y-87195372D01*
X165193916Y-87195372D02*
X165219534Y-87169754D01*
X165219534Y-87169754D02*
X165245151Y-87118518D01*
X165245151Y-87118518D02*
X165245151Y-87067283D01*
X165245151Y-87067283D02*
X165219534Y-87016048D01*
X165219534Y-87016048D02*
X165193916Y-86990430D01*
X165193916Y-86990430D02*
X165142680Y-86964812D01*
X165142680Y-86964812D02*
X165040210Y-86939194D01*
X165040210Y-86939194D02*
X164912121Y-86939194D01*
X164912121Y-86939194D02*
X164809650Y-86964812D01*
X164809650Y-86964812D02*
X164758415Y-86990430D01*
X164758415Y-86990430D02*
X164732797Y-87016048D01*
X164732797Y-87016048D02*
X164707179Y-87067283D01*
X165091445Y-87451548D02*
X165091445Y-87707726D01*
X165245151Y-87400313D02*
X164707179Y-87579637D01*
X164707179Y-87579637D02*
X165245151Y-87758961D01*
X165245151Y-88194462D02*
X165245151Y-87938285D01*
X165245151Y-87938285D02*
X164707179Y-87938285D01*
X164963356Y-88553110D02*
X164963356Y-88373786D01*
X165245151Y-88373786D02*
X164707179Y-88373786D01*
X164707179Y-88373786D02*
X164707179Y-88629963D01*
D11*
X153842857Y-89034819D02*
X154176190Y-88558628D01*
X154414285Y-89034819D02*
X154414285Y-88034819D01*
X154414285Y-88034819D02*
X154033333Y-88034819D01*
X154033333Y-88034819D02*
X153938095Y-88082438D01*
X153938095Y-88082438D02*
X153890476Y-88130057D01*
X153890476Y-88130057D02*
X153842857Y-88225295D01*
X153842857Y-88225295D02*
X153842857Y-88368152D01*
X153842857Y-88368152D02*
X153890476Y-88463390D01*
X153890476Y-88463390D02*
X153938095Y-88511009D01*
X153938095Y-88511009D02*
X154033333Y-88558628D01*
X154033333Y-88558628D02*
X154414285Y-88558628D01*
X153509523Y-88034819D02*
X152890476Y-88034819D01*
X152890476Y-88034819D02*
X153223809Y-88415771D01*
X153223809Y-88415771D02*
X153080952Y-88415771D01*
X153080952Y-88415771D02*
X152985714Y-88463390D01*
X152985714Y-88463390D02*
X152938095Y-88511009D01*
X152938095Y-88511009D02*
X152890476Y-88606247D01*
X152890476Y-88606247D02*
X152890476Y-88844342D01*
X152890476Y-88844342D02*
X152938095Y-88939580D01*
X152938095Y-88939580D02*
X152985714Y-88987200D01*
X152985714Y-88987200D02*
X153080952Y-89034819D01*
X153080952Y-89034819D02*
X153366666Y-89034819D01*
X153366666Y-89034819D02*
X153461904Y-88987200D01*
X153461904Y-88987200D02*
X153509523Y-88939580D01*
X152319047Y-88463390D02*
X152414285Y-88415771D01*
X152414285Y-88415771D02*
X152461904Y-88368152D01*
X152461904Y-88368152D02*
X152509523Y-88272914D01*
X152509523Y-88272914D02*
X152509523Y-88225295D01*
X152509523Y-88225295D02*
X152461904Y-88130057D01*
X152461904Y-88130057D02*
X152414285Y-88082438D01*
X152414285Y-88082438D02*
X152319047Y-88034819D01*
X152319047Y-88034819D02*
X152128571Y-88034819D01*
X152128571Y-88034819D02*
X152033333Y-88082438D01*
X152033333Y-88082438D02*
X151985714Y-88130057D01*
X151985714Y-88130057D02*
X151938095Y-88225295D01*
X151938095Y-88225295D02*
X151938095Y-88272914D01*
X151938095Y-88272914D02*
X151985714Y-88368152D01*
X151985714Y-88368152D02*
X152033333Y-88415771D01*
X152033333Y-88415771D02*
X152128571Y-88463390D01*
X152128571Y-88463390D02*
X152319047Y-88463390D01*
X152319047Y-88463390D02*
X152414285Y-88511009D01*
X152414285Y-88511009D02*
X152461904Y-88558628D01*
X152461904Y-88558628D02*
X152509523Y-88653866D01*
X152509523Y-88653866D02*
X152509523Y-88844342D01*
X152509523Y-88844342D02*
X152461904Y-88939580D01*
X152461904Y-88939580D02*
X152414285Y-88987200D01*
X152414285Y-88987200D02*
X152319047Y-89034819D01*
X152319047Y-89034819D02*
X152128571Y-89034819D01*
X152128571Y-89034819D02*
X152033333Y-88987200D01*
X152033333Y-88987200D02*
X151985714Y-88939580D01*
X151985714Y-88939580D02*
X151938095Y-88844342D01*
X151938095Y-88844342D02*
X151938095Y-88653866D01*
X151938095Y-88653866D02*
X151985714Y-88558628D01*
X151985714Y-88558628D02*
X152033333Y-88511009D01*
X152033333Y-88511009D02*
X152128571Y-88463390D01*
X154138094Y-84054819D02*
X154138094Y-83054819D01*
X154138094Y-83054819D02*
X153899999Y-83054819D01*
X153899999Y-83054819D02*
X153757142Y-83102438D01*
X153757142Y-83102438D02*
X153661904Y-83197676D01*
X153661904Y-83197676D02*
X153614285Y-83292914D01*
X153614285Y-83292914D02*
X153566666Y-83483390D01*
X153566666Y-83483390D02*
X153566666Y-83626247D01*
X153566666Y-83626247D02*
X153614285Y-83816723D01*
X153614285Y-83816723D02*
X153661904Y-83911961D01*
X153661904Y-83911961D02*
X153757142Y-84007200D01*
X153757142Y-84007200D02*
X153899999Y-84054819D01*
X153899999Y-84054819D02*
X154138094Y-84054819D01*
X152614285Y-84054819D02*
X153185713Y-84054819D01*
X152899999Y-84054819D02*
X152899999Y-83054819D01*
X152899999Y-83054819D02*
X152995237Y-83197676D01*
X152995237Y-83197676D02*
X153090475Y-83292914D01*
X153090475Y-83292914D02*
X153185713Y-83340533D01*
X157559580Y-91107142D02*
X157607200Y-91059523D01*
X157607200Y-91059523D02*
X157654819Y-90916666D01*
X157654819Y-90916666D02*
X157654819Y-90821428D01*
X157654819Y-90821428D02*
X157607200Y-90678571D01*
X157607200Y-90678571D02*
X157511961Y-90583333D01*
X157511961Y-90583333D02*
X157416723Y-90535714D01*
X157416723Y-90535714D02*
X157226247Y-90488095D01*
X157226247Y-90488095D02*
X157083390Y-90488095D01*
X157083390Y-90488095D02*
X156892914Y-90535714D01*
X156892914Y-90535714D02*
X156797676Y-90583333D01*
X156797676Y-90583333D02*
X156702438Y-90678571D01*
X156702438Y-90678571D02*
X156654819Y-90821428D01*
X156654819Y-90821428D02*
X156654819Y-90916666D01*
X156654819Y-90916666D02*
X156702438Y-91059523D01*
X156702438Y-91059523D02*
X156750057Y-91107142D01*
X156654819Y-91440476D02*
X156654819Y-92059523D01*
X156654819Y-92059523D02*
X157035771Y-91726190D01*
X157035771Y-91726190D02*
X157035771Y-91869047D01*
X157035771Y-91869047D02*
X157083390Y-91964285D01*
X157083390Y-91964285D02*
X157131009Y-92011904D01*
X157131009Y-92011904D02*
X157226247Y-92059523D01*
X157226247Y-92059523D02*
X157464342Y-92059523D01*
X157464342Y-92059523D02*
X157559580Y-92011904D01*
X157559580Y-92011904D02*
X157607200Y-91964285D01*
X157607200Y-91964285D02*
X157654819Y-91869047D01*
X157654819Y-91869047D02*
X157654819Y-91583333D01*
X157654819Y-91583333D02*
X157607200Y-91488095D01*
X157607200Y-91488095D02*
X157559580Y-91440476D01*
X156750057Y-92440476D02*
X156702438Y-92488095D01*
X156702438Y-92488095D02*
X156654819Y-92583333D01*
X156654819Y-92583333D02*
X156654819Y-92821428D01*
X156654819Y-92821428D02*
X156702438Y-92916666D01*
X156702438Y-92916666D02*
X156750057Y-92964285D01*
X156750057Y-92964285D02*
X156845295Y-93011904D01*
X156845295Y-93011904D02*
X156940533Y-93011904D01*
X156940533Y-93011904D02*
X157083390Y-92964285D01*
X157083390Y-92964285D02*
X157654819Y-92392857D01*
X157654819Y-92392857D02*
X157654819Y-93011904D01*
X156561904Y-72454819D02*
X156561904Y-73264342D01*
X156561904Y-73264342D02*
X156514285Y-73359580D01*
X156514285Y-73359580D02*
X156466666Y-73407200D01*
X156466666Y-73407200D02*
X156371428Y-73454819D01*
X156371428Y-73454819D02*
X156180952Y-73454819D01*
X156180952Y-73454819D02*
X156085714Y-73407200D01*
X156085714Y-73407200D02*
X156038095Y-73359580D01*
X156038095Y-73359580D02*
X155990476Y-73264342D01*
X155990476Y-73264342D02*
X155990476Y-72454819D01*
X155085714Y-72454819D02*
X155276190Y-72454819D01*
X155276190Y-72454819D02*
X155371428Y-72502438D01*
X155371428Y-72502438D02*
X155419047Y-72550057D01*
X155419047Y-72550057D02*
X155514285Y-72692914D01*
X155514285Y-72692914D02*
X155561904Y-72883390D01*
X155561904Y-72883390D02*
X155561904Y-73264342D01*
X155561904Y-73264342D02*
X155514285Y-73359580D01*
X155514285Y-73359580D02*
X155466666Y-73407200D01*
X155466666Y-73407200D02*
X155371428Y-73454819D01*
X155371428Y-73454819D02*
X155180952Y-73454819D01*
X155180952Y-73454819D02*
X155085714Y-73407200D01*
X155085714Y-73407200D02*
X155038095Y-73359580D01*
X155038095Y-73359580D02*
X154990476Y-73264342D01*
X154990476Y-73264342D02*
X154990476Y-73026247D01*
X154990476Y-73026247D02*
X155038095Y-72931009D01*
X155038095Y-72931009D02*
X155085714Y-72883390D01*
X155085714Y-72883390D02*
X155180952Y-72835771D01*
X155180952Y-72835771D02*
X155371428Y-72835771D01*
X155371428Y-72835771D02*
X155466666Y-72883390D01*
X155466666Y-72883390D02*
X155514285Y-72931009D01*
X155514285Y-72931009D02*
X155561904Y-73026247D01*
X155454819Y-88507142D02*
X154978628Y-88173809D01*
X155454819Y-87935714D02*
X154454819Y-87935714D01*
X154454819Y-87935714D02*
X154454819Y-88316666D01*
X154454819Y-88316666D02*
X154502438Y-88411904D01*
X154502438Y-88411904D02*
X154550057Y-88459523D01*
X154550057Y-88459523D02*
X154645295Y-88507142D01*
X154645295Y-88507142D02*
X154788152Y-88507142D01*
X154788152Y-88507142D02*
X154883390Y-88459523D01*
X154883390Y-88459523D02*
X154931009Y-88411904D01*
X154931009Y-88411904D02*
X154978628Y-88316666D01*
X154978628Y-88316666D02*
X154978628Y-87935714D01*
X154454819Y-88840476D02*
X154454819Y-89459523D01*
X154454819Y-89459523D02*
X154835771Y-89126190D01*
X154835771Y-89126190D02*
X154835771Y-89269047D01*
X154835771Y-89269047D02*
X154883390Y-89364285D01*
X154883390Y-89364285D02*
X154931009Y-89411904D01*
X154931009Y-89411904D02*
X155026247Y-89459523D01*
X155026247Y-89459523D02*
X155264342Y-89459523D01*
X155264342Y-89459523D02*
X155359580Y-89411904D01*
X155359580Y-89411904D02*
X155407200Y-89364285D01*
X155407200Y-89364285D02*
X155454819Y-89269047D01*
X155454819Y-89269047D02*
X155454819Y-88983333D01*
X155454819Y-88983333D02*
X155407200Y-88888095D01*
X155407200Y-88888095D02*
X155359580Y-88840476D01*
X155454819Y-89935714D02*
X155454819Y-90126190D01*
X155454819Y-90126190D02*
X155407200Y-90221428D01*
X155407200Y-90221428D02*
X155359580Y-90269047D01*
X155359580Y-90269047D02*
X155216723Y-90364285D01*
X155216723Y-90364285D02*
X155026247Y-90411904D01*
X155026247Y-90411904D02*
X154645295Y-90411904D01*
X154645295Y-90411904D02*
X154550057Y-90364285D01*
X154550057Y-90364285D02*
X154502438Y-90316666D01*
X154502438Y-90316666D02*
X154454819Y-90221428D01*
X154454819Y-90221428D02*
X154454819Y-90030952D01*
X154454819Y-90030952D02*
X154502438Y-89935714D01*
X154502438Y-89935714D02*
X154550057Y-89888095D01*
X154550057Y-89888095D02*
X154645295Y-89840476D01*
X154645295Y-89840476D02*
X154883390Y-89840476D01*
X154883390Y-89840476D02*
X154978628Y-89888095D01*
X154978628Y-89888095D02*
X155026247Y-89935714D01*
X155026247Y-89935714D02*
X155073866Y-90030952D01*
X155073866Y-90030952D02*
X155073866Y-90221428D01*
X155073866Y-90221428D02*
X155026247Y-90316666D01*
X155026247Y-90316666D02*
X154978628Y-90364285D01*
X154978628Y-90364285D02*
X154883390Y-90411904D01*
X156359580Y-91107142D02*
X156407200Y-91059523D01*
X156407200Y-91059523D02*
X156454819Y-90916666D01*
X156454819Y-90916666D02*
X156454819Y-90821428D01*
X156454819Y-90821428D02*
X156407200Y-90678571D01*
X156407200Y-90678571D02*
X156311961Y-90583333D01*
X156311961Y-90583333D02*
X156216723Y-90535714D01*
X156216723Y-90535714D02*
X156026247Y-90488095D01*
X156026247Y-90488095D02*
X155883390Y-90488095D01*
X155883390Y-90488095D02*
X155692914Y-90535714D01*
X155692914Y-90535714D02*
X155597676Y-90583333D01*
X155597676Y-90583333D02*
X155502438Y-90678571D01*
X155502438Y-90678571D02*
X155454819Y-90821428D01*
X155454819Y-90821428D02*
X155454819Y-90916666D01*
X155454819Y-90916666D02*
X155502438Y-91059523D01*
X155502438Y-91059523D02*
X155550057Y-91107142D01*
X155454819Y-91440476D02*
X155454819Y-92059523D01*
X155454819Y-92059523D02*
X155835771Y-91726190D01*
X155835771Y-91726190D02*
X155835771Y-91869047D01*
X155835771Y-91869047D02*
X155883390Y-91964285D01*
X155883390Y-91964285D02*
X155931009Y-92011904D01*
X155931009Y-92011904D02*
X156026247Y-92059523D01*
X156026247Y-92059523D02*
X156264342Y-92059523D01*
X156264342Y-92059523D02*
X156359580Y-92011904D01*
X156359580Y-92011904D02*
X156407200Y-91964285D01*
X156407200Y-91964285D02*
X156454819Y-91869047D01*
X156454819Y-91869047D02*
X156454819Y-91583333D01*
X156454819Y-91583333D02*
X156407200Y-91488095D01*
X156407200Y-91488095D02*
X156359580Y-91440476D01*
X156454819Y-93011904D02*
X156454819Y-92440476D01*
X156454819Y-92726190D02*
X155454819Y-92726190D01*
X155454819Y-92726190D02*
X155597676Y-92630952D01*
X155597676Y-92630952D02*
X155692914Y-92535714D01*
X155692914Y-92535714D02*
X155740533Y-92440476D01*
X154538094Y-71054819D02*
X154538094Y-70054819D01*
X154538094Y-70054819D02*
X154299999Y-70054819D01*
X154299999Y-70054819D02*
X154157142Y-70102438D01*
X154157142Y-70102438D02*
X154061904Y-70197676D01*
X154061904Y-70197676D02*
X154014285Y-70292914D01*
X154014285Y-70292914D02*
X153966666Y-70483390D01*
X153966666Y-70483390D02*
X153966666Y-70626247D01*
X153966666Y-70626247D02*
X154014285Y-70816723D01*
X154014285Y-70816723D02*
X154061904Y-70911961D01*
X154061904Y-70911961D02*
X154157142Y-71007200D01*
X154157142Y-71007200D02*
X154299999Y-71054819D01*
X154299999Y-71054819D02*
X154538094Y-71054819D01*
X153585713Y-70150057D02*
X153538094Y-70102438D01*
X153538094Y-70102438D02*
X153442856Y-70054819D01*
X153442856Y-70054819D02*
X153204761Y-70054819D01*
X153204761Y-70054819D02*
X153109523Y-70102438D01*
X153109523Y-70102438D02*
X153061904Y-70150057D01*
X153061904Y-70150057D02*
X153014285Y-70245295D01*
X153014285Y-70245295D02*
X153014285Y-70340533D01*
X153014285Y-70340533D02*
X153061904Y-70483390D01*
X153061904Y-70483390D02*
X153633332Y-71054819D01*
X153633332Y-71054819D02*
X153014285Y-71054819D01*
X152054819Y-90907142D02*
X151578628Y-90573809D01*
X152054819Y-90335714D02*
X151054819Y-90335714D01*
X151054819Y-90335714D02*
X151054819Y-90716666D01*
X151054819Y-90716666D02*
X151102438Y-90811904D01*
X151102438Y-90811904D02*
X151150057Y-90859523D01*
X151150057Y-90859523D02*
X151245295Y-90907142D01*
X151245295Y-90907142D02*
X151388152Y-90907142D01*
X151388152Y-90907142D02*
X151483390Y-90859523D01*
X151483390Y-90859523D02*
X151531009Y-90811904D01*
X151531009Y-90811904D02*
X151578628Y-90716666D01*
X151578628Y-90716666D02*
X151578628Y-90335714D01*
X151054819Y-91240476D02*
X151054819Y-91859523D01*
X151054819Y-91859523D02*
X151435771Y-91526190D01*
X151435771Y-91526190D02*
X151435771Y-91669047D01*
X151435771Y-91669047D02*
X151483390Y-91764285D01*
X151483390Y-91764285D02*
X151531009Y-91811904D01*
X151531009Y-91811904D02*
X151626247Y-91859523D01*
X151626247Y-91859523D02*
X151864342Y-91859523D01*
X151864342Y-91859523D02*
X151959580Y-91811904D01*
X151959580Y-91811904D02*
X152007200Y-91764285D01*
X152007200Y-91764285D02*
X152054819Y-91669047D01*
X152054819Y-91669047D02*
X152054819Y-91383333D01*
X152054819Y-91383333D02*
X152007200Y-91288095D01*
X152007200Y-91288095D02*
X151959580Y-91240476D01*
X151054819Y-92192857D02*
X151054819Y-92859523D01*
X151054819Y-92859523D02*
X152054819Y-92430952D01*
D13*
X154425000Y-77400000D02*
X147525000Y-77400000D01*
X147525000Y-77400000D02*
X147525000Y-81800000D01*
X147525000Y-81800000D02*
X154425000Y-81800000D01*
X154425000Y-81800000D02*
X154425000Y-77400000D01*
D14*
X155225000Y-79600000D02*
G75*
G03*
X154825000Y-79600000I-200000J0D01*
G01*
X154825000Y-79600000D02*
G75*
G03*
X155225000Y-79600000I200000J0D01*
G01*
D13*
X153820000Y-101793641D02*
X153820000Y-101486359D01*
X154580000Y-101793641D02*
X154580000Y-101486359D01*
X143100000Y-83700000D02*
X140250000Y-83700000D01*
X133040000Y-83460000D02*
X133040000Y-78260000D01*
X142860000Y-83460000D02*
X133040000Y-83460000D01*
X143100000Y-80850000D02*
X143100000Y-83700000D01*
X131640000Y-78260000D02*
X131640000Y-76450000D01*
X133040000Y-78260000D02*
X131640000Y-78260000D01*
X142860000Y-76450000D02*
X142860000Y-83460000D01*
X142860000Y-76450000D02*
X142860000Y-69440000D01*
X131640000Y-74640000D02*
X131640000Y-76450000D01*
X133040000Y-74640000D02*
X131640000Y-74640000D01*
X133040000Y-69440000D02*
X133040000Y-74640000D01*
X142860000Y-69440000D02*
X133040000Y-69440000D01*
X154760000Y-87000000D02*
X154760000Y-86350000D01*
X154760000Y-87000000D02*
X154760000Y-87650000D01*
X151640000Y-87000000D02*
X151640000Y-85325000D01*
X151640000Y-87000000D02*
X151640000Y-87650000D01*
X156360000Y-96162164D02*
X156360000Y-96377836D01*
X155640000Y-96162164D02*
X155640000Y-96377836D01*
X151990000Y-96800000D02*
X151990000Y-98300000D01*
X151990000Y-96800000D02*
X151990000Y-95300000D01*
X155210000Y-96800000D02*
X155210000Y-99725000D01*
X155210000Y-96800000D02*
X155210000Y-95300000D01*
X153380000Y-101486359D02*
X153380000Y-101793641D01*
X152620000Y-101486359D02*
X152620000Y-101793641D01*
D15*
X169285000Y-68775796D02*
X169285000Y-99535196D01*
X166516400Y-68775796D02*
X169285000Y-68775796D01*
X162477800Y-68775796D02*
X163468400Y-68775796D01*
X162477800Y-71417396D02*
X162477800Y-68775796D01*
X169285000Y-99535196D02*
X166516400Y-99535196D01*
X163468400Y-99535196D02*
X162477800Y-99535196D01*
X162477800Y-99535196D02*
X162477800Y-96893596D01*
D16*
X162300000Y-67378796D02*
G75*
G03*
X162300000Y-66616796I0J381000D01*
G01*
X162300000Y-66616796D02*
G75*
G03*
X162300000Y-67378796I0J-381000D01*
G01*
D13*
X153353641Y-90130000D02*
X153046359Y-90130000D01*
X153353641Y-89370000D02*
X153046359Y-89370000D01*
X152360000Y-84600000D02*
X148350000Y-84600000D01*
X152360000Y-82600000D02*
X152360000Y-84600000D01*
X152360000Y-82600000D02*
X148350000Y-82600000D01*
X156840000Y-94057836D02*
X156840000Y-93842164D01*
X157560000Y-94057836D02*
X157560000Y-93842164D01*
X154425000Y-72400000D02*
X147525000Y-72400000D01*
X147525000Y-72400000D02*
X147525000Y-76800000D01*
X147525000Y-76800000D02*
X154425000Y-76800000D01*
X154425000Y-76800000D02*
X154425000Y-72400000D01*
D14*
X155225000Y-74600000D02*
G75*
G03*
X154825000Y-74600000I-200000J0D01*
G01*
X154825000Y-74600000D02*
G75*
G03*
X155225000Y-74600000I200000J0D01*
G01*
D13*
X154220000Y-91703641D02*
X154220000Y-91396359D01*
X154980000Y-91703641D02*
X154980000Y-91396359D01*
X155640000Y-94137836D02*
X155640000Y-93922164D01*
X156360000Y-94137836D02*
X156360000Y-93922164D01*
X152560000Y-71800000D02*
X148550000Y-71800000D01*
X152560000Y-69800000D02*
X152560000Y-71800000D01*
X152560000Y-69800000D02*
X148550000Y-69800000D01*
X152420000Y-91703641D02*
X152420000Y-91396359D01*
X153180000Y-91703641D02*
X153180000Y-91396359D01*
M02*
