G04 #@! TF.GenerationSoftware,KiCad,Pcbnew,7.0.10*
G04 #@! TF.CreationDate,2024-01-16T22:15:52+03:00*
G04 #@! TF.ProjectId,Eco_display,45636f5f-6469-4737-906c-61792e6b6963,rev?*
G04 #@! TF.SameCoordinates,Original*
G04 #@! TF.FileFunction,Copper,L2,Bot*
G04 #@! TF.FilePolarity,Positive*
%FSLAX46Y46*%
G04 Gerber Fmt 4.6, Leading zero omitted, Abs format (unit mm)*
G04 Created by KiCad (PCBNEW 7.0.10) date 2024-01-16 22:15:52*
%MOMM*%
%LPD*%
G01*
G04 APERTURE LIST*
G04 Aperture macros list*
%AMRoundRect*
0 Rectangle with rounded corners*
0 $1 Rounding radius*
0 $2 $3 $4 $5 $6 $7 $8 $9 X,Y pos of 4 corners*
0 Add a 4 corners polygon primitive as box body*
4,1,4,$2,$3,$4,$5,$6,$7,$8,$9,$2,$3,0*
0 Add four circle primitives for the rounded corners*
1,1,$1+$1,$2,$3*
1,1,$1+$1,$4,$5*
1,1,$1+$1,$6,$7*
1,1,$1+$1,$8,$9*
0 Add four rect primitives between the rounded corners*
20,1,$1+$1,$2,$3,$4,$5,0*
20,1,$1+$1,$4,$5,$6,$7,0*
20,1,$1+$1,$6,$7,$8,$9,0*
20,1,$1+$1,$8,$9,$2,$3,0*%
G04 Aperture macros list end*
G04 #@! TA.AperFunction,SMDPad,CuDef*
%ADD10R,1.950000X3.500000*%
G04 #@! TD*
G04 #@! TA.AperFunction,SMDPad,CuDef*
%ADD11R,0.800000X3.400000*%
G04 #@! TD*
G04 #@! TA.AperFunction,SMDPad,CuDef*
%ADD12RoundRect,0.135000X0.185000X-0.135000X0.185000X0.135000X-0.185000X0.135000X-0.185000X-0.135000X0*%
G04 #@! TD*
G04 #@! TA.AperFunction,ComponentPad*
%ADD13RoundRect,0.250001X1.399999X-1.099999X1.399999X1.099999X-1.399999X1.099999X-1.399999X-1.099999X0*%
G04 #@! TD*
G04 #@! TA.AperFunction,ComponentPad*
%ADD14O,3.300000X2.700000*%
G04 #@! TD*
G04 #@! TA.AperFunction,SMDPad,CuDef*
%ADD15RoundRect,0.150000X-0.150000X0.587500X-0.150000X-0.587500X0.150000X-0.587500X0.150000X0.587500X0*%
G04 #@! TD*
G04 #@! TA.AperFunction,SMDPad,CuDef*
%ADD16RoundRect,0.140000X-0.170000X0.140000X-0.170000X-0.140000X0.170000X-0.140000X0.170000X0.140000X0*%
G04 #@! TD*
G04 #@! TA.AperFunction,SMDPad,CuDef*
%ADD17RoundRect,0.100000X0.100000X-0.712500X0.100000X0.712500X-0.100000X0.712500X-0.100000X-0.712500X0*%
G04 #@! TD*
G04 #@! TA.AperFunction,SMDPad,CuDef*
%ADD18RoundRect,0.135000X-0.185000X0.135000X-0.185000X-0.135000X0.185000X-0.135000X0.185000X0.135000X0*%
G04 #@! TD*
G04 #@! TA.AperFunction,SMDPad,CuDef*
%ADD19R,1.200000X0.300000*%
G04 #@! TD*
G04 #@! TA.AperFunction,SMDPad,CuDef*
%ADD20R,2.387600X2.387600*%
G04 #@! TD*
G04 #@! TA.AperFunction,SMDPad,CuDef*
%ADD21RoundRect,0.135000X0.135000X0.185000X-0.135000X0.185000X-0.135000X-0.185000X0.135000X-0.185000X0*%
G04 #@! TD*
G04 #@! TA.AperFunction,SMDPad,CuDef*
%ADD22RoundRect,0.225000X0.225000X0.375000X-0.225000X0.375000X-0.225000X-0.375000X0.225000X-0.375000X0*%
G04 #@! TD*
G04 #@! TA.AperFunction,SMDPad,CuDef*
%ADD23RoundRect,0.140000X0.170000X-0.140000X0.170000X0.140000X-0.170000X0.140000X-0.170000X-0.140000X0*%
G04 #@! TD*
G04 #@! TA.AperFunction,ViaPad*
%ADD24C,0.800000*%
G04 #@! TD*
G04 #@! TA.AperFunction,Conductor*
%ADD25C,0.350000*%
G04 #@! TD*
G04 #@! TA.AperFunction,Conductor*
%ADD26C,0.254000*%
G04 #@! TD*
G04 #@! TA.AperFunction,Conductor*
%ADD27C,0.250000*%
G04 #@! TD*
G04 #@! TA.AperFunction,Conductor*
%ADD28C,1.000000*%
G04 #@! TD*
G04 APERTURE END LIST*
D10*
X153025000Y-79600000D03*
X148975000Y-79600000D03*
D11*
X151000000Y-79600000D03*
D12*
X154200000Y-102150000D03*
X154200000Y-101130000D03*
D13*
X140500000Y-80650000D03*
D14*
X140500000Y-76450000D03*
X140500000Y-72250000D03*
X135000000Y-80650000D03*
X135000000Y-76450000D03*
X135000000Y-72250000D03*
D15*
X152250000Y-86062500D03*
X154150000Y-86062500D03*
X153200000Y-87937500D03*
D16*
X156000000Y-95790000D03*
X156000000Y-96750000D03*
D17*
X154575000Y-98912500D03*
X153925000Y-98912500D03*
X153275000Y-98912500D03*
X152625000Y-98912500D03*
X152625000Y-94687500D03*
X153275000Y-94687500D03*
X153925000Y-94687500D03*
X154575000Y-94687500D03*
D18*
X153000000Y-101130000D03*
X153000000Y-102150000D03*
D19*
X162300000Y-71899996D03*
X162300000Y-72399996D03*
X162300000Y-72899996D03*
X162300000Y-73399996D03*
X162300000Y-73899996D03*
X162300000Y-74399996D03*
X162300000Y-74899999D03*
X162300000Y-75399996D03*
X162300000Y-75899996D03*
X162300000Y-76399996D03*
X162300000Y-76899996D03*
X162300000Y-77399999D03*
X162300000Y-77899996D03*
X162300000Y-78399996D03*
X162300000Y-78899996D03*
X162300000Y-79399996D03*
X162300000Y-79899999D03*
X162300000Y-80399996D03*
X162300000Y-80899996D03*
X162300000Y-81399996D03*
X162300000Y-81899996D03*
X162300000Y-82399999D03*
X162300000Y-82899996D03*
X162300000Y-83399996D03*
X162300000Y-83899996D03*
X162300000Y-84399996D03*
X162300000Y-84899996D03*
X162300000Y-85399996D03*
X162300000Y-85899996D03*
X162300000Y-86399996D03*
X162300000Y-86899996D03*
X162300000Y-87399996D03*
X162300000Y-87899996D03*
X162300000Y-88399996D03*
X162300000Y-88899996D03*
X162300000Y-89399996D03*
X162300000Y-89899996D03*
X162300000Y-90399996D03*
X162300000Y-90899996D03*
X162300000Y-91399999D03*
X162300000Y-91899996D03*
X162300000Y-92399996D03*
X162300000Y-92899996D03*
X162300000Y-93399996D03*
X162300000Y-93899999D03*
X162300000Y-94399996D03*
X162300000Y-94899996D03*
X162300000Y-95399996D03*
X162300000Y-95899996D03*
X162300000Y-96399999D03*
D20*
X165000000Y-69800000D03*
X165000000Y-98499992D03*
D21*
X153710000Y-89750000D03*
X152690000Y-89750000D03*
D22*
X151650000Y-83600000D03*
X148350000Y-83600000D03*
D23*
X157200000Y-94430000D03*
X157200000Y-93470000D03*
D10*
X153025000Y-74600000D03*
X148975000Y-74600000D03*
D11*
X151000000Y-74600000D03*
D12*
X154600000Y-92060000D03*
X154600000Y-91040000D03*
D23*
X156000000Y-94510000D03*
X156000000Y-93550000D03*
D22*
X151850000Y-70800000D03*
X148550000Y-70800000D03*
D12*
X152800000Y-92060000D03*
X152800000Y-91040000D03*
D24*
X184000000Y-65000000D03*
X184000000Y-93500000D03*
X184000000Y-77500000D03*
X159750000Y-76000000D03*
X173750000Y-93500000D03*
X178250000Y-106750000D03*
X161000000Y-73400000D03*
X139250000Y-65000000D03*
X167750000Y-106750000D03*
X150000000Y-87000000D03*
X178250000Y-57500000D03*
X187750000Y-57500000D03*
X184000000Y-96750000D03*
X166000000Y-89500000D03*
X184000000Y-61750000D03*
X157500000Y-106750000D03*
X192250000Y-93500000D03*
X138000000Y-74000000D03*
X173750000Y-106750000D03*
X187750000Y-106750000D03*
X146200000Y-67000000D03*
X187750000Y-65000000D03*
X184000000Y-73250000D03*
X192250000Y-77500000D03*
X167750000Y-102500000D03*
X192250000Y-73250000D03*
X139250000Y-61750000D03*
X159750000Y-92000000D03*
X192250000Y-96750000D03*
X148750000Y-89750000D03*
X173750000Y-110000000D03*
X173750000Y-84500000D03*
X198000000Y-84250000D03*
X178250000Y-89250000D03*
X161500000Y-65000000D03*
X187750000Y-77500000D03*
X147000000Y-93000000D03*
X150750000Y-65000000D03*
X168500000Y-61750000D03*
X187750000Y-80750000D03*
X157500000Y-102500000D03*
X198000000Y-106750000D03*
X168500000Y-65000000D03*
X166750000Y-94500000D03*
X144500000Y-110000000D03*
X138750000Y-102250000D03*
X184000000Y-84500000D03*
X173750000Y-89250000D03*
X187750000Y-84500000D03*
X187750000Y-96750000D03*
X162000000Y-106750000D03*
X150250000Y-102500000D03*
X166500000Y-84000000D03*
X178250000Y-80750000D03*
X134000000Y-91250000D03*
X187750000Y-89250000D03*
X157500000Y-110000000D03*
X147000000Y-97000000D03*
X159750000Y-90000000D03*
X137750000Y-87000000D03*
X178250000Y-93500000D03*
X144600000Y-85400000D03*
X137750000Y-91250000D03*
X138500000Y-97500000D03*
X143000000Y-75000000D03*
X161500000Y-61750000D03*
X192250000Y-106750000D03*
X150750000Y-61750000D03*
X187750000Y-110000000D03*
X173750000Y-80750000D03*
X198000000Y-65000000D03*
X187750000Y-93500000D03*
X184000000Y-80750000D03*
X159750000Y-80000000D03*
X192250000Y-61750000D03*
X173750000Y-57500000D03*
X184000000Y-110000000D03*
X157500000Y-99500000D03*
X198000000Y-73250000D03*
X198000000Y-89250000D03*
X134000000Y-87000000D03*
X184000000Y-106750000D03*
X154000000Y-83000000D03*
X143750000Y-89500000D03*
X184000000Y-89250000D03*
X167750000Y-110000000D03*
X198000000Y-102500000D03*
X159750000Y-87500000D03*
X159750000Y-78250000D03*
X178250000Y-84500000D03*
X198000000Y-77500000D03*
X152000000Y-110000000D03*
X168500000Y-57500000D03*
X173750000Y-96750000D03*
X192250000Y-65000000D03*
X173750000Y-102500000D03*
X192250000Y-89250000D03*
X173750000Y-73250000D03*
X178250000Y-110000000D03*
X156600000Y-92800000D03*
X178250000Y-73250000D03*
X184000000Y-102500000D03*
X173750000Y-65000000D03*
X150000000Y-93000000D03*
X173750000Y-61750000D03*
X162000000Y-102500000D03*
X144500000Y-106250000D03*
X187750000Y-73250000D03*
X138750000Y-106500000D03*
X148750000Y-110000000D03*
X160000000Y-85000000D03*
X192250000Y-102500000D03*
X139250000Y-57500000D03*
X192000000Y-84500000D03*
X146400000Y-101800000D03*
X152000000Y-106250000D03*
X178250000Y-77500000D03*
X173750000Y-77500000D03*
X178250000Y-61750000D03*
X178250000Y-65000000D03*
X198000000Y-61750000D03*
X187750000Y-61750000D03*
X152386286Y-93413714D03*
X197750000Y-80750000D03*
X192250000Y-57500000D03*
X162000000Y-110000000D03*
X198000000Y-93500000D03*
X192250000Y-80750000D03*
X187750000Y-102500000D03*
X157500000Y-96000000D03*
X178250000Y-102500000D03*
X178250000Y-96750000D03*
X161500000Y-57500000D03*
X198000000Y-96750000D03*
X148750000Y-106250000D03*
X166500000Y-77750000D03*
X192250000Y-110000000D03*
X150750000Y-57500000D03*
X184000000Y-57500000D03*
X138750000Y-109750000D03*
X140500000Y-96500000D03*
X160000000Y-72200000D03*
X151750000Y-102000000D03*
X149500000Y-95000000D03*
X158250000Y-94750000D03*
X156000000Y-85600000D03*
D25*
X152625000Y-94687500D02*
X152625000Y-93652428D01*
D26*
X156750000Y-96750000D02*
X157500000Y-96000000D01*
X162300000Y-73899996D02*
X161499996Y-73899996D01*
X161499996Y-73899996D02*
X161000000Y-73400000D01*
D25*
X156600000Y-93550000D02*
X157120000Y-93550000D01*
D26*
X162300000Y-73399996D02*
X161000004Y-73399996D01*
X162300000Y-72899996D02*
X162300000Y-73899996D01*
X150400000Y-83600000D02*
X151650000Y-83600000D01*
X144600000Y-85400000D02*
X149800000Y-85400000D01*
X162300000Y-72899996D02*
X161500004Y-72899996D01*
X149800000Y-85400000D02*
X150200000Y-85000000D01*
X161000004Y-73399996D02*
X161000000Y-73400000D01*
D25*
X152625000Y-93652428D02*
X152386286Y-93413714D01*
X156000000Y-93550000D02*
X156600000Y-93550000D01*
D27*
X154000000Y-83960776D02*
X154000000Y-83000000D01*
X153200000Y-87937500D02*
X153200000Y-86277000D01*
X153477000Y-86000000D02*
X153477000Y-84483776D01*
D25*
X156600000Y-93550000D02*
X156600000Y-92800000D01*
D27*
X153477000Y-84483776D02*
X154000000Y-83960776D01*
X153200000Y-86277000D02*
X153477000Y-86000000D01*
D26*
X161500004Y-72899996D02*
X161000000Y-73400000D01*
X150200000Y-85000000D02*
X150200000Y-83800000D01*
X156000000Y-96750000D02*
X156750000Y-96750000D01*
X150200000Y-83800000D02*
X150400000Y-83600000D01*
D25*
X157120000Y-93550000D02*
X157200000Y-93470000D01*
D26*
X152250000Y-85350000D02*
X153025000Y-84575000D01*
X152800000Y-89860000D02*
X152690000Y-89750000D01*
X152250000Y-86062500D02*
X152250000Y-89310000D01*
X152250000Y-86062500D02*
X152250000Y-85350000D01*
X152800000Y-91040000D02*
X152800000Y-89860000D01*
X153025000Y-84575000D02*
X153025000Y-79600000D01*
X152250000Y-89310000D02*
X152690000Y-89750000D01*
X154150000Y-86062500D02*
X154200000Y-86112500D01*
X154400000Y-74600000D02*
X153025000Y-74600000D01*
X155200000Y-75400000D02*
X154400000Y-74600000D01*
X154150000Y-84450000D02*
X155200000Y-83400000D01*
X154200000Y-86112500D02*
X154200000Y-89260000D01*
X154150000Y-86062500D02*
X154150000Y-84450000D01*
X154200000Y-89260000D02*
X153710000Y-89750000D01*
X153710000Y-89750000D02*
X153710000Y-90710000D01*
X153710000Y-90710000D02*
X154040000Y-91040000D01*
X155200000Y-83400000D02*
X155200000Y-75400000D01*
X154040000Y-91040000D02*
X154600000Y-91040000D01*
D25*
X154575000Y-94687500D02*
X155822500Y-94687500D01*
X156000000Y-94510000D02*
X157120000Y-94510000D01*
D26*
X153000000Y-102150000D02*
X151900000Y-102150000D01*
X162300000Y-71899996D02*
X160300004Y-71899996D01*
D28*
X140500000Y-80650000D02*
X140500000Y-95000000D01*
D26*
X162300000Y-72399996D02*
X160199996Y-72399996D01*
D25*
X157200000Y-94430000D02*
X157930000Y-94430000D01*
X156000000Y-95790000D02*
X156000000Y-94510000D01*
D26*
X160300004Y-71899996D02*
X160000000Y-72200000D01*
D25*
X157120000Y-94510000D02*
X157200000Y-94430000D01*
D28*
X140500000Y-95000000D02*
X149500000Y-95000000D01*
D26*
X160199996Y-72399996D02*
X160000000Y-72200000D01*
D25*
X155822500Y-94687500D02*
X156000000Y-94510000D01*
D26*
X151900000Y-102150000D02*
X151750000Y-102000000D01*
D25*
X157930000Y-94430000D02*
X158250000Y-94750000D01*
D28*
X140500000Y-95000000D02*
X140500000Y-96500000D01*
D26*
X156000000Y-84000000D02*
X156000000Y-85600000D01*
X162300000Y-82899996D02*
X157100004Y-82899996D01*
X157100004Y-82899996D02*
X156000000Y-84000000D01*
X159300004Y-95899996D02*
X162300000Y-95899996D01*
X155000000Y-97400000D02*
X157800000Y-97400000D01*
X152800000Y-97200000D02*
X154800000Y-97200000D01*
X152625000Y-97375000D02*
X152800000Y-97200000D01*
X152625000Y-98912500D02*
X152625000Y-97375000D01*
X154800000Y-97200000D02*
X155000000Y-97400000D01*
X157800000Y-97400000D02*
X159300004Y-95899996D01*
X155000000Y-97854000D02*
X158146000Y-97854000D01*
X154575000Y-98912500D02*
X154575000Y-98279000D01*
X154575000Y-98279000D02*
X155000000Y-97854000D01*
X158146000Y-97854000D02*
X159600001Y-96399999D01*
X159600001Y-96399999D02*
X162300000Y-96399999D01*
X153275000Y-100125000D02*
X153000000Y-100400000D01*
X153000000Y-100400000D02*
X153000000Y-101130000D01*
X153275000Y-98912500D02*
X153275000Y-100125000D01*
X153925000Y-100325000D02*
X153925000Y-98912500D01*
X154200000Y-101130000D02*
X154200000Y-100600000D01*
X154200000Y-100600000D02*
X153925000Y-100325000D01*
X152800000Y-92060000D02*
X152800000Y-92800000D01*
X153275000Y-93275000D02*
X153275000Y-94687500D01*
X152800000Y-92800000D02*
X153275000Y-93275000D01*
X154600000Y-92800000D02*
X154600000Y-92060000D01*
X153925000Y-93475000D02*
X154600000Y-92800000D01*
X153925000Y-94687500D02*
X153925000Y-93475000D01*
D25*
X142650000Y-76450000D02*
X145800000Y-79600000D01*
X145800000Y-79600000D02*
X148975000Y-79600000D01*
X148350000Y-82450000D02*
X148975000Y-81825000D01*
X140500000Y-76450000D02*
X142650000Y-76450000D01*
X148350000Y-83600000D02*
X148350000Y-82450000D01*
X148975000Y-81825000D02*
X148975000Y-79600000D01*
X148600000Y-72200000D02*
X148600000Y-70850000D01*
X148975000Y-74600000D02*
X145000000Y-74600000D01*
X145000000Y-74600000D02*
X142650000Y-72250000D01*
X148600000Y-70850000D02*
X148550000Y-70800000D01*
X148975000Y-72575000D02*
X148600000Y-72200000D01*
X148975000Y-74600000D02*
X148975000Y-72575000D01*
X142650000Y-72250000D02*
X140500000Y-72250000D01*
G04 #@! TA.AperFunction,Conductor*
G36*
X156895885Y-95198020D02*
G01*
X156929007Y-95207643D01*
X156965310Y-95210500D01*
X156965318Y-95210500D01*
X157404470Y-95210500D01*
X157471509Y-95230185D01*
X157511857Y-95272499D01*
X157517467Y-95282216D01*
X157644129Y-95422888D01*
X157797265Y-95534148D01*
X157797270Y-95534151D01*
X157970192Y-95611142D01*
X157970197Y-95611144D01*
X158155354Y-95650500D01*
X158155355Y-95650500D01*
X158344645Y-95650500D01*
X158344646Y-95650500D01*
X158344646Y-95650499D01*
X158351103Y-95649821D01*
X158351442Y-95653048D01*
X158406893Y-95656765D01*
X158463013Y-95698386D01*
X158487722Y-95763740D01*
X158473176Y-95832079D01*
X158451760Y-95860820D01*
X157576400Y-96736181D01*
X157515077Y-96769666D01*
X157488719Y-96772500D01*
X156437139Y-96772500D01*
X156370100Y-96752815D01*
X156324345Y-96700011D01*
X156314401Y-96630853D01*
X156343426Y-96567297D01*
X156402204Y-96529523D01*
X156402544Y-96529424D01*
X156415733Y-96525591D01*
X156426395Y-96522494D01*
X156565687Y-96440117D01*
X156680117Y-96325687D01*
X156762494Y-96186395D01*
X156807643Y-96030993D01*
X156810500Y-95994690D01*
X156810500Y-95585310D01*
X156807643Y-95549007D01*
X156762494Y-95393605D01*
X156754578Y-95380221D01*
X156737398Y-95312498D01*
X156759558Y-95246235D01*
X156814024Y-95202473D01*
X156883504Y-95195104D01*
X156895885Y-95198020D01*
G37*
G04 #@! TD.AperFunction*
G04 #@! TA.AperFunction,Conductor*
G36*
X161532914Y-83547181D02*
G01*
X161578669Y-83599985D01*
X161588613Y-83669143D01*
X161580437Y-83698947D01*
X161579898Y-83700247D01*
X161572500Y-83737437D01*
X161572500Y-84062554D01*
X161579898Y-84099745D01*
X161581059Y-84102547D01*
X161581767Y-84109140D01*
X161582281Y-84111721D01*
X161582049Y-84111766D01*
X161588525Y-84172017D01*
X161581059Y-84197445D01*
X161579898Y-84200246D01*
X161572500Y-84237437D01*
X161572500Y-84562554D01*
X161579898Y-84599745D01*
X161581059Y-84602547D01*
X161581767Y-84609140D01*
X161582281Y-84611721D01*
X161582049Y-84611766D01*
X161588525Y-84672017D01*
X161581059Y-84697445D01*
X161579898Y-84700246D01*
X161572500Y-84737437D01*
X161572500Y-85062554D01*
X161579898Y-85099745D01*
X161581059Y-85102547D01*
X161581767Y-85109140D01*
X161582281Y-85111721D01*
X161582049Y-85111766D01*
X161588525Y-85172017D01*
X161581059Y-85197445D01*
X161579898Y-85200246D01*
X161572500Y-85237437D01*
X161572500Y-85562554D01*
X161579898Y-85599745D01*
X161581059Y-85602547D01*
X161581767Y-85609140D01*
X161582281Y-85611721D01*
X161582049Y-85611766D01*
X161588525Y-85672017D01*
X161581059Y-85697445D01*
X161579898Y-85700246D01*
X161572500Y-85737437D01*
X161572500Y-86062554D01*
X161579898Y-86099745D01*
X161581059Y-86102547D01*
X161581767Y-86109140D01*
X161582281Y-86111721D01*
X161582049Y-86111766D01*
X161588525Y-86172017D01*
X161581059Y-86197445D01*
X161579898Y-86200246D01*
X161572500Y-86237437D01*
X161572500Y-86562554D01*
X161579898Y-86599745D01*
X161581059Y-86602547D01*
X161581767Y-86609140D01*
X161582281Y-86611721D01*
X161582049Y-86611766D01*
X161588525Y-86672017D01*
X161581059Y-86697445D01*
X161579898Y-86700246D01*
X161572500Y-86737437D01*
X161572500Y-87062554D01*
X161579898Y-87099745D01*
X161581059Y-87102547D01*
X161581767Y-87109140D01*
X161582281Y-87111721D01*
X161582049Y-87111766D01*
X161588525Y-87172017D01*
X161581059Y-87197445D01*
X161579898Y-87200246D01*
X161572500Y-87237437D01*
X161572500Y-87562554D01*
X161579898Y-87599745D01*
X161581059Y-87602547D01*
X161581767Y-87609140D01*
X161582281Y-87611721D01*
X161582049Y-87611766D01*
X161588525Y-87672017D01*
X161581059Y-87697445D01*
X161579898Y-87700246D01*
X161572500Y-87737437D01*
X161572500Y-88062554D01*
X161579898Y-88099745D01*
X161581059Y-88102547D01*
X161581767Y-88109140D01*
X161582281Y-88111721D01*
X161582049Y-88111766D01*
X161588525Y-88172017D01*
X161581059Y-88197445D01*
X161579898Y-88200246D01*
X161572500Y-88237437D01*
X161572500Y-88562554D01*
X161579898Y-88599745D01*
X161581059Y-88602547D01*
X161581767Y-88609140D01*
X161582281Y-88611721D01*
X161582049Y-88611766D01*
X161588525Y-88672017D01*
X161581059Y-88697445D01*
X161579898Y-88700246D01*
X161572500Y-88737437D01*
X161572500Y-89062554D01*
X161579898Y-89099745D01*
X161581059Y-89102547D01*
X161581767Y-89109140D01*
X161582281Y-89111721D01*
X161582049Y-89111766D01*
X161588525Y-89172017D01*
X161581059Y-89197445D01*
X161579898Y-89200246D01*
X161572500Y-89237437D01*
X161572500Y-89562554D01*
X161579898Y-89599745D01*
X161581059Y-89602547D01*
X161581767Y-89609140D01*
X161582281Y-89611721D01*
X161582049Y-89611766D01*
X161588525Y-89672017D01*
X161581059Y-89697445D01*
X161579898Y-89700246D01*
X161572500Y-89737437D01*
X161572500Y-90062554D01*
X161579898Y-90099745D01*
X161581059Y-90102547D01*
X161581767Y-90109140D01*
X161582281Y-90111721D01*
X161582049Y-90111766D01*
X161588525Y-90172017D01*
X161581059Y-90197445D01*
X161579898Y-90200246D01*
X161572500Y-90237437D01*
X161572500Y-90562554D01*
X161579898Y-90599745D01*
X161581059Y-90602547D01*
X161581767Y-90609140D01*
X161582281Y-90611721D01*
X161582049Y-90611766D01*
X161588525Y-90672017D01*
X161581059Y-90697445D01*
X161579898Y-90700246D01*
X161572500Y-90737437D01*
X161572500Y-91062554D01*
X161579898Y-91099744D01*
X161581058Y-91102544D01*
X161581766Y-91109135D01*
X161582281Y-91111721D01*
X161582049Y-91111767D01*
X161588527Y-91172013D01*
X161581059Y-91197447D01*
X161579898Y-91200247D01*
X161572500Y-91237440D01*
X161572500Y-91562557D01*
X161579899Y-91599750D01*
X161581058Y-91602549D01*
X161581765Y-91609133D01*
X161582281Y-91611724D01*
X161582049Y-91611770D01*
X161588524Y-91672019D01*
X161581059Y-91697442D01*
X161579899Y-91700241D01*
X161572500Y-91737437D01*
X161572500Y-92062554D01*
X161579898Y-92099745D01*
X161581059Y-92102547D01*
X161581767Y-92109140D01*
X161582281Y-92111721D01*
X161582049Y-92111766D01*
X161588525Y-92172017D01*
X161581059Y-92197445D01*
X161579898Y-92200246D01*
X161572500Y-92237437D01*
X161572500Y-92562554D01*
X161579898Y-92599745D01*
X161581059Y-92602547D01*
X161581767Y-92609140D01*
X161582281Y-92611721D01*
X161582049Y-92611766D01*
X161588525Y-92672017D01*
X161581059Y-92697445D01*
X161579898Y-92700246D01*
X161572500Y-92737437D01*
X161572500Y-93062554D01*
X161579898Y-93099745D01*
X161581059Y-93102547D01*
X161581767Y-93109140D01*
X161582281Y-93111721D01*
X161582049Y-93111766D01*
X161588525Y-93172017D01*
X161581059Y-93197445D01*
X161579898Y-93200246D01*
X161572500Y-93237437D01*
X161572500Y-93562554D01*
X161579898Y-93599744D01*
X161581058Y-93602544D01*
X161581766Y-93609135D01*
X161582281Y-93611721D01*
X161582049Y-93611767D01*
X161588527Y-93672013D01*
X161581059Y-93697447D01*
X161579898Y-93700247D01*
X161572500Y-93737440D01*
X161572500Y-93737441D01*
X161572500Y-94062557D01*
X161575395Y-94077112D01*
X161579899Y-94099750D01*
X161581058Y-94102549D01*
X161581765Y-94109133D01*
X161582281Y-94111724D01*
X161582049Y-94111770D01*
X161588524Y-94172019D01*
X161581059Y-94197442D01*
X161579899Y-94200241D01*
X161572500Y-94237437D01*
X161572500Y-94562554D01*
X161579898Y-94599745D01*
X161581059Y-94602547D01*
X161581767Y-94609140D01*
X161582281Y-94611721D01*
X161582049Y-94611766D01*
X161588525Y-94672017D01*
X161581059Y-94697445D01*
X161579898Y-94700246D01*
X161572500Y-94737437D01*
X161572500Y-95062554D01*
X161579898Y-95099744D01*
X161580437Y-95101045D01*
X161580765Y-95104105D01*
X161582281Y-95111721D01*
X161581599Y-95111856D01*
X161587904Y-95170514D01*
X161556629Y-95232993D01*
X161496539Y-95268645D01*
X161465875Y-95272496D01*
X159382971Y-95272496D01*
X159367322Y-95270768D01*
X159367296Y-95271050D01*
X159359528Y-95270315D01*
X159292085Y-95272435D01*
X159288191Y-95272496D01*
X159260527Y-95272496D01*
X159256518Y-95273002D01*
X159244888Y-95273917D01*
X159200708Y-95275306D01*
X159133083Y-95257738D01*
X159085691Y-95206397D01*
X159073579Y-95137586D01*
X159078880Y-95113049D01*
X159095287Y-95062554D01*
X159135674Y-94938256D01*
X159155460Y-94750000D01*
X159135674Y-94561744D01*
X159081112Y-94393823D01*
X159077181Y-94381722D01*
X159077180Y-94381721D01*
X159077179Y-94381716D01*
X158982533Y-94217784D01*
X158855871Y-94077112D01*
X158805424Y-94040460D01*
X158702734Y-93965851D01*
X158702729Y-93965848D01*
X158529807Y-93888857D01*
X158529802Y-93888855D01*
X158378774Y-93856754D01*
X158344646Y-93849500D01*
X158344645Y-93849500D01*
X158316765Y-93849500D01*
X158252972Y-93830768D01*
X158252868Y-93830968D01*
X158251871Y-93830444D01*
X158249726Y-93829815D01*
X158246332Y-93827555D01*
X158246228Y-93827483D01*
X158246224Y-93827481D01*
X158192117Y-93806960D01*
X158185200Y-93804095D01*
X158181549Y-93802452D01*
X158171669Y-93798005D01*
X158132440Y-93780350D01*
X158132441Y-93780350D01*
X158125087Y-93779002D01*
X158123222Y-93778660D01*
X158101614Y-93772637D01*
X158092845Y-93769312D01*
X158035387Y-93762334D01*
X158027987Y-93761207D01*
X157971089Y-93750781D01*
X157971082Y-93750781D01*
X157922362Y-93753728D01*
X157913334Y-93754274D01*
X157905849Y-93754500D01*
X157756689Y-93754500D01*
X157693568Y-93737232D01*
X157634163Y-93702100D01*
X157626395Y-93697506D01*
X157626394Y-93697505D01*
X157626393Y-93697505D01*
X157626390Y-93697504D01*
X157470997Y-93652357D01*
X157470991Y-93652356D01*
X157434697Y-93649500D01*
X157434690Y-93649500D01*
X156965310Y-93649500D01*
X156965302Y-93649500D01*
X156929008Y-93652356D01*
X156929002Y-93652357D01*
X156773609Y-93697504D01*
X156773606Y-93697505D01*
X156634315Y-93779881D01*
X156634309Y-93779885D01*
X156626548Y-93787647D01*
X156565224Y-93821129D01*
X156495532Y-93816142D01*
X156475749Y-93806694D01*
X156471354Y-93804095D01*
X156426395Y-93777506D01*
X156426394Y-93777505D01*
X156426393Y-93777505D01*
X156426390Y-93777504D01*
X156270997Y-93732357D01*
X156270991Y-93732356D01*
X156234697Y-93729500D01*
X156234690Y-93729500D01*
X155765310Y-93729500D01*
X155765302Y-93729500D01*
X155729008Y-93732356D01*
X155729002Y-93732357D01*
X155573609Y-93777504D01*
X155573606Y-93777505D01*
X155431187Y-93861731D01*
X155363463Y-93878914D01*
X155297200Y-93856754D01*
X155253505Y-93802452D01*
X155244350Y-93780350D01*
X155199536Y-93672159D01*
X155103282Y-93546718D01*
X155103280Y-93546717D01*
X155103280Y-93546716D01*
X155040573Y-93498600D01*
X155012131Y-93476775D01*
X154970930Y-93420351D01*
X154966775Y-93350605D01*
X154998663Y-93293821D01*
X154997819Y-93293029D01*
X155003160Y-93287341D01*
X155003162Y-93287340D01*
X155049384Y-93238116D01*
X155052033Y-93235384D01*
X155071623Y-93215796D01*
X155074096Y-93212606D01*
X155081682Y-93203722D01*
X155111693Y-93171767D01*
X155121389Y-93154128D01*
X155132073Y-93137861D01*
X155144408Y-93121962D01*
X155161822Y-93081718D01*
X155166944Y-93071262D01*
X155188072Y-93032834D01*
X155193076Y-93013338D01*
X155199378Y-92994933D01*
X155207374Y-92976459D01*
X155214231Y-92933154D01*
X155216594Y-92921744D01*
X155227500Y-92879272D01*
X155227500Y-92859141D01*
X155229027Y-92839741D01*
X155229069Y-92839476D01*
X155232175Y-92819867D01*
X155228050Y-92776230D01*
X155227500Y-92764561D01*
X155227500Y-92702595D01*
X155247185Y-92635556D01*
X155263815Y-92614917D01*
X155291135Y-92587598D01*
X155372869Y-92449393D01*
X155417665Y-92295204D01*
X155420500Y-92259181D01*
X155420499Y-91860820D01*
X155417665Y-91824796D01*
X155372869Y-91670607D01*
X155338869Y-91613117D01*
X155321688Y-91545398D01*
X155338869Y-91486882D01*
X155372869Y-91429393D01*
X155417665Y-91275204D01*
X155420500Y-91239181D01*
X155420499Y-90840820D01*
X155417665Y-90804796D01*
X155372869Y-90650607D01*
X155291135Y-90512402D01*
X155291133Y-90512400D01*
X155291130Y-90512396D01*
X155177603Y-90398869D01*
X155177595Y-90398863D01*
X155039393Y-90317131D01*
X155039388Y-90317129D01*
X154885208Y-90272335D01*
X154885202Y-90272334D01*
X154849188Y-90269500D01*
X154849181Y-90269500D01*
X154574748Y-90269500D01*
X154507709Y-90249815D01*
X154461954Y-90197011D01*
X154452010Y-90127853D01*
X154455672Y-90110905D01*
X154477664Y-90035208D01*
X154477664Y-90035206D01*
X154477665Y-90035204D01*
X154480500Y-89999181D01*
X154480499Y-89918280D01*
X154500183Y-89851243D01*
X154516812Y-89830605D01*
X154585049Y-89762369D01*
X154597333Y-89752530D01*
X154597152Y-89752312D01*
X154603159Y-89747342D01*
X154603159Y-89747341D01*
X154603162Y-89747340D01*
X154649369Y-89698132D01*
X154652019Y-89695399D01*
X154671624Y-89675796D01*
X154674107Y-89672593D01*
X154681671Y-89663736D01*
X154711693Y-89631767D01*
X154721388Y-89614130D01*
X154732072Y-89597863D01*
X154744408Y-89581962D01*
X154761811Y-89541742D01*
X154766951Y-89531251D01*
X154776722Y-89513479D01*
X154788072Y-89492834D01*
X154793078Y-89473334D01*
X154799376Y-89454936D01*
X154807374Y-89436458D01*
X154814232Y-89393151D01*
X154816596Y-89381736D01*
X154827500Y-89339272D01*
X154827500Y-89319141D01*
X154829027Y-89299741D01*
X154832175Y-89279867D01*
X154828050Y-89236230D01*
X154827500Y-89224561D01*
X154827500Y-87069860D01*
X154844768Y-87006739D01*
X154901744Y-86910398D01*
X154947598Y-86752569D01*
X154950500Y-86715694D01*
X154950500Y-86045986D01*
X154970185Y-85978947D01*
X155022989Y-85933192D01*
X155092147Y-85923248D01*
X155155703Y-85952273D01*
X155181887Y-85983987D01*
X155267463Y-86132211D01*
X155267465Y-86132214D01*
X155394129Y-86272888D01*
X155547265Y-86384148D01*
X155547270Y-86384151D01*
X155720192Y-86461142D01*
X155720197Y-86461144D01*
X155905354Y-86500500D01*
X155905355Y-86500500D01*
X156094644Y-86500500D01*
X156094646Y-86500500D01*
X156279803Y-86461144D01*
X156452730Y-86384151D01*
X156605871Y-86272888D01*
X156732533Y-86132216D01*
X156827179Y-85968284D01*
X156885674Y-85788256D01*
X156905460Y-85600000D01*
X156885674Y-85411744D01*
X156827179Y-85231716D01*
X156732533Y-85067784D01*
X156659350Y-84986506D01*
X156629120Y-84923515D01*
X156627500Y-84903534D01*
X156627500Y-84311281D01*
X156647185Y-84244242D01*
X156663819Y-84223600D01*
X157323604Y-83563815D01*
X157384927Y-83530330D01*
X157411285Y-83527496D01*
X161465875Y-83527496D01*
X161532914Y-83547181D01*
G37*
G04 #@! TD.AperFunction*
G04 #@! TA.AperFunction,Conductor*
G36*
X153268834Y-85321098D02*
G01*
X153324767Y-85362970D01*
X153349184Y-85428434D01*
X153349500Y-85437280D01*
X153349500Y-86715701D01*
X153352401Y-86752567D01*
X153352402Y-86752573D01*
X153398254Y-86910393D01*
X153398255Y-86910396D01*
X153398256Y-86910398D01*
X153481919Y-87051865D01*
X153536182Y-87106128D01*
X153569666Y-87167449D01*
X153572500Y-87193808D01*
X153572500Y-88811086D01*
X153552815Y-88878125D01*
X153500011Y-88923880D01*
X153480702Y-88929952D01*
X153480881Y-88930567D01*
X153320611Y-88977129D01*
X153320604Y-88977132D01*
X153263119Y-89011128D01*
X153195395Y-89028309D01*
X153136881Y-89011128D01*
X153079395Y-88977132D01*
X153079389Y-88977129D01*
X152966904Y-88944449D01*
X152908019Y-88906842D01*
X152878813Y-88843370D01*
X152877500Y-88825373D01*
X152877500Y-87143808D01*
X152897185Y-87076769D01*
X152913818Y-87056127D01*
X152918081Y-87051865D01*
X153001744Y-86910398D01*
X153047598Y-86752569D01*
X153050500Y-86715694D01*
X153050500Y-85488280D01*
X153070185Y-85421241D01*
X153086815Y-85400603D01*
X153137820Y-85349598D01*
X153199142Y-85316114D01*
X153268834Y-85321098D01*
G37*
G04 #@! TD.AperFunction*
G04 #@! TA.AperFunction,Conductor*
G36*
X154491834Y-81675772D02*
G01*
X154547767Y-81717644D01*
X154572184Y-81783108D01*
X154572500Y-81791954D01*
X154572500Y-83088718D01*
X154552815Y-83155757D01*
X154536181Y-83176399D01*
X153864181Y-83848399D01*
X153802858Y-83881884D01*
X153733166Y-83876900D01*
X153677233Y-83835028D01*
X153652816Y-83769564D01*
X153652500Y-83760718D01*
X153652500Y-81974499D01*
X153672185Y-81907460D01*
X153724989Y-81861705D01*
X153776500Y-81850499D01*
X154047871Y-81850499D01*
X154047872Y-81850499D01*
X154107483Y-81844091D01*
X154242331Y-81793796D01*
X154357546Y-81707546D01*
X154357548Y-81707542D01*
X154360819Y-81704273D01*
X154422142Y-81670788D01*
X154491834Y-81675772D01*
G37*
G04 #@! TD.AperFunction*
G04 #@! TA.AperFunction,Conductor*
G36*
X200390116Y-54846763D02*
G01*
X200400195Y-54847644D01*
X200429972Y-54850250D01*
X200430989Y-54850344D01*
X200556406Y-54862689D01*
X200576329Y-54866314D01*
X200641589Y-54883802D01*
X200645432Y-54884900D01*
X200736195Y-54912435D01*
X200752583Y-54918706D01*
X200818845Y-54949606D01*
X200824843Y-54952604D01*
X200903652Y-54994730D01*
X200916319Y-55002511D01*
X200977775Y-55045544D01*
X200985315Y-55051265D01*
X201053052Y-55106856D01*
X201062070Y-55115029D01*
X201115481Y-55168442D01*
X201123652Y-55177458D01*
X201179246Y-55245200D01*
X201184967Y-55252741D01*
X201227992Y-55314188D01*
X201235775Y-55326858D01*
X201277884Y-55405639D01*
X201280908Y-55411687D01*
X201311794Y-55477921D01*
X201318072Y-55494330D01*
X201345599Y-55585073D01*
X201346713Y-55588974D01*
X201364187Y-55654185D01*
X201367816Y-55674126D01*
X201380037Y-55798208D01*
X201380162Y-55799549D01*
X201383753Y-55840574D01*
X201384225Y-55851387D01*
X201384225Y-112460375D01*
X201383753Y-112471186D01*
X201380178Y-112512033D01*
X201380057Y-112513334D01*
X201367904Y-112637160D01*
X201364272Y-112657141D01*
X201346331Y-112724098D01*
X201345217Y-112728001D01*
X201318242Y-112816925D01*
X201311962Y-112833336D01*
X201280543Y-112900711D01*
X201277519Y-112906760D01*
X201236029Y-112984378D01*
X201228246Y-112997047D01*
X201184606Y-113059369D01*
X201178883Y-113066912D01*
X201124022Y-113133756D01*
X201115850Y-113142772D01*
X201061725Y-113196894D01*
X201052706Y-113205067D01*
X200985856Y-113259924D01*
X200978315Y-113265645D01*
X200915996Y-113309277D01*
X200903326Y-113317059D01*
X200825684Y-113358556D01*
X200819633Y-113361581D01*
X200752277Y-113392985D01*
X200735868Y-113399263D01*
X200646922Y-113426239D01*
X200643018Y-113427353D01*
X200576034Y-113445296D01*
X200556095Y-113448923D01*
X200436833Y-113460661D01*
X200435489Y-113460786D01*
X200389358Y-113464820D01*
X200378556Y-113465291D01*
X132390134Y-113465291D01*
X132379329Y-113464819D01*
X132340299Y-113461405D01*
X132338942Y-113461279D01*
X132212867Y-113448854D01*
X132192938Y-113445227D01*
X132128813Y-113428046D01*
X132124911Y-113426932D01*
X132033056Y-113399070D01*
X132016647Y-113392792D01*
X131951150Y-113362252D01*
X131945099Y-113359227D01*
X131865555Y-113316710D01*
X131852887Y-113308928D01*
X131791998Y-113266295D01*
X131784455Y-113260573D01*
X131716133Y-113204504D01*
X131707116Y-113196331D01*
X131654178Y-113143393D01*
X131646007Y-113134378D01*
X131589936Y-113066057D01*
X131584212Y-113058513D01*
X131541576Y-112997621D01*
X131533794Y-112984953D01*
X131491281Y-112905418D01*
X131488257Y-112899370D01*
X131483993Y-112890226D01*
X131457709Y-112833860D01*
X131451438Y-112817469D01*
X131423555Y-112725551D01*
X131422465Y-112721732D01*
X131405276Y-112657582D01*
X131401650Y-112637650D01*
X131389104Y-112510256D01*
X131389002Y-112509161D01*
X131385697Y-112471378D01*
X131385225Y-112460573D01*
X131385225Y-111165791D01*
X133179082Y-111165791D01*
X133186755Y-111248597D01*
X133187284Y-111260038D01*
X133187284Y-111276750D01*
X133190222Y-111292469D01*
X133190354Y-111293173D01*
X133191935Y-111304510D01*
X133199610Y-111387327D01*
X133199610Y-111387329D01*
X133222370Y-111467321D01*
X133224990Y-111478460D01*
X133228062Y-111494888D01*
X133228063Y-111494893D01*
X133234097Y-111510468D01*
X133237737Y-111521328D01*
X133260495Y-111601318D01*
X133278153Y-111636779D01*
X133297566Y-111675765D01*
X133302187Y-111686231D01*
X133308227Y-111701823D01*
X133317024Y-111716029D01*
X133322597Y-111726035D01*
X133359663Y-111800474D01*
X133359667Y-111800481D01*
X133409780Y-111866841D01*
X133416250Y-111876286D01*
X133425053Y-111890502D01*
X133436310Y-111902851D01*
X133443626Y-111911661D01*
X133493745Y-111978028D01*
X133555199Y-112034051D01*
X133563298Y-112042150D01*
X133574556Y-112054500D01*
X133587896Y-112064574D01*
X133596706Y-112071890D01*
X133658158Y-112127911D01*
X133658160Y-112127912D01*
X133658163Y-112127915D01*
X133728869Y-112171694D01*
X133738315Y-112178164D01*
X133751653Y-112188237D01*
X133766624Y-112195691D01*
X133776621Y-112201261D01*
X133847314Y-112245033D01*
X133847318Y-112245035D01*
X133847321Y-112245036D01*
X133847324Y-112245038D01*
X133924878Y-112275082D01*
X133935334Y-112279700D01*
X133950301Y-112287153D01*
X133950303Y-112287153D01*
X133950306Y-112287155D01*
X133966400Y-112291734D01*
X133977236Y-112295366D01*
X134054785Y-112325409D01*
X134136552Y-112340694D01*
X134147679Y-112343311D01*
X134163753Y-112347885D01*
X134180384Y-112349426D01*
X134191713Y-112351005D01*
X134273482Y-112366291D01*
X134273484Y-112366291D01*
X134356643Y-112366291D01*
X134368084Y-112366819D01*
X134384725Y-112368362D01*
X134401365Y-112366819D01*
X134412807Y-112366291D01*
X134495967Y-112366291D01*
X134495968Y-112366291D01*
X134577732Y-112351006D01*
X134589053Y-112349427D01*
X134605697Y-112347885D01*
X134621794Y-112343304D01*
X134632886Y-112340696D01*
X134714665Y-112325409D01*
X134792239Y-112295356D01*
X134803036Y-112291737D01*
X134819144Y-112287155D01*
X134834116Y-112279700D01*
X134844572Y-112275082D01*
X134922126Y-112245038D01*
X134992862Y-112201239D01*
X135002808Y-112195700D01*
X135017797Y-112188237D01*
X135031142Y-112178159D01*
X135040548Y-112171714D01*
X135111287Y-112127915D01*
X135172765Y-112071869D01*
X135181539Y-112064584D01*
X135194892Y-112054501D01*
X135206166Y-112042133D01*
X135214231Y-112034068D01*
X135275706Y-111978027D01*
X135325833Y-111911647D01*
X135333127Y-111902863D01*
X135344397Y-111890502D01*
X135353208Y-111876271D01*
X135359652Y-111866863D01*
X135409783Y-111800480D01*
X135446863Y-111726012D01*
X135452412Y-111716050D01*
X135461222Y-111701823D01*
X135467264Y-111686225D01*
X135471871Y-111675789D01*
X135508954Y-111601319D01*
X135531721Y-111521300D01*
X135535347Y-111510482D01*
X135541388Y-111494890D01*
X135544458Y-111478462D01*
X135547071Y-111467350D01*
X135569840Y-111387327D01*
X135577514Y-111304506D01*
X135579092Y-111293189D01*
X135582166Y-111276750D01*
X135582756Y-111251146D01*
X135583249Y-111242616D01*
X135590368Y-111165791D01*
X197179082Y-111165791D01*
X197186755Y-111248597D01*
X197187284Y-111260038D01*
X197187284Y-111276750D01*
X197190222Y-111292469D01*
X197190354Y-111293173D01*
X197191935Y-111304510D01*
X197199610Y-111387327D01*
X197199610Y-111387329D01*
X197222370Y-111467321D01*
X197224990Y-111478460D01*
X197228062Y-111494888D01*
X197228063Y-111494893D01*
X197234097Y-111510468D01*
X197237737Y-111521328D01*
X197260495Y-111601318D01*
X197278153Y-111636779D01*
X197297566Y-111675765D01*
X197302187Y-111686231D01*
X197308227Y-111701823D01*
X197317024Y-111716029D01*
X197322597Y-111726035D01*
X197359663Y-111800474D01*
X197359667Y-111800481D01*
X197409780Y-111866841D01*
X197416250Y-111876286D01*
X197425053Y-111890502D01*
X197436310Y-111902851D01*
X197443626Y-111911661D01*
X197493745Y-111978028D01*
X197555199Y-112034051D01*
X197563298Y-112042150D01*
X197574556Y-112054500D01*
X197587896Y-112064574D01*
X197596706Y-112071890D01*
X197658158Y-112127911D01*
X197658160Y-112127912D01*
X197658163Y-112127915D01*
X197728869Y-112171694D01*
X197738315Y-112178164D01*
X197751653Y-112188237D01*
X197766624Y-112195691D01*
X197776621Y-112201261D01*
X197847314Y-112245033D01*
X197847318Y-112245035D01*
X197847321Y-112245036D01*
X197847324Y-112245038D01*
X197924878Y-112275082D01*
X197935334Y-112279700D01*
X197950301Y-112287153D01*
X197950303Y-112287153D01*
X197950306Y-112287155D01*
X197966400Y-112291734D01*
X197977236Y-112295366D01*
X198054785Y-112325409D01*
X198136552Y-112340694D01*
X198147679Y-112343311D01*
X198163753Y-112347885D01*
X198180384Y-112349426D01*
X198191713Y-112351005D01*
X198273482Y-112366291D01*
X198273484Y-112366291D01*
X198356643Y-112366291D01*
X198368084Y-112366819D01*
X198384725Y-112368362D01*
X198401365Y-112366819D01*
X198412807Y-112366291D01*
X198495967Y-112366291D01*
X198495968Y-112366291D01*
X198577732Y-112351006D01*
X198589053Y-112349427D01*
X198605697Y-112347885D01*
X198621794Y-112343304D01*
X198632886Y-112340696D01*
X198714665Y-112325409D01*
X198792239Y-112295356D01*
X198803036Y-112291737D01*
X198819144Y-112287155D01*
X198834116Y-112279700D01*
X198844572Y-112275082D01*
X198922126Y-112245038D01*
X198992862Y-112201239D01*
X199002808Y-112195700D01*
X199017797Y-112188237D01*
X199031142Y-112178159D01*
X199040548Y-112171714D01*
X199111287Y-112127915D01*
X199172765Y-112071869D01*
X199181539Y-112064584D01*
X199194892Y-112054501D01*
X199206166Y-112042133D01*
X199214231Y-112034068D01*
X199275706Y-111978027D01*
X199325833Y-111911647D01*
X199333127Y-111902863D01*
X199344397Y-111890502D01*
X199353208Y-111876271D01*
X199359652Y-111866863D01*
X199409783Y-111800480D01*
X199446863Y-111726012D01*
X199452412Y-111716050D01*
X199461222Y-111701823D01*
X199467264Y-111686225D01*
X199471871Y-111675789D01*
X199508954Y-111601319D01*
X199531721Y-111521300D01*
X199535347Y-111510482D01*
X199541388Y-111494890D01*
X199544458Y-111478462D01*
X199547071Y-111467350D01*
X199569840Y-111387327D01*
X199577514Y-111304506D01*
X199579092Y-111293189D01*
X199582166Y-111276750D01*
X199582756Y-111251146D01*
X199583249Y-111242616D01*
X199590368Y-111165791D01*
X199583249Y-111088968D01*
X199582756Y-111080435D01*
X199582166Y-111054832D01*
X199579090Y-111038382D01*
X199577513Y-111027062D01*
X199569840Y-110944255D01*
X199547072Y-110864236D01*
X199544458Y-110853119D01*
X199541388Y-110836692D01*
X199535349Y-110821106D01*
X199531719Y-110810275D01*
X199508954Y-110730263D01*
X199471880Y-110655810D01*
X199467258Y-110645340D01*
X199461223Y-110629761D01*
X199461222Y-110629759D01*
X199452413Y-110615533D01*
X199446860Y-110605563D01*
X199409783Y-110531102D01*
X199359659Y-110464727D01*
X199353195Y-110455290D01*
X199344397Y-110441080D01*
X199333137Y-110428728D01*
X199325823Y-110419920D01*
X199298657Y-110383947D01*
X199275706Y-110353555D01*
X199214251Y-110297531D01*
X199214248Y-110297528D01*
X199206151Y-110289431D01*
X199194895Y-110277084D01*
X199194893Y-110277082D01*
X199194892Y-110277081D01*
X199181546Y-110267002D01*
X199172753Y-110259701D01*
X199111287Y-110203667D01*
X199040583Y-110159889D01*
X199031136Y-110153418D01*
X199017793Y-110143342D01*
X199002832Y-110135892D01*
X198992830Y-110130321D01*
X198922132Y-110086547D01*
X198922131Y-110086546D01*
X198844587Y-110056504D01*
X198834121Y-110051883D01*
X198819151Y-110044430D01*
X198819147Y-110044428D01*
X198819144Y-110044427D01*
X198819136Y-110044424D01*
X198819134Y-110044424D01*
X198803062Y-110039850D01*
X198792211Y-110036213D01*
X198714668Y-110006174D01*
X198714666Y-110006173D01*
X198714665Y-110006173D01*
X198714663Y-110006172D01*
X198714654Y-110006170D01*
X198632915Y-109990890D01*
X198621769Y-109988269D01*
X198605697Y-109983696D01*
X198605693Y-109983695D01*
X198589055Y-109982153D01*
X198577721Y-109980572D01*
X198495969Y-109965291D01*
X198495968Y-109965291D01*
X198412796Y-109965291D01*
X198401356Y-109964762D01*
X198384725Y-109963221D01*
X198368093Y-109964762D01*
X198356654Y-109965291D01*
X198273480Y-109965291D01*
X198191728Y-109980572D01*
X198180395Y-109982153D01*
X198163761Y-109983695D01*
X198163747Y-109983698D01*
X198147667Y-109988272D01*
X198136529Y-109990891D01*
X198054789Y-110006171D01*
X198054779Y-110006174D01*
X197977243Y-110036212D01*
X197966391Y-110039850D01*
X197950305Y-110044427D01*
X197950295Y-110044431D01*
X197935325Y-110051884D01*
X197924862Y-110056503D01*
X197847332Y-110086540D01*
X197847320Y-110086546D01*
X197776616Y-110130323D01*
X197766615Y-110135893D01*
X197751659Y-110143340D01*
X197751654Y-110143343D01*
X197738313Y-110153417D01*
X197728874Y-110159883D01*
X197658160Y-110203668D01*
X197596693Y-110259701D01*
X197587891Y-110267011D01*
X197574555Y-110277082D01*
X197563289Y-110289440D01*
X197555197Y-110297531D01*
X197493747Y-110353551D01*
X197443626Y-110419920D01*
X197436315Y-110428724D01*
X197425055Y-110441077D01*
X197425054Y-110441077D01*
X197416256Y-110455287D01*
X197409787Y-110464731D01*
X197377163Y-110507932D01*
X197359667Y-110531102D01*
X197359666Y-110531103D01*
X197359666Y-110531104D01*
X197359659Y-110531115D01*
X197322595Y-110605548D01*
X197317028Y-110615544D01*
X197308227Y-110629759D01*
X197302191Y-110645340D01*
X197297567Y-110655811D01*
X197260498Y-110730258D01*
X197260495Y-110730264D01*
X197247710Y-110775198D01*
X197237736Y-110810256D01*
X197234098Y-110821110D01*
X197228063Y-110836686D01*
X197228062Y-110836692D01*
X197224993Y-110853107D01*
X197222372Y-110864249D01*
X197199610Y-110944255D01*
X197191936Y-111027062D01*
X197190355Y-111038398D01*
X197187284Y-111054828D01*
X197187284Y-111071542D01*
X197186755Y-111082983D01*
X197179082Y-111165790D01*
X197179082Y-111165791D01*
X135590368Y-111165791D01*
X135583249Y-111088968D01*
X135582756Y-111080435D01*
X135582166Y-111054832D01*
X135579090Y-111038382D01*
X135577513Y-111027062D01*
X135569840Y-110944255D01*
X135547072Y-110864236D01*
X135544458Y-110853119D01*
X135541388Y-110836692D01*
X135535349Y-110821106D01*
X135531719Y-110810275D01*
X135508954Y-110730263D01*
X135471880Y-110655810D01*
X135467258Y-110645340D01*
X135461223Y-110629761D01*
X135461222Y-110629759D01*
X135452413Y-110615533D01*
X135446860Y-110605563D01*
X135409783Y-110531102D01*
X135359659Y-110464727D01*
X135353195Y-110455290D01*
X135344397Y-110441080D01*
X135333137Y-110428728D01*
X135325823Y-110419920D01*
X135298657Y-110383947D01*
X135275706Y-110353555D01*
X135214251Y-110297531D01*
X135214248Y-110297528D01*
X135206151Y-110289431D01*
X135194895Y-110277084D01*
X135194893Y-110277082D01*
X135194892Y-110277081D01*
X135181546Y-110267002D01*
X135172753Y-110259701D01*
X135111287Y-110203667D01*
X135040583Y-110159889D01*
X135031136Y-110153418D01*
X135017793Y-110143342D01*
X135002832Y-110135892D01*
X134992830Y-110130321D01*
X134922132Y-110086547D01*
X134922131Y-110086546D01*
X134844587Y-110056504D01*
X134834121Y-110051883D01*
X134819151Y-110044430D01*
X134819147Y-110044428D01*
X134819144Y-110044427D01*
X134819136Y-110044424D01*
X134819134Y-110044424D01*
X134803062Y-110039850D01*
X134792211Y-110036213D01*
X134714668Y-110006174D01*
X134714666Y-110006173D01*
X134714665Y-110006173D01*
X134714663Y-110006172D01*
X134714654Y-110006170D01*
X134632915Y-109990890D01*
X134621769Y-109988269D01*
X134605697Y-109983696D01*
X134605693Y-109983695D01*
X134589055Y-109982153D01*
X134577721Y-109980572D01*
X134495969Y-109965291D01*
X134495968Y-109965291D01*
X134412796Y-109965291D01*
X134401356Y-109964762D01*
X134384725Y-109963221D01*
X134368093Y-109964762D01*
X134356654Y-109965291D01*
X134273480Y-109965291D01*
X134191728Y-109980572D01*
X134180395Y-109982153D01*
X134163761Y-109983695D01*
X134163747Y-109983698D01*
X134147667Y-109988272D01*
X134136529Y-109990891D01*
X134054789Y-110006171D01*
X134054779Y-110006174D01*
X133977243Y-110036212D01*
X133966391Y-110039850D01*
X133950305Y-110044427D01*
X133950295Y-110044431D01*
X133935325Y-110051884D01*
X133924862Y-110056503D01*
X133847332Y-110086540D01*
X133847320Y-110086546D01*
X133776616Y-110130323D01*
X133766615Y-110135893D01*
X133751659Y-110143340D01*
X133751654Y-110143343D01*
X133738313Y-110153417D01*
X133728874Y-110159883D01*
X133658160Y-110203668D01*
X133596693Y-110259701D01*
X133587891Y-110267011D01*
X133574555Y-110277082D01*
X133563289Y-110289440D01*
X133555197Y-110297531D01*
X133493747Y-110353551D01*
X133443626Y-110419920D01*
X133436315Y-110428724D01*
X133425055Y-110441077D01*
X133425054Y-110441077D01*
X133416256Y-110455287D01*
X133409787Y-110464731D01*
X133377163Y-110507932D01*
X133359667Y-110531102D01*
X133359666Y-110531103D01*
X133359666Y-110531104D01*
X133359659Y-110531115D01*
X133322595Y-110605548D01*
X133317028Y-110615544D01*
X133308227Y-110629759D01*
X133302191Y-110645340D01*
X133297567Y-110655811D01*
X133260498Y-110730258D01*
X133260495Y-110730264D01*
X133247710Y-110775198D01*
X133237736Y-110810256D01*
X133234098Y-110821110D01*
X133228063Y-110836686D01*
X133228062Y-110836692D01*
X133224993Y-110853107D01*
X133222372Y-110864249D01*
X133199610Y-110944255D01*
X133191936Y-111027062D01*
X133190355Y-111038398D01*
X133187284Y-111054828D01*
X133187284Y-111071542D01*
X133186755Y-111082983D01*
X133179082Y-111165790D01*
X133179082Y-111165791D01*
X131385225Y-111165791D01*
X131385225Y-81800015D01*
X138349500Y-81800015D01*
X138360000Y-81902795D01*
X138360001Y-81902797D01*
X138383761Y-81974499D01*
X138415186Y-82069335D01*
X138415187Y-82069337D01*
X138507286Y-82218651D01*
X138507289Y-82218655D01*
X138631344Y-82342710D01*
X138631348Y-82342713D01*
X138780662Y-82434812D01*
X138780664Y-82434813D01*
X138780666Y-82434814D01*
X138947203Y-82489999D01*
X139049992Y-82500500D01*
X139375500Y-82500500D01*
X139442539Y-82520185D01*
X139488294Y-82572989D01*
X139499500Y-82624500D01*
X139499500Y-94971499D01*
X139499341Y-94977779D01*
X139495631Y-95050935D01*
X139495631Y-95050936D01*
X139498070Y-95066857D01*
X139499500Y-95085633D01*
X139499500Y-96550743D01*
X139514925Y-96702439D01*
X139575837Y-96896579D01*
X139575844Y-96896594D01*
X139674589Y-97074499D01*
X139674592Y-97074504D01*
X139807132Y-97228893D01*
X139807134Y-97228895D01*
X139968037Y-97353445D01*
X139968038Y-97353445D01*
X139968042Y-97353448D01*
X140150729Y-97443060D01*
X140347715Y-97494063D01*
X140550936Y-97504369D01*
X140752071Y-97473556D01*
X140942887Y-97402886D01*
X141115571Y-97295252D01*
X141263053Y-97155059D01*
X141379295Y-96988049D01*
X141459540Y-96801058D01*
X141500500Y-96601741D01*
X141500500Y-96124500D01*
X141520185Y-96057461D01*
X141572989Y-96011706D01*
X141624500Y-96000500D01*
X149550743Y-96000500D01*
X149702439Y-95985074D01*
X149896579Y-95924162D01*
X149896580Y-95924161D01*
X149896588Y-95924159D01*
X150074502Y-95825409D01*
X150228895Y-95692866D01*
X150340255Y-95549002D01*
X150353445Y-95531962D01*
X150353445Y-95531961D01*
X150353448Y-95531958D01*
X150443060Y-95349271D01*
X150494063Y-95152285D01*
X150504369Y-94949064D01*
X150473556Y-94747929D01*
X150423127Y-94611766D01*
X150402888Y-94557118D01*
X150402887Y-94557117D01*
X150402886Y-94557113D01*
X150295252Y-94384429D01*
X150155059Y-94236947D01*
X150030134Y-94149997D01*
X149988050Y-94120705D01*
X149801056Y-94040459D01*
X149601741Y-93999500D01*
X141624500Y-93999500D01*
X141557461Y-93979815D01*
X141511706Y-93927011D01*
X141500500Y-93875500D01*
X141500500Y-82624500D01*
X141520185Y-82557461D01*
X141572989Y-82511706D01*
X141624500Y-82500500D01*
X141950003Y-82500500D01*
X141950008Y-82500500D01*
X142052797Y-82489999D01*
X142219334Y-82434814D01*
X142368655Y-82342711D01*
X142492711Y-82218655D01*
X142584814Y-82069334D01*
X142639999Y-81902797D01*
X142650500Y-81800008D01*
X142650500Y-79499992D01*
X142639999Y-79397203D01*
X142584814Y-79230666D01*
X142564327Y-79197452D01*
X142492713Y-79081348D01*
X142492710Y-79081344D01*
X142368655Y-78957289D01*
X142368651Y-78957286D01*
X142219337Y-78865187D01*
X142219335Y-78865186D01*
X142136065Y-78837593D01*
X142052797Y-78810001D01*
X142052795Y-78810000D01*
X141950015Y-78799500D01*
X141950008Y-78799500D01*
X139049992Y-78799500D01*
X139049984Y-78799500D01*
X138947204Y-78810000D01*
X138947203Y-78810001D01*
X138780664Y-78865186D01*
X138780662Y-78865187D01*
X138631348Y-78957286D01*
X138631344Y-78957289D01*
X138507289Y-79081344D01*
X138507286Y-79081348D01*
X138415187Y-79230662D01*
X138415186Y-79230664D01*
X138360001Y-79397203D01*
X138360000Y-79397204D01*
X138349500Y-79499984D01*
X138349500Y-81800015D01*
X131385225Y-81800015D01*
X131385225Y-76517763D01*
X132845787Y-76517763D01*
X132875413Y-76787013D01*
X132875415Y-76787024D01*
X132943926Y-77049082D01*
X132943928Y-77049088D01*
X133049870Y-77298390D01*
X133173985Y-77501759D01*
X133190979Y-77529605D01*
X133190986Y-77529615D01*
X133364253Y-77737819D01*
X133364259Y-77737824D01*
X133565998Y-77918582D01*
X133791910Y-78068044D01*
X134037176Y-78183020D01*
X134037183Y-78183022D01*
X134037185Y-78183023D01*
X134296557Y-78261057D01*
X134296564Y-78261058D01*
X134296569Y-78261060D01*
X134564561Y-78300500D01*
X134564566Y-78300500D01*
X135367629Y-78300500D01*
X135367631Y-78300500D01*
X135367636Y-78300499D01*
X135367648Y-78300499D01*
X135405191Y-78297750D01*
X135570156Y-78285677D01*
X135682758Y-78260593D01*
X135834546Y-78226782D01*
X135834548Y-78226781D01*
X135834553Y-78226780D01*
X136087558Y-78130014D01*
X136323777Y-77997441D01*
X136538177Y-77831888D01*
X136726186Y-77636881D01*
X136883799Y-77416579D01*
X136975900Y-77237441D01*
X137007649Y-77175690D01*
X137007651Y-77175684D01*
X137007656Y-77175675D01*
X137095118Y-76919305D01*
X137144319Y-76652933D01*
X137149259Y-76517763D01*
X138345787Y-76517763D01*
X138375413Y-76787013D01*
X138375415Y-76787024D01*
X138443926Y-77049082D01*
X138443928Y-77049088D01*
X138549870Y-77298390D01*
X138673985Y-77501759D01*
X138690979Y-77529605D01*
X138690986Y-77529615D01*
X138864253Y-77737819D01*
X138864259Y-77737824D01*
X139065998Y-77918582D01*
X139291910Y-78068044D01*
X139537176Y-78183020D01*
X139537183Y-78183022D01*
X139537185Y-78183023D01*
X139796557Y-78261057D01*
X139796564Y-78261058D01*
X139796569Y-78261060D01*
X140064561Y-78300500D01*
X140064566Y-78300500D01*
X140867629Y-78300500D01*
X140867631Y-78300500D01*
X140867636Y-78300499D01*
X140867648Y-78300499D01*
X140905191Y-78297750D01*
X141070156Y-78285677D01*
X141182758Y-78260593D01*
X141334546Y-78226782D01*
X141334548Y-78226781D01*
X141334553Y-78226780D01*
X141587558Y-78130014D01*
X141823777Y-77997441D01*
X142038177Y-77831888D01*
X142226186Y-77636881D01*
X142383799Y-77416579D01*
X142400278Y-77384525D01*
X142448437Y-77333904D01*
X142516318Y-77317355D01*
X142582371Y-77340132D01*
X142598239Y-77353540D01*
X145305271Y-80060572D01*
X145310391Y-80066010D01*
X145340282Y-80099750D01*
X145348772Y-80109333D01*
X145396390Y-80142201D01*
X145402424Y-80146641D01*
X145447971Y-80182326D01*
X145456515Y-80186171D01*
X145476067Y-80197198D01*
X145483774Y-80202518D01*
X145483778Y-80202519D01*
X145483779Y-80202520D01*
X145537883Y-80223040D01*
X145544798Y-80225903D01*
X145597561Y-80249650D01*
X145606776Y-80251338D01*
X145628389Y-80257363D01*
X145637155Y-80260688D01*
X145694617Y-80267665D01*
X145701977Y-80268784D01*
X145758915Y-80279219D01*
X145758916Y-80279218D01*
X145758917Y-80279219D01*
X145804106Y-80276485D01*
X145816665Y-80275725D01*
X145824151Y-80275500D01*
X147375501Y-80275500D01*
X147442540Y-80295185D01*
X147488295Y-80347989D01*
X147499501Y-80399500D01*
X147499501Y-81397876D01*
X147505908Y-81457483D01*
X147556202Y-81592328D01*
X147556206Y-81592335D01*
X147642452Y-81707544D01*
X147642455Y-81707547D01*
X147757664Y-81793793D01*
X147757671Y-81793797D01*
X147787233Y-81804823D01*
X147843167Y-81846694D01*
X147867584Y-81912158D01*
X147852733Y-81980431D01*
X147844428Y-81992255D01*
X147844928Y-81992600D01*
X147807800Y-82046387D01*
X147803363Y-82052417D01*
X147767674Y-82097970D01*
X147763824Y-82106525D01*
X147752808Y-82126056D01*
X147747484Y-82133770D01*
X147747482Y-82133774D01*
X147726965Y-82187869D01*
X147724102Y-82194781D01*
X147700350Y-82247560D01*
X147698661Y-82256777D01*
X147692639Y-82278381D01*
X147689311Y-82287155D01*
X147682334Y-82344613D01*
X147681207Y-82352011D01*
X147670781Y-82408908D01*
X147670781Y-82408915D01*
X147674274Y-82466663D01*
X147674500Y-82474150D01*
X147674500Y-82598125D01*
X147654815Y-82665164D01*
X147638182Y-82685806D01*
X147552029Y-82771959D01*
X147463001Y-82916294D01*
X147462996Y-82916305D01*
X147409651Y-83077290D01*
X147399500Y-83176647D01*
X147399500Y-84023337D01*
X147399501Y-84023355D01*
X147409650Y-84122707D01*
X147409651Y-84122710D01*
X147462996Y-84283694D01*
X147463001Y-84283705D01*
X147552029Y-84428040D01*
X147552032Y-84428044D01*
X147671955Y-84547967D01*
X147671959Y-84547970D01*
X147816294Y-84636998D01*
X147816297Y-84636999D01*
X147816303Y-84637003D01*
X147977292Y-84690349D01*
X148076655Y-84700500D01*
X148623344Y-84700499D01*
X148623352Y-84700498D01*
X148623355Y-84700498D01*
X148684597Y-84694242D01*
X148722708Y-84690349D01*
X148883697Y-84637003D01*
X149028044Y-84547968D01*
X149147968Y-84428044D01*
X149237003Y-84283697D01*
X149290349Y-84122708D01*
X149300500Y-84023345D01*
X149300499Y-83176656D01*
X149292642Y-83099744D01*
X149290349Y-83077292D01*
X149290348Y-83077289D01*
X149262936Y-82994564D01*
X149237003Y-82916303D01*
X149236999Y-82916297D01*
X149236998Y-82916294D01*
X149147970Y-82771959D01*
X149143721Y-82766585D01*
X149117580Y-82701789D01*
X149130621Y-82633147D01*
X149153302Y-82601997D01*
X149435595Y-82319705D01*
X149441016Y-82314602D01*
X149484332Y-82276229D01*
X149517211Y-82228593D01*
X149521628Y-82222590D01*
X149557325Y-82177028D01*
X149561169Y-82168485D01*
X149572197Y-82148932D01*
X149577518Y-82141226D01*
X149598049Y-82087087D01*
X149600888Y-82080233D01*
X149624650Y-82027439D01*
X149626338Y-82018221D01*
X149632366Y-81996603D01*
X149635688Y-81987845D01*
X149639123Y-81959553D01*
X149666744Y-81895376D01*
X149724677Y-81856319D01*
X149762219Y-81850499D01*
X149997871Y-81850499D01*
X149997872Y-81850499D01*
X150057483Y-81844091D01*
X150192331Y-81793796D01*
X150237689Y-81759840D01*
X150303152Y-81735423D01*
X150355333Y-81742925D01*
X150492517Y-81794091D01*
X150492516Y-81794091D01*
X150499444Y-81794835D01*
X150552127Y-81800500D01*
X151447872Y-81800499D01*
X151507483Y-81794091D01*
X151642331Y-81743796D01*
X151642335Y-81743792D01*
X151644664Y-81742924D01*
X151714355Y-81737940D01*
X151762309Y-81759839D01*
X151805208Y-81791954D01*
X151807668Y-81793795D01*
X151807671Y-81793797D01*
X151825643Y-81800500D01*
X151942517Y-81844091D01*
X152002127Y-81850500D01*
X152273501Y-81850499D01*
X152340539Y-81870183D01*
X152386294Y-81922987D01*
X152397500Y-81974499D01*
X152397500Y-84263718D01*
X152377815Y-84330757D01*
X152361181Y-84351399D01*
X151864952Y-84847627D01*
X151852665Y-84857473D01*
X151852845Y-84857691D01*
X151846832Y-84862664D01*
X151845571Y-84864008D01*
X151818309Y-84885848D01*
X151698135Y-84956919D01*
X151698129Y-84956923D01*
X151581923Y-85073129D01*
X151581917Y-85073137D01*
X151498255Y-85214603D01*
X151498254Y-85214606D01*
X151452402Y-85372426D01*
X151452401Y-85372432D01*
X151449500Y-85409298D01*
X151449500Y-86715701D01*
X151452401Y-86752567D01*
X151452402Y-86752573D01*
X151498254Y-86910393D01*
X151498255Y-86910396D01*
X151498256Y-86910398D01*
X151581919Y-87051865D01*
X151586178Y-87056124D01*
X151619665Y-87117444D01*
X151622500Y-87143808D01*
X151622500Y-89227032D01*
X151620772Y-89242681D01*
X151621054Y-89242708D01*
X151620319Y-89250475D01*
X151622439Y-89317917D01*
X151622500Y-89321811D01*
X151622500Y-89349476D01*
X151623006Y-89353485D01*
X151623921Y-89365116D01*
X151625298Y-89408942D01*
X151630916Y-89428275D01*
X151634862Y-89447329D01*
X151637383Y-89467287D01*
X151637386Y-89467299D01*
X151653519Y-89508048D01*
X151657302Y-89519098D01*
X151669530Y-89561187D01*
X151669530Y-89561188D01*
X151679777Y-89578515D01*
X151688335Y-89595985D01*
X151695745Y-89614701D01*
X151721511Y-89650164D01*
X151727925Y-89659929D01*
X151750234Y-89697652D01*
X151750240Y-89697660D01*
X151764469Y-89711888D01*
X151777106Y-89726684D01*
X151788937Y-89742967D01*
X151822717Y-89770912D01*
X151831346Y-89778765D01*
X151883181Y-89830600D01*
X151916666Y-89891923D01*
X151919500Y-89918280D01*
X151919500Y-89999168D01*
X151919501Y-89999192D01*
X151922335Y-90035205D01*
X151967129Y-90189388D01*
X151967131Y-90189393D01*
X152048863Y-90327595D01*
X152048869Y-90327603D01*
X152087231Y-90365965D01*
X152120716Y-90427288D01*
X152115732Y-90496980D01*
X152106283Y-90516766D01*
X152027130Y-90650608D01*
X152027129Y-90650611D01*
X151982335Y-90804791D01*
X151982334Y-90804797D01*
X151979500Y-90840811D01*
X151979500Y-91239169D01*
X151979501Y-91239191D01*
X151982335Y-91275205D01*
X152027129Y-91429388D01*
X152027132Y-91429395D01*
X152061128Y-91486881D01*
X152078309Y-91554605D01*
X152061128Y-91613119D01*
X152027132Y-91670604D01*
X152027129Y-91670611D01*
X151982335Y-91824791D01*
X151982334Y-91824797D01*
X151979500Y-91860811D01*
X151979500Y-92259169D01*
X151979501Y-92259191D01*
X151982335Y-92295205D01*
X152027129Y-92449388D01*
X152027131Y-92449393D01*
X152105944Y-92582660D01*
X152108865Y-92587598D01*
X152136181Y-92614914D01*
X152169666Y-92676235D01*
X152172500Y-92702595D01*
X152172500Y-92717032D01*
X152170772Y-92732681D01*
X152171054Y-92732708D01*
X152170319Y-92740475D01*
X152172439Y-92807917D01*
X152172500Y-92811811D01*
X152172500Y-92839476D01*
X152173006Y-92843485D01*
X152173921Y-92855116D01*
X152175298Y-92898942D01*
X152180916Y-92918275D01*
X152184862Y-92937329D01*
X152187383Y-92957287D01*
X152187386Y-92957299D01*
X152203519Y-92998048D01*
X152207302Y-93009098D01*
X152219530Y-93051187D01*
X152219530Y-93051188D01*
X152229777Y-93068515D01*
X152238335Y-93085985D01*
X152245745Y-93104701D01*
X152271511Y-93140164D01*
X152277925Y-93149929D01*
X152300234Y-93187652D01*
X152300240Y-93187660D01*
X152314469Y-93201888D01*
X152327106Y-93216684D01*
X152338937Y-93232967D01*
X152372717Y-93260912D01*
X152381346Y-93268765D01*
X152611181Y-93498600D01*
X152644666Y-93559923D01*
X152647500Y-93586281D01*
X152647500Y-93654648D01*
X152638061Y-93702100D01*
X152589957Y-93818234D01*
X152589955Y-93818239D01*
X152574501Y-93935629D01*
X152574500Y-93935645D01*
X152574500Y-95439363D01*
X152589953Y-95556753D01*
X152589956Y-95556762D01*
X152646332Y-95692867D01*
X152650464Y-95702841D01*
X152746718Y-95828282D01*
X152872159Y-95924536D01*
X153018238Y-95985044D01*
X153135639Y-96000500D01*
X153414360Y-96000499D01*
X153414361Y-96000499D01*
X153426594Y-95998888D01*
X153531762Y-95985044D01*
X153552545Y-95976434D01*
X153622014Y-95968965D01*
X153647453Y-95976434D01*
X153668238Y-95985044D01*
X153785639Y-96000500D01*
X154064360Y-96000499D01*
X154064361Y-96000499D01*
X154076594Y-95998888D01*
X154181762Y-95985044D01*
X154202545Y-95976434D01*
X154272014Y-95968965D01*
X154297453Y-95976434D01*
X154318238Y-95985044D01*
X154435639Y-96000500D01*
X154714360Y-96000499D01*
X154714363Y-96000499D01*
X154831753Y-95985046D01*
X154831757Y-95985044D01*
X154831762Y-95985044D01*
X154977841Y-95924536D01*
X154991053Y-95914398D01*
X155056216Y-95889203D01*
X155124662Y-95903239D01*
X155174654Y-95952051D01*
X155190157Y-96003043D01*
X155192356Y-96030992D01*
X155192357Y-96030997D01*
X155237504Y-96186390D01*
X155237505Y-96186393D01*
X155237506Y-96186395D01*
X155274357Y-96248707D01*
X155319881Y-96325684D01*
X155319887Y-96325692D01*
X155434307Y-96440112D01*
X155434311Y-96440115D01*
X155434313Y-96440117D01*
X155573605Y-96522494D01*
X155578961Y-96524050D01*
X155597456Y-96529424D01*
X155656342Y-96567030D01*
X155685548Y-96630503D01*
X155675802Y-96699689D01*
X155630198Y-96752624D01*
X155563215Y-96772499D01*
X155562861Y-96772500D01*
X155311282Y-96772500D01*
X155244243Y-96752815D01*
X155223601Y-96736181D01*
X155215797Y-96728377D01*
X155212607Y-96725903D01*
X155203716Y-96718310D01*
X155171768Y-96688308D01*
X155171763Y-96688304D01*
X155154122Y-96678606D01*
X155137857Y-96667922D01*
X155121963Y-96655593D01*
X155121962Y-96655592D01*
X155090370Y-96641921D01*
X155081735Y-96638184D01*
X155071247Y-96633045D01*
X155032838Y-96611929D01*
X155032828Y-96611926D01*
X155013334Y-96606920D01*
X154994933Y-96600620D01*
X154976459Y-96592626D01*
X154976452Y-96592624D01*
X154933173Y-96585770D01*
X154921733Y-96583401D01*
X154879279Y-96572500D01*
X154879272Y-96572500D01*
X154859142Y-96572500D01*
X154839743Y-96570973D01*
X154819868Y-96567825D01*
X154819867Y-96567825D01*
X154776230Y-96571950D01*
X154764561Y-96572500D01*
X152882965Y-96572500D01*
X152867314Y-96570772D01*
X152867288Y-96571054D01*
X152859525Y-96570319D01*
X152792095Y-96572439D01*
X152788200Y-96572500D01*
X152760519Y-96572500D01*
X152756501Y-96573007D01*
X152744874Y-96573922D01*
X152701058Y-96575299D01*
X152701054Y-96575300D01*
X152681722Y-96580916D01*
X152662682Y-96584859D01*
X152642712Y-96587382D01*
X152642708Y-96587383D01*
X152601953Y-96603519D01*
X152590905Y-96607301D01*
X152548812Y-96619530D01*
X152548805Y-96619533D01*
X152531480Y-96629779D01*
X152514010Y-96638337D01*
X152495298Y-96645745D01*
X152459826Y-96671516D01*
X152450066Y-96677927D01*
X152412346Y-96700234D01*
X152398106Y-96714474D01*
X152383320Y-96727102D01*
X152367033Y-96738936D01*
X152339090Y-96772712D01*
X152331229Y-96781350D01*
X152239953Y-96872626D01*
X152227669Y-96882469D01*
X152227849Y-96882687D01*
X152221837Y-96887660D01*
X152175646Y-96936847D01*
X152172941Y-96939638D01*
X152153379Y-96959200D01*
X152153375Y-96959205D01*
X152150895Y-96962403D01*
X152143317Y-96971274D01*
X152113308Y-97003230D01*
X152113305Y-97003234D01*
X152103606Y-97020877D01*
X152092928Y-97037133D01*
X152080594Y-97053034D01*
X152080589Y-97053042D01*
X152063185Y-97093262D01*
X152058046Y-97103752D01*
X152036927Y-97142167D01*
X152031920Y-97161668D01*
X152025621Y-97180064D01*
X152018893Y-97195612D01*
X152017625Y-97198544D01*
X152017624Y-97198546D01*
X152010769Y-97241831D01*
X152008401Y-97253267D01*
X151997500Y-97295723D01*
X151997500Y-97315858D01*
X151995973Y-97335257D01*
X151992825Y-97355131D01*
X151996950Y-97398767D01*
X151997500Y-97410437D01*
X151997500Y-97879648D01*
X151988061Y-97927100D01*
X151939957Y-98043234D01*
X151939955Y-98043239D01*
X151924501Y-98160629D01*
X151924500Y-98160645D01*
X151924500Y-99664363D01*
X151939953Y-99781753D01*
X151939956Y-99781762D01*
X152000464Y-99927841D01*
X152096718Y-100053282D01*
X152222159Y-100149536D01*
X152298366Y-100181102D01*
X152352769Y-100224941D01*
X152374834Y-100291235D01*
X152372496Y-100312862D01*
X152373478Y-100312986D01*
X152372500Y-100320729D01*
X152372500Y-100340858D01*
X152370973Y-100360255D01*
X152367825Y-100380133D01*
X152371950Y-100423767D01*
X152372500Y-100435437D01*
X152372500Y-100487404D01*
X152352815Y-100554443D01*
X152336181Y-100575085D01*
X152308869Y-100602396D01*
X152308863Y-100602404D01*
X152227131Y-100740606D01*
X152227129Y-100740611D01*
X152182335Y-100894791D01*
X152182334Y-100894797D01*
X152179500Y-100930811D01*
X152179500Y-101017547D01*
X152159815Y-101084586D01*
X152107011Y-101130341D01*
X152037853Y-101140285D01*
X152029720Y-101138838D01*
X151974885Y-101127183D01*
X151844646Y-101099500D01*
X151655354Y-101099500D01*
X151622897Y-101106398D01*
X151470197Y-101138855D01*
X151470192Y-101138857D01*
X151297270Y-101215848D01*
X151297265Y-101215851D01*
X151144129Y-101327111D01*
X151017466Y-101467785D01*
X150922821Y-101631715D01*
X150922818Y-101631722D01*
X150877520Y-101771136D01*
X150864326Y-101811744D01*
X150844540Y-102000000D01*
X150864326Y-102188256D01*
X150864327Y-102188259D01*
X150922818Y-102368277D01*
X150922821Y-102368284D01*
X151017467Y-102532216D01*
X151144129Y-102672888D01*
X151297265Y-102784148D01*
X151297270Y-102784151D01*
X151470192Y-102861142D01*
X151470197Y-102861144D01*
X151655354Y-102900500D01*
X151655355Y-102900500D01*
X151844644Y-102900500D01*
X151844646Y-102900500D01*
X152029803Y-102861144D01*
X152075850Y-102840642D01*
X152193590Y-102788221D01*
X152244026Y-102777500D01*
X152365424Y-102777500D01*
X152428545Y-102794768D01*
X152560607Y-102872869D01*
X152601268Y-102884682D01*
X152714791Y-102917664D01*
X152714794Y-102917664D01*
X152714796Y-102917665D01*
X152750819Y-102920500D01*
X153249180Y-102920499D01*
X153285204Y-102917665D01*
X153439393Y-102872869D01*
X153577598Y-102791135D01*
X153691135Y-102677598D01*
X153772869Y-102539393D01*
X153817665Y-102385204D01*
X153820500Y-102349181D01*
X153820499Y-102024346D01*
X153840183Y-101957308D01*
X153892987Y-101911553D01*
X153948384Y-101900639D01*
X153948384Y-101900500D01*
X153949089Y-101900499D01*
X153949379Y-101900443D01*
X153950787Y-101900497D01*
X153950819Y-101900500D01*
X154449180Y-101900499D01*
X154485204Y-101897665D01*
X154639393Y-101852869D01*
X154777598Y-101771135D01*
X154891135Y-101657598D01*
X154972869Y-101519393D01*
X155017665Y-101365204D01*
X155020500Y-101329181D01*
X155020499Y-100930820D01*
X155017665Y-100894796D01*
X154972869Y-100740607D01*
X154891135Y-100602402D01*
X154891133Y-100602400D01*
X154891130Y-100602396D01*
X154859760Y-100571026D01*
X154826275Y-100509703D01*
X154824967Y-100502740D01*
X154824701Y-100501062D01*
X154824701Y-100501058D01*
X154819082Y-100481718D01*
X154815139Y-100462685D01*
X154812616Y-100442707D01*
X154796481Y-100401955D01*
X154792701Y-100390919D01*
X154780978Y-100350564D01*
X154781178Y-100280697D01*
X154819121Y-100222027D01*
X154852601Y-100201412D01*
X154977841Y-100149536D01*
X155103282Y-100053282D01*
X155199536Y-99927841D01*
X155260044Y-99781762D01*
X155275500Y-99664361D01*
X155275499Y-98605499D01*
X155295183Y-98538461D01*
X155347987Y-98492706D01*
X155399499Y-98481500D01*
X158063033Y-98481500D01*
X158078681Y-98483227D01*
X158078708Y-98482946D01*
X158086475Y-98483680D01*
X158086476Y-98483679D01*
X158086477Y-98483680D01*
X158153919Y-98481561D01*
X158157813Y-98481500D01*
X158185472Y-98481500D01*
X158185476Y-98481500D01*
X158189474Y-98480994D01*
X158201114Y-98480077D01*
X158244943Y-98478701D01*
X158264272Y-98473084D01*
X158283328Y-98469137D01*
X158303293Y-98466616D01*
X158344055Y-98450476D01*
X158355092Y-98446698D01*
X158397191Y-98434468D01*
X158414515Y-98424221D01*
X158431983Y-98415663D01*
X158450703Y-98408253D01*
X158486177Y-98382478D01*
X158495915Y-98376081D01*
X158533656Y-98353763D01*
X158547897Y-98339520D01*
X158562678Y-98326897D01*
X158578967Y-98315063D01*
X158606904Y-98281290D01*
X158614756Y-98272661D01*
X159823601Y-97063818D01*
X159884924Y-97030333D01*
X159911282Y-97027499D01*
X162339474Y-97027499D01*
X162339476Y-97027499D01*
X162339481Y-97027498D01*
X162339485Y-97027498D01*
X162351097Y-97026030D01*
X162457293Y-97012615D01*
X162604703Y-96954252D01*
X162732967Y-96861062D01*
X162834026Y-96738902D01*
X162834029Y-96738894D01*
X162838205Y-96732317D01*
X162840905Y-96734030D01*
X162877425Y-96692780D01*
X162919158Y-96676186D01*
X162949748Y-96670101D01*
X162991922Y-96641921D01*
X163020102Y-96599747D01*
X163027500Y-96562557D01*
X163027500Y-96237441D01*
X163020102Y-96200251D01*
X163020100Y-96200248D01*
X163018943Y-96197454D01*
X163018234Y-96190863D01*
X163017719Y-96188274D01*
X163017950Y-96188227D01*
X163011471Y-96127985D01*
X163018944Y-96102537D01*
X163020098Y-96099748D01*
X163020102Y-96099744D01*
X163027500Y-96062554D01*
X163027500Y-95737438D01*
X163020102Y-95700248D01*
X163020099Y-95700244D01*
X163018943Y-95697452D01*
X163018234Y-95690861D01*
X163017719Y-95688271D01*
X163017950Y-95688224D01*
X163011473Y-95627983D01*
X163018943Y-95602540D01*
X163020098Y-95599748D01*
X163020102Y-95599744D01*
X163027500Y-95562554D01*
X163027500Y-95237438D01*
X163020102Y-95200248D01*
X163020099Y-95200244D01*
X163018943Y-95197452D01*
X163018234Y-95190861D01*
X163017719Y-95188271D01*
X163017950Y-95188224D01*
X163011473Y-95127983D01*
X163018943Y-95102540D01*
X163020098Y-95099748D01*
X163020102Y-95099744D01*
X163027500Y-95062554D01*
X163027500Y-94737438D01*
X163020102Y-94700248D01*
X163020099Y-94700244D01*
X163018943Y-94697452D01*
X163018234Y-94690861D01*
X163017719Y-94688271D01*
X163017950Y-94688224D01*
X163011473Y-94627983D01*
X163018943Y-94602540D01*
X163020098Y-94599748D01*
X163020102Y-94599744D01*
X163027500Y-94562554D01*
X163027500Y-94237438D01*
X163027402Y-94236947D01*
X163020101Y-94200244D01*
X163018943Y-94197449D01*
X163018235Y-94190865D01*
X163017719Y-94188271D01*
X163017951Y-94188224D01*
X163011474Y-94127979D01*
X163018944Y-94102542D01*
X163020099Y-94099750D01*
X163020102Y-94099747D01*
X163027500Y-94062557D01*
X163027500Y-93737441D01*
X163027458Y-93737232D01*
X163025920Y-93729500D01*
X163020102Y-93700251D01*
X163020100Y-93700248D01*
X163018943Y-93697454D01*
X163018234Y-93690863D01*
X163017719Y-93688274D01*
X163017950Y-93688227D01*
X163011471Y-93627985D01*
X163018944Y-93602537D01*
X163020098Y-93599748D01*
X163020102Y-93599744D01*
X163027500Y-93562554D01*
X163027500Y-93237438D01*
X163027361Y-93236741D01*
X163020102Y-93200250D01*
X163020102Y-93200248D01*
X163020099Y-93200244D01*
X163018943Y-93197452D01*
X163018234Y-93190861D01*
X163017719Y-93188271D01*
X163017950Y-93188224D01*
X163011473Y-93127983D01*
X163018943Y-93102540D01*
X163020098Y-93099748D01*
X163020102Y-93099744D01*
X163027500Y-93062554D01*
X163027500Y-92737438D01*
X163026164Y-92730724D01*
X163020102Y-92700250D01*
X163020102Y-92700248D01*
X163020099Y-92700244D01*
X163018943Y-92697452D01*
X163018234Y-92690861D01*
X163017719Y-92688271D01*
X163017950Y-92688224D01*
X163011473Y-92627983D01*
X163018943Y-92602540D01*
X163020098Y-92599748D01*
X163020102Y-92599744D01*
X163027500Y-92562554D01*
X163027500Y-92237438D01*
X163020102Y-92200248D01*
X163020099Y-92200244D01*
X163018943Y-92197452D01*
X163018234Y-92190861D01*
X163017719Y-92188271D01*
X163017950Y-92188224D01*
X163011473Y-92127983D01*
X163018943Y-92102540D01*
X163020098Y-92099748D01*
X163020102Y-92099744D01*
X163027500Y-92062554D01*
X163027500Y-91737438D01*
X163020102Y-91700248D01*
X163020101Y-91700247D01*
X163020101Y-91700244D01*
X163018943Y-91697449D01*
X163018235Y-91690865D01*
X163017719Y-91688271D01*
X163017951Y-91688224D01*
X163011474Y-91627979D01*
X163018944Y-91602542D01*
X163020099Y-91599750D01*
X163020102Y-91599747D01*
X163027500Y-91562557D01*
X163027500Y-91237441D01*
X163020102Y-91200251D01*
X163020100Y-91200248D01*
X163018943Y-91197454D01*
X163018234Y-91190863D01*
X163017719Y-91188274D01*
X163017950Y-91188227D01*
X163011471Y-91127985D01*
X163018944Y-91102537D01*
X163020098Y-91099748D01*
X163020102Y-91099744D01*
X163027500Y-91062554D01*
X163027500Y-90737438D01*
X163020102Y-90700248D01*
X163020099Y-90700244D01*
X163018943Y-90697452D01*
X163018234Y-90690861D01*
X163017719Y-90688271D01*
X163017950Y-90688224D01*
X163011473Y-90627983D01*
X163018943Y-90602540D01*
X163020098Y-90599748D01*
X163020102Y-90599744D01*
X163027500Y-90562554D01*
X163027500Y-90237438D01*
X163020102Y-90200248D01*
X163020099Y-90200244D01*
X163018943Y-90197452D01*
X163018234Y-90190861D01*
X163017719Y-90188271D01*
X163017950Y-90188224D01*
X163011473Y-90127983D01*
X163018943Y-90102540D01*
X163020098Y-90099748D01*
X163020102Y-90099744D01*
X163027500Y-90062554D01*
X163027500Y-89737438D01*
X163020102Y-89700248D01*
X163020099Y-89700244D01*
X163018943Y-89697452D01*
X163018234Y-89690861D01*
X163017719Y-89688271D01*
X163017950Y-89688224D01*
X163011473Y-89627983D01*
X163018943Y-89602540D01*
X163020098Y-89599748D01*
X163020102Y-89599744D01*
X163027500Y-89562554D01*
X163027500Y-89237438D01*
X163020102Y-89200248D01*
X163020099Y-89200244D01*
X163018943Y-89197452D01*
X163018234Y-89190861D01*
X163017719Y-89188271D01*
X163017950Y-89188224D01*
X163011473Y-89127983D01*
X163018943Y-89102540D01*
X163020098Y-89099748D01*
X163020102Y-89099744D01*
X163027500Y-89062554D01*
X163027500Y-88737438D01*
X163020102Y-88700248D01*
X163020099Y-88700244D01*
X163018943Y-88697452D01*
X163018234Y-88690861D01*
X163017719Y-88688271D01*
X163017950Y-88688224D01*
X163011473Y-88627983D01*
X163018943Y-88602540D01*
X163020098Y-88599748D01*
X163020102Y-88599744D01*
X163027500Y-88562554D01*
X163027500Y-88237438D01*
X163020102Y-88200248D01*
X163020099Y-88200244D01*
X163018943Y-88197452D01*
X163018234Y-88190861D01*
X163017719Y-88188271D01*
X163017950Y-88188224D01*
X163011473Y-88127983D01*
X163018943Y-88102540D01*
X163020098Y-88099748D01*
X163020102Y-88099744D01*
X163027500Y-88062554D01*
X163027500Y-87737438D01*
X163020102Y-87700248D01*
X163020099Y-87700244D01*
X163018943Y-87697452D01*
X163018234Y-87690861D01*
X163017719Y-87688271D01*
X163017950Y-87688224D01*
X163011473Y-87627983D01*
X163018943Y-87602540D01*
X163020098Y-87599748D01*
X163020102Y-87599744D01*
X163027500Y-87562554D01*
X163027500Y-87237438D01*
X163020102Y-87200248D01*
X163020099Y-87200244D01*
X163018943Y-87197452D01*
X163018234Y-87190861D01*
X163017719Y-87188271D01*
X163017950Y-87188224D01*
X163011473Y-87127983D01*
X163018943Y-87102540D01*
X163020098Y-87099748D01*
X163020102Y-87099744D01*
X163027500Y-87062554D01*
X163027500Y-86737438D01*
X163020102Y-86700248D01*
X163020099Y-86700244D01*
X163018943Y-86697452D01*
X163018234Y-86690861D01*
X163017719Y-86688271D01*
X163017950Y-86688224D01*
X163011473Y-86627983D01*
X163018943Y-86602540D01*
X163020098Y-86599748D01*
X163020102Y-86599744D01*
X163027500Y-86562554D01*
X163027500Y-86237438D01*
X163020102Y-86200248D01*
X163020099Y-86200244D01*
X163018943Y-86197452D01*
X163018234Y-86190861D01*
X163017719Y-86188271D01*
X163017950Y-86188224D01*
X163011473Y-86127983D01*
X163018943Y-86102540D01*
X163020098Y-86099748D01*
X163020102Y-86099744D01*
X163027500Y-86062554D01*
X163027500Y-85737438D01*
X163020102Y-85700248D01*
X163020099Y-85700244D01*
X163018943Y-85697452D01*
X163018234Y-85690861D01*
X163017719Y-85688271D01*
X163017950Y-85688224D01*
X163011473Y-85627983D01*
X163018943Y-85602540D01*
X163020098Y-85599748D01*
X163020102Y-85599744D01*
X163027500Y-85562554D01*
X163027500Y-85237438D01*
X163020102Y-85200248D01*
X163020099Y-85200244D01*
X163018943Y-85197452D01*
X163018234Y-85190861D01*
X163017719Y-85188271D01*
X163017950Y-85188224D01*
X163011473Y-85127983D01*
X163018943Y-85102540D01*
X163020098Y-85099748D01*
X163020102Y-85099744D01*
X163027500Y-85062554D01*
X163027500Y-84737438D01*
X163020102Y-84700248D01*
X163020099Y-84700244D01*
X163018943Y-84697452D01*
X163018234Y-84690861D01*
X163017719Y-84688271D01*
X163017950Y-84688224D01*
X163011473Y-84627983D01*
X163018943Y-84602540D01*
X163020098Y-84599748D01*
X163020102Y-84599744D01*
X163027500Y-84562554D01*
X163027500Y-84237438D01*
X163020102Y-84200248D01*
X163020099Y-84200244D01*
X163018943Y-84197452D01*
X163018234Y-84190861D01*
X163017719Y-84188271D01*
X163017950Y-84188224D01*
X163011473Y-84127983D01*
X163018943Y-84102540D01*
X163020098Y-84099748D01*
X163020102Y-84099744D01*
X163027500Y-84062554D01*
X163027500Y-83737438D01*
X163020102Y-83700248D01*
X163020099Y-83700244D01*
X163018943Y-83697452D01*
X163018234Y-83690861D01*
X163017719Y-83688271D01*
X163017950Y-83688224D01*
X163011473Y-83627983D01*
X163018943Y-83602540D01*
X163020098Y-83599748D01*
X163020102Y-83599744D01*
X163027500Y-83562554D01*
X163027500Y-83237438D01*
X163020102Y-83200248D01*
X163020099Y-83200244D01*
X163018943Y-83197452D01*
X163018234Y-83190861D01*
X163017719Y-83188271D01*
X163017950Y-83188224D01*
X163011473Y-83127983D01*
X163018943Y-83102540D01*
X163020098Y-83099748D01*
X163020102Y-83099744D01*
X163027500Y-83062554D01*
X163027500Y-82737438D01*
X163020102Y-82700248D01*
X163020101Y-82700247D01*
X163020101Y-82700244D01*
X163018943Y-82697449D01*
X163018235Y-82690865D01*
X163017719Y-82688271D01*
X163017951Y-82688224D01*
X163011474Y-82627979D01*
X163018944Y-82602542D01*
X163020099Y-82599750D01*
X163020102Y-82599747D01*
X163027500Y-82562557D01*
X163027500Y-82237441D01*
X163020102Y-82200251D01*
X163020100Y-82200248D01*
X163018943Y-82197454D01*
X163018234Y-82190863D01*
X163017719Y-82188274D01*
X163017950Y-82188227D01*
X163011471Y-82127985D01*
X163018944Y-82102537D01*
X163020098Y-82099748D01*
X163020102Y-82099744D01*
X163027500Y-82062554D01*
X163027500Y-81737438D01*
X163020102Y-81700248D01*
X163020099Y-81700244D01*
X163018943Y-81697452D01*
X163018234Y-81690861D01*
X163017719Y-81688271D01*
X163017950Y-81688224D01*
X163011473Y-81627983D01*
X163018943Y-81602540D01*
X163020098Y-81599748D01*
X163020102Y-81599744D01*
X163027500Y-81562554D01*
X163027500Y-81237438D01*
X163020102Y-81200248D01*
X163020099Y-81200244D01*
X163018943Y-81197452D01*
X163018234Y-81190861D01*
X163017719Y-81188271D01*
X163017950Y-81188224D01*
X163011473Y-81127983D01*
X163018943Y-81102540D01*
X163020098Y-81099748D01*
X163020102Y-81099744D01*
X163027500Y-81062554D01*
X163027500Y-80737438D01*
X163020102Y-80700248D01*
X163020099Y-80700244D01*
X163018943Y-80697452D01*
X163018234Y-80690861D01*
X163017719Y-80688271D01*
X163017950Y-80688224D01*
X163011473Y-80627983D01*
X163018943Y-80602540D01*
X163020098Y-80599748D01*
X163020102Y-80599744D01*
X163027500Y-80562554D01*
X163027500Y-80237438D01*
X163024899Y-80224365D01*
X163020554Y-80202520D01*
X163020102Y-80200248D01*
X163020101Y-80200247D01*
X163020101Y-80200244D01*
X163018943Y-80197449D01*
X163018235Y-80190865D01*
X163017719Y-80188271D01*
X163017951Y-80188224D01*
X163011474Y-80127979D01*
X163018944Y-80102542D01*
X163020099Y-80099750D01*
X163020102Y-80099747D01*
X163027500Y-80062557D01*
X163027500Y-79737441D01*
X163020102Y-79700251D01*
X163020100Y-79700248D01*
X163018943Y-79697454D01*
X163018234Y-79690863D01*
X163017719Y-79688274D01*
X163017950Y-79688227D01*
X163011471Y-79627985D01*
X163018944Y-79602537D01*
X163020098Y-79599748D01*
X163020102Y-79599744D01*
X163027500Y-79562554D01*
X163027500Y-79237438D01*
X163026152Y-79230664D01*
X163020102Y-79200250D01*
X163020102Y-79200248D01*
X163020099Y-79200244D01*
X163018943Y-79197452D01*
X163018234Y-79190861D01*
X163017719Y-79188271D01*
X163017950Y-79188224D01*
X163011473Y-79127983D01*
X163018943Y-79102540D01*
X163020098Y-79099748D01*
X163020102Y-79099744D01*
X163027500Y-79062554D01*
X163027500Y-78737438D01*
X163020102Y-78700248D01*
X163020099Y-78700244D01*
X163018943Y-78697452D01*
X163018234Y-78690861D01*
X163017719Y-78688271D01*
X163017950Y-78688224D01*
X163011473Y-78627983D01*
X163018943Y-78602540D01*
X163020098Y-78599748D01*
X163020102Y-78599744D01*
X163027500Y-78562554D01*
X163027500Y-78237438D01*
X163020102Y-78200248D01*
X163020099Y-78200244D01*
X163018943Y-78197452D01*
X163018234Y-78190861D01*
X163017719Y-78188271D01*
X163017950Y-78188224D01*
X163011473Y-78127983D01*
X163018943Y-78102540D01*
X163020098Y-78099748D01*
X163020102Y-78099744D01*
X163027500Y-78062554D01*
X163027500Y-77737438D01*
X163020102Y-77700248D01*
X163020101Y-77700247D01*
X163020101Y-77700244D01*
X163018943Y-77697449D01*
X163018235Y-77690865D01*
X163017719Y-77688271D01*
X163017951Y-77688224D01*
X163011474Y-77627979D01*
X163018944Y-77602542D01*
X163020099Y-77599750D01*
X163020102Y-77599747D01*
X163027500Y-77562557D01*
X163027500Y-77237441D01*
X163020102Y-77200251D01*
X163020100Y-77200248D01*
X163018943Y-77197454D01*
X163018234Y-77190863D01*
X163017719Y-77188274D01*
X163017950Y-77188227D01*
X163011471Y-77127985D01*
X163018944Y-77102537D01*
X163020098Y-77099748D01*
X163020102Y-77099744D01*
X163027500Y-77062554D01*
X163027500Y-76737438D01*
X163020102Y-76700248D01*
X163020099Y-76700244D01*
X163018943Y-76697452D01*
X163018234Y-76690861D01*
X163017719Y-76688271D01*
X163017950Y-76688224D01*
X163011473Y-76627983D01*
X163018943Y-76602540D01*
X163020098Y-76599748D01*
X163020102Y-76599744D01*
X163027500Y-76562554D01*
X163027500Y-76237438D01*
X163020102Y-76200248D01*
X163020099Y-76200244D01*
X163018943Y-76197452D01*
X163018234Y-76190861D01*
X163017719Y-76188271D01*
X163017950Y-76188224D01*
X163011473Y-76127983D01*
X163018943Y-76102540D01*
X163020098Y-76099748D01*
X163020102Y-76099744D01*
X163027500Y-76062554D01*
X163027500Y-75737438D01*
X163020102Y-75700248D01*
X163020099Y-75700244D01*
X163018943Y-75697452D01*
X163018234Y-75690861D01*
X163017719Y-75688271D01*
X163017950Y-75688224D01*
X163011473Y-75627983D01*
X163018943Y-75602540D01*
X163020098Y-75599748D01*
X163020102Y-75599744D01*
X163027500Y-75562554D01*
X163027500Y-75237438D01*
X163024899Y-75224365D01*
X163020554Y-75202520D01*
X163020102Y-75200248D01*
X163020101Y-75200247D01*
X163020101Y-75200244D01*
X163018943Y-75197449D01*
X163018235Y-75190865D01*
X163017719Y-75188271D01*
X163017951Y-75188224D01*
X163011474Y-75127979D01*
X163018944Y-75102542D01*
X163020099Y-75099750D01*
X163020102Y-75099747D01*
X163027500Y-75062557D01*
X163027500Y-74737441D01*
X163020102Y-74700251D01*
X163020100Y-74700248D01*
X163018943Y-74697454D01*
X163018234Y-74690863D01*
X163017719Y-74688274D01*
X163017950Y-74688227D01*
X163011471Y-74627985D01*
X163018944Y-74602537D01*
X163020098Y-74599748D01*
X163020102Y-74599744D01*
X163027500Y-74562554D01*
X163027500Y-74237438D01*
X163020102Y-74200248D01*
X163020101Y-74200246D01*
X162991922Y-74158073D01*
X162949749Y-74129894D01*
X162912559Y-74122496D01*
X162912558Y-74122496D01*
X161687442Y-74122496D01*
X161687441Y-74122496D01*
X161650250Y-74129894D01*
X161608077Y-74158073D01*
X161579898Y-74200246D01*
X161572500Y-74237437D01*
X161572500Y-74562554D01*
X161579898Y-74599744D01*
X161581058Y-74602544D01*
X161581766Y-74609135D01*
X161582281Y-74611721D01*
X161582049Y-74611767D01*
X161588527Y-74672013D01*
X161581059Y-74697447D01*
X161579898Y-74700247D01*
X161572500Y-74737440D01*
X161572500Y-75062557D01*
X161579899Y-75099750D01*
X161581058Y-75102549D01*
X161581765Y-75109133D01*
X161582281Y-75111724D01*
X161582049Y-75111770D01*
X161588524Y-75172019D01*
X161581059Y-75197442D01*
X161579899Y-75200241D01*
X161572500Y-75237437D01*
X161572500Y-75562554D01*
X161579898Y-75599745D01*
X161581059Y-75602547D01*
X161581767Y-75609140D01*
X161582281Y-75611721D01*
X161582049Y-75611766D01*
X161588525Y-75672017D01*
X161581059Y-75697445D01*
X161579898Y-75700246D01*
X161572500Y-75737437D01*
X161572500Y-76062554D01*
X161579898Y-76099745D01*
X161581059Y-76102547D01*
X161581767Y-76109140D01*
X161582281Y-76111721D01*
X161582049Y-76111766D01*
X161588525Y-76172017D01*
X161581059Y-76197445D01*
X161579898Y-76200246D01*
X161572500Y-76237437D01*
X161572500Y-76562554D01*
X161579898Y-76599745D01*
X161581059Y-76602547D01*
X161581767Y-76609140D01*
X161582281Y-76611721D01*
X161582049Y-76611766D01*
X161588525Y-76672017D01*
X161581059Y-76697445D01*
X161579898Y-76700246D01*
X161572500Y-76737437D01*
X161572500Y-77062554D01*
X161579898Y-77099744D01*
X161581058Y-77102544D01*
X161581766Y-77109135D01*
X161582281Y-77111721D01*
X161582049Y-77111767D01*
X161588527Y-77172013D01*
X161581059Y-77197447D01*
X161579898Y-77200247D01*
X161572500Y-77237440D01*
X161572500Y-77562557D01*
X161579899Y-77599750D01*
X161581058Y-77602549D01*
X161581765Y-77609133D01*
X161582281Y-77611724D01*
X161582049Y-77611770D01*
X161588524Y-77672019D01*
X161581059Y-77697442D01*
X161579899Y-77700241D01*
X161572500Y-77737437D01*
X161572500Y-78062554D01*
X161579898Y-78099745D01*
X161581059Y-78102547D01*
X161581767Y-78109140D01*
X161582281Y-78111721D01*
X161582049Y-78111766D01*
X161588525Y-78172017D01*
X161581059Y-78197445D01*
X161579898Y-78200246D01*
X161572500Y-78237437D01*
X161572500Y-78562554D01*
X161579898Y-78599745D01*
X161581059Y-78602547D01*
X161581767Y-78609140D01*
X161582281Y-78611721D01*
X161582049Y-78611766D01*
X161588525Y-78672017D01*
X161581059Y-78697445D01*
X161579898Y-78700246D01*
X161572500Y-78737437D01*
X161572500Y-79062554D01*
X161579898Y-79099745D01*
X161581059Y-79102547D01*
X161581767Y-79109140D01*
X161582281Y-79111721D01*
X161582049Y-79111766D01*
X161588525Y-79172017D01*
X161581059Y-79197445D01*
X161579898Y-79200246D01*
X161572500Y-79237437D01*
X161572500Y-79562554D01*
X161579898Y-79599744D01*
X161581058Y-79602544D01*
X161581766Y-79609135D01*
X161582281Y-79611721D01*
X161582049Y-79611767D01*
X161588527Y-79672013D01*
X161581059Y-79697447D01*
X161579898Y-79700247D01*
X161572500Y-79737440D01*
X161572500Y-80062557D01*
X161579899Y-80099750D01*
X161581058Y-80102549D01*
X161581765Y-80109133D01*
X161582281Y-80111724D01*
X161582049Y-80111770D01*
X161588524Y-80172019D01*
X161581059Y-80197442D01*
X161579899Y-80200241D01*
X161572500Y-80237437D01*
X161572500Y-80562554D01*
X161579898Y-80599745D01*
X161581059Y-80602547D01*
X161581767Y-80609140D01*
X161582281Y-80611721D01*
X161582049Y-80611766D01*
X161588525Y-80672017D01*
X161581059Y-80697445D01*
X161579898Y-80700246D01*
X161572500Y-80737437D01*
X161572500Y-81062554D01*
X161579898Y-81099745D01*
X161581059Y-81102547D01*
X161581767Y-81109140D01*
X161582281Y-81111721D01*
X161582049Y-81111766D01*
X161588525Y-81172017D01*
X161581059Y-81197445D01*
X161579898Y-81200246D01*
X161572500Y-81237437D01*
X161572500Y-81562554D01*
X161579898Y-81599745D01*
X161581059Y-81602547D01*
X161581767Y-81609140D01*
X161582281Y-81611721D01*
X161582049Y-81611766D01*
X161588525Y-81672017D01*
X161581059Y-81697445D01*
X161579898Y-81700246D01*
X161572500Y-81737437D01*
X161572500Y-82062554D01*
X161579898Y-82099744D01*
X161580437Y-82101045D01*
X161580765Y-82104105D01*
X161582281Y-82111721D01*
X161581599Y-82111856D01*
X161587904Y-82170514D01*
X161556629Y-82232993D01*
X161496539Y-82268645D01*
X161465875Y-82272496D01*
X157182971Y-82272496D01*
X157167322Y-82270768D01*
X157167296Y-82271050D01*
X157159528Y-82270315D01*
X157092086Y-82272435D01*
X157088192Y-82272496D01*
X157060527Y-82272496D01*
X157056518Y-82273002D01*
X157044888Y-82273917D01*
X157001064Y-82275294D01*
X157001058Y-82275295D01*
X156981723Y-82280912D01*
X156962684Y-82284855D01*
X156942719Y-82287378D01*
X156942705Y-82287381D01*
X156901954Y-82303515D01*
X156890909Y-82307297D01*
X156848811Y-82319528D01*
X156831488Y-82329773D01*
X156814019Y-82338331D01*
X156795304Y-82345741D01*
X156759842Y-82371505D01*
X156750081Y-82377916D01*
X156712351Y-82400229D01*
X156698110Y-82414470D01*
X156683324Y-82427098D01*
X156667037Y-82438932D01*
X156639094Y-82472708D01*
X156631233Y-82481346D01*
X156039181Y-83073399D01*
X155977858Y-83106884D01*
X155908167Y-83101900D01*
X155852233Y-83060029D01*
X155827816Y-82994564D01*
X155827500Y-82985718D01*
X155827500Y-75482964D01*
X155829228Y-75467313D01*
X155828946Y-75467287D01*
X155829680Y-75459524D01*
X155827561Y-75392081D01*
X155827500Y-75388187D01*
X155827500Y-75360530D01*
X155827500Y-75360524D01*
X155826993Y-75356519D01*
X155826077Y-75344871D01*
X155824701Y-75301057D01*
X155819084Y-75281727D01*
X155815138Y-75262668D01*
X155812617Y-75242711D01*
X155812616Y-75242708D01*
X155810529Y-75237438D01*
X155796481Y-75201955D01*
X155792698Y-75190907D01*
X155792666Y-75190796D01*
X155780468Y-75148809D01*
X155776560Y-75142201D01*
X155770225Y-75131489D01*
X155761662Y-75114011D01*
X155754253Y-75095297D01*
X155728485Y-75059832D01*
X155722073Y-75050069D01*
X155699765Y-75012347D01*
X155699759Y-75012339D01*
X155685531Y-74998112D01*
X155672896Y-74983320D01*
X155661063Y-74967033D01*
X155661060Y-74967031D01*
X155661060Y-74967030D01*
X155661058Y-74967028D01*
X155627287Y-74939090D01*
X155618647Y-74931228D01*
X154902376Y-74214957D01*
X154892531Y-74202668D01*
X154892313Y-74202849D01*
X154887340Y-74196838D01*
X154838153Y-74150648D01*
X154835354Y-74147935D01*
X154815797Y-74128377D01*
X154812607Y-74125903D01*
X154803716Y-74118310D01*
X154771768Y-74088308D01*
X154771763Y-74088304D01*
X154754122Y-74078606D01*
X154737857Y-74067922D01*
X154721963Y-74055593D01*
X154721962Y-74055592D01*
X154681735Y-74038184D01*
X154671247Y-74033045D01*
X154632838Y-74011929D01*
X154632828Y-74011926D01*
X154613334Y-74006920D01*
X154594930Y-74000619D01*
X154575253Y-73992104D01*
X154521545Y-73947413D01*
X154500524Y-73880781D01*
X154500499Y-73878302D01*
X154500499Y-72802129D01*
X154500498Y-72802123D01*
X154500497Y-72802116D01*
X154494091Y-72742517D01*
X154490924Y-72734027D01*
X154443797Y-72607671D01*
X154443793Y-72607664D01*
X154357547Y-72492455D01*
X154357544Y-72492452D01*
X154242335Y-72406206D01*
X154242328Y-72406202D01*
X154107482Y-72355908D01*
X154107483Y-72355908D01*
X154047883Y-72349501D01*
X154047881Y-72349500D01*
X154047873Y-72349500D01*
X154047864Y-72349500D01*
X152002129Y-72349500D01*
X152002123Y-72349501D01*
X151942516Y-72355908D01*
X151807671Y-72406202D01*
X151807664Y-72406206D01*
X151762309Y-72440159D01*
X151696845Y-72464576D01*
X151644666Y-72457074D01*
X151507482Y-72405908D01*
X151507483Y-72405908D01*
X151447883Y-72399501D01*
X151447881Y-72399500D01*
X151447873Y-72399500D01*
X151447864Y-72399500D01*
X150552129Y-72399500D01*
X150552123Y-72399501D01*
X150492515Y-72405909D01*
X150355332Y-72457074D01*
X150285641Y-72462058D01*
X150237689Y-72440159D01*
X150236573Y-72439323D01*
X150192331Y-72406204D01*
X150192329Y-72406203D01*
X150192328Y-72406202D01*
X150057482Y-72355908D01*
X150057483Y-72355908D01*
X149997883Y-72349501D01*
X149997881Y-72349500D01*
X149997873Y-72349500D01*
X149997865Y-72349500D01*
X149697517Y-72349500D01*
X149630478Y-72329815D01*
X149584723Y-72277011D01*
X149581576Y-72269474D01*
X149577518Y-72258774D01*
X149577514Y-72258768D01*
X149572198Y-72251066D01*
X149561171Y-72231515D01*
X149557326Y-72222971D01*
X149539329Y-72200000D01*
X159094540Y-72200000D01*
X159114326Y-72388256D01*
X159114327Y-72388259D01*
X159172818Y-72568277D01*
X159172821Y-72568284D01*
X159267467Y-72732216D01*
X159330423Y-72802135D01*
X159394129Y-72872888D01*
X159547265Y-72984148D01*
X159547270Y-72984151D01*
X159720192Y-73061142D01*
X159720197Y-73061144D01*
X159905354Y-73100500D01*
X159905355Y-73100500D01*
X160094644Y-73100500D01*
X160094646Y-73100500D01*
X160279803Y-73061144D01*
X160317344Y-73044429D01*
X160331298Y-73038217D01*
X160381734Y-73027496D01*
X162339474Y-73027496D01*
X162339476Y-73027496D01*
X162339481Y-73027495D01*
X162339485Y-73027495D01*
X162351097Y-73026027D01*
X162457293Y-73012612D01*
X162604703Y-72954249D01*
X162732967Y-72861059D01*
X162834026Y-72738899D01*
X162834029Y-72738891D01*
X162838205Y-72732314D01*
X162840905Y-72734027D01*
X162877425Y-72692777D01*
X162919158Y-72676183D01*
X162949748Y-72670098D01*
X162991922Y-72641918D01*
X163020102Y-72599744D01*
X163027500Y-72562554D01*
X163027500Y-72237438D01*
X163020102Y-72200248D01*
X163020099Y-72200244D01*
X163018943Y-72197452D01*
X163018234Y-72190861D01*
X163017719Y-72188271D01*
X163017950Y-72188224D01*
X163011473Y-72127983D01*
X163018943Y-72102540D01*
X163020098Y-72099748D01*
X163020102Y-72099744D01*
X163027500Y-72062554D01*
X163027500Y-71737438D01*
X163020102Y-71700248D01*
X163020101Y-71700246D01*
X162991922Y-71658073D01*
X162949747Y-71629893D01*
X162912575Y-71622498D01*
X162850666Y-71590111D01*
X162832074Y-71567324D01*
X162787342Y-71496837D01*
X162787341Y-71496836D01*
X162787340Y-71496834D01*
X162671767Y-71388303D01*
X162671764Y-71388301D01*
X162671761Y-71388299D01*
X162532837Y-71311925D01*
X162532827Y-71311922D01*
X162379275Y-71272496D01*
X162379272Y-71272496D01*
X160382971Y-71272496D01*
X160367322Y-71270768D01*
X160367296Y-71271050D01*
X160359528Y-71270315D01*
X160292086Y-71272435D01*
X160288192Y-71272496D01*
X160260527Y-71272496D01*
X160256518Y-71273002D01*
X160244888Y-71273917D01*
X160201064Y-71275294D01*
X160201058Y-71275295D01*
X160181723Y-71280912D01*
X160162684Y-71284855D01*
X160142713Y-71287379D01*
X160142711Y-71287379D01*
X160134093Y-71290792D01*
X160088445Y-71299500D01*
X159905354Y-71299500D01*
X159894002Y-71301913D01*
X159720197Y-71338855D01*
X159720192Y-71338857D01*
X159547270Y-71415848D01*
X159547265Y-71415851D01*
X159394129Y-71527111D01*
X159267466Y-71667785D01*
X159172821Y-71831715D01*
X159172818Y-71831722D01*
X159132270Y-71956518D01*
X159114326Y-72011744D01*
X159094540Y-72200000D01*
X149539329Y-72200000D01*
X149521641Y-72177424D01*
X149517201Y-72171390D01*
X149484333Y-72123772D01*
X149457211Y-72099744D01*
X149441010Y-72085391D01*
X149435572Y-72080271D01*
X149311819Y-71956518D01*
X149278334Y-71895195D01*
X149275500Y-71868837D01*
X149275500Y-71751874D01*
X149295185Y-71684835D01*
X149311819Y-71664193D01*
X149328531Y-71647481D01*
X149347968Y-71628044D01*
X149437003Y-71483697D01*
X149490349Y-71322708D01*
X149500500Y-71223345D01*
X149500499Y-70376656D01*
X149490349Y-70277292D01*
X149437003Y-70116303D01*
X149436999Y-70116297D01*
X149436998Y-70116294D01*
X149347970Y-69971959D01*
X149347967Y-69971955D01*
X149228044Y-69852032D01*
X149228040Y-69852029D01*
X149083705Y-69763001D01*
X149083699Y-69762998D01*
X149083697Y-69762997D01*
X149083694Y-69762996D01*
X148922709Y-69709651D01*
X148823346Y-69699500D01*
X148276662Y-69699500D01*
X148276644Y-69699501D01*
X148177292Y-69709650D01*
X148177289Y-69709651D01*
X148016305Y-69762996D01*
X148016294Y-69763001D01*
X147871959Y-69852029D01*
X147871955Y-69852032D01*
X147752032Y-69971955D01*
X147752029Y-69971959D01*
X147663001Y-70116294D01*
X147662996Y-70116305D01*
X147609651Y-70277290D01*
X147599500Y-70376647D01*
X147599500Y-71223337D01*
X147599501Y-71223355D01*
X147609650Y-71322707D01*
X147609651Y-71322710D01*
X147662996Y-71483694D01*
X147663001Y-71483705D01*
X147752029Y-71628040D01*
X147752032Y-71628044D01*
X147871956Y-71747968D01*
X147871963Y-71747972D01*
X147877404Y-71752274D01*
X147917785Y-71809293D01*
X147924500Y-71849546D01*
X147924500Y-72175849D01*
X147924274Y-72183336D01*
X147920781Y-72241082D01*
X147921234Y-72248569D01*
X147918659Y-72248724D01*
X147912645Y-72305999D01*
X147868938Y-72360511D01*
X147841300Y-72375011D01*
X147757671Y-72406202D01*
X147757664Y-72406206D01*
X147642455Y-72492452D01*
X147642452Y-72492455D01*
X147556206Y-72607664D01*
X147556202Y-72607671D01*
X147505908Y-72742517D01*
X147499501Y-72802116D01*
X147499501Y-72802123D01*
X147499500Y-72802135D01*
X147499500Y-73800500D01*
X147479815Y-73867539D01*
X147427011Y-73913294D01*
X147375500Y-73924500D01*
X145331163Y-73924500D01*
X145264124Y-73904815D01*
X145243482Y-73888181D01*
X143144727Y-71789426D01*
X143139608Y-71783989D01*
X143101229Y-71740668D01*
X143053589Y-71707785D01*
X143047592Y-71703372D01*
X143002028Y-71667674D01*
X143002026Y-71667673D01*
X143002025Y-71667672D01*
X143002023Y-71667671D01*
X142993476Y-71663824D01*
X142973938Y-71652805D01*
X142966226Y-71647482D01*
X142966224Y-71647481D01*
X142912117Y-71626960D01*
X142905200Y-71624095D01*
X142852440Y-71600350D01*
X142852441Y-71600350D01*
X142845087Y-71599002D01*
X142843222Y-71598660D01*
X142821614Y-71592637D01*
X142812845Y-71589312D01*
X142755387Y-71582334D01*
X142747987Y-71581207D01*
X142691089Y-71570781D01*
X142691082Y-71570781D01*
X142642362Y-71573728D01*
X142633334Y-71574274D01*
X142625849Y-71574500D01*
X142605638Y-71574500D01*
X142538599Y-71554815D01*
X142492844Y-71502011D01*
X142491515Y-71498997D01*
X142450132Y-71401615D01*
X142450130Y-71401610D01*
X142309018Y-71170390D01*
X142219747Y-71063119D01*
X142135746Y-70962180D01*
X142135740Y-70962175D01*
X141934002Y-70781418D01*
X141708092Y-70631957D01*
X141708090Y-70631956D01*
X141462824Y-70516980D01*
X141462819Y-70516978D01*
X141462814Y-70516976D01*
X141203442Y-70438942D01*
X141203428Y-70438939D01*
X141087791Y-70421921D01*
X140935439Y-70399500D01*
X140132369Y-70399500D01*
X140132351Y-70399500D01*
X139929844Y-70414323D01*
X139929831Y-70414325D01*
X139665453Y-70473217D01*
X139665446Y-70473220D01*
X139412439Y-70569987D01*
X139176226Y-70702557D01*
X138961822Y-70868112D01*
X138773822Y-71063109D01*
X138773816Y-71063116D01*
X138616202Y-71283419D01*
X138616199Y-71283424D01*
X138492350Y-71524309D01*
X138492343Y-71524327D01*
X138404884Y-71780685D01*
X138404881Y-71780699D01*
X138376062Y-71936722D01*
X138362206Y-72011744D01*
X138355681Y-72047068D01*
X138355680Y-72047075D01*
X138345787Y-72317763D01*
X138375413Y-72587013D01*
X138375415Y-72587024D01*
X138443926Y-72849082D01*
X138443928Y-72849088D01*
X138549870Y-73098390D01*
X138621998Y-73216575D01*
X138690979Y-73329605D01*
X138690986Y-73329615D01*
X138864253Y-73537819D01*
X138864259Y-73537824D01*
X139065998Y-73718582D01*
X139291910Y-73868044D01*
X139537176Y-73983020D01*
X139537183Y-73983022D01*
X139537185Y-73983023D01*
X139796557Y-74061057D01*
X139796564Y-74061058D01*
X139796569Y-74061060D01*
X140064561Y-74100500D01*
X140064566Y-74100500D01*
X140867629Y-74100500D01*
X140867631Y-74100500D01*
X140867636Y-74100499D01*
X140867648Y-74100499D01*
X140905191Y-74097750D01*
X141070156Y-74085677D01*
X141182758Y-74060593D01*
X141334546Y-74026782D01*
X141334548Y-74026781D01*
X141334553Y-74026780D01*
X141587558Y-73930014D01*
X141823777Y-73797441D01*
X142038177Y-73631888D01*
X142226186Y-73436881D01*
X142383799Y-73216579D01*
X142400278Y-73184525D01*
X142448437Y-73133904D01*
X142516318Y-73117355D01*
X142582371Y-73140132D01*
X142598239Y-73153540D01*
X144505271Y-75060572D01*
X144510391Y-75066010D01*
X144540282Y-75099750D01*
X144548772Y-75109333D01*
X144596390Y-75142201D01*
X144602424Y-75146641D01*
X144647971Y-75182326D01*
X144656515Y-75186171D01*
X144676067Y-75197198D01*
X144683774Y-75202518D01*
X144683778Y-75202519D01*
X144683779Y-75202520D01*
X144737883Y-75223040D01*
X144744798Y-75225903D01*
X144797561Y-75249650D01*
X144806776Y-75251338D01*
X144828389Y-75257363D01*
X144837155Y-75260688D01*
X144894617Y-75267665D01*
X144901977Y-75268784D01*
X144958915Y-75279219D01*
X144958916Y-75279218D01*
X144958917Y-75279219D01*
X145004106Y-75276485D01*
X145016665Y-75275725D01*
X145024151Y-75275500D01*
X147375501Y-75275500D01*
X147442540Y-75295185D01*
X147488295Y-75347989D01*
X147499501Y-75399500D01*
X147499501Y-76397876D01*
X147505908Y-76457483D01*
X147556202Y-76592328D01*
X147556206Y-76592335D01*
X147642452Y-76707544D01*
X147642455Y-76707547D01*
X147757664Y-76793793D01*
X147757671Y-76793797D01*
X147892517Y-76844091D01*
X147892516Y-76844091D01*
X147899444Y-76844835D01*
X147952127Y-76850500D01*
X149997872Y-76850499D01*
X150057483Y-76844091D01*
X150192331Y-76793796D01*
X150237689Y-76759840D01*
X150303152Y-76735423D01*
X150355333Y-76742925D01*
X150492517Y-76794091D01*
X150492516Y-76794091D01*
X150499444Y-76794835D01*
X150552127Y-76800500D01*
X151447872Y-76800499D01*
X151507483Y-76794091D01*
X151642331Y-76743796D01*
X151642335Y-76743792D01*
X151644664Y-76742924D01*
X151714355Y-76737940D01*
X151762309Y-76759839D01*
X151805208Y-76791954D01*
X151807668Y-76793795D01*
X151807671Y-76793797D01*
X151942517Y-76844091D01*
X151942516Y-76844091D01*
X151949444Y-76844835D01*
X152002127Y-76850500D01*
X154047872Y-76850499D01*
X154107483Y-76844091D01*
X154242331Y-76793796D01*
X154357546Y-76707546D01*
X154357548Y-76707542D01*
X154360819Y-76704273D01*
X154422142Y-76670788D01*
X154491834Y-76675772D01*
X154547767Y-76717644D01*
X154572184Y-76783108D01*
X154572500Y-76791954D01*
X154572500Y-77408046D01*
X154552815Y-77475085D01*
X154500011Y-77520840D01*
X154430853Y-77530784D01*
X154367297Y-77501759D01*
X154360819Y-77495727D01*
X154357544Y-77492452D01*
X154242335Y-77406206D01*
X154242328Y-77406202D01*
X154107482Y-77355908D01*
X154107483Y-77355908D01*
X154047883Y-77349501D01*
X154047881Y-77349500D01*
X154047873Y-77349500D01*
X154047864Y-77349500D01*
X152002129Y-77349500D01*
X152002123Y-77349501D01*
X151942516Y-77355908D01*
X151807671Y-77406202D01*
X151807664Y-77406206D01*
X151762309Y-77440159D01*
X151696845Y-77464576D01*
X151644666Y-77457074D01*
X151507482Y-77405908D01*
X151507483Y-77405908D01*
X151447883Y-77399501D01*
X151447881Y-77399500D01*
X151447873Y-77399500D01*
X151447864Y-77399500D01*
X150552129Y-77399500D01*
X150552123Y-77399501D01*
X150492515Y-77405909D01*
X150355332Y-77457074D01*
X150285641Y-77462058D01*
X150237689Y-77440159D01*
X150236573Y-77439323D01*
X150192331Y-77406204D01*
X150192329Y-77406203D01*
X150192328Y-77406202D01*
X150057482Y-77355908D01*
X150057483Y-77355908D01*
X149997883Y-77349501D01*
X149997881Y-77349500D01*
X149997873Y-77349500D01*
X149997864Y-77349500D01*
X147952129Y-77349500D01*
X147952123Y-77349501D01*
X147892516Y-77355908D01*
X147757671Y-77406202D01*
X147757664Y-77406206D01*
X147642455Y-77492452D01*
X147642452Y-77492455D01*
X147556206Y-77607664D01*
X147556202Y-77607671D01*
X147505908Y-77742517D01*
X147499501Y-77802116D01*
X147499500Y-77802135D01*
X147499500Y-78800500D01*
X147479815Y-78867539D01*
X147427011Y-78913294D01*
X147375500Y-78924500D01*
X146131163Y-78924500D01*
X146064124Y-78904815D01*
X146043482Y-78888181D01*
X143144727Y-75989426D01*
X143139608Y-75983989D01*
X143101229Y-75940668D01*
X143053589Y-75907785D01*
X143047592Y-75903372D01*
X143002028Y-75867674D01*
X143002026Y-75867673D01*
X143002025Y-75867672D01*
X143002023Y-75867671D01*
X142993476Y-75863824D01*
X142973938Y-75852805D01*
X142966226Y-75847482D01*
X142966224Y-75847481D01*
X142912117Y-75826960D01*
X142905200Y-75824095D01*
X142852440Y-75800350D01*
X142852441Y-75800350D01*
X142845087Y-75799002D01*
X142843222Y-75798660D01*
X142821614Y-75792637D01*
X142812845Y-75789312D01*
X142755387Y-75782334D01*
X142747987Y-75781207D01*
X142691089Y-75770781D01*
X142691082Y-75770781D01*
X142642362Y-75773728D01*
X142633334Y-75774274D01*
X142625849Y-75774500D01*
X142605638Y-75774500D01*
X142538599Y-75754815D01*
X142492844Y-75702011D01*
X142491515Y-75698997D01*
X142450132Y-75601615D01*
X142450130Y-75601610D01*
X142309018Y-75370390D01*
X142307845Y-75368981D01*
X142135746Y-75162180D01*
X142135740Y-75162175D01*
X141934002Y-74981418D01*
X141708092Y-74831957D01*
X141708090Y-74831956D01*
X141462824Y-74716980D01*
X141462819Y-74716978D01*
X141462814Y-74716976D01*
X141203442Y-74638942D01*
X141203428Y-74638939D01*
X141087791Y-74621921D01*
X140935439Y-74599500D01*
X140132369Y-74599500D01*
X140132351Y-74599500D01*
X139929844Y-74614323D01*
X139929831Y-74614325D01*
X139665453Y-74673217D01*
X139665446Y-74673220D01*
X139412439Y-74769987D01*
X139176226Y-74902557D01*
X138961822Y-75068112D01*
X138773822Y-75263109D01*
X138773816Y-75263116D01*
X138616202Y-75483419D01*
X138616199Y-75483424D01*
X138492350Y-75724309D01*
X138492343Y-75724327D01*
X138404884Y-75980685D01*
X138404881Y-75980699D01*
X138382376Y-76102540D01*
X138364329Y-76200250D01*
X138355681Y-76247068D01*
X138355680Y-76247075D01*
X138345787Y-76517763D01*
X137149259Y-76517763D01*
X137154212Y-76382235D01*
X137124586Y-76112982D01*
X137056072Y-75850912D01*
X136950130Y-75601610D01*
X136809018Y-75370390D01*
X136807845Y-75368981D01*
X136635746Y-75162180D01*
X136635740Y-75162175D01*
X136434002Y-74981418D01*
X136208092Y-74831957D01*
X136208090Y-74831956D01*
X135962824Y-74716980D01*
X135962819Y-74716978D01*
X135962814Y-74716976D01*
X135703442Y-74638942D01*
X135703428Y-74638939D01*
X135587791Y-74621921D01*
X135435439Y-74599500D01*
X134632369Y-74599500D01*
X134632351Y-74599500D01*
X134429844Y-74614323D01*
X134429831Y-74614325D01*
X134165453Y-74673217D01*
X134165446Y-74673220D01*
X133912439Y-74769987D01*
X133676226Y-74902557D01*
X133461822Y-75068112D01*
X133273822Y-75263109D01*
X133273816Y-75263116D01*
X133116202Y-75483419D01*
X133116199Y-75483424D01*
X132992350Y-75724309D01*
X132992343Y-75724327D01*
X132904884Y-75980685D01*
X132904881Y-75980699D01*
X132882376Y-76102540D01*
X132864329Y-76200250D01*
X132855681Y-76247068D01*
X132855680Y-76247075D01*
X132845787Y-76517763D01*
X131385225Y-76517763D01*
X131385225Y-72317763D01*
X132845787Y-72317763D01*
X132875413Y-72587013D01*
X132875415Y-72587024D01*
X132943926Y-72849082D01*
X132943928Y-72849088D01*
X133049870Y-73098390D01*
X133121998Y-73216575D01*
X133190979Y-73329605D01*
X133190986Y-73329615D01*
X133364253Y-73537819D01*
X133364259Y-73537824D01*
X133565998Y-73718582D01*
X133791910Y-73868044D01*
X134037176Y-73983020D01*
X134037183Y-73983022D01*
X134037185Y-73983023D01*
X134296557Y-74061057D01*
X134296564Y-74061058D01*
X134296569Y-74061060D01*
X134564561Y-74100500D01*
X134564566Y-74100500D01*
X135367629Y-74100500D01*
X135367631Y-74100500D01*
X135367636Y-74100499D01*
X135367648Y-74100499D01*
X135405191Y-74097750D01*
X135570156Y-74085677D01*
X135682758Y-74060593D01*
X135834546Y-74026782D01*
X135834548Y-74026781D01*
X135834553Y-74026780D01*
X136087558Y-73930014D01*
X136323777Y-73797441D01*
X136538177Y-73631888D01*
X136726186Y-73436881D01*
X136883799Y-73216579D01*
X136957787Y-73072669D01*
X137007649Y-72975690D01*
X137007651Y-72975684D01*
X137007656Y-72975675D01*
X137095118Y-72719305D01*
X137144319Y-72452933D01*
X137154212Y-72182235D01*
X137124586Y-71912982D01*
X137056072Y-71650912D01*
X136950130Y-71401610D01*
X136809018Y-71170390D01*
X136719747Y-71063119D01*
X136635746Y-70962180D01*
X136635740Y-70962175D01*
X136434002Y-70781418D01*
X136208092Y-70631957D01*
X136208090Y-70631956D01*
X135962824Y-70516980D01*
X135962819Y-70516978D01*
X135962814Y-70516976D01*
X135703442Y-70438942D01*
X135703428Y-70438939D01*
X135587791Y-70421921D01*
X135435439Y-70399500D01*
X134632369Y-70399500D01*
X134632351Y-70399500D01*
X134429844Y-70414323D01*
X134429831Y-70414325D01*
X134165453Y-70473217D01*
X134165446Y-70473220D01*
X133912439Y-70569987D01*
X133676226Y-70702557D01*
X133461822Y-70868112D01*
X133273822Y-71063109D01*
X133273816Y-71063116D01*
X133116202Y-71283419D01*
X133116199Y-71283424D01*
X132992350Y-71524309D01*
X132992343Y-71524327D01*
X132904884Y-71780685D01*
X132904881Y-71780699D01*
X132876062Y-71936722D01*
X132862206Y-72011744D01*
X132855681Y-72047068D01*
X132855680Y-72047075D01*
X132845787Y-72317763D01*
X131385225Y-72317763D01*
X131385225Y-57145791D01*
X133179082Y-57145791D01*
X133186755Y-57228597D01*
X133187284Y-57240038D01*
X133187284Y-57256750D01*
X133190222Y-57272469D01*
X133190354Y-57273173D01*
X133191935Y-57284510D01*
X133199610Y-57367327D01*
X133199610Y-57367329D01*
X133222370Y-57447321D01*
X133224990Y-57458460D01*
X133228062Y-57474888D01*
X133228063Y-57474893D01*
X133234097Y-57490468D01*
X133237737Y-57501328D01*
X133260495Y-57581318D01*
X133278153Y-57616779D01*
X133297566Y-57655765D01*
X133302187Y-57666231D01*
X133308227Y-57681823D01*
X133317024Y-57696029D01*
X133322597Y-57706035D01*
X133359663Y-57780474D01*
X133359667Y-57780481D01*
X133409780Y-57846841D01*
X133416250Y-57856286D01*
X133425053Y-57870502D01*
X133436310Y-57882851D01*
X133443626Y-57891661D01*
X133493745Y-57958028D01*
X133555199Y-58014051D01*
X133563298Y-58022150D01*
X133574556Y-58034500D01*
X133587896Y-58044574D01*
X133596706Y-58051890D01*
X133658158Y-58107911D01*
X133658160Y-58107912D01*
X133658163Y-58107915D01*
X133728869Y-58151694D01*
X133738315Y-58158164D01*
X133751653Y-58168237D01*
X133766624Y-58175691D01*
X133776621Y-58181261D01*
X133847314Y-58225033D01*
X133847318Y-58225035D01*
X133847321Y-58225036D01*
X133847324Y-58225038D01*
X133924878Y-58255082D01*
X133935334Y-58259700D01*
X133950301Y-58267153D01*
X133950303Y-58267153D01*
X133950306Y-58267155D01*
X133966400Y-58271734D01*
X133977236Y-58275366D01*
X134054785Y-58305409D01*
X134136552Y-58320694D01*
X134147679Y-58323311D01*
X134163753Y-58327885D01*
X134180384Y-58329426D01*
X134191713Y-58331005D01*
X134273482Y-58346291D01*
X134273484Y-58346291D01*
X134356643Y-58346291D01*
X134368084Y-58346819D01*
X134384725Y-58348362D01*
X134401365Y-58346819D01*
X134412807Y-58346291D01*
X134495967Y-58346291D01*
X134495968Y-58346291D01*
X134577732Y-58331006D01*
X134589053Y-58329427D01*
X134605697Y-58327885D01*
X134621794Y-58323304D01*
X134632886Y-58320696D01*
X134714665Y-58305409D01*
X134792239Y-58275356D01*
X134803036Y-58271737D01*
X134819144Y-58267155D01*
X134834116Y-58259700D01*
X134844572Y-58255082D01*
X134922126Y-58225038D01*
X134992862Y-58181239D01*
X135002808Y-58175700D01*
X135017797Y-58168237D01*
X135031142Y-58158159D01*
X135040548Y-58151714D01*
X135111287Y-58107915D01*
X135172765Y-58051869D01*
X135181539Y-58044584D01*
X135194892Y-58034501D01*
X135206166Y-58022133D01*
X135214231Y-58014068D01*
X135275706Y-57958027D01*
X135325833Y-57891647D01*
X135333127Y-57882863D01*
X135344397Y-57870502D01*
X135353208Y-57856271D01*
X135359652Y-57846863D01*
X135409783Y-57780480D01*
X135446863Y-57706012D01*
X135452412Y-57696050D01*
X135461222Y-57681823D01*
X135467264Y-57666225D01*
X135471871Y-57655789D01*
X135508954Y-57581319D01*
X135531721Y-57501300D01*
X135535347Y-57490482D01*
X135541388Y-57474890D01*
X135544458Y-57458462D01*
X135547071Y-57447350D01*
X135569840Y-57367327D01*
X135577514Y-57284506D01*
X135579092Y-57273189D01*
X135582166Y-57256750D01*
X135582756Y-57231146D01*
X135583249Y-57222616D01*
X135590368Y-57145791D01*
X197179082Y-57145791D01*
X197186755Y-57228597D01*
X197187284Y-57240038D01*
X197187284Y-57256750D01*
X197190222Y-57272469D01*
X197190354Y-57273173D01*
X197191935Y-57284510D01*
X197199610Y-57367327D01*
X197199610Y-57367329D01*
X197222370Y-57447321D01*
X197224990Y-57458460D01*
X197228062Y-57474888D01*
X197228063Y-57474893D01*
X197234097Y-57490468D01*
X197237737Y-57501328D01*
X197260495Y-57581318D01*
X197278153Y-57616779D01*
X197297566Y-57655765D01*
X197302187Y-57666231D01*
X197308227Y-57681823D01*
X197317024Y-57696029D01*
X197322597Y-57706035D01*
X197359663Y-57780474D01*
X197359667Y-57780481D01*
X197409780Y-57846841D01*
X197416250Y-57856286D01*
X197425053Y-57870502D01*
X197436310Y-57882851D01*
X197443626Y-57891661D01*
X197493745Y-57958028D01*
X197555199Y-58014051D01*
X197563298Y-58022150D01*
X197574556Y-58034500D01*
X197587896Y-58044574D01*
X197596706Y-58051890D01*
X197658158Y-58107911D01*
X197658160Y-58107912D01*
X197658163Y-58107915D01*
X197728869Y-58151694D01*
X197738315Y-58158164D01*
X197751653Y-58168237D01*
X197766624Y-58175691D01*
X197776621Y-58181261D01*
X197847314Y-58225033D01*
X197847318Y-58225035D01*
X197847321Y-58225036D01*
X197847324Y-58225038D01*
X197924878Y-58255082D01*
X197935334Y-58259700D01*
X197950301Y-58267153D01*
X197950303Y-58267153D01*
X197950306Y-58267155D01*
X197966400Y-58271734D01*
X197977236Y-58275366D01*
X198054785Y-58305409D01*
X198136552Y-58320694D01*
X198147679Y-58323311D01*
X198163753Y-58327885D01*
X198180384Y-58329426D01*
X198191713Y-58331005D01*
X198273482Y-58346291D01*
X198273484Y-58346291D01*
X198356643Y-58346291D01*
X198368084Y-58346819D01*
X198384725Y-58348362D01*
X198401365Y-58346819D01*
X198412807Y-58346291D01*
X198495967Y-58346291D01*
X198495968Y-58346291D01*
X198577732Y-58331006D01*
X198589053Y-58329427D01*
X198605697Y-58327885D01*
X198621794Y-58323304D01*
X198632886Y-58320696D01*
X198714665Y-58305409D01*
X198792239Y-58275356D01*
X198803036Y-58271737D01*
X198819144Y-58267155D01*
X198834116Y-58259700D01*
X198844572Y-58255082D01*
X198922126Y-58225038D01*
X198992862Y-58181239D01*
X199002808Y-58175700D01*
X199017797Y-58168237D01*
X199031142Y-58158159D01*
X199040548Y-58151714D01*
X199111287Y-58107915D01*
X199172765Y-58051869D01*
X199181539Y-58044584D01*
X199194892Y-58034501D01*
X199206166Y-58022133D01*
X199214231Y-58014068D01*
X199275706Y-57958027D01*
X199325833Y-57891647D01*
X199333127Y-57882863D01*
X199344397Y-57870502D01*
X199353208Y-57856271D01*
X199359652Y-57846863D01*
X199409783Y-57780480D01*
X199446863Y-57706012D01*
X199452412Y-57696050D01*
X199461222Y-57681823D01*
X199467264Y-57666225D01*
X199471871Y-57655789D01*
X199508954Y-57581319D01*
X199531721Y-57501300D01*
X199535347Y-57490482D01*
X199541388Y-57474890D01*
X199544458Y-57458462D01*
X199547071Y-57447350D01*
X199569840Y-57367327D01*
X199577514Y-57284506D01*
X199579092Y-57273189D01*
X199582166Y-57256750D01*
X199582756Y-57231146D01*
X199583249Y-57222616D01*
X199590368Y-57145791D01*
X199583249Y-57068968D01*
X199582756Y-57060435D01*
X199582166Y-57034832D01*
X199579090Y-57018382D01*
X199577513Y-57007062D01*
X199569840Y-56924255D01*
X199547072Y-56844236D01*
X199544458Y-56833119D01*
X199541388Y-56816692D01*
X199535349Y-56801106D01*
X199531719Y-56790275D01*
X199508954Y-56710263D01*
X199471880Y-56635810D01*
X199467258Y-56625340D01*
X199461223Y-56609761D01*
X199461222Y-56609759D01*
X199452413Y-56595533D01*
X199446860Y-56585563D01*
X199409783Y-56511102D01*
X199359659Y-56444727D01*
X199353195Y-56435290D01*
X199344397Y-56421080D01*
X199333137Y-56408728D01*
X199325823Y-56399920D01*
X199298657Y-56363947D01*
X199275706Y-56333555D01*
X199214251Y-56277531D01*
X199214248Y-56277528D01*
X199206151Y-56269431D01*
X199194895Y-56257084D01*
X199194893Y-56257082D01*
X199194892Y-56257081D01*
X199181546Y-56247002D01*
X199172753Y-56239701D01*
X199111287Y-56183667D01*
X199040583Y-56139889D01*
X199031136Y-56133418D01*
X199017793Y-56123342D01*
X199002832Y-56115892D01*
X198992830Y-56110321D01*
X198922132Y-56066547D01*
X198922131Y-56066546D01*
X198844587Y-56036504D01*
X198834121Y-56031883D01*
X198819151Y-56024430D01*
X198819147Y-56024428D01*
X198819144Y-56024427D01*
X198819136Y-56024424D01*
X198819134Y-56024424D01*
X198803062Y-56019850D01*
X198792211Y-56016213D01*
X198714668Y-55986174D01*
X198714666Y-55986173D01*
X198714665Y-55986173D01*
X198714663Y-55986172D01*
X198714654Y-55986170D01*
X198632915Y-55970890D01*
X198621769Y-55968269D01*
X198605697Y-55963696D01*
X198605693Y-55963695D01*
X198589055Y-55962153D01*
X198577721Y-55960572D01*
X198495969Y-55945291D01*
X198495968Y-55945291D01*
X198412796Y-55945291D01*
X198401356Y-55944762D01*
X198384725Y-55943221D01*
X198368093Y-55944762D01*
X198356654Y-55945291D01*
X198273480Y-55945291D01*
X198191728Y-55960572D01*
X198180395Y-55962153D01*
X198163761Y-55963695D01*
X198163747Y-55963698D01*
X198147667Y-55968272D01*
X198136529Y-55970891D01*
X198054789Y-55986171D01*
X198054779Y-55986174D01*
X197977243Y-56016212D01*
X197966391Y-56019850D01*
X197950305Y-56024427D01*
X197950295Y-56024431D01*
X197935325Y-56031884D01*
X197924862Y-56036503D01*
X197847332Y-56066540D01*
X197847320Y-56066546D01*
X197776616Y-56110323D01*
X197766615Y-56115893D01*
X197751659Y-56123340D01*
X197751654Y-56123343D01*
X197738313Y-56133417D01*
X197728874Y-56139883D01*
X197658160Y-56183668D01*
X197596693Y-56239701D01*
X197587891Y-56247011D01*
X197574555Y-56257082D01*
X197563289Y-56269440D01*
X197555197Y-56277531D01*
X197493747Y-56333551D01*
X197443626Y-56399920D01*
X197436315Y-56408724D01*
X197425055Y-56421077D01*
X197425054Y-56421077D01*
X197416256Y-56435287D01*
X197409787Y-56444731D01*
X197377163Y-56487932D01*
X197359667Y-56511102D01*
X197359666Y-56511103D01*
X197359666Y-56511104D01*
X197359659Y-56511115D01*
X197322595Y-56585548D01*
X197317028Y-56595544D01*
X197308227Y-56609759D01*
X197302191Y-56625340D01*
X197297567Y-56635811D01*
X197260498Y-56710258D01*
X197260495Y-56710264D01*
X197247710Y-56755198D01*
X197237736Y-56790256D01*
X197234098Y-56801110D01*
X197228063Y-56816686D01*
X197228062Y-56816692D01*
X197224993Y-56833107D01*
X197222372Y-56844249D01*
X197199610Y-56924255D01*
X197191936Y-57007062D01*
X197190355Y-57018398D01*
X197187284Y-57034828D01*
X197187284Y-57051542D01*
X197186755Y-57062983D01*
X197179082Y-57145790D01*
X197179082Y-57145791D01*
X135590368Y-57145791D01*
X135583249Y-57068968D01*
X135582756Y-57060435D01*
X135582166Y-57034832D01*
X135579090Y-57018382D01*
X135577513Y-57007062D01*
X135569840Y-56924255D01*
X135547072Y-56844236D01*
X135544458Y-56833119D01*
X135541388Y-56816692D01*
X135535349Y-56801106D01*
X135531719Y-56790275D01*
X135508954Y-56710263D01*
X135471880Y-56635810D01*
X135467258Y-56625340D01*
X135461223Y-56609761D01*
X135461222Y-56609759D01*
X135452413Y-56595533D01*
X135446860Y-56585563D01*
X135409783Y-56511102D01*
X135359659Y-56444727D01*
X135353195Y-56435290D01*
X135344397Y-56421080D01*
X135333137Y-56408728D01*
X135325823Y-56399920D01*
X135298657Y-56363947D01*
X135275706Y-56333555D01*
X135214251Y-56277531D01*
X135214248Y-56277528D01*
X135206151Y-56269431D01*
X135194895Y-56257084D01*
X135194893Y-56257082D01*
X135194892Y-56257081D01*
X135181546Y-56247002D01*
X135172753Y-56239701D01*
X135111287Y-56183667D01*
X135040583Y-56139889D01*
X135031136Y-56133418D01*
X135017793Y-56123342D01*
X135002832Y-56115892D01*
X134992830Y-56110321D01*
X134922132Y-56066547D01*
X134922131Y-56066546D01*
X134844587Y-56036504D01*
X134834121Y-56031883D01*
X134819151Y-56024430D01*
X134819147Y-56024428D01*
X134819144Y-56024427D01*
X134819136Y-56024424D01*
X134819134Y-56024424D01*
X134803062Y-56019850D01*
X134792211Y-56016213D01*
X134714668Y-55986174D01*
X134714666Y-55986173D01*
X134714665Y-55986173D01*
X134714663Y-55986172D01*
X134714654Y-55986170D01*
X134632915Y-55970890D01*
X134621769Y-55968269D01*
X134605697Y-55963696D01*
X134605693Y-55963695D01*
X134589055Y-55962153D01*
X134577721Y-55960572D01*
X134495969Y-55945291D01*
X134495968Y-55945291D01*
X134412796Y-55945291D01*
X134401356Y-55944762D01*
X134384725Y-55943221D01*
X134368093Y-55944762D01*
X134356654Y-55945291D01*
X134273480Y-55945291D01*
X134191728Y-55960572D01*
X134180395Y-55962153D01*
X134163761Y-55963695D01*
X134163747Y-55963698D01*
X134147667Y-55968272D01*
X134136529Y-55970891D01*
X134054789Y-55986171D01*
X134054779Y-55986174D01*
X133977243Y-56016212D01*
X133966391Y-56019850D01*
X133950305Y-56024427D01*
X133950295Y-56024431D01*
X133935325Y-56031884D01*
X133924862Y-56036503D01*
X133847332Y-56066540D01*
X133847320Y-56066546D01*
X133776616Y-56110323D01*
X133766615Y-56115893D01*
X133751659Y-56123340D01*
X133751654Y-56123343D01*
X133738313Y-56133417D01*
X133728874Y-56139883D01*
X133658160Y-56183668D01*
X133596693Y-56239701D01*
X133587891Y-56247011D01*
X133574555Y-56257082D01*
X133563289Y-56269440D01*
X133555197Y-56277531D01*
X133493747Y-56333551D01*
X133443626Y-56399920D01*
X133436315Y-56408724D01*
X133425055Y-56421077D01*
X133425054Y-56421077D01*
X133416256Y-56435287D01*
X133409787Y-56444731D01*
X133377163Y-56487932D01*
X133359667Y-56511102D01*
X133359666Y-56511103D01*
X133359666Y-56511104D01*
X133359659Y-56511115D01*
X133322595Y-56585548D01*
X133317028Y-56595544D01*
X133308227Y-56609759D01*
X133302191Y-56625340D01*
X133297567Y-56635811D01*
X133260498Y-56710258D01*
X133260495Y-56710264D01*
X133247710Y-56755198D01*
X133237736Y-56790256D01*
X133234098Y-56801110D01*
X133228063Y-56816686D01*
X133228062Y-56816692D01*
X133224993Y-56833107D01*
X133222372Y-56844249D01*
X133199610Y-56924255D01*
X133191936Y-57007062D01*
X133190355Y-57018398D01*
X133187284Y-57034828D01*
X133187284Y-57051542D01*
X133186755Y-57062983D01*
X133179082Y-57145790D01*
X133179082Y-57145791D01*
X131385225Y-57145791D01*
X131385225Y-55851202D01*
X131385697Y-55840396D01*
X131389031Y-55802281D01*
X131389134Y-55801171D01*
X131401740Y-55673626D01*
X131405361Y-55653750D01*
X131422093Y-55591301D01*
X131423175Y-55587513D01*
X131451607Y-55493787D01*
X131457884Y-55477381D01*
X131487903Y-55413002D01*
X131490877Y-55407052D01*
X131534063Y-55326252D01*
X131541813Y-55313636D01*
X131583885Y-55253547D01*
X131589546Y-55246086D01*
X131646394Y-55176813D01*
X131654521Y-55167845D01*
X131706806Y-55115557D01*
X131715752Y-55107448D01*
X131785037Y-55050584D01*
X131792508Y-55044915D01*
X131852578Y-55002850D01*
X131865198Y-54995097D01*
X131945980Y-54951913D01*
X131951923Y-54948941D01*
X132016337Y-54918900D01*
X132032723Y-54912630D01*
X132126511Y-54884173D01*
X132130162Y-54883130D01*
X132192651Y-54866382D01*
X132212558Y-54862759D01*
X132344697Y-54849736D01*
X132345983Y-54849616D01*
X132378561Y-54846764D01*
X132389377Y-54846291D01*
X200379309Y-54846291D01*
X200390116Y-54846763D01*
G37*
G04 #@! TD.AperFunction*
M02*
