M48
; DRILL file {KiCad 7.0.10} date Sat Jan 20 16:53:59 2024
; FORMAT={-:-/ absolute / metric / decimal}
; #@! TF.CreationDate,2024-01-20T16:53:59+03:00
; #@! TF.GenerationSoftware,Kicad,Pcbnew,7.0.10
; #@! TF.FileFunction,Plated,1,2,PTH
FMAT,2
METRIC
; #@! TA.AperFunction,Plated,PTH,ViaDrill
T1C0.400
; #@! TA.AperFunction,Plated,PTH,ComponentDrill
T2C1.000
; #@! TA.AperFunction,Plated,PTH,ComponentDrill
T3C1.400
%
G90
G05
T1
X123.7Y-64.8
X123.7Y-67.1
X123.7Y-69.0
X123.7Y-71.0
X123.7Y-73.3
X123.9Y-75.2
X124.3Y-109.5
X124.35Y-96.72
X124.35Y-98.97
X124.35Y-100.72
X124.35Y-102.82
X124.35Y-105.07
X124.35Y-106.82
X125.8Y-78.9
X125.9Y-71.0
X125.9Y-73.25
X125.9Y-75.0
X126.2Y-64.85
X126.2Y-67.1
X126.2Y-68.85
X127.75Y-80.25
X129.05Y-109.43
X129.05Y-112.68
X129.1Y-96.65
X129.1Y-98.9
X129.1Y-100.65
X129.1Y-102.75
X129.1Y-105.0
X129.1Y-106.75
X129.55Y-60.43
X131.2Y-73.1
X131.4Y-77.2
X131.6Y-80.0
X132.575Y-63.85
X132.9Y-89.575
X134.5Y-85.9
X134.7Y-96.55
X134.7Y-98.8
X134.7Y-100.55
X134.7Y-102.65
X134.7Y-104.9
X134.7Y-106.65
X134.8Y-78.3
X134.8Y-80.6
X134.8Y-109.18
X134.8Y-112.93
X134.9Y-71.25
X134.9Y-73.5
X134.9Y-75.25
X134.925Y-92.425
X135.2Y-65.1
X135.2Y-67.35
X135.2Y-69.1
X137.05Y-93.51
X137.3Y-90.5
X137.4Y-86.1
X139.05Y-109.18
X139.05Y-112.93
X139.9Y-96.55
X139.9Y-98.8
X139.9Y-100.55
X139.9Y-102.65
X139.9Y-104.9
X139.9Y-106.65
X140.1Y-71.25
X140.1Y-73.5
X140.1Y-75.25
X140.1Y-78.2
X140.2Y-81.1
X140.4Y-65.1
X140.4Y-67.35
X140.4Y-69.1
X140.7Y-93.9
X140.8Y-60.6
X141.0Y-90.2
X141.4Y-86.2
X142.3Y-109.18
X142.3Y-112.93
X143.7Y-63.1
X144.6Y-59.4
X144.7Y-69.2
X145.1Y-94.0
X145.4Y-89.8
X145.8Y-102.2
X145.8Y-107.6
X146.0Y-82.7
X146.0Y-98.6
X146.3Y-78.8
X146.5Y-86.7
X147.6Y-90.7
X147.8Y-109.68
X147.8Y-112.93
X148.3Y-78.26
X148.3Y-84.26
X148.55Y-93.76
X149.3Y-98.6
X150.6Y-102.0
X150.686Y-84.674
X151.8Y-60.43
X151.8Y-64.68
X151.8Y-67.93
X152.3Y-74.26
X152.3Y-105.43
X152.3Y-109.68
X152.3Y-112.93
X152.7Y-98.8
X153.3Y-102.0
X154.9Y-84.06
X154.9Y-105.4
X155.1Y-59.4
X155.8Y-87.26
X155.8Y-90.76
X155.8Y-93.76
X156.0Y-78.6
X156.3Y-92.43
X156.3Y-97.3
X156.3Y-100.0
X156.8Y-86.93
X156.8Y-103.4
X158.05Y-67.26
X158.05Y-69.51
X158.05Y-71.26
X158.05Y-78.76
X158.05Y-81.26
X158.05Y-109.68
X158.05Y-112.93
X158.2Y-83.93
X158.3Y-73.6
X158.3Y-76.26
X158.8Y-60.43
X158.8Y-64.68
X159.9Y-85.9
X160.0Y-68.3
X161.1Y-73.5
X162.9Y-95.4
X164.05Y-60.43
X164.05Y-64.68
X164.05Y-67.93
X164.05Y-76.18
X164.05Y-80.43
X164.05Y-83.68
X164.05Y-87.43
X164.05Y-92.18
X164.05Y-96.43
X164.05Y-99.68
X164.05Y-105.43
X164.05Y-109.68
X164.05Y-112.93
X164.9Y-107.2
X168.55Y-60.43
X168.55Y-64.68
X168.55Y-67.93
X168.55Y-76.18
X168.55Y-80.43
X168.55Y-83.68
X168.55Y-87.43
X168.55Y-92.18
X168.55Y-96.43
X168.55Y-99.68
X168.55Y-105.43
X168.55Y-109.68
X168.55Y-112.93
X173.7Y-73.0
X174.3Y-60.43
X174.3Y-64.68
X174.3Y-67.93
X174.3Y-76.18
X174.3Y-80.43
X174.3Y-83.68
X174.3Y-87.43
X174.3Y-92.18
X174.3Y-96.43
X174.3Y-99.68
X174.3Y-105.43
X174.3Y-109.68
X174.3Y-112.93
X178.05Y-60.43
X178.05Y-64.68
X178.05Y-67.93
X178.05Y-76.18
X178.05Y-80.43
X178.05Y-83.68
X178.05Y-87.43
X178.05Y-92.18
X178.05Y-96.43
X178.05Y-99.68
X178.05Y-105.43
X178.05Y-109.68
X178.05Y-112.93
X180.6Y-72.6
X182.3Y-87.43
X182.55Y-60.43
X182.55Y-64.68
X182.55Y-67.93
X182.55Y-76.18
X182.55Y-80.43
X182.55Y-83.68
X182.55Y-92.18
X182.55Y-96.43
X182.55Y-99.68
X182.55Y-105.43
X182.55Y-109.68
X182.55Y-112.93
X187.5Y-72.6
X188.05Y-83.68
X188.3Y-64.68
X188.3Y-67.93
X188.3Y-76.18
X188.3Y-80.43
X188.3Y-87.18
X188.3Y-92.18
X188.3Y-96.43
X188.3Y-99.68
X188.3Y-105.43
X188.3Y-109.68
T2
X130.77Y-60.025
X133.31Y-60.025
X135.85Y-60.025
X138.39Y-60.025
T3
X123.925Y-84.025
X123.925Y-88.225
X123.925Y-92.425
X129.425Y-84.025
X129.425Y-88.225
X129.425Y-92.425
M30
