G04 #@! TF.GenerationSoftware,KiCad,Pcbnew,7.0.10*
G04 #@! TF.CreationDate,2024-01-19T21:46:19+03:00*
G04 #@! TF.ProjectId,Eco_display,45636f5f-6469-4737-906c-61792e6b6963,rev?*
G04 #@! TF.SameCoordinates,Original*
G04 #@! TF.FileFunction,Copper,L1,Top*
G04 #@! TF.FilePolarity,Positive*
%FSLAX46Y46*%
G04 Gerber Fmt 4.6, Leading zero omitted, Abs format (unit mm)*
G04 Created by KiCad (PCBNEW 7.0.10) date 2024-01-19 21:46:19*
%MOMM*%
%LPD*%
G01*
G04 APERTURE LIST*
G04 Aperture macros list*
%AMRoundRect*
0 Rectangle with rounded corners*
0 $1 Rounding radius*
0 $2 $3 $4 $5 $6 $7 $8 $9 X,Y pos of 4 corners*
0 Add a 4 corners polygon primitive as box body*
4,1,4,$2,$3,$4,$5,$6,$7,$8,$9,$2,$3,0*
0 Add four circle primitives for the rounded corners*
1,1,$1+$1,$2,$3*
1,1,$1+$1,$4,$5*
1,1,$1+$1,$6,$7*
1,1,$1+$1,$8,$9*
0 Add four rect primitives between the rounded corners*
20,1,$1+$1,$2,$3,$4,$5,0*
20,1,$1+$1,$4,$5,$6,$7,0*
20,1,$1+$1,$6,$7,$8,$9,0*
20,1,$1+$1,$8,$9,$2,$3,0*%
G04 Aperture macros list end*
G04 #@! TA.AperFunction,ComponentPad*
%ADD10R,1.700000X1.700000*%
G04 #@! TD*
G04 #@! TA.AperFunction,ComponentPad*
%ADD11O,1.700000X1.700000*%
G04 #@! TD*
G04 #@! TA.AperFunction,SMDPad,CuDef*
%ADD12RoundRect,0.135000X0.135000X0.185000X-0.135000X0.185000X-0.135000X-0.185000X0.135000X-0.185000X0*%
G04 #@! TD*
G04 #@! TA.AperFunction,ComponentPad*
%ADD13RoundRect,0.250001X1.399999X-1.099999X1.399999X1.099999X-1.399999X1.099999X-1.399999X-1.099999X0*%
G04 #@! TD*
G04 #@! TA.AperFunction,ComponentPad*
%ADD14O,3.300000X2.700000*%
G04 #@! TD*
G04 #@! TA.AperFunction,ViaPad*
%ADD15C,0.800000*%
G04 #@! TD*
G04 #@! TA.AperFunction,Conductor*
%ADD16C,0.500000*%
G04 #@! TD*
G04 #@! TA.AperFunction,Conductor*
%ADD17C,0.254000*%
G04 #@! TD*
G04 APERTURE END LIST*
D10*
X126475000Y-92100000D03*
D11*
X126475000Y-89560000D03*
X126475000Y-87020000D03*
X126475000Y-84480000D03*
D12*
X130710000Y-87100000D03*
X129690000Y-87100000D03*
D13*
X140250000Y-92500000D03*
D14*
X140250000Y-88300000D03*
X140250000Y-84100000D03*
X134750000Y-92500000D03*
X134750000Y-88300000D03*
X134750000Y-84100000D03*
D15*
X174300000Y-67930000D03*
X174300000Y-96430000D03*
X174300000Y-80430000D03*
X134700000Y-102650000D03*
X158050000Y-67260000D03*
X164050000Y-96430000D03*
X168550000Y-109680000D03*
X159900000Y-85900004D03*
X158050000Y-109680000D03*
X148300000Y-78260000D03*
X168550000Y-60430000D03*
X178050000Y-60430000D03*
X174300000Y-99680000D03*
X156300000Y-92430000D03*
X174300000Y-64680000D03*
X147800000Y-109680000D03*
X134700000Y-106650000D03*
X182550000Y-96430000D03*
X125800000Y-78900000D03*
X164050000Y-109680000D03*
X125900000Y-73250000D03*
X124350000Y-102820000D03*
X178050000Y-109680000D03*
X124350000Y-106820000D03*
X178050000Y-67930000D03*
X174300000Y-76180000D03*
X182550000Y-80430000D03*
X139900000Y-106650000D03*
X124350000Y-105070000D03*
X154900000Y-105400000D03*
X182550000Y-76180000D03*
X126200000Y-67100000D03*
X158200000Y-83930000D03*
X139900000Y-104900000D03*
X182550000Y-99680000D03*
X126200000Y-64850000D03*
X164050000Y-112930000D03*
X164050000Y-87430000D03*
X188300000Y-87180000D03*
X134700000Y-100550000D03*
X168550000Y-92180000D03*
X151800000Y-67930000D03*
X140400000Y-65100000D03*
X178050000Y-80430000D03*
X140100000Y-75250000D03*
X158800000Y-64680000D03*
X178050000Y-83680000D03*
X155800000Y-93760000D03*
X125900000Y-71000000D03*
X188300000Y-109680000D03*
X160000000Y-68300000D03*
X139900000Y-96550000D03*
X125900000Y-75000000D03*
X129100000Y-96650000D03*
X135200000Y-69100000D03*
X134800000Y-112930000D03*
X137050000Y-93510000D03*
X174300000Y-87430000D03*
X164050000Y-92180000D03*
X139900000Y-98800000D03*
X178050000Y-87430000D03*
X126200000Y-68850000D03*
X178050000Y-99680000D03*
X152300000Y-109680000D03*
X148550000Y-93760000D03*
X156800000Y-86930000D03*
X168550000Y-83680000D03*
X135200000Y-67350000D03*
X129100000Y-105000000D03*
X124300000Y-94180000D03*
X178050000Y-92180000D03*
X147800000Y-112930000D03*
X124350000Y-100720000D03*
X140100000Y-71250000D03*
X158050000Y-81260000D03*
X139900000Y-100550000D03*
X168550000Y-96430000D03*
X128050000Y-94180000D03*
X151800000Y-64680000D03*
X182550000Y-109680000D03*
X178050000Y-112930000D03*
X164050000Y-83680000D03*
X188300000Y-67930000D03*
X178050000Y-96430000D03*
X174300000Y-83680000D03*
X158050000Y-71260000D03*
X134700000Y-98800000D03*
X182550000Y-64680000D03*
X164050000Y-60430000D03*
X174300000Y-112930000D03*
X155800000Y-90760000D03*
X188300000Y-76180000D03*
X188300000Y-92180000D03*
X140400000Y-67350000D03*
X174300000Y-109680000D03*
X152300000Y-74260000D03*
X135200000Y-65100000D03*
X174300000Y-92180000D03*
X158050000Y-112930000D03*
X188300000Y-105430000D03*
X134900000Y-73500000D03*
X158050000Y-78760000D03*
X158050000Y-69510000D03*
X129100000Y-98900000D03*
X168550000Y-87430000D03*
X188300000Y-80430000D03*
X129100000Y-100650000D03*
X124350000Y-96720000D03*
X142300000Y-112930000D03*
X134700000Y-104900000D03*
X158800000Y-60430000D03*
X164050000Y-99680000D03*
X182550000Y-67930000D03*
X164050000Y-105430000D03*
X182550000Y-92180000D03*
X164050000Y-76180000D03*
X140400000Y-69100000D03*
X168550000Y-112930000D03*
X154900000Y-84060000D03*
X124350000Y-98970000D03*
X134900000Y-71250000D03*
X168550000Y-76180000D03*
X174300000Y-105430000D03*
X164050000Y-67930000D03*
X129100000Y-106750000D03*
X148300000Y-84260000D03*
X164050000Y-64680000D03*
X152300000Y-105430000D03*
X134800000Y-109180000D03*
X178050000Y-76180000D03*
X129050000Y-109430000D03*
X139050000Y-112930000D03*
X158300000Y-76260000D03*
X182550000Y-105430000D03*
X129100000Y-102750000D03*
X129550000Y-60430000D03*
X182300000Y-87430000D03*
X142300000Y-109180000D03*
X168550000Y-80430000D03*
X164050000Y-80430000D03*
X168550000Y-64680000D03*
X168550000Y-67930000D03*
X188300000Y-64680000D03*
X178050000Y-64680000D03*
X150686286Y-84673714D03*
X188050000Y-83680000D03*
X124300000Y-109500000D03*
X182550000Y-60430000D03*
X152300000Y-112930000D03*
X188300000Y-96430000D03*
X182550000Y-83680000D03*
X178050000Y-105430000D03*
X134700000Y-96550000D03*
X155800000Y-87260000D03*
X140100000Y-73500000D03*
X168550000Y-105430000D03*
X168550000Y-99680000D03*
X151800000Y-60430000D03*
X188300000Y-99680000D03*
X139900000Y-102650000D03*
X139050000Y-109180000D03*
X156000000Y-78600000D03*
X134900000Y-75250000D03*
X182550000Y-112930000D03*
X174300000Y-60430000D03*
X129050000Y-112680000D03*
X162900000Y-95400000D03*
D16*
X131200000Y-87100000D02*
X130710000Y-87100000D01*
X132100000Y-88000000D02*
X131200000Y-87100000D01*
X132900000Y-90300000D02*
X132100000Y-89500000D01*
X138050000Y-90300000D02*
X132900000Y-90300000D01*
X132100000Y-89500000D02*
X132100000Y-88000000D01*
X140250000Y-92500000D02*
X138050000Y-90300000D01*
X129690000Y-87100000D02*
X126555000Y-87100000D01*
D17*
X142000000Y-95400000D02*
X141800000Y-95200000D01*
X162900000Y-95400000D02*
X142000000Y-95400000D01*
X130800000Y-95200000D02*
X129690000Y-94090000D01*
X129690000Y-94090000D02*
X129690000Y-87100000D01*
X141800000Y-95200000D02*
X130800000Y-95200000D01*
D16*
X126555000Y-87100000D02*
X126475000Y-87020000D01*
G04 #@! TA.AperFunction,Conductor*
G36*
X130471891Y-87917134D02*
G01*
X130474794Y-87917664D01*
X130474796Y-87917665D01*
X130510819Y-87920500D01*
X130907769Y-87920499D01*
X130974808Y-87940183D01*
X130995450Y-87956818D01*
X131313181Y-88274548D01*
X131346666Y-88335871D01*
X131349500Y-88362229D01*
X131349500Y-89436294D01*
X131348191Y-89454263D01*
X131344710Y-89478025D01*
X131349028Y-89527368D01*
X131349500Y-89538176D01*
X131349500Y-89543711D01*
X131353098Y-89574495D01*
X131353464Y-89578083D01*
X131360000Y-89652791D01*
X131361461Y-89659867D01*
X131361403Y-89659878D01*
X131363034Y-89667237D01*
X131363092Y-89667224D01*
X131364757Y-89674249D01*
X131364758Y-89674254D01*
X131364759Y-89674255D01*
X131388108Y-89738409D01*
X131390400Y-89744705D01*
X131391582Y-89748107D01*
X131415182Y-89819326D01*
X131418236Y-89825874D01*
X131418182Y-89825898D01*
X131421470Y-89832688D01*
X131421521Y-89832663D01*
X131424761Y-89839114D01*
X131465979Y-89901784D01*
X131467889Y-89904782D01*
X131491186Y-89942551D01*
X131507289Y-89968658D01*
X131511766Y-89974319D01*
X131511719Y-89974356D01*
X131516482Y-89980202D01*
X131516528Y-89980164D01*
X131521168Y-89985693D01*
X131521170Y-89985696D01*
X131571330Y-90033020D01*
X131575707Y-90037149D01*
X131578295Y-90039663D01*
X132324270Y-90785638D01*
X132336051Y-90799270D01*
X132350388Y-90818528D01*
X132388337Y-90850372D01*
X132396310Y-90857679D01*
X132400217Y-90861586D01*
X132400223Y-90861591D01*
X132424537Y-90880816D01*
X132427318Y-90883080D01*
X132454956Y-90906271D01*
X132484789Y-90931305D01*
X132490818Y-90935270D01*
X132490785Y-90935319D01*
X132497147Y-90939372D01*
X132497179Y-90939321D01*
X132503319Y-90943108D01*
X132503323Y-90943111D01*
X132541977Y-90961135D01*
X132571320Y-90974819D01*
X132574566Y-90976391D01*
X132641562Y-91010038D01*
X132648357Y-91012511D01*
X132648336Y-91012567D01*
X132655457Y-91015043D01*
X132655476Y-91014986D01*
X132662319Y-91017253D01*
X132662327Y-91017257D01*
X132735895Y-91032447D01*
X132739228Y-91033186D01*
X132812279Y-91050500D01*
X132812281Y-91050500D01*
X132812285Y-91050501D01*
X132819453Y-91051339D01*
X132819446Y-91051398D01*
X132826944Y-91052164D01*
X132826950Y-91052105D01*
X132834139Y-91052734D01*
X132834143Y-91052733D01*
X132834144Y-91052734D01*
X132909130Y-91050552D01*
X132912737Y-91050500D01*
X137687770Y-91050500D01*
X137754809Y-91070185D01*
X137775451Y-91086819D01*
X138063181Y-91374549D01*
X138096666Y-91435872D01*
X138099500Y-91462230D01*
X138099500Y-93650015D01*
X138110000Y-93752795D01*
X138110001Y-93752796D01*
X138165186Y-93919335D01*
X138165187Y-93919337D01*
X138257286Y-94068651D01*
X138257289Y-94068655D01*
X138381344Y-94192710D01*
X138381348Y-94192713D01*
X138530662Y-94284812D01*
X138530664Y-94284813D01*
X138530666Y-94284814D01*
X138669425Y-94330794D01*
X138726870Y-94370567D01*
X138753693Y-94435082D01*
X138741378Y-94503858D01*
X138693835Y-94555058D01*
X138630421Y-94572500D01*
X131111281Y-94572500D01*
X131044242Y-94552815D01*
X131023600Y-94536181D01*
X130353819Y-93866400D01*
X130320334Y-93805077D01*
X130317500Y-93778719D01*
X130317500Y-88037118D01*
X130337185Y-87970079D01*
X130389989Y-87924324D01*
X130459147Y-87914380D01*
X130471891Y-87917134D01*
G37*
G04 #@! TD.AperFunction*
G04 #@! TA.AperFunction,Conductor*
G36*
X190690118Y-57776763D02*
G01*
X190693334Y-57777044D01*
X190729596Y-57780217D01*
X190730666Y-57780316D01*
X190856502Y-57792713D01*
X190876414Y-57796337D01*
X190941146Y-57813684D01*
X190944929Y-57814764D01*
X191036287Y-57842478D01*
X191052684Y-57848753D01*
X191118575Y-57879480D01*
X191124590Y-57882487D01*
X191203769Y-57924810D01*
X191216430Y-57932589D01*
X191277598Y-57975420D01*
X191285132Y-57981136D01*
X191353181Y-58036983D01*
X191362178Y-58045137D01*
X191382677Y-58065636D01*
X191415366Y-58098326D01*
X191423537Y-58107342D01*
X191479360Y-58175364D01*
X191485081Y-58182905D01*
X191527920Y-58244086D01*
X191535699Y-58256748D01*
X191578014Y-58335913D01*
X191581031Y-58341948D01*
X191611750Y-58407824D01*
X191618026Y-58424227D01*
X191645714Y-58515500D01*
X191646828Y-58519402D01*
X191664165Y-58584105D01*
X191667792Y-58604033D01*
X191680068Y-58728564D01*
X191680194Y-58729916D01*
X191683753Y-58770574D01*
X191684225Y-58781387D01*
X191684225Y-115390376D01*
X191683753Y-115401187D01*
X191680307Y-115440562D01*
X191680182Y-115441904D01*
X191667808Y-115567553D01*
X191664181Y-115587491D01*
X191646851Y-115652174D01*
X191645736Y-115656077D01*
X191618047Y-115747359D01*
X191611769Y-115763767D01*
X191581053Y-115829641D01*
X191578028Y-115835693D01*
X191535719Y-115914847D01*
X191527937Y-115927514D01*
X191485099Y-115988696D01*
X191479377Y-115996239D01*
X191423555Y-116064260D01*
X191415383Y-116073276D01*
X191362201Y-116126459D01*
X191353187Y-116134629D01*
X191285163Y-116190459D01*
X191277620Y-116196183D01*
X191216447Y-116239018D01*
X191203777Y-116246801D01*
X191124613Y-116289117D01*
X191118566Y-116292141D01*
X191052702Y-116322856D01*
X191036291Y-116329135D01*
X190944984Y-116356834D01*
X190941083Y-116357948D01*
X190876456Y-116375266D01*
X190856497Y-116378897D01*
X190728461Y-116391489D01*
X190727137Y-116391612D01*
X190699459Y-116394034D01*
X190690493Y-116394819D01*
X190679686Y-116395291D01*
X122690134Y-116395291D01*
X122679330Y-116394819D01*
X122673251Y-116394287D01*
X122639951Y-116391374D01*
X122638608Y-116391249D01*
X122512965Y-116378878D01*
X122493023Y-116375250D01*
X122428328Y-116357916D01*
X122424427Y-116356802D01*
X122333162Y-116329119D01*
X122316751Y-116322841D01*
X122250868Y-116292120D01*
X122244820Y-116289096D01*
X122165667Y-116246789D01*
X122152997Y-116239006D01*
X122091829Y-116196177D01*
X122084288Y-116190456D01*
X122016254Y-116134624D01*
X122007237Y-116126451D01*
X121954057Y-116073272D01*
X121945889Y-116064260D01*
X121890040Y-115996208D01*
X121884340Y-115988696D01*
X121841489Y-115927498D01*
X121833732Y-115914871D01*
X121791384Y-115835645D01*
X121788385Y-115829644D01*
X121757666Y-115763768D01*
X121751392Y-115747370D01*
X121723686Y-115656036D01*
X121722590Y-115652198D01*
X121705251Y-115587489D01*
X121701628Y-115567570D01*
X121689131Y-115440562D01*
X121689020Y-115439364D01*
X121685697Y-115401378D01*
X121685225Y-115390572D01*
X121685225Y-114095791D01*
X123479082Y-114095791D01*
X123486755Y-114178597D01*
X123487284Y-114190038D01*
X123487284Y-114206750D01*
X123490222Y-114222469D01*
X123490354Y-114223173D01*
X123491935Y-114234510D01*
X123499610Y-114317327D01*
X123499610Y-114317329D01*
X123522370Y-114397321D01*
X123524990Y-114408460D01*
X123528062Y-114424888D01*
X123528063Y-114424893D01*
X123534097Y-114440468D01*
X123537737Y-114451328D01*
X123560495Y-114531318D01*
X123578153Y-114566779D01*
X123597566Y-114605765D01*
X123602187Y-114616231D01*
X123608227Y-114631823D01*
X123617024Y-114646029D01*
X123622597Y-114656035D01*
X123659663Y-114730474D01*
X123659667Y-114730481D01*
X123709780Y-114796841D01*
X123716250Y-114806286D01*
X123725053Y-114820502D01*
X123736310Y-114832851D01*
X123743626Y-114841661D01*
X123793745Y-114908028D01*
X123855199Y-114964051D01*
X123863298Y-114972150D01*
X123874556Y-114984500D01*
X123887896Y-114994574D01*
X123896706Y-115001890D01*
X123958158Y-115057911D01*
X123958160Y-115057912D01*
X123958163Y-115057915D01*
X124028869Y-115101694D01*
X124038315Y-115108164D01*
X124051653Y-115118237D01*
X124066624Y-115125691D01*
X124076621Y-115131261D01*
X124147314Y-115175033D01*
X124147318Y-115175035D01*
X124147321Y-115175036D01*
X124147324Y-115175038D01*
X124224878Y-115205082D01*
X124235334Y-115209700D01*
X124250301Y-115217153D01*
X124250303Y-115217153D01*
X124250306Y-115217155D01*
X124266400Y-115221734D01*
X124277236Y-115225366D01*
X124354785Y-115255409D01*
X124436552Y-115270694D01*
X124447679Y-115273311D01*
X124463753Y-115277885D01*
X124480384Y-115279426D01*
X124491713Y-115281005D01*
X124573482Y-115296291D01*
X124573484Y-115296291D01*
X124656643Y-115296291D01*
X124668084Y-115296819D01*
X124684725Y-115298362D01*
X124701365Y-115296819D01*
X124712807Y-115296291D01*
X124795967Y-115296291D01*
X124795968Y-115296291D01*
X124877732Y-115281006D01*
X124889053Y-115279427D01*
X124905697Y-115277885D01*
X124921794Y-115273304D01*
X124932886Y-115270696D01*
X125014665Y-115255409D01*
X125092239Y-115225356D01*
X125103036Y-115221737D01*
X125119144Y-115217155D01*
X125134116Y-115209700D01*
X125144572Y-115205082D01*
X125222126Y-115175038D01*
X125292862Y-115131239D01*
X125302808Y-115125700D01*
X125317797Y-115118237D01*
X125331142Y-115108159D01*
X125340548Y-115101714D01*
X125411287Y-115057915D01*
X125472765Y-115001869D01*
X125481539Y-114994584D01*
X125494892Y-114984501D01*
X125506166Y-114972133D01*
X125514231Y-114964068D01*
X125575706Y-114908027D01*
X125625833Y-114841647D01*
X125633127Y-114832863D01*
X125644397Y-114820502D01*
X125653208Y-114806271D01*
X125659652Y-114796863D01*
X125709783Y-114730480D01*
X125746863Y-114656012D01*
X125752412Y-114646050D01*
X125761222Y-114631823D01*
X125767264Y-114616225D01*
X125771871Y-114605789D01*
X125808954Y-114531319D01*
X125831721Y-114451300D01*
X125835347Y-114440482D01*
X125841388Y-114424890D01*
X125844458Y-114408462D01*
X125847071Y-114397350D01*
X125869840Y-114317327D01*
X125877514Y-114234506D01*
X125879092Y-114223189D01*
X125882166Y-114206750D01*
X125882756Y-114181146D01*
X125883249Y-114172616D01*
X125890368Y-114095791D01*
X187479082Y-114095791D01*
X187486755Y-114178597D01*
X187487284Y-114190038D01*
X187487284Y-114206750D01*
X187490222Y-114222469D01*
X187490354Y-114223173D01*
X187491935Y-114234510D01*
X187499610Y-114317327D01*
X187499610Y-114317329D01*
X187522370Y-114397321D01*
X187524990Y-114408460D01*
X187528062Y-114424888D01*
X187528063Y-114424893D01*
X187534097Y-114440468D01*
X187537737Y-114451328D01*
X187560495Y-114531318D01*
X187578153Y-114566779D01*
X187597566Y-114605765D01*
X187602187Y-114616231D01*
X187608227Y-114631823D01*
X187617024Y-114646029D01*
X187622597Y-114656035D01*
X187659663Y-114730474D01*
X187659667Y-114730481D01*
X187709780Y-114796841D01*
X187716250Y-114806286D01*
X187725053Y-114820502D01*
X187736310Y-114832851D01*
X187743626Y-114841661D01*
X187793745Y-114908028D01*
X187855199Y-114964051D01*
X187863298Y-114972150D01*
X187874556Y-114984500D01*
X187887896Y-114994574D01*
X187896706Y-115001890D01*
X187958158Y-115057911D01*
X187958160Y-115057912D01*
X187958163Y-115057915D01*
X188028869Y-115101694D01*
X188038315Y-115108164D01*
X188051653Y-115118237D01*
X188066624Y-115125691D01*
X188076621Y-115131261D01*
X188147314Y-115175033D01*
X188147318Y-115175035D01*
X188147321Y-115175036D01*
X188147324Y-115175038D01*
X188224878Y-115205082D01*
X188235334Y-115209700D01*
X188250301Y-115217153D01*
X188250303Y-115217153D01*
X188250306Y-115217155D01*
X188266400Y-115221734D01*
X188277236Y-115225366D01*
X188354785Y-115255409D01*
X188436552Y-115270694D01*
X188447679Y-115273311D01*
X188463753Y-115277885D01*
X188480384Y-115279426D01*
X188491713Y-115281005D01*
X188573482Y-115296291D01*
X188573484Y-115296291D01*
X188656643Y-115296291D01*
X188668084Y-115296819D01*
X188684725Y-115298362D01*
X188701365Y-115296819D01*
X188712807Y-115296291D01*
X188795967Y-115296291D01*
X188795968Y-115296291D01*
X188877732Y-115281006D01*
X188889053Y-115279427D01*
X188905697Y-115277885D01*
X188921794Y-115273304D01*
X188932886Y-115270696D01*
X189014665Y-115255409D01*
X189092239Y-115225356D01*
X189103036Y-115221737D01*
X189119144Y-115217155D01*
X189134116Y-115209700D01*
X189144572Y-115205082D01*
X189222126Y-115175038D01*
X189292862Y-115131239D01*
X189302808Y-115125700D01*
X189317797Y-115118237D01*
X189331142Y-115108159D01*
X189340548Y-115101714D01*
X189411287Y-115057915D01*
X189472765Y-115001869D01*
X189481539Y-114994584D01*
X189494892Y-114984501D01*
X189506166Y-114972133D01*
X189514231Y-114964068D01*
X189575706Y-114908027D01*
X189625833Y-114841647D01*
X189633127Y-114832863D01*
X189644397Y-114820502D01*
X189653208Y-114806271D01*
X189659652Y-114796863D01*
X189709783Y-114730480D01*
X189746863Y-114656012D01*
X189752412Y-114646050D01*
X189761222Y-114631823D01*
X189767264Y-114616225D01*
X189771871Y-114605789D01*
X189808954Y-114531319D01*
X189831721Y-114451300D01*
X189835347Y-114440482D01*
X189841388Y-114424890D01*
X189844458Y-114408462D01*
X189847071Y-114397350D01*
X189869840Y-114317327D01*
X189877514Y-114234506D01*
X189879092Y-114223189D01*
X189882166Y-114206750D01*
X189882756Y-114181146D01*
X189883249Y-114172616D01*
X189890368Y-114095791D01*
X189883249Y-114018968D01*
X189882756Y-114010435D01*
X189882166Y-113984832D01*
X189879090Y-113968382D01*
X189877513Y-113957062D01*
X189869840Y-113874255D01*
X189847072Y-113794236D01*
X189844458Y-113783119D01*
X189841388Y-113766692D01*
X189835349Y-113751106D01*
X189831719Y-113740275D01*
X189808954Y-113660263D01*
X189771880Y-113585810D01*
X189767258Y-113575340D01*
X189761223Y-113559761D01*
X189761222Y-113559759D01*
X189752413Y-113545533D01*
X189746860Y-113535563D01*
X189709783Y-113461102D01*
X189659659Y-113394727D01*
X189653195Y-113385290D01*
X189644397Y-113371080D01*
X189633137Y-113358728D01*
X189625823Y-113349920D01*
X189598657Y-113313947D01*
X189575706Y-113283555D01*
X189514251Y-113227531D01*
X189514248Y-113227528D01*
X189506151Y-113219431D01*
X189494895Y-113207084D01*
X189494893Y-113207082D01*
X189494892Y-113207081D01*
X189481546Y-113197002D01*
X189472753Y-113189701D01*
X189411287Y-113133667D01*
X189340583Y-113089889D01*
X189331136Y-113083418D01*
X189317793Y-113073342D01*
X189302832Y-113065892D01*
X189292830Y-113060321D01*
X189222132Y-113016547D01*
X189222131Y-113016546D01*
X189144587Y-112986504D01*
X189134121Y-112981883D01*
X189119151Y-112974430D01*
X189119147Y-112974428D01*
X189119144Y-112974427D01*
X189119136Y-112974424D01*
X189119134Y-112974424D01*
X189103062Y-112969850D01*
X189092211Y-112966213D01*
X189014668Y-112936174D01*
X189014666Y-112936173D01*
X189014665Y-112936173D01*
X189014663Y-112936172D01*
X189014654Y-112936170D01*
X188932915Y-112920890D01*
X188921769Y-112918269D01*
X188905697Y-112913696D01*
X188905693Y-112913695D01*
X188889055Y-112912153D01*
X188877721Y-112910572D01*
X188795969Y-112895291D01*
X188795968Y-112895291D01*
X188712796Y-112895291D01*
X188701356Y-112894762D01*
X188684725Y-112893221D01*
X188668093Y-112894762D01*
X188656654Y-112895291D01*
X188573480Y-112895291D01*
X188491728Y-112910572D01*
X188480395Y-112912153D01*
X188463761Y-112913695D01*
X188463747Y-112913698D01*
X188447667Y-112918272D01*
X188436529Y-112920891D01*
X188354789Y-112936171D01*
X188354779Y-112936174D01*
X188277243Y-112966212D01*
X188266391Y-112969850D01*
X188250305Y-112974427D01*
X188250295Y-112974431D01*
X188235325Y-112981884D01*
X188224862Y-112986503D01*
X188147332Y-113016540D01*
X188147320Y-113016546D01*
X188076616Y-113060323D01*
X188066615Y-113065893D01*
X188051659Y-113073340D01*
X188051654Y-113073343D01*
X188038313Y-113083417D01*
X188028874Y-113089883D01*
X187958160Y-113133668D01*
X187896693Y-113189701D01*
X187887891Y-113197011D01*
X187874555Y-113207082D01*
X187863289Y-113219440D01*
X187855197Y-113227531D01*
X187793747Y-113283551D01*
X187743626Y-113349920D01*
X187736315Y-113358724D01*
X187725055Y-113371077D01*
X187725054Y-113371077D01*
X187716256Y-113385287D01*
X187709787Y-113394731D01*
X187677163Y-113437932D01*
X187659667Y-113461102D01*
X187659666Y-113461103D01*
X187659666Y-113461104D01*
X187659659Y-113461115D01*
X187622595Y-113535548D01*
X187617028Y-113545544D01*
X187608227Y-113559759D01*
X187602191Y-113575340D01*
X187597567Y-113585811D01*
X187560498Y-113660258D01*
X187560495Y-113660264D01*
X187547710Y-113705198D01*
X187537736Y-113740256D01*
X187534098Y-113751110D01*
X187528063Y-113766686D01*
X187528062Y-113766692D01*
X187524993Y-113783107D01*
X187522372Y-113794249D01*
X187499610Y-113874255D01*
X187491936Y-113957062D01*
X187490355Y-113968398D01*
X187487284Y-113984828D01*
X187487284Y-114001542D01*
X187486755Y-114012983D01*
X187479082Y-114095790D01*
X187479082Y-114095791D01*
X125890368Y-114095791D01*
X125883249Y-114018968D01*
X125882756Y-114010435D01*
X125882166Y-113984832D01*
X125879090Y-113968382D01*
X125877513Y-113957062D01*
X125869840Y-113874255D01*
X125847072Y-113794236D01*
X125844458Y-113783119D01*
X125841388Y-113766692D01*
X125835349Y-113751106D01*
X125831719Y-113740275D01*
X125808954Y-113660263D01*
X125771880Y-113585810D01*
X125767258Y-113575340D01*
X125761223Y-113559761D01*
X125761222Y-113559759D01*
X125752413Y-113545533D01*
X125746860Y-113535563D01*
X125709783Y-113461102D01*
X125659659Y-113394727D01*
X125653195Y-113385290D01*
X125644397Y-113371080D01*
X125633137Y-113358728D01*
X125625823Y-113349920D01*
X125598657Y-113313947D01*
X125575706Y-113283555D01*
X125514251Y-113227531D01*
X125514248Y-113227528D01*
X125506151Y-113219431D01*
X125494895Y-113207084D01*
X125494893Y-113207082D01*
X125494892Y-113207081D01*
X125481546Y-113197002D01*
X125472753Y-113189701D01*
X125411287Y-113133667D01*
X125340583Y-113089889D01*
X125331136Y-113083418D01*
X125317793Y-113073342D01*
X125302832Y-113065892D01*
X125292830Y-113060321D01*
X125222132Y-113016547D01*
X125222131Y-113016546D01*
X125144587Y-112986504D01*
X125134121Y-112981883D01*
X125119151Y-112974430D01*
X125119147Y-112974428D01*
X125119144Y-112974427D01*
X125119136Y-112974424D01*
X125119134Y-112974424D01*
X125103062Y-112969850D01*
X125092211Y-112966213D01*
X125014668Y-112936174D01*
X125014666Y-112936173D01*
X125014665Y-112936173D01*
X125014663Y-112936172D01*
X125014654Y-112936170D01*
X124932915Y-112920890D01*
X124921769Y-112918269D01*
X124905697Y-112913696D01*
X124905693Y-112913695D01*
X124889055Y-112912153D01*
X124877721Y-112910572D01*
X124795969Y-112895291D01*
X124795968Y-112895291D01*
X124712796Y-112895291D01*
X124701356Y-112894762D01*
X124684725Y-112893221D01*
X124668093Y-112894762D01*
X124656654Y-112895291D01*
X124573480Y-112895291D01*
X124491728Y-112910572D01*
X124480395Y-112912153D01*
X124463761Y-112913695D01*
X124463747Y-112913698D01*
X124447667Y-112918272D01*
X124436529Y-112920891D01*
X124354789Y-112936171D01*
X124354779Y-112936174D01*
X124277243Y-112966212D01*
X124266391Y-112969850D01*
X124250305Y-112974427D01*
X124250295Y-112974431D01*
X124235325Y-112981884D01*
X124224862Y-112986503D01*
X124147332Y-113016540D01*
X124147320Y-113016546D01*
X124076616Y-113060323D01*
X124066615Y-113065893D01*
X124051659Y-113073340D01*
X124051654Y-113073343D01*
X124038313Y-113083417D01*
X124028874Y-113089883D01*
X123958160Y-113133668D01*
X123896693Y-113189701D01*
X123887891Y-113197011D01*
X123874555Y-113207082D01*
X123863289Y-113219440D01*
X123855197Y-113227531D01*
X123793747Y-113283551D01*
X123743626Y-113349920D01*
X123736315Y-113358724D01*
X123725055Y-113371077D01*
X123725054Y-113371077D01*
X123716256Y-113385287D01*
X123709787Y-113394731D01*
X123677163Y-113437932D01*
X123659667Y-113461102D01*
X123659666Y-113461103D01*
X123659666Y-113461104D01*
X123659659Y-113461115D01*
X123622595Y-113535548D01*
X123617028Y-113545544D01*
X123608227Y-113559759D01*
X123602191Y-113575340D01*
X123597567Y-113585811D01*
X123560498Y-113660258D01*
X123560495Y-113660264D01*
X123547710Y-113705198D01*
X123537736Y-113740256D01*
X123534098Y-113751110D01*
X123528063Y-113766686D01*
X123528062Y-113766692D01*
X123524993Y-113783107D01*
X123522372Y-113794249D01*
X123499610Y-113874255D01*
X123491936Y-113957062D01*
X123490355Y-113968398D01*
X123487284Y-113984828D01*
X123487284Y-114001542D01*
X123486755Y-114012983D01*
X123479082Y-114095790D01*
X123479082Y-114095791D01*
X121685225Y-114095791D01*
X121685225Y-89560000D01*
X125119341Y-89560000D01*
X125139936Y-89795403D01*
X125139938Y-89795413D01*
X125201094Y-90023655D01*
X125201096Y-90023659D01*
X125201097Y-90023663D01*
X125260242Y-90150499D01*
X125300965Y-90237830D01*
X125300967Y-90237834D01*
X125409281Y-90392521D01*
X125436501Y-90431396D01*
X125436506Y-90431402D01*
X125558430Y-90553326D01*
X125591915Y-90614649D01*
X125586931Y-90684341D01*
X125545059Y-90740274D01*
X125514083Y-90757189D01*
X125382669Y-90806203D01*
X125382664Y-90806206D01*
X125267455Y-90892452D01*
X125267452Y-90892455D01*
X125181206Y-91007664D01*
X125181202Y-91007671D01*
X125130908Y-91142517D01*
X125124501Y-91202116D01*
X125124501Y-91202123D01*
X125124500Y-91202135D01*
X125124500Y-92997870D01*
X125124501Y-92997876D01*
X125130908Y-93057483D01*
X125181202Y-93192328D01*
X125181206Y-93192335D01*
X125267452Y-93307544D01*
X125267455Y-93307547D01*
X125382664Y-93393793D01*
X125382671Y-93393797D01*
X125517517Y-93444091D01*
X125517516Y-93444091D01*
X125524444Y-93444835D01*
X125577127Y-93450500D01*
X127372872Y-93450499D01*
X127432483Y-93444091D01*
X127567331Y-93393796D01*
X127682546Y-93307546D01*
X127768796Y-93192331D01*
X127819091Y-93057483D01*
X127825500Y-92997873D01*
X127825499Y-91202128D01*
X127819091Y-91142517D01*
X127796021Y-91080664D01*
X127768797Y-91007671D01*
X127768793Y-91007664D01*
X127682547Y-90892455D01*
X127682544Y-90892452D01*
X127567335Y-90806206D01*
X127567328Y-90806202D01*
X127435917Y-90757189D01*
X127379983Y-90715318D01*
X127355566Y-90649853D01*
X127370418Y-90581580D01*
X127391563Y-90553332D01*
X127513495Y-90431401D01*
X127649035Y-90237830D01*
X127748903Y-90023663D01*
X127810063Y-89795408D01*
X127830659Y-89560000D01*
X127810063Y-89324592D01*
X127748903Y-89096337D01*
X127649035Y-88882171D01*
X127570003Y-88769300D01*
X127513494Y-88688597D01*
X127346402Y-88521506D01*
X127346396Y-88521501D01*
X127160842Y-88391575D01*
X127117217Y-88336998D01*
X127110023Y-88267500D01*
X127141546Y-88205145D01*
X127160842Y-88188425D01*
X127291313Y-88097068D01*
X127346401Y-88058495D01*
X127464713Y-87940183D01*
X127517324Y-87887573D01*
X127518988Y-87889237D01*
X127568849Y-87856083D01*
X127605638Y-87850500D01*
X128938500Y-87850500D01*
X129005539Y-87870185D01*
X129051294Y-87922989D01*
X129062500Y-87974500D01*
X129062500Y-94007032D01*
X129060772Y-94022681D01*
X129061054Y-94022708D01*
X129060319Y-94030475D01*
X129062439Y-94097917D01*
X129062500Y-94101811D01*
X129062500Y-94129476D01*
X129063006Y-94133485D01*
X129063921Y-94145116D01*
X129065298Y-94188942D01*
X129070916Y-94208275D01*
X129074862Y-94227329D01*
X129077383Y-94247287D01*
X129077386Y-94247299D01*
X129093519Y-94288048D01*
X129097302Y-94299098D01*
X129109530Y-94341187D01*
X129109530Y-94341188D01*
X129119777Y-94358515D01*
X129128335Y-94375985D01*
X129135745Y-94394701D01*
X129161511Y-94430164D01*
X129167925Y-94439929D01*
X129190234Y-94477652D01*
X129190240Y-94477660D01*
X129204469Y-94491888D01*
X129217106Y-94506684D01*
X129228937Y-94522967D01*
X129262717Y-94550912D01*
X129271346Y-94558765D01*
X130297624Y-95585043D01*
X130307471Y-95597333D01*
X130307689Y-95597154D01*
X130312657Y-95603159D01*
X130361846Y-95649351D01*
X130364643Y-95652062D01*
X130384207Y-95671626D01*
X130387385Y-95674090D01*
X130396281Y-95681687D01*
X130428235Y-95711695D01*
X130428237Y-95711696D01*
X130445868Y-95721388D01*
X130462137Y-95732074D01*
X130478037Y-95744407D01*
X130478038Y-95744408D01*
X130518262Y-95761815D01*
X130528754Y-95766955D01*
X130567161Y-95788070D01*
X130567164Y-95788071D01*
X130567166Y-95788072D01*
X130586659Y-95793076D01*
X130605067Y-95799379D01*
X130623541Y-95807374D01*
X130666844Y-95814231D01*
X130678271Y-95816598D01*
X130720728Y-95827500D01*
X130740858Y-95827500D01*
X130760255Y-95829026D01*
X130780133Y-95832175D01*
X130819928Y-95828413D01*
X130823770Y-95828050D01*
X130835439Y-95827500D01*
X141488719Y-95827500D01*
X141555758Y-95847185D01*
X141576400Y-95863819D01*
X141584207Y-95871626D01*
X141587385Y-95874090D01*
X141596281Y-95881687D01*
X141628235Y-95911695D01*
X141628237Y-95911696D01*
X141645867Y-95921387D01*
X141662135Y-95932072D01*
X141678038Y-95944408D01*
X141718262Y-95961814D01*
X141728754Y-95966954D01*
X141767158Y-95988068D01*
X141767160Y-95988069D01*
X141767166Y-95988072D01*
X141786240Y-95992969D01*
X141786660Y-95993077D01*
X141805064Y-95999377D01*
X141823542Y-96007374D01*
X141866851Y-96014233D01*
X141878258Y-96016595D01*
X141920728Y-96027500D01*
X141940858Y-96027500D01*
X141960257Y-96029027D01*
X141980133Y-96032175D01*
X142019928Y-96028413D01*
X142023770Y-96028050D01*
X142035439Y-96027500D01*
X162198053Y-96027500D01*
X162265092Y-96047185D01*
X162290199Y-96068523D01*
X162294129Y-96072888D01*
X162294132Y-96072891D01*
X162294135Y-96072893D01*
X162447265Y-96184148D01*
X162447270Y-96184151D01*
X162620192Y-96261142D01*
X162620197Y-96261144D01*
X162805354Y-96300500D01*
X162805355Y-96300500D01*
X162994644Y-96300500D01*
X162994646Y-96300500D01*
X163179803Y-96261144D01*
X163352730Y-96184151D01*
X163505871Y-96072888D01*
X163632533Y-95932216D01*
X163727179Y-95768284D01*
X163785674Y-95588256D01*
X163805460Y-95400000D01*
X163785674Y-95211744D01*
X163727179Y-95031716D01*
X163632533Y-94867784D01*
X163505871Y-94727112D01*
X163505870Y-94727111D01*
X163352734Y-94615851D01*
X163352729Y-94615848D01*
X163179807Y-94538857D01*
X163179802Y-94538855D01*
X163028458Y-94506687D01*
X162994646Y-94499500D01*
X162805354Y-94499500D01*
X162784851Y-94503858D01*
X162620197Y-94538855D01*
X162620192Y-94538857D01*
X162447270Y-94615848D01*
X162447265Y-94615851D01*
X162294135Y-94727106D01*
X162294132Y-94727108D01*
X162292990Y-94728377D01*
X162290200Y-94731474D01*
X162230714Y-94768121D01*
X162198053Y-94772500D01*
X142311282Y-94772500D01*
X142244243Y-94752815D01*
X142223601Y-94736181D01*
X142215797Y-94728377D01*
X142212607Y-94725903D01*
X142203716Y-94718310D01*
X142171768Y-94688308D01*
X142171763Y-94688304D01*
X142154122Y-94678606D01*
X142137857Y-94667922D01*
X142121963Y-94655593D01*
X142121962Y-94655592D01*
X142081735Y-94638184D01*
X142071247Y-94633045D01*
X142032838Y-94611929D01*
X142032828Y-94611926D01*
X142013334Y-94606920D01*
X141994933Y-94600620D01*
X141976459Y-94592626D01*
X141976452Y-94592624D01*
X141933173Y-94585770D01*
X141921733Y-94583401D01*
X141879279Y-94572500D01*
X141879272Y-94572500D01*
X141869579Y-94572500D01*
X141802540Y-94552815D01*
X141756785Y-94500011D01*
X141746841Y-94430853D01*
X141775866Y-94367297D01*
X141830574Y-94330794D01*
X141969334Y-94284814D01*
X142118655Y-94192711D01*
X142242711Y-94068655D01*
X142334814Y-93919334D01*
X142389999Y-93752797D01*
X142400500Y-93650008D01*
X142400500Y-91349992D01*
X142389999Y-91247203D01*
X142334814Y-91080666D01*
X142328349Y-91070185D01*
X142242713Y-90931348D01*
X142242710Y-90931344D01*
X142118655Y-90807289D01*
X142118651Y-90807286D01*
X141969337Y-90715187D01*
X141969335Y-90715186D01*
X141876250Y-90684341D01*
X141802797Y-90660001D01*
X141802795Y-90660000D01*
X141700015Y-90649500D01*
X141700008Y-90649500D01*
X139512230Y-90649500D01*
X139445191Y-90629815D01*
X139424549Y-90613181D01*
X138953876Y-90142508D01*
X138920391Y-90081185D01*
X138925375Y-90011493D01*
X138967247Y-89955560D01*
X139032711Y-89931143D01*
X139094186Y-89942550D01*
X139287176Y-90033020D01*
X139287183Y-90033022D01*
X139287185Y-90033023D01*
X139546557Y-90111057D01*
X139546564Y-90111058D01*
X139546569Y-90111060D01*
X139814561Y-90150500D01*
X139814566Y-90150500D01*
X140617629Y-90150500D01*
X140617631Y-90150500D01*
X140617636Y-90150499D01*
X140617648Y-90150499D01*
X140655191Y-90147750D01*
X140820156Y-90135677D01*
X140932758Y-90110593D01*
X141084546Y-90076782D01*
X141084548Y-90076781D01*
X141084553Y-90076780D01*
X141337558Y-89980014D01*
X141573777Y-89847441D01*
X141788177Y-89681888D01*
X141976186Y-89486881D01*
X142133799Y-89266579D01*
X142221327Y-89096335D01*
X142257649Y-89025690D01*
X142257651Y-89025684D01*
X142257656Y-89025675D01*
X142345118Y-88769305D01*
X142394319Y-88502933D01*
X142404212Y-88232235D01*
X142374586Y-87962982D01*
X142306072Y-87700912D01*
X142200130Y-87451610D01*
X142059018Y-87220390D01*
X141969747Y-87113119D01*
X141885746Y-87012180D01*
X141885740Y-87012175D01*
X141684002Y-86831418D01*
X141458092Y-86681957D01*
X141458090Y-86681956D01*
X141212824Y-86566980D01*
X141212819Y-86566978D01*
X141212814Y-86566976D01*
X140953442Y-86488942D01*
X140953428Y-86488939D01*
X140837791Y-86471921D01*
X140685439Y-86449500D01*
X139882369Y-86449500D01*
X139882351Y-86449500D01*
X139679844Y-86464323D01*
X139679831Y-86464325D01*
X139415453Y-86523217D01*
X139415446Y-86523220D01*
X139162439Y-86619987D01*
X138926226Y-86752557D01*
X138926224Y-86752558D01*
X138926223Y-86752559D01*
X138863893Y-86800688D01*
X138711822Y-86918112D01*
X138523822Y-87113109D01*
X138523816Y-87113116D01*
X138366202Y-87333419D01*
X138366199Y-87333424D01*
X138242350Y-87574309D01*
X138242343Y-87574327D01*
X138154884Y-87830685D01*
X138154881Y-87830699D01*
X138105681Y-88097068D01*
X138105680Y-88097075D01*
X138095787Y-88367763D01*
X138125413Y-88637013D01*
X138125415Y-88637024D01*
X138189505Y-88882171D01*
X138193928Y-88899088D01*
X138299870Y-89148390D01*
X138440982Y-89379610D01*
X138456669Y-89398461D01*
X138484423Y-89462580D01*
X138473104Y-89531527D01*
X138426307Y-89583410D01*
X138358889Y-89601755D01*
X138315710Y-89591070D01*
X138315216Y-89592429D01*
X138301645Y-89587489D01*
X138301665Y-89587433D01*
X138294549Y-89584959D01*
X138294531Y-89585015D01*
X138287674Y-89582743D01*
X138214210Y-89567573D01*
X138210693Y-89566793D01*
X138137718Y-89549499D01*
X138130547Y-89548661D01*
X138130553Y-89548601D01*
X138123055Y-89547835D01*
X138123050Y-89547895D01*
X138115860Y-89547265D01*
X138040870Y-89549448D01*
X138037263Y-89549500D01*
X136672568Y-89549500D01*
X136605529Y-89529815D01*
X136559774Y-89477011D01*
X136549830Y-89407853D01*
X136571720Y-89353349D01*
X136592298Y-89324586D01*
X136633799Y-89266579D01*
X136721327Y-89096335D01*
X136757649Y-89025690D01*
X136757651Y-89025684D01*
X136757656Y-89025675D01*
X136845118Y-88769305D01*
X136894319Y-88502933D01*
X136904212Y-88232235D01*
X136874586Y-87962982D01*
X136806072Y-87700912D01*
X136700130Y-87451610D01*
X136559018Y-87220390D01*
X136469747Y-87113119D01*
X136385746Y-87012180D01*
X136385740Y-87012175D01*
X136184002Y-86831418D01*
X135958092Y-86681957D01*
X135958090Y-86681956D01*
X135712824Y-86566980D01*
X135712819Y-86566978D01*
X135712814Y-86566976D01*
X135453442Y-86488942D01*
X135453428Y-86488939D01*
X135337791Y-86471921D01*
X135185439Y-86449500D01*
X134382369Y-86449500D01*
X134382351Y-86449500D01*
X134179844Y-86464323D01*
X134179831Y-86464325D01*
X133915453Y-86523217D01*
X133915446Y-86523220D01*
X133662439Y-86619987D01*
X133426226Y-86752557D01*
X133426224Y-86752558D01*
X133426223Y-86752559D01*
X133363893Y-86800688D01*
X133211822Y-86918112D01*
X133023822Y-87113109D01*
X133023816Y-87113116D01*
X132866202Y-87333419D01*
X132866199Y-87333424D01*
X132817824Y-87427514D01*
X132769664Y-87478135D01*
X132701782Y-87494682D01*
X132635730Y-87471903D01*
X132619865Y-87458497D01*
X131775729Y-86614361D01*
X131763949Y-86600730D01*
X131749610Y-86581470D01*
X131711651Y-86549619D01*
X131703686Y-86542318D01*
X131699780Y-86538411D01*
X131675443Y-86519168D01*
X131672647Y-86516890D01*
X131615214Y-86468698D01*
X131609180Y-86464729D01*
X131609212Y-86464680D01*
X131602853Y-86460628D01*
X131602822Y-86460679D01*
X131596680Y-86456891D01*
X131596678Y-86456890D01*
X131596677Y-86456889D01*
X131528688Y-86425184D01*
X131525447Y-86423615D01*
X131475352Y-86398457D01*
X131458433Y-86389960D01*
X131458431Y-86389959D01*
X131458430Y-86389959D01*
X131451645Y-86387489D01*
X131451665Y-86387433D01*
X131444549Y-86384959D01*
X131444531Y-86385015D01*
X131437674Y-86382743D01*
X131364210Y-86367573D01*
X131360693Y-86366793D01*
X131287718Y-86349499D01*
X131280547Y-86348661D01*
X131280553Y-86348601D01*
X131273055Y-86347835D01*
X131273050Y-86347895D01*
X131265860Y-86347265D01*
X131190870Y-86349448D01*
X131187263Y-86349500D01*
X131171139Y-86349500D01*
X131108018Y-86332232D01*
X131099393Y-86327131D01*
X131099388Y-86327129D01*
X130945208Y-86282335D01*
X130945202Y-86282334D01*
X130909181Y-86279500D01*
X130510830Y-86279500D01*
X130510808Y-86279501D01*
X130474794Y-86282335D01*
X130320611Y-86327129D01*
X130320604Y-86327132D01*
X130263119Y-86361128D01*
X130195395Y-86378309D01*
X130136881Y-86361128D01*
X130079395Y-86327132D01*
X130079388Y-86327129D01*
X129925208Y-86282335D01*
X129925202Y-86282334D01*
X129889181Y-86279500D01*
X129490830Y-86279500D01*
X129490808Y-86279501D01*
X129454794Y-86282335D01*
X129300611Y-86327129D01*
X129300606Y-86327131D01*
X129291982Y-86332232D01*
X129228861Y-86349500D01*
X127718717Y-86349500D01*
X127651678Y-86329815D01*
X127617142Y-86296623D01*
X127513494Y-86148597D01*
X127346402Y-85981506D01*
X127346395Y-85981501D01*
X127152834Y-85845967D01*
X127152830Y-85845965D01*
X127125069Y-85833020D01*
X126938663Y-85746097D01*
X126938659Y-85746096D01*
X126938655Y-85746094D01*
X126710413Y-85684938D01*
X126710403Y-85684936D01*
X126475001Y-85664341D01*
X126474999Y-85664341D01*
X126239596Y-85684936D01*
X126239586Y-85684938D01*
X126011344Y-85746094D01*
X126011335Y-85746098D01*
X125797171Y-85845964D01*
X125797169Y-85845965D01*
X125603597Y-85981505D01*
X125436505Y-86148597D01*
X125300965Y-86342169D01*
X125300964Y-86342171D01*
X125201098Y-86556335D01*
X125201094Y-86556344D01*
X125139938Y-86784586D01*
X125139936Y-86784596D01*
X125119341Y-87019999D01*
X125119341Y-87020000D01*
X125139936Y-87255403D01*
X125139938Y-87255413D01*
X125201094Y-87483655D01*
X125201096Y-87483659D01*
X125201097Y-87483663D01*
X125253818Y-87596723D01*
X125300965Y-87697830D01*
X125300967Y-87697834D01*
X125436501Y-87891395D01*
X125436506Y-87891402D01*
X125603597Y-88058493D01*
X125603603Y-88058498D01*
X125789158Y-88188425D01*
X125832783Y-88243002D01*
X125839977Y-88312500D01*
X125808454Y-88374855D01*
X125789158Y-88391575D01*
X125603597Y-88521505D01*
X125436505Y-88688597D01*
X125300965Y-88882169D01*
X125300964Y-88882171D01*
X125201098Y-89096335D01*
X125201094Y-89096344D01*
X125139938Y-89324586D01*
X125139936Y-89324596D01*
X125119341Y-89559999D01*
X125119341Y-89560000D01*
X121685225Y-89560000D01*
X121685225Y-84167763D01*
X132595787Y-84167763D01*
X132625413Y-84437013D01*
X132625415Y-84437024D01*
X132693926Y-84699082D01*
X132693928Y-84699088D01*
X132799870Y-84948390D01*
X132871998Y-85066575D01*
X132940979Y-85179605D01*
X132940986Y-85179615D01*
X133114253Y-85387819D01*
X133114259Y-85387824D01*
X133315998Y-85568582D01*
X133541910Y-85718044D01*
X133787176Y-85833020D01*
X133787183Y-85833022D01*
X133787185Y-85833023D01*
X134046557Y-85911057D01*
X134046564Y-85911058D01*
X134046569Y-85911060D01*
X134314561Y-85950500D01*
X134314566Y-85950500D01*
X135117629Y-85950500D01*
X135117631Y-85950500D01*
X135117636Y-85950499D01*
X135117648Y-85950499D01*
X135155191Y-85947750D01*
X135320156Y-85935677D01*
X135432758Y-85910593D01*
X135584546Y-85876782D01*
X135584548Y-85876781D01*
X135584553Y-85876780D01*
X135837558Y-85780014D01*
X136073777Y-85647441D01*
X136288177Y-85481888D01*
X136476186Y-85286881D01*
X136633799Y-85066579D01*
X136707787Y-84922669D01*
X136757649Y-84825690D01*
X136757651Y-84825684D01*
X136757656Y-84825675D01*
X136845118Y-84569305D01*
X136894319Y-84302933D01*
X136899259Y-84167763D01*
X138095787Y-84167763D01*
X138125413Y-84437013D01*
X138125415Y-84437024D01*
X138193926Y-84699082D01*
X138193928Y-84699088D01*
X138299870Y-84948390D01*
X138371998Y-85066575D01*
X138440979Y-85179605D01*
X138440986Y-85179615D01*
X138614253Y-85387819D01*
X138614259Y-85387824D01*
X138815998Y-85568582D01*
X139041910Y-85718044D01*
X139287176Y-85833020D01*
X139287183Y-85833022D01*
X139287185Y-85833023D01*
X139546557Y-85911057D01*
X139546564Y-85911058D01*
X139546569Y-85911060D01*
X139814561Y-85950500D01*
X139814566Y-85950500D01*
X140617629Y-85950500D01*
X140617631Y-85950500D01*
X140617636Y-85950499D01*
X140617648Y-85950499D01*
X140655191Y-85947750D01*
X140820156Y-85935677D01*
X140932758Y-85910593D01*
X141084546Y-85876782D01*
X141084548Y-85876781D01*
X141084553Y-85876780D01*
X141337558Y-85780014D01*
X141573777Y-85647441D01*
X141788177Y-85481888D01*
X141976186Y-85286881D01*
X142133799Y-85066579D01*
X142207787Y-84922669D01*
X142257649Y-84825690D01*
X142257651Y-84825684D01*
X142257656Y-84825675D01*
X142345118Y-84569305D01*
X142394319Y-84302933D01*
X142404212Y-84032235D01*
X142374586Y-83762982D01*
X142306072Y-83500912D01*
X142200130Y-83251610D01*
X142059018Y-83020390D01*
X141969747Y-82913119D01*
X141885746Y-82812180D01*
X141885740Y-82812175D01*
X141684002Y-82631418D01*
X141458092Y-82481957D01*
X141458090Y-82481956D01*
X141212824Y-82366980D01*
X141212819Y-82366978D01*
X141212814Y-82366976D01*
X140953442Y-82288942D01*
X140953428Y-82288939D01*
X140837791Y-82271921D01*
X140685439Y-82249500D01*
X139882369Y-82249500D01*
X139882351Y-82249500D01*
X139679844Y-82264323D01*
X139679831Y-82264325D01*
X139415453Y-82323217D01*
X139415446Y-82323220D01*
X139162439Y-82419987D01*
X138926226Y-82552557D01*
X138711822Y-82718112D01*
X138523822Y-82913109D01*
X138523816Y-82913116D01*
X138366202Y-83133419D01*
X138366199Y-83133424D01*
X138242350Y-83374309D01*
X138242343Y-83374327D01*
X138154884Y-83630685D01*
X138154881Y-83630699D01*
X138105681Y-83897068D01*
X138105680Y-83897075D01*
X138095787Y-84167763D01*
X136899259Y-84167763D01*
X136904212Y-84032235D01*
X136874586Y-83762982D01*
X136806072Y-83500912D01*
X136700130Y-83251610D01*
X136559018Y-83020390D01*
X136469747Y-82913119D01*
X136385746Y-82812180D01*
X136385740Y-82812175D01*
X136184002Y-82631418D01*
X135958092Y-82481957D01*
X135958090Y-82481956D01*
X135712824Y-82366980D01*
X135712819Y-82366978D01*
X135712814Y-82366976D01*
X135453442Y-82288942D01*
X135453428Y-82288939D01*
X135337791Y-82271921D01*
X135185439Y-82249500D01*
X134382369Y-82249500D01*
X134382351Y-82249500D01*
X134179844Y-82264323D01*
X134179831Y-82264325D01*
X133915453Y-82323217D01*
X133915446Y-82323220D01*
X133662439Y-82419987D01*
X133426226Y-82552557D01*
X133211822Y-82718112D01*
X133023822Y-82913109D01*
X133023816Y-82913116D01*
X132866202Y-83133419D01*
X132866199Y-83133424D01*
X132742350Y-83374309D01*
X132742343Y-83374327D01*
X132654884Y-83630685D01*
X132654881Y-83630699D01*
X132605681Y-83897068D01*
X132605680Y-83897075D01*
X132595787Y-84167763D01*
X121685225Y-84167763D01*
X121685225Y-60075791D01*
X123479082Y-60075791D01*
X123486755Y-60158597D01*
X123487284Y-60170038D01*
X123487284Y-60186750D01*
X123490222Y-60202469D01*
X123490354Y-60203173D01*
X123491935Y-60214510D01*
X123499610Y-60297327D01*
X123499610Y-60297329D01*
X123522370Y-60377321D01*
X123524990Y-60388460D01*
X123528062Y-60404888D01*
X123528063Y-60404893D01*
X123534097Y-60420468D01*
X123537737Y-60431328D01*
X123560495Y-60511318D01*
X123578153Y-60546779D01*
X123597566Y-60585765D01*
X123602187Y-60596231D01*
X123608227Y-60611823D01*
X123617024Y-60626029D01*
X123622597Y-60636035D01*
X123659663Y-60710474D01*
X123659667Y-60710481D01*
X123709780Y-60776841D01*
X123716250Y-60786286D01*
X123725053Y-60800502D01*
X123736310Y-60812851D01*
X123743626Y-60821661D01*
X123793745Y-60888028D01*
X123855199Y-60944051D01*
X123863298Y-60952150D01*
X123874556Y-60964500D01*
X123887896Y-60974574D01*
X123896706Y-60981890D01*
X123958158Y-61037911D01*
X123958160Y-61037912D01*
X123958163Y-61037915D01*
X124028869Y-61081694D01*
X124038315Y-61088164D01*
X124051653Y-61098237D01*
X124066624Y-61105691D01*
X124076621Y-61111261D01*
X124147314Y-61155033D01*
X124147318Y-61155035D01*
X124147321Y-61155036D01*
X124147324Y-61155038D01*
X124224878Y-61185082D01*
X124235334Y-61189700D01*
X124250301Y-61197153D01*
X124250303Y-61197153D01*
X124250306Y-61197155D01*
X124266400Y-61201734D01*
X124277236Y-61205366D01*
X124354785Y-61235409D01*
X124436552Y-61250694D01*
X124447679Y-61253311D01*
X124463753Y-61257885D01*
X124480384Y-61259426D01*
X124491713Y-61261005D01*
X124573482Y-61276291D01*
X124573484Y-61276291D01*
X124656643Y-61276291D01*
X124668084Y-61276819D01*
X124684725Y-61278362D01*
X124701365Y-61276819D01*
X124712807Y-61276291D01*
X124795967Y-61276291D01*
X124795968Y-61276291D01*
X124877732Y-61261006D01*
X124889053Y-61259427D01*
X124905697Y-61257885D01*
X124921794Y-61253304D01*
X124932886Y-61250696D01*
X125014665Y-61235409D01*
X125092239Y-61205356D01*
X125103036Y-61201737D01*
X125119144Y-61197155D01*
X125134116Y-61189700D01*
X125144572Y-61185082D01*
X125222126Y-61155038D01*
X125292862Y-61111239D01*
X125302808Y-61105700D01*
X125317797Y-61098237D01*
X125331142Y-61088159D01*
X125340548Y-61081714D01*
X125411287Y-61037915D01*
X125472765Y-60981869D01*
X125481539Y-60974584D01*
X125494892Y-60964501D01*
X125506166Y-60952133D01*
X125514231Y-60944068D01*
X125575706Y-60888027D01*
X125625833Y-60821647D01*
X125633127Y-60812863D01*
X125644397Y-60800502D01*
X125653208Y-60786271D01*
X125659652Y-60776863D01*
X125709783Y-60710480D01*
X125746863Y-60636012D01*
X125752412Y-60626050D01*
X125761222Y-60611823D01*
X125767264Y-60596225D01*
X125771871Y-60585789D01*
X125808954Y-60511319D01*
X125831721Y-60431300D01*
X125835347Y-60420482D01*
X125841388Y-60404890D01*
X125844458Y-60388462D01*
X125847071Y-60377350D01*
X125869840Y-60297327D01*
X125877514Y-60214506D01*
X125879092Y-60203189D01*
X125882166Y-60186750D01*
X125882756Y-60161146D01*
X125883249Y-60152616D01*
X125890368Y-60075791D01*
X187479082Y-60075791D01*
X187486755Y-60158597D01*
X187487284Y-60170038D01*
X187487284Y-60186750D01*
X187490222Y-60202469D01*
X187490354Y-60203173D01*
X187491935Y-60214510D01*
X187499610Y-60297327D01*
X187499610Y-60297329D01*
X187522370Y-60377321D01*
X187524990Y-60388460D01*
X187528062Y-60404888D01*
X187528063Y-60404893D01*
X187534097Y-60420468D01*
X187537737Y-60431328D01*
X187560495Y-60511318D01*
X187578153Y-60546779D01*
X187597566Y-60585765D01*
X187602187Y-60596231D01*
X187608227Y-60611823D01*
X187617024Y-60626029D01*
X187622597Y-60636035D01*
X187659663Y-60710474D01*
X187659667Y-60710481D01*
X187709780Y-60776841D01*
X187716250Y-60786286D01*
X187725053Y-60800502D01*
X187736310Y-60812851D01*
X187743626Y-60821661D01*
X187793745Y-60888028D01*
X187855199Y-60944051D01*
X187863298Y-60952150D01*
X187874556Y-60964500D01*
X187887896Y-60974574D01*
X187896706Y-60981890D01*
X187958158Y-61037911D01*
X187958160Y-61037912D01*
X187958163Y-61037915D01*
X188028869Y-61081694D01*
X188038315Y-61088164D01*
X188051653Y-61098237D01*
X188066624Y-61105691D01*
X188076621Y-61111261D01*
X188147314Y-61155033D01*
X188147318Y-61155035D01*
X188147321Y-61155036D01*
X188147324Y-61155038D01*
X188224878Y-61185082D01*
X188235334Y-61189700D01*
X188250301Y-61197153D01*
X188250303Y-61197153D01*
X188250306Y-61197155D01*
X188266400Y-61201734D01*
X188277236Y-61205366D01*
X188354785Y-61235409D01*
X188436552Y-61250694D01*
X188447679Y-61253311D01*
X188463753Y-61257885D01*
X188480384Y-61259426D01*
X188491713Y-61261005D01*
X188573482Y-61276291D01*
X188573484Y-61276291D01*
X188656643Y-61276291D01*
X188668084Y-61276819D01*
X188684725Y-61278362D01*
X188701365Y-61276819D01*
X188712807Y-61276291D01*
X188795967Y-61276291D01*
X188795968Y-61276291D01*
X188877732Y-61261006D01*
X188889053Y-61259427D01*
X188905697Y-61257885D01*
X188921794Y-61253304D01*
X188932886Y-61250696D01*
X189014665Y-61235409D01*
X189092239Y-61205356D01*
X189103036Y-61201737D01*
X189119144Y-61197155D01*
X189134116Y-61189700D01*
X189144572Y-61185082D01*
X189222126Y-61155038D01*
X189292862Y-61111239D01*
X189302808Y-61105700D01*
X189317797Y-61098237D01*
X189331142Y-61088159D01*
X189340548Y-61081714D01*
X189411287Y-61037915D01*
X189472765Y-60981869D01*
X189481539Y-60974584D01*
X189494892Y-60964501D01*
X189506166Y-60952133D01*
X189514231Y-60944068D01*
X189575706Y-60888027D01*
X189625833Y-60821647D01*
X189633127Y-60812863D01*
X189644397Y-60800502D01*
X189653208Y-60786271D01*
X189659652Y-60776863D01*
X189709783Y-60710480D01*
X189746863Y-60636012D01*
X189752412Y-60626050D01*
X189761222Y-60611823D01*
X189767264Y-60596225D01*
X189771871Y-60585789D01*
X189808954Y-60511319D01*
X189831721Y-60431300D01*
X189835347Y-60420482D01*
X189841388Y-60404890D01*
X189844458Y-60388462D01*
X189847071Y-60377350D01*
X189869840Y-60297327D01*
X189877514Y-60214506D01*
X189879092Y-60203189D01*
X189882166Y-60186750D01*
X189882756Y-60161146D01*
X189883249Y-60152616D01*
X189890368Y-60075791D01*
X189883249Y-59998968D01*
X189882756Y-59990435D01*
X189882166Y-59964832D01*
X189879090Y-59948382D01*
X189877513Y-59937062D01*
X189869840Y-59854255D01*
X189847072Y-59774236D01*
X189844458Y-59763119D01*
X189841388Y-59746692D01*
X189835349Y-59731106D01*
X189831719Y-59720275D01*
X189808954Y-59640263D01*
X189771880Y-59565810D01*
X189767258Y-59555340D01*
X189761223Y-59539761D01*
X189761222Y-59539759D01*
X189752413Y-59525533D01*
X189746860Y-59515563D01*
X189709783Y-59441102D01*
X189659659Y-59374727D01*
X189653195Y-59365290D01*
X189644397Y-59351080D01*
X189633137Y-59338728D01*
X189625823Y-59329920D01*
X189598657Y-59293947D01*
X189575706Y-59263555D01*
X189514251Y-59207531D01*
X189514248Y-59207528D01*
X189506151Y-59199431D01*
X189494895Y-59187084D01*
X189494893Y-59187082D01*
X189494892Y-59187081D01*
X189481546Y-59177002D01*
X189472753Y-59169701D01*
X189411287Y-59113667D01*
X189340583Y-59069889D01*
X189331136Y-59063418D01*
X189317793Y-59053342D01*
X189302832Y-59045892D01*
X189292830Y-59040321D01*
X189222132Y-58996547D01*
X189222131Y-58996546D01*
X189144587Y-58966504D01*
X189134121Y-58961883D01*
X189119151Y-58954430D01*
X189119147Y-58954428D01*
X189119144Y-58954427D01*
X189119136Y-58954424D01*
X189119134Y-58954424D01*
X189103062Y-58949850D01*
X189092211Y-58946213D01*
X189014668Y-58916174D01*
X189014666Y-58916173D01*
X189014665Y-58916173D01*
X189014663Y-58916172D01*
X189014654Y-58916170D01*
X188932915Y-58900890D01*
X188921769Y-58898269D01*
X188905697Y-58893696D01*
X188905693Y-58893695D01*
X188889055Y-58892153D01*
X188877721Y-58890572D01*
X188795969Y-58875291D01*
X188795968Y-58875291D01*
X188712796Y-58875291D01*
X188701356Y-58874762D01*
X188684725Y-58873221D01*
X188668093Y-58874762D01*
X188656654Y-58875291D01*
X188573480Y-58875291D01*
X188491728Y-58890572D01*
X188480395Y-58892153D01*
X188463761Y-58893695D01*
X188463747Y-58893698D01*
X188447667Y-58898272D01*
X188436529Y-58900891D01*
X188354789Y-58916171D01*
X188354779Y-58916174D01*
X188277243Y-58946212D01*
X188266391Y-58949850D01*
X188250305Y-58954427D01*
X188250295Y-58954431D01*
X188235325Y-58961884D01*
X188224862Y-58966503D01*
X188147332Y-58996540D01*
X188147320Y-58996546D01*
X188076616Y-59040323D01*
X188066615Y-59045893D01*
X188051659Y-59053340D01*
X188051654Y-59053343D01*
X188038313Y-59063417D01*
X188028874Y-59069883D01*
X187958160Y-59113668D01*
X187896693Y-59169701D01*
X187887891Y-59177011D01*
X187874555Y-59187082D01*
X187863289Y-59199440D01*
X187855197Y-59207531D01*
X187793747Y-59263551D01*
X187743626Y-59329920D01*
X187736315Y-59338724D01*
X187725055Y-59351077D01*
X187725054Y-59351077D01*
X187716256Y-59365287D01*
X187709787Y-59374731D01*
X187677163Y-59417932D01*
X187659667Y-59441102D01*
X187659666Y-59441103D01*
X187659666Y-59441104D01*
X187659659Y-59441115D01*
X187622595Y-59515548D01*
X187617028Y-59525544D01*
X187608227Y-59539759D01*
X187602191Y-59555340D01*
X187597567Y-59565811D01*
X187560498Y-59640258D01*
X187560495Y-59640264D01*
X187547710Y-59685198D01*
X187537736Y-59720256D01*
X187534098Y-59731110D01*
X187528063Y-59746686D01*
X187528062Y-59746692D01*
X187524993Y-59763107D01*
X187522372Y-59774249D01*
X187499610Y-59854255D01*
X187491936Y-59937062D01*
X187490355Y-59948398D01*
X187487284Y-59964828D01*
X187487284Y-59981542D01*
X187486755Y-59992983D01*
X187479082Y-60075790D01*
X187479082Y-60075791D01*
X125890368Y-60075791D01*
X125883249Y-59998968D01*
X125882756Y-59990435D01*
X125882166Y-59964832D01*
X125879090Y-59948382D01*
X125877513Y-59937062D01*
X125869840Y-59854255D01*
X125847072Y-59774236D01*
X125844458Y-59763119D01*
X125841388Y-59746692D01*
X125835349Y-59731106D01*
X125831719Y-59720275D01*
X125808954Y-59640263D01*
X125771880Y-59565810D01*
X125767258Y-59555340D01*
X125761223Y-59539761D01*
X125761222Y-59539759D01*
X125752413Y-59525533D01*
X125746860Y-59515563D01*
X125709783Y-59441102D01*
X125659659Y-59374727D01*
X125653195Y-59365290D01*
X125644397Y-59351080D01*
X125633137Y-59338728D01*
X125625823Y-59329920D01*
X125598657Y-59293947D01*
X125575706Y-59263555D01*
X125514251Y-59207531D01*
X125514248Y-59207528D01*
X125506151Y-59199431D01*
X125494895Y-59187084D01*
X125494893Y-59187082D01*
X125494892Y-59187081D01*
X125481546Y-59177002D01*
X125472753Y-59169701D01*
X125411287Y-59113667D01*
X125340583Y-59069889D01*
X125331136Y-59063418D01*
X125317793Y-59053342D01*
X125302832Y-59045892D01*
X125292830Y-59040321D01*
X125222132Y-58996547D01*
X125222131Y-58996546D01*
X125144587Y-58966504D01*
X125134121Y-58961883D01*
X125119151Y-58954430D01*
X125119147Y-58954428D01*
X125119144Y-58954427D01*
X125119136Y-58954424D01*
X125119134Y-58954424D01*
X125103062Y-58949850D01*
X125092211Y-58946213D01*
X125014668Y-58916174D01*
X125014666Y-58916173D01*
X125014665Y-58916173D01*
X125014663Y-58916172D01*
X125014654Y-58916170D01*
X124932915Y-58900890D01*
X124921769Y-58898269D01*
X124905697Y-58893696D01*
X124905693Y-58893695D01*
X124889055Y-58892153D01*
X124877721Y-58890572D01*
X124795969Y-58875291D01*
X124795968Y-58875291D01*
X124712796Y-58875291D01*
X124701356Y-58874762D01*
X124684725Y-58873221D01*
X124668093Y-58874762D01*
X124656654Y-58875291D01*
X124573480Y-58875291D01*
X124491728Y-58890572D01*
X124480395Y-58892153D01*
X124463761Y-58893695D01*
X124463747Y-58893698D01*
X124447667Y-58898272D01*
X124436529Y-58900891D01*
X124354789Y-58916171D01*
X124354779Y-58916174D01*
X124277243Y-58946212D01*
X124266391Y-58949850D01*
X124250305Y-58954427D01*
X124250295Y-58954431D01*
X124235325Y-58961884D01*
X124224862Y-58966503D01*
X124147332Y-58996540D01*
X124147320Y-58996546D01*
X124076616Y-59040323D01*
X124066615Y-59045893D01*
X124051659Y-59053340D01*
X124051654Y-59053343D01*
X124038313Y-59063417D01*
X124028874Y-59069883D01*
X123958160Y-59113668D01*
X123896693Y-59169701D01*
X123887891Y-59177011D01*
X123874555Y-59187082D01*
X123863289Y-59199440D01*
X123855197Y-59207531D01*
X123793747Y-59263551D01*
X123743626Y-59329920D01*
X123736315Y-59338724D01*
X123725055Y-59351077D01*
X123725054Y-59351077D01*
X123716256Y-59365287D01*
X123709787Y-59374731D01*
X123677163Y-59417932D01*
X123659667Y-59441102D01*
X123659666Y-59441103D01*
X123659666Y-59441104D01*
X123659659Y-59441115D01*
X123622595Y-59515548D01*
X123617028Y-59525544D01*
X123608227Y-59539759D01*
X123602191Y-59555340D01*
X123597567Y-59565811D01*
X123560498Y-59640258D01*
X123560495Y-59640264D01*
X123547710Y-59685198D01*
X123537736Y-59720256D01*
X123534098Y-59731110D01*
X123528063Y-59746686D01*
X123528062Y-59746692D01*
X123524993Y-59763107D01*
X123522372Y-59774249D01*
X123499610Y-59854255D01*
X123491936Y-59937062D01*
X123490355Y-59948398D01*
X123487284Y-59964828D01*
X123487284Y-59981542D01*
X123486755Y-59992983D01*
X123479082Y-60075790D01*
X123479082Y-60075791D01*
X121685225Y-60075791D01*
X121685225Y-58781202D01*
X121685697Y-58770395D01*
X121689152Y-58730902D01*
X121689253Y-58729817D01*
X121701645Y-58604013D01*
X121705264Y-58584119D01*
X121722642Y-58519269D01*
X121723670Y-58515666D01*
X121751413Y-58424218D01*
X121757680Y-58407837D01*
X121788433Y-58341890D01*
X121791384Y-58335988D01*
X121833751Y-58256727D01*
X121841518Y-58244086D01*
X121884372Y-58182887D01*
X121890053Y-58175399D01*
X121945917Y-58107331D01*
X121954055Y-58098351D01*
X122007274Y-58045133D01*
X122016252Y-58036998D01*
X122084313Y-57981143D01*
X122091837Y-57975436D01*
X122095847Y-57972628D01*
X122153017Y-57932598D01*
X122165670Y-57924826D01*
X122244885Y-57882487D01*
X122250850Y-57879504D01*
X122316765Y-57848769D01*
X122333154Y-57842500D01*
X122424545Y-57814778D01*
X122428305Y-57813705D01*
X122493059Y-57796356D01*
X122512948Y-57792735D01*
X122636473Y-57780550D01*
X122637381Y-57780465D01*
X122679729Y-57776761D01*
X122690529Y-57776291D01*
X190679311Y-57776291D01*
X190690118Y-57776763D01*
G37*
G04 #@! TD.AperFunction*
M02*
