G04 #@! TF.GenerationSoftware,KiCad,Pcbnew,7.0.10*
G04 #@! TF.CreationDate,2024-01-16T22:15:53+03:00*
G04 #@! TF.ProjectId,Eco_display,45636f5f-6469-4737-906c-61792e6b6963,rev?*
G04 #@! TF.SameCoordinates,Original*
G04 #@! TF.FileFunction,Legend,Top*
G04 #@! TF.FilePolarity,Positive*
%FSLAX46Y46*%
G04 Gerber Fmt 4.6, Leading zero omitted, Abs format (unit mm)*
G04 Created by KiCad (PCBNEW 7.0.10) date 2024-01-16 22:15:53*
%MOMM*%
%LPD*%
G01*
G04 APERTURE LIST*
%ADD10C,0.200000*%
%ADD11C,0.001000*%
%ADD12C,0.150000*%
%ADD13C,0.120000*%
%ADD14C,0.508000*%
G04 APERTURE END LIST*
D10*
X152281975Y-59054023D02*
X201391975Y-59054023D01*
D11*
X136341975Y-80064075D02*
G75*
G03*
X135241975Y-81164023I-75J-1099925D01*
G01*
D10*
X201391975Y-109274023D02*
X152281975Y-109274023D01*
X152281975Y-109274023D02*
X152281975Y-59054023D01*
D12*
X142083333Y-96034819D02*
X141750000Y-95558628D01*
X141511905Y-96034819D02*
X141511905Y-95034819D01*
X141511905Y-95034819D02*
X141892857Y-95034819D01*
X141892857Y-95034819D02*
X141988095Y-95082438D01*
X141988095Y-95082438D02*
X142035714Y-95130057D01*
X142035714Y-95130057D02*
X142083333Y-95225295D01*
X142083333Y-95225295D02*
X142083333Y-95368152D01*
X142083333Y-95368152D02*
X142035714Y-95463390D01*
X142035714Y-95463390D02*
X141988095Y-95511009D01*
X141988095Y-95511009D02*
X141892857Y-95558628D01*
X141892857Y-95558628D02*
X141511905Y-95558628D01*
X143035714Y-96034819D02*
X142464286Y-96034819D01*
X142750000Y-96034819D02*
X142750000Y-95034819D01*
X142750000Y-95034819D02*
X142654762Y-95177676D01*
X142654762Y-95177676D02*
X142559524Y-95272914D01*
X142559524Y-95272914D02*
X142464286Y-95320533D01*
X146833332Y-89342800D02*
X146690475Y-89295180D01*
X146690475Y-89295180D02*
X146452380Y-89295180D01*
X146452380Y-89295180D02*
X146357142Y-89342800D01*
X146357142Y-89342800D02*
X146309523Y-89390419D01*
X146309523Y-89390419D02*
X146261904Y-89485657D01*
X146261904Y-89485657D02*
X146261904Y-89580895D01*
X146261904Y-89580895D02*
X146309523Y-89676133D01*
X146309523Y-89676133D02*
X146357142Y-89723752D01*
X146357142Y-89723752D02*
X146452380Y-89771371D01*
X146452380Y-89771371D02*
X146642856Y-89818990D01*
X146642856Y-89818990D02*
X146738094Y-89866609D01*
X146738094Y-89866609D02*
X146785713Y-89914228D01*
X146785713Y-89914228D02*
X146833332Y-90009466D01*
X146833332Y-90009466D02*
X146833332Y-90104704D01*
X146833332Y-90104704D02*
X146785713Y-90199942D01*
X146785713Y-90199942D02*
X146738094Y-90247561D01*
X146738094Y-90247561D02*
X146642856Y-90295180D01*
X146642856Y-90295180D02*
X146404761Y-90295180D01*
X146404761Y-90295180D02*
X146261904Y-90247561D01*
X145928570Y-90295180D02*
X145690475Y-89295180D01*
X145690475Y-89295180D02*
X145499999Y-90009466D01*
X145499999Y-90009466D02*
X145309523Y-89295180D01*
X145309523Y-89295180D02*
X145071428Y-90295180D01*
X144738094Y-90199942D02*
X144690475Y-90247561D01*
X144690475Y-90247561D02*
X144595237Y-90295180D01*
X144595237Y-90295180D02*
X144357142Y-90295180D01*
X144357142Y-90295180D02*
X144261904Y-90247561D01*
X144261904Y-90247561D02*
X144214285Y-90199942D01*
X144214285Y-90199942D02*
X144166666Y-90104704D01*
X144166666Y-90104704D02*
X144166666Y-90009466D01*
X144166666Y-90009466D02*
X144214285Y-89866609D01*
X144214285Y-89866609D02*
X144785713Y-89295180D01*
X144785713Y-89295180D02*
X144166666Y-89295180D01*
X146833332Y-105842800D02*
X146690475Y-105795180D01*
X146690475Y-105795180D02*
X146452380Y-105795180D01*
X146452380Y-105795180D02*
X146357142Y-105842800D01*
X146357142Y-105842800D02*
X146309523Y-105890419D01*
X146309523Y-105890419D02*
X146261904Y-105985657D01*
X146261904Y-105985657D02*
X146261904Y-106080895D01*
X146261904Y-106080895D02*
X146309523Y-106176133D01*
X146309523Y-106176133D02*
X146357142Y-106223752D01*
X146357142Y-106223752D02*
X146452380Y-106271371D01*
X146452380Y-106271371D02*
X146642856Y-106318990D01*
X146642856Y-106318990D02*
X146738094Y-106366609D01*
X146738094Y-106366609D02*
X146785713Y-106414228D01*
X146785713Y-106414228D02*
X146833332Y-106509466D01*
X146833332Y-106509466D02*
X146833332Y-106604704D01*
X146833332Y-106604704D02*
X146785713Y-106699942D01*
X146785713Y-106699942D02*
X146738094Y-106747561D01*
X146738094Y-106747561D02*
X146642856Y-106795180D01*
X146642856Y-106795180D02*
X146404761Y-106795180D01*
X146404761Y-106795180D02*
X146261904Y-106747561D01*
X145928570Y-106795180D02*
X145690475Y-105795180D01*
X145690475Y-105795180D02*
X145499999Y-106509466D01*
X145499999Y-106509466D02*
X145309523Y-105795180D01*
X145309523Y-105795180D02*
X145071428Y-106795180D01*
X144785713Y-106795180D02*
X144166666Y-106795180D01*
X144166666Y-106795180D02*
X144499999Y-106414228D01*
X144499999Y-106414228D02*
X144357142Y-106414228D01*
X144357142Y-106414228D02*
X144261904Y-106366609D01*
X144261904Y-106366609D02*
X144214285Y-106318990D01*
X144214285Y-106318990D02*
X144166666Y-106223752D01*
X144166666Y-106223752D02*
X144166666Y-105985657D01*
X144166666Y-105985657D02*
X144214285Y-105890419D01*
X144214285Y-105890419D02*
X144261904Y-105842800D01*
X144261904Y-105842800D02*
X144357142Y-105795180D01*
X144357142Y-105795180D02*
X144642856Y-105795180D01*
X144642856Y-105795180D02*
X144738094Y-105842800D01*
X144738094Y-105842800D02*
X144785713Y-105890419D01*
X146583332Y-71092800D02*
X146440475Y-71045180D01*
X146440475Y-71045180D02*
X146202380Y-71045180D01*
X146202380Y-71045180D02*
X146107142Y-71092800D01*
X146107142Y-71092800D02*
X146059523Y-71140419D01*
X146059523Y-71140419D02*
X146011904Y-71235657D01*
X146011904Y-71235657D02*
X146011904Y-71330895D01*
X146011904Y-71330895D02*
X146059523Y-71426133D01*
X146059523Y-71426133D02*
X146107142Y-71473752D01*
X146107142Y-71473752D02*
X146202380Y-71521371D01*
X146202380Y-71521371D02*
X146392856Y-71568990D01*
X146392856Y-71568990D02*
X146488094Y-71616609D01*
X146488094Y-71616609D02*
X146535713Y-71664228D01*
X146535713Y-71664228D02*
X146583332Y-71759466D01*
X146583332Y-71759466D02*
X146583332Y-71854704D01*
X146583332Y-71854704D02*
X146535713Y-71949942D01*
X146535713Y-71949942D02*
X146488094Y-71997561D01*
X146488094Y-71997561D02*
X146392856Y-72045180D01*
X146392856Y-72045180D02*
X146154761Y-72045180D01*
X146154761Y-72045180D02*
X146011904Y-71997561D01*
X145678570Y-72045180D02*
X145440475Y-71045180D01*
X145440475Y-71045180D02*
X145249999Y-71759466D01*
X145249999Y-71759466D02*
X145059523Y-71045180D01*
X145059523Y-71045180D02*
X144821428Y-72045180D01*
X143916666Y-71045180D02*
X144488094Y-71045180D01*
X144202380Y-71045180D02*
X144202380Y-72045180D01*
X144202380Y-72045180D02*
X144297618Y-71902323D01*
X144297618Y-71902323D02*
X144392856Y-71807085D01*
X144392856Y-71807085D02*
X144488094Y-71759466D01*
G36*
X175655006Y-67780173D02*
G01*
X176000000Y-67780173D01*
X178627586Y-67780173D01*
X179941379Y-67780173D01*
X179941379Y-84804741D01*
X179941379Y-101829310D01*
X176000000Y-101829310D01*
X172058621Y-101829310D01*
X172058621Y-99309131D01*
X173715737Y-99309131D01*
X173810434Y-99773273D01*
X173865761Y-99898506D01*
X174000705Y-100197770D01*
X174006660Y-100354992D01*
X173883075Y-100405471D01*
X173857814Y-100406035D01*
X173733715Y-100476944D01*
X173720961Y-100707112D01*
X173755604Y-101008190D01*
X174852479Y-101039111D01*
X175375991Y-101043485D01*
X175867137Y-101029487D01*
X176251813Y-100999991D01*
X176384007Y-100979725D01*
X176807192Y-100791335D01*
X177109579Y-100450109D01*
X177279714Y-99992919D01*
X177306145Y-99456637D01*
X177177421Y-98878136D01*
X177097776Y-98681681D01*
X176901145Y-98346290D01*
X176706582Y-98223349D01*
X176502939Y-98306740D01*
X176470221Y-98337366D01*
X176410647Y-98496667D01*
X176478877Y-98766609D01*
X176503066Y-98826522D01*
X176630475Y-99288373D01*
X176630024Y-99709176D01*
X176513982Y-100044999D01*
X176294619Y-100251908D01*
X176092514Y-100296552D01*
X175973900Y-100264223D01*
X175912774Y-100133323D01*
X175891677Y-99852981D01*
X175890517Y-99708082D01*
X175864550Y-99095894D01*
X175778212Y-98647465D01*
X175618852Y-98312851D01*
X175499181Y-98163194D01*
X175158864Y-97940535D01*
X174755670Y-97889496D01*
X174349828Y-98000614D01*
X174001566Y-98264426D01*
X173888310Y-98416294D01*
X173742221Y-98822281D01*
X173715737Y-99309131D01*
X172058621Y-99309131D01*
X172058621Y-95367752D01*
X173715737Y-95367752D01*
X173810434Y-95831894D01*
X173865761Y-95957127D01*
X174000705Y-96256391D01*
X174006660Y-96413612D01*
X173883075Y-96464092D01*
X173857814Y-96464655D01*
X173733715Y-96535565D01*
X173720961Y-96765733D01*
X173755604Y-97066810D01*
X174755670Y-97090981D01*
X175026122Y-97097518D01*
X175560572Y-97100532D01*
X176039304Y-97085245D01*
X176405289Y-97054560D01*
X176586201Y-97018135D01*
X176933965Y-96776598D01*
X177171928Y-96386722D01*
X177289575Y-95895333D01*
X177276390Y-95349254D01*
X177121855Y-94795311D01*
X177097776Y-94740302D01*
X176901145Y-94404911D01*
X176706582Y-94281970D01*
X176502939Y-94365361D01*
X176470221Y-94395986D01*
X176410647Y-94555288D01*
X176478877Y-94825230D01*
X176503066Y-94885142D01*
X176630475Y-95346993D01*
X176630024Y-95767797D01*
X176513982Y-96103620D01*
X176294619Y-96310529D01*
X176092514Y-96355173D01*
X175973900Y-96322844D01*
X175912774Y-96191944D01*
X175891677Y-95911601D01*
X175890517Y-95766703D01*
X175864550Y-95154515D01*
X175778212Y-94706086D01*
X175618852Y-94371472D01*
X175499181Y-94221815D01*
X175158864Y-93999155D01*
X174755670Y-93948116D01*
X174349828Y-94059235D01*
X174001566Y-94323047D01*
X173888310Y-94474915D01*
X173742221Y-94880902D01*
X173715737Y-95367752D01*
X172058621Y-95367752D01*
X172058621Y-92599602D01*
X173712228Y-92599602D01*
X173721296Y-92769612D01*
X173755604Y-93125431D01*
X174755670Y-93137527D01*
X176191595Y-93154896D01*
X178627586Y-93184362D01*
X178627586Y-92799077D01*
X178627586Y-92413793D01*
X177751724Y-92413793D01*
X177344953Y-92408211D01*
X177038653Y-92393378D01*
X176884643Y-92372161D01*
X176875862Y-92365310D01*
X176926384Y-92249601D01*
X177052914Y-92018155D01*
X177108517Y-91922506D01*
X177291266Y-91412916D01*
X177274912Y-90878576D01*
X177070041Y-90357807D01*
X176687234Y-89888928D01*
X176505250Y-89738230D01*
X176139969Y-89574700D01*
X175661631Y-89502240D01*
X175156244Y-89520709D01*
X174709813Y-89629964D01*
X174502641Y-89741532D01*
X174041537Y-90178519D01*
X173785764Y-90664317D01*
X173723038Y-91223459D01*
X173727348Y-91289898D01*
X173790448Y-91674353D01*
X173898099Y-91977398D01*
X173956065Y-92064898D01*
X174114648Y-92277908D01*
X174093353Y-92386068D01*
X173912891Y-92413793D01*
X173759286Y-92449946D01*
X173712228Y-92599602D01*
X172058621Y-92599602D01*
X172058621Y-86976832D01*
X173704313Y-86976832D01*
X173807088Y-87586601D01*
X173927596Y-87886305D01*
X174269388Y-88367112D01*
X174725670Y-88691315D01*
X175251267Y-88851654D01*
X175661631Y-88843602D01*
X175801003Y-88840867D01*
X176329704Y-88651695D01*
X176736137Y-88337676D01*
X177126462Y-87797548D01*
X177302956Y-87213482D01*
X177264118Y-86595030D01*
X177087060Y-86102488D01*
X176737136Y-85606769D01*
X176257962Y-85285342D01*
X175662884Y-85146329D01*
X175507328Y-85141010D01*
X174901102Y-85236442D01*
X174398699Y-85500739D01*
X174019107Y-85900903D01*
X173781316Y-86403933D01*
X173704313Y-86976832D01*
X172058621Y-86976832D01*
X172058621Y-84804741D01*
X172058621Y-81264799D01*
X173700862Y-81264799D01*
X173739923Y-81496932D01*
X173882255Y-81573586D01*
X173919828Y-81575000D01*
X174079652Y-81587149D01*
X174121626Y-81655240D01*
X174045790Y-81826737D01*
X173920237Y-82037656D01*
X173720775Y-82548158D01*
X173714823Y-83060546D01*
X173879946Y-83540458D01*
X174193708Y-83953533D01*
X174633676Y-84265409D01*
X175177414Y-84441725D01*
X175507328Y-84468473D01*
X176139044Y-84376135D01*
X176655371Y-84112403D01*
X177033380Y-83697201D01*
X177250141Y-83150454D01*
X177284375Y-82924319D01*
X177292128Y-82540403D01*
X177207376Y-82242965D01*
X177053421Y-81985560D01*
X176772978Y-81575000D01*
X177700282Y-81575000D01*
X178627586Y-81575000D01*
X178627586Y-81191810D01*
X178627586Y-80808621D01*
X176237213Y-80808621D01*
X175534838Y-80811825D01*
X174907379Y-80820794D01*
X174387495Y-80834558D01*
X174007843Y-80852151D01*
X173801082Y-80872605D01*
X173773851Y-80881609D01*
X173720370Y-81034743D01*
X173700862Y-81264799D01*
X172058621Y-81264799D01*
X172058621Y-77888910D01*
X173765027Y-77888910D01*
X173786252Y-78478933D01*
X173966161Y-79040160D01*
X173978889Y-79065250D01*
X174316021Y-79503444D01*
X174765074Y-79788759D01*
X175280583Y-79920550D01*
X175817083Y-79898171D01*
X176329109Y-79720979D01*
X176771195Y-79388328D01*
X176987647Y-79107914D01*
X177164734Y-78650622D01*
X177224335Y-78103562D01*
X177165137Y-77561338D01*
X177014617Y-77164825D01*
X176638501Y-76717665D01*
X176155711Y-76431829D01*
X175612454Y-76311883D01*
X175054937Y-76362395D01*
X174529369Y-76587930D01*
X174175087Y-76884210D01*
X173896600Y-77335524D01*
X173765027Y-77888910D01*
X172058621Y-77888910D01*
X172058621Y-74315664D01*
X173715380Y-74315664D01*
X173769144Y-74637587D01*
X173813683Y-74805679D01*
X173947187Y-75150437D01*
X174120897Y-75445500D01*
X174134457Y-75462575D01*
X174293485Y-75630501D01*
X174409577Y-75636722D01*
X174524770Y-75539688D01*
X174635564Y-75403942D01*
X174638023Y-75261520D01*
X174531332Y-75024176D01*
X174519807Y-75001827D01*
X174384603Y-74526503D01*
X174427621Y-74032479D01*
X174638106Y-73595536D01*
X174735259Y-73483942D01*
X175111028Y-73250049D01*
X175553582Y-73183518D01*
X175612454Y-73197166D01*
X175988512Y-73284348D01*
X176279396Y-73483942D01*
X176525765Y-73856464D01*
X176636496Y-74299614D01*
X176599556Y-74732292D01*
X176498188Y-74958241D01*
X176378043Y-75169523D01*
X176387728Y-75309265D01*
X176501051Y-75453224D01*
X176678281Y-75621009D01*
X176807698Y-75626160D01*
X176949536Y-75454690D01*
X177024301Y-75331723D01*
X177172893Y-74911856D01*
X177219770Y-74387886D01*
X177165552Y-73849290D01*
X177010856Y-73385550D01*
X176671650Y-72951413D01*
X176203237Y-72654112D01*
X175659898Y-72510993D01*
X175095915Y-72539402D01*
X174740077Y-72659907D01*
X174306243Y-72935230D01*
X174011577Y-73310220D01*
X173859482Y-73657623D01*
X173743944Y-74027838D01*
X173715380Y-74315664D01*
X172058621Y-74315664D01*
X172058621Y-70160529D01*
X173774182Y-70160529D01*
X173894409Y-70787344D01*
X173997525Y-71040262D01*
X174200051Y-71356838D01*
X174465000Y-71630219D01*
X174728685Y-71801569D01*
X174853482Y-71831035D01*
X175024494Y-71754601D01*
X175063235Y-71570539D01*
X174968398Y-71346703D01*
X174864948Y-71236343D01*
X174524011Y-70842202D01*
X174371866Y-70372596D01*
X174357759Y-70134052D01*
X174403371Y-69733743D01*
X174525255Y-69444410D01*
X174700982Y-69315404D01*
X174730954Y-69312931D01*
X174830672Y-69409218D01*
X174987865Y-69673537D01*
X175182650Y-70069074D01*
X175366631Y-70489871D01*
X175572532Y-70956504D01*
X175659898Y-71131201D01*
X175764949Y-71341260D01*
X175921497Y-71602458D01*
X176015518Y-71698000D01*
X176249473Y-71651974D01*
X176547151Y-71475180D01*
X176845945Y-71215698D01*
X177083249Y-70921611D01*
X177128141Y-70843507D01*
X177271567Y-70352241D01*
X177240695Y-69831604D01*
X177061800Y-69326461D01*
X176761158Y-68881678D01*
X176365047Y-68542120D01*
X175899741Y-68352653D01*
X175655006Y-68328197D01*
X175008152Y-68422532D01*
X174478572Y-68682502D01*
X174084335Y-69078538D01*
X173843515Y-69581070D01*
X173774182Y-70160529D01*
X172058621Y-70160529D01*
X172058621Y-67780173D01*
X175655006Y-67780173D01*
G37*
G36*
X176144458Y-69117661D02*
G01*
X176355819Y-69294722D01*
X176574488Y-69617913D01*
X176670833Y-70020453D01*
X176640669Y-70423469D01*
X176479810Y-70748084D01*
X176435344Y-70793290D01*
X176298536Y-70898448D01*
X176186115Y-70912357D01*
X176074141Y-70808864D01*
X175938675Y-70561819D01*
X175755779Y-70145069D01*
X175683451Y-69971901D01*
X175501854Y-69530990D01*
X175397030Y-69250772D01*
X175361852Y-69089685D01*
X175389193Y-69006168D01*
X175471926Y-68958660D01*
X175507328Y-68944891D01*
X175798554Y-68935137D01*
X176144458Y-69117661D01*
G37*
G36*
X176013719Y-77064959D02*
G01*
X176386208Y-77316453D01*
X176604382Y-77711388D01*
X176654462Y-78090501D01*
X176560254Y-78588662D01*
X176308808Y-78966125D01*
X175938396Y-79200792D01*
X175487292Y-79270565D01*
X174993766Y-79153345D01*
X174895032Y-79106394D01*
X174568804Y-78826295D01*
X174385980Y-78435795D01*
X174353902Y-77996055D01*
X174479913Y-77568234D01*
X174677785Y-77296751D01*
X174938876Y-77084044D01*
X175221373Y-76992137D01*
X175507328Y-76976724D01*
X176013719Y-77064959D01*
G37*
G36*
X175950629Y-81687105D02*
G01*
X176286412Y-81892091D01*
X176527028Y-82192251D01*
X176630010Y-82571805D01*
X176588675Y-82908667D01*
X176378231Y-83292526D01*
X176036709Y-83558435D01*
X175622372Y-83690499D01*
X175193482Y-83672824D01*
X174808302Y-83489516D01*
X174726411Y-83416693D01*
X174494490Y-83058583D01*
X174400189Y-82634332D01*
X174458721Y-82232079D01*
X174505102Y-82134465D01*
X174796914Y-81800972D01*
X175163415Y-81625766D01*
X175562141Y-81593070D01*
X175950629Y-81687105D01*
G37*
G36*
X175902436Y-85967425D02*
G01*
X176261480Y-86179905D01*
X176517748Y-86528255D01*
X176585039Y-86724372D01*
X176603457Y-87184131D01*
X176450966Y-87576576D01*
X176170315Y-87877435D01*
X175804248Y-88062434D01*
X175395512Y-88107299D01*
X174986855Y-87987758D01*
X174716066Y-87785658D01*
X174503204Y-87449340D01*
X174399979Y-87030646D01*
X174428473Y-86634010D01*
X174456161Y-86556466D01*
X174717479Y-86185335D01*
X175079553Y-85966127D01*
X175491499Y-85894828D01*
X175902436Y-85967425D01*
G37*
G36*
X175959751Y-90368770D02*
G01*
X176084841Y-90437919D01*
X176456171Y-90770334D01*
X176629233Y-91160490D01*
X176597971Y-91576708D01*
X176376590Y-91963739D01*
X175988443Y-92273451D01*
X175533504Y-92381736D01*
X175045992Y-92281440D01*
X174985728Y-92254480D01*
X174601738Y-91971392D01*
X174398407Y-91599398D01*
X174384971Y-91183549D01*
X174570666Y-90768897D01*
X174658836Y-90659994D01*
X175057571Y-90356455D01*
X175502520Y-90257619D01*
X175959751Y-90368770D01*
G37*
G36*
X175019461Y-94735454D02*
G01*
X175189514Y-94962316D01*
X175296818Y-95378045D01*
X175322821Y-95636039D01*
X175343249Y-96020529D01*
X175332621Y-96235720D01*
X175275813Y-96330696D01*
X175157699Y-96354545D01*
X175101235Y-96355173D01*
X174790230Y-96258193D01*
X174545071Y-96009421D01*
X174390344Y-95672106D01*
X174350632Y-95309498D01*
X174450518Y-94984846D01*
X174529803Y-94884975D01*
X174796333Y-94706619D01*
X175019461Y-94735454D01*
G37*
G36*
X174947160Y-98685313D02*
G01*
X175171059Y-98826355D01*
X175289496Y-99064130D01*
X175340355Y-99484261D01*
X175343104Y-99647475D01*
X175336881Y-100009030D01*
X175304123Y-100203310D01*
X175223691Y-100281942D01*
X175077343Y-100296552D01*
X174781688Y-100198710D01*
X174547889Y-99945530D01*
X174401032Y-99597528D01*
X174366204Y-99215223D01*
X174468489Y-98859131D01*
X174476011Y-98845905D01*
X174679152Y-98680336D01*
X174947160Y-98685313D01*
G37*
D13*
X142096359Y-96370000D02*
X142403641Y-96370000D01*
X142096359Y-97130000D02*
X142403641Y-97130000D01*
X149200000Y-85250000D02*
G75*
G03*
X141800000Y-85250000I-3700000J0D01*
G01*
X141800000Y-85250000D02*
G75*
G03*
X149200000Y-85250000I3700000J0D01*
G01*
X149200000Y-101750000D02*
G75*
G03*
X141800000Y-101750000I-3700000J0D01*
G01*
X141800000Y-101750000D02*
G75*
G03*
X149200000Y-101750000I3700000J0D01*
G01*
X148950000Y-67000000D02*
G75*
G03*
X141550000Y-67000000I-3700000J0D01*
G01*
X141550000Y-67000000D02*
G75*
G03*
X148950000Y-67000000I3700000J0D01*
G01*
D14*
X162300000Y-67378796D02*
G75*
G03*
X162300000Y-66616796I0J381000D01*
G01*
X162300000Y-66616796D02*
G75*
G03*
X162300000Y-67378796I0J-381000D01*
G01*
M02*
