G04 #@! TF.GenerationSoftware,KiCad,Pcbnew,7.0.10*
G04 #@! TF.CreationDate,2024-01-21T11:33:12+03:00*
G04 #@! TF.ProjectId,Eco_display,45636f5f-6469-4737-906c-61792e6b6963,rev?*
G04 #@! TF.SameCoordinates,Original*
G04 #@! TF.FileFunction,Copper,L2,Bot*
G04 #@! TF.FilePolarity,Positive*
%FSLAX46Y46*%
G04 Gerber Fmt 4.6, Leading zero omitted, Abs format (unit mm)*
G04 Created by KiCad (PCBNEW 7.0.10) date 2024-01-21 11:33:12*
%MOMM*%
%LPD*%
G01*
G04 APERTURE LIST*
G04 Aperture macros list*
%AMRoundRect*
0 Rectangle with rounded corners*
0 $1 Rounding radius*
0 $2 $3 $4 $5 $6 $7 $8 $9 X,Y pos of 4 corners*
0 Add a 4 corners polygon primitive as box body*
4,1,4,$2,$3,$4,$5,$6,$7,$8,$9,$2,$3,0*
0 Add four circle primitives for the rounded corners*
1,1,$1+$1,$2,$3*
1,1,$1+$1,$4,$5*
1,1,$1+$1,$6,$7*
1,1,$1+$1,$8,$9*
0 Add four rect primitives between the rounded corners*
20,1,$1+$1,$2,$3,$4,$5,0*
20,1,$1+$1,$4,$5,$6,$7,0*
20,1,$1+$1,$6,$7,$8,$9,0*
20,1,$1+$1,$8,$9,$2,$3,0*%
G04 Aperture macros list end*
G04 #@! TA.AperFunction,ComponentPad*
%ADD10R,1.700000X1.700000*%
G04 #@! TD*
G04 #@! TA.AperFunction,ComponentPad*
%ADD11O,1.700000X1.700000*%
G04 #@! TD*
G04 #@! TA.AperFunction,SMDPad,CuDef*
%ADD12R,1.950000X3.500000*%
G04 #@! TD*
G04 #@! TA.AperFunction,SMDPad,CuDef*
%ADD13R,0.800000X3.400000*%
G04 #@! TD*
G04 #@! TA.AperFunction,SMDPad,CuDef*
%ADD14RoundRect,0.135000X0.185000X-0.135000X0.185000X0.135000X-0.185000X0.135000X-0.185000X-0.135000X0*%
G04 #@! TD*
G04 #@! TA.AperFunction,ComponentPad*
%ADD15RoundRect,0.250001X1.399999X-1.099999X1.399999X1.099999X-1.399999X1.099999X-1.399999X-1.099999X0*%
G04 #@! TD*
G04 #@! TA.AperFunction,ComponentPad*
%ADD16O,3.300000X2.700000*%
G04 #@! TD*
G04 #@! TA.AperFunction,SMDPad,CuDef*
%ADD17RoundRect,0.150000X-0.150000X0.587500X-0.150000X-0.587500X0.150000X-0.587500X0.150000X0.587500X0*%
G04 #@! TD*
G04 #@! TA.AperFunction,SMDPad,CuDef*
%ADD18RoundRect,0.140000X-0.170000X0.140000X-0.170000X-0.140000X0.170000X-0.140000X0.170000X0.140000X0*%
G04 #@! TD*
G04 #@! TA.AperFunction,SMDPad,CuDef*
%ADD19RoundRect,0.100000X0.100000X-0.712500X0.100000X0.712500X-0.100000X0.712500X-0.100000X-0.712500X0*%
G04 #@! TD*
G04 #@! TA.AperFunction,SMDPad,CuDef*
%ADD20RoundRect,0.135000X-0.185000X0.135000X-0.185000X-0.135000X0.185000X-0.135000X0.185000X0.135000X0*%
G04 #@! TD*
G04 #@! TA.AperFunction,SMDPad,CuDef*
%ADD21R,2.387600X2.387600*%
G04 #@! TD*
G04 #@! TA.AperFunction,SMDPad,CuDef*
%ADD22R,1.200000X0.300000*%
G04 #@! TD*
G04 #@! TA.AperFunction,SMDPad,CuDef*
%ADD23RoundRect,0.135000X0.135000X0.185000X-0.135000X0.185000X-0.135000X-0.185000X0.135000X-0.185000X0*%
G04 #@! TD*
G04 #@! TA.AperFunction,SMDPad,CuDef*
%ADD24RoundRect,0.225000X0.225000X0.375000X-0.225000X0.375000X-0.225000X-0.375000X0.225000X-0.375000X0*%
G04 #@! TD*
G04 #@! TA.AperFunction,SMDPad,CuDef*
%ADD25RoundRect,0.140000X0.170000X-0.140000X0.170000X0.140000X-0.170000X0.140000X-0.170000X-0.140000X0*%
G04 #@! TD*
G04 #@! TA.AperFunction,SMDPad,CuDef*
%ADD26C,1.500000*%
G04 #@! TD*
G04 #@! TA.AperFunction,ViaPad*
%ADD27C,0.800000*%
G04 #@! TD*
G04 #@! TA.AperFunction,Conductor*
%ADD28C,0.250000*%
G04 #@! TD*
G04 #@! TA.AperFunction,Conductor*
%ADD29C,0.350000*%
G04 #@! TD*
G04 #@! TA.AperFunction,Conductor*
%ADD30C,0.254000*%
G04 #@! TD*
G04 #@! TA.AperFunction,Conductor*
%ADD31C,0.500000*%
G04 #@! TD*
G04 APERTURE END LIST*
D10*
X138390000Y-60025000D03*
D11*
X135850000Y-60025000D03*
X133310000Y-60025000D03*
X130770000Y-60025000D03*
D12*
X151325000Y-70860000D03*
X147275000Y-70860000D03*
D13*
X149300000Y-70860000D03*
D14*
X152500000Y-93410000D03*
X152500000Y-92390000D03*
D15*
X129425000Y-92425000D03*
D16*
X129425000Y-88225000D03*
X129425000Y-84025000D03*
X123925000Y-92425000D03*
X123925000Y-88225000D03*
X123925000Y-84025000D03*
D17*
X150550000Y-77322500D03*
X152450000Y-77322500D03*
X151500000Y-79197500D03*
D18*
X154300000Y-87050000D03*
X154300000Y-88010000D03*
D19*
X152875000Y-90172500D03*
X152225000Y-90172500D03*
X151575000Y-90172500D03*
X150925000Y-90172500D03*
X150925000Y-85947500D03*
X151575000Y-85947500D03*
X152225000Y-85947500D03*
X152875000Y-85947500D03*
D20*
X151300000Y-92390000D03*
X151300000Y-93410000D03*
D21*
X164000000Y-111000000D03*
X164000000Y-82300008D03*
D22*
X161300000Y-108900007D03*
X161300000Y-108400004D03*
X161300000Y-107900004D03*
X161300000Y-107400004D03*
X161300000Y-106900004D03*
X161300000Y-106400007D03*
X161300000Y-105900004D03*
X161300000Y-105400004D03*
X161300000Y-104900004D03*
X161300000Y-104400004D03*
X161300000Y-103900007D03*
X161300000Y-103400004D03*
X161300000Y-102900004D03*
X161300000Y-102400004D03*
X161300000Y-101900004D03*
X161300000Y-101400004D03*
X161300000Y-100900004D03*
X161300000Y-100400004D03*
X161300000Y-99900004D03*
X161300000Y-99400004D03*
X161300000Y-98900004D03*
X161300000Y-98400004D03*
X161300000Y-97900004D03*
X161300000Y-97400004D03*
X161300000Y-96900004D03*
X161300000Y-96400004D03*
X161300000Y-95900004D03*
X161300000Y-95400004D03*
X161300000Y-94900007D03*
X161300000Y-94400004D03*
X161300000Y-93900004D03*
X161300000Y-93400004D03*
X161300000Y-92900004D03*
X161300000Y-92400007D03*
X161300000Y-91900004D03*
X161300000Y-91400004D03*
X161300000Y-90900004D03*
X161300000Y-90400004D03*
X161300000Y-89900007D03*
X161300000Y-89400004D03*
X161300000Y-88900004D03*
X161300000Y-88400004D03*
X161300000Y-87900004D03*
X161300000Y-87400007D03*
X161300000Y-86900004D03*
X161300000Y-86400004D03*
X161300000Y-85900004D03*
X161300000Y-85400004D03*
X161300000Y-84900004D03*
X161300000Y-84400004D03*
D23*
X152010000Y-81010000D03*
X150990000Y-81010000D03*
D24*
X149950000Y-74860000D03*
X146650000Y-74860000D03*
D25*
X155500000Y-85690000D03*
X155500000Y-84730000D03*
D23*
X134950000Y-89400000D03*
X133930000Y-89400000D03*
D12*
X151325000Y-65860000D03*
X147275000Y-65860000D03*
D13*
X149300000Y-65860000D03*
D14*
X152900000Y-83320000D03*
X152900000Y-82300000D03*
D26*
X128500000Y-66000000D03*
X188700000Y-65900000D03*
D25*
X154300000Y-85770000D03*
X154300000Y-84810000D03*
D26*
X148400000Y-105100000D03*
D24*
X150150000Y-62060000D03*
X146850000Y-62060000D03*
D14*
X151100000Y-83320000D03*
X151100000Y-82300000D03*
D27*
X174300000Y-67930000D03*
X187500000Y-72600000D03*
X174300000Y-96430000D03*
X123700000Y-67100000D03*
X174300000Y-80430000D03*
X134700000Y-102650000D03*
X158050000Y-67260000D03*
X164050000Y-96430000D03*
X168550000Y-109680000D03*
X159900000Y-85900004D03*
X158050000Y-109680000D03*
X147300000Y-76540000D03*
X168550000Y-60430000D03*
X178050000Y-60430000D03*
X174300000Y-99680000D03*
X156300000Y-92430000D03*
X174300000Y-64680000D03*
X141000000Y-90200000D03*
X131200000Y-73100000D03*
X147800000Y-109680000D03*
X134700000Y-106650000D03*
X134500000Y-85900000D03*
X182550000Y-96430000D03*
X125800000Y-78900000D03*
X180600000Y-72600000D03*
X164050000Y-109680000D03*
X125900000Y-73250000D03*
X145800000Y-102200000D03*
X124350000Y-102820000D03*
X178050000Y-109680000D03*
X124350000Y-106820000D03*
X178050000Y-67930000D03*
X174300000Y-76180000D03*
X156300000Y-97300000D03*
X182550000Y-80430000D03*
X139900000Y-106650000D03*
X124350000Y-105070000D03*
X154900000Y-105400000D03*
X182550000Y-76180000D03*
X126200000Y-67100000D03*
X158200000Y-83930000D03*
X145800000Y-107600000D03*
X139900000Y-104900000D03*
X182550000Y-99680000D03*
X126200000Y-64850000D03*
X144600000Y-59400000D03*
X140700000Y-93900000D03*
X164050000Y-112930000D03*
X164050000Y-87430000D03*
X188300000Y-87180000D03*
X134700000Y-100550000D03*
X168550000Y-92180000D03*
X164900000Y-107200000D03*
X123900000Y-75200000D03*
X140400000Y-65100000D03*
X178050000Y-80430000D03*
X155100000Y-59400000D03*
X147600000Y-90700000D03*
X146000000Y-82700000D03*
X140100000Y-75250000D03*
X141400000Y-86200000D03*
X173700000Y-73000000D03*
X158800000Y-64680000D03*
X143700000Y-63100000D03*
X178050000Y-83680000D03*
X155800000Y-93760000D03*
X144700000Y-69200000D03*
X125900000Y-71000000D03*
X188300000Y-109680000D03*
X149300000Y-98600000D03*
X160000000Y-68300000D03*
X139900000Y-96550000D03*
X125900000Y-75000000D03*
X129100000Y-96650000D03*
X146500000Y-86700000D03*
X135200000Y-69100000D03*
X134800000Y-112930000D03*
X137050000Y-93510000D03*
X174300000Y-87430000D03*
X123700000Y-64800000D03*
X150600000Y-102000000D03*
X164050000Y-92180000D03*
X139900000Y-98800000D03*
X178050000Y-87430000D03*
X126200000Y-68850000D03*
X178050000Y-99680000D03*
X152300000Y-109680000D03*
X156300000Y-100000000D03*
X148550000Y-93760000D03*
X156800000Y-86930000D03*
X168550000Y-83680000D03*
X146000000Y-98600000D03*
X135200000Y-67350000D03*
X129100000Y-105000000D03*
X137400000Y-86100000D03*
X178050000Y-92180000D03*
X123700000Y-69000000D03*
X147800000Y-112930000D03*
X124350000Y-100720000D03*
X140200000Y-81100000D03*
X140100000Y-71250000D03*
X158050000Y-81260000D03*
X139900000Y-100550000D03*
X168550000Y-96430000D03*
X182550000Y-109680000D03*
X178050000Y-112930000D03*
X164050000Y-83680000D03*
X188300000Y-67930000D03*
X178050000Y-96430000D03*
X174300000Y-83680000D03*
X145100000Y-94000000D03*
X158050000Y-71260000D03*
X134700000Y-98800000D03*
X182550000Y-64680000D03*
X164050000Y-60430000D03*
X174300000Y-112930000D03*
X155800000Y-90760000D03*
X188300000Y-76180000D03*
X146300000Y-80000000D03*
X188300000Y-92180000D03*
X140400000Y-67350000D03*
X174300000Y-109680000D03*
X123700000Y-71000000D03*
X151450000Y-77800000D03*
X140800000Y-60600000D03*
X135200000Y-65100000D03*
X174300000Y-92180000D03*
X158050000Y-112930000D03*
X188300000Y-105430000D03*
X134800000Y-80600000D03*
X134900000Y-73500000D03*
X158050000Y-78760000D03*
X158050000Y-69510000D03*
X123700000Y-73300000D03*
X129100000Y-98900000D03*
X168550000Y-87430000D03*
X188300000Y-80430000D03*
X129100000Y-100650000D03*
X124350000Y-96720000D03*
X142300000Y-112930000D03*
X134700000Y-104900000D03*
X158800000Y-60430000D03*
X164050000Y-99680000D03*
X182550000Y-67930000D03*
X134800000Y-78300000D03*
X131400000Y-77200000D03*
X164050000Y-105430000D03*
X182550000Y-92180000D03*
X164050000Y-76180000D03*
X140400000Y-69100000D03*
X168550000Y-112930000D03*
X154900000Y-84060000D03*
X156800000Y-103400000D03*
X124350000Y-98970000D03*
X134900000Y-71250000D03*
X168550000Y-76180000D03*
X174300000Y-105430000D03*
X164050000Y-67930000D03*
X129100000Y-106750000D03*
X148300000Y-84260000D03*
X131600000Y-80000000D03*
X164050000Y-64680000D03*
X140100000Y-78200000D03*
X152300000Y-105430000D03*
X137300000Y-90500000D03*
X134800000Y-109180000D03*
X178050000Y-76180000D03*
X129050000Y-109430000D03*
X139050000Y-112930000D03*
X158300000Y-76260000D03*
X182550000Y-105430000D03*
X129100000Y-102750000D03*
X128900000Y-60800000D03*
X145400000Y-89800000D03*
X152700000Y-98800000D03*
X182300000Y-87430000D03*
X161100000Y-73500000D03*
X142300000Y-109180000D03*
X153300000Y-102000000D03*
X168550000Y-80430000D03*
X164050000Y-80430000D03*
X168550000Y-64680000D03*
X168550000Y-67930000D03*
X188000000Y-63400000D03*
X178050000Y-64680000D03*
X150686286Y-84673714D03*
X188050000Y-83680000D03*
X124300000Y-109500000D03*
X182550000Y-60430000D03*
X152300000Y-112930000D03*
X188300000Y-96430000D03*
X182550000Y-83680000D03*
X178050000Y-105430000D03*
X134700000Y-96550000D03*
X155800000Y-87260000D03*
X140100000Y-73500000D03*
X168550000Y-105430000D03*
X168550000Y-99680000D03*
X158300000Y-73600000D03*
X151800000Y-60430000D03*
X188300000Y-99680000D03*
X139900000Y-102650000D03*
X139050000Y-109180000D03*
X156000000Y-78600000D03*
X134900000Y-75250000D03*
X182550000Y-112930000D03*
X174300000Y-60430000D03*
X129050000Y-112680000D03*
X132900000Y-89575000D03*
X127750000Y-80250000D03*
X162900000Y-95400000D03*
X132575000Y-63850000D03*
D28*
X160400000Y-85400004D02*
X160300002Y-85500002D01*
D29*
X150925000Y-85947500D02*
X150925000Y-84912428D01*
D30*
X149000000Y-74860000D02*
X149950000Y-74860000D01*
X155050000Y-88010000D02*
X155800000Y-87260000D01*
X161200000Y-86400000D02*
X160399996Y-86400000D01*
X160399996Y-86400000D02*
X159900000Y-85900004D01*
D29*
X154900000Y-84810000D02*
X155420000Y-84810000D01*
D30*
X161200000Y-85900000D02*
X159900004Y-85900000D01*
X161200000Y-85400000D02*
X161200000Y-86400000D01*
D28*
X151450000Y-77800000D02*
X151500000Y-77850000D01*
D30*
X159900004Y-85900000D02*
X159900000Y-85900004D01*
X160300002Y-85500002D02*
X159900000Y-85900004D01*
D29*
X150925000Y-84912428D02*
X150686286Y-84673714D01*
X154300000Y-84810000D02*
X154900000Y-84810000D01*
D30*
X148460000Y-76540000D02*
X148600000Y-76400000D01*
X148600000Y-75260000D02*
X149000000Y-74860000D01*
X147300000Y-76540000D02*
X148460000Y-76540000D01*
D29*
X154900000Y-84810000D02*
X154900000Y-84060000D01*
D30*
X160400004Y-85400000D02*
X160300002Y-85500002D01*
D28*
X151500000Y-77850000D02*
X151500000Y-79197500D01*
D30*
X154300000Y-88010000D02*
X155050000Y-88010000D01*
X148600000Y-76400000D02*
X148600000Y-75260000D01*
D28*
X161300000Y-85400004D02*
X160400000Y-85400004D01*
D29*
X155420000Y-84810000D02*
X155500000Y-84730000D01*
D30*
X153775594Y-73384409D02*
X153775593Y-73384408D01*
X151038747Y-74890219D02*
X151038750Y-74890217D01*
X152694082Y-75697022D02*
X152694082Y-75697021D01*
X151463014Y-74890217D02*
X151654268Y-75081471D01*
X151654268Y-75081471D02*
X152269818Y-75697022D01*
X151230000Y-75505736D02*
X151038747Y-75314483D01*
X152290661Y-74869336D02*
X151887255Y-74465929D01*
X152735802Y-73193150D02*
X152735805Y-73193148D01*
X151100000Y-81120000D02*
X150990000Y-81010000D01*
X151887255Y-74041665D02*
X151887258Y-74041663D01*
X154200000Y-71200000D02*
X153860000Y-70860000D01*
X154200000Y-72960000D02*
X154200000Y-71200000D01*
X152311522Y-74041663D02*
X152714931Y-74445072D01*
X153160069Y-73193148D02*
X153351330Y-73384409D01*
X153542583Y-74424196D02*
X153139192Y-74020805D01*
X150550000Y-77322500D02*
X150550000Y-80570000D01*
X152714931Y-74445072D02*
X153118319Y-74848461D01*
X151100000Y-82300000D02*
X151100000Y-81120000D01*
X153542583Y-74848461D02*
X153542583Y-74848460D01*
X150550000Y-80570000D02*
X150990000Y-81010000D01*
X150550000Y-76610000D02*
X151230000Y-75930000D01*
X153775593Y-73384408D02*
X154200000Y-72960000D01*
X153860000Y-70860000D02*
X151325000Y-70860000D01*
X152694082Y-75272757D02*
X152290661Y-74869336D01*
X150550000Y-77322500D02*
X150550000Y-76610000D01*
X153139192Y-74020805D02*
X152735802Y-73617414D01*
X152694093Y-75697032D02*
G75*
G03*
X152694082Y-75272757I-212093J212132D01*
G01*
X153118320Y-74848460D02*
G75*
G03*
X153542582Y-74848460I212131J212131D01*
G01*
X153160068Y-73193149D02*
G75*
G03*
X152735806Y-73193149I-212131J-212131D01*
G01*
X152735820Y-73193168D02*
G75*
G03*
X152735802Y-73617414I212080J-212132D01*
G01*
X151038796Y-74890268D02*
G75*
G03*
X151038747Y-75314483I212104J-212132D01*
G01*
X151230031Y-75930031D02*
G75*
G03*
X151229999Y-75505737I-212131J212131D01*
G01*
X153351331Y-73384408D02*
G75*
G03*
X153775593Y-73384408I212131J212131D01*
G01*
X151463013Y-74890218D02*
G75*
G03*
X151038751Y-74890218I-212131J-212131D01*
G01*
X153542555Y-74848432D02*
G75*
G03*
X153542583Y-74424196I-212055J212132D01*
G01*
X152311521Y-74041664D02*
G75*
G03*
X151887259Y-74041664I-212131J-212131D01*
G01*
X152269819Y-75697021D02*
G75*
G03*
X152694081Y-75697021I212131J212131D01*
G01*
X151887258Y-74041668D02*
G75*
G03*
X151887255Y-74465929I212142J-212132D01*
G01*
X152450000Y-77322500D02*
X152500000Y-77372500D01*
X154560000Y-65860000D02*
X151325000Y-65860000D01*
X152450000Y-77322500D02*
X154377500Y-77322500D01*
X155800000Y-75900000D02*
X155800000Y-67100000D01*
X155800000Y-67100000D02*
X154560000Y-65860000D01*
X152500000Y-77372500D02*
X152500000Y-80520000D01*
X154377500Y-77322500D02*
X155800000Y-75900000D01*
X152500000Y-80520000D02*
X152010000Y-81010000D01*
X152010000Y-81010000D02*
X152010000Y-81970000D01*
X152010000Y-81970000D02*
X152340000Y-82300000D01*
X152340000Y-82300000D02*
X152900000Y-82300000D01*
D29*
X152875000Y-85947500D02*
X154122500Y-85947500D01*
D31*
X149600000Y-87800000D02*
X149300000Y-88100000D01*
D29*
X154300000Y-85770000D02*
X155420000Y-85770000D01*
D31*
X135000000Y-92500000D02*
X134925000Y-92425000D01*
X159900000Y-84700000D02*
X159100000Y-84700000D01*
X149300000Y-92300000D02*
X149100000Y-92500000D01*
X153000000Y-87800000D02*
X149600000Y-87800000D01*
D29*
X134950000Y-89400000D02*
X134950000Y-92400000D01*
D31*
X149100000Y-92500000D02*
X135000000Y-92500000D01*
X159100000Y-84700000D02*
X158110000Y-85690000D01*
X154300000Y-87050000D02*
X153750000Y-87050000D01*
D29*
X154300000Y-87050000D02*
X154300000Y-85770000D01*
X155420000Y-85770000D02*
X155500000Y-85690000D01*
D28*
X159900000Y-84700000D02*
X160100004Y-84900004D01*
D31*
X149300000Y-92300000D02*
X149300000Y-92700000D01*
D28*
X159900000Y-84700000D02*
X160199996Y-84400004D01*
D29*
X154122500Y-85947500D02*
X154300000Y-85770000D01*
D31*
X151300000Y-93410000D02*
X150010000Y-93410000D01*
X158110000Y-85690000D02*
X155500000Y-85690000D01*
X134925000Y-92425000D02*
X129425000Y-92425000D01*
X149700000Y-93100000D02*
X149100000Y-92500000D01*
X149300000Y-92700000D02*
X149700000Y-93100000D01*
X153750000Y-87050000D02*
X153000000Y-87800000D01*
X149300000Y-88100000D02*
X149300000Y-92300000D01*
D29*
X134950000Y-92400000D02*
X134925000Y-92425000D01*
D28*
X160199996Y-84400004D02*
X161300000Y-84400004D01*
X160100004Y-84900004D02*
X161300000Y-84900004D01*
D31*
X150010000Y-93410000D02*
X149700000Y-93100000D01*
D28*
X132625000Y-89850000D02*
X132900000Y-89575000D01*
X127450000Y-80550000D02*
X127450000Y-88918808D01*
D29*
X133075000Y-89400000D02*
X132900000Y-89575000D01*
D30*
X161300000Y-95400004D02*
X162899996Y-95400004D01*
D28*
X127750000Y-80250000D02*
X127450000Y-80550000D01*
D30*
X162899996Y-95400004D02*
X162900000Y-95400000D01*
D28*
X127450000Y-88918808D02*
X128431192Y-89900000D01*
D29*
X133930000Y-89400000D02*
X133075000Y-89400000D01*
D28*
X130175000Y-89850000D02*
X132625000Y-89850000D01*
X130125000Y-89900000D02*
X130175000Y-89850000D01*
X128431192Y-89900000D02*
X130125000Y-89900000D01*
D30*
X158460000Y-88660000D02*
X159400000Y-89600000D01*
X151100000Y-88460000D02*
X153100000Y-88460000D01*
X153100000Y-88460000D02*
X153300000Y-88660000D01*
X159400000Y-89600000D02*
X159400000Y-108100000D01*
X159400000Y-108100000D02*
X159700004Y-108400004D01*
X150925000Y-90172500D02*
X150925000Y-88635000D01*
X153300000Y-88660000D02*
X158460000Y-88660000D01*
X159700004Y-108400004D02*
X161300000Y-108400004D01*
X150925000Y-88635000D02*
X151100000Y-88460000D01*
X152875000Y-89325000D02*
X153086000Y-89114000D01*
D28*
X158700000Y-108500000D02*
X158700000Y-89900000D01*
D30*
X153086000Y-89114000D02*
X156446000Y-89114000D01*
D28*
X157914000Y-89114000D02*
X156446000Y-89114000D01*
X158700000Y-89900000D02*
X157914000Y-89114000D01*
X159100007Y-108900007D02*
X158700000Y-108500000D01*
X161300000Y-108900007D02*
X159100007Y-108900007D01*
D30*
X152875000Y-90172500D02*
X152875000Y-89325000D01*
X151575000Y-91385000D02*
X151300000Y-91660000D01*
X151300000Y-91660000D02*
X151300000Y-92390000D01*
X151575000Y-90172500D02*
X151575000Y-91385000D01*
X152225000Y-91585000D02*
X152225000Y-90172500D01*
X152500000Y-92390000D02*
X152500000Y-91860000D01*
X152500000Y-91860000D02*
X152225000Y-91585000D01*
X151100000Y-83320000D02*
X151100000Y-84060000D01*
X151575000Y-84535000D02*
X151575000Y-85947500D01*
X151100000Y-84060000D02*
X151575000Y-84535000D01*
X152900000Y-84060000D02*
X152900000Y-83320000D01*
X152225000Y-84735000D02*
X152900000Y-84060000D01*
X152225000Y-85947500D02*
X152225000Y-84735000D01*
D28*
X132575000Y-63850000D02*
X133310000Y-63115000D01*
X133310000Y-63115000D02*
X133310000Y-60025000D01*
D29*
X139000000Y-88748613D02*
X139000000Y-88525000D01*
X138400000Y-88525000D02*
X138400000Y-88748613D01*
X139900000Y-88225000D02*
X140367926Y-88225000D01*
X140367926Y-88225000D02*
X142475000Y-88225000D01*
X139600000Y-87701387D02*
X139600000Y-87925000D01*
X142475000Y-88225000D02*
X144200000Y-86500000D01*
X139000000Y-88525000D02*
X139000000Y-87701387D01*
X146650000Y-73710000D02*
X146650000Y-74860000D01*
X129425000Y-88225000D02*
X138100000Y-88225000D01*
X147275000Y-73085000D02*
X146650000Y-73710000D01*
X144200000Y-72100000D02*
X145440000Y-70860000D01*
X145440000Y-70860000D02*
X147275000Y-70860000D01*
X144200000Y-86500000D02*
X144200000Y-72100000D01*
X147275000Y-73085000D02*
X147275000Y-70860000D01*
X139600013Y-87701387D02*
G75*
G03*
X139300000Y-87401387I-300013J-13D01*
G01*
X138400000Y-88525000D02*
G75*
G03*
X138100000Y-88225000I-300000J0D01*
G01*
X138399987Y-88748613D02*
G75*
G03*
X138700000Y-89048613I300013J13D01*
G01*
X138700000Y-89048600D02*
G75*
G03*
X139000000Y-88748613I0J300000D01*
G01*
X139300000Y-87401400D02*
G75*
G03*
X139000000Y-87701387I0J-300000D01*
G01*
X139600000Y-87925000D02*
G75*
G03*
X139900000Y-88225000I300000J0D01*
G01*
X146900000Y-63460000D02*
X146900000Y-62110000D01*
X139600000Y-84025000D02*
X140148170Y-84025000D01*
X143400000Y-82700000D02*
X143400000Y-68100000D01*
X129425000Y-84025000D02*
X137800000Y-84025000D01*
X138700000Y-84325000D02*
X138700000Y-83613523D01*
X140148170Y-84025000D02*
X142075000Y-84025000D01*
X138100000Y-84325000D02*
X138100000Y-84436457D01*
X142075000Y-84025000D02*
X143400000Y-82700000D01*
X145640000Y-65860000D02*
X147275000Y-65860000D01*
X147275000Y-63835000D02*
X146900000Y-63460000D01*
X139300000Y-83613523D02*
X139300000Y-83725000D01*
X147275000Y-65860000D02*
X147275000Y-63835000D01*
X143400000Y-68100000D02*
X145640000Y-65860000D01*
X138700000Y-84436457D02*
X138700000Y-84325000D01*
X139299977Y-83613523D02*
G75*
G03*
X139000000Y-83313523I-299977J23D01*
G01*
X139000000Y-83313500D02*
G75*
G03*
X138700000Y-83613523I0J-300000D01*
G01*
X138400000Y-84736500D02*
G75*
G03*
X138700000Y-84436457I0J300000D01*
G01*
X139300000Y-83725000D02*
G75*
G03*
X139600000Y-84025000I300000J0D01*
G01*
X138100043Y-84436457D02*
G75*
G03*
X138400000Y-84736457I299957J-43D01*
G01*
X138100000Y-84325000D02*
G75*
G03*
X137800000Y-84025000I-300000J0D01*
G01*
G04 #@! TA.AperFunction,Conductor*
G36*
X145718835Y-71638980D02*
G01*
X145774768Y-71680852D01*
X145799185Y-71746316D01*
X145799501Y-71755162D01*
X145799501Y-72657876D01*
X145805908Y-72717483D01*
X145856202Y-72852328D01*
X145856206Y-72852335D01*
X145942452Y-72967544D01*
X145942455Y-72967547D01*
X146057664Y-73053793D01*
X146057671Y-73053797D01*
X146087233Y-73064823D01*
X146143167Y-73106694D01*
X146167584Y-73172158D01*
X146152733Y-73240431D01*
X146144428Y-73252255D01*
X146144928Y-73252600D01*
X146107800Y-73306387D01*
X146103363Y-73312417D01*
X146067674Y-73357970D01*
X146063824Y-73366525D01*
X146052808Y-73386056D01*
X146047484Y-73393770D01*
X146047482Y-73393774D01*
X146026965Y-73447869D01*
X146024102Y-73454781D01*
X146000350Y-73507560D01*
X145998661Y-73516777D01*
X145992639Y-73538381D01*
X145989311Y-73547155D01*
X145982334Y-73604613D01*
X145981207Y-73612011D01*
X145970781Y-73668908D01*
X145970781Y-73668915D01*
X145974274Y-73726663D01*
X145974500Y-73734150D01*
X145974500Y-73858125D01*
X145954815Y-73925164D01*
X145938182Y-73945806D01*
X145852029Y-74031959D01*
X145763001Y-74176294D01*
X145762996Y-74176305D01*
X145709651Y-74337290D01*
X145699500Y-74436647D01*
X145699500Y-75283337D01*
X145699501Y-75283355D01*
X145709650Y-75382707D01*
X145709651Y-75382710D01*
X145762996Y-75543694D01*
X145763001Y-75543705D01*
X145852029Y-75688040D01*
X145852032Y-75688044D01*
X145971955Y-75807967D01*
X145971959Y-75807970D01*
X146116294Y-75896998D01*
X146116297Y-75896999D01*
X146116303Y-75897003D01*
X146277292Y-75950349D01*
X146376655Y-75960500D01*
X146923344Y-75960499D01*
X146923352Y-75960498D01*
X146923355Y-75960498D01*
X146977760Y-75954940D01*
X147022708Y-75950349D01*
X147183697Y-75897003D01*
X147328044Y-75807968D01*
X147447968Y-75688044D01*
X147537003Y-75543697D01*
X147590349Y-75382708D01*
X147600500Y-75283345D01*
X147600499Y-74436656D01*
X147599878Y-74430581D01*
X147590349Y-74337292D01*
X147590348Y-74337289D01*
X147583920Y-74317891D01*
X147537003Y-74176303D01*
X147536999Y-74176297D01*
X147536998Y-74176294D01*
X147447970Y-74031959D01*
X147443721Y-74026585D01*
X147417580Y-73961789D01*
X147430621Y-73893147D01*
X147453302Y-73861997D01*
X147735595Y-73579705D01*
X147741016Y-73574602D01*
X147784332Y-73536229D01*
X147817211Y-73488593D01*
X147821628Y-73482590D01*
X147857325Y-73437028D01*
X147861169Y-73428485D01*
X147872197Y-73408932D01*
X147877518Y-73401226D01*
X147898049Y-73347087D01*
X147900888Y-73340233D01*
X147924650Y-73287439D01*
X147926338Y-73278221D01*
X147932366Y-73256603D01*
X147935688Y-73247845D01*
X147939123Y-73219553D01*
X147966744Y-73155376D01*
X148024677Y-73116319D01*
X148062219Y-73110499D01*
X148297871Y-73110499D01*
X148297872Y-73110499D01*
X148357483Y-73104091D01*
X148492331Y-73053796D01*
X148537689Y-73019840D01*
X148603152Y-72995423D01*
X148655333Y-73002925D01*
X148792517Y-73054091D01*
X148792516Y-73054091D01*
X148799444Y-73054835D01*
X148852127Y-73060500D01*
X149747872Y-73060499D01*
X149807483Y-73054091D01*
X149942331Y-73003796D01*
X149942335Y-73003792D01*
X149944664Y-73002924D01*
X150014355Y-72997940D01*
X150062309Y-73019839D01*
X150088267Y-73039272D01*
X150107668Y-73053795D01*
X150107671Y-73053797D01*
X150242517Y-73104091D01*
X150242516Y-73104091D01*
X150249444Y-73104835D01*
X150302127Y-73110500D01*
X151840774Y-73110499D01*
X151907813Y-73130184D01*
X151953568Y-73182987D01*
X151963512Y-73252146D01*
X151934487Y-73315702D01*
X151875709Y-73353476D01*
X151872867Y-73354274D01*
X151780962Y-73378899D01*
X151780953Y-73378903D01*
X151633870Y-73447488D01*
X151633868Y-73447489D01*
X151500932Y-73540571D01*
X151500888Y-73540608D01*
X151462602Y-73578895D01*
X151456096Y-73584951D01*
X151416563Y-73619185D01*
X151416554Y-73619195D01*
X151409946Y-73628735D01*
X151395707Y-73645793D01*
X151386191Y-73655310D01*
X151386161Y-73655345D01*
X151293083Y-73788282D01*
X151293082Y-73788283D01*
X151224496Y-73935369D01*
X151181299Y-74096588D01*
X151144934Y-74156249D01*
X151093618Y-74184270D01*
X150932452Y-74227454D01*
X150932445Y-74227457D01*
X150785362Y-74296042D01*
X150785360Y-74296043D01*
X150652417Y-74389130D01*
X150614125Y-74427423D01*
X150607618Y-74433480D01*
X150568052Y-74467742D01*
X150561437Y-74477291D01*
X150547199Y-74494346D01*
X150538209Y-74503337D01*
X150537733Y-74503904D01*
X150444651Y-74636817D01*
X150444648Y-74636822D01*
X150376055Y-74783886D01*
X150334036Y-74940640D01*
X150319877Y-75102295D01*
X150319877Y-75102300D01*
X150334000Y-75263949D01*
X150334000Y-75263952D01*
X150375978Y-75420699D01*
X150375980Y-75420707D01*
X150444539Y-75567789D01*
X150492043Y-75635653D01*
X150514360Y-75701862D01*
X150497339Y-75769627D01*
X150478138Y-75794442D01*
X150164952Y-76107627D01*
X150152665Y-76117473D01*
X150152845Y-76117691D01*
X150146832Y-76122664D01*
X150145571Y-76124008D01*
X150118309Y-76145848D01*
X149998135Y-76216919D01*
X149998129Y-76216923D01*
X149881923Y-76333129D01*
X149881917Y-76333137D01*
X149798255Y-76474603D01*
X149798254Y-76474606D01*
X149752402Y-76632426D01*
X149752401Y-76632432D01*
X149749500Y-76669298D01*
X149749500Y-77975701D01*
X149752401Y-78012567D01*
X149752402Y-78012573D01*
X149798254Y-78170393D01*
X149798255Y-78170396D01*
X149798256Y-78170398D01*
X149881919Y-78311865D01*
X149886178Y-78316124D01*
X149919665Y-78377444D01*
X149922500Y-78403808D01*
X149922500Y-80487032D01*
X149920772Y-80502681D01*
X149921054Y-80502708D01*
X149920319Y-80510475D01*
X149922439Y-80577917D01*
X149922500Y-80581811D01*
X149922500Y-80609476D01*
X149923006Y-80613485D01*
X149923921Y-80625116D01*
X149925298Y-80668942D01*
X149930916Y-80688275D01*
X149934862Y-80707329D01*
X149937383Y-80727287D01*
X149937386Y-80727299D01*
X149953519Y-80768048D01*
X149957302Y-80779098D01*
X149969530Y-80821187D01*
X149969530Y-80821188D01*
X149979777Y-80838515D01*
X149988335Y-80855985D01*
X149995745Y-80874701D01*
X150021511Y-80910164D01*
X150027925Y-80919929D01*
X150050234Y-80957652D01*
X150050240Y-80957660D01*
X150064469Y-80971888D01*
X150077106Y-80986684D01*
X150088937Y-81002967D01*
X150122717Y-81030912D01*
X150131346Y-81038765D01*
X150183181Y-81090600D01*
X150216666Y-81151923D01*
X150219500Y-81178280D01*
X150219500Y-81259168D01*
X150219501Y-81259192D01*
X150222335Y-81295205D01*
X150267129Y-81449388D01*
X150267131Y-81449393D01*
X150348863Y-81587595D01*
X150348869Y-81587603D01*
X150387231Y-81625965D01*
X150420716Y-81687288D01*
X150415732Y-81756980D01*
X150406283Y-81776766D01*
X150327130Y-81910608D01*
X150327129Y-81910611D01*
X150282335Y-82064791D01*
X150282334Y-82064797D01*
X150279500Y-82100811D01*
X150279500Y-82499169D01*
X150279501Y-82499191D01*
X150282335Y-82535205D01*
X150327129Y-82689388D01*
X150327132Y-82689395D01*
X150361128Y-82746881D01*
X150378309Y-82814605D01*
X150361128Y-82873119D01*
X150327132Y-82930604D01*
X150327129Y-82930611D01*
X150282335Y-83084791D01*
X150282334Y-83084797D01*
X150279500Y-83120811D01*
X150279500Y-83519169D01*
X150279501Y-83519191D01*
X150282335Y-83555205D01*
X150327129Y-83709388D01*
X150327131Y-83709393D01*
X150408817Y-83847518D01*
X150408865Y-83847598D01*
X150436181Y-83874914D01*
X150469666Y-83936235D01*
X150472500Y-83962595D01*
X150472500Y-83977032D01*
X150470772Y-83992681D01*
X150471054Y-83992708D01*
X150470319Y-84000475D01*
X150472439Y-84067917D01*
X150472500Y-84071811D01*
X150472500Y-84099476D01*
X150473006Y-84103485D01*
X150473921Y-84115116D01*
X150475298Y-84158942D01*
X150480916Y-84178275D01*
X150484862Y-84197329D01*
X150487383Y-84217287D01*
X150487386Y-84217299D01*
X150503519Y-84258048D01*
X150507302Y-84269098D01*
X150519530Y-84311187D01*
X150519530Y-84311188D01*
X150529777Y-84328515D01*
X150538335Y-84345985D01*
X150545745Y-84364701D01*
X150571511Y-84400164D01*
X150577925Y-84409929D01*
X150600234Y-84447652D01*
X150600240Y-84447660D01*
X150614469Y-84461888D01*
X150627106Y-84476684D01*
X150638937Y-84492967D01*
X150672717Y-84520912D01*
X150681346Y-84528765D01*
X150911181Y-84758600D01*
X150944666Y-84819923D01*
X150947500Y-84846281D01*
X150947500Y-84914648D01*
X150938061Y-84962100D01*
X150889957Y-85078234D01*
X150889955Y-85078239D01*
X150874501Y-85195629D01*
X150874500Y-85195645D01*
X150874500Y-86699363D01*
X150889953Y-86816753D01*
X150889957Y-86816765D01*
X150915341Y-86878048D01*
X150922810Y-86947517D01*
X150891534Y-87009996D01*
X150831445Y-87045648D01*
X150800780Y-87049500D01*
X149663705Y-87049500D01*
X149645735Y-87048191D01*
X149621972Y-87044710D01*
X149574843Y-87048834D01*
X149572630Y-87049028D01*
X149561824Y-87049500D01*
X149556284Y-87049500D01*
X149525501Y-87053098D01*
X149521916Y-87053464D01*
X149447199Y-87060001D01*
X149440132Y-87061460D01*
X149440120Y-87061404D01*
X149432763Y-87063035D01*
X149432777Y-87063092D01*
X149425740Y-87064760D01*
X149355231Y-87090421D01*
X149351830Y-87091603D01*
X149280668Y-87115184D01*
X149274126Y-87118235D01*
X149274101Y-87118183D01*
X149267308Y-87121471D01*
X149267334Y-87121522D01*
X149260886Y-87124760D01*
X149198228Y-87165970D01*
X149195191Y-87167905D01*
X149131344Y-87207288D01*
X149125677Y-87211769D01*
X149125641Y-87211723D01*
X149119798Y-87216484D01*
X149119835Y-87216528D01*
X149114310Y-87221164D01*
X149114304Y-87221169D01*
X149114304Y-87221170D01*
X149082679Y-87254690D01*
X149062848Y-87275709D01*
X149060336Y-87278294D01*
X148814358Y-87524272D01*
X148800729Y-87536051D01*
X148781469Y-87550390D01*
X148749632Y-87588331D01*
X148742346Y-87596284D01*
X148738407Y-87600224D01*
X148719176Y-87624545D01*
X148716902Y-87627337D01*
X148668694Y-87684790D01*
X148664729Y-87690819D01*
X148664682Y-87690788D01*
X148660630Y-87697147D01*
X148660679Y-87697177D01*
X148656889Y-87703321D01*
X148625192Y-87771294D01*
X148623623Y-87774536D01*
X148589957Y-87841572D01*
X148587488Y-87848357D01*
X148587432Y-87848336D01*
X148584960Y-87855450D01*
X148585015Y-87855469D01*
X148582743Y-87862325D01*
X148567573Y-87935788D01*
X148566793Y-87939304D01*
X148549499Y-88012279D01*
X148548661Y-88019454D01*
X148548601Y-88019447D01*
X148547835Y-88026945D01*
X148547895Y-88026951D01*
X148547265Y-88034140D01*
X148549448Y-88109128D01*
X148549500Y-88112735D01*
X148549500Y-91625500D01*
X148529815Y-91692539D01*
X148477011Y-91738294D01*
X148425500Y-91749500D01*
X135749500Y-91749500D01*
X135682461Y-91729815D01*
X135636706Y-91677011D01*
X135625500Y-91625500D01*
X135625500Y-89953411D01*
X135642767Y-89890292D01*
X135672869Y-89839393D01*
X135672869Y-89839389D01*
X135672871Y-89839388D01*
X135717664Y-89685208D01*
X135717665Y-89685202D01*
X135718702Y-89672021D01*
X135720500Y-89649181D01*
X135720499Y-89150820D01*
X135717665Y-89114796D01*
X135701482Y-89059093D01*
X135701682Y-88989225D01*
X135739625Y-88930555D01*
X135803263Y-88901712D01*
X135820559Y-88900500D01*
X137632178Y-88900500D01*
X137699217Y-88920185D01*
X137744972Y-88972989D01*
X137752417Y-88996934D01*
X137752735Y-88996849D01*
X137754134Y-89002071D01*
X137754136Y-89002076D01*
X137754137Y-89002080D01*
X137766727Y-89036666D01*
X137808279Y-89150820D01*
X137812521Y-89162472D01*
X137897869Y-89310290D01*
X137930190Y-89348807D01*
X138007585Y-89441039D01*
X138007593Y-89441047D01*
X138093138Y-89512824D01*
X138138345Y-89550755D01*
X138286166Y-89636097D01*
X138286169Y-89636098D01*
X138286175Y-89636101D01*
X138446557Y-89694473D01*
X138446559Y-89694473D01*
X138446561Y-89694474D01*
X138614656Y-89724113D01*
X138614660Y-89724113D01*
X138782954Y-89724113D01*
X138783185Y-89724100D01*
X138785339Y-89724100D01*
X138785343Y-89724100D01*
X138953436Y-89694462D01*
X139113828Y-89636085D01*
X139261647Y-89550744D01*
X139392402Y-89441032D01*
X139502120Y-89310282D01*
X139587467Y-89162467D01*
X139645851Y-89002076D01*
X139646779Y-88996809D01*
X139677804Y-88934210D01*
X139737750Y-88898318D01*
X139790428Y-88896228D01*
X139814655Y-88900500D01*
X139859143Y-88900500D01*
X140327069Y-88900500D01*
X142450849Y-88900500D01*
X142458334Y-88900725D01*
X142467362Y-88901271D01*
X142516082Y-88904219D01*
X142516082Y-88904218D01*
X142516085Y-88904219D01*
X142572997Y-88893789D01*
X142580396Y-88892663D01*
X142637845Y-88885688D01*
X142646605Y-88882365D01*
X142668221Y-88876338D01*
X142677439Y-88874650D01*
X142704335Y-88862544D01*
X142730208Y-88850901D01*
X142737122Y-88848036D01*
X142791226Y-88827518D01*
X142798935Y-88822197D01*
X142818480Y-88811172D01*
X142827028Y-88807326D01*
X142872578Y-88771638D01*
X142878603Y-88767204D01*
X142926229Y-88734332D01*
X142964609Y-88691008D01*
X142969711Y-88685588D01*
X144660597Y-86994703D01*
X144666017Y-86989601D01*
X144709332Y-86951229D01*
X144742211Y-86903593D01*
X144746628Y-86897590D01*
X144782325Y-86852028D01*
X144786169Y-86843485D01*
X144797197Y-86823932D01*
X144802518Y-86816226D01*
X144823049Y-86762087D01*
X144825888Y-86755233D01*
X144849650Y-86702439D01*
X144851338Y-86693221D01*
X144857366Y-86671603D01*
X144860688Y-86662845D01*
X144867663Y-86605396D01*
X144868790Y-86597993D01*
X144879219Y-86541085D01*
X144875726Y-86483340D01*
X144875500Y-86475853D01*
X144875500Y-72431163D01*
X144895185Y-72364124D01*
X144911819Y-72343482D01*
X145587820Y-71667481D01*
X145649143Y-71633996D01*
X145718835Y-71638980D01*
G37*
G04 #@! TD.AperFunction*
G04 #@! TA.AperFunction,Conductor*
G36*
X143443834Y-83713980D02*
G01*
X143499767Y-83755852D01*
X143524184Y-83821316D01*
X143524500Y-83830162D01*
X143524500Y-86168836D01*
X143504815Y-86235875D01*
X143488181Y-86256517D01*
X142231518Y-87513181D01*
X142170195Y-87546666D01*
X142143837Y-87549500D01*
X140367822Y-87549500D01*
X140300783Y-87529815D01*
X140255028Y-87477011D01*
X140247582Y-87453065D01*
X140247265Y-87453151D01*
X140245865Y-87447928D01*
X140245863Y-87447924D01*
X140245863Y-87447920D01*
X140187479Y-87287528D01*
X140102131Y-87139710D01*
X139993283Y-87009996D01*
X139992414Y-87008960D01*
X139992406Y-87008952D01*
X139861660Y-86899249D01*
X139861655Y-86899245D01*
X139713834Y-86813903D01*
X139713824Y-86813898D01*
X139553442Y-86755526D01*
X139385346Y-86725887D01*
X139385344Y-86725887D01*
X139300000Y-86725887D01*
X139223889Y-86725887D01*
X139217046Y-86725887D01*
X139216815Y-86725900D01*
X139214652Y-86725900D01*
X139046563Y-86755537D01*
X138886178Y-86813912D01*
X138886171Y-86813915D01*
X138738349Y-86899258D01*
X138607599Y-87008966D01*
X138497880Y-87139717D01*
X138497878Y-87139719D01*
X138412533Y-87287532D01*
X138411272Y-87290997D01*
X138354151Y-87447920D01*
X138354149Y-87447925D01*
X138354148Y-87447928D01*
X138353219Y-87453197D01*
X138322188Y-87515797D01*
X138262238Y-87551684D01*
X138209572Y-87553771D01*
X138201321Y-87552316D01*
X138185347Y-87549500D01*
X138185345Y-87549500D01*
X138140857Y-87549500D01*
X131530638Y-87549500D01*
X131463599Y-87529815D01*
X131417844Y-87477011D01*
X131416515Y-87473997D01*
X131375132Y-87376615D01*
X131375130Y-87376610D01*
X131234018Y-87145390D01*
X131214113Y-87121471D01*
X131060746Y-86937180D01*
X131060740Y-86937175D01*
X130859002Y-86756418D01*
X130633092Y-86606957D01*
X130633090Y-86606956D01*
X130387824Y-86491980D01*
X130387819Y-86491978D01*
X130387814Y-86491976D01*
X130128442Y-86413942D01*
X130128428Y-86413939D01*
X130012791Y-86396921D01*
X129860439Y-86374500D01*
X129057369Y-86374500D01*
X129057351Y-86374500D01*
X128854844Y-86389323D01*
X128854831Y-86389325D01*
X128590453Y-86448217D01*
X128590446Y-86448220D01*
X128337439Y-86544987D01*
X128260188Y-86588343D01*
X128192092Y-86603988D01*
X128126348Y-86580333D01*
X128083830Y-86524890D01*
X128075500Y-86480209D01*
X128075500Y-85771831D01*
X128095185Y-85704792D01*
X128147989Y-85659037D01*
X128217147Y-85649093D01*
X128252127Y-85659553D01*
X128462176Y-85758020D01*
X128462183Y-85758022D01*
X128462185Y-85758023D01*
X128721557Y-85836057D01*
X128721564Y-85836058D01*
X128721569Y-85836060D01*
X128989561Y-85875500D01*
X128989566Y-85875500D01*
X129792629Y-85875500D01*
X129792631Y-85875500D01*
X129792636Y-85875499D01*
X129792648Y-85875499D01*
X129830191Y-85872750D01*
X129995156Y-85860677D01*
X130107758Y-85835593D01*
X130259546Y-85801782D01*
X130259548Y-85801781D01*
X130259553Y-85801780D01*
X130512558Y-85705014D01*
X130748777Y-85572441D01*
X130963177Y-85406888D01*
X131151186Y-85211881D01*
X131308799Y-84991579D01*
X131381472Y-84850229D01*
X131423851Y-84767802D01*
X131472010Y-84717181D01*
X131534129Y-84700500D01*
X137371202Y-84700500D01*
X137438241Y-84720185D01*
X137483996Y-84772989D01*
X137487729Y-84782103D01*
X137512514Y-84850226D01*
X137512515Y-84850228D01*
X137512526Y-84850247D01*
X137597851Y-84998066D01*
X137707563Y-85128837D01*
X137838319Y-85238568D01*
X137986144Y-85323925D01*
X138146546Y-85382312D01*
X138314651Y-85411956D01*
X138316277Y-85411956D01*
X138316293Y-85411957D01*
X138323889Y-85411957D01*
X138348595Y-85411957D01*
X138348744Y-85412000D01*
X138400000Y-85411999D01*
X138400000Y-85412000D01*
X138485353Y-85411999D01*
X138653465Y-85382354D01*
X138813874Y-85323964D01*
X138961706Y-85238604D01*
X139092467Y-85128868D01*
X139202184Y-84998091D01*
X139287523Y-84850247D01*
X139316837Y-84769679D01*
X139358254Y-84713413D01*
X139423520Y-84688469D01*
X139454890Y-84689961D01*
X139514655Y-84700500D01*
X139559143Y-84700500D01*
X140107313Y-84700500D01*
X142050849Y-84700500D01*
X142058334Y-84700725D01*
X142067362Y-84701271D01*
X142116082Y-84704219D01*
X142116082Y-84704218D01*
X142116085Y-84704219D01*
X142172997Y-84693789D01*
X142180396Y-84692663D01*
X142237845Y-84685688D01*
X142246605Y-84682365D01*
X142268221Y-84676338D01*
X142277439Y-84674650D01*
X142314252Y-84658082D01*
X142330208Y-84650901D01*
X142337122Y-84648036D01*
X142391226Y-84627518D01*
X142398935Y-84622197D01*
X142418480Y-84611172D01*
X142427028Y-84607326D01*
X142472578Y-84571638D01*
X142478603Y-84567204D01*
X142526229Y-84534332D01*
X142564609Y-84491008D01*
X142569711Y-84485588D01*
X143312820Y-83742480D01*
X143374142Y-83708996D01*
X143443834Y-83713980D01*
G37*
G04 #@! TD.AperFunction*
G04 #@! TA.AperFunction,Conductor*
G36*
X151568834Y-76581098D02*
G01*
X151624767Y-76622970D01*
X151649184Y-76688434D01*
X151649500Y-76697280D01*
X151649500Y-77975701D01*
X151652401Y-78012567D01*
X151652402Y-78012573D01*
X151698254Y-78170393D01*
X151698255Y-78170396D01*
X151698256Y-78170398D01*
X151781919Y-78311865D01*
X151836182Y-78366128D01*
X151869666Y-78427449D01*
X151872500Y-78453808D01*
X151872500Y-80071086D01*
X151852815Y-80138125D01*
X151800011Y-80183880D01*
X151780702Y-80189952D01*
X151780881Y-80190567D01*
X151620611Y-80237129D01*
X151620604Y-80237132D01*
X151563119Y-80271128D01*
X151495395Y-80288309D01*
X151436881Y-80271128D01*
X151379395Y-80237132D01*
X151379389Y-80237129D01*
X151266904Y-80204449D01*
X151208019Y-80166842D01*
X151178813Y-80103370D01*
X151177500Y-80085373D01*
X151177500Y-78403808D01*
X151197185Y-78336769D01*
X151213818Y-78316127D01*
X151218081Y-78311865D01*
X151301744Y-78170398D01*
X151347598Y-78012569D01*
X151350500Y-77975694D01*
X151350500Y-76748280D01*
X151370185Y-76681241D01*
X151386815Y-76660603D01*
X151437820Y-76609598D01*
X151499142Y-76576114D01*
X151568834Y-76581098D01*
G37*
G04 #@! TD.AperFunction*
G04 #@! TA.AperFunction,Conductor*
G36*
X154315758Y-66507185D02*
G01*
X154336400Y-66523819D01*
X155136181Y-67323600D01*
X155169666Y-67384923D01*
X155172500Y-67411281D01*
X155172500Y-75588719D01*
X155152815Y-75655758D01*
X155136181Y-75676400D01*
X154153900Y-76658681D01*
X154092577Y-76692166D01*
X154066219Y-76695000D01*
X153358878Y-76695000D01*
X153291839Y-76675315D01*
X153246084Y-76622511D01*
X153239802Y-76605595D01*
X153201746Y-76474606D01*
X153201744Y-76474603D01*
X153201744Y-76474602D01*
X153118081Y-76333135D01*
X153118078Y-76333132D01*
X153113298Y-76326969D01*
X153114986Y-76325659D01*
X153086770Y-76273985D01*
X153091754Y-76204293D01*
X153117540Y-76162748D01*
X153143126Y-76135501D01*
X153145809Y-76132734D01*
X153195151Y-76083402D01*
X153195152Y-76083401D01*
X153199132Y-76077718D01*
X153201225Y-76075142D01*
X153201183Y-76075111D01*
X153207455Y-76066476D01*
X153211054Y-76060691D01*
X153288258Y-75950450D01*
X153356860Y-75803349D01*
X153398871Y-75646569D01*
X153398871Y-75646563D01*
X153400074Y-75642076D01*
X153436440Y-75582416D01*
X153487756Y-75554396D01*
X153492121Y-75553226D01*
X153492125Y-75553226D01*
X153648886Y-75511222D01*
X153795972Y-75442635D01*
X153928913Y-75349549D01*
X153928917Y-75349544D01*
X153933058Y-75346071D01*
X153933266Y-75346319D01*
X153939914Y-75340993D01*
X153939733Y-75340774D01*
X153945738Y-75335804D01*
X153945745Y-75335801D01*
X153991951Y-75286595D01*
X153994568Y-75283894D01*
X154040169Y-75238295D01*
X154040172Y-75238289D01*
X154043375Y-75235087D01*
X154043574Y-75234851D01*
X154043574Y-75234850D01*
X154043577Y-75234848D01*
X154047367Y-75229436D01*
X154049697Y-75226570D01*
X154049678Y-75226557D01*
X154054271Y-75220232D01*
X154054276Y-75220228D01*
X154054278Y-75220222D01*
X154055735Y-75218218D01*
X154059816Y-75211660D01*
X154136693Y-75101909D01*
X154205305Y-74954819D01*
X154247329Y-74798048D01*
X154261448Y-74636822D01*
X154261488Y-74636367D01*
X154261487Y-74636363D01*
X154261488Y-74636361D01*
X154247351Y-74474673D01*
X154205347Y-74317896D01*
X154195157Y-74296043D01*
X154136755Y-74170798D01*
X154117287Y-74142997D01*
X154082109Y-74092760D01*
X154059781Y-74026557D01*
X154076789Y-73958789D01*
X154112557Y-73920063D01*
X154161924Y-73885497D01*
X154169066Y-73878354D01*
X154187054Y-73863472D01*
X154193865Y-73858844D01*
X154230653Y-73817114D01*
X154235988Y-73811434D01*
X154281234Y-73766189D01*
X154281259Y-73766159D01*
X154585043Y-73462374D01*
X154597329Y-73452534D01*
X154597148Y-73452315D01*
X154603157Y-73447342D01*
X154603162Y-73447340D01*
X154649383Y-73398117D01*
X154652033Y-73395384D01*
X154671624Y-73375795D01*
X154674110Y-73372588D01*
X154681675Y-73363731D01*
X154711693Y-73331767D01*
X154721395Y-73314116D01*
X154732069Y-73297868D01*
X154744408Y-73281961D01*
X154761816Y-73241732D01*
X154766947Y-73231257D01*
X154788072Y-73192834D01*
X154793078Y-73173334D01*
X154799376Y-73154936D01*
X154807374Y-73136458D01*
X154814233Y-73093148D01*
X154816594Y-73081745D01*
X154827500Y-73039272D01*
X154827500Y-73019140D01*
X154829027Y-72999740D01*
X154829711Y-72995423D01*
X154832175Y-72979866D01*
X154828050Y-72936229D01*
X154827500Y-72924560D01*
X154827500Y-71282964D01*
X154829228Y-71267313D01*
X154828946Y-71267287D01*
X154829680Y-71259524D01*
X154827561Y-71192081D01*
X154827500Y-71188187D01*
X154827500Y-71160530D01*
X154827500Y-71160524D01*
X154826993Y-71156519D01*
X154826077Y-71144871D01*
X154824701Y-71101058D01*
X154819082Y-71081718D01*
X154815139Y-71062685D01*
X154812616Y-71042707D01*
X154796481Y-71001955D01*
X154792698Y-70990907D01*
X154780468Y-70948809D01*
X154770219Y-70931480D01*
X154761664Y-70914016D01*
X154754253Y-70895297D01*
X154754249Y-70895291D01*
X154728490Y-70859837D01*
X154722074Y-70850070D01*
X154699768Y-70812351D01*
X154699766Y-70812348D01*
X154699764Y-70812345D01*
X154685530Y-70798111D01*
X154672894Y-70783317D01*
X154661062Y-70767032D01*
X154661058Y-70767028D01*
X154627287Y-70739090D01*
X154618647Y-70731228D01*
X154362376Y-70474957D01*
X154352531Y-70462668D01*
X154352313Y-70462849D01*
X154347340Y-70456838D01*
X154298153Y-70410648D01*
X154295354Y-70407935D01*
X154275797Y-70388377D01*
X154272607Y-70385903D01*
X154263716Y-70378310D01*
X154231768Y-70348308D01*
X154231763Y-70348304D01*
X154214122Y-70338606D01*
X154197857Y-70327922D01*
X154181963Y-70315593D01*
X154181962Y-70315592D01*
X154141735Y-70298184D01*
X154131247Y-70293045D01*
X154092838Y-70271929D01*
X154092828Y-70271926D01*
X154073334Y-70266920D01*
X154054933Y-70260620D01*
X154036459Y-70252626D01*
X154036452Y-70252624D01*
X153993173Y-70245770D01*
X153981733Y-70243401D01*
X153939279Y-70232500D01*
X153939272Y-70232500D01*
X153919142Y-70232500D01*
X153899743Y-70230973D01*
X153879868Y-70227825D01*
X153879867Y-70227825D01*
X153836230Y-70231950D01*
X153824561Y-70232500D01*
X152924499Y-70232500D01*
X152857460Y-70212815D01*
X152811705Y-70160011D01*
X152800499Y-70108500D01*
X152800499Y-69062129D01*
X152800498Y-69062123D01*
X152800497Y-69062116D01*
X152794091Y-69002517D01*
X152743796Y-68867669D01*
X152743795Y-68867668D01*
X152743793Y-68867664D01*
X152657547Y-68752455D01*
X152657544Y-68752452D01*
X152542335Y-68666206D01*
X152542328Y-68666202D01*
X152407482Y-68615908D01*
X152407483Y-68615908D01*
X152347883Y-68609501D01*
X152347881Y-68609500D01*
X152347873Y-68609500D01*
X152347864Y-68609500D01*
X150302129Y-68609500D01*
X150302123Y-68609501D01*
X150242516Y-68615908D01*
X150107671Y-68666202D01*
X150107664Y-68666206D01*
X150062309Y-68700159D01*
X149996845Y-68724576D01*
X149944666Y-68717074D01*
X149807482Y-68665908D01*
X149807483Y-68665908D01*
X149747883Y-68659501D01*
X149747881Y-68659500D01*
X149747873Y-68659500D01*
X149747864Y-68659500D01*
X148852129Y-68659500D01*
X148852123Y-68659501D01*
X148792515Y-68665909D01*
X148655332Y-68717074D01*
X148585641Y-68722058D01*
X148537689Y-68700159D01*
X148536573Y-68699323D01*
X148492331Y-68666204D01*
X148492329Y-68666203D01*
X148492328Y-68666202D01*
X148357482Y-68615908D01*
X148357483Y-68615908D01*
X148297883Y-68609501D01*
X148297881Y-68609500D01*
X148297873Y-68609500D01*
X148297864Y-68609500D01*
X146252129Y-68609500D01*
X146252123Y-68609501D01*
X146192516Y-68615908D01*
X146057671Y-68666202D01*
X146057664Y-68666206D01*
X145942455Y-68752452D01*
X145942452Y-68752455D01*
X145856206Y-68867664D01*
X145856202Y-68867671D01*
X145805908Y-69002517D01*
X145799501Y-69062116D01*
X145799501Y-69062123D01*
X145799500Y-69062135D01*
X145799500Y-70060500D01*
X145779815Y-70127539D01*
X145727011Y-70173294D01*
X145675500Y-70184500D01*
X145464151Y-70184500D01*
X145456665Y-70184274D01*
X145447637Y-70183728D01*
X145398918Y-70180781D01*
X145398908Y-70180781D01*
X145342011Y-70191207D01*
X145334613Y-70192334D01*
X145277155Y-70199311D01*
X145268381Y-70202639D01*
X145246778Y-70208660D01*
X145242259Y-70209488D01*
X145237560Y-70210350D01*
X145184781Y-70234102D01*
X145177869Y-70236965D01*
X145123774Y-70257482D01*
X145123770Y-70257484D01*
X145116056Y-70262808D01*
X145096525Y-70273824D01*
X145087970Y-70277674D01*
X145042417Y-70313363D01*
X145036387Y-70317800D01*
X144988772Y-70350667D01*
X144988769Y-70350669D01*
X144950406Y-70393972D01*
X144945273Y-70399424D01*
X144287181Y-71057517D01*
X144225858Y-71091002D01*
X144156167Y-71086018D01*
X144100233Y-71044147D01*
X144075816Y-70978682D01*
X144075500Y-70969836D01*
X144075500Y-68431163D01*
X144095185Y-68364124D01*
X144111819Y-68343482D01*
X144847380Y-67607921D01*
X145587821Y-66867479D01*
X145649142Y-66833996D01*
X145718834Y-66838980D01*
X145774767Y-66880852D01*
X145799184Y-66946316D01*
X145799500Y-66955162D01*
X145799500Y-67657870D01*
X145799501Y-67657876D01*
X145805908Y-67717483D01*
X145856202Y-67852328D01*
X145856206Y-67852335D01*
X145942452Y-67967544D01*
X145942455Y-67967547D01*
X146057664Y-68053793D01*
X146057671Y-68053797D01*
X146192517Y-68104091D01*
X146192516Y-68104091D01*
X146199444Y-68104835D01*
X146252127Y-68110500D01*
X148297872Y-68110499D01*
X148357483Y-68104091D01*
X148492331Y-68053796D01*
X148537689Y-68019840D01*
X148603152Y-67995423D01*
X148655333Y-68002925D01*
X148792517Y-68054091D01*
X148792516Y-68054091D01*
X148799444Y-68054835D01*
X148852127Y-68060500D01*
X149747872Y-68060499D01*
X149807483Y-68054091D01*
X149942331Y-68003796D01*
X149942335Y-68003792D01*
X149944664Y-68002924D01*
X150014355Y-67997940D01*
X150062310Y-68019840D01*
X150107668Y-68053795D01*
X150107671Y-68053797D01*
X150242517Y-68104091D01*
X150242516Y-68104091D01*
X150249444Y-68104835D01*
X150302127Y-68110500D01*
X152347872Y-68110499D01*
X152407483Y-68104091D01*
X152542331Y-68053796D01*
X152657546Y-67967546D01*
X152743796Y-67852331D01*
X152794091Y-67717483D01*
X152800500Y-67657873D01*
X152800500Y-66611500D01*
X152820185Y-66544461D01*
X152872989Y-66498706D01*
X152924500Y-66487500D01*
X154248719Y-66487500D01*
X154315758Y-66507185D01*
G37*
G04 #@! TD.AperFunction*
G04 #@! TA.AperFunction,Conductor*
G36*
X190690118Y-57776763D02*
G01*
X190693334Y-57777044D01*
X190729596Y-57780217D01*
X190730666Y-57780316D01*
X190856502Y-57792713D01*
X190876414Y-57796337D01*
X190941146Y-57813684D01*
X190944929Y-57814764D01*
X191036287Y-57842478D01*
X191052684Y-57848753D01*
X191118575Y-57879480D01*
X191124590Y-57882487D01*
X191203769Y-57924810D01*
X191216430Y-57932589D01*
X191277598Y-57975420D01*
X191285132Y-57981136D01*
X191353181Y-58036983D01*
X191362178Y-58045137D01*
X191382677Y-58065636D01*
X191415366Y-58098326D01*
X191423537Y-58107342D01*
X191479360Y-58175364D01*
X191485081Y-58182905D01*
X191527920Y-58244086D01*
X191535699Y-58256748D01*
X191578014Y-58335913D01*
X191581031Y-58341948D01*
X191611750Y-58407824D01*
X191618026Y-58424227D01*
X191645714Y-58515500D01*
X191646828Y-58519402D01*
X191664165Y-58584105D01*
X191667792Y-58604033D01*
X191680068Y-58728564D01*
X191680194Y-58729916D01*
X191683753Y-58770574D01*
X191684225Y-58781387D01*
X191684225Y-115390376D01*
X191683753Y-115401187D01*
X191680307Y-115440562D01*
X191680182Y-115441904D01*
X191667808Y-115567553D01*
X191664181Y-115587491D01*
X191646851Y-115652174D01*
X191645736Y-115656077D01*
X191618047Y-115747359D01*
X191611769Y-115763767D01*
X191581053Y-115829641D01*
X191578028Y-115835693D01*
X191535719Y-115914847D01*
X191527937Y-115927514D01*
X191485099Y-115988696D01*
X191479377Y-115996239D01*
X191423555Y-116064260D01*
X191415383Y-116073276D01*
X191362201Y-116126459D01*
X191353187Y-116134629D01*
X191285163Y-116190459D01*
X191277620Y-116196183D01*
X191216447Y-116239018D01*
X191203777Y-116246801D01*
X191124613Y-116289117D01*
X191118566Y-116292141D01*
X191052702Y-116322856D01*
X191036291Y-116329135D01*
X190944984Y-116356834D01*
X190941083Y-116357948D01*
X190876456Y-116375266D01*
X190856497Y-116378897D01*
X190728461Y-116391489D01*
X190727137Y-116391612D01*
X190699459Y-116394034D01*
X190690493Y-116394819D01*
X190679686Y-116395291D01*
X122690134Y-116395291D01*
X122679330Y-116394819D01*
X122673251Y-116394287D01*
X122639951Y-116391374D01*
X122638608Y-116391249D01*
X122512965Y-116378878D01*
X122493023Y-116375250D01*
X122428328Y-116357916D01*
X122424427Y-116356802D01*
X122333162Y-116329119D01*
X122316751Y-116322841D01*
X122250868Y-116292120D01*
X122244820Y-116289096D01*
X122165667Y-116246789D01*
X122152997Y-116239006D01*
X122091829Y-116196177D01*
X122084288Y-116190456D01*
X122016254Y-116134624D01*
X122007237Y-116126451D01*
X121954057Y-116073272D01*
X121945889Y-116064260D01*
X121890040Y-115996208D01*
X121884340Y-115988696D01*
X121841489Y-115927498D01*
X121833732Y-115914871D01*
X121791384Y-115835645D01*
X121788385Y-115829644D01*
X121757666Y-115763768D01*
X121751392Y-115747370D01*
X121723686Y-115656036D01*
X121722590Y-115652198D01*
X121705251Y-115587489D01*
X121701628Y-115567570D01*
X121689131Y-115440562D01*
X121689020Y-115439364D01*
X121685697Y-115401378D01*
X121685225Y-115390572D01*
X121685225Y-114095791D01*
X123479082Y-114095791D01*
X123486755Y-114178597D01*
X123487284Y-114190038D01*
X123487284Y-114206750D01*
X123490222Y-114222469D01*
X123490354Y-114223173D01*
X123491935Y-114234510D01*
X123499610Y-114317327D01*
X123499610Y-114317329D01*
X123522370Y-114397321D01*
X123524990Y-114408460D01*
X123528062Y-114424888D01*
X123528063Y-114424893D01*
X123534097Y-114440468D01*
X123537737Y-114451328D01*
X123560495Y-114531318D01*
X123578153Y-114566779D01*
X123597566Y-114605765D01*
X123602187Y-114616231D01*
X123608227Y-114631823D01*
X123617024Y-114646029D01*
X123622597Y-114656035D01*
X123659663Y-114730474D01*
X123659667Y-114730481D01*
X123709780Y-114796841D01*
X123716250Y-114806286D01*
X123725053Y-114820502D01*
X123736310Y-114832851D01*
X123743626Y-114841661D01*
X123793745Y-114908028D01*
X123855199Y-114964051D01*
X123863298Y-114972150D01*
X123874556Y-114984500D01*
X123887896Y-114994574D01*
X123896706Y-115001890D01*
X123958158Y-115057911D01*
X123958160Y-115057912D01*
X123958163Y-115057915D01*
X124028869Y-115101694D01*
X124038315Y-115108164D01*
X124051653Y-115118237D01*
X124066624Y-115125691D01*
X124076621Y-115131261D01*
X124147314Y-115175033D01*
X124147318Y-115175035D01*
X124147321Y-115175036D01*
X124147324Y-115175038D01*
X124224878Y-115205082D01*
X124235334Y-115209700D01*
X124250301Y-115217153D01*
X124250303Y-115217153D01*
X124250306Y-115217155D01*
X124266400Y-115221734D01*
X124277236Y-115225366D01*
X124354785Y-115255409D01*
X124436552Y-115270694D01*
X124447679Y-115273311D01*
X124463753Y-115277885D01*
X124480384Y-115279426D01*
X124491713Y-115281005D01*
X124573482Y-115296291D01*
X124573484Y-115296291D01*
X124656643Y-115296291D01*
X124668084Y-115296819D01*
X124684725Y-115298362D01*
X124701365Y-115296819D01*
X124712807Y-115296291D01*
X124795967Y-115296291D01*
X124795968Y-115296291D01*
X124877732Y-115281006D01*
X124889053Y-115279427D01*
X124905697Y-115277885D01*
X124921794Y-115273304D01*
X124932886Y-115270696D01*
X125014665Y-115255409D01*
X125092239Y-115225356D01*
X125103036Y-115221737D01*
X125119144Y-115217155D01*
X125134116Y-115209700D01*
X125144572Y-115205082D01*
X125222126Y-115175038D01*
X125292862Y-115131239D01*
X125302808Y-115125700D01*
X125317797Y-115118237D01*
X125331142Y-115108159D01*
X125340548Y-115101714D01*
X125411287Y-115057915D01*
X125472765Y-115001869D01*
X125481539Y-114994584D01*
X125494892Y-114984501D01*
X125506166Y-114972133D01*
X125514231Y-114964068D01*
X125575706Y-114908027D01*
X125625833Y-114841647D01*
X125633127Y-114832863D01*
X125644397Y-114820502D01*
X125653208Y-114806271D01*
X125659652Y-114796863D01*
X125709783Y-114730480D01*
X125746863Y-114656012D01*
X125752412Y-114646050D01*
X125761222Y-114631823D01*
X125767264Y-114616225D01*
X125771871Y-114605789D01*
X125808954Y-114531319D01*
X125831721Y-114451300D01*
X125835347Y-114440482D01*
X125841388Y-114424890D01*
X125844458Y-114408462D01*
X125847071Y-114397350D01*
X125869840Y-114317327D01*
X125877514Y-114234506D01*
X125879092Y-114223189D01*
X125882166Y-114206750D01*
X125882756Y-114181146D01*
X125883249Y-114172616D01*
X125890368Y-114095791D01*
X187479082Y-114095791D01*
X187486755Y-114178597D01*
X187487284Y-114190038D01*
X187487284Y-114206750D01*
X187490222Y-114222469D01*
X187490354Y-114223173D01*
X187491935Y-114234510D01*
X187499610Y-114317327D01*
X187499610Y-114317329D01*
X187522370Y-114397321D01*
X187524990Y-114408460D01*
X187528062Y-114424888D01*
X187528063Y-114424893D01*
X187534097Y-114440468D01*
X187537737Y-114451328D01*
X187560495Y-114531318D01*
X187578153Y-114566779D01*
X187597566Y-114605765D01*
X187602187Y-114616231D01*
X187608227Y-114631823D01*
X187617024Y-114646029D01*
X187622597Y-114656035D01*
X187659663Y-114730474D01*
X187659667Y-114730481D01*
X187709780Y-114796841D01*
X187716250Y-114806286D01*
X187725053Y-114820502D01*
X187736310Y-114832851D01*
X187743626Y-114841661D01*
X187793745Y-114908028D01*
X187855199Y-114964051D01*
X187863298Y-114972150D01*
X187874556Y-114984500D01*
X187887896Y-114994574D01*
X187896706Y-115001890D01*
X187958158Y-115057911D01*
X187958160Y-115057912D01*
X187958163Y-115057915D01*
X188028869Y-115101694D01*
X188038315Y-115108164D01*
X188051653Y-115118237D01*
X188066624Y-115125691D01*
X188076621Y-115131261D01*
X188147314Y-115175033D01*
X188147318Y-115175035D01*
X188147321Y-115175036D01*
X188147324Y-115175038D01*
X188224878Y-115205082D01*
X188235334Y-115209700D01*
X188250301Y-115217153D01*
X188250303Y-115217153D01*
X188250306Y-115217155D01*
X188266400Y-115221734D01*
X188277236Y-115225366D01*
X188354785Y-115255409D01*
X188436552Y-115270694D01*
X188447679Y-115273311D01*
X188463753Y-115277885D01*
X188480384Y-115279426D01*
X188491713Y-115281005D01*
X188573482Y-115296291D01*
X188573484Y-115296291D01*
X188656643Y-115296291D01*
X188668084Y-115296819D01*
X188684725Y-115298362D01*
X188701365Y-115296819D01*
X188712807Y-115296291D01*
X188795967Y-115296291D01*
X188795968Y-115296291D01*
X188877732Y-115281006D01*
X188889053Y-115279427D01*
X188905697Y-115277885D01*
X188921794Y-115273304D01*
X188932886Y-115270696D01*
X189014665Y-115255409D01*
X189092239Y-115225356D01*
X189103036Y-115221737D01*
X189119144Y-115217155D01*
X189134116Y-115209700D01*
X189144572Y-115205082D01*
X189222126Y-115175038D01*
X189292862Y-115131239D01*
X189302808Y-115125700D01*
X189317797Y-115118237D01*
X189331142Y-115108159D01*
X189340548Y-115101714D01*
X189411287Y-115057915D01*
X189472765Y-115001869D01*
X189481539Y-114994584D01*
X189494892Y-114984501D01*
X189506166Y-114972133D01*
X189514231Y-114964068D01*
X189575706Y-114908027D01*
X189625833Y-114841647D01*
X189633127Y-114832863D01*
X189644397Y-114820502D01*
X189653208Y-114806271D01*
X189659652Y-114796863D01*
X189709783Y-114730480D01*
X189746863Y-114656012D01*
X189752412Y-114646050D01*
X189761222Y-114631823D01*
X189767264Y-114616225D01*
X189771871Y-114605789D01*
X189808954Y-114531319D01*
X189831721Y-114451300D01*
X189835347Y-114440482D01*
X189841388Y-114424890D01*
X189844458Y-114408462D01*
X189847071Y-114397350D01*
X189869840Y-114317327D01*
X189877514Y-114234506D01*
X189879092Y-114223189D01*
X189882166Y-114206750D01*
X189882756Y-114181146D01*
X189883249Y-114172616D01*
X189890368Y-114095791D01*
X189883249Y-114018968D01*
X189882756Y-114010435D01*
X189882166Y-113984832D01*
X189879090Y-113968382D01*
X189877513Y-113957062D01*
X189869840Y-113874255D01*
X189847072Y-113794236D01*
X189844458Y-113783119D01*
X189841388Y-113766692D01*
X189835349Y-113751106D01*
X189831719Y-113740275D01*
X189808954Y-113660263D01*
X189771880Y-113585810D01*
X189767258Y-113575340D01*
X189761223Y-113559761D01*
X189761222Y-113559759D01*
X189752413Y-113545533D01*
X189746860Y-113535563D01*
X189709783Y-113461102D01*
X189659659Y-113394727D01*
X189653195Y-113385290D01*
X189644397Y-113371080D01*
X189633137Y-113358728D01*
X189625823Y-113349920D01*
X189598657Y-113313947D01*
X189575706Y-113283555D01*
X189514251Y-113227531D01*
X189514248Y-113227528D01*
X189506151Y-113219431D01*
X189494895Y-113207084D01*
X189494893Y-113207082D01*
X189494892Y-113207081D01*
X189481546Y-113197002D01*
X189472753Y-113189701D01*
X189411287Y-113133667D01*
X189340583Y-113089889D01*
X189331136Y-113083418D01*
X189317793Y-113073342D01*
X189302832Y-113065892D01*
X189292830Y-113060321D01*
X189222132Y-113016547D01*
X189222131Y-113016546D01*
X189144587Y-112986504D01*
X189134121Y-112981883D01*
X189119151Y-112974430D01*
X189119147Y-112974428D01*
X189119144Y-112974427D01*
X189119136Y-112974424D01*
X189119134Y-112974424D01*
X189103062Y-112969850D01*
X189092211Y-112966213D01*
X189014668Y-112936174D01*
X189014666Y-112936173D01*
X189014665Y-112936173D01*
X189014663Y-112936172D01*
X189014654Y-112936170D01*
X188932915Y-112920890D01*
X188921769Y-112918269D01*
X188905697Y-112913696D01*
X188905693Y-112913695D01*
X188889055Y-112912153D01*
X188877721Y-112910572D01*
X188795969Y-112895291D01*
X188795968Y-112895291D01*
X188712796Y-112895291D01*
X188701356Y-112894762D01*
X188684725Y-112893221D01*
X188668093Y-112894762D01*
X188656654Y-112895291D01*
X188573480Y-112895291D01*
X188491728Y-112910572D01*
X188480395Y-112912153D01*
X188463761Y-112913695D01*
X188463747Y-112913698D01*
X188447667Y-112918272D01*
X188436529Y-112920891D01*
X188354789Y-112936171D01*
X188354779Y-112936174D01*
X188277243Y-112966212D01*
X188266391Y-112969850D01*
X188250305Y-112974427D01*
X188250295Y-112974431D01*
X188235325Y-112981884D01*
X188224862Y-112986503D01*
X188147332Y-113016540D01*
X188147320Y-113016546D01*
X188076616Y-113060323D01*
X188066615Y-113065893D01*
X188051659Y-113073340D01*
X188051654Y-113073343D01*
X188038313Y-113083417D01*
X188028874Y-113089883D01*
X187958160Y-113133668D01*
X187896693Y-113189701D01*
X187887891Y-113197011D01*
X187874555Y-113207082D01*
X187863289Y-113219440D01*
X187855197Y-113227531D01*
X187793747Y-113283551D01*
X187743626Y-113349920D01*
X187736315Y-113358724D01*
X187725055Y-113371077D01*
X187725054Y-113371077D01*
X187716256Y-113385287D01*
X187709787Y-113394731D01*
X187677163Y-113437932D01*
X187659667Y-113461102D01*
X187659666Y-113461103D01*
X187659666Y-113461104D01*
X187659659Y-113461115D01*
X187622595Y-113535548D01*
X187617028Y-113545544D01*
X187608227Y-113559759D01*
X187602191Y-113575340D01*
X187597567Y-113585811D01*
X187560498Y-113660258D01*
X187560495Y-113660264D01*
X187547710Y-113705198D01*
X187537736Y-113740256D01*
X187534098Y-113751110D01*
X187528063Y-113766686D01*
X187528062Y-113766692D01*
X187524993Y-113783107D01*
X187522372Y-113794249D01*
X187499610Y-113874255D01*
X187491936Y-113957062D01*
X187490355Y-113968398D01*
X187487284Y-113984828D01*
X187487284Y-114001542D01*
X187486755Y-114012983D01*
X187479082Y-114095790D01*
X187479082Y-114095791D01*
X125890368Y-114095791D01*
X125883249Y-114018968D01*
X125882756Y-114010435D01*
X125882166Y-113984832D01*
X125879090Y-113968382D01*
X125877513Y-113957062D01*
X125869840Y-113874255D01*
X125847072Y-113794236D01*
X125844458Y-113783119D01*
X125841388Y-113766692D01*
X125835349Y-113751106D01*
X125831719Y-113740275D01*
X125808954Y-113660263D01*
X125771880Y-113585810D01*
X125767258Y-113575340D01*
X125761223Y-113559761D01*
X125761222Y-113559759D01*
X125752413Y-113545533D01*
X125746860Y-113535563D01*
X125709783Y-113461102D01*
X125659659Y-113394727D01*
X125653195Y-113385290D01*
X125644397Y-113371080D01*
X125633137Y-113358728D01*
X125625823Y-113349920D01*
X125598657Y-113313947D01*
X125575706Y-113283555D01*
X125514251Y-113227531D01*
X125514248Y-113227528D01*
X125506151Y-113219431D01*
X125494895Y-113207084D01*
X125494893Y-113207082D01*
X125494892Y-113207081D01*
X125481546Y-113197002D01*
X125472753Y-113189701D01*
X125411287Y-113133667D01*
X125340583Y-113089889D01*
X125331136Y-113083418D01*
X125317793Y-113073342D01*
X125302832Y-113065892D01*
X125292830Y-113060321D01*
X125222132Y-113016547D01*
X125222131Y-113016546D01*
X125144587Y-112986504D01*
X125134121Y-112981883D01*
X125119151Y-112974430D01*
X125119147Y-112974428D01*
X125119144Y-112974427D01*
X125119136Y-112974424D01*
X125119134Y-112974424D01*
X125103062Y-112969850D01*
X125092211Y-112966213D01*
X125014668Y-112936174D01*
X125014666Y-112936173D01*
X125014665Y-112936173D01*
X125014663Y-112936172D01*
X125014654Y-112936170D01*
X124932915Y-112920890D01*
X124921769Y-112918269D01*
X124905697Y-112913696D01*
X124905693Y-112913695D01*
X124889055Y-112912153D01*
X124877721Y-112910572D01*
X124795969Y-112895291D01*
X124795968Y-112895291D01*
X124712796Y-112895291D01*
X124701356Y-112894762D01*
X124684725Y-112893221D01*
X124668093Y-112894762D01*
X124656654Y-112895291D01*
X124573480Y-112895291D01*
X124491728Y-112910572D01*
X124480395Y-112912153D01*
X124463761Y-112913695D01*
X124463747Y-112913698D01*
X124447667Y-112918272D01*
X124436529Y-112920891D01*
X124354789Y-112936171D01*
X124354779Y-112936174D01*
X124277243Y-112966212D01*
X124266391Y-112969850D01*
X124250305Y-112974427D01*
X124250295Y-112974431D01*
X124235325Y-112981884D01*
X124224862Y-112986503D01*
X124147332Y-113016540D01*
X124147320Y-113016546D01*
X124076616Y-113060323D01*
X124066615Y-113065893D01*
X124051659Y-113073340D01*
X124051654Y-113073343D01*
X124038313Y-113083417D01*
X124028874Y-113089883D01*
X123958160Y-113133668D01*
X123896693Y-113189701D01*
X123887891Y-113197011D01*
X123874555Y-113207082D01*
X123863289Y-113219440D01*
X123855197Y-113227531D01*
X123793747Y-113283551D01*
X123743626Y-113349920D01*
X123736315Y-113358724D01*
X123725055Y-113371077D01*
X123725054Y-113371077D01*
X123716256Y-113385287D01*
X123709787Y-113394731D01*
X123677163Y-113437932D01*
X123659667Y-113461102D01*
X123659666Y-113461103D01*
X123659666Y-113461104D01*
X123659659Y-113461115D01*
X123622595Y-113535548D01*
X123617028Y-113545544D01*
X123608227Y-113559759D01*
X123602191Y-113575340D01*
X123597567Y-113585811D01*
X123560498Y-113660258D01*
X123560495Y-113660264D01*
X123547710Y-113705198D01*
X123537736Y-113740256D01*
X123534098Y-113751110D01*
X123528063Y-113766686D01*
X123528062Y-113766692D01*
X123524993Y-113783107D01*
X123522372Y-113794249D01*
X123499610Y-113874255D01*
X123491936Y-113957062D01*
X123490355Y-113968398D01*
X123487284Y-113984828D01*
X123487284Y-114001542D01*
X123486755Y-114012983D01*
X123479082Y-114095790D01*
X123479082Y-114095791D01*
X121685225Y-114095791D01*
X121685225Y-105100005D01*
X146894357Y-105100005D01*
X146914890Y-105347812D01*
X146914892Y-105347824D01*
X146975936Y-105588881D01*
X147075826Y-105816606D01*
X147211833Y-106024782D01*
X147211836Y-106024785D01*
X147380256Y-106207738D01*
X147576491Y-106360474D01*
X147795190Y-106478828D01*
X148030386Y-106559571D01*
X148275665Y-106600500D01*
X148524335Y-106600500D01*
X148769614Y-106559571D01*
X149004810Y-106478828D01*
X149223509Y-106360474D01*
X149419744Y-106207738D01*
X149588164Y-106024785D01*
X149724173Y-105816607D01*
X149824063Y-105588881D01*
X149885108Y-105347821D01*
X149894254Y-105237445D01*
X149905643Y-105100005D01*
X149905643Y-105099994D01*
X149885109Y-104852187D01*
X149885107Y-104852175D01*
X149824063Y-104611118D01*
X149724173Y-104383393D01*
X149588166Y-104175217D01*
X149557522Y-104141929D01*
X149419744Y-103992262D01*
X149223509Y-103839526D01*
X149223507Y-103839525D01*
X149223506Y-103839524D01*
X149004811Y-103721172D01*
X149004802Y-103721169D01*
X148769616Y-103640429D01*
X148524335Y-103599500D01*
X148275665Y-103599500D01*
X148030383Y-103640429D01*
X147795197Y-103721169D01*
X147795188Y-103721172D01*
X147576493Y-103839524D01*
X147380257Y-103992261D01*
X147211833Y-104175217D01*
X147075826Y-104383393D01*
X146975936Y-104611118D01*
X146914892Y-104852175D01*
X146914890Y-104852187D01*
X146894357Y-105099994D01*
X146894357Y-105100005D01*
X121685225Y-105100005D01*
X121685225Y-89000644D01*
X121704910Y-88933605D01*
X121757714Y-88887850D01*
X121826872Y-88877906D01*
X121890428Y-88906931D01*
X121923346Y-88952144D01*
X121974870Y-89073390D01*
X122090346Y-89262604D01*
X122115979Y-89304605D01*
X122115986Y-89304615D01*
X122289253Y-89512819D01*
X122289259Y-89512824D01*
X122377716Y-89592081D01*
X122490998Y-89693582D01*
X122716910Y-89843044D01*
X122962176Y-89958020D01*
X122962183Y-89958022D01*
X122962185Y-89958023D01*
X123221557Y-90036057D01*
X123221564Y-90036058D01*
X123221569Y-90036060D01*
X123489561Y-90075500D01*
X123489566Y-90075500D01*
X124292629Y-90075500D01*
X124292631Y-90075500D01*
X124292636Y-90075499D01*
X124292648Y-90075499D01*
X124330191Y-90072750D01*
X124495156Y-90060677D01*
X124607758Y-90035593D01*
X124759546Y-90001782D01*
X124759548Y-90001781D01*
X124759553Y-90001780D01*
X125012558Y-89905014D01*
X125248777Y-89772441D01*
X125463177Y-89606888D01*
X125651186Y-89411881D01*
X125808799Y-89191579D01*
X125888445Y-89036666D01*
X125932649Y-88950690D01*
X125932651Y-88950684D01*
X125932656Y-88950675D01*
X126018088Y-88700256D01*
X126020115Y-88694314D01*
X126020115Y-88694313D01*
X126020118Y-88694305D01*
X126069319Y-88427933D01*
X126079212Y-88157235D01*
X126049586Y-87887982D01*
X125981072Y-87625912D01*
X125875130Y-87376610D01*
X125734018Y-87145390D01*
X125714113Y-87121471D01*
X125560746Y-86937180D01*
X125560740Y-86937175D01*
X125359002Y-86756418D01*
X125133092Y-86606957D01*
X125133090Y-86606956D01*
X124887824Y-86491980D01*
X124887819Y-86491978D01*
X124887814Y-86491976D01*
X124628442Y-86413942D01*
X124628428Y-86413939D01*
X124512791Y-86396921D01*
X124360439Y-86374500D01*
X123557369Y-86374500D01*
X123557351Y-86374500D01*
X123354844Y-86389323D01*
X123354831Y-86389325D01*
X123090453Y-86448217D01*
X123090446Y-86448220D01*
X122837439Y-86544987D01*
X122601226Y-86677557D01*
X122386822Y-86843112D01*
X122198822Y-87038109D01*
X122198816Y-87038116D01*
X122041202Y-87258419D01*
X122041199Y-87258424D01*
X121919503Y-87495123D01*
X121871343Y-87545744D01*
X121803461Y-87562291D01*
X121737409Y-87539512D01*
X121694158Y-87484638D01*
X121685225Y-87438425D01*
X121685225Y-84800644D01*
X121704910Y-84733605D01*
X121757714Y-84687850D01*
X121826872Y-84677906D01*
X121890428Y-84706931D01*
X121923346Y-84752144D01*
X121974870Y-84873390D01*
X122092842Y-85066694D01*
X122115979Y-85104605D01*
X122115986Y-85104615D01*
X122289253Y-85312819D01*
X122289259Y-85312824D01*
X122399946Y-85411999D01*
X122490998Y-85493582D01*
X122716910Y-85643044D01*
X122962176Y-85758020D01*
X122962183Y-85758022D01*
X122962185Y-85758023D01*
X123221557Y-85836057D01*
X123221564Y-85836058D01*
X123221569Y-85836060D01*
X123489561Y-85875500D01*
X123489566Y-85875500D01*
X124292629Y-85875500D01*
X124292631Y-85875500D01*
X124292636Y-85875499D01*
X124292648Y-85875499D01*
X124330191Y-85872750D01*
X124495156Y-85860677D01*
X124607758Y-85835593D01*
X124759546Y-85801782D01*
X124759548Y-85801781D01*
X124759553Y-85801780D01*
X125012558Y-85705014D01*
X125248777Y-85572441D01*
X125463177Y-85406888D01*
X125651186Y-85211881D01*
X125808799Y-84991579D01*
X125897053Y-84819923D01*
X125932649Y-84750690D01*
X125932651Y-84750684D01*
X125932656Y-84750675D01*
X126019287Y-84496741D01*
X126020115Y-84494314D01*
X126020115Y-84494313D01*
X126020118Y-84494305D01*
X126069319Y-84227933D01*
X126079212Y-83957235D01*
X126049586Y-83687982D01*
X125981072Y-83425912D01*
X125875130Y-83176610D01*
X125734018Y-82945390D01*
X125686318Y-82888072D01*
X125560746Y-82737180D01*
X125560740Y-82737175D01*
X125359002Y-82556418D01*
X125133092Y-82406957D01*
X125076298Y-82380333D01*
X124887824Y-82291980D01*
X124887819Y-82291978D01*
X124887814Y-82291976D01*
X124628442Y-82213942D01*
X124628428Y-82213939D01*
X124512791Y-82196921D01*
X124360439Y-82174500D01*
X123557369Y-82174500D01*
X123557351Y-82174500D01*
X123354844Y-82189323D01*
X123354831Y-82189325D01*
X123090453Y-82248217D01*
X123090446Y-82248220D01*
X122837439Y-82344987D01*
X122601226Y-82477557D01*
X122601224Y-82477558D01*
X122601223Y-82477559D01*
X122538893Y-82525688D01*
X122386822Y-82643112D01*
X122198822Y-82838109D01*
X122198816Y-82838116D01*
X122041202Y-83058419D01*
X122041199Y-83058424D01*
X121919503Y-83295123D01*
X121871343Y-83345744D01*
X121803461Y-83362291D01*
X121737409Y-83339512D01*
X121694158Y-83284638D01*
X121685225Y-83238425D01*
X121685225Y-80530195D01*
X126819840Y-80530195D01*
X126823950Y-80573674D01*
X126824500Y-80585343D01*
X126824500Y-88836063D01*
X126822775Y-88851680D01*
X126823061Y-88851707D01*
X126822326Y-88859473D01*
X126824439Y-88926680D01*
X126824500Y-88930575D01*
X126824500Y-88958165D01*
X126825003Y-88962143D01*
X126825918Y-88973775D01*
X126827290Y-89017432D01*
X126827291Y-89017435D01*
X126832880Y-89036675D01*
X126836824Y-89055719D01*
X126837251Y-89059094D01*
X126839336Y-89075600D01*
X126855414Y-89116211D01*
X126859197Y-89127260D01*
X126870751Y-89167028D01*
X126871382Y-89169198D01*
X126879730Y-89183315D01*
X126881580Y-89186442D01*
X126890136Y-89203908D01*
X126892832Y-89210715D01*
X126897514Y-89222540D01*
X126923181Y-89257868D01*
X126929593Y-89267629D01*
X126951828Y-89305225D01*
X126951833Y-89305232D01*
X126965990Y-89319388D01*
X126978628Y-89334184D01*
X126990405Y-89350394D01*
X126990406Y-89350395D01*
X127024057Y-89378233D01*
X127032698Y-89386096D01*
X127930389Y-90283788D01*
X127940214Y-90296051D01*
X127940435Y-90295869D01*
X127945403Y-90301874D01*
X127994414Y-90347899D01*
X127997181Y-90350580D01*
X128005749Y-90359148D01*
X128013772Y-90367171D01*
X128047255Y-90428496D01*
X128042268Y-90498187D01*
X128000395Y-90554119D01*
X127938691Y-90578208D01*
X127872205Y-90585000D01*
X127872203Y-90585001D01*
X127705664Y-90640186D01*
X127705662Y-90640187D01*
X127556348Y-90732286D01*
X127556344Y-90732289D01*
X127432289Y-90856344D01*
X127432286Y-90856348D01*
X127340187Y-91005662D01*
X127340186Y-91005664D01*
X127285001Y-91172203D01*
X127285000Y-91172204D01*
X127274500Y-91274984D01*
X127274500Y-93575015D01*
X127285000Y-93677795D01*
X127285001Y-93677797D01*
X127304767Y-93737446D01*
X127340186Y-93844335D01*
X127340187Y-93844337D01*
X127432286Y-93993651D01*
X127432289Y-93993655D01*
X127556344Y-94117710D01*
X127556348Y-94117713D01*
X127705662Y-94209812D01*
X127705664Y-94209813D01*
X127705666Y-94209814D01*
X127872203Y-94264999D01*
X127974992Y-94275500D01*
X127974997Y-94275500D01*
X130875003Y-94275500D01*
X130875008Y-94275500D01*
X130977797Y-94264999D01*
X131144334Y-94209814D01*
X131293655Y-94117711D01*
X131417711Y-93993655D01*
X131509814Y-93844334D01*
X131564999Y-93677797D01*
X131575500Y-93575008D01*
X131575500Y-93299500D01*
X131595185Y-93232461D01*
X131647989Y-93186706D01*
X131699500Y-93175500D01*
X134643405Y-93175500D01*
X134699054Y-93188689D01*
X134741567Y-93210040D01*
X134741572Y-93210041D01*
X134748357Y-93212511D01*
X134748336Y-93212567D01*
X134755457Y-93215043D01*
X134755476Y-93214986D01*
X134762319Y-93217253D01*
X134762327Y-93217257D01*
X134835895Y-93232447D01*
X134839228Y-93233186D01*
X134912279Y-93250500D01*
X134912281Y-93250500D01*
X134912285Y-93250501D01*
X134919453Y-93251339D01*
X134919446Y-93251398D01*
X134926944Y-93252164D01*
X134926950Y-93252105D01*
X134934139Y-93252734D01*
X134934143Y-93252733D01*
X134934144Y-93252734D01*
X135009130Y-93250552D01*
X135012737Y-93250500D01*
X148737769Y-93250500D01*
X148804808Y-93270185D01*
X148825450Y-93286818D01*
X148957967Y-93419334D01*
X149102947Y-93564314D01*
X149102957Y-93564325D01*
X149107287Y-93568655D01*
X149107288Y-93568656D01*
X149434274Y-93895641D01*
X149446050Y-93909268D01*
X149460391Y-93928531D01*
X149498342Y-93960377D01*
X149506316Y-93967684D01*
X149510218Y-93971586D01*
X149534544Y-93990821D01*
X149537340Y-93993099D01*
X149538003Y-93993655D01*
X149594786Y-94041302D01*
X149594794Y-94041306D01*
X149600824Y-94045273D01*
X149600790Y-94045323D01*
X149607137Y-94049366D01*
X149607169Y-94049316D01*
X149613321Y-94053110D01*
X149681294Y-94084806D01*
X149684510Y-94086362D01*
X149751567Y-94120040D01*
X149751576Y-94120042D01*
X149758355Y-94122510D01*
X149758334Y-94122567D01*
X149765451Y-94125040D01*
X149765470Y-94124984D01*
X149772324Y-94127255D01*
X149772325Y-94127255D01*
X149772327Y-94127256D01*
X149845848Y-94142436D01*
X149849209Y-94143181D01*
X149922279Y-94160500D01*
X149922285Y-94160500D01*
X149929452Y-94161338D01*
X149929445Y-94161397D01*
X149936946Y-94162163D01*
X149936952Y-94162104D01*
X149944141Y-94162733D01*
X149944143Y-94162732D01*
X149944144Y-94162733D01*
X150019111Y-94160552D01*
X150022717Y-94160500D01*
X150938067Y-94160500D01*
X150972661Y-94165423D01*
X151014796Y-94177665D01*
X151050819Y-94180500D01*
X151549180Y-94180499D01*
X151585204Y-94177665D01*
X151739393Y-94132869D01*
X151877598Y-94051135D01*
X151991135Y-93937598D01*
X152072869Y-93799393D01*
X152113924Y-93658082D01*
X152117664Y-93645208D01*
X152117665Y-93645202D01*
X152117923Y-93641926D01*
X152120500Y-93609181D01*
X152120499Y-93284346D01*
X152140183Y-93217308D01*
X152192987Y-93171553D01*
X152248384Y-93160639D01*
X152248384Y-93160500D01*
X152249089Y-93160499D01*
X152249379Y-93160443D01*
X152250787Y-93160497D01*
X152250819Y-93160500D01*
X152749180Y-93160499D01*
X152785204Y-93157665D01*
X152939393Y-93112869D01*
X153077598Y-93031135D01*
X153191135Y-92917598D01*
X153272869Y-92779393D01*
X153315817Y-92631564D01*
X153317664Y-92625208D01*
X153317665Y-92625202D01*
X153318666Y-92612483D01*
X153320500Y-92589181D01*
X153320499Y-92190820D01*
X153317665Y-92154796D01*
X153272869Y-92000607D01*
X153191135Y-91862402D01*
X153191133Y-91862400D01*
X153191130Y-91862396D01*
X153159760Y-91831026D01*
X153126275Y-91769703D01*
X153124967Y-91762740D01*
X153124701Y-91761062D01*
X153124701Y-91761058D01*
X153119082Y-91741718D01*
X153115139Y-91722685D01*
X153112616Y-91702707D01*
X153096481Y-91661955D01*
X153092701Y-91650919D01*
X153080978Y-91610564D01*
X153081178Y-91540697D01*
X153119121Y-91482027D01*
X153152601Y-91461412D01*
X153277841Y-91409536D01*
X153403282Y-91313282D01*
X153499536Y-91187841D01*
X153560044Y-91041762D01*
X153575500Y-90924361D01*
X153575499Y-89865499D01*
X153595183Y-89798461D01*
X153647987Y-89752706D01*
X153699499Y-89741500D01*
X156485476Y-89741500D01*
X156493568Y-89740477D01*
X156509109Y-89739500D01*
X157603548Y-89739500D01*
X157670587Y-89759185D01*
X157691229Y-89775819D01*
X158038181Y-90122771D01*
X158071666Y-90184094D01*
X158074500Y-90210452D01*
X158074500Y-108417255D01*
X158072775Y-108432872D01*
X158073061Y-108432899D01*
X158072326Y-108440665D01*
X158074439Y-108507872D01*
X158074500Y-108511767D01*
X158074500Y-108539357D01*
X158075003Y-108543335D01*
X158075918Y-108554967D01*
X158077290Y-108598624D01*
X158077291Y-108598627D01*
X158082880Y-108617867D01*
X158086824Y-108636911D01*
X158087458Y-108641926D01*
X158089336Y-108656792D01*
X158105414Y-108697403D01*
X158109197Y-108708452D01*
X158121381Y-108750388D01*
X158131580Y-108767634D01*
X158140138Y-108785103D01*
X158147514Y-108803732D01*
X158173181Y-108839060D01*
X158179593Y-108848821D01*
X158201828Y-108886417D01*
X158201833Y-108886424D01*
X158215990Y-108900580D01*
X158228628Y-108915376D01*
X158240405Y-108931586D01*
X158240406Y-108931587D01*
X158274057Y-108959425D01*
X158282698Y-108967288D01*
X158599201Y-109283791D01*
X158609024Y-109296052D01*
X158609246Y-109295870D01*
X158614218Y-109301880D01*
X158614221Y-109301884D01*
X158663230Y-109347907D01*
X158666028Y-109350619D01*
X158685529Y-109370121D01*
X158685533Y-109370124D01*
X158685536Y-109370127D01*
X158688709Y-109372588D01*
X158697581Y-109380166D01*
X158729425Y-109410069D01*
X158746983Y-109419721D01*
X158763242Y-109430402D01*
X158779071Y-109442680D01*
X158819162Y-109460028D01*
X158829633Y-109465158D01*
X158852187Y-109477557D01*
X158867909Y-109486201D01*
X158867911Y-109486202D01*
X158867915Y-109486204D01*
X158887323Y-109491187D01*
X158905726Y-109497488D01*
X158924108Y-109505443D01*
X158924109Y-109505443D01*
X158924111Y-109505444D01*
X158967257Y-109512277D01*
X158978679Y-109514643D01*
X159020988Y-109525507D01*
X159041023Y-109525507D01*
X159060421Y-109527033D01*
X159080201Y-109530166D01*
X159080202Y-109530167D01*
X159080202Y-109530166D01*
X159080203Y-109530167D01*
X159123682Y-109526057D01*
X159135351Y-109525507D01*
X161339348Y-109525507D01*
X161339350Y-109525507D01*
X161339355Y-109525506D01*
X161339359Y-109525506D01*
X161352088Y-109523897D01*
X161456792Y-109510671D01*
X161603732Y-109452493D01*
X161603739Y-109452488D01*
X161731583Y-109359604D01*
X161731584Y-109359603D01*
X161731583Y-109359603D01*
X161731587Y-109359601D01*
X161832324Y-109237830D01*
X161832328Y-109237821D01*
X161836099Y-109231880D01*
X161888639Y-109185822D01*
X161916605Y-109176701D01*
X161949748Y-109170109D01*
X161991922Y-109141929D01*
X162020102Y-109099755D01*
X162027500Y-109062565D01*
X162027500Y-108737449D01*
X162020102Y-108700259D01*
X162020100Y-108700256D01*
X162018943Y-108697462D01*
X162018234Y-108690871D01*
X162017719Y-108688282D01*
X162017950Y-108688235D01*
X162011471Y-108627993D01*
X162018944Y-108602545D01*
X162020098Y-108599756D01*
X162020102Y-108599752D01*
X162027500Y-108562562D01*
X162027500Y-108237446D01*
X162020102Y-108200256D01*
X162020099Y-108200252D01*
X162018943Y-108197460D01*
X162018234Y-108190869D01*
X162017719Y-108188279D01*
X162017950Y-108188232D01*
X162011473Y-108127991D01*
X162018943Y-108102548D01*
X162020098Y-108099756D01*
X162020102Y-108099752D01*
X162027500Y-108062562D01*
X162027500Y-107737446D01*
X162020102Y-107700256D01*
X162020099Y-107700252D01*
X162018943Y-107697460D01*
X162018234Y-107690869D01*
X162017719Y-107688279D01*
X162017950Y-107688232D01*
X162011473Y-107627991D01*
X162018943Y-107602548D01*
X162020098Y-107599756D01*
X162020102Y-107599752D01*
X162027500Y-107562562D01*
X162027500Y-107237446D01*
X162020102Y-107200256D01*
X162020099Y-107200252D01*
X162018943Y-107197460D01*
X162018234Y-107190869D01*
X162017719Y-107188279D01*
X162017950Y-107188232D01*
X162011473Y-107127991D01*
X162018943Y-107102548D01*
X162020098Y-107099756D01*
X162020102Y-107099752D01*
X162027500Y-107062562D01*
X162027500Y-106737446D01*
X162020102Y-106700256D01*
X162020101Y-106700255D01*
X162020101Y-106700252D01*
X162018943Y-106697457D01*
X162018235Y-106690873D01*
X162017719Y-106688279D01*
X162017951Y-106688232D01*
X162011474Y-106627987D01*
X162018944Y-106602550D01*
X162020099Y-106599758D01*
X162020102Y-106599755D01*
X162027500Y-106562565D01*
X162027500Y-106237449D01*
X162020102Y-106200259D01*
X162020100Y-106200256D01*
X162018943Y-106197462D01*
X162018234Y-106190871D01*
X162017719Y-106188282D01*
X162017950Y-106188235D01*
X162011471Y-106127993D01*
X162018944Y-106102545D01*
X162020098Y-106099756D01*
X162020102Y-106099752D01*
X162027500Y-106062562D01*
X162027500Y-105737446D01*
X162020102Y-105700256D01*
X162020099Y-105700252D01*
X162018943Y-105697460D01*
X162018234Y-105690869D01*
X162017719Y-105688279D01*
X162017950Y-105688232D01*
X162011473Y-105627991D01*
X162018943Y-105602548D01*
X162020098Y-105599756D01*
X162020102Y-105599752D01*
X162027500Y-105562562D01*
X162027500Y-105237446D01*
X162020102Y-105200256D01*
X162020099Y-105200252D01*
X162018943Y-105197460D01*
X162018234Y-105190869D01*
X162017719Y-105188279D01*
X162017950Y-105188232D01*
X162011473Y-105127991D01*
X162018943Y-105102548D01*
X162020098Y-105099756D01*
X162020102Y-105099752D01*
X162027500Y-105062562D01*
X162027500Y-104737446D01*
X162020102Y-104700256D01*
X162020099Y-104700252D01*
X162018943Y-104697460D01*
X162018234Y-104690869D01*
X162017719Y-104688279D01*
X162017950Y-104688232D01*
X162011473Y-104627991D01*
X162018943Y-104602548D01*
X162020098Y-104599756D01*
X162020102Y-104599752D01*
X162027500Y-104562562D01*
X162027500Y-104237446D01*
X162020102Y-104200256D01*
X162020101Y-104200255D01*
X162020101Y-104200252D01*
X162018943Y-104197457D01*
X162018235Y-104190873D01*
X162017719Y-104188279D01*
X162017951Y-104188232D01*
X162011474Y-104127987D01*
X162018944Y-104102550D01*
X162020099Y-104099758D01*
X162020102Y-104099755D01*
X162027500Y-104062565D01*
X162027500Y-103737449D01*
X162020102Y-103700259D01*
X162020100Y-103700256D01*
X162018943Y-103697462D01*
X162018234Y-103690871D01*
X162017719Y-103688282D01*
X162017950Y-103688235D01*
X162011471Y-103627993D01*
X162018944Y-103602545D01*
X162020098Y-103599756D01*
X162020102Y-103599752D01*
X162027500Y-103562562D01*
X162027500Y-103237446D01*
X162020102Y-103200256D01*
X162020099Y-103200252D01*
X162018943Y-103197460D01*
X162018234Y-103190869D01*
X162017719Y-103188279D01*
X162017950Y-103188232D01*
X162011473Y-103127991D01*
X162018943Y-103102548D01*
X162020098Y-103099756D01*
X162020102Y-103099752D01*
X162027500Y-103062562D01*
X162027500Y-102737446D01*
X162020102Y-102700256D01*
X162020099Y-102700252D01*
X162018943Y-102697460D01*
X162018234Y-102690869D01*
X162017719Y-102688279D01*
X162017950Y-102688232D01*
X162011473Y-102627991D01*
X162018943Y-102602548D01*
X162020098Y-102599756D01*
X162020102Y-102599752D01*
X162027500Y-102562562D01*
X162027500Y-102237446D01*
X162020102Y-102200256D01*
X162020099Y-102200252D01*
X162018943Y-102197460D01*
X162018234Y-102190869D01*
X162017719Y-102188279D01*
X162017950Y-102188232D01*
X162011473Y-102127991D01*
X162018943Y-102102548D01*
X162020098Y-102099756D01*
X162020102Y-102099752D01*
X162027500Y-102062562D01*
X162027500Y-101737446D01*
X162020102Y-101700256D01*
X162020099Y-101700252D01*
X162018943Y-101697460D01*
X162018234Y-101690869D01*
X162017719Y-101688279D01*
X162017950Y-101688232D01*
X162011473Y-101627991D01*
X162018943Y-101602548D01*
X162020098Y-101599756D01*
X162020102Y-101599752D01*
X162027500Y-101562562D01*
X162027500Y-101237446D01*
X162020102Y-101200256D01*
X162020099Y-101200252D01*
X162018943Y-101197460D01*
X162018234Y-101190869D01*
X162017719Y-101188279D01*
X162017950Y-101188232D01*
X162011473Y-101127991D01*
X162018943Y-101102548D01*
X162020098Y-101099756D01*
X162020102Y-101099752D01*
X162027500Y-101062562D01*
X162027500Y-100737446D01*
X162020102Y-100700256D01*
X162020099Y-100700252D01*
X162018943Y-100697460D01*
X162018234Y-100690869D01*
X162017719Y-100688279D01*
X162017950Y-100688232D01*
X162011473Y-100627991D01*
X162018943Y-100602548D01*
X162020098Y-100599756D01*
X162020102Y-100599752D01*
X162027500Y-100562562D01*
X162027500Y-100237446D01*
X162020102Y-100200256D01*
X162020099Y-100200252D01*
X162018943Y-100197460D01*
X162018234Y-100190869D01*
X162017719Y-100188279D01*
X162017950Y-100188232D01*
X162011473Y-100127991D01*
X162018943Y-100102548D01*
X162020098Y-100099756D01*
X162020102Y-100099752D01*
X162027500Y-100062562D01*
X162027500Y-99737446D01*
X162020102Y-99700256D01*
X162020099Y-99700252D01*
X162018943Y-99697460D01*
X162018234Y-99690869D01*
X162017719Y-99688279D01*
X162017950Y-99688232D01*
X162011473Y-99627991D01*
X162018943Y-99602548D01*
X162020098Y-99599756D01*
X162020102Y-99599752D01*
X162027500Y-99562562D01*
X162027500Y-99237446D01*
X162020102Y-99200256D01*
X162020099Y-99200252D01*
X162018943Y-99197460D01*
X162018234Y-99190869D01*
X162017719Y-99188279D01*
X162017950Y-99188232D01*
X162011473Y-99127991D01*
X162018943Y-99102548D01*
X162020098Y-99099756D01*
X162020102Y-99099752D01*
X162027500Y-99062562D01*
X162027500Y-98737446D01*
X162020102Y-98700256D01*
X162020099Y-98700252D01*
X162018943Y-98697460D01*
X162018234Y-98690869D01*
X162017719Y-98688279D01*
X162017950Y-98688232D01*
X162011473Y-98627991D01*
X162018943Y-98602548D01*
X162020098Y-98599756D01*
X162020102Y-98599752D01*
X162027500Y-98562562D01*
X162027500Y-98237446D01*
X162020102Y-98200256D01*
X162020099Y-98200252D01*
X162018943Y-98197460D01*
X162018234Y-98190869D01*
X162017719Y-98188279D01*
X162017950Y-98188232D01*
X162011473Y-98127991D01*
X162018943Y-98102548D01*
X162020098Y-98099756D01*
X162020102Y-98099752D01*
X162027500Y-98062562D01*
X162027500Y-97737446D01*
X162020102Y-97700256D01*
X162020099Y-97700252D01*
X162018943Y-97697460D01*
X162018234Y-97690869D01*
X162017719Y-97688279D01*
X162017950Y-97688232D01*
X162011473Y-97627991D01*
X162018943Y-97602548D01*
X162020098Y-97599756D01*
X162020102Y-97599752D01*
X162027500Y-97562562D01*
X162027500Y-97237446D01*
X162020102Y-97200256D01*
X162020099Y-97200252D01*
X162018943Y-97197460D01*
X162018234Y-97190869D01*
X162017719Y-97188279D01*
X162017950Y-97188232D01*
X162011473Y-97127991D01*
X162018943Y-97102548D01*
X162020098Y-97099756D01*
X162020102Y-97099752D01*
X162027500Y-97062562D01*
X162027500Y-96737446D01*
X162020102Y-96700256D01*
X162020099Y-96700252D01*
X162018943Y-96697460D01*
X162018234Y-96690869D01*
X162017719Y-96688279D01*
X162017950Y-96688232D01*
X162011473Y-96627991D01*
X162018943Y-96602548D01*
X162020098Y-96599756D01*
X162020102Y-96599752D01*
X162027500Y-96562562D01*
X162027500Y-96237446D01*
X162020102Y-96200256D01*
X162020100Y-96200253D01*
X162019563Y-96198955D01*
X162019234Y-96195894D01*
X162017719Y-96188279D01*
X162018400Y-96188143D01*
X162012096Y-96129486D01*
X162043371Y-96067007D01*
X162103461Y-96031355D01*
X162134125Y-96027504D01*
X162198057Y-96027504D01*
X162265096Y-96047189D01*
X162290203Y-96068527D01*
X162294129Y-96072888D01*
X162294132Y-96072890D01*
X162447265Y-96184148D01*
X162447270Y-96184151D01*
X162620192Y-96261142D01*
X162620197Y-96261144D01*
X162805354Y-96300500D01*
X162805355Y-96300500D01*
X162994644Y-96300500D01*
X162994646Y-96300500D01*
X163179803Y-96261144D01*
X163352730Y-96184151D01*
X163505871Y-96072888D01*
X163632533Y-95932216D01*
X163727179Y-95768284D01*
X163785674Y-95588256D01*
X163805460Y-95400000D01*
X163785674Y-95211744D01*
X163727179Y-95031716D01*
X163632533Y-94867784D01*
X163505871Y-94727112D01*
X163505870Y-94727111D01*
X163352734Y-94615851D01*
X163352729Y-94615848D01*
X163179807Y-94538857D01*
X163179802Y-94538855D01*
X163034001Y-94507865D01*
X162994646Y-94499500D01*
X162805354Y-94499500D01*
X162772897Y-94506398D01*
X162620197Y-94538855D01*
X162620192Y-94538857D01*
X162447270Y-94615848D01*
X162447265Y-94615851D01*
X162294130Y-94727110D01*
X162294125Y-94727115D01*
X162290201Y-94731474D01*
X162230715Y-94768124D01*
X162198049Y-94772504D01*
X162134125Y-94772504D01*
X162067086Y-94752819D01*
X162021331Y-94700015D01*
X162011387Y-94630857D01*
X162019563Y-94601053D01*
X162020099Y-94599755D01*
X162020102Y-94599752D01*
X162027500Y-94562562D01*
X162027500Y-94237446D01*
X162020102Y-94200256D01*
X162020099Y-94200252D01*
X162018943Y-94197460D01*
X162018234Y-94190869D01*
X162017719Y-94188279D01*
X162017950Y-94188232D01*
X162011473Y-94127991D01*
X162018943Y-94102548D01*
X162020098Y-94099756D01*
X162020102Y-94099752D01*
X162027500Y-94062562D01*
X162027500Y-93737446D01*
X162020102Y-93700256D01*
X162020099Y-93700252D01*
X162018943Y-93697460D01*
X162018234Y-93690869D01*
X162017719Y-93688279D01*
X162017950Y-93688232D01*
X162011473Y-93627991D01*
X162018943Y-93602548D01*
X162020098Y-93599756D01*
X162020102Y-93599752D01*
X162027500Y-93562562D01*
X162027500Y-93237446D01*
X162020102Y-93200256D01*
X162020099Y-93200252D01*
X162018943Y-93197460D01*
X162018234Y-93190869D01*
X162017719Y-93188279D01*
X162017950Y-93188232D01*
X162011473Y-93127991D01*
X162018943Y-93102548D01*
X162020098Y-93099756D01*
X162020102Y-93099752D01*
X162027500Y-93062562D01*
X162027500Y-92737446D01*
X162020102Y-92700256D01*
X162020101Y-92700255D01*
X162020101Y-92700252D01*
X162018943Y-92697457D01*
X162018235Y-92690873D01*
X162017719Y-92688279D01*
X162017951Y-92688232D01*
X162011474Y-92627987D01*
X162018944Y-92602550D01*
X162020099Y-92599758D01*
X162020102Y-92599755D01*
X162027500Y-92562565D01*
X162027500Y-92237449D01*
X162020102Y-92200259D01*
X162020100Y-92200256D01*
X162018943Y-92197462D01*
X162018234Y-92190871D01*
X162017719Y-92188282D01*
X162017950Y-92188235D01*
X162011471Y-92127993D01*
X162018944Y-92102545D01*
X162020098Y-92099756D01*
X162020102Y-92099752D01*
X162027500Y-92062562D01*
X162027500Y-91737446D01*
X162020102Y-91700256D01*
X162020099Y-91700252D01*
X162018943Y-91697460D01*
X162018234Y-91690869D01*
X162017719Y-91688279D01*
X162017950Y-91688232D01*
X162011473Y-91627991D01*
X162018943Y-91602548D01*
X162020098Y-91599756D01*
X162020102Y-91599752D01*
X162027500Y-91562562D01*
X162027500Y-91237446D01*
X162020102Y-91200256D01*
X162020099Y-91200252D01*
X162018943Y-91197460D01*
X162018234Y-91190869D01*
X162017719Y-91188279D01*
X162017950Y-91188232D01*
X162011473Y-91127991D01*
X162018943Y-91102548D01*
X162020098Y-91099756D01*
X162020102Y-91099752D01*
X162027500Y-91062562D01*
X162027500Y-90737446D01*
X162020102Y-90700256D01*
X162020099Y-90700252D01*
X162018943Y-90697460D01*
X162018234Y-90690869D01*
X162017719Y-90688279D01*
X162017950Y-90688232D01*
X162011473Y-90627991D01*
X162018943Y-90602548D01*
X162020098Y-90599756D01*
X162020102Y-90599752D01*
X162027500Y-90562562D01*
X162027500Y-90237446D01*
X162020102Y-90200256D01*
X162020101Y-90200255D01*
X162020101Y-90200252D01*
X162018943Y-90197457D01*
X162018235Y-90190873D01*
X162017719Y-90188279D01*
X162017951Y-90188232D01*
X162011474Y-90127987D01*
X162018944Y-90102550D01*
X162020099Y-90099758D01*
X162020102Y-90099755D01*
X162027500Y-90062565D01*
X162027500Y-89737449D01*
X162020102Y-89700259D01*
X162020100Y-89700256D01*
X162018943Y-89697462D01*
X162018234Y-89690871D01*
X162017719Y-89688282D01*
X162017950Y-89688235D01*
X162011471Y-89627993D01*
X162018944Y-89602545D01*
X162020098Y-89599756D01*
X162020102Y-89599752D01*
X162027500Y-89562562D01*
X162027500Y-89237446D01*
X162020102Y-89200256D01*
X162020099Y-89200252D01*
X162018943Y-89197460D01*
X162018234Y-89190869D01*
X162017719Y-89188279D01*
X162017950Y-89188232D01*
X162011473Y-89127991D01*
X162018943Y-89102548D01*
X162020098Y-89099756D01*
X162020102Y-89099752D01*
X162027500Y-89062562D01*
X162027500Y-88737446D01*
X162020102Y-88700256D01*
X162020099Y-88700252D01*
X162018943Y-88697460D01*
X162018234Y-88690869D01*
X162017719Y-88688279D01*
X162017950Y-88688232D01*
X162011473Y-88627991D01*
X162018943Y-88602548D01*
X162020098Y-88599756D01*
X162020102Y-88599752D01*
X162027500Y-88562562D01*
X162027500Y-88237446D01*
X162020102Y-88200256D01*
X162020099Y-88200252D01*
X162018943Y-88197460D01*
X162018234Y-88190869D01*
X162017719Y-88188279D01*
X162017950Y-88188232D01*
X162011473Y-88127991D01*
X162018943Y-88102548D01*
X162020098Y-88099756D01*
X162020102Y-88099752D01*
X162027500Y-88062562D01*
X162027500Y-87737446D01*
X162020102Y-87700256D01*
X162020101Y-87700255D01*
X162020101Y-87700252D01*
X162018943Y-87697457D01*
X162018235Y-87690873D01*
X162017719Y-87688279D01*
X162017951Y-87688232D01*
X162011474Y-87627987D01*
X162018944Y-87602550D01*
X162020099Y-87599758D01*
X162020102Y-87599755D01*
X162027500Y-87562565D01*
X162027500Y-87237449D01*
X162020102Y-87200259D01*
X162020100Y-87200256D01*
X162018943Y-87197462D01*
X162018234Y-87190871D01*
X162017719Y-87188282D01*
X162017950Y-87188235D01*
X162011471Y-87127993D01*
X162018944Y-87102545D01*
X162020098Y-87099756D01*
X162020102Y-87099752D01*
X162027500Y-87062562D01*
X162027500Y-86737446D01*
X162020102Y-86700256D01*
X162020101Y-86700254D01*
X161991922Y-86658081D01*
X161949749Y-86629902D01*
X161912559Y-86622504D01*
X161912558Y-86622504D01*
X160687442Y-86622504D01*
X160687441Y-86622504D01*
X160650250Y-86629902D01*
X160608077Y-86658081D01*
X160579898Y-86700254D01*
X160572500Y-86737445D01*
X160572500Y-87062562D01*
X160579898Y-87099752D01*
X160581058Y-87102552D01*
X160581766Y-87109143D01*
X160582281Y-87111729D01*
X160582049Y-87111775D01*
X160588527Y-87172021D01*
X160581059Y-87197455D01*
X160579898Y-87200255D01*
X160575739Y-87221164D01*
X160572500Y-87237449D01*
X160572500Y-87562565D01*
X160578450Y-87592478D01*
X160579899Y-87599758D01*
X160581058Y-87602557D01*
X160581765Y-87609141D01*
X160582281Y-87611732D01*
X160582049Y-87611778D01*
X160588524Y-87672027D01*
X160581059Y-87697450D01*
X160579899Y-87700249D01*
X160572500Y-87737445D01*
X160572500Y-88062562D01*
X160579898Y-88099753D01*
X160581059Y-88102555D01*
X160581767Y-88109148D01*
X160582281Y-88111729D01*
X160582049Y-88111774D01*
X160588525Y-88172025D01*
X160581059Y-88197453D01*
X160579898Y-88200254D01*
X160572500Y-88237445D01*
X160572500Y-88562562D01*
X160579898Y-88599753D01*
X160581059Y-88602555D01*
X160581767Y-88609148D01*
X160582281Y-88611729D01*
X160582049Y-88611774D01*
X160588525Y-88672025D01*
X160581059Y-88697453D01*
X160579898Y-88700254D01*
X160572500Y-88737445D01*
X160572500Y-89062562D01*
X160579898Y-89099753D01*
X160581059Y-89102555D01*
X160581767Y-89109148D01*
X160582281Y-89111729D01*
X160582049Y-89111774D01*
X160588525Y-89172025D01*
X160581059Y-89197453D01*
X160579898Y-89200254D01*
X160572500Y-89237445D01*
X160572500Y-89562562D01*
X160579898Y-89599752D01*
X160581058Y-89602552D01*
X160581766Y-89609143D01*
X160582281Y-89611729D01*
X160582049Y-89611775D01*
X160588527Y-89672021D01*
X160581059Y-89697455D01*
X160579898Y-89700255D01*
X160572500Y-89737448D01*
X160572500Y-90062565D01*
X160579899Y-90099758D01*
X160581058Y-90102557D01*
X160581765Y-90109141D01*
X160582281Y-90111732D01*
X160582049Y-90111778D01*
X160588524Y-90172027D01*
X160581059Y-90197450D01*
X160579899Y-90200249D01*
X160572500Y-90237445D01*
X160572500Y-90562562D01*
X160579898Y-90599753D01*
X160581059Y-90602555D01*
X160581767Y-90609148D01*
X160582281Y-90611729D01*
X160582049Y-90611774D01*
X160588525Y-90672025D01*
X160581059Y-90697453D01*
X160579898Y-90700254D01*
X160572500Y-90737445D01*
X160572500Y-91062562D01*
X160579898Y-91099753D01*
X160581059Y-91102555D01*
X160581767Y-91109148D01*
X160582281Y-91111729D01*
X160582049Y-91111774D01*
X160588525Y-91172025D01*
X160581059Y-91197453D01*
X160579898Y-91200254D01*
X160572500Y-91237445D01*
X160572500Y-91562562D01*
X160579898Y-91599753D01*
X160581059Y-91602555D01*
X160581767Y-91609148D01*
X160582281Y-91611729D01*
X160582049Y-91611774D01*
X160588525Y-91672025D01*
X160581059Y-91697453D01*
X160579898Y-91700254D01*
X160572500Y-91737445D01*
X160572500Y-92062562D01*
X160579898Y-92099752D01*
X160581058Y-92102552D01*
X160581766Y-92109143D01*
X160582281Y-92111729D01*
X160582049Y-92111775D01*
X160588527Y-92172021D01*
X160581059Y-92197455D01*
X160579898Y-92200255D01*
X160572500Y-92237448D01*
X160572500Y-92237449D01*
X160572500Y-92562565D01*
X160577794Y-92589180D01*
X160579899Y-92599758D01*
X160581058Y-92602557D01*
X160581765Y-92609141D01*
X160582281Y-92611732D01*
X160582049Y-92611778D01*
X160588524Y-92672027D01*
X160581059Y-92697450D01*
X160579899Y-92700249D01*
X160572500Y-92737445D01*
X160572500Y-93062562D01*
X160579898Y-93099753D01*
X160581059Y-93102555D01*
X160581767Y-93109148D01*
X160582281Y-93111729D01*
X160582049Y-93111774D01*
X160588525Y-93172025D01*
X160581059Y-93197453D01*
X160579898Y-93200254D01*
X160572500Y-93237445D01*
X160572500Y-93562562D01*
X160579898Y-93599753D01*
X160581059Y-93602555D01*
X160581767Y-93609148D01*
X160582281Y-93611729D01*
X160582049Y-93611774D01*
X160588525Y-93672025D01*
X160581059Y-93697453D01*
X160579898Y-93700254D01*
X160572500Y-93737445D01*
X160572500Y-94062562D01*
X160579898Y-94099753D01*
X160581059Y-94102555D01*
X160581767Y-94109148D01*
X160582281Y-94111729D01*
X160582049Y-94111774D01*
X160588525Y-94172025D01*
X160581059Y-94197453D01*
X160579898Y-94200254D01*
X160572500Y-94237445D01*
X160572500Y-94562562D01*
X160579898Y-94599752D01*
X160581058Y-94602552D01*
X160581766Y-94609143D01*
X160582281Y-94611729D01*
X160582049Y-94611775D01*
X160588527Y-94672021D01*
X160581059Y-94697455D01*
X160579898Y-94700255D01*
X160572500Y-94737448D01*
X160572500Y-95062565D01*
X160579899Y-95099758D01*
X160581058Y-95102557D01*
X160581765Y-95109141D01*
X160582281Y-95111732D01*
X160582049Y-95111778D01*
X160588524Y-95172027D01*
X160581059Y-95197450D01*
X160579899Y-95200249D01*
X160572500Y-95237445D01*
X160572500Y-95562562D01*
X160579898Y-95599753D01*
X160581059Y-95602555D01*
X160581767Y-95609148D01*
X160582281Y-95611729D01*
X160582049Y-95611774D01*
X160588525Y-95672025D01*
X160581059Y-95697453D01*
X160579898Y-95700254D01*
X160572500Y-95737445D01*
X160572500Y-96062562D01*
X160579898Y-96099753D01*
X160581059Y-96102555D01*
X160581767Y-96109148D01*
X160582281Y-96111729D01*
X160582049Y-96111774D01*
X160588525Y-96172025D01*
X160581059Y-96197453D01*
X160579898Y-96200254D01*
X160572500Y-96237445D01*
X160572500Y-96562562D01*
X160579898Y-96599753D01*
X160581059Y-96602555D01*
X160581767Y-96609148D01*
X160582281Y-96611729D01*
X160582049Y-96611774D01*
X160588525Y-96672025D01*
X160581059Y-96697453D01*
X160579898Y-96700254D01*
X160572500Y-96737445D01*
X160572500Y-97062562D01*
X160579898Y-97099753D01*
X160581059Y-97102555D01*
X160581767Y-97109148D01*
X160582281Y-97111729D01*
X160582049Y-97111774D01*
X160588525Y-97172025D01*
X160581059Y-97197453D01*
X160579898Y-97200254D01*
X160572500Y-97237445D01*
X160572500Y-97562562D01*
X160579898Y-97599753D01*
X160581059Y-97602555D01*
X160581767Y-97609148D01*
X160582281Y-97611729D01*
X160582049Y-97611774D01*
X160588525Y-97672025D01*
X160581059Y-97697453D01*
X160579898Y-97700254D01*
X160572500Y-97737445D01*
X160572500Y-98062562D01*
X160579898Y-98099753D01*
X160581059Y-98102555D01*
X160581767Y-98109148D01*
X160582281Y-98111729D01*
X160582049Y-98111774D01*
X160588525Y-98172025D01*
X160581059Y-98197453D01*
X160579898Y-98200254D01*
X160572500Y-98237445D01*
X160572500Y-98562562D01*
X160579898Y-98599753D01*
X160581059Y-98602555D01*
X160581767Y-98609148D01*
X160582281Y-98611729D01*
X160582049Y-98611774D01*
X160588525Y-98672025D01*
X160581059Y-98697453D01*
X160579898Y-98700254D01*
X160572500Y-98737445D01*
X160572500Y-99062562D01*
X160579898Y-99099753D01*
X160581059Y-99102555D01*
X160581767Y-99109148D01*
X160582281Y-99111729D01*
X160582049Y-99111774D01*
X160588525Y-99172025D01*
X160581059Y-99197453D01*
X160579898Y-99200254D01*
X160572500Y-99237445D01*
X160572500Y-99562562D01*
X160579898Y-99599753D01*
X160581059Y-99602555D01*
X160581767Y-99609148D01*
X160582281Y-99611729D01*
X160582049Y-99611774D01*
X160588525Y-99672025D01*
X160581059Y-99697453D01*
X160579898Y-99700254D01*
X160572500Y-99737445D01*
X160572500Y-100062562D01*
X160579898Y-100099753D01*
X160581059Y-100102555D01*
X160581767Y-100109148D01*
X160582281Y-100111729D01*
X160582049Y-100111774D01*
X160588525Y-100172025D01*
X160581059Y-100197453D01*
X160579898Y-100200254D01*
X160572500Y-100237445D01*
X160572500Y-100562562D01*
X160579898Y-100599753D01*
X160581059Y-100602555D01*
X160581767Y-100609148D01*
X160582281Y-100611729D01*
X160582049Y-100611774D01*
X160588525Y-100672025D01*
X160581059Y-100697453D01*
X160579898Y-100700254D01*
X160572500Y-100737445D01*
X160572500Y-101062562D01*
X160579898Y-101099753D01*
X160581059Y-101102555D01*
X160581767Y-101109148D01*
X160582281Y-101111729D01*
X160582049Y-101111774D01*
X160588525Y-101172025D01*
X160581059Y-101197453D01*
X160579898Y-101200254D01*
X160572500Y-101237445D01*
X160572500Y-101562562D01*
X160579898Y-101599753D01*
X160581059Y-101602555D01*
X160581767Y-101609148D01*
X160582281Y-101611729D01*
X160582049Y-101611774D01*
X160588525Y-101672025D01*
X160581059Y-101697453D01*
X160579898Y-101700254D01*
X160572500Y-101737445D01*
X160572500Y-102062562D01*
X160579898Y-102099753D01*
X160581059Y-102102555D01*
X160581767Y-102109148D01*
X160582281Y-102111729D01*
X160582049Y-102111774D01*
X160588525Y-102172025D01*
X160581059Y-102197453D01*
X160579898Y-102200254D01*
X160572500Y-102237445D01*
X160572500Y-102562562D01*
X160579898Y-102599753D01*
X160581059Y-102602555D01*
X160581767Y-102609148D01*
X160582281Y-102611729D01*
X160582049Y-102611774D01*
X160588525Y-102672025D01*
X160581059Y-102697453D01*
X160579898Y-102700254D01*
X160572500Y-102737445D01*
X160572500Y-103062562D01*
X160579898Y-103099753D01*
X160581059Y-103102555D01*
X160581767Y-103109148D01*
X160582281Y-103111729D01*
X160582049Y-103111774D01*
X160588525Y-103172025D01*
X160581059Y-103197453D01*
X160579898Y-103200254D01*
X160572500Y-103237445D01*
X160572500Y-103562562D01*
X160579898Y-103599752D01*
X160581058Y-103602552D01*
X160581766Y-103609143D01*
X160582281Y-103611729D01*
X160582049Y-103611775D01*
X160588527Y-103672021D01*
X160581059Y-103697455D01*
X160579898Y-103700255D01*
X160572500Y-103737448D01*
X160572500Y-104062565D01*
X160579899Y-104099758D01*
X160581058Y-104102557D01*
X160581765Y-104109141D01*
X160582281Y-104111732D01*
X160582049Y-104111778D01*
X160588524Y-104172027D01*
X160581059Y-104197450D01*
X160579899Y-104200249D01*
X160572500Y-104237445D01*
X160572500Y-104562562D01*
X160579898Y-104599753D01*
X160581059Y-104602555D01*
X160581767Y-104609148D01*
X160582281Y-104611729D01*
X160582049Y-104611774D01*
X160588525Y-104672025D01*
X160581059Y-104697453D01*
X160579898Y-104700254D01*
X160572500Y-104737445D01*
X160572500Y-105062562D01*
X160579898Y-105099753D01*
X160581059Y-105102555D01*
X160581767Y-105109148D01*
X160582281Y-105111729D01*
X160582049Y-105111774D01*
X160588525Y-105172025D01*
X160581059Y-105197453D01*
X160579898Y-105200254D01*
X160572500Y-105237445D01*
X160572500Y-105562562D01*
X160579898Y-105599753D01*
X160581059Y-105602555D01*
X160581767Y-105609148D01*
X160582281Y-105611729D01*
X160582049Y-105611774D01*
X160588525Y-105672025D01*
X160581059Y-105697453D01*
X160579898Y-105700254D01*
X160572500Y-105737445D01*
X160572500Y-106062562D01*
X160579898Y-106099752D01*
X160581058Y-106102552D01*
X160581766Y-106109143D01*
X160582281Y-106111729D01*
X160582049Y-106111775D01*
X160588527Y-106172021D01*
X160581059Y-106197455D01*
X160579898Y-106200255D01*
X160572500Y-106237448D01*
X160572500Y-106562565D01*
X160579899Y-106599758D01*
X160581058Y-106602557D01*
X160581765Y-106609141D01*
X160582281Y-106611732D01*
X160582049Y-106611778D01*
X160588524Y-106672027D01*
X160581059Y-106697450D01*
X160579899Y-106700249D01*
X160572500Y-106737445D01*
X160572500Y-107062562D01*
X160579898Y-107099753D01*
X160581059Y-107102555D01*
X160581767Y-107109148D01*
X160582281Y-107111729D01*
X160582049Y-107111774D01*
X160588525Y-107172025D01*
X160581059Y-107197453D01*
X160579898Y-107200254D01*
X160572500Y-107237445D01*
X160572500Y-107562562D01*
X160579898Y-107599752D01*
X160580437Y-107601053D01*
X160580765Y-107604113D01*
X160582281Y-107611729D01*
X160581599Y-107611864D01*
X160587904Y-107670522D01*
X160556629Y-107733001D01*
X160496539Y-107768653D01*
X160465875Y-107772504D01*
X160151500Y-107772504D01*
X160084461Y-107752819D01*
X160038706Y-107700015D01*
X160027500Y-107648504D01*
X160027500Y-89682964D01*
X160029228Y-89667313D01*
X160028946Y-89667287D01*
X160029680Y-89659524D01*
X160027561Y-89592081D01*
X160027500Y-89588187D01*
X160027500Y-89560530D01*
X160027500Y-89560524D01*
X160026993Y-89556519D01*
X160026077Y-89544871D01*
X160024701Y-89501058D01*
X160019082Y-89481718D01*
X160015139Y-89462685D01*
X160012616Y-89442707D01*
X159996481Y-89401955D01*
X159992698Y-89390907D01*
X159980468Y-89348809D01*
X159980467Y-89348807D01*
X159970225Y-89331489D01*
X159961662Y-89314011D01*
X159954253Y-89295297D01*
X159928485Y-89259832D01*
X159922073Y-89250069D01*
X159899765Y-89212347D01*
X159899759Y-89212339D01*
X159885531Y-89198112D01*
X159872896Y-89183320D01*
X159861063Y-89167033D01*
X159861060Y-89167031D01*
X159861060Y-89167030D01*
X159861058Y-89167028D01*
X159827287Y-89139090D01*
X159818647Y-89131228D01*
X158962376Y-88274957D01*
X158952531Y-88262668D01*
X158952313Y-88262849D01*
X158947340Y-88256838D01*
X158898153Y-88210648D01*
X158895354Y-88207935D01*
X158875797Y-88188377D01*
X158872607Y-88185903D01*
X158863716Y-88178310D01*
X158831768Y-88148308D01*
X158831763Y-88148304D01*
X158814122Y-88138606D01*
X158797857Y-88127922D01*
X158781963Y-88115593D01*
X158781962Y-88115592D01*
X158751819Y-88102548D01*
X158741735Y-88098184D01*
X158731247Y-88093045D01*
X158692838Y-88071929D01*
X158692828Y-88071926D01*
X158673334Y-88066920D01*
X158654933Y-88060620D01*
X158636459Y-88052626D01*
X158636452Y-88052624D01*
X158593173Y-88045770D01*
X158581733Y-88043401D01*
X158539279Y-88032500D01*
X158539272Y-88032500D01*
X158519142Y-88032500D01*
X158499743Y-88030973D01*
X158479868Y-88027825D01*
X158479867Y-88027825D01*
X158436230Y-88031950D01*
X158424561Y-88032500D01*
X154737139Y-88032500D01*
X154670100Y-88012815D01*
X154624345Y-87960011D01*
X154614401Y-87890853D01*
X154643426Y-87827297D01*
X154702204Y-87789523D01*
X154702544Y-87789424D01*
X154715733Y-87785591D01*
X154726395Y-87782494D01*
X154865687Y-87700117D01*
X154980117Y-87585687D01*
X155062494Y-87446395D01*
X155107643Y-87290993D01*
X155110500Y-87254690D01*
X155110500Y-86845310D01*
X155107643Y-86809007D01*
X155093002Y-86758614D01*
X155067723Y-86671603D01*
X155062494Y-86653605D01*
X155054578Y-86640221D01*
X155037398Y-86572498D01*
X155059558Y-86506235D01*
X155114024Y-86462473D01*
X155183504Y-86455104D01*
X155195885Y-86458020D01*
X155229007Y-86467643D01*
X155265310Y-86470500D01*
X155265318Y-86470500D01*
X155734682Y-86470500D01*
X155734690Y-86470500D01*
X155770993Y-86467643D01*
X155847471Y-86445423D01*
X155882066Y-86440500D01*
X158046295Y-86440500D01*
X158064265Y-86441809D01*
X158088023Y-86445289D01*
X158137369Y-86440971D01*
X158148176Y-86440500D01*
X158153704Y-86440500D01*
X158153709Y-86440500D01*
X158184556Y-86436893D01*
X158188030Y-86436539D01*
X158262797Y-86429999D01*
X158262805Y-86429996D01*
X158269866Y-86428539D01*
X158269878Y-86428598D01*
X158277243Y-86426965D01*
X158277229Y-86426906D01*
X158284249Y-86425241D01*
X158284255Y-86425241D01*
X158354779Y-86399572D01*
X158358117Y-86398412D01*
X158429334Y-86374814D01*
X158429342Y-86374808D01*
X158435882Y-86371760D01*
X158435908Y-86371816D01*
X158442690Y-86368532D01*
X158442663Y-86368478D01*
X158449113Y-86365238D01*
X158449117Y-86365237D01*
X158511837Y-86323984D01*
X158514732Y-86322140D01*
X158578656Y-86282712D01*
X158578662Y-86282705D01*
X158584325Y-86278229D01*
X158584362Y-86278277D01*
X158590204Y-86273518D01*
X158590164Y-86273471D01*
X158595686Y-86268835D01*
X158595696Y-86268830D01*
X158647187Y-86214251D01*
X158649632Y-86211734D01*
X159374548Y-85486819D01*
X159435871Y-85453334D01*
X159462229Y-85450500D01*
X159771134Y-85450500D01*
X159830871Y-85465838D01*
X159861430Y-85482637D01*
X159867912Y-85486201D01*
X159887320Y-85491184D01*
X159905723Y-85497485D01*
X159924105Y-85505440D01*
X159924106Y-85505440D01*
X159924108Y-85505441D01*
X159967254Y-85512274D01*
X159978676Y-85514640D01*
X160020985Y-85525504D01*
X160041020Y-85525504D01*
X160060418Y-85527030D01*
X160080198Y-85530163D01*
X160080199Y-85530164D01*
X160080199Y-85530163D01*
X160080200Y-85530164D01*
X160123679Y-85526054D01*
X160135348Y-85525504D01*
X161339348Y-85525504D01*
X161339350Y-85525504D01*
X161339355Y-85525503D01*
X161339359Y-85525503D01*
X161352088Y-85523894D01*
X161456792Y-85510668D01*
X161603732Y-85452490D01*
X161731587Y-85359598D01*
X161832324Y-85237827D01*
X161832328Y-85237818D01*
X161836099Y-85231877D01*
X161888639Y-85185819D01*
X161916605Y-85176698D01*
X161949748Y-85170106D01*
X161991922Y-85141926D01*
X162020102Y-85099752D01*
X162027500Y-85062562D01*
X162027500Y-84737446D01*
X162020102Y-84700256D01*
X162020099Y-84700252D01*
X162018943Y-84697460D01*
X162018234Y-84690869D01*
X162017719Y-84688279D01*
X162017950Y-84688232D01*
X162011473Y-84627991D01*
X162018943Y-84602548D01*
X162020098Y-84599756D01*
X162020102Y-84599752D01*
X162027500Y-84562562D01*
X162027500Y-84237446D01*
X162027303Y-84236458D01*
X162023490Y-84217287D01*
X162020102Y-84200256D01*
X162020101Y-84200254D01*
X161991922Y-84158081D01*
X161949749Y-84129902D01*
X161909865Y-84121968D01*
X161847955Y-84089581D01*
X161829363Y-84066794D01*
X161828838Y-84065966D01*
X161785786Y-83998127D01*
X161670582Y-83889942D01*
X161670579Y-83889940D01*
X161670577Y-83889938D01*
X161532095Y-83813808D01*
X161532087Y-83813805D01*
X161379021Y-83774504D01*
X161379019Y-83774504D01*
X160282733Y-83774504D01*
X160267116Y-83772780D01*
X160267089Y-83773066D01*
X160259327Y-83772331D01*
X160192140Y-83774443D01*
X160188246Y-83774504D01*
X160160646Y-83774504D01*
X160157232Y-83774935D01*
X160156645Y-83775009D01*
X160145027Y-83775922D01*
X160101368Y-83777294D01*
X160101365Y-83777295D01*
X160082122Y-83782885D01*
X160063079Y-83786829D01*
X160043200Y-83789340D01*
X160043199Y-83789341D01*
X160002589Y-83805419D01*
X159991544Y-83809201D01*
X159949604Y-83821387D01*
X159949600Y-83821389D01*
X159932361Y-83831584D01*
X159914894Y-83840141D01*
X159896265Y-83847516D01*
X159896263Y-83847518D01*
X159860922Y-83873193D01*
X159851164Y-83879603D01*
X159813577Y-83901832D01*
X159813575Y-83901834D01*
X159802223Y-83913184D01*
X159740901Y-83946667D01*
X159714546Y-83949500D01*
X159163705Y-83949500D01*
X159145735Y-83948191D01*
X159121972Y-83944710D01*
X159075642Y-83948764D01*
X159072632Y-83949028D01*
X159061826Y-83949500D01*
X159056284Y-83949500D01*
X159025484Y-83953100D01*
X159021899Y-83953466D01*
X158947200Y-83960001D01*
X158940133Y-83961461D01*
X158940121Y-83961404D01*
X158932754Y-83963038D01*
X158932768Y-83963094D01*
X158925745Y-83964758D01*
X158855270Y-83990407D01*
X158851870Y-83991589D01*
X158780666Y-84015185D01*
X158774119Y-84018238D01*
X158774094Y-84018186D01*
X158767314Y-84021468D01*
X158767340Y-84021520D01*
X158760882Y-84024763D01*
X158698235Y-84065966D01*
X158695199Y-84067900D01*
X158631346Y-84107287D01*
X158625677Y-84111770D01*
X158625641Y-84111724D01*
X158619798Y-84116484D01*
X158619835Y-84116528D01*
X158614310Y-84121164D01*
X158614304Y-84121169D01*
X158614304Y-84121170D01*
X158579480Y-84158081D01*
X158562832Y-84175726D01*
X158560320Y-84178311D01*
X157835451Y-84903181D01*
X157774128Y-84936666D01*
X157747770Y-84939500D01*
X155882066Y-84939500D01*
X155847471Y-84934576D01*
X155778879Y-84914648D01*
X155770994Y-84912357D01*
X155770991Y-84912356D01*
X155734697Y-84909500D01*
X155734690Y-84909500D01*
X155265310Y-84909500D01*
X155265302Y-84909500D01*
X155229008Y-84912356D01*
X155229002Y-84912357D01*
X155073609Y-84957504D01*
X155073606Y-84957505D01*
X154934315Y-85039881D01*
X154934309Y-85039885D01*
X154926548Y-85047647D01*
X154865224Y-85081129D01*
X154795532Y-85076142D01*
X154775749Y-85066694D01*
X154768762Y-85062562D01*
X154726395Y-85037506D01*
X154726394Y-85037505D01*
X154726393Y-85037505D01*
X154726390Y-85037504D01*
X154570997Y-84992357D01*
X154570991Y-84992356D01*
X154534697Y-84989500D01*
X154534690Y-84989500D01*
X154065310Y-84989500D01*
X154065302Y-84989500D01*
X154029008Y-84992356D01*
X154029002Y-84992357D01*
X153873609Y-85037504D01*
X153873606Y-85037505D01*
X153731187Y-85121731D01*
X153663463Y-85138914D01*
X153597200Y-85116754D01*
X153553505Y-85062452D01*
X153547373Y-85047647D01*
X153499536Y-84932159D01*
X153403282Y-84806718D01*
X153403280Y-84806717D01*
X153403280Y-84806716D01*
X153359325Y-84772989D01*
X153312131Y-84736775D01*
X153270930Y-84680351D01*
X153266775Y-84610605D01*
X153298663Y-84553821D01*
X153297819Y-84553029D01*
X153303160Y-84547341D01*
X153303162Y-84547340D01*
X153349384Y-84498116D01*
X153352033Y-84495384D01*
X153371623Y-84475796D01*
X153374096Y-84472606D01*
X153381682Y-84463722D01*
X153411693Y-84431767D01*
X153421389Y-84414128D01*
X153432073Y-84397861D01*
X153444408Y-84381962D01*
X153461822Y-84341718D01*
X153466944Y-84331262D01*
X153488072Y-84292834D01*
X153493076Y-84273338D01*
X153499378Y-84254933D01*
X153507374Y-84236459D01*
X153514231Y-84193154D01*
X153516594Y-84181744D01*
X153527500Y-84139272D01*
X153527500Y-84119141D01*
X153529027Y-84099741D01*
X153530636Y-84089581D01*
X153532175Y-84079867D01*
X153528050Y-84036230D01*
X153527500Y-84024561D01*
X153527500Y-83962595D01*
X153547185Y-83895556D01*
X153563815Y-83874917D01*
X153591135Y-83847598D01*
X153672869Y-83709393D01*
X153706517Y-83593576D01*
X153717664Y-83555208D01*
X153717664Y-83555206D01*
X153717665Y-83555204D01*
X153720500Y-83519181D01*
X153720499Y-83120820D01*
X153717665Y-83084796D01*
X153672869Y-82930607D01*
X153638869Y-82873117D01*
X153621688Y-82805398D01*
X153638869Y-82746882D01*
X153672869Y-82689393D01*
X153679182Y-82667666D01*
X153717664Y-82535208D01*
X153717664Y-82535206D01*
X153717665Y-82535204D01*
X153720500Y-82499181D01*
X153720499Y-82100820D01*
X153717665Y-82064796D01*
X153672869Y-81910607D01*
X153591135Y-81772402D01*
X153591133Y-81772400D01*
X153591130Y-81772396D01*
X153477603Y-81658869D01*
X153477595Y-81658863D01*
X153339393Y-81577131D01*
X153339388Y-81577129D01*
X153185208Y-81532335D01*
X153185202Y-81532334D01*
X153149188Y-81529500D01*
X153149181Y-81529500D01*
X152874748Y-81529500D01*
X152807709Y-81509815D01*
X152761954Y-81457011D01*
X152752010Y-81387853D01*
X152755672Y-81370905D01*
X152777664Y-81295208D01*
X152777664Y-81295206D01*
X152777665Y-81295204D01*
X152780500Y-81259181D01*
X152780499Y-81178280D01*
X152800183Y-81111243D01*
X152816812Y-81090605D01*
X152885049Y-81022369D01*
X152897333Y-81012530D01*
X152897152Y-81012312D01*
X152903159Y-81007342D01*
X152903159Y-81007341D01*
X152903162Y-81007340D01*
X152949369Y-80958132D01*
X152952019Y-80955399D01*
X152971624Y-80935796D01*
X152974107Y-80932593D01*
X152981671Y-80923736D01*
X153011693Y-80891767D01*
X153021388Y-80874130D01*
X153032072Y-80857863D01*
X153044408Y-80841962D01*
X153061811Y-80801742D01*
X153066951Y-80791251D01*
X153076722Y-80773479D01*
X153088072Y-80752834D01*
X153093078Y-80733334D01*
X153099376Y-80714936D01*
X153107374Y-80696458D01*
X153114232Y-80653151D01*
X153116596Y-80641736D01*
X153127500Y-80599272D01*
X153127500Y-80579141D01*
X153129027Y-80559741D01*
X153132175Y-80539867D01*
X153128050Y-80496230D01*
X153127500Y-80484561D01*
X153127500Y-78329860D01*
X153144768Y-78266739D01*
X153201744Y-78170398D01*
X153201745Y-78170394D01*
X153201746Y-78170393D01*
X153239802Y-78039405D01*
X153277408Y-77980519D01*
X153340881Y-77951313D01*
X153358878Y-77950000D01*
X154294533Y-77950000D01*
X154310181Y-77951727D01*
X154310208Y-77951446D01*
X154317975Y-77952180D01*
X154317976Y-77952179D01*
X154317977Y-77952180D01*
X154385419Y-77950061D01*
X154389313Y-77950000D01*
X154416972Y-77950000D01*
X154416976Y-77950000D01*
X154420974Y-77949494D01*
X154432614Y-77948577D01*
X154476443Y-77947201D01*
X154495772Y-77941584D01*
X154514828Y-77937637D01*
X154534793Y-77935116D01*
X154575555Y-77918976D01*
X154586592Y-77915198D01*
X154628691Y-77902968D01*
X154646015Y-77892721D01*
X154663483Y-77884163D01*
X154682203Y-77876753D01*
X154717677Y-77850978D01*
X154727415Y-77844581D01*
X154765156Y-77822263D01*
X154779397Y-77808020D01*
X154794178Y-77795397D01*
X154810467Y-77783563D01*
X154838404Y-77749790D01*
X154846256Y-77741161D01*
X156185043Y-76402374D01*
X156197325Y-76392537D01*
X156197144Y-76392318D01*
X156203157Y-76387342D01*
X156203162Y-76387340D01*
X156249384Y-76338116D01*
X156252033Y-76335384D01*
X156271623Y-76315796D01*
X156274096Y-76312606D01*
X156281682Y-76303722D01*
X156311693Y-76271767D01*
X156321389Y-76254128D01*
X156332073Y-76237861D01*
X156344408Y-76221962D01*
X156361819Y-76181725D01*
X156366942Y-76171265D01*
X156388072Y-76132834D01*
X156393078Y-76113334D01*
X156399376Y-76094936D01*
X156407374Y-76076458D01*
X156414232Y-76033151D01*
X156416596Y-76021736D01*
X156427500Y-75979272D01*
X156427500Y-75959141D01*
X156429027Y-75939741D01*
X156432175Y-75919867D01*
X156428050Y-75876230D01*
X156427500Y-75864561D01*
X156427500Y-67182964D01*
X156429228Y-67167313D01*
X156428946Y-67167287D01*
X156429680Y-67159524D01*
X156427561Y-67092081D01*
X156427500Y-67088187D01*
X156427500Y-67060530D01*
X156427500Y-67060524D01*
X156426993Y-67056519D01*
X156426077Y-67044871D01*
X156424701Y-67001058D01*
X156419082Y-66981718D01*
X156415139Y-66962685D01*
X156412616Y-66942707D01*
X156396481Y-66901955D01*
X156392698Y-66890907D01*
X156389777Y-66880852D01*
X156380468Y-66848809D01*
X156374655Y-66838980D01*
X156370225Y-66831489D01*
X156361662Y-66814011D01*
X156354253Y-66795297D01*
X156328489Y-66759837D01*
X156322073Y-66750069D01*
X156299765Y-66712347D01*
X156299759Y-66712339D01*
X156285531Y-66698112D01*
X156272896Y-66683320D01*
X156261063Y-66667033D01*
X156261060Y-66667031D01*
X156261060Y-66667030D01*
X156261058Y-66667028D01*
X156227287Y-66639090D01*
X156218647Y-66631228D01*
X155487424Y-65900005D01*
X187194357Y-65900005D01*
X187214890Y-66147812D01*
X187214892Y-66147824D01*
X187275936Y-66388881D01*
X187375826Y-66616606D01*
X187511833Y-66824782D01*
X187511836Y-66824785D01*
X187680256Y-67007738D01*
X187876491Y-67160474D01*
X188095190Y-67278828D01*
X188330386Y-67359571D01*
X188575665Y-67400500D01*
X188824335Y-67400500D01*
X189069614Y-67359571D01*
X189304810Y-67278828D01*
X189523509Y-67160474D01*
X189719744Y-67007738D01*
X189888164Y-66824785D01*
X190024173Y-66616607D01*
X190124063Y-66388881D01*
X190185108Y-66147821D01*
X190185109Y-66147812D01*
X190205643Y-65900005D01*
X190205643Y-65899994D01*
X190185109Y-65652187D01*
X190185107Y-65652175D01*
X190124063Y-65411118D01*
X190024173Y-65183393D01*
X189888166Y-64975217D01*
X189811800Y-64892262D01*
X189719744Y-64792262D01*
X189523509Y-64639526D01*
X189523507Y-64639525D01*
X189523506Y-64639524D01*
X189304811Y-64521172D01*
X189304802Y-64521169D01*
X189069616Y-64440429D01*
X188824335Y-64399500D01*
X188575665Y-64399500D01*
X188330383Y-64440429D01*
X188095197Y-64521169D01*
X188095188Y-64521172D01*
X187876493Y-64639524D01*
X187680257Y-64792261D01*
X187511833Y-64975217D01*
X187375826Y-65183393D01*
X187275936Y-65411118D01*
X187214892Y-65652175D01*
X187214890Y-65652187D01*
X187194357Y-65899994D01*
X187194357Y-65900005D01*
X155487424Y-65900005D01*
X155062376Y-65474957D01*
X155052531Y-65462668D01*
X155052313Y-65462849D01*
X155047340Y-65456838D01*
X154998655Y-65411119D01*
X154998151Y-65410646D01*
X154995354Y-65407935D01*
X154975797Y-65388377D01*
X154972607Y-65385903D01*
X154963716Y-65378310D01*
X154931768Y-65348308D01*
X154931763Y-65348304D01*
X154914122Y-65338606D01*
X154897857Y-65327922D01*
X154881963Y-65315593D01*
X154881962Y-65315592D01*
X154841735Y-65298184D01*
X154831247Y-65293045D01*
X154792838Y-65271929D01*
X154792828Y-65271926D01*
X154773334Y-65266920D01*
X154754933Y-65260620D01*
X154736459Y-65252626D01*
X154736452Y-65252624D01*
X154693173Y-65245770D01*
X154681733Y-65243401D01*
X154639279Y-65232500D01*
X154639272Y-65232500D01*
X154619142Y-65232500D01*
X154599743Y-65230973D01*
X154579868Y-65227825D01*
X154579867Y-65227825D01*
X154536230Y-65231950D01*
X154524561Y-65232500D01*
X152924499Y-65232500D01*
X152857460Y-65212815D01*
X152811705Y-65160011D01*
X152800499Y-65108500D01*
X152800499Y-64062129D01*
X152800498Y-64062123D01*
X152800497Y-64062116D01*
X152794091Y-64002517D01*
X152743796Y-63867669D01*
X152743795Y-63867668D01*
X152743793Y-63867664D01*
X152657547Y-63752455D01*
X152657544Y-63752452D01*
X152542335Y-63666206D01*
X152542328Y-63666202D01*
X152407482Y-63615908D01*
X152407483Y-63615908D01*
X152347883Y-63609501D01*
X152347881Y-63609500D01*
X152347873Y-63609500D01*
X152347864Y-63609500D01*
X150302129Y-63609500D01*
X150302123Y-63609501D01*
X150242516Y-63615908D01*
X150107671Y-63666202D01*
X150107664Y-63666206D01*
X150062309Y-63700159D01*
X149996845Y-63724576D01*
X149944666Y-63717074D01*
X149807482Y-63665908D01*
X149807483Y-63665908D01*
X149747883Y-63659501D01*
X149747881Y-63659500D01*
X149747873Y-63659500D01*
X149747864Y-63659500D01*
X148852129Y-63659500D01*
X148852123Y-63659501D01*
X148792515Y-63665909D01*
X148655332Y-63717074D01*
X148585641Y-63722058D01*
X148537689Y-63700159D01*
X148536573Y-63699323D01*
X148492331Y-63666204D01*
X148492329Y-63666203D01*
X148492328Y-63666202D01*
X148357482Y-63615908D01*
X148357483Y-63615908D01*
X148297883Y-63609501D01*
X148297881Y-63609500D01*
X148297873Y-63609500D01*
X148297865Y-63609500D01*
X147997517Y-63609500D01*
X147930478Y-63589815D01*
X147884723Y-63537011D01*
X147881576Y-63529474D01*
X147877518Y-63518774D01*
X147877514Y-63518768D01*
X147872198Y-63511066D01*
X147861171Y-63491515D01*
X147857326Y-63482971D01*
X147821641Y-63437424D01*
X147817201Y-63431390D01*
X147784333Y-63383772D01*
X147784332Y-63383771D01*
X147741010Y-63345391D01*
X147735572Y-63340271D01*
X147611819Y-63216518D01*
X147578334Y-63155195D01*
X147575500Y-63128837D01*
X147575500Y-63011874D01*
X147595185Y-62944835D01*
X147611819Y-62924193D01*
X147622833Y-62913179D01*
X147647968Y-62888044D01*
X147737003Y-62743697D01*
X147790349Y-62582708D01*
X147800500Y-62483345D01*
X147800499Y-61636656D01*
X147790349Y-61537292D01*
X147737003Y-61376303D01*
X147736999Y-61376297D01*
X147736998Y-61376294D01*
X147647970Y-61231959D01*
X147647967Y-61231955D01*
X147528044Y-61112032D01*
X147528040Y-61112029D01*
X147383705Y-61023001D01*
X147383699Y-61022998D01*
X147383697Y-61022997D01*
X147383694Y-61022996D01*
X147222709Y-60969651D01*
X147123346Y-60959500D01*
X146576662Y-60959500D01*
X146576644Y-60959501D01*
X146477292Y-60969650D01*
X146477289Y-60969651D01*
X146316305Y-61022996D01*
X146316294Y-61023001D01*
X146171959Y-61112029D01*
X146171955Y-61112032D01*
X146052032Y-61231955D01*
X146052029Y-61231959D01*
X145963001Y-61376294D01*
X145962996Y-61376305D01*
X145909651Y-61537290D01*
X145899500Y-61636647D01*
X145899500Y-62483337D01*
X145899501Y-62483355D01*
X145909650Y-62582707D01*
X145909651Y-62582710D01*
X145962996Y-62743694D01*
X145963001Y-62743705D01*
X146052029Y-62888040D01*
X146052032Y-62888044D01*
X146171956Y-63007968D01*
X146171963Y-63007972D01*
X146177404Y-63012274D01*
X146217785Y-63069293D01*
X146224500Y-63109546D01*
X146224500Y-63435849D01*
X146224274Y-63443336D01*
X146220781Y-63501082D01*
X146221234Y-63508569D01*
X146218659Y-63508724D01*
X146212645Y-63565999D01*
X146168938Y-63620511D01*
X146141300Y-63635011D01*
X146057671Y-63666202D01*
X146057664Y-63666206D01*
X145942455Y-63752452D01*
X145942452Y-63752455D01*
X145856206Y-63867664D01*
X145856202Y-63867671D01*
X145805908Y-64002517D01*
X145802066Y-64038259D01*
X145799501Y-64062123D01*
X145799500Y-64062135D01*
X145799500Y-65060500D01*
X145779815Y-65127539D01*
X145727011Y-65173294D01*
X145675500Y-65184500D01*
X145664145Y-65184500D01*
X145656658Y-65184274D01*
X145637653Y-65183124D01*
X145598917Y-65180781D01*
X145598909Y-65180781D01*
X145542011Y-65191207D01*
X145534613Y-65192334D01*
X145477155Y-65199311D01*
X145468381Y-65202639D01*
X145446778Y-65208660D01*
X145442259Y-65209488D01*
X145437560Y-65210350D01*
X145384781Y-65234102D01*
X145377869Y-65236965D01*
X145323774Y-65257482D01*
X145323770Y-65257484D01*
X145316056Y-65262808D01*
X145296525Y-65273824D01*
X145287971Y-65277674D01*
X145287970Y-65277674D01*
X145242405Y-65313371D01*
X145236377Y-65317807D01*
X145188772Y-65350667D01*
X145188769Y-65350669D01*
X145150414Y-65393963D01*
X145145281Y-65399415D01*
X142939424Y-67605273D01*
X142933972Y-67610406D01*
X142890669Y-67648769D01*
X142890667Y-67648772D01*
X142857800Y-67696387D01*
X142853363Y-67702417D01*
X142817674Y-67747970D01*
X142813824Y-67756525D01*
X142802808Y-67776056D01*
X142797484Y-67783770D01*
X142797482Y-67783774D01*
X142776965Y-67837869D01*
X142774102Y-67844781D01*
X142750350Y-67897560D01*
X142748661Y-67906777D01*
X142742639Y-67928381D01*
X142739311Y-67937155D01*
X142732334Y-67994613D01*
X142731207Y-68002011D01*
X142720781Y-68058908D01*
X142720781Y-68058915D01*
X142724274Y-68116663D01*
X142724500Y-68124150D01*
X142724500Y-82368837D01*
X142704815Y-82435876D01*
X142688181Y-82456518D01*
X141831518Y-83313181D01*
X141770195Y-83346666D01*
X141743837Y-83349500D01*
X140028819Y-83349500D01*
X139961780Y-83329815D01*
X139916025Y-83277011D01*
X139912295Y-83267904D01*
X139887484Y-83199724D01*
X139887481Y-83199719D01*
X139802142Y-83051890D01*
X139802138Y-83051886D01*
X139802136Y-83051882D01*
X139692432Y-82921129D01*
X139692420Y-82921117D01*
X139561678Y-82811406D01*
X139561677Y-82811405D01*
X139561672Y-82811401D01*
X139503271Y-82777681D01*
X139413855Y-82726053D01*
X139413849Y-82726050D01*
X139253445Y-82667665D01*
X139253448Y-82667665D01*
X139085351Y-82638024D01*
X139082709Y-82638023D01*
X139076114Y-82638023D01*
X139076111Y-82638023D01*
X139076104Y-82638023D01*
X139051385Y-82638023D01*
X139051303Y-82637999D01*
X138914653Y-82638000D01*
X138914649Y-82638001D01*
X138746547Y-82667643D01*
X138686788Y-82689395D01*
X138586142Y-82726029D01*
X138586140Y-82726029D01*
X138586140Y-82726030D01*
X138586134Y-82726032D01*
X138438319Y-82811379D01*
X138438308Y-82811387D01*
X138307564Y-82921101D01*
X138307551Y-82921113D01*
X138197840Y-83051874D01*
X138112497Y-83199709D01*
X138112494Y-83199714D01*
X138083160Y-83280325D01*
X138041737Y-83336591D01*
X137976470Y-83361530D01*
X137945104Y-83360037D01*
X137885347Y-83349500D01*
X137885345Y-83349500D01*
X137840857Y-83349500D01*
X131530638Y-83349500D01*
X131463599Y-83329815D01*
X131417844Y-83277011D01*
X131416515Y-83273997D01*
X131375132Y-83176615D01*
X131375130Y-83176610D01*
X131234018Y-82945390D01*
X131186318Y-82888072D01*
X131060746Y-82737180D01*
X131060740Y-82737175D01*
X130859002Y-82556418D01*
X130633092Y-82406957D01*
X130576298Y-82380333D01*
X130387824Y-82291980D01*
X130387819Y-82291978D01*
X130387814Y-82291976D01*
X130128442Y-82213942D01*
X130128428Y-82213939D01*
X130012791Y-82196921D01*
X129860439Y-82174500D01*
X129057369Y-82174500D01*
X129057351Y-82174500D01*
X128854844Y-82189323D01*
X128854831Y-82189325D01*
X128590453Y-82248217D01*
X128590446Y-82248220D01*
X128337439Y-82344987D01*
X128260188Y-82388343D01*
X128192092Y-82403988D01*
X128126348Y-82380333D01*
X128083830Y-82324890D01*
X128075500Y-82280209D01*
X128075500Y-81171323D01*
X128095185Y-81104284D01*
X128147989Y-81058529D01*
X128148842Y-81058143D01*
X128202730Y-81034151D01*
X128355871Y-80922888D01*
X128482533Y-80782216D01*
X128577179Y-80618284D01*
X128635674Y-80438256D01*
X128655460Y-80250000D01*
X128635674Y-80061744D01*
X128577179Y-79881716D01*
X128482533Y-79717784D01*
X128355871Y-79577112D01*
X128355870Y-79577111D01*
X128202734Y-79465851D01*
X128202729Y-79465848D01*
X128029807Y-79388857D01*
X128029802Y-79388855D01*
X127884001Y-79357865D01*
X127844646Y-79349500D01*
X127655354Y-79349500D01*
X127622897Y-79356398D01*
X127470197Y-79388855D01*
X127470192Y-79388857D01*
X127297270Y-79465848D01*
X127297265Y-79465851D01*
X127144129Y-79577111D01*
X127017466Y-79717785D01*
X126922821Y-79881715D01*
X126922818Y-79881722D01*
X126864327Y-80061740D01*
X126864326Y-80061744D01*
X126844540Y-80250000D01*
X126844540Y-80250001D01*
X126851638Y-80317544D01*
X126844245Y-80365889D01*
X126846738Y-80366614D01*
X126844561Y-80374104D01*
X126837728Y-80417243D01*
X126835360Y-80428674D01*
X126824501Y-80470971D01*
X126824500Y-80470982D01*
X126824500Y-80491016D01*
X126822973Y-80510415D01*
X126819840Y-80530194D01*
X126819840Y-80530195D01*
X121685225Y-80530195D01*
X121685225Y-66000005D01*
X126994357Y-66000005D01*
X127014890Y-66247812D01*
X127014892Y-66247824D01*
X127075936Y-66488881D01*
X127175826Y-66716606D01*
X127311833Y-66924782D01*
X127311836Y-66924785D01*
X127480256Y-67107738D01*
X127676491Y-67260474D01*
X127895190Y-67378828D01*
X128130386Y-67459571D01*
X128375665Y-67500500D01*
X128624335Y-67500500D01*
X128869614Y-67459571D01*
X129104810Y-67378828D01*
X129323509Y-67260474D01*
X129519744Y-67107738D01*
X129688164Y-66924785D01*
X129824173Y-66716607D01*
X129924063Y-66488881D01*
X129985108Y-66247821D01*
X129993394Y-66147824D01*
X130005643Y-66000005D01*
X130005643Y-65999994D01*
X129985109Y-65752187D01*
X129985107Y-65752175D01*
X129924063Y-65511118D01*
X129824173Y-65283393D01*
X129688166Y-65075217D01*
X129596109Y-64975217D01*
X129519744Y-64892262D01*
X129323509Y-64739526D01*
X129323507Y-64739525D01*
X129323506Y-64739524D01*
X129104811Y-64621172D01*
X129104802Y-64621169D01*
X128869616Y-64540429D01*
X128624335Y-64499500D01*
X128375665Y-64499500D01*
X128130383Y-64540429D01*
X127895197Y-64621169D01*
X127895188Y-64621172D01*
X127676493Y-64739524D01*
X127480257Y-64892261D01*
X127311833Y-65075217D01*
X127175826Y-65283393D01*
X127075936Y-65511118D01*
X127014892Y-65752175D01*
X127014890Y-65752187D01*
X126994357Y-65999994D01*
X126994357Y-66000005D01*
X121685225Y-66000005D01*
X121685225Y-60075791D01*
X123479082Y-60075791D01*
X123486755Y-60158597D01*
X123487284Y-60170038D01*
X123487284Y-60186750D01*
X123490222Y-60202469D01*
X123490354Y-60203173D01*
X123491935Y-60214510D01*
X123499610Y-60297327D01*
X123499610Y-60297329D01*
X123522370Y-60377321D01*
X123524990Y-60388460D01*
X123528062Y-60404888D01*
X123528063Y-60404893D01*
X123534097Y-60420468D01*
X123537737Y-60431328D01*
X123560495Y-60511318D01*
X123578153Y-60546779D01*
X123597566Y-60585765D01*
X123602187Y-60596231D01*
X123608227Y-60611823D01*
X123617024Y-60626029D01*
X123622597Y-60636035D01*
X123659663Y-60710474D01*
X123659667Y-60710481D01*
X123709780Y-60776841D01*
X123716250Y-60786286D01*
X123725053Y-60800502D01*
X123736310Y-60812851D01*
X123743626Y-60821661D01*
X123793745Y-60888028D01*
X123855199Y-60944051D01*
X123863298Y-60952150D01*
X123874556Y-60964500D01*
X123887896Y-60974574D01*
X123896706Y-60981890D01*
X123958158Y-61037911D01*
X123958160Y-61037912D01*
X123958163Y-61037915D01*
X124028869Y-61081694D01*
X124038315Y-61088164D01*
X124051653Y-61098237D01*
X124066624Y-61105691D01*
X124076621Y-61111261D01*
X124147314Y-61155033D01*
X124147318Y-61155035D01*
X124147321Y-61155036D01*
X124147324Y-61155038D01*
X124224878Y-61185082D01*
X124235334Y-61189700D01*
X124250301Y-61197153D01*
X124250303Y-61197153D01*
X124250306Y-61197155D01*
X124266400Y-61201734D01*
X124277236Y-61205366D01*
X124354785Y-61235409D01*
X124436552Y-61250694D01*
X124447679Y-61253311D01*
X124463753Y-61257885D01*
X124480384Y-61259426D01*
X124491713Y-61261005D01*
X124573482Y-61276291D01*
X124573484Y-61276291D01*
X124656643Y-61276291D01*
X124668084Y-61276819D01*
X124684725Y-61278362D01*
X124701365Y-61276819D01*
X124712807Y-61276291D01*
X124795967Y-61276291D01*
X124795968Y-61276291D01*
X124877732Y-61261006D01*
X124889053Y-61259427D01*
X124905697Y-61257885D01*
X124921794Y-61253304D01*
X124932886Y-61250696D01*
X125014665Y-61235409D01*
X125092239Y-61205356D01*
X125103036Y-61201737D01*
X125119144Y-61197155D01*
X125134116Y-61189700D01*
X125144572Y-61185082D01*
X125222126Y-61155038D01*
X125292862Y-61111239D01*
X125302808Y-61105700D01*
X125317797Y-61098237D01*
X125331142Y-61088159D01*
X125340548Y-61081714D01*
X125411287Y-61037915D01*
X125472765Y-60981869D01*
X125481539Y-60974584D01*
X125494892Y-60964501D01*
X125506166Y-60952133D01*
X125514231Y-60944068D01*
X125575706Y-60888027D01*
X125625833Y-60821647D01*
X125633127Y-60812863D01*
X125644397Y-60800502D01*
X125653208Y-60786271D01*
X125659652Y-60776863D01*
X125709783Y-60710480D01*
X125746863Y-60636012D01*
X125752412Y-60626050D01*
X125761222Y-60611823D01*
X125767264Y-60596225D01*
X125771871Y-60585789D01*
X125808954Y-60511319D01*
X125831721Y-60431300D01*
X125835347Y-60420482D01*
X125841388Y-60404890D01*
X125844458Y-60388462D01*
X125847071Y-60377350D01*
X125869840Y-60297327D01*
X125877514Y-60214506D01*
X125879092Y-60203189D01*
X125882166Y-60186750D01*
X125882756Y-60161146D01*
X125883249Y-60152616D01*
X125890368Y-60075791D01*
X125885661Y-60025000D01*
X129414341Y-60025000D01*
X129434936Y-60260403D01*
X129434938Y-60260413D01*
X129496094Y-60488655D01*
X129496096Y-60488659D01*
X129496097Y-60488663D01*
X129541375Y-60585762D01*
X129595965Y-60702830D01*
X129595967Y-60702834D01*
X129673011Y-60812863D01*
X129731505Y-60896401D01*
X129898599Y-61063495D01*
X129924586Y-61081691D01*
X130092165Y-61199032D01*
X130092167Y-61199033D01*
X130092170Y-61199035D01*
X130306337Y-61298903D01*
X130306343Y-61298904D01*
X130306344Y-61298905D01*
X130361285Y-61313626D01*
X130534592Y-61360063D01*
X130720109Y-61376294D01*
X130769999Y-61380659D01*
X130770000Y-61380659D01*
X130770001Y-61380659D01*
X130819891Y-61376294D01*
X131005408Y-61360063D01*
X131233663Y-61298903D01*
X131447830Y-61199035D01*
X131641401Y-61063495D01*
X131808495Y-60896401D01*
X131938425Y-60710842D01*
X131993002Y-60667217D01*
X132062500Y-60660023D01*
X132124855Y-60691546D01*
X132141575Y-60710842D01*
X132271500Y-60896395D01*
X132271505Y-60896401D01*
X132438599Y-61063495D01*
X132631624Y-61198653D01*
X132675248Y-61253228D01*
X132684500Y-61300226D01*
X132684500Y-62804546D01*
X132664815Y-62871585D01*
X132648183Y-62892225D01*
X132627230Y-62913179D01*
X132565908Y-62946666D01*
X132539547Y-62949500D01*
X132480354Y-62949500D01*
X132447897Y-62956398D01*
X132295197Y-62988855D01*
X132295192Y-62988857D01*
X132122270Y-63065848D01*
X132122265Y-63065851D01*
X131969129Y-63177111D01*
X131842466Y-63317785D01*
X131747821Y-63481715D01*
X131747818Y-63481722D01*
X131689327Y-63661740D01*
X131689326Y-63661744D01*
X131669540Y-63850000D01*
X131689326Y-64038256D01*
X131689327Y-64038259D01*
X131747818Y-64218277D01*
X131747821Y-64218284D01*
X131842467Y-64382216D01*
X131948070Y-64499500D01*
X131969129Y-64522888D01*
X132122265Y-64634148D01*
X132122270Y-64634151D01*
X132295192Y-64711142D01*
X132295197Y-64711144D01*
X132480354Y-64750500D01*
X132480355Y-64750500D01*
X132669644Y-64750500D01*
X132669646Y-64750500D01*
X132854803Y-64711144D01*
X133027730Y-64634151D01*
X133180871Y-64522888D01*
X133307533Y-64382216D01*
X133402179Y-64218284D01*
X133460674Y-64038256D01*
X133478321Y-63870344D01*
X133504904Y-63805734D01*
X133513951Y-63795638D01*
X133693788Y-63615801D01*
X133706042Y-63605986D01*
X133705859Y-63605764D01*
X133711868Y-63600791D01*
X133711877Y-63600786D01*
X133757949Y-63551722D01*
X133760566Y-63549023D01*
X133780120Y-63529471D01*
X133782576Y-63526303D01*
X133790156Y-63517427D01*
X133820062Y-63485582D01*
X133829715Y-63468020D01*
X133840389Y-63451770D01*
X133852673Y-63435936D01*
X133870019Y-63395850D01*
X133875157Y-63385362D01*
X133876032Y-63383772D01*
X133896197Y-63347092D01*
X133901177Y-63327691D01*
X133907478Y-63309288D01*
X133915438Y-63290896D01*
X133922272Y-63247741D01*
X133924635Y-63236331D01*
X133935500Y-63194019D01*
X133935500Y-63173983D01*
X133937027Y-63154582D01*
X133940160Y-63134804D01*
X133936050Y-63091324D01*
X133935500Y-63079655D01*
X133935500Y-61300226D01*
X133955185Y-61233187D01*
X133988374Y-61198654D01*
X134181401Y-61063495D01*
X134348495Y-60896401D01*
X134478425Y-60710842D01*
X134533002Y-60667217D01*
X134602500Y-60660023D01*
X134664855Y-60691546D01*
X134681575Y-60710842D01*
X134811500Y-60896395D01*
X134811505Y-60896401D01*
X134978599Y-61063495D01*
X135004586Y-61081691D01*
X135172165Y-61199032D01*
X135172167Y-61199033D01*
X135172170Y-61199035D01*
X135386337Y-61298903D01*
X135386343Y-61298904D01*
X135386344Y-61298905D01*
X135441285Y-61313626D01*
X135614592Y-61360063D01*
X135800109Y-61376294D01*
X135849999Y-61380659D01*
X135850000Y-61380659D01*
X135850001Y-61380659D01*
X135899891Y-61376294D01*
X136085408Y-61360063D01*
X136313663Y-61298903D01*
X136527830Y-61199035D01*
X136721401Y-61063495D01*
X136888495Y-60896401D01*
X137024035Y-60702830D01*
X137123903Y-60488663D01*
X137185063Y-60260408D01*
X137201215Y-60075791D01*
X187479082Y-60075791D01*
X187486755Y-60158597D01*
X187487284Y-60170038D01*
X187487284Y-60186750D01*
X187490222Y-60202469D01*
X187490354Y-60203173D01*
X187491935Y-60214510D01*
X187499610Y-60297327D01*
X187499610Y-60297329D01*
X187522370Y-60377321D01*
X187524990Y-60388460D01*
X187528062Y-60404888D01*
X187528063Y-60404893D01*
X187534097Y-60420468D01*
X187537737Y-60431328D01*
X187560495Y-60511318D01*
X187578153Y-60546779D01*
X187597566Y-60585765D01*
X187602187Y-60596231D01*
X187608227Y-60611823D01*
X187617024Y-60626029D01*
X187622597Y-60636035D01*
X187659663Y-60710474D01*
X187659667Y-60710481D01*
X187709780Y-60776841D01*
X187716250Y-60786286D01*
X187725053Y-60800502D01*
X187736310Y-60812851D01*
X187743626Y-60821661D01*
X187793745Y-60888028D01*
X187855199Y-60944051D01*
X187863298Y-60952150D01*
X187874556Y-60964500D01*
X187887896Y-60974574D01*
X187896706Y-60981890D01*
X187958158Y-61037911D01*
X187958160Y-61037912D01*
X187958163Y-61037915D01*
X188028869Y-61081694D01*
X188038315Y-61088164D01*
X188051653Y-61098237D01*
X188066624Y-61105691D01*
X188076621Y-61111261D01*
X188147314Y-61155033D01*
X188147318Y-61155035D01*
X188147321Y-61155036D01*
X188147324Y-61155038D01*
X188224878Y-61185082D01*
X188235334Y-61189700D01*
X188250301Y-61197153D01*
X188250303Y-61197153D01*
X188250306Y-61197155D01*
X188266400Y-61201734D01*
X188277236Y-61205366D01*
X188354785Y-61235409D01*
X188436552Y-61250694D01*
X188447679Y-61253311D01*
X188463753Y-61257885D01*
X188480384Y-61259426D01*
X188491713Y-61261005D01*
X188573482Y-61276291D01*
X188573484Y-61276291D01*
X188656643Y-61276291D01*
X188668084Y-61276819D01*
X188684725Y-61278362D01*
X188701365Y-61276819D01*
X188712807Y-61276291D01*
X188795967Y-61276291D01*
X188795968Y-61276291D01*
X188877732Y-61261006D01*
X188889053Y-61259427D01*
X188905697Y-61257885D01*
X188921794Y-61253304D01*
X188932886Y-61250696D01*
X189014665Y-61235409D01*
X189092239Y-61205356D01*
X189103036Y-61201737D01*
X189119144Y-61197155D01*
X189134116Y-61189700D01*
X189144572Y-61185082D01*
X189222126Y-61155038D01*
X189292862Y-61111239D01*
X189302808Y-61105700D01*
X189317797Y-61098237D01*
X189331142Y-61088159D01*
X189340548Y-61081714D01*
X189411287Y-61037915D01*
X189472765Y-60981869D01*
X189481539Y-60974584D01*
X189494892Y-60964501D01*
X189506166Y-60952133D01*
X189514231Y-60944068D01*
X189575706Y-60888027D01*
X189625833Y-60821647D01*
X189633127Y-60812863D01*
X189644397Y-60800502D01*
X189653208Y-60786271D01*
X189659652Y-60776863D01*
X189709783Y-60710480D01*
X189746863Y-60636012D01*
X189752412Y-60626050D01*
X189761222Y-60611823D01*
X189767264Y-60596225D01*
X189771871Y-60585789D01*
X189808954Y-60511319D01*
X189831721Y-60431300D01*
X189835347Y-60420482D01*
X189841388Y-60404890D01*
X189844458Y-60388462D01*
X189847071Y-60377350D01*
X189869840Y-60297327D01*
X189877514Y-60214506D01*
X189879092Y-60203189D01*
X189882166Y-60186750D01*
X189882756Y-60161146D01*
X189883249Y-60152616D01*
X189890368Y-60075791D01*
X189883249Y-59998968D01*
X189882756Y-59990435D01*
X189882166Y-59964832D01*
X189879090Y-59948382D01*
X189877513Y-59937062D01*
X189869840Y-59854255D01*
X189847072Y-59774236D01*
X189844458Y-59763119D01*
X189841388Y-59746692D01*
X189835349Y-59731106D01*
X189831719Y-59720275D01*
X189808954Y-59640263D01*
X189771880Y-59565810D01*
X189767258Y-59555340D01*
X189761223Y-59539761D01*
X189761222Y-59539759D01*
X189752413Y-59525533D01*
X189746860Y-59515563D01*
X189709783Y-59441102D01*
X189659659Y-59374727D01*
X189653195Y-59365290D01*
X189644397Y-59351080D01*
X189633137Y-59338728D01*
X189625823Y-59329920D01*
X189598657Y-59293947D01*
X189575706Y-59263555D01*
X189514251Y-59207531D01*
X189514248Y-59207528D01*
X189506151Y-59199431D01*
X189494895Y-59187084D01*
X189494893Y-59187082D01*
X189494892Y-59187081D01*
X189481546Y-59177002D01*
X189472753Y-59169701D01*
X189411287Y-59113667D01*
X189340583Y-59069889D01*
X189331136Y-59063418D01*
X189317793Y-59053342D01*
X189302832Y-59045892D01*
X189292830Y-59040321D01*
X189222132Y-58996547D01*
X189222131Y-58996546D01*
X189144587Y-58966504D01*
X189134121Y-58961883D01*
X189119151Y-58954430D01*
X189119147Y-58954428D01*
X189119144Y-58954427D01*
X189119136Y-58954424D01*
X189119134Y-58954424D01*
X189103062Y-58949850D01*
X189092211Y-58946213D01*
X189014668Y-58916174D01*
X189014666Y-58916173D01*
X189014665Y-58916173D01*
X189014663Y-58916172D01*
X189014654Y-58916170D01*
X188932915Y-58900890D01*
X188921769Y-58898269D01*
X188905697Y-58893696D01*
X188905693Y-58893695D01*
X188889055Y-58892153D01*
X188877721Y-58890572D01*
X188795969Y-58875291D01*
X188795968Y-58875291D01*
X188712796Y-58875291D01*
X188701356Y-58874762D01*
X188684725Y-58873221D01*
X188668093Y-58874762D01*
X188656654Y-58875291D01*
X188573480Y-58875291D01*
X188491728Y-58890572D01*
X188480395Y-58892153D01*
X188463761Y-58893695D01*
X188463747Y-58893698D01*
X188447667Y-58898272D01*
X188436529Y-58900891D01*
X188354789Y-58916171D01*
X188354779Y-58916174D01*
X188277243Y-58946212D01*
X188266391Y-58949850D01*
X188250305Y-58954427D01*
X188250295Y-58954431D01*
X188235325Y-58961884D01*
X188224862Y-58966503D01*
X188147332Y-58996540D01*
X188147320Y-58996546D01*
X188076616Y-59040323D01*
X188066615Y-59045893D01*
X188051659Y-59053340D01*
X188051654Y-59053343D01*
X188038313Y-59063417D01*
X188028874Y-59069883D01*
X187958160Y-59113668D01*
X187896693Y-59169701D01*
X187887891Y-59177011D01*
X187874555Y-59187082D01*
X187863289Y-59199440D01*
X187855197Y-59207531D01*
X187793747Y-59263551D01*
X187743626Y-59329920D01*
X187736315Y-59338724D01*
X187725055Y-59351077D01*
X187725054Y-59351077D01*
X187716256Y-59365287D01*
X187709787Y-59374731D01*
X187677163Y-59417932D01*
X187659667Y-59441102D01*
X187659666Y-59441103D01*
X187659666Y-59441104D01*
X187659659Y-59441115D01*
X187622595Y-59515548D01*
X187617028Y-59525544D01*
X187608227Y-59539759D01*
X187602191Y-59555340D01*
X187597567Y-59565811D01*
X187560498Y-59640258D01*
X187560495Y-59640264D01*
X187547710Y-59685198D01*
X187537736Y-59720256D01*
X187534098Y-59731110D01*
X187528063Y-59746686D01*
X187528062Y-59746692D01*
X187524993Y-59763107D01*
X187522372Y-59774249D01*
X187499610Y-59854255D01*
X187491936Y-59937062D01*
X187490355Y-59948398D01*
X187487284Y-59964828D01*
X187487284Y-59981542D01*
X187486755Y-59992983D01*
X187479082Y-60075790D01*
X187479082Y-60075791D01*
X137201215Y-60075791D01*
X137205659Y-60025000D01*
X137185063Y-59789592D01*
X137123903Y-59561337D01*
X137024035Y-59347171D01*
X137018425Y-59339158D01*
X136888494Y-59153597D01*
X136721402Y-58986506D01*
X136721395Y-58986501D01*
X136527834Y-58850967D01*
X136527830Y-58850965D01*
X136527828Y-58850964D01*
X136313663Y-58751097D01*
X136313659Y-58751096D01*
X136313655Y-58751094D01*
X136085413Y-58689938D01*
X136085403Y-58689936D01*
X135850001Y-58669341D01*
X135849999Y-58669341D01*
X135614596Y-58689936D01*
X135614586Y-58689938D01*
X135386344Y-58751094D01*
X135386335Y-58751098D01*
X135172171Y-58850964D01*
X135172169Y-58850965D01*
X134978597Y-58986505D01*
X134811505Y-59153597D01*
X134681575Y-59339158D01*
X134626998Y-59382783D01*
X134557500Y-59389977D01*
X134495145Y-59358454D01*
X134478425Y-59339158D01*
X134348494Y-59153597D01*
X134181402Y-58986506D01*
X134181395Y-58986501D01*
X133987834Y-58850967D01*
X133987830Y-58850965D01*
X133987828Y-58850964D01*
X133773663Y-58751097D01*
X133773659Y-58751096D01*
X133773655Y-58751094D01*
X133545413Y-58689938D01*
X133545403Y-58689936D01*
X133310001Y-58669341D01*
X133309999Y-58669341D01*
X133074596Y-58689936D01*
X133074586Y-58689938D01*
X132846344Y-58751094D01*
X132846335Y-58751098D01*
X132632171Y-58850964D01*
X132632169Y-58850965D01*
X132438597Y-58986505D01*
X132271505Y-59153597D01*
X132141575Y-59339158D01*
X132086998Y-59382783D01*
X132017500Y-59389977D01*
X131955145Y-59358454D01*
X131938425Y-59339158D01*
X131808494Y-59153597D01*
X131641402Y-58986506D01*
X131641395Y-58986501D01*
X131447834Y-58850967D01*
X131447830Y-58850965D01*
X131447828Y-58850964D01*
X131233663Y-58751097D01*
X131233659Y-58751096D01*
X131233655Y-58751094D01*
X131005413Y-58689938D01*
X131005403Y-58689936D01*
X130770001Y-58669341D01*
X130769999Y-58669341D01*
X130534596Y-58689936D01*
X130534586Y-58689938D01*
X130306344Y-58751094D01*
X130306335Y-58751098D01*
X130092171Y-58850964D01*
X130092169Y-58850965D01*
X129898597Y-58986505D01*
X129731505Y-59153597D01*
X129595965Y-59347169D01*
X129595964Y-59347171D01*
X129517453Y-59515539D01*
X129498894Y-59555340D01*
X129496098Y-59561335D01*
X129496094Y-59561344D01*
X129434938Y-59789586D01*
X129434936Y-59789596D01*
X129414341Y-60024999D01*
X129414341Y-60025000D01*
X125885661Y-60025000D01*
X125883249Y-59998968D01*
X125882756Y-59990435D01*
X125882166Y-59964832D01*
X125879090Y-59948382D01*
X125877513Y-59937062D01*
X125869840Y-59854255D01*
X125847072Y-59774236D01*
X125844458Y-59763119D01*
X125841388Y-59746692D01*
X125835349Y-59731106D01*
X125831719Y-59720275D01*
X125808954Y-59640263D01*
X125771880Y-59565810D01*
X125767258Y-59555340D01*
X125761223Y-59539761D01*
X125761222Y-59539759D01*
X125752413Y-59525533D01*
X125746860Y-59515563D01*
X125709783Y-59441102D01*
X125659659Y-59374727D01*
X125653195Y-59365290D01*
X125644397Y-59351080D01*
X125633137Y-59338728D01*
X125625823Y-59329920D01*
X125598657Y-59293947D01*
X125575706Y-59263555D01*
X125514251Y-59207531D01*
X125514248Y-59207528D01*
X125506151Y-59199431D01*
X125494895Y-59187084D01*
X125494893Y-59187082D01*
X125494892Y-59187081D01*
X125481546Y-59177002D01*
X125472753Y-59169701D01*
X125411287Y-59113667D01*
X125340583Y-59069889D01*
X125331136Y-59063418D01*
X125317793Y-59053342D01*
X125302832Y-59045892D01*
X125292830Y-59040321D01*
X125222132Y-58996547D01*
X125222131Y-58996546D01*
X125144587Y-58966504D01*
X125134121Y-58961883D01*
X125119151Y-58954430D01*
X125119147Y-58954428D01*
X125119144Y-58954427D01*
X125119136Y-58954424D01*
X125119134Y-58954424D01*
X125103062Y-58949850D01*
X125092211Y-58946213D01*
X125014668Y-58916174D01*
X125014666Y-58916173D01*
X125014665Y-58916173D01*
X125014663Y-58916172D01*
X125014654Y-58916170D01*
X124932915Y-58900890D01*
X124921769Y-58898269D01*
X124905697Y-58893696D01*
X124905693Y-58893695D01*
X124889055Y-58892153D01*
X124877721Y-58890572D01*
X124795969Y-58875291D01*
X124795968Y-58875291D01*
X124712796Y-58875291D01*
X124701356Y-58874762D01*
X124684725Y-58873221D01*
X124668093Y-58874762D01*
X124656654Y-58875291D01*
X124573480Y-58875291D01*
X124491728Y-58890572D01*
X124480395Y-58892153D01*
X124463761Y-58893695D01*
X124463747Y-58893698D01*
X124447667Y-58898272D01*
X124436529Y-58900891D01*
X124354789Y-58916171D01*
X124354779Y-58916174D01*
X124277243Y-58946212D01*
X124266391Y-58949850D01*
X124250305Y-58954427D01*
X124250295Y-58954431D01*
X124235325Y-58961884D01*
X124224862Y-58966503D01*
X124147332Y-58996540D01*
X124147320Y-58996546D01*
X124076616Y-59040323D01*
X124066615Y-59045893D01*
X124051659Y-59053340D01*
X124051654Y-59053343D01*
X124038313Y-59063417D01*
X124028874Y-59069883D01*
X123958160Y-59113668D01*
X123896693Y-59169701D01*
X123887891Y-59177011D01*
X123874555Y-59187082D01*
X123863289Y-59199440D01*
X123855197Y-59207531D01*
X123793747Y-59263551D01*
X123743626Y-59329920D01*
X123736315Y-59338724D01*
X123725055Y-59351077D01*
X123725054Y-59351077D01*
X123716256Y-59365287D01*
X123709787Y-59374731D01*
X123677163Y-59417932D01*
X123659667Y-59441102D01*
X123659666Y-59441103D01*
X123659666Y-59441104D01*
X123659659Y-59441115D01*
X123622595Y-59515548D01*
X123617028Y-59525544D01*
X123608227Y-59539759D01*
X123602191Y-59555340D01*
X123597567Y-59565811D01*
X123560498Y-59640258D01*
X123560495Y-59640264D01*
X123547710Y-59685198D01*
X123537736Y-59720256D01*
X123534098Y-59731110D01*
X123528063Y-59746686D01*
X123528062Y-59746692D01*
X123524993Y-59763107D01*
X123522372Y-59774249D01*
X123499610Y-59854255D01*
X123491936Y-59937062D01*
X123490355Y-59948398D01*
X123487284Y-59964828D01*
X123487284Y-59981542D01*
X123486755Y-59992983D01*
X123479082Y-60075790D01*
X123479082Y-60075791D01*
X121685225Y-60075791D01*
X121685225Y-58781202D01*
X121685697Y-58770395D01*
X121689152Y-58730902D01*
X121689253Y-58729817D01*
X121701645Y-58604013D01*
X121705264Y-58584119D01*
X121722642Y-58519269D01*
X121723670Y-58515666D01*
X121751413Y-58424218D01*
X121757680Y-58407837D01*
X121788433Y-58341890D01*
X121791384Y-58335988D01*
X121833751Y-58256727D01*
X121841518Y-58244086D01*
X121884372Y-58182887D01*
X121890053Y-58175399D01*
X121945917Y-58107331D01*
X121954055Y-58098351D01*
X122007274Y-58045133D01*
X122016252Y-58036998D01*
X122084313Y-57981143D01*
X122091837Y-57975436D01*
X122095847Y-57972628D01*
X122153017Y-57932598D01*
X122165670Y-57924826D01*
X122244885Y-57882487D01*
X122250850Y-57879504D01*
X122316765Y-57848769D01*
X122333154Y-57842500D01*
X122424545Y-57814778D01*
X122428305Y-57813705D01*
X122493059Y-57796356D01*
X122512948Y-57792735D01*
X122636473Y-57780550D01*
X122637381Y-57780465D01*
X122679729Y-57776761D01*
X122690529Y-57776291D01*
X190679311Y-57776291D01*
X190690118Y-57776763D01*
G37*
G04 #@! TD.AperFunction*
M02*
