G04 #@! TF.GenerationSoftware,KiCad,Pcbnew,7.0.10*
G04 #@! TF.CreationDate,2024-01-20T18:16:50+03:00*
G04 #@! TF.ProjectId,Eco_display,45636f5f-6469-4737-906c-61792e6b6963,rev?*
G04 #@! TF.SameCoordinates,Original*
G04 #@! TF.FileFunction,Legend,Top*
G04 #@! TF.FilePolarity,Positive*
%FSLAX46Y46*%
G04 Gerber Fmt 4.6, Leading zero omitted, Abs format (unit mm)*
G04 Created by KiCad (PCBNEW 7.0.10) date 2024-01-20 18:16:50*
%MOMM*%
%LPD*%
G01*
G04 APERTURE LIST*
%ADD10C,0.200000*%
%ADD11C,0.150000*%
%ADD12C,0.120000*%
%ADD13C,0.508000*%
G04 APERTURE END LIST*
D10*
X142581975Y-61984023D02*
X191691975Y-61984023D01*
X191691975Y-112204023D02*
X142581975Y-112204023D01*
X142581975Y-112204023D02*
X142581975Y-61984023D01*
D11*
X140114819Y-64743333D02*
X140829104Y-64743333D01*
X140829104Y-64743333D02*
X140971961Y-64790952D01*
X140971961Y-64790952D02*
X141067200Y-64886190D01*
X141067200Y-64886190D02*
X141114819Y-65029047D01*
X141114819Y-65029047D02*
X141114819Y-65124285D01*
X140114819Y-64362380D02*
X140114819Y-63743333D01*
X140114819Y-63743333D02*
X140495771Y-64076666D01*
X140495771Y-64076666D02*
X140495771Y-63933809D01*
X140495771Y-63933809D02*
X140543390Y-63838571D01*
X140543390Y-63838571D02*
X140591009Y-63790952D01*
X140591009Y-63790952D02*
X140686247Y-63743333D01*
X140686247Y-63743333D02*
X140924342Y-63743333D01*
X140924342Y-63743333D02*
X141019580Y-63790952D01*
X141019580Y-63790952D02*
X141067200Y-63838571D01*
X141067200Y-63838571D02*
X141114819Y-63933809D01*
X141114819Y-63933809D02*
X141114819Y-64219523D01*
X141114819Y-64219523D02*
X141067200Y-64314761D01*
X141067200Y-64314761D02*
X141019580Y-64362380D01*
X134273333Y-91024819D02*
X133940000Y-90548628D01*
X133701905Y-91024819D02*
X133701905Y-90024819D01*
X133701905Y-90024819D02*
X134082857Y-90024819D01*
X134082857Y-90024819D02*
X134178095Y-90072438D01*
X134178095Y-90072438D02*
X134225714Y-90120057D01*
X134225714Y-90120057D02*
X134273333Y-90215295D01*
X134273333Y-90215295D02*
X134273333Y-90358152D01*
X134273333Y-90358152D02*
X134225714Y-90453390D01*
X134225714Y-90453390D02*
X134178095Y-90501009D01*
X134178095Y-90501009D02*
X134082857Y-90548628D01*
X134082857Y-90548628D02*
X133701905Y-90548628D01*
X135225714Y-91024819D02*
X134654286Y-91024819D01*
X134940000Y-91024819D02*
X134940000Y-90024819D01*
X134940000Y-90024819D02*
X134844762Y-90167676D01*
X134844762Y-90167676D02*
X134749524Y-90262914D01*
X134749524Y-90262914D02*
X134654286Y-90310533D01*
G36*
X165319461Y-97665454D02*
G01*
X165489514Y-97892316D01*
X165596818Y-98308045D01*
X165622821Y-98566039D01*
X165643249Y-98950529D01*
X165632621Y-99165720D01*
X165575813Y-99260696D01*
X165457699Y-99284545D01*
X165401235Y-99285173D01*
X165090230Y-99188193D01*
X164845071Y-98939421D01*
X164690344Y-98602106D01*
X164650632Y-98239498D01*
X164750518Y-97914846D01*
X164829803Y-97814975D01*
X165096333Y-97636619D01*
X165319461Y-97665454D01*
G37*
G36*
X165247160Y-101615313D02*
G01*
X165471059Y-101756355D01*
X165589496Y-101994130D01*
X165640355Y-102414261D01*
X165643104Y-102577475D01*
X165636881Y-102939030D01*
X165604123Y-103133310D01*
X165523691Y-103211942D01*
X165377343Y-103226552D01*
X165081688Y-103128710D01*
X164847889Y-102875530D01*
X164701032Y-102527528D01*
X164666204Y-102145223D01*
X164768489Y-101789131D01*
X164776011Y-101775905D01*
X164979152Y-101610336D01*
X165247160Y-101615313D01*
G37*
G36*
X166259751Y-93298770D02*
G01*
X166384841Y-93367919D01*
X166756171Y-93700334D01*
X166929233Y-94090490D01*
X166897971Y-94506708D01*
X166676590Y-94893739D01*
X166288443Y-95203451D01*
X165833504Y-95311736D01*
X165345992Y-95211440D01*
X165285728Y-95184480D01*
X164901738Y-94901392D01*
X164698407Y-94529398D01*
X164684971Y-94113549D01*
X164870666Y-93698897D01*
X164958836Y-93589994D01*
X165357571Y-93286455D01*
X165802520Y-93187619D01*
X166259751Y-93298770D01*
G37*
G36*
X166313719Y-79994959D02*
G01*
X166686208Y-80246453D01*
X166904382Y-80641388D01*
X166954462Y-81020501D01*
X166860254Y-81518662D01*
X166608808Y-81896125D01*
X166238396Y-82130792D01*
X165787292Y-82200565D01*
X165293766Y-82083345D01*
X165195032Y-82036394D01*
X164868804Y-81756295D01*
X164685980Y-81365795D01*
X164653902Y-80926055D01*
X164779913Y-80498234D01*
X164977785Y-80226751D01*
X165238876Y-80014044D01*
X165521373Y-79922137D01*
X165807328Y-79906724D01*
X166313719Y-79994959D01*
G37*
G36*
X166250629Y-84617105D02*
G01*
X166586412Y-84822091D01*
X166827028Y-85122251D01*
X166930010Y-85501805D01*
X166888675Y-85838667D01*
X166678231Y-86222526D01*
X166336709Y-86488435D01*
X165922372Y-86620499D01*
X165493482Y-86602824D01*
X165108302Y-86419516D01*
X165026411Y-86346693D01*
X164794490Y-85988583D01*
X164700189Y-85564332D01*
X164758721Y-85162079D01*
X164805102Y-85064465D01*
X165096914Y-84730972D01*
X165463415Y-84555766D01*
X165862141Y-84523070D01*
X166250629Y-84617105D01*
G37*
G36*
X166202436Y-88897425D02*
G01*
X166561480Y-89109905D01*
X166817748Y-89458255D01*
X166885039Y-89654372D01*
X166903457Y-90114131D01*
X166750966Y-90506576D01*
X166470315Y-90807435D01*
X166104248Y-90992434D01*
X165695512Y-91037299D01*
X165286855Y-90917758D01*
X165016066Y-90715658D01*
X164803204Y-90379340D01*
X164699979Y-89960646D01*
X164728473Y-89564010D01*
X164756161Y-89486466D01*
X165017479Y-89115335D01*
X165379553Y-88896127D01*
X165791499Y-88824828D01*
X166202436Y-88897425D01*
G37*
G36*
X166444458Y-72047661D02*
G01*
X166655819Y-72224722D01*
X166874488Y-72547913D01*
X166970833Y-72950453D01*
X166940669Y-73353469D01*
X166779810Y-73678084D01*
X166735344Y-73723290D01*
X166598536Y-73828448D01*
X166486115Y-73842357D01*
X166374141Y-73738864D01*
X166238675Y-73491819D01*
X166055779Y-73075069D01*
X165983451Y-72901901D01*
X165801854Y-72460990D01*
X165697030Y-72180772D01*
X165661852Y-72019685D01*
X165689193Y-71936168D01*
X165771926Y-71888660D01*
X165807328Y-71874891D01*
X166098554Y-71865137D01*
X166444458Y-72047661D01*
G37*
G36*
X165955006Y-70710173D02*
G01*
X166300000Y-70710173D01*
X168927586Y-70710173D01*
X170241379Y-70710173D01*
X170241379Y-87734741D01*
X170241379Y-104759310D01*
X166300000Y-104759310D01*
X162358621Y-104759310D01*
X162358621Y-102239131D01*
X164015737Y-102239131D01*
X164110434Y-102703273D01*
X164165761Y-102828506D01*
X164300705Y-103127770D01*
X164306660Y-103284992D01*
X164183075Y-103335471D01*
X164157814Y-103336035D01*
X164033715Y-103406944D01*
X164020961Y-103637112D01*
X164055604Y-103938190D01*
X165152479Y-103969111D01*
X165675991Y-103973485D01*
X166167137Y-103959487D01*
X166551813Y-103929991D01*
X166684007Y-103909725D01*
X167107192Y-103721335D01*
X167409579Y-103380109D01*
X167579714Y-102922919D01*
X167606145Y-102386637D01*
X167477421Y-101808136D01*
X167397776Y-101611681D01*
X167201145Y-101276290D01*
X167006582Y-101153349D01*
X166802939Y-101236740D01*
X166770221Y-101267366D01*
X166710647Y-101426667D01*
X166778877Y-101696609D01*
X166803066Y-101756522D01*
X166930475Y-102218373D01*
X166930024Y-102639176D01*
X166813982Y-102974999D01*
X166594619Y-103181908D01*
X166392514Y-103226552D01*
X166273900Y-103194223D01*
X166212774Y-103063323D01*
X166191677Y-102782981D01*
X166190517Y-102638082D01*
X166164550Y-102025894D01*
X166078212Y-101577465D01*
X165918852Y-101242851D01*
X165799181Y-101093194D01*
X165458864Y-100870535D01*
X165055670Y-100819496D01*
X164649828Y-100930614D01*
X164301566Y-101194426D01*
X164188310Y-101346294D01*
X164042221Y-101752281D01*
X164015737Y-102239131D01*
X162358621Y-102239131D01*
X162358621Y-98297752D01*
X164015737Y-98297752D01*
X164110434Y-98761894D01*
X164165761Y-98887127D01*
X164300705Y-99186391D01*
X164306660Y-99343612D01*
X164183075Y-99394092D01*
X164157814Y-99394655D01*
X164033715Y-99465565D01*
X164020961Y-99695733D01*
X164055604Y-99996810D01*
X165055670Y-100020981D01*
X165326122Y-100027518D01*
X165860572Y-100030532D01*
X166339304Y-100015245D01*
X166705289Y-99984560D01*
X166886201Y-99948135D01*
X167233965Y-99706598D01*
X167471928Y-99316722D01*
X167589575Y-98825333D01*
X167576390Y-98279254D01*
X167421855Y-97725311D01*
X167397776Y-97670302D01*
X167201145Y-97334911D01*
X167006582Y-97211970D01*
X166802939Y-97295361D01*
X166770221Y-97325986D01*
X166710647Y-97485288D01*
X166778877Y-97755230D01*
X166803066Y-97815142D01*
X166930475Y-98276993D01*
X166930024Y-98697797D01*
X166813982Y-99033620D01*
X166594619Y-99240529D01*
X166392514Y-99285173D01*
X166273900Y-99252844D01*
X166212774Y-99121944D01*
X166191677Y-98841601D01*
X166190517Y-98696703D01*
X166164550Y-98084515D01*
X166078212Y-97636086D01*
X165918852Y-97301472D01*
X165799181Y-97151815D01*
X165458864Y-96929155D01*
X165055670Y-96878116D01*
X164649828Y-96989235D01*
X164301566Y-97253047D01*
X164188310Y-97404915D01*
X164042221Y-97810902D01*
X164015737Y-98297752D01*
X162358621Y-98297752D01*
X162358621Y-95529602D01*
X164012228Y-95529602D01*
X164021296Y-95699612D01*
X164055604Y-96055431D01*
X165055670Y-96067527D01*
X166491595Y-96084896D01*
X168927586Y-96114362D01*
X168927586Y-95729077D01*
X168927586Y-95343793D01*
X168051724Y-95343793D01*
X167644953Y-95338211D01*
X167338653Y-95323378D01*
X167184643Y-95302161D01*
X167175862Y-95295310D01*
X167226384Y-95179601D01*
X167352914Y-94948155D01*
X167408517Y-94852506D01*
X167591266Y-94342916D01*
X167574912Y-93808576D01*
X167370041Y-93287807D01*
X166987234Y-92818928D01*
X166805250Y-92668230D01*
X166439969Y-92504700D01*
X165961631Y-92432240D01*
X165456244Y-92450709D01*
X165009813Y-92559964D01*
X164802641Y-92671532D01*
X164341537Y-93108519D01*
X164085764Y-93594317D01*
X164023038Y-94153459D01*
X164027348Y-94219898D01*
X164090448Y-94604353D01*
X164198099Y-94907398D01*
X164256065Y-94994898D01*
X164414648Y-95207908D01*
X164393353Y-95316068D01*
X164212891Y-95343793D01*
X164059286Y-95379946D01*
X164012228Y-95529602D01*
X162358621Y-95529602D01*
X162358621Y-89906832D01*
X164004313Y-89906832D01*
X164107088Y-90516601D01*
X164227596Y-90816305D01*
X164569388Y-91297112D01*
X165025670Y-91621315D01*
X165551267Y-91781654D01*
X165961631Y-91773602D01*
X166101003Y-91770867D01*
X166629704Y-91581695D01*
X167036137Y-91267676D01*
X167426462Y-90727548D01*
X167602956Y-90143482D01*
X167564118Y-89525030D01*
X167387060Y-89032488D01*
X167037136Y-88536769D01*
X166557962Y-88215342D01*
X165962884Y-88076329D01*
X165807328Y-88071010D01*
X165201102Y-88166442D01*
X164698699Y-88430739D01*
X164319107Y-88830903D01*
X164081316Y-89333933D01*
X164004313Y-89906832D01*
X162358621Y-89906832D01*
X162358621Y-87734741D01*
X162358621Y-84194799D01*
X164000862Y-84194799D01*
X164039923Y-84426932D01*
X164182255Y-84503586D01*
X164219828Y-84505000D01*
X164379652Y-84517149D01*
X164421626Y-84585240D01*
X164345790Y-84756737D01*
X164220237Y-84967656D01*
X164020775Y-85478158D01*
X164014823Y-85990546D01*
X164179946Y-86470458D01*
X164493708Y-86883533D01*
X164933676Y-87195409D01*
X165477414Y-87371725D01*
X165807328Y-87398473D01*
X166439044Y-87306135D01*
X166955371Y-87042403D01*
X167333380Y-86627201D01*
X167550141Y-86080454D01*
X167584375Y-85854319D01*
X167592128Y-85470403D01*
X167507376Y-85172965D01*
X167353421Y-84915560D01*
X167072978Y-84505000D01*
X168000282Y-84505000D01*
X168927586Y-84505000D01*
X168927586Y-84121810D01*
X168927586Y-83738621D01*
X166537213Y-83738621D01*
X165834838Y-83741825D01*
X165207379Y-83750794D01*
X164687495Y-83764558D01*
X164307843Y-83782151D01*
X164101082Y-83802605D01*
X164073851Y-83811609D01*
X164020370Y-83964743D01*
X164000862Y-84194799D01*
X162358621Y-84194799D01*
X162358621Y-80818910D01*
X164065027Y-80818910D01*
X164086252Y-81408933D01*
X164266161Y-81970160D01*
X164278889Y-81995250D01*
X164616021Y-82433444D01*
X165065074Y-82718759D01*
X165580583Y-82850550D01*
X166117083Y-82828171D01*
X166629109Y-82650979D01*
X167071195Y-82318328D01*
X167287647Y-82037914D01*
X167464734Y-81580622D01*
X167524335Y-81033562D01*
X167465137Y-80491338D01*
X167314617Y-80094825D01*
X166938501Y-79647665D01*
X166455711Y-79361829D01*
X165912454Y-79241883D01*
X165354937Y-79292395D01*
X164829369Y-79517930D01*
X164475087Y-79814210D01*
X164196600Y-80265524D01*
X164065027Y-80818910D01*
X162358621Y-80818910D01*
X162358621Y-77245664D01*
X164015380Y-77245664D01*
X164069144Y-77567587D01*
X164113683Y-77735679D01*
X164247187Y-78080437D01*
X164420897Y-78375500D01*
X164434457Y-78392575D01*
X164593485Y-78560501D01*
X164709577Y-78566722D01*
X164824770Y-78469688D01*
X164935564Y-78333942D01*
X164938023Y-78191520D01*
X164831332Y-77954176D01*
X164819807Y-77931827D01*
X164684603Y-77456503D01*
X164727621Y-76962479D01*
X164938106Y-76525536D01*
X165035259Y-76413942D01*
X165411028Y-76180049D01*
X165853582Y-76113518D01*
X165912454Y-76127166D01*
X166288512Y-76214348D01*
X166579396Y-76413942D01*
X166825765Y-76786464D01*
X166936496Y-77229614D01*
X166899556Y-77662292D01*
X166798188Y-77888241D01*
X166678043Y-78099523D01*
X166687728Y-78239265D01*
X166801051Y-78383224D01*
X166978281Y-78551009D01*
X167107698Y-78556160D01*
X167249536Y-78384690D01*
X167324301Y-78261723D01*
X167472893Y-77841856D01*
X167519770Y-77317886D01*
X167465552Y-76779290D01*
X167310856Y-76315550D01*
X166971650Y-75881413D01*
X166503237Y-75584112D01*
X165959898Y-75440993D01*
X165395915Y-75469402D01*
X165040077Y-75589907D01*
X164606243Y-75865230D01*
X164311577Y-76240220D01*
X164159482Y-76587623D01*
X164043944Y-76957838D01*
X164015380Y-77245664D01*
X162358621Y-77245664D01*
X162358621Y-73090529D01*
X164074182Y-73090529D01*
X164194409Y-73717344D01*
X164297525Y-73970262D01*
X164500051Y-74286838D01*
X164765000Y-74560219D01*
X165028685Y-74731569D01*
X165153482Y-74761035D01*
X165324494Y-74684601D01*
X165363235Y-74500539D01*
X165268398Y-74276703D01*
X165164948Y-74166343D01*
X164824011Y-73772202D01*
X164671866Y-73302596D01*
X164657759Y-73064052D01*
X164703371Y-72663743D01*
X164825255Y-72374410D01*
X165000982Y-72245404D01*
X165030954Y-72242931D01*
X165130672Y-72339218D01*
X165287865Y-72603537D01*
X165482650Y-72999074D01*
X165666631Y-73419871D01*
X165872532Y-73886504D01*
X165959898Y-74061201D01*
X166064949Y-74271260D01*
X166221497Y-74532458D01*
X166315518Y-74628000D01*
X166549473Y-74581974D01*
X166847151Y-74405180D01*
X167145945Y-74145698D01*
X167383249Y-73851611D01*
X167428141Y-73773507D01*
X167571567Y-73282241D01*
X167540695Y-72761604D01*
X167361800Y-72256461D01*
X167061158Y-71811678D01*
X166665047Y-71472120D01*
X166199741Y-71282653D01*
X165955006Y-71258197D01*
X165308152Y-71352532D01*
X164778572Y-71612502D01*
X164384335Y-72008538D01*
X164143515Y-72511070D01*
X164074182Y-73090529D01*
X162358621Y-73090529D01*
X162358621Y-70710173D01*
X165955006Y-70710173D01*
G37*
D12*
X139660000Y-58755000D02*
X139660000Y-60025000D01*
X138390000Y-58755000D02*
X139660000Y-58755000D01*
X136230000Y-61067929D02*
X136230000Y-61465000D01*
X135470000Y-61067929D02*
X135470000Y-61465000D01*
X133690000Y-61067929D02*
X133690000Y-61465000D01*
X132930000Y-61067929D02*
X132930000Y-61465000D01*
X131150000Y-61067929D02*
X131150000Y-61465000D01*
X130390000Y-61067929D02*
X130390000Y-61465000D01*
X138770000Y-61135000D02*
X138770000Y-61465000D01*
X138010000Y-61135000D02*
X138010000Y-61465000D01*
X139720000Y-61465000D02*
X129440000Y-61465000D01*
X137120000Y-61465000D02*
X137120000Y-64125000D01*
X134580000Y-61465000D02*
X134580000Y-64125000D01*
X132040000Y-61465000D02*
X132040000Y-64125000D01*
X129440000Y-61465000D02*
X129440000Y-64125000D01*
X139720000Y-64125000D02*
X139720000Y-61465000D01*
X138770000Y-64125000D02*
X138770000Y-70125000D01*
X138710000Y-64125000D02*
X138710000Y-70125000D01*
X138590000Y-64125000D02*
X138590000Y-70125000D01*
X138470000Y-64125000D02*
X138470000Y-70125000D01*
X138350000Y-64125000D02*
X138350000Y-70125000D01*
X138230000Y-64125000D02*
X138230000Y-70125000D01*
X138110000Y-64125000D02*
X138110000Y-70125000D01*
X136230000Y-64125000D02*
X136230000Y-70125000D01*
X133690000Y-64125000D02*
X133690000Y-70125000D01*
X131150000Y-64125000D02*
X131150000Y-70125000D01*
X129440000Y-64125000D02*
X139720000Y-64125000D01*
X138770000Y-70125000D02*
X138010000Y-70125000D01*
X138010000Y-70125000D02*
X138010000Y-64125000D01*
X136230000Y-70125000D02*
X135470000Y-70125000D01*
X135470000Y-70125000D02*
X135470000Y-64125000D01*
X133690000Y-70125000D02*
X132930000Y-70125000D01*
X132930000Y-70125000D02*
X132930000Y-64125000D01*
X131150000Y-70125000D02*
X130390000Y-70125000D01*
X130390000Y-70125000D02*
X130390000Y-64125000D01*
X134593641Y-89780000D02*
X134286359Y-89780000D01*
X134593641Y-89020000D02*
X134286359Y-89020000D01*
D13*
X161300000Y-79878804D02*
G75*
G03*
X161300000Y-79116804I0J381000D01*
G01*
X161300000Y-79116804D02*
G75*
G03*
X161300000Y-79878804I0J-381000D01*
G01*
M02*
